<svg width="1058.5mm" height="417.5mm" viewBox="0 0 1058.5 417.5" xmlns="http://www.w3.org/2000/svg" version="1.1" preserveAspectRatio="xMidYMid meet"><g id="svgGroup" stroke-linecap="round" fill-rule="evenodd" font-size="9pt" stroke="#000" stroke-width="0.25mm" fill="none" style="stroke:#000;stroke-width:0.25mm;fill:none"><path d="M 21 411.5 L 32.5 411.5 L 32.5 417.5 L 45 417.5 L 45 411.5 L 56.5 411.5 L 56.5 417.5 L 69 417.5 L 69 411.5 L 80.5 411.5 L 80.5 417.5 L 93 417.5 L 93 411.5 L 104.5 411.5 L 104.5 417.5 L 117 417.5 L 117 411.5 L 128.5 411.5 L 128.5 417.5 L 141 417.5 L 141 411.5 L 152.5 411.5 L 152.5 417.5 L 165 417.5 L 165 411.5 L 176.5 411.5 L 176.5 417.5 L 189 417.5 L 189 411.5 L 200.5 411.5 L 200.5 417.5 L 213 417.5 L 213 411.5 L 224.5 411.5 L 224.5 417.5 L 237 417.5 L 237 411.5 L 248.5 411.5 L 248.5 417.5 L 261 417.5 L 261 411.5 L 272.5 411.5 L 272.5 417.5 L 285 417.5 L 285 411.5 L 296.5 411.5 L 296.5 417.5 L 317.5 417.5 L 317.5 405 L 311.5 405 L 311.5 393.5 L 317.5 393.5 L 317.5 381 L 0 381 L 0 393.5 L 6 393.5 L 6 405 L 0 405 L 0 417.5 L 21 417.5 L 21 411.5 Z" id="front_outsideCutPath" stroke="#FF0000" stroke-width="0.1" style="stroke:#FF0000;stroke-width:0.1" vector-effect="non-scaling-stroke"/><path d="M 164.07 402.007 L 163.478 402.007 L 163.478 399.48 Q 163.478 399.175 163.39 398.969 A 0.704 0.704 0 0 0 163.261 398.767 Q 163.043 398.532 162.58 398.532 Q 162.176 398.532 161.915 398.676 A 0.834 0.834 0 0 0 161.682 398.863 A 0.967 0.967 0 0 0 161.514 399.157 Q 161.412 399.427 161.399 399.829 A 3.791 3.791 0 0 0 161.397 399.957 L 161.397 402.007 L 160.805 402.007 L 160.805 398.1 L 161.286 398.1 L 161.382 398.635 L 161.411 398.635 Q 161.593 398.346 161.921 398.188 A 1.602 1.602 0 0 1 162.491 398.036 A 1.937 1.937 0 0 1 162.651 398.029 Q 163.119 398.029 163.434 398.179 A 1.063 1.063 0 0 1 163.714 398.37 Q 163.985 398.628 164.05 399.124 A 2.582 2.582 0 0 1 164.07 399.458 L 164.07 402.007 Z M 152.703 398.1 L 152.703 398.56 L 151.708 398.56 L 151.708 402.007 L 151.117 402.007 L 151.117 398.56 L 150.418 398.56 L 150.418 398.293 L 151.117 398.079 L 151.117 397.862 A 2.398 2.398 0 0 1 151.173 397.318 Q 151.346 396.577 152.054 396.448 A 1.798 1.798 0 0 1 152.375 396.422 Q 152.616 396.422 152.922 396.497 A 3.83 3.83 0 0 1 153.102 396.546 L 152.949 397.02 A 2.873 2.873 0 0 0 152.725 396.957 Q 152.613 396.931 152.513 396.919 A 1.272 1.272 0 0 0 152.364 396.91 A 0.798 0.798 0 0 0 152.172 396.932 A 0.512 0.512 0 0 0 151.869 397.133 A 0.685 0.685 0 0 0 151.778 397.315 Q 151.718 397.493 151.71 397.758 A 2.794 2.794 0 0 0 151.708 397.847 L 151.708 398.1 L 152.703 398.1 Z M 167.082 401.519 L 167.082 401.971 A 0.582 0.582 0 0 1 167.013 401.999 Q 166.939 402.023 166.834 402.042 A 2.212 2.212 0 0 1 166.799 402.048 A 2.565 2.565 0 0 1 166.631 402.07 Q 166.541 402.078 166.462 402.078 Q 165.558 402.078 165.375 401.319 A 1.86 1.86 0 0 1 165.328 400.884 L 165.328 398.56 L 164.769 398.56 L 164.769 398.275 L 165.328 398.029 L 165.578 397.195 L 165.92 397.195 L 165.92 398.1 L 167.053 398.1 L 167.053 398.56 L 165.92 398.56 L 165.92 400.859 A 1.191 1.191 0 0 0 165.937 401.069 Q 165.958 401.183 166.003 401.274 A 0.574 0.574 0 0 0 166.087 401.401 A 0.55 0.55 0 0 0 166.425 401.581 A 0.791 0.791 0 0 0 166.547 401.59 A 1.943 1.943 0 0 0 166.832 401.57 A 1.793 1.793 0 0 0 166.85 401.567 Q 166.996 401.544 167.082 401.519 Z M 155.665 398.072 L 155.583 398.621 A 2.608 2.608 0 0 0 155.395 398.586 Q 155.265 398.567 155.155 398.567 A 1.025 1.025 0 0 0 154.398 398.894 A 1.403 1.403 0 0 0 154.344 398.952 Q 154.007 399.337 154.007 399.911 L 154.007 402.007 L 153.416 402.007 L 153.416 398.1 L 153.904 398.1 L 153.972 398.824 L 154 398.824 A 1.998 1.998 0 0 1 154.224 398.505 A 1.526 1.526 0 0 1 154.524 398.236 A 1.18 1.18 0 0 1 155.198 398.029 Q 155.458 398.029 155.665 398.072 Z M 159.713 400.645 A 3.056 3.056 0 0 0 159.768 400.05 A 3.472 3.472 0 0 0 159.766 399.956 Q 159.743 399.092 159.285 398.574 A 1.549 1.549 0 0 0 158.566 398.111 A 1.988 1.988 0 0 0 157.982 398.029 A 2.298 2.298 0 0 0 157.569 398.065 A 1.565 1.565 0 0 0 156.656 398.562 A 1.635 1.635 0 0 0 156.455 398.84 Q 156.178 399.323 156.178 400.05 A 2.96 2.96 0 0 0 156.215 400.53 A 2.189 2.189 0 0 0 156.399 401.127 Q 156.62 401.586 157.027 401.832 A 1.648 1.648 0 0 0 157.405 402.001 A 1.9 1.9 0 0 0 157.957 402.078 A 2.298 2.298 0 0 0 158.358 402.045 A 1.577 1.577 0 0 0 159.286 401.542 A 1.651 1.651 0 0 0 159.483 401.272 Q 159.643 400.998 159.713 400.645 Z M 156.791 400.05 A 2.996 2.996 0 0 0 156.82 400.478 Q 156.884 400.92 157.091 401.191 A 0.97 0.97 0 0 0 157.722 401.563 A 1.47 1.47 0 0 0 157.971 401.583 A 1.374 1.374 0 0 0 158.334 401.538 A 0.956 0.956 0 0 0 158.853 401.193 A 1.27 1.27 0 0 0 159.051 400.807 Q 159.155 400.491 159.155 400.05 Q 159.155 399.572 159.031 399.242 A 1.218 1.218 0 0 0 158.853 398.918 Q 158.552 398.532 157.964 398.532 A 1.408 1.408 0 0 0 157.613 398.573 A 0.942 0.942 0 0 0 157.087 398.913 Q 156.874 399.188 156.815 399.656 A 3.127 3.127 0 0 0 156.791 400.05 Z" id="front_labelLayer" stroke="#777777" fill="#777777" style="stroke:#777777;fill:#777777" vector-effect="non-scaling-stroke"/><path d="M 343.5 411.5 L 355 411.5 L 355 417.5 L 367.5 417.5 L 367.5 411.5 L 379 411.5 L 379 417.5 L 391.5 417.5 L 391.5 411.5 L 403 411.5 L 403 417.5 L 415.5 417.5 L 415.5 411.5 L 427 411.5 L 427 417.5 L 439.5 417.5 L 439.5 411.5 L 451 411.5 L 451 417.5 L 463.5 417.5 L 463.5 411.5 L 475 411.5 L 475 417.5 L 487.5 417.5 L 487.5 411.5 L 499 411.5 L 499 417.5 L 511.5 417.5 L 511.5 411.5 L 523 411.5 L 523 417.5 L 535.5 417.5 L 535.5 411.5 L 547 411.5 L 547 417.5 L 559.5 417.5 L 559.5 411.5 L 571 411.5 L 571 417.5 L 583.5 417.5 L 583.5 411.5 L 595 411.5 L 595 417.5 L 607.5 417.5 L 607.5 411.5 L 619 411.5 L 619 417.5 L 631.5 417.5 L 631.5 411.5 L 643 411.5 L 643 417.5 L 655.5 417.5 L 655.5 411.5 L 667 411.5 L 667 417.5 L 679.5 417.5 L 679.5 411.5 L 691 411.5 L 691 417.5 L 703.5 417.5 L 703.5 411.5 L 715 411.5 L 715 417.5 L 732 417.5 L 732 405.5 L 738 405.5 L 738 393 L 732 393 L 732 381 L 326.5 381 L 326.5 393 L 320.5 393 L 320.5 405.5 L 326.5 405.5 L 326.5 417.5 L 343.5 417.5 L 343.5 411.5 Z" id="left_outsideCutPath" stroke="#FF0000" stroke-width="0.1" style="stroke:#FF0000;stroke-width:0.1" vector-effect="non-scaling-stroke"/><path d="M 531.847 398.1 L 531.847 398.56 L 530.852 398.56 L 530.852 402.007 L 530.261 402.007 L 530.261 398.56 L 529.562 398.56 L 529.562 398.293 L 530.261 398.079 L 530.261 397.862 A 2.398 2.398 0 0 1 530.317 397.318 Q 530.49 396.577 531.198 396.448 A 1.798 1.798 0 0 1 531.519 396.422 Q 531.76 396.422 532.066 396.497 A 3.83 3.83 0 0 1 532.246 396.546 L 532.093 397.02 A 2.873 2.873 0 0 0 531.869 396.957 Q 531.756 396.931 531.657 396.919 A 1.272 1.272 0 0 0 531.508 396.91 A 0.798 0.798 0 0 0 531.316 396.932 A 0.512 0.512 0 0 0 531.013 397.133 A 0.685 0.685 0 0 0 530.922 397.315 Q 530.862 397.493 530.854 397.758 A 2.794 2.794 0 0 0 530.852 397.847 L 530.852 398.1 L 531.847 398.1 Z M 529.077 399.786 L 529.077 400.161 L 526.386 400.161 A 2.375 2.375 0 0 0 526.428 400.558 Q 526.47 400.775 526.556 400.946 A 1.111 1.111 0 0 0 526.733 401.205 A 1.075 1.075 0 0 0 527.298 401.523 A 1.629 1.629 0 0 0 527.662 401.561 A 3.125 3.125 0 0 0 528.832 401.33 A 3.581 3.581 0 0 0 528.91 401.298 L 528.91 401.825 A 3.552 3.552 0 0 1 528.586 401.948 A 2.716 2.716 0 0 1 528.316 402.02 Q 528.036 402.078 527.641 402.078 A 2.299 2.299 0 0 1 527.065 402.01 A 1.628 1.628 0 0 1 526.274 401.551 A 1.741 1.741 0 0 1 525.857 400.786 Q 525.785 400.515 525.775 400.193 A 3.38 3.38 0 0 1 525.773 400.086 Q 525.773 399.316 526.082 398.804 A 1.752 1.752 0 0 1 526.238 398.585 A 1.516 1.516 0 0 1 527.343 398.034 A 2.092 2.092 0 0 1 527.487 398.029 A 1.803 1.803 0 0 1 527.995 398.097 A 1.372 1.372 0 0 1 528.649 398.512 A 1.654 1.654 0 0 1 529.024 399.268 A 2.408 2.408 0 0 1 529.077 399.786 Z M 534.356 401.519 L 534.356 401.971 A 0.582 0.582 0 0 1 534.287 401.999 Q 534.213 402.023 534.108 402.042 A 2.212 2.212 0 0 1 534.073 402.048 A 2.565 2.565 0 0 1 533.905 402.07 Q 533.815 402.078 533.736 402.078 Q 532.832 402.078 532.649 401.319 A 1.86 1.86 0 0 1 532.602 400.884 L 532.602 398.56 L 532.043 398.56 L 532.043 398.275 L 532.602 398.029 L 532.852 397.195 L 533.194 397.195 L 533.194 398.1 L 534.328 398.1 L 534.328 398.56 L 533.194 398.56 L 533.194 400.859 A 1.191 1.191 0 0 0 533.211 401.069 Q 533.232 401.183 533.277 401.274 A 0.574 0.574 0 0 0 533.362 401.401 A 0.55 0.55 0 0 0 533.7 401.581 A 0.791 0.791 0 0 0 533.821 401.59 A 1.943 1.943 0 0 0 534.106 401.57 A 1.793 1.793 0 0 0 534.124 401.567 Q 534.271 401.544 534.356 401.519 Z M 524.736 396.461 L 524.736 402.007 L 524.144 402.007 L 524.144 396.461 L 524.736 396.461 Z M 526.4 399.679 L 528.443 399.679 A 2.016 2.016 0 0 0 528.418 399.355 Q 528.365 399.027 528.193 398.822 A 0.811 0.811 0 0 0 527.705 398.544 A 1.216 1.216 0 0 0 527.48 398.525 A 1.166 1.166 0 0 0 527.143 398.571 A 0.901 0.901 0 0 0 526.73 398.831 Q 526.477 399.108 526.412 399.578 A 2.236 2.236 0 0 0 526.4 399.679 Z" id="left_labelLayer" stroke="#777777" fill="#777777" style="stroke:#777777;fill:#777777" vector-effect="non-scaling-stroke"/><path d="M 21 372 L 32.5 372 L 32.5 378 L 45 378 L 45 372 L 56.5 372 L 56.5 378 L 69 378 L 69 372 L 80.5 372 L 80.5 378 L 93 378 L 93 372 L 104.5 372 L 104.5 378 L 117 378 L 117 372 L 128.5 372 L 128.5 378 L 141 378 L 141 372 L 152.5 372 L 152.5 378 L 165 378 L 165 372 L 176.5 372 L 176.5 378 L 189 378 L 189 372 L 200.5 372 L 200.5 378 L 213 378 L 213 372 L 224.5 372 L 224.5 378 L 237 378 L 237 372 L 248.5 372 L 248.5 378 L 261 378 L 261 372 L 272.5 372 L 272.5 378 L 285 378 L 285 372 L 296.5 372 L 296.5 378 L 317.5 378 L 317.5 365.5 L 311.5 365.5 L 311.5 354 L 317.5 354 L 317.5 341.5 L 0 341.5 L 0 354 L 6 354 L 6 365.5 L 0 365.5 L 0 378 L 21 378 L 21 372 Z" id="back_outsideCutPath" stroke="#FF0000" stroke-width="0.1" style="stroke:#FF0000;stroke-width:0.1" vector-effect="non-scaling-stroke"/><path d="M 163.747 360.488 L 163.776 360.488 Q 163.893 360.321 164.105 360.075 A 12.715 12.715 0 0 1 164.243 359.917 L 165.505 358.581 L 166.207 358.581 L 164.624 360.245 L 166.317 362.487 L 165.601 362.487 L 164.221 360.641 L 163.776 361.026 L 163.776 362.487 L 163.191 362.487 L 163.191 356.941 L 163.776 356.941 L 163.776 359.882 A 3.944 3.944 0 0 1 163.774 359.993 Q 163.769 360.176 163.748 360.473 A 23.185 23.185 0 0 1 163.747 360.488 Z M 151.774 361.985 L 151.732 361.985 L 151.607 362.487 L 151.183 362.487 L 151.183 356.941 L 151.774 356.941 L 151.774 358.289 Q 151.774 358.727 151.748 359.078 A 7.393 7.393 0 0 1 151.746 359.101 L 151.774 359.101 A 1.345 1.345 0 0 1 152.756 358.531 A 2.021 2.021 0 0 1 153.001 358.517 A 1.808 1.808 0 0 1 153.509 358.585 A 1.354 1.354 0 0 1 154.196 359.042 Q 154.538 359.463 154.605 360.164 A 3.798 3.798 0 0 1 154.622 360.531 A 3.469 3.469 0 0 1 154.576 361.114 Q 154.482 361.667 154.193 362.026 A 1.401 1.401 0 0 1 153.197 362.549 A 2.007 2.007 0 0 1 153.001 362.559 A 1.795 1.795 0 0 1 152.55 362.504 A 1.562 1.562 0 0 1 152.304 362.418 A 1.311 1.311 0 0 1 151.774 361.985 Z M 158.497 362.487 L 158.058 362.487 L 157.941 361.931 L 157.912 361.931 A 2.453 2.453 0 0 1 157.714 362.154 Q 157.607 362.259 157.501 362.332 A 1.09 1.09 0 0 1 157.33 362.429 A 1.365 1.365 0 0 1 157.048 362.518 Q 156.911 362.546 156.753 362.555 A 2.663 2.663 0 0 1 156.604 362.559 Q 156.023 362.559 155.693 362.259 A 0.973 0.973 0 0 1 155.4 361.746 A 1.489 1.489 0 0 1 155.364 361.407 Q 155.364 360.224 157.256 360.167 L 157.919 360.146 L 157.919 359.903 A 1.699 1.699 0 0 0 157.903 359.658 Q 157.885 359.532 157.846 359.431 A 0.66 0.66 0 0 0 157.722 359.224 A 0.601 0.601 0 0 0 157.476 359.064 Q 157.377 359.028 157.255 359.014 A 1.462 1.462 0 0 0 157.089 359.005 A 1.926 1.926 0 0 0 156.646 359.06 Q 156.442 359.108 156.221 359.199 A 3.963 3.963 0 0 0 155.984 359.304 L 155.802 358.852 A 2.728 2.728 0 0 1 156.329 358.635 A 3.105 3.105 0 0 1 156.435 358.606 A 2.74 2.74 0 0 1 157.125 358.517 Q 157.823 358.517 158.16 358.827 Q 158.424 359.07 158.481 359.543 A 2.328 2.328 0 0 1 158.497 359.821 L 158.497 362.487 Z M 162.322 358.713 L 162.14 359.215 Q 161.944 359.137 161.712 359.085 A 2.444 2.444 0 0 0 161.526 359.051 Q 161.435 359.038 161.355 359.035 A 1.312 1.312 0 0 0 161.302 359.034 Q 160.245 359.034 160.126 360.232 A 3.269 3.269 0 0 0 160.112 360.552 Q 160.112 361.024 160.237 361.353 A 1.227 1.227 0 0 0 160.402 361.657 A 0.94 0.94 0 0 0 161.011 362.021 A 1.432 1.432 0 0 0 161.263 362.042 A 2.477 2.477 0 0 0 161.946 361.943 A 3.058 3.058 0 0 0 162.265 361.832 L 162.265 362.356 A 1.683 1.683 0 0 1 161.853 362.501 Q 161.663 362.543 161.441 362.555 A 3.245 3.245 0 0 1 161.277 362.559 A 2.211 2.211 0 0 1 160.739 362.497 A 1.5 1.5 0 0 1 159.964 362.037 A 1.712 1.712 0 0 1 159.608 361.383 Q 159.499 361.022 159.499 360.559 Q 159.499 359.849 159.746 359.373 A 1.631 1.631 0 0 1 159.971 359.044 A 1.532 1.532 0 0 1 160.81 358.562 A 2.323 2.323 0 0 1 161.316 358.51 A 2.67 2.67 0 0 1 161.88 358.57 Q 162.158 358.63 162.318 358.711 A 0.871 0.871 0 0 1 162.322 358.713 Z M 152.915 359.012 A 1.663 1.663 0 0 0 152.593 359.041 Q 152.232 359.113 152.042 359.36 A 1.013 1.013 0 0 0 151.895 359.639 Q 151.796 359.916 151.778 360.338 A 4.559 4.559 0 0 0 151.774 360.531 A 3.912 3.912 0 0 0 151.794 360.935 Q 151.836 361.343 151.972 361.591 A 0.892 0.892 0 0 0 152.049 361.709 A 0.858 0.858 0 0 0 152.484 362.002 Q 152.63 362.048 152.807 362.059 A 1.903 1.903 0 0 0 152.929 362.063 A 1.18 1.18 0 0 0 153.264 362.018 A 0.851 0.851 0 0 0 153.742 361.666 A 1.358 1.358 0 0 0 153.91 361.302 Q 153.963 361.13 153.987 360.921 A 3.39 3.39 0 0 0 154.009 360.523 A 3.496 3.496 0 0 0 153.988 360.125 Q 153.938 359.689 153.769 359.426 A 0.982 0.982 0 0 0 153.742 359.386 Q 153.475 359.012 152.915 359.012 Z M 157.905 360.919 L 157.905 360.566 L 157.314 360.591 Q 156.724 360.612 156.409 360.751 A 0.909 0.909 0 0 0 156.296 360.81 A 0.631 0.631 0 0 0 155.995 361.268 A 0.935 0.935 0 0 0 155.984 361.415 A 0.846 0.846 0 0 0 156.005 361.609 Q 156.04 361.758 156.134 361.86 A 0.527 0.527 0 0 0 156.178 361.903 A 0.644 0.644 0 0 0 156.42 362.031 Q 156.552 362.07 156.722 362.07 A 1.629 1.629 0 0 0 157.074 362.035 Q 157.319 361.98 157.5 361.844 A 0.988 0.988 0 0 0 157.59 361.767 A 0.991 0.991 0 0 0 157.866 361.273 Q 157.905 361.113 157.905 360.925 A 1.863 1.863 0 0 0 157.905 360.919 Z" id="back_labelLayer" stroke="#777777" fill="#777777" style="stroke:#777777;fill:#777777" vector-effect="non-scaling-stroke"/><path d="M 343.5 372 L 355 372 L 355 378 L 367.5 378 L 367.5 372 L 379 372 L 379 378 L 391.5 378 L 391.5 372 L 403 372 L 403 378 L 415.5 378 L 415.5 372 L 427 372 L 427 378 L 439.5 378 L 439.5 372 L 451 372 L 451 378 L 463.5 378 L 463.5 372 L 475 372 L 475 378 L 487.5 378 L 487.5 372 L 499 372 L 499 378 L 511.5 378 L 511.5 372 L 523 372 L 523 378 L 535.5 378 L 535.5 372 L 547 372 L 547 378 L 559.5 378 L 559.5 372 L 571 372 L 571 378 L 583.5 378 L 583.5 372 L 595 372 L 595 378 L 607.5 378 L 607.5 372 L 619 372 L 619 378 L 631.5 378 L 631.5 372 L 643 372 L 643 378 L 655.5 378 L 655.5 372 L 667 372 L 667 378 L 679.5 378 L 679.5 372 L 691 372 L 691 378 L 703.5 378 L 703.5 372 L 715 372 L 715 378 L 732 378 L 732 366 L 738 366 L 738 353.5 L 732 353.5 L 732 341.5 L 326.5 341.5 L 326.5 353.5 L 320.5 353.5 L 320.5 366 L 326.5 366 L 326.5 378 L 343.5 378 L 343.5 372 Z" id="right_outsideCutPath" stroke="#FF0000" stroke-width="0.1" style="stroke:#FF0000;stroke-width:0.1" vector-effect="non-scaling-stroke"/><path d="M 533.789 361.646 L 533.198 361.646 L 533.198 359.119 Q 533.198 358.815 533.109 358.609 A 0.704 0.704 0 0 0 532.98 358.406 Q 532.763 358.171 532.299 358.171 Q 531.683 358.171 531.399 358.506 Q 531.14 358.812 531.118 359.476 A 3.819 3.819 0 0 0 531.116 359.604 L 531.116 361.646 L 530.524 361.646 L 530.524 356.1 L 531.116 356.1 L 531.116 357.779 A 5.323 5.323 0 0 1 531.112 357.983 Q 531.109 358.079 531.101 358.161 A 2.315 2.315 0 0 1 531.087 358.281 L 531.123 358.281 A 1.182 1.182 0 0 1 531.537 357.883 A 1.444 1.444 0 0 1 531.62 357.838 A 1.519 1.519 0 0 1 532.119 357.69 A 1.92 1.92 0 0 1 532.356 357.675 A 2.401 2.401 0 0 1 532.76 357.707 Q 533.182 357.779 533.431 358.016 A 1.03 1.03 0 0 1 533.685 358.415 Q 533.789 358.698 533.789 359.098 L 533.789 361.646 Z M 528.371 357.74 L 529.722 357.74 L 529.722 358.114 L 528.999 358.199 Q 529.099 358.324 529.177 358.526 A 1.138 1.138 0 0 1 529.244 358.798 A 1.462 1.462 0 0 1 529.255 358.98 A 1.356 1.356 0 0 1 529.193 359.401 A 1.097 1.097 0 0 1 528.863 359.896 A 1.312 1.312 0 0 1 528.347 360.168 Q 528.152 360.223 527.92 360.235 A 2.57 2.57 0 0 1 527.787 360.238 A 1.902 1.902 0 0 1 527.567 360.226 A 1.606 1.606 0 0 1 527.459 360.21 A 1.053 1.053 0 0 0 527.289 360.32 Q 527.201 360.39 527.151 360.471 A 0.445 0.445 0 0 0 527.081 360.712 A 0.307 0.307 0 0 0 527.097 360.813 Q 527.125 360.895 527.205 360.945 A 0.329 0.329 0 0 0 527.213 360.949 Q 527.319 361.011 527.548 361.023 A 2.251 2.251 0 0 0 527.666 361.026 L 528.357 361.026 A 2.422 2.422 0 0 1 528.725 361.052 Q 529.098 361.11 529.332 361.293 Q 529.672 361.561 529.672 362.07 Q 529.672 362.706 529.172 363.046 A 1.407 1.407 0 0 1 529.152 363.06 A 1.774 1.774 0 0 1 528.695 363.267 Q 528.469 363.336 528.194 363.369 A 4.69 4.69 0 0 1 527.634 363.4 A 3.315 3.315 0 0 1 527.189 363.372 Q 526.963 363.341 526.779 363.277 A 1.375 1.375 0 0 1 526.452 363.115 A 0.943 0.943 0 0 1 526.148 362.785 Q 526.037 362.579 526.037 362.309 A 0.905 0.905 0 0 1 526.265 361.693 A 1.033 1.033 0 0 1 526.62 361.434 A 1.464 1.464 0 0 1 526.906 361.34 A 0.614 0.614 0 0 1 526.668 361.147 A 0.729 0.729 0 0 1 526.655 361.129 Q 526.553 360.987 526.553 360.798 A 0.677 0.677 0 0 1 526.588 360.58 A 0.6 0.6 0 0 1 526.668 360.424 A 0.847 0.847 0 0 1 526.779 360.298 Q 526.839 360.242 526.915 360.187 A 1.859 1.859 0 0 1 527.028 360.114 A 1.037 1.037 0 0 1 526.577 359.753 A 1.286 1.286 0 0 1 526.534 359.689 A 1.223 1.223 0 0 1 526.346 359.1 A 1.493 1.493 0 0 1 526.343 359.005 A 1.71 1.71 0 0 1 526.388 358.601 A 1.125 1.125 0 0 1 526.728 358.016 Q 527.113 357.668 527.819 357.668 A 2.268 2.268 0 0 1 528.119 357.687 A 1.727 1.727 0 0 1 528.371 357.74 Z M 536.801 361.158 L 536.801 361.611 A 0.582 0.582 0 0 1 536.732 361.638 Q 536.659 361.662 536.553 361.681 A 2.212 2.212 0 0 1 536.518 361.687 A 2.565 2.565 0 0 1 536.351 361.709 Q 536.261 361.718 536.181 361.718 Q 535.277 361.718 535.094 360.958 A 1.86 1.86 0 0 1 535.048 360.523 L 535.048 358.199 L 534.488 358.199 L 534.488 357.914 L 535.048 357.668 L 535.297 356.834 L 535.639 356.834 L 535.639 357.74 L 536.773 357.74 L 536.773 358.199 L 535.639 358.199 L 535.639 360.499 A 1.191 1.191 0 0 0 535.656 360.708 Q 535.677 360.823 535.722 360.913 A 0.574 0.574 0 0 0 535.807 361.04 A 0.55 0.55 0 0 0 536.145 361.22 A 0.791 0.791 0 0 0 536.267 361.229 A 1.943 1.943 0 0 0 536.551 361.209 A 1.793 1.793 0 0 0 536.57 361.206 Q 536.716 361.183 536.801 361.158 Z M 523.948 357.711 L 523.866 358.26 A 2.608 2.608 0 0 0 523.678 358.225 Q 523.548 358.207 523.438 358.207 A 1.025 1.025 0 0 0 522.681 358.534 A 1.403 1.403 0 0 0 522.627 358.592 Q 522.29 358.976 522.29 359.55 L 522.29 361.646 L 521.699 361.646 L 521.699 357.74 L 522.187 357.74 L 522.255 358.463 L 522.283 358.463 A 1.998 1.998 0 0 1 522.507 358.144 A 1.526 1.526 0 0 1 522.807 357.875 A 1.18 1.18 0 0 1 523.481 357.668 Q 523.741 357.668 523.948 357.711 Z M 525.27 357.74 L 525.27 361.646 L 524.679 361.646 L 524.679 357.74 L 525.27 357.74 Z M 528.168 361.557 L 527.459 361.557 A 1.36 1.36 0 0 0 527.214 361.578 Q 526.982 361.62 526.832 361.75 A 0.624 0.624 0 0 0 526.627 362.103 A 0.947 0.947 0 0 0 526.607 362.302 Q 526.607 362.598 526.839 362.76 A 0.694 0.694 0 0 0 526.874 362.783 Q 527.14 362.946 527.636 362.947 A 2.958 2.958 0 0 0 527.641 362.947 A 3.978 3.978 0 0 0 528.029 362.93 Q 528.486 362.885 528.744 362.725 A 0.863 0.863 0 0 0 528.944 362.557 A 0.647 0.647 0 0 0 529.102 362.12 A 0.801 0.801 0 0 0 529.087 361.961 Q 529.048 361.769 528.906 361.68 A 0.561 0.561 0 0 0 528.773 361.622 Q 528.631 361.578 528.407 361.564 A 3.765 3.765 0 0 0 528.168 361.557 Z M 527.06 359.496 A 0.633 0.633 0 0 0 527.159 359.611 A 0.765 0.765 0 0 0 527.467 359.778 Q 527.584 359.812 527.724 359.819 A 1.524 1.524 0 0 0 527.805 359.821 A 1.289 1.289 0 0 0 528.142 359.781 Q 528.528 359.676 528.632 359.297 A 1.198 1.198 0 0 0 528.671 358.98 A 1.272 1.272 0 0 0 528.627 358.632 Q 528.516 358.241 528.119 358.137 A 1.287 1.287 0 0 0 527.794 358.1 A 1.242 1.242 0 0 0 527.541 358.124 Q 527.303 358.173 527.152 358.324 Q 526.962 358.515 526.933 358.862 A 1.557 1.557 0 0 0 526.928 358.991 Q 526.928 359.3 527.06 359.496 Z M 524.629 356.681 Q 524.629 356.478 524.728 356.383 A 0.342 0.342 0 0 1 524.948 356.29 A 0.452 0.452 0 0 1 524.978 356.289 A 0.349 0.349 0 0 1 525.224 356.385 Q 525.327 356.481 525.327 356.681 A 0.612 0.612 0 0 1 525.318 356.793 Q 525.306 356.855 525.28 356.904 A 0.289 0.289 0 0 1 525.224 356.979 A 0.345 0.345 0 0 1 524.978 357.077 A 0.376 0.376 0 0 1 524.849 357.055 A 0.332 0.332 0 0 1 524.728 356.979 A 0.305 0.305 0 0 1 524.654 356.856 Q 524.629 356.782 524.629 356.681 Z" id="right_labelLayer" stroke="#777777" fill="#777777" style="stroke:#777777;fill:#777777" vector-effect="non-scaling-stroke"/><path d="M 774 411.5 L 785.5 411.5 L 785.5 417.5 L 798 417.5 L 798 411.5 L 809.5 411.5 L 809.5 417.5 L 822 417.5 L 822 411.5 L 833.5 411.5 L 833.5 417.5 L 846 417.5 L 846 411.5 L 857.5 411.5 L 857.5 417.5 L 870 417.5 L 870 411.5 L 881.5 411.5 L 881.5 417.5 L 894 417.5 L 894 411.5 L 905.5 411.5 L 905.5 417.5 L 918 417.5 L 918 411.5 L 929.5 411.5 L 929.5 417.5 L 942 417.5 L 942 411.5 L 953.5 411.5 L 953.5 417.5 L 966 417.5 L 966 411.5 L 977.5 411.5 L 977.5 417.5 L 990 417.5 L 990 411.5 L 1001.5 411.5 L 1001.5 417.5 L 1014 417.5 L 1014 411.5 L 1025.5 411.5 L 1025.5 417.5 L 1038 417.5 L 1038 411.5 L 1052.5 411.5 L 1052.5 395 L 1058.5 395 L 1058.5 382.5 L 1052.5 382.5 L 1052.5 371 L 1058.5 371 L 1058.5 358.5 L 1052.5 358.5 L 1052.5 347 L 1058.5 347 L 1058.5 334.5 L 1052.5 334.5 L 1052.5 323 L 1058.5 323 L 1058.5 310.5 L 1052.5 310.5 L 1052.5 299 L 1058.5 299 L 1058.5 286.5 L 1052.5 286.5 L 1052.5 275 L 1058.5 275 L 1058.5 262.5 L 1052.5 262.5 L 1052.5 251 L 1058.5 251 L 1058.5 238.5 L 1052.5 238.5 L 1052.5 227 L 1058.5 227 L 1058.5 214.5 L 1052.5 214.5 L 1052.5 203 L 1058.5 203 L 1058.5 190.5 L 1052.5 190.5 L 1052.5 179 L 1058.5 179 L 1058.5 166.5 L 1052.5 166.5 L 1052.5 155 L 1058.5 155 L 1058.5 142.5 L 1052.5 142.5 L 1052.5 131 L 1058.5 131 L 1058.5 118.5 L 1052.5 118.5 L 1052.5 107 L 1058.5 107 L 1058.5 94.5 L 1052.5 94.5 L 1052.5 83 L 1058.5 83 L 1058.5 70.5 L 1052.5 70.5 L 1052.5 59 L 1058.5 59 L 1058.5 46.5 L 1052.5 46.5 L 1052.5 35 L 1058.5 35 L 1058.5 22.5 L 1052.5 22.5 L 1052.5 6 L 1038 6 L 1038 0 L 1025.5 0 L 1025.5 6 L 1014 6 L 1014 0 L 1001.5 0 L 1001.5 6 L 990 6 L 990 0 L 977.5 0 L 977.5 6 L 966 6 L 966 0 L 953.5 0 L 953.5 6 L 942 6 L 942 0 L 929.5 0 L 929.5 6 L 918 6 L 918 0 L 905.5 0 L 905.5 6 L 894 6 L 894 0 L 881.5 0 L 881.5 6 L 870 6 L 870 0 L 857.5 0 L 857.5 6 L 846 6 L 846 0 L 833.5 0 L 833.5 6 L 822 6 L 822 0 L 809.5 0 L 809.5 6 L 798 6 L 798 0 L 785.5 0 L 785.5 6 L 774 6 L 774 0 L 761.5 0 L 761.5 6 L 747 6 L 747 22.5 L 741 22.5 L 741 35 L 747 35 L 747 46.5 L 741 46.5 L 741 59 L 747 59 L 747 70.5 L 741 70.5 L 741 83 L 747 83 L 747 94.5 L 741 94.5 L 741 107 L 747 107 L 747 118.5 L 741 118.5 L 741 131 L 747 131 L 747 142.5 L 741 142.5 L 741 155 L 747 155 L 747 166.5 L 741 166.5 L 741 179 L 747 179 L 747 190.5 L 741 190.5 L 741 203 L 747 203 L 747 214.5 L 741 214.5 L 741 227 L 747 227 L 747 238.5 L 741 238.5 L 741 251 L 747 251 L 747 262.5 L 741 262.5 L 741 275 L 747 275 L 747 286.5 L 741 286.5 L 741 299 L 747 299 L 747 310.5 L 741 310.5 L 741 323 L 747 323 L 747 334.5 L 741 334.5 L 741 347 L 747 347 L 747 358.5 L 741 358.5 L 741 371 L 747 371 L 747 382.5 L 741 382.5 L 741 395 L 747 395 L 747 411.5 L 761.5 411.5 L 761.5 417.5 L 774 417.5 L 774 411.5 Z" id="bottom_outsideCutPath" stroke="#FF0000" stroke-width="0.1" style="stroke:#FF0000;stroke-width:0.1" vector-effect="non-scaling-stroke"/><path d="M 1004.209 232.562 L 999.062 232.562 L 999.062 210.455 A 15.184 15.184 0 0 0 998.909 208.222 Q 998.739 207.082 998.38 206.162 A 6.22 6.22 0 0 0 997.325 204.362 A 5.416 5.416 0 0 0 994.808 202.734 Q 993.56 202.331 991.93 202.331 A 13.244 13.244 0 0 0 989.235 202.587 Q 987.633 202.921 986.425 203.688 A 6.816 6.816 0 0 0 984.83 205.091 A 8.505 8.505 0 0 0 983.388 207.701 Q 982.535 210.091 982.535 213.586 L 982.535 232.562 L 977.389 232.562 L 977.389 210.455 A 15.184 15.184 0 0 0 977.235 208.222 Q 977.066 207.082 976.707 206.162 A 6.22 6.22 0 0 0 975.652 204.362 A 5.399 5.399 0 0 0 973.169 202.748 Q 972.275 202.455 971.184 202.368 A 12.053 12.053 0 0 0 970.226 202.331 A 12.784 12.784 0 0 0 967.582 202.586 Q 965.951 202.932 964.736 203.743 A 6.746 6.746 0 0 0 963.141 205.23 A 8.631 8.631 0 0 0 961.862 207.661 Q 961.032 210.008 960.913 213.528 A 35.835 35.835 0 0 0 960.893 214.733 L 960.893 232.562 L 955.746 232.562 L 955.746 198.579 L 959.932 198.579 L 960.769 203.23 L 961.017 203.23 Q 962.475 200.75 965.126 199.354 A 12.22 12.22 0 0 1 969.952 198 A 14.759 14.759 0 0 1 971.063 197.959 Q 975.998 197.959 978.817 200.171 A 8.787 8.787 0 0 1 981.481 203.726 L 981.729 203.726 A 10.747 10.747 0 0 1 985.777 199.708 A 12.912 12.912 0 0 1 986.132 199.509 A 13.027 13.027 0 0 1 990.911 198.056 A 16.244 16.244 0 0 1 992.705 197.959 A 17.891 17.891 0 0 1 995.951 198.234 Q 999.346 198.861 1001.341 200.92 Q 1003.429 203.076 1003.997 207.114 A 23.607 23.607 0 0 1 1004.209 210.393 L 1004.209 232.562 Z M 800.438 228.19 L 800.066 228.19 L 798.981 232.562 L 795.291 232.562 L 795.291 184.317 L 800.438 184.317 L 800.438 196.037 Q 800.438 199.848 800.206 202.903 A 64.249 64.249 0 0 1 800.19 203.106 L 800.438 203.106 A 11.702 11.702 0 0 1 808.98 198.145 A 17.579 17.579 0 0 1 811.104 198.021 A 15.731 15.731 0 0 1 815.531 198.612 A 11.776 11.776 0 0 1 821.507 202.595 Q 824.474 206.257 825.065 212.355 A 33.037 33.037 0 0 1 825.212 215.539 A 30.178 30.178 0 0 1 824.812 220.617 Q 824.349 223.323 823.351 225.494 A 14.467 14.467 0 0 1 821.476 228.546 A 12.185 12.185 0 0 1 812.815 233.1 A 17.457 17.457 0 0 1 811.104 233.182 A 15.612 15.612 0 0 1 807.181 232.703 A 13.584 13.584 0 0 1 805.042 231.957 Q 802.298 230.732 800.438 228.19 Z M 888.185 228.314 L 888.185 232.252 A 5.063 5.063 0 0 1 887.584 232.49 Q 886.944 232.702 886.027 232.866 A 19.251 19.251 0 0 1 885.72 232.918 A 22.308 22.308 0 0 1 884.265 233.107 Q 883.481 233.182 882.79 233.182 A 13.443 13.443 0 0 1 878.828 232.649 Q 872.93 230.829 872.93 222.795 L 872.93 202.579 L 868.062 202.579 L 868.062 200.099 L 872.93 197.959 L 875.1 190.704 L 878.077 190.704 L 878.077 198.579 L 887.937 198.579 L 887.937 202.579 L 878.077 202.579 L 878.077 222.578 Q 878.077 224.735 878.796 226.187 A 4.992 4.992 0 0 0 879.534 227.291 A 4.781 4.781 0 0 0 882.473 228.855 A 6.879 6.879 0 0 0 883.534 228.934 A 16.903 16.903 0 0 0 886.01 228.757 A 15.574 15.574 0 0 0 886.169 228.732 A 27.843 27.843 0 0 0 886.912 228.605 Q 887.673 228.463 888.185 228.314 Z M 910.602 228.314 L 910.602 232.252 A 5.063 5.063 0 0 1 910.001 232.49 Q 909.361 232.702 908.444 232.866 A 19.251 19.251 0 0 1 908.137 232.918 A 22.308 22.308 0 0 1 906.682 233.107 Q 905.899 233.182 905.207 233.182 A 13.443 13.443 0 0 1 901.245 232.649 Q 895.347 230.829 895.347 222.795 L 895.347 202.579 L 890.479 202.579 L 890.479 200.099 L 895.347 197.959 L 897.517 190.704 L 900.494 190.704 L 900.494 198.579 L 910.354 198.579 L 910.354 202.579 L 900.494 202.579 L 900.494 222.578 Q 900.494 224.735 901.213 226.187 A 4.992 4.992 0 0 0 901.951 227.291 A 4.781 4.781 0 0 0 904.891 228.855 A 6.879 6.879 0 0 0 905.951 228.934 A 16.903 16.903 0 0 0 908.427 228.757 A 15.574 15.574 0 0 0 908.587 228.732 A 27.843 27.843 0 0 0 909.33 228.605 Q 910.09 228.463 910.602 228.314 Z M 863.063 220.711 A 26.586 26.586 0 0 0 863.535 215.539 A 30.207 30.207 0 0 0 863.524 214.722 Q 863.321 207.205 859.334 202.703 A 13.474 13.474 0 0 0 853.079 198.669 A 17.295 17.295 0 0 0 848.001 197.959 A 19.99 19.99 0 0 0 844.41 198.267 A 13.614 13.614 0 0 0 836.467 202.595 Q 832.312 207.23 832.312 215.539 A 25.748 25.748 0 0 0 832.636 219.71 A 19.04 19.04 0 0 0 834.234 224.903 A 16.917 16.917 0 0 0 834.609 225.637 A 13.934 13.934 0 0 0 839.691 231.042 A 14.332 14.332 0 0 0 842.981 232.505 A 16.528 16.528 0 0 0 847.784 233.182 A 19.986 19.986 0 0 0 851.274 232.89 A 13.722 13.722 0 0 0 859.349 228.515 Q 862.129 225.417 863.063 220.711 Z M 946.251 220.711 A 26.586 26.586 0 0 0 946.724 215.539 A 30.207 30.207 0 0 0 946.713 214.722 Q 946.509 207.205 942.522 202.703 A 13.474 13.474 0 0 0 936.267 198.669 A 17.295 17.295 0 0 0 931.19 197.959 A 19.99 19.99 0 0 0 927.599 198.267 A 13.614 13.614 0 0 0 919.656 202.595 Q 915.501 207.23 915.501 215.539 A 25.748 25.748 0 0 0 915.824 219.71 A 19.04 19.04 0 0 0 917.423 224.903 A 16.917 16.917 0 0 0 917.798 225.637 A 13.934 13.934 0 0 0 922.88 231.042 A 14.332 14.332 0 0 0 926.17 232.505 A 16.528 16.528 0 0 0 930.973 233.182 A 19.986 19.986 0 0 0 934.463 232.89 A 13.722 13.722 0 0 0 942.538 228.515 Q 945.318 225.417 946.251 220.711 Z M 837.645 215.539 A 26.064 26.064 0 0 0 837.893 219.263 Q 838.167 221.153 838.742 222.684 A 10.798 10.798 0 0 0 840.25 225.461 A 8.436 8.436 0 0 0 845.744 228.697 A 12.783 12.783 0 0 0 847.908 228.872 A 11.955 11.955 0 0 0 851.062 228.48 A 8.32 8.32 0 0 0 855.582 225.477 Q 857.53 222.952 858.03 218.687 A 27.112 27.112 0 0 0 858.202 215.539 A 25.681 25.681 0 0 0 857.959 211.88 Q 857.69 210.017 857.124 208.508 A 10.597 10.597 0 0 0 855.582 205.695 A 8.467 8.467 0 0 0 850.318 202.555 A 12.981 12.981 0 0 0 847.846 202.331 A 12.249 12.249 0 0 0 844.796 202.688 A 8.198 8.198 0 0 0 840.219 205.649 A 10.642 10.642 0 0 0 838.564 208.845 Q 838.076 210.315 837.847 212.112 A 27.198 27.198 0 0 0 837.645 215.539 Z M 920.834 215.539 A 26.064 26.064 0 0 0 921.082 219.263 Q 921.355 221.153 921.93 222.684 A 10.798 10.798 0 0 0 923.438 225.461 A 8.436 8.436 0 0 0 928.932 228.697 A 12.783 12.783 0 0 0 931.097 228.872 A 11.955 11.955 0 0 0 934.251 228.48 A 8.32 8.32 0 0 0 938.771 225.477 Q 940.719 222.952 941.219 218.687 A 27.112 27.112 0 0 0 941.391 215.539 A 25.681 25.681 0 0 0 941.147 211.88 Q 940.879 210.017 940.313 208.508 A 10.597 10.597 0 0 0 938.771 205.695 A 8.467 8.467 0 0 0 933.507 202.555 A 12.981 12.981 0 0 0 931.035 202.331 A 12.249 12.249 0 0 0 927.985 202.688 A 8.198 8.198 0 0 0 923.407 205.649 A 10.642 10.642 0 0 0 921.753 208.845 Q 921.265 210.315 921.036 212.112 A 27.198 27.198 0 0 0 920.834 215.539 Z M 810.36 202.331 A 14.463 14.463 0 0 0 807.559 202.584 Q 805.963 202.899 804.752 203.609 A 6.845 6.845 0 0 0 802.764 205.354 A 8.811 8.811 0 0 0 801.488 207.784 Q 800.438 210.727 800.438 215.539 A 34.031 34.031 0 0 0 800.607 219.057 Q 801.072 223.521 802.826 225.787 A 7.467 7.467 0 0 0 806.613 228.343 Q 807.879 228.74 809.424 228.839 A 16.55 16.55 0 0 0 810.484 228.872 A 10.26 10.26 0 0 0 813.398 228.482 A 7.402 7.402 0 0 0 817.553 225.415 A 11.815 11.815 0 0 0 819.015 222.253 Q 819.474 220.751 819.689 218.933 A 29.492 29.492 0 0 0 819.879 215.477 A 30.409 30.409 0 0 0 819.695 212.012 Q 819.259 208.222 817.789 205.935 A 8.538 8.538 0 0 0 817.553 205.587 A 7.506 7.506 0 0 0 812.775 202.562 A 11.904 11.904 0 0 0 810.36 202.331 Z" id="bottom_labelLayer" stroke="#777777" fill="#777777" style="stroke:#777777;fill:#777777" vector-effect="non-scaling-stroke"/></g></svg>