<svg width="1007.5mm" height="404mm" viewBox="0 0 1007.5 404" xmlns="http://www.w3.org/2000/svg" version="1.1" preserveAspectRatio="xMidYMid meet"><g id="svgGroup" stroke-linecap="round" fill-rule="evenodd" font-size="9pt" stroke="#000" stroke-width="0.25mm" fill="none" style="stroke:#000;stroke-width:0.25mm;fill:none"><path d="M 24.5 398 L 36 398 L 36 404 L 48.5 404 L 48.5 398 L 60 398 L 60 404 L 72.5 404 L 72.5 398 L 84 398 L 84 404 L 96.5 404 L 96.5 398 L 108 398 L 108 404 L 120.5 404 L 120.5 398 L 132 398 L 132 404 L 144.5 404 L 144.5 398 L 156 398 L 156 404 L 168.5 404 L 168.5 398 L 180 398 L 180 404 L 192.5 404 L 192.5 398 L 204 398 L 204 404 L 216.5 404 L 216.5 398 L 228 398 L 228 404 L 240.5 404 L 240.5 398 L 252 398 L 252 404 L 264.5 404 L 264.5 398 L 276 398 L 276 404 L 300.5 404 L 300.5 381.5 L 294.5 381.5 L 294.5 370 L 300.5 370 L 300.5 357.5 L 294.5 357.5 L 294.5 346 L 300.5 346 L 300.5 333.5 L 294.5 333.5 L 294.5 322 L 300.5 322 L 300.5 309.5 L 294.5 309.5 L 294.5 298 L 300.5 298 L 300.5 285.5 L 294.5 285.5 L 294.5 274 L 300.5 274 L 300.5 261.5 L 294.5 261.5 L 294.5 250 L 300.5 250 L 300.5 237.5 L 294.5 237.5 L 294.5 226 L 300.5 226 L 300.5 203.5 L 0 203.5 L 0 226 L 6 226 L 6 237.5 L 0 237.5 L 0 250 L 6 250 L 6 261.5 L 0 261.5 L 0 274 L 6 274 L 6 285.5 L 0 285.5 L 0 298 L 6 298 L 6 309.5 L 0 309.5 L 0 322 L 6 322 L 6 333.5 L 0 333.5 L 0 346 L 6 346 L 6 357.5 L 0 357.5 L 0 370 L 6 370 L 6 381.5 L 0 381.5 L 0 404 L 24.5 404 L 24.5 398 Z" id="front_outsideCutPath" stroke="#FF0000" stroke-width="0.1" style="stroke:#FF0000;stroke-width:0.1" vector-effect="non-scaling-stroke"/><path d="M 179.473 318.895 L 176.223 318.895 L 176.223 305.012 A 9.188 9.188 0 0 0 176.118 303.572 Q 175.997 302.813 175.738 302.209 A 3.867 3.867 0 0 0 175.029 301.096 Q 174.062 300.05 172.209 299.851 A 8.617 8.617 0 0 0 171.289 299.804 A 9.837 9.837 0 0 0 169.448 299.965 Q 168.423 300.16 167.634 300.594 A 4.583 4.583 0 0 0 166.355 301.625 Q 164.788 303.446 164.788 307.636 L 164.788 318.895 L 161.538 318.895 L 161.538 297.435 L 164.181 297.435 L 164.71 300.372 L 164.867 300.372 A 6.581 6.581 0 0 1 167.444 298.026 A 7.915 7.915 0 0 1 167.666 297.915 A 8.801 8.801 0 0 1 170.799 297.079 A 10.643 10.643 0 0 1 171.68 297.043 Q 174.252 297.043 175.979 297.866 A 5.841 5.841 0 0 1 177.515 298.913 Q 179.473 300.783 179.473 304.895 L 179.473 318.895 Z M 117.032 297.435 L 117.032 299.961 L 111.57 299.961 L 111.57 318.895 L 108.319 318.895 L 108.319 299.961 L 104.482 299.961 L 104.482 298.492 L 108.319 297.318 L 108.319 296.123 A 13.173 13.173 0 0 1 108.627 293.138 Q 109.777 288.213 115.231 288.213 A 10.467 10.467 0 0 1 116.712 288.326 Q 117.433 288.429 118.234 288.627 A 21.04 21.04 0 0 1 119.225 288.898 L 118.383 291.502 A 15.783 15.783 0 0 0 117.156 291.157 Q 116.536 291.011 115.99 290.946 A 6.99 6.99 0 0 0 115.172 290.895 A 4.383 4.383 0 0 0 114.116 291.015 A 2.815 2.815 0 0 0 112.451 292.119 A 3.761 3.761 0 0 0 111.954 293.122 Q 111.57 294.261 111.57 296.045 L 111.57 297.435 L 117.032 297.435 Z M 196.018 316.212 L 196.018 318.699 Q 195.541 318.929 194.656 319.087 A 12.156 12.156 0 0 1 194.462 319.12 A 14.088 14.088 0 0 1 193.543 319.239 Q 193.11 319.28 192.722 319.286 A 8.331 8.331 0 0 1 192.611 319.286 A 8.489 8.489 0 0 1 190.11 318.95 Q 187.36 318.101 186.64 315.114 A 10.217 10.217 0 0 1 186.385 312.727 L 186.385 299.961 L 183.311 299.961 L 183.311 298.394 L 186.385 297.043 L 187.756 292.462 L 189.635 292.462 L 189.635 297.435 L 195.862 297.435 L 195.862 299.961 L 189.635 299.961 L 189.635 312.59 A 6.545 6.545 0 0 0 189.73 313.739 Q 189.842 314.37 190.09 314.869 A 3.153 3.153 0 0 0 190.556 315.566 A 3.019 3.019 0 0 0 192.412 316.554 A 4.344 4.344 0 0 0 193.081 316.604 A 10.674 10.674 0 0 0 194.645 316.492 A 9.838 9.838 0 0 0 194.746 316.477 A 17.583 17.583 0 0 0 195.215 316.396 Q 195.663 316.312 195.975 316.225 A 4.873 4.873 0 0 0 196.018 316.212 Z M 133.303 297.278 L 132.853 300.294 Q 131.744 300.049 130.852 300.008 A 7.624 7.624 0 0 0 130.503 300 A 5.632 5.632 0 0 0 126.343 301.797 A 7.705 7.705 0 0 0 126.049 302.115 A 7.422 7.422 0 0 0 124.258 306.282 A 9.866 9.866 0 0 0 124.199 307.382 L 124.199 318.895 L 120.948 318.895 L 120.948 297.435 L 123.631 297.435 L 124.003 301.41 L 124.16 301.41 A 10.976 10.976 0 0 1 125.387 299.656 A 8.385 8.385 0 0 1 127.038 298.179 A 6.479 6.479 0 0 1 130.738 297.043 A 14.922 14.922 0 0 1 132.074 297.1 A 10.891 10.891 0 0 1 133.303 297.278 Z M 155.542 311.411 A 16.789 16.789 0 0 0 155.84 308.145 A 19.076 19.076 0 0 0 155.833 307.629 Q 155.705 302.882 153.187 300.039 A 8.509 8.509 0 0 0 149.237 297.491 A 10.922 10.922 0 0 0 146.03 297.043 A 12.624 12.624 0 0 0 143.763 297.238 A 8.597 8.597 0 0 0 138.747 299.971 Q 137.004 301.914 136.419 304.882 A 16.876 16.876 0 0 0 136.123 308.145 A 16.26 16.26 0 0 0 136.327 310.779 A 12.024 12.024 0 0 0 137.337 314.058 A 10.683 10.683 0 0 0 137.574 314.522 A 8.799 8.799 0 0 0 140.783 317.935 A 9.05 9.05 0 0 0 142.86 318.859 A 10.438 10.438 0 0 0 145.893 319.286 A 12.621 12.621 0 0 0 148.097 319.102 A 8.665 8.665 0 0 0 153.197 316.34 A 9.067 9.067 0 0 0 154.276 314.856 Q 155.157 313.35 155.542 311.411 Z M 140.183 312.657 A 6.819 6.819 0 0 0 141.135 314.411 Q 142.78 316.565 145.972 316.565 A 7.55 7.55 0 0 0 147.963 316.317 A 5.254 5.254 0 0 0 150.818 314.421 Q 152.048 312.826 152.364 310.133 A 17.121 17.121 0 0 0 152.472 308.145 Q 152.472 305.52 151.792 303.705 A 6.692 6.692 0 0 0 150.818 301.929 Q 149.163 299.804 145.933 299.804 A 7.735 7.735 0 0 0 144.007 300.03 A 5.177 5.177 0 0 0 141.116 301.899 A 6.72 6.72 0 0 0 140.071 303.918 Q 139.763 304.846 139.618 305.981 A 17.175 17.175 0 0 0 139.491 308.145 Q 139.491 310.813 140.183 312.657 Z" id="front_labelLayer" stroke="#777777" fill="#777777" style="stroke:#777777;fill:#777777" vector-effect="non-scaling-stroke"/><path d="M 330 398 L 341.5 398 L 341.5 404 L 354 404 L 354 398 L 365.5 398 L 365.5 404 L 378 404 L 378 398 L 389.5 398 L 389.5 404 L 402 404 L 402 398 L 413.5 398 L 413.5 404 L 426 404 L 426 398 L 437.5 398 L 437.5 404 L 450 404 L 450 398 L 461.5 398 L 461.5 404 L 474 404 L 474 398 L 485.5 398 L 485.5 404 L 498 404 L 498 398 L 509.5 398 L 509.5 404 L 522 404 L 522 398 L 533.5 398 L 533.5 404 L 546 404 L 546 398 L 557.5 398 L 557.5 404 L 570 404 L 570 398 L 581.5 398 L 581.5 404 L 594 404 L 594 398 L 605.5 398 L 605.5 404 L 618 404 L 618 398 L 629.5 398 L 629.5 404 L 642 404 L 642 398 L 653.5 398 L 653.5 404 L 666 404 L 666 398 L 677.5 398 L 677.5 404 L 698 404 L 698 382 L 704 382 L 704 369.5 L 698 369.5 L 698 358 L 704 358 L 704 345.5 L 698 345.5 L 698 334 L 704 334 L 704 321.5 L 698 321.5 L 698 310 L 704 310 L 704 297.5 L 698 297.5 L 698 286 L 704 286 L 704 273.5 L 698 273.5 L 698 262 L 704 262 L 704 249.5 L 698 249.5 L 698 238 L 704 238 L 704 225.5 L 698 225.5 L 698 203.5 L 309.5 203.5 L 309.5 225.5 L 303.5 225.5 L 303.5 238 L 309.5 238 L 309.5 249.5 L 303.5 249.5 L 303.5 262 L 309.5 262 L 309.5 273.5 L 303.5 273.5 L 303.5 286 L 309.5 286 L 309.5 297.5 L 303.5 297.5 L 303.5 310 L 309.5 310 L 309.5 321.5 L 303.5 321.5 L 303.5 334 L 309.5 334 L 309.5 345.5 L 303.5 345.5 L 303.5 358 L 309.5 358 L 309.5 369.5 L 303.5 369.5 L 303.5 382 L 309.5 382 L 309.5 404 L 330 404 L 330 398 Z" id="left_outsideCutPath" stroke="#FF0000" stroke-width="0.1" style="stroke:#FF0000;stroke-width:0.1" vector-effect="non-scaling-stroke"/><path d="M 518.014 297.435 L 518.014 299.961 L 512.551 299.961 L 512.551 318.895 L 509.301 318.895 L 509.301 299.961 L 505.463 299.961 L 505.463 298.492 L 509.301 297.318 L 509.301 296.123 A 13.173 13.173 0 0 1 509.608 293.138 Q 510.759 288.213 516.213 288.213 A 10.467 10.467 0 0 1 517.694 288.326 Q 518.414 288.429 519.216 288.627 A 21.04 21.04 0 0 1 520.207 288.898 L 519.365 291.502 A 15.783 15.783 0 0 0 518.138 291.157 Q 517.518 291.011 516.971 290.946 A 6.99 6.99 0 0 0 516.154 290.895 A 4.383 4.383 0 0 0 515.097 291.015 A 2.815 2.815 0 0 0 513.432 292.119 A 3.761 3.761 0 0 0 512.935 293.122 Q 512.551 294.261 512.551 296.045 L 512.551 297.435 L 518.014 297.435 Z M 502.8 306.696 L 502.8 308.752 L 488.017 308.752 Q 488.084 311.334 488.951 313.065 A 6.103 6.103 0 0 0 489.926 314.489 A 5.906 5.906 0 0 0 493.028 316.236 A 8.949 8.949 0 0 0 495.027 316.447 A 17.167 17.167 0 0 0 501.456 315.174 A 19.672 19.672 0 0 0 501.88 314.998 L 501.88 317.896 A 19.513 19.513 0 0 1 500.102 318.568 A 14.922 14.922 0 0 1 498.62 318.963 Q 497.083 319.286 494.91 319.286 A 12.63 12.63 0 0 1 491.749 318.912 A 8.943 8.943 0 0 1 487.401 316.389 A 9.566 9.566 0 0 1 485.112 312.187 Q 484.65 310.453 484.65 308.341 Q 484.65 303.152 487.205 300.098 A 8.329 8.329 0 0 1 493.275 297.07 A 11.49 11.49 0 0 1 494.068 297.043 A 9.902 9.902 0 0 1 496.856 297.416 A 7.535 7.535 0 0 1 500.451 299.696 A 9.088 9.088 0 0 1 502.51 303.849 A 13.229 13.229 0 0 1 502.8 306.696 Z M 531.798 316.212 L 531.798 318.699 Q 531.321 318.929 530.436 319.087 A 12.156 12.156 0 0 1 530.242 319.12 A 14.088 14.088 0 0 1 529.323 319.239 Q 528.89 319.28 528.502 319.286 A 8.331 8.331 0 0 1 528.392 319.286 A 8.489 8.489 0 0 1 525.89 318.95 Q 523.14 318.101 522.42 315.114 A 10.217 10.217 0 0 1 522.165 312.727 L 522.165 299.961 L 519.091 299.961 L 519.091 298.394 L 522.165 297.043 L 523.536 292.462 L 525.415 292.462 L 525.415 297.435 L 531.642 297.435 L 531.642 299.961 L 525.415 299.961 L 525.415 312.59 A 6.545 6.545 0 0 0 525.51 313.739 Q 525.622 314.37 525.87 314.869 A 3.153 3.153 0 0 0 526.336 315.566 A 3.019 3.019 0 0 0 528.192 316.554 A 4.344 4.344 0 0 0 528.861 316.604 A 10.674 10.674 0 0 0 530.425 316.492 A 9.838 9.838 0 0 0 530.526 316.477 A 17.583 17.583 0 0 0 530.995 316.396 Q 531.443 316.312 531.755 316.225 A 4.873 4.873 0 0 0 531.798 316.212 Z M 478.952 288.428 L 478.952 318.895 L 475.702 318.895 L 475.702 288.428 L 478.952 288.428 Z M 488.096 306.109 L 499.315 306.109 Q 499.315 303.035 497.945 301.4 A 4.453 4.453 0 0 0 495.263 299.874 A 6.68 6.68 0 0 0 494.028 299.765 A 6.407 6.407 0 0 0 492.178 300.019 A 4.95 4.95 0 0 0 489.907 301.449 Q 488.37 303.133 488.096 306.109 Z" id="left_labelLayer" stroke="#777777" fill="#777777" style="stroke:#777777;fill:#777777" vector-effect="non-scaling-stroke"/><path d="M 24.5 194.5 L 36 194.5 L 36 200.5 L 48.5 200.5 L 48.5 194.5 L 60 194.5 L 60 200.5 L 72.5 200.5 L 72.5 194.5 L 84 194.5 L 84 200.5 L 96.5 200.5 L 96.5 194.5 L 108 194.5 L 108 200.5 L 120.5 200.5 L 120.5 194.5 L 132 194.5 L 132 200.5 L 144.5 200.5 L 144.5 194.5 L 156 194.5 L 156 200.5 L 168.5 200.5 L 168.5 194.5 L 180 194.5 L 180 200.5 L 192.5 200.5 L 192.5 194.5 L 204 194.5 L 204 200.5 L 216.5 200.5 L 216.5 194.5 L 228 194.5 L 228 200.5 L 240.5 200.5 L 240.5 194.5 L 252 194.5 L 252 200.5 L 264.5 200.5 L 264.5 194.5 L 276 194.5 L 276 200.5 L 300.5 200.5 L 300.5 178 L 294.5 178 L 294.5 166.5 L 300.5 166.5 L 300.5 154 L 294.5 154 L 294.5 142.5 L 300.5 142.5 L 300.5 130 L 294.5 130 L 294.5 118.5 L 300.5 118.5 L 300.5 106 L 294.5 106 L 294.5 94.5 L 300.5 94.5 L 300.5 82 L 294.5 82 L 294.5 70.5 L 300.5 70.5 L 300.5 58 L 294.5 58 L 294.5 46.5 L 300.5 46.5 L 300.5 34 L 294.5 34 L 294.5 22.5 L 300.5 22.5 L 300.5 0 L 0 0 L 0 22.5 L 6 22.5 L 6 34 L 0 34 L 0 46.5 L 6 46.5 L 6 58 L 0 58 L 0 70.5 L 6 70.5 L 6 82 L 0 82 L 0 94.5 L 6 94.5 L 6 106 L 0 106 L 0 118.5 L 6 118.5 L 6 130 L 0 130 L 0 142.5 L 6 142.5 L 6 154 L 0 154 L 0 166.5 L 6 166.5 L 6 178 L 0 178 L 0 200.5 L 24.5 200.5 L 24.5 194.5 Z" id="back_outsideCutPath" stroke="#FF0000" stroke-width="0.1" style="stroke:#FF0000;stroke-width:0.1" vector-effect="non-scaling-stroke"/><path d="M 177.701 104.303 L 177.858 104.303 Q 178.7 103.108 180.423 101.17 L 187.354 93.828 L 191.212 93.828 L 182.518 102.971 L 191.819 115.287 L 187.883 115.287 L 180.305 105.145 L 177.858 107.259 L 177.858 115.287 L 174.647 115.287 L 174.647 84.821 L 177.858 84.821 L 177.858 100.974 A 21.66 21.66 0 0 1 177.848 101.586 Q 177.819 102.589 177.707 104.222 A 133.7 133.7 0 0 1 177.701 104.303 Z M 111.932 112.526 L 111.697 112.526 L 111.012 115.287 L 108.681 115.287 L 108.681 84.821 L 111.932 84.821 L 111.932 92.222 A 67.766 67.766 0 0 1 111.895 94.511 Q 111.858 95.594 111.785 96.558 A 40.546 40.546 0 0 1 111.775 96.686 L 111.932 96.686 Q 114.203 93.475 118.667 93.475 A 9.934 9.934 0 0 1 121.463 93.848 A 7.436 7.436 0 0 1 125.236 96.363 A 9.578 9.578 0 0 1 126.916 99.598 Q 127.576 101.729 127.576 104.538 A 19.057 19.057 0 0 1 127.324 107.744 Q 126.804 110.782 125.217 112.752 A 7.695 7.695 0 0 1 119.748 115.627 A 11.024 11.024 0 0 1 118.667 115.679 A 9.859 9.859 0 0 1 116.19 115.377 A 8.578 8.578 0 0 1 114.839 114.905 Q 113.107 114.132 111.932 112.526 Z M 148.86 115.287 L 146.451 115.287 L 145.805 112.233 L 145.649 112.233 A 13.474 13.474 0 0 1 144.559 113.453 Q 143.972 114.03 143.386 114.431 A 5.988 5.988 0 0 1 142.447 114.964 Q 141.132 115.553 139.278 115.657 A 14.627 14.627 0 0 1 138.463 115.679 A 9.975 9.975 0 0 1 136.433 115.485 Q 134.649 115.114 133.46 114.034 A 5.342 5.342 0 0 1 131.849 111.217 A 8.178 8.178 0 0 1 131.649 109.355 A 5.624 5.624 0 0 1 134.848 104.047 Q 137.23 102.779 141.385 102.567 A 31.748 31.748 0 0 1 142.046 102.541 L 145.688 102.423 L 145.688 101.092 Q 145.688 98.566 144.601 97.362 Q 143.734 96.401 142.038 96.207 A 8.031 8.031 0 0 0 141.126 96.158 A 10.582 10.582 0 0 0 138.69 96.461 Q 137.573 96.726 136.357 97.221 A 21.768 21.768 0 0 0 135.056 97.802 L 134.057 95.316 A 14.986 14.986 0 0 1 136.95 94.127 A 17.058 17.058 0 0 1 137.533 93.965 A 15.052 15.052 0 0 1 141.321 93.475 A 13.727 13.727 0 0 1 143.412 93.623 Q 144.487 93.789 145.345 94.141 A 5.532 5.532 0 0 1 147.009 95.179 A 5.147 5.147 0 0 1 148.338 97.227 Q 148.648 98.069 148.774 99.114 A 12.789 12.789 0 0 1 148.86 100.641 L 148.86 115.287 Z M 169.869 94.552 L 168.871 97.313 A 14.459 14.459 0 0 0 167.302 96.791 A 17.27 17.27 0 0 0 166.521 96.598 A 13.426 13.426 0 0 0 165.499 96.409 Q 165.001 96.338 164.558 96.32 A 7.205 7.205 0 0 0 164.269 96.314 Q 158.461 96.314 157.811 102.895 A 17.96 17.96 0 0 0 157.73 104.655 A 15.741 15.741 0 0 0 157.885 106.948 Q 158.228 109.271 159.325 110.725 A 5.162 5.162 0 0 0 162.67 112.724 A 7.864 7.864 0 0 0 164.054 112.84 A 13.606 13.606 0 0 0 167.807 112.294 A 16.799 16.799 0 0 0 169.556 111.685 L 169.556 114.563 A 9.245 9.245 0 0 1 167.294 115.363 Q 165.871 115.679 164.132 115.679 Q 159.472 115.679 156.917 112.81 Q 154.71 110.333 154.409 106.08 A 19.653 19.653 0 0 1 154.362 104.694 A 17.934 17.934 0 0 1 154.639 101.433 Q 154.976 99.614 155.722 98.18 A 8.961 8.961 0 0 1 156.956 96.373 A 8.416 8.416 0 0 1 161.565 93.723 A 12.759 12.759 0 0 1 164.348 93.436 A 14.668 14.668 0 0 1 167.441 93.769 A 16.224 16.224 0 0 1 168.343 93.988 Q 169.263 94.242 169.869 94.552 Z M 114.656 97.003 A 4.323 4.323 0 0 0 113.4 98.106 Q 112.11 99.783 111.953 103.478 A 25.042 25.042 0 0 0 111.932 104.538 Q 111.932 108.38 113.02 110.364 A 4.902 4.902 0 0 0 113.439 111.009 Q 114.791 112.756 117.606 112.936 A 10.451 10.451 0 0 0 118.276 112.957 A 6.479 6.479 0 0 0 120.116 112.711 A 4.674 4.674 0 0 0 122.74 110.774 Q 123.789 109.215 124.089 106.681 A 18.624 18.624 0 0 0 124.208 104.499 A 19.203 19.203 0 0 0 124.092 102.311 Q 123.817 99.917 122.889 98.472 A 5.392 5.392 0 0 0 122.74 98.253 A 4.74 4.74 0 0 0 119.722 96.343 A 7.517 7.517 0 0 0 118.197 96.197 Q 116.034 96.197 114.656 97.003 Z M 145.61 106.672 L 145.61 104.734 L 142.359 104.871 Q 139.122 104.985 137.393 105.748 A 4.992 4.992 0 0 0 136.769 106.075 A 3.468 3.468 0 0 0 135.116 108.591 A 5.134 5.134 0 0 0 135.056 109.394 Q 135.056 111.156 136.123 112.076 A 3.538 3.538 0 0 0 137.448 112.78 Q 138.179 112.996 139.109 112.996 A 8.949 8.949 0 0 0 141.042 112.8 Q 142.74 112.424 143.877 111.332 Q 145.6 109.677 145.609 106.705 A 10.298 10.298 0 0 0 145.61 106.672 Z" id="back_labelLayer" stroke="#777777" fill="#777777" style="stroke:#777777;fill:#777777" vector-effect="non-scaling-stroke"/><path d="M 330 194.5 L 341.5 194.5 L 341.5 200.5 L 354 200.5 L 354 194.5 L 365.5 194.5 L 365.5 200.5 L 378 200.5 L 378 194.5 L 389.5 194.5 L 389.5 200.5 L 402 200.5 L 402 194.5 L 413.5 194.5 L 413.5 200.5 L 426 200.5 L 426 194.5 L 437.5 194.5 L 437.5 200.5 L 450 200.5 L 450 194.5 L 461.5 194.5 L 461.5 200.5 L 474 200.5 L 474 194.5 L 485.5 194.5 L 485.5 200.5 L 498 200.5 L 498 194.5 L 509.5 194.5 L 509.5 200.5 L 522 200.5 L 522 194.5 L 533.5 194.5 L 533.5 200.5 L 546 200.5 L 546 194.5 L 557.5 194.5 L 557.5 200.5 L 570 200.5 L 570 194.5 L 581.5 194.5 L 581.5 200.5 L 594 200.5 L 594 194.5 L 605.5 194.5 L 605.5 200.5 L 618 200.5 L 618 194.5 L 629.5 194.5 L 629.5 200.5 L 642 200.5 L 642 194.5 L 653.5 194.5 L 653.5 200.5 L 666 200.5 L 666 194.5 L 677.5 194.5 L 677.5 200.5 L 698 200.5 L 698 178.5 L 704 178.5 L 704 166 L 698 166 L 698 154.5 L 704 154.5 L 704 142 L 698 142 L 698 130.5 L 704 130.5 L 704 118 L 698 118 L 698 106.5 L 704 106.5 L 704 94 L 698 94 L 698 82.5 L 704 82.5 L 704 70 L 698 70 L 698 58.5 L 704 58.5 L 704 46 L 698 46 L 698 34.5 L 704 34.5 L 704 22 L 698 22 L 698 0 L 309.5 0 L 309.5 22 L 303.5 22 L 303.5 34.5 L 309.5 34.5 L 309.5 46 L 303.5 46 L 303.5 58.5 L 309.5 58.5 L 309.5 70 L 303.5 70 L 303.5 82.5 L 309.5 82.5 L 309.5 94 L 303.5 94 L 303.5 106.5 L 309.5 106.5 L 309.5 118 L 303.5 118 L 303.5 130.5 L 309.5 130.5 L 309.5 142 L 303.5 142 L 303.5 154.5 L 309.5 154.5 L 309.5 166 L 303.5 166 L 303.5 178.5 L 309.5 178.5 L 309.5 200.5 L 330 200.5 L 330 194.5 Z" id="right_outsideCutPath" stroke="#FF0000" stroke-width="0.1" style="stroke:#FF0000;stroke-width:0.1" vector-effect="non-scaling-stroke"/><path d="M 528.685 110.666 L 525.435 110.666 L 525.435 96.784 A 9.188 9.188 0 0 0 525.33 95.344 Q 525.209 94.585 524.95 93.98 A 3.867 3.867 0 0 0 524.241 92.868 Q 523.274 91.822 521.421 91.623 A 8.617 8.617 0 0 0 520.501 91.576 A 9.836 9.836 0 0 0 518.662 91.736 Q 516.654 92.119 515.557 93.416 A 5.408 5.408 0 0 0 514.639 95.043 Q 514.086 96.533 514.012 98.746 A 20.978 20.978 0 0 0 514 99.447 L 514 110.666 L 510.75 110.666 L 510.75 80.2 L 514 80.2 L 514 89.422 Q 514 91.086 513.844 92.183 L 514.039 92.183 Q 514.999 90.636 516.771 89.745 A 8.344 8.344 0 0 1 519.509 88.933 A 10.549 10.549 0 0 1 520.814 88.854 A 13.187 13.187 0 0 1 523.03 89.028 Q 524.208 89.229 525.14 89.663 A 5.859 5.859 0 0 1 526.717 90.724 Q 528.246 92.177 528.587 94.958 A 14.055 14.055 0 0 1 528.685 96.667 L 528.685 110.666 Z M 498.924 89.207 L 506.344 89.207 L 506.344 91.263 L 502.37 91.733 Q 502.918 92.418 503.349 93.524 A 6.253 6.253 0 0 1 503.719 95.018 A 8.03 8.03 0 0 1 503.779 96.021 A 7.451 7.451 0 0 1 503.437 98.331 A 6.027 6.027 0 0 1 501.626 101.053 A 7.209 7.209 0 0 1 498.79 102.546 Q 497.716 102.848 496.442 102.914 A 14.117 14.117 0 0 1 495.712 102.932 A 10.446 10.446 0 0 1 494.504 102.865 A 8.821 8.821 0 0 1 493.911 102.776 Q 492.726 103.402 492.218 104.213 A 2.445 2.445 0 0 0 491.836 105.537 A 1.685 1.685 0 0 0 491.921 106.088 Q 492.077 106.54 492.516 106.812 A 1.803 1.803 0 0 0 492.56 106.839 A 2.28 2.28 0 0 0 493.066 107.047 Q 493.794 107.26 495.047 107.26 L 498.845 107.26 A 13.305 13.305 0 0 1 500.866 107.403 Q 501.922 107.566 502.776 107.913 A 5.874 5.874 0 0 1 504.2 108.728 A 4.755 4.755 0 0 1 505.968 111.757 A 7.142 7.142 0 0 1 506.07 112.997 A 7.038 7.038 0 0 1 505.668 115.431 Q 504.998 117.261 503.212 118.43 A 9.747 9.747 0 0 1 500.699 119.569 Q 498.297 120.3 494.87 120.3 A 18.211 18.211 0 0 1 492.428 120.147 Q 491.188 119.979 490.176 119.625 A 7.554 7.554 0 0 1 488.38 118.733 Q 486.099 117.167 486.099 114.308 Q 486.099 112.35 487.352 110.921 Q 488.605 109.492 490.876 108.983 Q 490.054 108.611 489.496 107.827 Q 488.938 107.044 488.938 106.006 A 3.717 3.717 0 0 1 489.125 104.809 A 3.294 3.294 0 0 1 489.564 103.951 Q 490.038 103.285 490.925 102.653 A 10.21 10.21 0 0 1 491.542 102.247 A 5.698 5.698 0 0 1 489.067 100.265 A 7.062 7.062 0 0 1 488.83 99.917 A 6.719 6.719 0 0 1 487.799 96.679 A 8.201 8.201 0 0 1 487.782 96.158 A 9.391 9.391 0 0 1 488.029 93.937 A 6.178 6.178 0 0 1 489.897 90.724 A 6.903 6.903 0 0 1 492.546 89.263 Q 493.599 88.941 494.865 88.851 A 14.355 14.355 0 0 1 495.889 88.815 A 12.459 12.459 0 0 1 497.537 88.919 A 9.489 9.489 0 0 1 498.924 89.207 Z M 545.23 107.984 L 545.23 110.471 Q 544.753 110.701 543.868 110.859 A 12.156 12.156 0 0 1 543.674 110.892 A 14.088 14.088 0 0 1 542.755 111.011 Q 542.322 111.052 541.934 111.057 A 8.331 8.331 0 0 1 541.823 111.058 A 8.489 8.489 0 0 1 539.322 110.721 Q 536.572 109.873 535.852 106.886 A 10.217 10.217 0 0 1 535.597 104.499 L 535.597 91.733 L 532.523 91.733 L 532.523 90.166 L 535.597 88.815 L 536.968 84.233 L 538.847 84.233 L 538.847 89.207 L 545.074 89.207 L 545.074 91.733 L 538.847 91.733 L 538.847 104.362 A 6.545 6.545 0 0 0 538.942 105.511 Q 539.054 106.142 539.302 106.641 A 3.153 3.153 0 0 0 539.768 107.338 A 3.019 3.019 0 0 0 541.624 108.326 A 4.344 4.344 0 0 0 542.293 108.376 A 10.674 10.674 0 0 0 543.857 108.264 A 9.838 9.838 0 0 0 543.958 108.248 A 17.583 17.583 0 0 0 544.427 108.168 Q 544.875 108.084 545.187 107.997 A 4.873 4.873 0 0 0 545.23 107.984 Z M 474.625 89.05 L 474.174 92.065 Q 473.065 91.821 472.173 91.78 A 7.624 7.624 0 0 0 471.825 91.772 A 5.632 5.632 0 0 0 467.664 93.569 A 7.705 7.705 0 0 0 467.37 93.886 A 7.422 7.422 0 0 0 465.58 98.054 A 9.866 9.866 0 0 0 465.52 99.153 L 465.52 110.666 L 462.27 110.666 L 462.27 89.207 L 464.952 89.207 L 465.324 93.181 L 465.481 93.181 A 10.976 10.976 0 0 1 466.708 91.428 A 8.385 8.385 0 0 1 468.359 89.951 A 6.479 6.479 0 0 1 472.06 88.815 A 14.922 14.922 0 0 1 473.396 88.872 A 10.891 10.891 0 0 1 474.625 89.05 Z M 481.889 89.207 L 481.889 110.666 L 478.639 110.666 L 478.639 89.207 L 481.889 89.207 Z M 497.807 110.177 L 493.911 110.177 A 7.471 7.471 0 0 0 492.564 110.291 Q 491.294 110.524 490.465 111.234 A 3.425 3.425 0 0 0 489.34 113.176 A 5.201 5.201 0 0 0 489.231 114.269 A 3.264 3.264 0 0 0 489.447 115.48 Q 489.756 116.261 490.508 116.787 A 3.814 3.814 0 0 0 490.7 116.913 Q 492.161 117.809 494.883 117.813 A 16.532 16.532 0 0 0 494.91 117.813 A 21.85 21.85 0 0 0 497.043 117.716 Q 499.555 117.469 500.97 116.589 A 4.741 4.741 0 0 0 502.07 115.669 A 3.553 3.553 0 0 0 502.937 113.271 A 4.398 4.398 0 0 0 502.857 112.397 Q 502.643 111.343 501.861 110.852 Q 501.04 110.338 499.119 110.215 A 20.681 20.681 0 0 0 497.807 110.177 Z M 490.994 96.079 A 6.344 6.344 0 0 0 491.124 97.409 Q 491.401 98.701 492.266 99.486 Q 493.413 100.527 495.37 100.63 A 8.369 8.369 0 0 0 495.81 100.641 A 7.081 7.081 0 0 0 497.664 100.42 Q 499.786 99.844 500.357 97.762 A 6.583 6.583 0 0 0 500.568 96.021 A 6.989 6.989 0 0 0 500.329 94.107 Q 499.496 91.184 495.752 91.184 A 6.82 6.82 0 0 0 494.362 91.317 Q 493.51 91.495 492.861 91.909 A 3.741 3.741 0 0 0 492.227 92.418 A 3.901 3.901 0 0 0 491.283 94.007 Q 490.994 94.903 490.994 96.079 Z M 478.41 82.796 A 3.602 3.602 0 0 0 478.364 83.391 A 3.838 3.838 0 0 0 478.381 83.758 Q 478.413 84.087 478.504 84.355 A 1.678 1.678 0 0 0 478.913 85.026 A 1.824 1.824 0 0 0 479.573 85.447 A 2.065 2.065 0 0 0 480.283 85.565 A 1.896 1.896 0 0 0 481.634 85.026 Q 482.029 84.652 482.149 84.008 A 3.363 3.363 0 0 0 482.202 83.391 Q 482.202 82.856 482.067 82.456 A 1.641 1.641 0 0 0 481.634 81.766 A 1.915 1.915 0 0 0 480.283 81.238 A 2.481 2.481 0 0 0 480.119 81.243 A 1.88 1.88 0 0 0 478.913 81.756 Q 478.523 82.125 478.41 82.796 Z" id="right_labelLayer" stroke="#777777" fill="#777777" style="stroke:#777777;fill:#777777" vector-effect="non-scaling-stroke"/><path d="M 743.5 398 L 755 398 L 755 404 L 767.5 404 L 767.5 398 L 779 398 L 779 404 L 791.5 404 L 791.5 398 L 803 398 L 803 404 L 815.5 404 L 815.5 398 L 827 398 L 827 404 L 839.5 404 L 839.5 398 L 851 398 L 851 404 L 863.5 404 L 863.5 398 L 875 398 L 875 404 L 887.5 404 L 887.5 398 L 899 398 L 899 404 L 911.5 404 L 911.5 398 L 923 398 L 923 404 L 935.5 404 L 935.5 398 L 947 398 L 947 404 L 959.5 404 L 959.5 398 L 971 398 L 971 404 L 983.5 404 L 983.5 398 L 1001.5 398 L 1001.5 378 L 1007.5 378 L 1007.5 365.5 L 1001.5 365.5 L 1001.5 354 L 1007.5 354 L 1007.5 341.5 L 1001.5 341.5 L 1001.5 330 L 1007.5 330 L 1007.5 317.5 L 1001.5 317.5 L 1001.5 306 L 1007.5 306 L 1007.5 293.5 L 1001.5 293.5 L 1001.5 282 L 1007.5 282 L 1007.5 269.5 L 1001.5 269.5 L 1001.5 258 L 1007.5 258 L 1007.5 245.5 L 1001.5 245.5 L 1001.5 234 L 1007.5 234 L 1007.5 221.5 L 1001.5 221.5 L 1001.5 210 L 1007.5 210 L 1007.5 197.5 L 1001.5 197.5 L 1001.5 186 L 1007.5 186 L 1007.5 173.5 L 1001.5 173.5 L 1001.5 162 L 1007.5 162 L 1007.5 149.5 L 1001.5 149.5 L 1001.5 138 L 1007.5 138 L 1007.5 125.5 L 1001.5 125.5 L 1001.5 114 L 1007.5 114 L 1007.5 101.5 L 1001.5 101.5 L 1001.5 90 L 1007.5 90 L 1007.5 77.5 L 1001.5 77.5 L 1001.5 66 L 1007.5 66 L 1007.5 53.5 L 1001.5 53.5 L 1001.5 42 L 1007.5 42 L 1007.5 29.5 L 1001.5 29.5 L 1001.5 9.5 L 983.5 9.5 L 983.5 3.5 L 971 3.5 L 971 9.5 L 959.5 9.5 L 959.5 3.5 L 947 3.5 L 947 9.5 L 935.5 9.5 L 935.5 3.5 L 923 3.5 L 923 9.5 L 911.5 9.5 L 911.5 3.5 L 899 3.5 L 899 9.5 L 887.5 9.5 L 887.5 3.5 L 875 3.5 L 875 9.5 L 863.5 9.5 L 863.5 3.5 L 851 3.5 L 851 9.5 L 839.5 9.5 L 839.5 3.5 L 827 3.5 L 827 9.5 L 815.5 9.5 L 815.5 3.5 L 803 3.5 L 803 9.5 L 791.5 9.5 L 791.5 3.5 L 779 3.5 L 779 9.5 L 767.5 9.5 L 767.5 3.5 L 755 3.5 L 755 9.5 L 743.5 9.5 L 743.5 3.5 L 731 3.5 L 731 9.5 L 713 9.5 L 713 29.5 L 707 29.5 L 707 42 L 713 42 L 713 53.5 L 707 53.5 L 707 66 L 713 66 L 713 77.5 L 707 77.5 L 707 90 L 713 90 L 713 101.5 L 707 101.5 L 707 114 L 713 114 L 713 125.5 L 707 125.5 L 707 138 L 713 138 L 713 149.5 L 707 149.5 L 707 162 L 713 162 L 713 173.5 L 707 173.5 L 707 186 L 713 186 L 713 197.5 L 707 197.5 L 707 210 L 713 210 L 713 221.5 L 707 221.5 L 707 234 L 713 234 L 713 245.5 L 707 245.5 L 707 258 L 713 258 L 713 269.5 L 707 269.5 L 707 282 L 713 282 L 713 293.5 L 707 293.5 L 707 306 L 713 306 L 713 317.5 L 707 317.5 L 707 330 L 713 330 L 713 341.5 L 707 341.5 L 707 354 L 713 354 L 713 365.5 L 707 365.5 L 707 378 L 713 378 L 713 398 L 731 398 L 731 404 L 743.5 404 L 743.5 398 Z" id="bottom_outsideCutPath" stroke="#FF0000" stroke-width="0.1" style="stroke:#FF0000;stroke-width:0.1" vector-effect="non-scaling-stroke"/><path d="M 956.116 226.287 L 951.244 226.287 L 951.244 205.363 A 14.371 14.371 0 0 0 951.099 203.25 Q 950.939 202.171 950.599 201.301 A 5.887 5.887 0 0 0 949.601 199.597 A 5.126 5.126 0 0 0 947.218 198.056 Q 946.369 197.782 945.333 197.705 A 11.308 11.308 0 0 0 944.495 197.675 A 12.535 12.535 0 0 0 941.944 197.917 Q 939.284 198.47 937.774 200.286 A 8.05 8.05 0 0 0 936.409 202.757 Q 935.603 205.019 935.603 208.327 L 935.603 226.287 L 930.731 226.287 L 930.731 205.363 A 14.371 14.371 0 0 0 930.587 203.25 Q 930.426 202.171 930.087 201.301 A 5.887 5.887 0 0 0 929.088 199.597 Q 927.445 197.675 923.953 197.675 Q 920.758 197.675 918.756 199.011 A 6.385 6.385 0 0 0 917.247 200.419 A 8.169 8.169 0 0 0 916.036 202.719 Q 915.25 204.941 915.138 208.272 A 33.917 33.917 0 0 0 915.12 209.413 L 915.12 226.287 L 910.248 226.287 L 910.248 194.124 L 914.21 194.124 L 915.002 198.526 L 915.237 198.526 A 9.574 9.574 0 0 1 919.125 194.857 Q 921.634 193.537 924.745 193.537 A 15.949 15.949 0 0 1 928.335 193.911 Q 930.543 194.422 932.083 195.631 A 8.317 8.317 0 0 1 934.605 198.995 L 934.84 198.995 A 10.171 10.171 0 0 1 938.671 195.192 A 12.22 12.22 0 0 1 939.007 195.004 A 12.329 12.329 0 0 1 943.53 193.629 A 15.374 15.374 0 0 1 945.228 193.537 A 16.933 16.933 0 0 1 948.3 193.797 Q 951.514 194.391 953.401 196.339 A 8.389 8.389 0 0 1 955.202 199.286 Q 956.116 201.73 956.116 205.305 L 956.116 226.287 Z M 763.256 222.149 L 762.903 222.149 L 761.876 226.287 L 758.384 226.287 L 758.384 180.625 L 763.256 180.625 L 763.256 191.718 A 101.565 101.565 0 0 1 763.2 195.149 Q 763.142 196.88 763.021 198.408 L 763.256 198.408 A 11.076 11.076 0 0 1 771.34 193.713 A 16.638 16.638 0 0 1 773.35 193.596 A 14.889 14.889 0 0 1 777.541 194.155 A 11.145 11.145 0 0 1 783.196 197.924 Q 786.004 201.39 786.564 207.162 A 31.268 31.268 0 0 1 786.703 210.176 A 28.562 28.562 0 0 1 786.324 214.982 Q 785.886 217.543 784.942 219.597 A 13.692 13.692 0 0 1 783.167 222.486 Q 779.63 226.874 773.35 226.874 Q 770.211 226.874 767.613 225.714 Q 765.016 224.555 763.256 222.149 Z M 846.304 222.266 L 846.304 225.993 Q 845.588 226.338 844.262 226.575 A 18.218 18.218 0 0 1 843.971 226.624 A 21.114 21.114 0 0 1 842.594 226.803 Q 841.945 226.865 841.363 226.873 A 12.486 12.486 0 0 1 841.198 226.874 A 12.723 12.723 0 0 1 837.448 226.369 Q 831.866 224.646 831.866 217.043 L 831.866 197.909 L 827.259 197.909 L 827.259 195.562 L 831.866 193.537 L 833.92 186.67 L 836.737 186.67 L 836.737 194.124 L 846.069 194.124 L 846.069 197.909 L 836.737 197.909 L 836.737 216.837 Q 836.737 218.879 837.418 220.254 A 4.725 4.725 0 0 0 838.116 221.298 Q 839.496 222.853 841.902 222.853 A 15.998 15.998 0 0 0 844.246 222.686 A 14.745 14.745 0 0 0 844.396 222.663 Q 845.6 222.472 846.304 222.266 Z M 867.521 222.266 L 867.521 225.993 Q 866.805 226.338 865.479 226.575 A 18.218 18.218 0 0 1 865.188 226.624 A 21.114 21.114 0 0 1 863.811 226.803 Q 863.162 226.865 862.58 226.873 A 12.486 12.486 0 0 1 862.415 226.874 A 12.723 12.723 0 0 1 858.665 226.369 Q 853.083 224.646 853.083 217.043 L 853.083 197.909 L 848.475 197.909 L 848.475 195.562 L 853.083 193.537 L 855.137 186.67 L 857.954 186.67 L 857.954 194.124 L 867.286 194.124 L 867.286 197.909 L 857.954 197.909 L 857.954 216.837 Q 857.954 218.879 858.635 220.254 A 4.725 4.725 0 0 0 859.333 221.298 Q 860.713 222.853 863.119 222.853 A 15.998 15.998 0 0 0 865.463 222.686 A 14.745 14.745 0 0 0 865.613 222.663 Q 866.817 222.472 867.521 222.266 Z M 822.527 215.071 A 25.163 25.163 0 0 0 822.974 210.176 Q 822.974 207.049 822.311 204.451 A 15.169 15.169 0 0 0 818.998 198.027 A 12.752 12.752 0 0 0 813.077 194.208 A 16.369 16.369 0 0 0 808.272 193.537 A 18.92 18.92 0 0 0 804.873 193.829 A 12.885 12.885 0 0 0 797.355 197.924 Q 794.744 200.837 793.867 205.284 A 25.293 25.293 0 0 0 793.423 210.176 Q 793.423 215.253 795.242 219.038 A 16.011 16.011 0 0 0 795.597 219.733 A 13.188 13.188 0 0 0 800.407 224.849 A 13.564 13.564 0 0 0 803.521 226.233 A 15.643 15.643 0 0 0 808.066 226.874 A 18.916 18.916 0 0 0 811.37 226.598 A 12.987 12.987 0 0 0 819.012 222.457 A 13.589 13.589 0 0 0 820.63 220.234 Q 821.95 217.976 822.527 215.071 Z M 901.262 215.071 A 25.163 25.163 0 0 0 901.709 210.176 Q 901.709 207.049 901.046 204.451 A 15.169 15.169 0 0 0 897.732 198.027 A 12.752 12.752 0 0 0 891.812 194.208 A 16.369 16.369 0 0 0 887.006 193.537 A 18.92 18.92 0 0 0 883.608 193.829 A 12.885 12.885 0 0 0 876.09 197.924 Q 873.478 200.837 872.601 205.284 A 25.293 25.293 0 0 0 872.157 210.176 Q 872.157 215.253 873.977 219.038 A 16.011 16.011 0 0 0 874.331 219.733 A 13.188 13.188 0 0 0 879.142 224.849 A 13.564 13.564 0 0 0 882.255 226.233 A 15.643 15.643 0 0 0 886.801 226.874 A 18.916 18.916 0 0 0 890.104 226.598 A 12.987 12.987 0 0 0 897.747 222.457 A 13.589 13.589 0 0 0 899.365 220.234 Q 900.685 217.976 901.262 215.071 Z M 798.47 210.176 A 24.669 24.669 0 0 0 798.705 213.7 Q 799.231 217.335 800.935 219.567 A 7.984 7.984 0 0 0 806.135 222.629 A 12.099 12.099 0 0 0 808.184 222.795 Q 812.967 222.795 815.447 219.581 A 10.457 10.457 0 0 0 817.075 216.41 Q 817.554 214.944 817.764 213.155 A 25.66 25.66 0 0 0 817.927 210.176 A 24.306 24.306 0 0 0 817.696 206.712 Q 817.442 204.949 816.906 203.521 A 10.03 10.03 0 0 0 815.447 200.859 A 8.014 8.014 0 0 0 810.465 197.886 A 12.286 12.286 0 0 0 808.125 197.675 A 11.593 11.593 0 0 0 805.239 198.013 A 7.759 7.759 0 0 0 800.906 200.815 A 10.072 10.072 0 0 0 799.34 203.84 Q 798.47 206.458 798.47 210.176 Z M 877.205 210.176 A 24.669 24.669 0 0 0 877.44 213.7 Q 877.966 217.335 879.67 219.567 A 7.984 7.984 0 0 0 884.87 222.629 A 12.099 12.099 0 0 0 886.918 222.795 Q 891.702 222.795 894.181 219.581 A 10.457 10.457 0 0 0 895.81 216.41 Q 896.289 214.944 896.498 213.155 A 25.66 25.66 0 0 0 896.661 210.176 A 24.306 24.306 0 0 0 896.431 206.712 Q 896.176 204.949 895.641 203.521 A 10.03 10.03 0 0 0 894.181 200.859 A 8.014 8.014 0 0 0 889.199 197.886 A 12.286 12.286 0 0 0 886.86 197.675 A 11.593 11.593 0 0 0 883.973 198.013 A 7.759 7.759 0 0 0 879.641 200.815 A 10.072 10.072 0 0 0 878.075 203.84 Q 877.205 206.458 877.205 210.176 Z M 772.646 197.675 A 13.689 13.689 0 0 0 769.995 197.914 Q 768.485 198.212 767.338 198.884 A 6.479 6.479 0 0 0 765.456 200.536 A 8.339 8.339 0 0 0 764.249 202.835 Q 763.435 205.118 763.288 208.588 A 37.532 37.532 0 0 0 763.256 210.176 Q 763.256 215.934 764.886 218.908 A 7.347 7.347 0 0 0 765.515 219.875 Q 767.541 222.492 771.76 222.763 A 15.663 15.663 0 0 0 772.764 222.795 A 9.711 9.711 0 0 0 775.522 222.425 A 7.006 7.006 0 0 0 779.454 219.523 Q 781.655 216.251 781.655 210.117 Q 781.655 204.164 779.678 201.085 A 8.081 8.081 0 0 0 779.454 200.756 A 7.104 7.104 0 0 0 774.932 197.894 A 11.267 11.267 0 0 0 772.646 197.675 Z" id="bottom_labelLayer" stroke="#777777" fill="#777777" style="stroke:#777777;fill:#777777" vector-effect="non-scaling-stroke"/></g></svg>