<?xml version="1.0" encoding="UTF-8" standalone="no"?>
<!-- Created with Inkscape (http://www.inkscape.org/) -->

<svg
   width="737.39355mm"
   height="748.57874mm"
   viewBox="0 0 2612.8118 2652.4443"
   id="svg5173"
   version="1.1"
   inkscape:version="1.2.2 (b0a8486541, 2022-12-01)"
   sodipodi:docname="ontwerp.svg"
   xmlns:inkscape="http://www.inkscape.org/namespaces/inkscape"
   xmlns:sodipodi="http://sodipodi.sourceforge.net/DTD/sodipodi-0.dtd"
   xmlns="http://www.w3.org/2000/svg"
   xmlns:svg="http://www.w3.org/2000/svg"
   xmlns:rdf="http://www.w3.org/1999/02/22-rdf-syntax-ns#"
   xmlns:cc="http://creativecommons.org/ns#"
   xmlns:dc="http://purl.org/dc/elements/1.1/">
  <title
     id="title5452">kist onderdeel</title>
  <defs
     id="defs5175">
    <inkscape:path-effect
       effect="skeletal"
       id="path-effect13033"
       is_visible="true"
       pattern="M 0,5 C 0,2.24 2.24,0 5,0 7.76,0 10,2.24 10,5 10,7.76 7.76,10 5,10 2.24,10 0,7.76 0,5 Z"
       copytype="single_stretched"
       prop_scale="1"
       scale_y_rel="false"
       spacing="0"
       normal_offset="0"
       tang_offset="0"
       prop_units="false"
       vertical_pattern="false"
       fuse_tolerance="0" />
    <inkscape:perspective
       sodipodi:type="inkscape:persp3d"
       inkscape:vp_x="-2848.5941 : 646.48015 : 1"
       inkscape:vp_y="-1984.5922 : 650.57635 : 1"
       inkscape:vp_z="-2628.0557 : -592.92894 : 1"
       inkscape:persp3d-origin="-2900.3205 : 28.131654 : 1"
       id="perspective4304" />
    <inkscape:perspective
       sodipodi:type="inkscape:persp3d"
       inkscape:vp_x="0 : 526.18108 : 1"
       inkscape:vp_y="0 : 999.99997 : 0"
       inkscape:vp_z="744.09449 : 526.18108 : 1"
       inkscape:persp3d-origin="372.04724 : 350.78739 : 1"
       id="perspective4246" />
    <pattern
       patternUnits="userSpaceOnUse"
       width="115.36137"
       height="115.36052"
       patternTransform="translate(12290.525,-295.61108)"
       id="pattern9890">
      <rect
         y="0"
         x="0.0013671875"
         height="115.36052"
         width="115.36"
         id="rect9888"
         style="fill:#397854;fill-opacity:0;fill-rule:nonzero;stroke:none;stroke-width:28.70000076;stroke-linecap:butt;stroke-linejoin:round;stroke-miterlimit:4;stroke-dasharray:none;stroke-dashoffset:0;stroke-opacity:1" />
      <path
         inkscape:connector-curvature="0"
         id="path7423-2-7-3-35-8"
         d="m 22.676,96.812254 3.422,-9.77668 8.771,5.51098 -5.512,-8.77095 9.777,-3.42013 9.777,3.42076 -5.511,8.77095 8.771,-5.51098 3.42,9.77605 -3.421,9.777756 -8.77,-5.51098 5.511,8.76987 -9.777,3.42076 -9.777,-3.42076 5.512,-8.76987 -8.771,5.51098 -3.422,-9.777756 z"
         style="display:inline;fill:#397854;fill-opacity:1;fill-rule:evenodd;stroke:none;stroke-width:1px;stroke-linecap:butt;stroke-linejoin:miter;stroke-opacity:0.5" />
      <path
         inkscape:connector-curvature="0"
         id="path7423-17-6-4-4-9"
         d="m 80.358,96.812884 3.42,-9.77667 8.771,5.51098 -5.511,-8.77096 9.778,-3.42013 9.776,3.42076 -5.511,8.77096 8.771,-5.51098 3.42,9.77604 -3.422,9.777766 -8.77,-5.51099 5.511,8.76988 -9.776,3.42076 -9.777,-3.42076 5.511,-8.76988 -8.77,5.51099 -3.421,-9.777766 z"
         style="display:inline;fill:#397854;fill-opacity:1;fill-rule:evenodd;stroke:none;stroke-width:1px;stroke-linecap:butt;stroke-linejoin:miter;stroke-opacity:0.5" />
      <path
         inkscape:connector-curvature="0"
         id="path7423-2-6-6-8-9"
         d="m 22.677,39.132614 3.421,-9.77667 8.771,5.51097 -5.511,-8.77095 9.777,-3.42009 9.776,3.42075 -5.51,8.77096 8.771,-5.51098 3.42,9.77601 -3.422,9.77778 -8.77,-5.51098 5.511,8.76987 -9.777,3.42076 -9.776,-3.42076 5.511,-8.76987 -8.77,5.51098 -3.422,-9.77778 z"
         style="display:inline;fill:#397854;fill-opacity:1;fill-rule:evenodd;stroke:none;stroke-width:1px;stroke-linecap:butt;stroke-linejoin:miter;stroke-opacity:0.5" />
      <path
         inkscape:connector-curvature="0"
         id="path7423-6-4-2-3-2"
         d="m 80.358,39.133274 3.421,-9.77667 8.771,5.51098 -5.512,-8.77096 9.778,-3.42015 9.777,3.42076 -5.512,8.77096 8.771,-5.51098 3.421,9.77606 -3.422,9.77775 -8.77,-5.511 5.511,8.76989 -9.776,3.42076 -9.778,-3.42076 5.512,-8.76989 -8.77,5.511 -3.422,-9.77775 z"
         style="display:inline;fill:#397854;fill-opacity:1;fill-rule:evenodd;stroke:none;stroke-width:1px;stroke-linecap:butt;stroke-linejoin:miter;stroke-opacity:0.5" />
      <path
         inkscape:connector-curvature="0"
         id="path7629-7-0-3-5"
         d="M 1.161,10.292494 0.001,3.984375e-6 10.294,1.160034 20.589,6.7398438e-4 19.428,10.293164 l 1.16,10.29293 -10.294,-1.16004 -10.293,1.16004 z"
         style="display:inline;fill:#397854;fill-opacity:1;fill-rule:evenodd;stroke:none;stroke-width:1px;stroke-linecap:butt;stroke-linejoin:miter;stroke-opacity:1" />
      <path
         inkscape:connector-curvature="0"
         id="path7629-4-7-6-8-7"
         d="M 58.842,10.293164 57.682,6.7398437e-4 67.975,1.160704 78.269,0.00133398 77.109,10.293764 l 1.16,10.29293 -10.294,-1.16003 -10.293,1.16003 z"
         style="display:inline;fill:#397854;fill-opacity:1;fill-rule:evenodd;stroke:none;stroke-width:1px;stroke-linecap:butt;stroke-linejoin:miter;stroke-opacity:1" />
      <path
         inkscape:connector-curvature="0"
         id="path7629-1-4-9-4-9"
         d="M 1.16,67.972124 0,57.679634 l 10.294,1.16003 10.294,-1.1594 -1.16,10.2925 1.159,10.29293 L 10.294,77.105654 0,78.265694 Z"
         style="display:inline;fill:#397854;fill-opacity:1;fill-rule:evenodd;stroke:none;stroke-width:1px;stroke-linecap:butt;stroke-linejoin:miter;stroke-opacity:1" />
      <path
         inkscape:connector-curvature="0"
         id="path7629-0-8-9-7-9"
         d="m 58.841,67.972764 -1.16,-10.2925 10.293,1.16004 10.295,-1.1594 -1.16,10.29249 1.159,10.29294 -10.294,-1.16004 -10.293,1.16004 z"
         style="display:inline;fill:#397854;fill-opacity:1;fill-rule:evenodd;stroke:none;stroke-width:1px;stroke-linecap:butt;stroke-linejoin:miter;stroke-opacity:1" />
    </pattern>
  </defs>
  <sodipodi:namedview
     id="base"
     pagecolor="#ffffff"
     bordercolor="#666666"
     borderopacity="1.0"
     inkscape:pageopacity="0.0"
     inkscape:pageshadow="2"
     inkscape:zoom="0.17319709"
     inkscape:cx="4549.7301"
     inkscape:cy="2811.8256"
     inkscape:document-units="px"
     inkscape:current-layer="layer3"
     showgrid="false"
     inkscape:snap-object-midpoints="true"
     inkscape:object-nodes="true"
     inkscape:window-width="2560"
     inkscape:window-height="1313"
     inkscape:window-x="0"
     inkscape:window-y="0"
     inkscape:window-maximized="1"
     inkscape:snap-others="false"
     showguides="true"
     inkscape:snap-smooth-nodes="false"
     inkscape:object-paths="false"
     inkscape:snap-global="true"
     inkscape:snap-intersection-paths="false"
     fit-margin-top="10"
     fit-margin-left="10"
     fit-margin-right="10"
     fit-margin-bottom="10"
     inkscape:showpageshadow="2"
     inkscape:pagecheckerboard="0"
     inkscape:deskcolor="#d1d1d1" />
  <metadata
     id="metadata5178">
    <rdf:RDF>
      <cc:Work
         rdf:about="">
        <dc:format>image/svg+xml</dc:format>
        <dc:type
           rdf:resource="http://purl.org/dc/dcmitype/StillImage" />
        <dc:title>kist onderdeel</dc:title>
        <dc:date>2017-04-01</dc:date>
        <dc:creator>
          <cc:Agent>
            <dc:title>Dasrakel</dc:title>
          </cc:Agent>
        </dc:creator>
        <dc:relation>ontwerp.svg</dc:relation>
        <cc:license
           rdf:resource="http://creativecommons.org/licenses/by-nc/3.0/" />
      </cc:Work>
      <cc:License
         rdf:about="http://creativecommons.org/licenses/by-nc/3.0/">
        <cc:permits
           rdf:resource="http://creativecommons.org/ns#Reproduction" />
        <cc:permits
           rdf:resource="http://creativecommons.org/ns#Distribution" />
        <cc:requires
           rdf:resource="http://creativecommons.org/ns#Notice" />
        <cc:requires
           rdf:resource="http://creativecommons.org/ns#Attribution" />
        <cc:prohibits
           rdf:resource="http://creativecommons.org/ns#CommercialUse" />
        <cc:permits
           rdf:resource="http://creativecommons.org/ns#DerivativeWorks" />
      </cc:License>
    </rdf:RDF>
  </metadata>
  <g
     inkscape:groupmode="layer"
     id="layer3"
     inkscape:label="binnenlaag"
     style="display:inline">
    <path
       style="display:inline;fill:#2b1100;fill-opacity:1;fill-rule:nonzero;stroke:none;stroke-width:0.354331;stroke-linecap:butt;stroke-linejoin:round;stroke-miterlimit:4;stroke-dasharray:none;stroke-dashoffset:0;stroke-opacity:1"
       d="M 1138.4248,35.435138 V 1119.6871 h 1438.954 V 35.435138 Z"
       id="rect16574"
       inkscape:connector-curvature="0"
       sodipodi:nodetypes="ccccc" />
  </g>
  <g
     inkscape:groupmode="layer"
     id="layer2"
     inkscape:label="middenlaag"
     style="font-variation-settings:normal;display:inline;opacity:1;vector-effect:none;fill:#ffff00;fill-opacity:1;stroke-width:1.77165;stroke-linecap:round;stroke-linejoin:round;stroke-miterlimit:4;stroke-dasharray:none;stroke-dashoffset:0;stroke-opacity:1;-inkscape-stroke:none;stop-color:#000000;stop-opacity:1">
    <path
       style="font-variation-settings:normal;display:inline;vector-effect:none;fill:#c87137;fill-opacity:1;fill-rule:nonzero;stroke:none;stroke-width:1.77165;stroke-linecap:round;stroke-linejoin:round;stroke-miterlimit:4;stroke-dasharray:none;stroke-dashoffset:0;stroke-opacity:1;-inkscape-stroke:none;stop-color:#000000;stop-opacity:1"
       d="M 1138.4248,35.435138 V 1119.6872 h 1438.584 V 35.435138 Z"
       id="rect5319-3-9"
       inkscape:connector-curvature="0"
       sodipodi:nodetypes="ccccc"
       inkscape:label="bovenkant" />
    <path
       id="rect9903"
       style="display:inline;fill:#c87137;fill-opacity:1;fill-rule:nonzero;stroke:none;stroke-width:28.7;stroke-linecap:butt;stroke-linejoin:round;stroke-miterlimit:4;stroke-dasharray:none;stroke-dashoffset:0;stroke-opacity:1"
       d="m 35.432739,1159.6875 v 708.8672 c 371.581361,-0.4608 742.893371,-0.2069 1062.991361,-0.2069 v -708.6603 z m 409.645381,136.9684 c 50.35376,1.4709 100.07839,16.9043 150.67749,10.285 32.55075,-2.9291 64.75204,-10.262 97.53479,-10.1752 22.93248,5.3054 45.07798,18.1364 58.56446,37.7619 3.0923,12.5374 -7.30183,23.4798 -12.42737,34.2132 -17.19498,27.1252 -40.80325,53.3526 -72.46399,62.8547 -27.69103,3.4893 -55.69539,0.5758 -83.52356,1.6626 -34.53323,-0.017 -69.09288,0.01 -103.61023,-0.293 -27.93827,-0.4632 -50.464,-20.6323 -68.07312,-40.3327 -12.90594,-15.3964 -24.17338,-32.6068 -30.8606,-51.6375 1.43746,-13.6675 15.09414,-21.7912 25.09644,-29.5075 11.77165,-7.2852 25.03084,-14.2658 39.08569,-14.8315 z"
       inkscape:label="zijkant" />
    <path
       inkscape:connector-curvature="0"
       style="font-variation-settings:normal;display:inline;vector-effect:none;fill:#c87137;fill-opacity:1;fill-rule:evenodd;stroke:none;stroke-width:1.77165;stroke-linecap:round;stroke-linejoin:round;stroke-miterlimit:4;stroke-dasharray:none;stroke-dashoffset:0;stroke-opacity:1;-inkscape-stroke:none;stop-color:#000000;stop-opacity:1"
       d="m 1138.4248,1908.3492 v 708.6621 h 1438.584 v -708.6621 z"
       id="rect20325"
       sodipodi:nodetypes="ccccc"
       inkscape:label="achterkant" />
    <rect
       style="font-variation-settings:normal;display:inline;vector-effect:none;fill:#c87137;fill-opacity:1;fill-rule:nonzero;stroke:none;stroke-width:1.77165;stroke-linecap:round;stroke-linejoin:round;stroke-miterlimit:4;stroke-dasharray:none;stroke-dashoffset:0;stroke-opacity:1;-inkscape-stroke:none;stop-color:#000000;stop-opacity:1"
       id="rect6703"
       width="1438.583"
       height="708.66211"
       x="1138.4254"
       y="1159.687"
       inkscape:label="voorkant" />
  </g>
  <g
     inkscape:label="toplaag"
     inkscape:groupmode="layer"
     id="layer1"
     style="display:inline"
     transform="translate(1649.6962,62.041926)">
    <path
       id="rect9903-0"
       style="font-variation-settings:normal;display:inline;vector-effect:none;fill:#ffccaa;fill-opacity:1;fill-rule:nonzero;stroke:none;stroke-width:28.7;stroke-linecap:butt;stroke-linejoin:round;stroke-miterlimit:4;stroke-dasharray:none;stroke-dashoffset:0;stroke-opacity:1;-inkscape-stroke:none;stop-color:#000000"
       d="m 35.432739,1159.6875 v 708.8672 c 371.581361,-0.4608 742.893371,-0.2069 1062.991361,-0.2069 v -708.6603 z m 409.645381,136.9684 c 50.35376,1.4709 100.07839,16.9043 150.67749,10.285 32.55075,-2.9291 64.75204,-10.262 97.53479,-10.1752 22.93248,5.3054 45.07798,18.1364 58.56446,37.7619 3.0923,12.5374 -7.30183,23.4798 -12.42737,34.2132 -17.19498,27.1252 -40.80325,53.3526 -72.46399,62.8547 -27.69103,3.4893 -55.69539,0.5758 -83.52356,1.6626 -34.53323,-0.017 -69.09288,0.01 -103.61023,-0.293 -27.93827,-0.4632 -50.464,-20.6323 -68.07312,-40.3327 -12.90594,-15.3964 -24.17338,-32.6068 -30.8606,-51.6375 1.43746,-13.6675 15.09414,-21.7912 25.09644,-29.5075 11.77165,-7.2852 25.03084,-14.2658 39.08569,-14.8315 z"
       transform="translate(-1649.6962,-62.041926)"
       inkscape:label="zijkant" />
    <path
       id="rect21505"
       style="fill:#ffccaa;stroke-width:1.77165;stroke-linecap:round;stroke-linejoin:round"
       d="m -511.27091,1097.6456 v 708.6621 H 927.31185 v -708.6621 z m 44.39392,40.0085 c 1.4462,-0.207 2.12325,0.4699 2.8125,2.8125 0.82055,2.7887 1.58409,3.314 7.93945,5.4749 3.8672,1.3148 9.77344,3.1588 13.125,4.0979 8.25139,2.3122 22.62102,8.5364 29.78211,12.8997 3.23173,1.9692 6.18486,3.604 6.5625,3.6329 0.89781,0.069 15.09196,10.1482 24.33838,17.2833 4.00391,3.0897 11.71218,9.8839 17.12768,15.097 9.52847,9.1722 10.01209,9.4972 15.00183,10.0855 2.83589,0.3345 6.80114,0.884 8.81104,1.2213 l 3.65478,0.6134 -1.77978,-3.0981 c -2.10221,-3.6599 -16.62054,-20.0428 -26.6034,-30.0202 -6.51669,-6.5132 -17.05391,-14.5284 -25.57434,-19.4549 -4.52035,-2.6136 -18.96902,-6.4472 -27.41455,-7.273 -10.19255,-0.9966 -14.53125,-3.8961 -14.53125,-9.7119 v -3.5083 l 10.07813,2.0563 c 21.20793,4.3275 37.8199,11.5856 49.00635,21.4123 1.81657,1.5957 4.76969,3.9551 6.5625,5.2442 6.50741,4.6789 26.06127,25.096 33.9624,35.4602 4.45072,5.8382 8.22574,11.0122 8.38806,11.499 0.34087,1.0223 16.84827,7.3577 17.78137,6.8243 1.23076,-0.7033 -4.38732,-13.2135 -10.58899,-23.5803 -10.0831,-16.855 -17.44204,-25.5054 -29.26208,-34.4018 -10.91493,-8.2152 -22.54386,-12.6544 -33.23914,-12.6893 -5.4859,-0.018 -7.15664,-0.9783 -6.31531,-3.6291 1.13719,-3.5829 5.66764,-5.0963 13.58094,-4.5355 6.7857,0.4809 19.35446,4.2131 20.57556,6.1102 0.31075,0.4828 2.46241,1.832 4.78271,2.9974 4.55864,2.2897 24.48409,22.0208 26.90003,26.6382 0.78399,1.4984 2.18437,3.5409 3.11279,4.5374 2.30105,2.4699 13.67848,25.378 15.4834,31.1755 2.74422,8.8149 5.3657,12.9455 10.29419,16.2177 8.54505,5.6735 8.32202,5.6377 7.61169,1.1956 -1.64604,-10.2936 -14.27501,-40.053 -22.35901,-52.6904 -4.63756,-7.2497 -14.20332,-17.2395 -20.54077,-21.449 -4.83844,-3.2137 -12.33196,-6.4868 -12.66907,-5.5334 -0.0748,0.2115 -1.02402,-0.4185 -2.10937,-1.4008 -2.65557,-2.4033 -2.48626,-4.8661 0.46875,-6.8023 2.1077,-1.381 3.13634,-1.4562 7.49451,-0.542 2.77811,0.5827 7.69079,2.3317 10.91674,3.8855 10.93172,5.2653 17.26989,11.9642 26.39466,27.8961 4.46331,7.793 11.95231,24.195 11.60705,25.4224 -0.10452,0.3722 0.33436,1.6248 0.97779,2.785 0.64329,1.1601 0.97187,2.1094 0.72876,2.1094 -0.24307,0 0.41008,3.0586 1.45202,6.7968 1.04195,3.7383 2.88361,10.5938 4.09241,15.2344 3.84102,14.7458 5.02232,17.8153 7.93396,20.6049 1.55899,1.4937 2.83447,3.269 2.83447,3.9459 0,0.677 0.48333,1.2305 1.073,1.2305 3.44013,0 -6.83722,-54.5809 -12.83386,-68.1592 -5.63527,-12.7603 -9.37781,-19.2762 -14.02039,-24.4061 -5.28436,-5.8395 -9.19412,-8.2736 -14.67041,-9.1333 -4.32395,-0.6788 -5.98586,-2.49 -4.62158,-5.0391 1.53499,-2.8682 5.69576,-3.2951 11.66382,-1.1975 14.14349,4.971 22.26536,13.0706 30.54382,30.4632 1.68438,3.5389 3.19766,7.1248 3.36182,7.9688 0.16406,0.844 0.36616,1.5344 0.44861,1.5344 0.0826,0 0.30164,0.8438 0.48706,1.875 0.18531,1.0313 1.21991,5.25 2.2998,9.375 2.4907,9.514 4.40325,21.2121 5.13611,31.4063 0.315,4.3828 0.76674,9.4453 1.00159,11.25 0.77822,5.9807 2.27484,33.0175 2.82898,51.0937 0.30048,9.7969 0.91563,25.7544 1.36779,35.4602 0.4522,9.7057 0.60845,18.2057 0.34607,18.8892 -0.26221,0.6835 -0.0256,1.5218 0.52369,1.8622 0.55076,0.3405 1.0048,2.3873 1.00891,4.5483 0.004,2.161 0.66366,8.9901 1.46484,15.1776 1.47561,11.3962 2.43237,20.4058 2.43896,22.9688 0.007,2.3689 2.72991,11.4846 3.27027,10.9442 0.27921,-0.2792 -0.19013,-4.6579 -1.04187,-9.7303 -1.98844,-11.8409 -2.54812,-26.7831 -2.71912,-72.4639 -0.14279,-38.1778 0.50656,-62.3888 2.26319,-84.375 1.22752,-15.3649 1.23443,-35.0049 0.0146,-40.4956 -0.49344,-2.2196 -1.138,-6.0634 -1.43188,-8.5437 -0.74222,-6.2643 -8.27999,-20.3706 -13.02979,-24.3824 -3.46845,-2.9296 -9.36307,-5.285 -13.27514,-5.3064 -7.43154,-0.041 -7.49146,-7.5819 -0.0714,-8.974 4.31584,-0.8096 8.40008,0.1616 14.74182,3.5047 6.51446,3.4342 8.6877,5.7218 14.6466,15.4211 4.91847,8.0057 7.81805,15.6279 9.6698,25.4169 1.20094,6.3483 0.76431,28.5113 -0.91919,46.6406 -0.52665,5.6719 -1.19038,13.0547 -1.47583,16.4063 -0.28559,3.3515 -0.71611,7.9922 -0.95581,10.3125 -1.92315,18.6154 -2.48536,26.5198 -3.20617,45 -0.95159,24.3948 -0.56279,63.0083 0.79834,79.2187 1.56337,18.6186 3.68907,34.4709 4.76623,35.5481 1.11898,1.119 1.11866,1.2931 -0.022,-9.2981 -0.49967,-4.6407 -0.92512,-19.6173 -0.94482,-33.2812 -0.0446,-30.9131 1.24764,-51.0583 5.13794,-80.1563 1.89111,-14.1448 2.35206,-17.9976 2.80334,-23.4375 0.21402,-2.5781 1.05357,-7.6406 1.86768,-11.25 3.95672,-17.543 8.00417,-48.5755 7.94677,-60.9375 -0.0702,-15.1218 -2.10511,-26.7375 -6.12488,-34.9805 -5.47262,-11.222 -10.98117,-16.1132 -18.15124,-16.1132 -2.39634,0 -2.84363,-0.3628 -2.84363,-2.3108 0,-5.2663 10.71252,-6.2634 19.41651,-1.8073 16.92701,8.6658 24.06851,42.7693 16.55822,79.0705 -0.80561,3.8937 -1.59896,8.3445 -1.7633,9.8913 -0.16441,1.5469 -0.38285,3.0235 -0.48706,3.2813 -0.10417,0.2579 -0.25844,0.8906 -0.34241,1.4062 -0.25548,1.5671 -1.50349,7.1058 -3.38013,15 -4.75744,20.0125 -5.71103,24.58 -8.30749,39.8438 -5.68326,33.4099 -6.73413,50.3621 -6.1322,98.9062 0.42293,34.1088 0.98106,46.8017 2.28698,52.0313 0.49574,1.9852 0.55801,-1.9034 0.15747,-9.8438 -0.96874,-19.2046 -0.63587,-51.8938 0.65003,-63.75 3.42838,-31.6094 7.09612,-52.606 14.25293,-81.6247 1.02604,-4.1601 2.0073,-8.8007 2.18261,-10.3125 0.17539,-1.5118 0.41636,-2.9612 0.53467,-3.219 0.11834,-0.258 0.28393,-0.8906 0.36804,-1.4063 0.45567,-2.794 1.93521,-8.4721 4.27369,-16.4062 9.2805,-31.4876 11.94128,-42.4025 12.86499,-52.7527 1.13066,-12.6688 0.87165,-36.1849 -0.42481,-38.5236 -0.24626,-0.4441 -0.57458,-2.5188 -0.73059,-4.6106 -0.48172,-6.4589 -6.1466,-15.9474 -12.30102,-16.1206 -3.02485,-0.085 -3.5382,-0.3923 -3.29956,-1.9757 0.43996,-2.9197 4.59355,-6.0935 7.97241,-6.0919 9.74177,0 15.20022,12.9504 19.07776,35.7001 1.7441,10.2328 1.1081,26.5237 -1.49964,38.4375 -1.07217,4.8984 -2.56147,11.8593 -3.31054,15.4687 -0.74909,3.6094 -2.27754,9.7266 -3.39478,13.5938 -1.11724,3.8672 -2.15071,7.875 -2.29797,8.9062 -0.1474,1.0313 -0.33885,1.875 -0.42481,1.875 -0.0861,0 -0.2749,0.8438 -0.42114,1.875 -0.14598,1.0313 -2.45524,8.4141 -5.13062,16.4063 -7.01246,20.9483 -14.40489,53.2221 -18.86901,82.3736 -0.50262,3.2822 -1.09475,6.2622 -1.31653,6.6211 -0.22181,0.3587 -1.16629,5.9001 -2.09839,12.3139 -2.47121,17.0051 -2.22847,56.4435 0.50537,81.9726 2.5729,24.0268 5.19665,40.8241 5.56457,35.625 0.14598,-2.0625 -0.14563,-7.125 -0.65002,-11.25 -0.50421,-4.125 -0.7828,-18.6798 -0.61707,-32.3437 0.28772,-23.7256 1.87038,-40.7197 5.16541,-55.4993 0.42541,-1.9082 0.55932,-3.6831 0.29846,-3.9441 -0.26114,-0.2612 -0.15426,-1.2306 0.23621,-2.1552 0.39044,-0.9244 0.86922,-2.9984 1.06567,-4.6069 0.69512,-5.6927 5.69893,-24.3335 11.92383,-44.425 7.32828,-23.653 8.07252,-40.6099 1.99768,-45.5164 -2.59838,-2.0984 -2.25877,-3.2281 0.97046,-3.2281 2.89736,0 6.69018,3.2485 9.13696,7.8241 1.82044,3.4045 2.08191,5.3136 2.08191,15.1446 0,9.2464 -0.39549,12.5022 -2.22656,18.2813 -2.02897,6.4036 -4.12135,13.3044 -11.07971,36.5625 -1.31124,4.3828 -3.16562,10.4999 -4.12171,13.5937 -1.95018,6.3107 -6.74386,29.2259 -8.88061,42.4494 -2.04736,12.67 -2.94791,41.3714 -1.93176,61.6131 0.84977,16.9285 3.46936,44.8303 4.35058,46.3367 0.54489,0.9314 0.88841,-6.8312 0.92835,-21.0242 0.10275,-36.5067 1.1138,-45.9952 8.88977,-83.4375 4.10798,-19.7807 4.8641,-28.0711 2.9718,-32.6001 -1.99966,-4.786 -0.51291,-5.1091 3.42956,-0.7452 2.36991,2.6232 3.50304,4.9241 3.97522,8.0731 1.08277,7.2204 -0.18078,19.8608 -3.1842,31.8347 -1.55204,6.1875 -3.05147,12.7576 -3.33069,14.599 -0.27921,1.8414 -1.1685,5.8493 -1.97754,8.9063 -2.0199,7.6322 -3.27801,16.6865 -5.58655,40.2447 -0.25264,2.5781 -0.71809,12.9141 -1.03454,22.9688 -0.31642,10.0545 -0.67232,19.8632 -0.79102,21.7968 -0.1187,1.9336 0.10403,3.5157 0.49439,3.5157 0.75147,0 1.51176,-4.6232 2.15881,-13.125 0.55137,-7.2445 2.2408,-17.1794 3.71155,-21.8335 0.68585,-2.1704 1.78886,-5.7168 2.45178,-7.8791 0.73254,-2.3895 1.0141,-6.3135 0.71777,-10.0048 -0.3785,-4.7153 -0.21699,-5.9698 0.71961,-5.6104 2.04527,0.7849 3.44503,5.5845 3.71155,12.7222 0.26682,7.1458 -0.16934,10.7169 -2.71729,22.2436 -0.84866,3.8391 -1.59118,8.0578 -1.64978,9.375 -0.0585,1.3171 -0.70481,4.8693 -1.43555,7.8955 -1.71753,7.1129 -2.02138,29.5177 -0.54931,40.4352 0.62571,4.6406 1.20216,18.7735 1.28174,31.4063 0.0797,12.6326 0.29509,23.2298 0.47973,23.5473 0.1846,0.3175 0.54904,6.5075 0.80933,13.7567 0.67766,18.873 -0.78529,38.0099 -3.77747,49.4147 -4.41785,16.8388 -4.53854,17.7764 -2.9425,22.6245 0.97686,2.9672 1.17541,5.1051 0.61157,6.5882 -0.45907,1.2075 -0.95145,2.1055 -1.09314,1.9976 -0.14174,-0.1077 -4.47699,-0.3178 -9.63318,-0.4669 -5.15623,-0.1489 -10.32419,-0.4893 -11.48437,-0.758 -3.3452,-0.7745 -2.75391,-5.6794 1.71386,-14.231 4.7053,-9.0063 8.17631,-18.3343 8.86048,-23.8074 0.28418,-2.2733 1.13338,-6.5142 1.88598,-9.4244 2.60412,-10.0701 1.80024,-21.8676 -2.80883,-41.2573 -0.8482,-3.5682 -5.52217,-10.5532 -17.7594,-26.5357 -7.55728,-9.8701 -9.00147,-12.9796 -9.00147,-19.3817 0,-6.6714 0.58711,-8.2296 3.52295,-9.3457 3.33404,-1.2676 4.90812,0.3501 4.25537,4.3726 -0.40464,2.4934 0.0382,4.0754 1.95557,6.9726 1.36403,2.0612 2.80899,3.7482 3.20984,3.7482 0.40093,0 2.3389,1.5168 4.30664,3.3728 4.3744,4.1261 8.05947,12.0314 11.31408,24.2633 2.70124,10.1523 4.69646,14.7363 3.68042,8.4576 -0.33376,-2.0625 -1.17672,-5.1501 -1.87316,-6.8609 -0.6964,-1.7108 -1.19905,-3.3984 -1.11695,-3.75 0.14775,-0.6331 -1.24645,-6.0174 -3.19885,-12.3578 -1.60161,-5.2013 -9.0468,-20.2688 -14.01672,-28.3667 -2.50335,-4.0789 -8.79305,-12.1216 -13.97827,-17.8729 -13.09721,-14.5269 -17.75846,-23.4558 -17.7063,-33.9167 0.0213,-4.5266 2.3346,-8.3 3.73169,-6.09 0.48742,0.7709 0.89113,2.1814 0.89904,3.1347 0.0383,4.6291 3.78867,9.4982 16.19019,21.0169 3.47836,3.2308 6.32446,6.2894 6.32446,6.7968 0,0.5076 0.31641,0.9261 0.70313,0.9302 0.38672,0 1.15844,0.9533 1.71386,2.1094 1.81537,3.7788 9.02432,17.0791 9.77784,18.0395 0.80642,1.0278 6.47229,16.6801 7.12646,19.6875 2.17438,9.9959 4.86668,19.1841 4.94385,16.875 0.10842,-3.2389 -3.88074,-19.4977 -6.04614,-24.646 -0.80493,-1.9135 -2.31813,-6.0103 -3.36365,-9.104 -3.38496,-10.016 -18.25179,-37.1293 -25.95886,-47.3437 -9.37167,-12.4205 -26.50171,-29.46 -40.74097,-40.5231 -14.9123,-11.586 -18.09981,-14.7555 -20.90881,-20.7879 -2.53219,-5.4383 -2.94471,-12.388 -0.89905,-15.152 1.26046,-1.703 1.3884,-1.5612 1.99951,2.1972 1.03649,6.3744 4.80216,10.5282 15.53833,17.1405 12.81293,7.8916 16.63633,10.8242 26.00464,19.9439 17.54907,17.0831 31.17691,37.993 41.95312,64.3689 1.79061,4.3828 3.81625,9.2343 4.50074,10.7812 0.68446,1.5468 1.96151,5.0274 2.83813,7.7344 0.87668,2.7071 1.91621,4.9219 2.31079,4.9219 1.91059,0 -8.99161,-27.4952 -16.95923,-42.7698 -2.65707,-5.0939 -4.70101,-9.2615 -4.54284,-9.2615 0.51052,0 -3.87248,-8.2559 -7.96326,-15 -7.6093,-12.5448 -11.7817,-18.6503 -15.9375,-23.3184 -0.51796,-0.5818 -2.81797,-3.3768 -5.11047,-6.2128 -9.8615,-12.1991 -25.52944,-27.4021 -37.54212,-36.427 -3.86715,-2.9054 -7.24223,-5.5185 -7.5,-5.8063 -1.90531,-2.1268 -8.46352,-5.879 -16.40625,-9.386 -9.52488,-4.2055 -20.823,-10.0811 -23.1134,-12.0208 -0.69378,-0.5876 -2.42976,-1.9446 -3.85803,-3.0158 -4.5511,-3.4131 -7.28012,-11.3455 -4.98413,-14.4855 1.15028,-1.5731 1.34403,-1.5031 2.95166,1.0566 3.67776,5.8556 5.10554,6.7052 18.87268,11.2463 5.57272,1.8381 12.87341,4.8581 16.22497,6.7108 7.0145,3.8773 16.55319,10.1782 17.02332,11.2445 0.1761,0.3997 2.21884,2.2834 4.53918,4.1876 6.24309,5.1231 21.7686,20.2921 25.72449,25.1331 1.89602,2.3203 4.93231,5.9615 6.74744,8.0933 5.34765,6.2802 18.10615,24.9612 25.84716,37.8442 7.36529,12.2578 20.34651,40.0821 21.81153,46.7523 0.81928,3.7302 2.58658,4.9538 1.9519,1.3513 -1.26429,-7.1761 -4.57173,-14.9333 -16.91711,-39.6753 -11.20841,-22.4632 -15.62599,-29.4187 -34.23157,-53.8971 -16.80222,-22.1055 -30.78405,-35.4852 -54.53613,-52.1868 -26.19517,-18.4198 -55.35287,-25.7384 -75.50904,-18.9515 -4.45129,1.4988 -10.30243,2.6409 -15.01281,2.9297 -6.19927,0.3799 -8.87992,1.056 -13.61206,3.4369 -10.5218,5.2939 -15.67141,2.8636 -8.46314,-3.9935 3.9088,-3.7183 17.97551,-11.3192 21.8335,-11.7975 1.28459,-0.1594 5.07678,-1.0582 8.42834,-1.9995 13.52659,-3.7986 42.57361,-1.0036 58.87024,5.6653 14.26909,5.8391 29.04881,15.1497 44.25476,27.8796 25.9329,21.7099 49.65359,52.1915 66.23474,85.1111 5.75242,11.4208 8.24387,13.6712 3.66028,3.3069 -1.2607,-2.8507 -2.07643,-5.1819 -1.81274,-5.1819 0.67206,0 -11.63491,-23.2956 -14.1156,-26.7188 -1.12099,-1.5469 -3.25076,-4.9219 -4.73328,-7.5 -4.04876,-7.0411 -17.57027,-25.0096 -27.05933,-35.9582 -12.94101,-14.9315 -25.95751,-25.5576 -46.67175,-38.1043 -1.70255,-1.0313 -4.29307,-2.6188 -5.75683,-3.5266 -7.67622,-4.7607 -28.94419,-12.2505 -43.80799,-15.4284 -10.19357,-2.1794 -13.85396,-2.5036 -28.125,-2.4903 -16.87085,0.018 -18.10417,0.1776 -41.71875,5.4859 -17.04649,3.8319 -23.78343,2.9317 -29.47265,-3.9386 -2.66372,-3.2167 -2.90682,-4.0525 -2.66602,-9.1553 0.20374,-4.3163 0.61855,-5.6828 1.79627,-5.907 1.00114,-0.1906 1.88266,0.7101 2.5415,2.6001 0.70214,2.0141 2.08278,3.3417 4.55017,4.3726 4.25576,1.7781 10.06911,1.3417 25.70068,-1.93 14.48633,-3.032 26.0999,-3.7016 42.16187,-2.4334 20.49696,1.6186 43.35625,6.1932 53.573,10.7208 24.83675,11.0066 33.57407,16.346 54.49035,33.2977 3.53392,2.8641 7.43622,5.7563 8.67188,6.4289 1.23562,0.6727 2.2467,1.7552 2.2467,2.4041 0,0.6488 1.31767,2.4187 2.92786,3.9331 2.42118,2.2773 7.75058,8.613 21.04797,25.0287 0.7357,0.9082 1.33667,2.0684 1.33667,2.5781 0,0.5097 0.32253,0.9284 0.71594,0.9284 0.39338,0 1.13164,0.7948 1.64063,1.767 0.50896,0.9721 3.74028,6.4065 7.1814,12.0776 3.44113,5.6713 8.08177,14.1435 10.3125,18.8269 2.2307,4.6834 4.33225,8.5303 4.66919,8.5474 0.92606,0.047 -3.12719,-10.9429 -6.38489,-17.3127 -4.55294,-8.9026 -18.1224,-32.3412 -21.70716,-37.4945 -6.30448,-9.0633 -11.97381,-15.9495 -20.33386,-24.6972 -26.06788,-27.2766 -50.08256,-43.2876 -83.20312,-55.4737 -3.99611,-1.4703 -7.26563,-2.5221 -7.26563,-2.3364 0,0.1857 -1.37107,-0.082 -3.04687,-0.5969 -5.68641,-1.7477 -18.01085,-4.6697 -27.89063,-6.612 -8.02394,-1.5774 -14.19859,-1.9852 -33.40576,-2.2045 -25.31354,-0.2892 -25.73025,-0.3609 -32.90039,-5.7276 -6.35377,-4.7556 -10.05975,-15.3748 -7.77832,-22.2876 1.58651,-4.8072 3.77197,-4.4059 3.77197,0.6922 0,5.0327 3.02824,8.2636 10.40039,11.0998 4.30987,1.6579 8.22897,2.0614 26.16211,2.699 20.03016,0.7122 22.59755,1.0246 42.1875,5.116 9.56556,1.9978 24.376,6.9591 38.90625,13.0334 5.67188,2.371 10.70751,4.3131 11.18958,4.3158 3.76673,0.021 28.25948,15.555 42.71667,27.0923 16.9907,13.5591 36.71713,35.6307 46.92627,52.5073 8.42224,13.9226 11.11405,18.3311 12.08496,19.7809 1.94329,2.902 -4.11135,-13.0002 -8.18298,-21.4911 -4.75243,-9.9105 -12.14694,-22.3276 -14.98535,-25.166 -1.03153,-1.0315 -3.63949,-4.4765 -5.79712,-7.6538 -7.05148,-10.3837 -24.11919,-26.9966 -42.70203,-41.5668 -4.4481,-3.4876 -28.84059,-17.6293 -37.03125,-21.4691 -12.42922,-5.8266 -14.30819,-6.6264 -24.34753,-10.3619 -10.1967,-3.7943 -17.18384,-5.9053 -22.05872,-6.6669 -1.54686,-0.2417 -7.24218,-1.28 -12.65625,-2.3071 -14.46253,-2.7437 -26.90433,-4.7627 -33.28125,-5.3998 -14.63662,-1.4623 -26.89632,-7.6976 -30.08056,-15.2985 -1.85181,-4.4204 -1.79681,-14.1815 0.0806,-14.1815 0.77343,0 1.40625,0.7037 1.40625,1.5655 0,0.8619 1.81109,3.2878 4.02466,5.3907 5.78516,5.4963 20.73775,10.6559 35.81909,12.3596 9.47716,1.0705 44.10408,10.3574 59.00208,15.824 3.57624,1.3122 7.37316,2.5858 8.4375,2.8308 1.06438,0.2452 3.03849,0.6991 4.38537,1.0089 l 2.44812,0.5639 -3.29589,-6.6394 c -3.9414,-7.9401 -6.40753,-9.5783 -25.63294,-17.0288 -18.53904,-7.1844 -43.16726,-14.7186 -50.50049,-15.4486 -6.09702,-0.607 -17.45497,-3.9354 -22.92114,-6.7163 -3.99774,-2.0337 -11.75859,-7.7722 -11.55212,-8.5419 0.0943,-0.3515 -0.54695,-1.9883 -1.4264,-3.6383 -2.70242,-5.0709 -1.79531,-13.4051 1.45936,-13.4051 0.44487,0 0.73447,0.7365 0.6427,1.6388 -0.30118,2.9602 0.0176,3.8047 2.60742,6.8811 2.75221,3.2709 10.43496,7.1063 19.47143,9.7192 3.09377,0.8946 7.94535,2.4067 10.78125,3.36 5.91796,1.9893 33.32147,10.1857 36.02051,10.7739 5.75743,1.2545 15.23319,5.0292 22.80762,9.0839 9.71719,5.2017 9.67106,5.2291 7.07336,-4.1144 l -1.60034,-5.755 -11.29028,-5.3686 c -15.23861,-7.2457 -24.01345,-11.0241 -26.792,-11.5375 -1.27168,-0.2349 -8.21887,-2.6284 -15.43762,-5.3192 -7.21872,-2.6909 -16.90439,-6.1211 -21.52405,-7.6227 -14.56115,-4.7329 -22.26267,-10.5298 -23.92272,-18.0066 -1.13234,-5.0998 -0.48494,-10.307 1.48315,-11.9403 1.07607,-0.8931 1.30737,-0.5142 1.30737,2.135 0,3.6174 2.35644,6.2945 9.375,10.6512 8.02709,4.9829 21.62406,11.0671 27.0813,12.118 4.84019,0.9321 41.89249,16.1001 51.97998,21.2787 3.00713,1.5438 5.6546,2.6199 5.88318,2.3913 0.22854,-0.2286 0.12922,-2.9004 -0.22156,-5.9381 -0.58599,-5.078 -1.01083,-5.8729 -5.2716,-9.8529 -6.41586,-5.993 -34.65883,-22.3883 -38.56568,-22.3883 -0.83066,0 -1.51062,-0.3293 -1.51062,-0.7306 0,-0.4013 -2.63675,-1.4826 -5.85937,-2.4023 -15.08405,-4.3049 -37.04976,-14.8042 -42.37061,-20.2533 -4.57984,-4.6902 -5.53862,-10.3945 -2.4115,-14.3573 2.13821,-2.7097 4.20871,-2.627 3.33252,0.1336 -1.12872,3.5563 5.86146,8.1201 26.72241,17.4463 21.18121,9.4695 34.52056,16.6464 51.82068,27.8797 7.12375,4.6256 13.11177,8.2492 13.30811,8.0529 1.05002,-1.0501 0.65195,-8.3139 -0.53467,-9.7485 -1.54821,-1.8718 -18.37745,-15.1504 -25.578,-20.1819 -5.31287,-3.7125 -37.95976,-21.0332 -44.67957,-23.7048 -19.63832,-7.8074 -27.20704,-14.3054 -25.66223,-22.0294 0.657,-3.2851 3.73167,-6.4902 4.98047,-5.1929 0.45978,0.4777 0.97734,1.9061 1.1499,3.1732 0.39646,2.9111 5.56233,6.5404 14.84436,10.4279 8.5886,3.5971 27.72838,12.8411 30.9375,14.9432 1.28905,0.8444 7.40627,4.8503 13.59375,8.9008 11.4201,7.476 14.51918,9.7815 26.1969,19.4842 7.34799,6.1052 7.3817,6.0931 8.52722,-2.8491 0.49337,-3.8516 0.23705,-4.9112 -1.87317,-7.7435 -10.97578,-14.7314 -37.80179,-34.165 -56.7572,-41.1182 -2.83594,-1.0403 -9.16409,-3.362 -14.0625,-5.1599 -17.95255,-6.5889 -26.32669,-11.2551 -28.16528,-15.694 -1.55544,-3.7551 -0.82006,-7.8139 1.47583,-8.1427 z m 1349.79309,0 c 2.29587,0.3288 3.0331,4.3876 1.47766,8.1427 -1.83859,4.4389 -10.21455,9.1051 -28.16712,15.694 -4.8984,1.7979 -11.22654,4.1196 -14.0625,5.1599 -18.95543,6.9532 -45.77956,26.3868 -56.75537,41.1182 -2.11021,2.8323 -2.36654,3.8919 -1.87317,7.7435 1.14552,8.9422 1.17739,8.9543 8.52539,2.8491 11.67774,-9.7027 14.7768,-12.0082 26.1969,-19.4842 6.1875,-4.0505 12.30469,-8.0564 13.59375,-8.9008 3.20913,-2.1021 22.34888,-11.3461 30.9375,-14.9432 9.28203,-3.8875 14.44973,-7.5168 14.84619,-10.4279 0.17256,-1.2671 0.69013,-2.6955 1.14991,-3.1732 1.24881,-1.2973 4.32163,1.9078 4.97863,5.1929 1.54482,7.724 -6.02389,14.222 -25.66223,22.0294 -6.7198,2.6716 -39.3667,19.9923 -44.67956,23.7048 -7.20057,5.0315 -24.02796,18.3101 -25.57617,20.1819 -1.18661,1.4346 -1.58652,8.6984 -0.5365,9.7485 0.19634,0.1963 6.18619,-3.4273 13.30993,-8.0529 17.30015,-11.2333 30.63944,-18.4102 51.82068,-27.8797 20.86098,-9.3262 27.85113,-13.89 26.72241,-17.4463 -0.87619,-2.7606 1.19248,-2.8433 3.33069,-0.1336 3.12715,3.9628 2.1702,9.6671 -2.40967,14.3573 -5.32083,5.4491 -27.28838,15.9484 -42.37243,20.2533 -3.22264,0.9197 -5.85938,2.001 -5.85938,2.4023 0,0.4013 -0.67813,0.7306 -1.50879,0.7306 -3.90684,0 -32.14981,16.3953 -38.56567,22.3883 -4.26079,3.98 -4.68562,4.7749 -5.27161,9.8529 -0.35079,3.0377 -0.45192,5.7095 -0.22339,5.9381 0.22858,0.2286 2.87606,-0.8475 5.88318,-2.3913 10.08751,-5.1786 47.1398,-20.3466 51.97998,-21.2787 5.45726,-1.0509 19.0542,-7.1351 27.0813,-12.118 7.01859,-4.3568 9.375,-7.0338 9.375,-10.6512 0,-2.6492 0.23314,-3.0281 1.30921,-2.135 1.96809,1.6333 2.61365,6.8405 1.48132,11.9403 -1.66008,7.4768 -9.35972,13.2737 -23.9209,18.0066 -4.61964,1.5016 -14.30714,4.9318 -21.52588,7.6227 -7.21874,2.6908 -14.1641,5.0843 -15.43579,5.3192 -2.77856,0.5134 -11.55338,4.2918 -26.79199,11.5375 l -11.29028,5.3686 -1.60035,5.755 c -2.5977,9.3435 -2.64565,9.3161 7.07154,4.1144 7.57445,-4.0547 17.05017,-7.8294 22.80761,-9.0839 2.69905,-0.5882 30.10256,-8.7846 36.02051,-10.7739 2.83593,-0.9533 7.68749,-2.4654 10.78125,-3.36 9.03649,-2.6129 16.72104,-6.4483 19.47327,-9.7192 2.58982,-3.0764 2.9086,-3.9209 2.60742,-6.8811 -0.0918,-0.9023 0.1978,-1.6388 0.6427,-1.6388 3.25467,0 4.1618,8.3342 1.45935,13.4051 -0.87945,1.65 -1.52252,3.2868 -1.42822,3.6383 0.20647,0.7697 -7.55256,6.5082 -11.55029,8.5419 -5.46619,2.7809 -16.82594,6.1093 -22.92298,6.7163 -7.33322,0.73 -31.95959,8.2642 -50.49865,15.4486 -19.22545,7.4505 -21.69337,9.0886 -25.63477,17.0288 l -3.29407,6.6394 2.44812,-0.5639 c 1.34688,-0.3098 3.31918,-0.7637 4.38355,-1.0089 1.06434,-0.245 4.86124,-1.5186 8.4375,-2.8308 14.89799,-5.4666 49.5249,-14.7535 59.00207,-15.824 15.08137,-1.7037 30.03394,-6.8633 35.81909,-12.3596 2.21357,-2.1029 4.02466,-4.5288 4.02466,-5.3907 0,-0.8618 0.63281,-1.5655 1.40625,-1.5655 1.87736,0 1.9342,9.7611 0.0824,14.1815 -3.18427,7.6009 -15.44575,13.8362 -30.0824,15.2985 -6.37691,0.6371 -18.81869,2.6561 -33.28125,5.3998 -5.41406,1.0271 -11.10938,2.0654 -12.65625,2.3071 -4.87487,0.7616 -11.862,2.8726 -22.05871,6.6669 -10.03934,3.7356 -11.9183,4.5353 -24.34754,10.3619 -8.19066,3.8398 -32.58313,17.9815 -37.03125,21.4691 -18.58286,14.5702 -35.6487,31.1831 -42.70019,41.5668 -2.15762,3.1773 -4.76742,6.6223 -5.79895,7.6538 -2.83844,2.8384 -10.23111,15.2555 -14.98352,25.166 -4.07165,8.4909 -10.12811,24.3931 -8.18482,21.4911 0.9709,-1.4498 3.66453,-5.8583 12.08679,-19.7809 10.20914,-16.8766 29.93373,-38.9482 46.92444,-52.5073 14.45721,-11.5373 38.95176,-27.0713 42.71851,-27.0923 0.48207,0 5.51587,-1.9448 11.18774,-4.3158 14.53028,-6.0743 29.34067,-11.0356 38.90625,-13.0334 19.58997,-4.0914 22.15731,-4.4038 42.1875,-5.116 17.93315,-0.6376 21.85408,-1.0411 26.16394,-2.699 7.37217,-2.8362 10.39856,-6.0671 10.39856,-11.0998 0,-5.0981 2.1873,-5.4994 3.77381,-0.6922 2.28142,6.9128 -1.42454,17.532 -7.77832,22.2876 -7.17016,5.3667 -7.58682,5.4384 -32.90039,5.7276 -19.20719,0.2193 -25.38365,0.6271 -33.4076,2.2045 -9.8798,1.9423 -22.20423,4.8643 -27.89062,6.612 -1.67581,0.5145 -3.04688,0.7826 -3.04688,0.5969 0,-0.1857 -3.26952,0.8661 -7.26562,2.3364 -33.1206,12.1861 -57.13522,28.1971 -83.20313,55.4737 -8.36007,8.7477 -14.02937,15.6339 -20.33386,24.6972 -3.58476,5.1533 -17.15422,28.5919 -21.70715,37.4945 -3.25771,6.3698 -7.30914,17.3597 -6.38306,17.3127 0.33693,-0.017 2.43664,-3.864 4.66736,-8.5474 2.23073,-4.6834 6.87134,-13.1556 10.3125,-18.8269 3.44111,-5.6711 6.67427,-11.1055 7.18323,-12.0776 0.509,-0.9722 1.24724,-1.767 1.64062,-1.767 0.39341,0 0.71411,-0.4187 0.71411,-0.9284 0,-0.5097 0.60281,-1.6699 1.3385,-2.5781 13.29742,-16.4157 18.62681,-22.7514 21.04798,-25.0287 1.61019,-1.5144 2.92602,-3.2843 2.92602,-3.9331 0,-0.6489 1.01109,-1.7314 2.24671,-2.4041 1.23566,-0.6726 5.13797,-3.5648 8.67187,-6.4289 20.9163,-16.9517 29.6554,-22.2911 54.49219,-33.2977 10.21676,-4.5276 33.07602,-9.1022 53.573,-10.7208 16.06197,-1.2682 27.67553,-0.5986 42.16186,2.4334 15.63161,3.2717 21.4431,3.7081 25.69885,1.93 2.46738,-1.0309 3.84987,-2.3585 4.55201,-4.3726 0.65884,-1.89 1.54034,-2.7907 2.5415,-2.6001 1.17773,0.2242 1.59253,1.5907 1.79627,5.907 0.2408,5.1028 -0.002,5.9386 -2.66602,9.1553 -5.68923,6.8703 -12.42796,7.7705 -29.47449,3.9386 -23.61458,-5.3083 -24.84787,-5.4679 -41.71875,-5.4859 -14.27104,-0.013 -17.93141,0.3109 -28.125,2.4903 -14.8638,3.1779 -36.12994,10.6677 -43.80615,15.4284 -1.46377,0.9078 -4.05428,2.4953 -5.75684,3.5266 -20.71425,12.5467 -33.73072,23.1728 -46.67175,38.1043 -9.48908,10.9486 -23.01057,28.9171 -27.05932,35.9582 -1.48252,2.5781 -3.61228,5.9531 -4.73328,7.5 -2.4807,3.4232 -14.78949,26.7188 -14.11743,26.7188 0.26369,0 -0.55204,2.3312 -1.81275,5.1819 -4.58358,10.3643 -2.09212,8.1139 3.66028,-3.3069 16.58118,-32.9196 40.30184,-63.4012 66.23474,-85.1111 15.20599,-12.7299 29.98567,-22.0405 44.25476,-27.8796 16.29665,-6.6689 45.34365,-9.4639 58.87024,-5.6653 3.35158,0.9413 7.14559,1.8401 8.43018,1.9995 3.85798,0.4783 17.9247,8.0792 21.83349,11.7975 7.20829,6.8571 2.05868,9.2874 -8.46313,3.9935 -4.73215,-2.3809 -7.41281,-3.057 -13.61206,-3.4369 -4.71041,-0.2888 -10.5615,-1.4309 -15.01282,-2.9297 -20.15619,-6.7869 -49.31385,0.5317 -75.50903,18.9515 -23.75211,16.7017 -37.73389,30.0812 -54.53613,52.1868 -18.6056,24.4784 -23.02497,31.4338 -34.2334,53.8971 -12.3454,24.742 -15.65283,32.4992 -16.91712,39.6753 -0.63468,3.6025 1.13446,2.3789 1.95374,-1.3513 1.46502,-6.6702 14.44624,-34.4945 21.81152,-46.7523 7.74102,-12.883 20.49952,-31.5639 25.84717,-37.8442 1.81513,-2.1318 4.85142,-5.773 6.74744,-8.0933 3.95588,-4.841 19.47957,-20.01 25.72265,-25.1331 2.32034,-1.9042 4.36308,-3.7879 4.53919,-4.1876 0.47012,-1.0663 10.00881,-7.3672 17.02331,-11.2445 3.35158,-1.8527 10.65408,-4.8727 16.22681,-6.7108 13.76715,-4.5411 15.19308,-5.3906 18.87085,-11.2463 1.60763,-2.5597 1.80319,-2.6297 2.95349,-1.0566 2.29599,3.14 -0.43305,11.0724 -4.98413,14.4855 -1.42827,1.0712 -3.16425,2.4282 -3.85803,3.0158 -2.29039,1.9397 -13.59034,7.8153 -23.11524,12.0208 -7.94274,3.507 -14.50094,7.2592 -16.40625,9.386 -0.25777,0.2878 -3.63283,2.9009 -7.5,5.8063 -12.01267,9.0249 -27.6806,24.2279 -37.54211,36.427 -2.29252,2.836 -4.59068,5.631 -5.10864,6.2128 -4.15581,4.6681 -8.32819,10.7735 -15.9375,23.3184 -4.09078,6.7441 -8.47378,15 -7.96326,15 0.15818,0 -1.88575,4.1676 -4.54285,9.2615 -7.96761,15.2746 -18.87163,42.7698 -16.96106,42.7698 0.39458,0 1.43594,-2.2148 2.31263,-4.9219 0.8766,-2.707 2.15367,-6.1876 2.83813,-7.7344 0.6845,-1.5469 2.70829,-6.3984 4.4989,-10.7812 10.77621,-26.3759 24.40586,-47.2858 41.95496,-64.3689 9.36831,-9.1197 13.19169,-12.0523 26.00464,-19.9439 10.73617,-6.6124 14.50184,-10.7661 15.53833,-17.1405 0.61112,-3.7584 0.73905,-3.9002 1.99951,-2.1972 2.04566,2.764 1.63314,9.7137 -0.89905,15.152 -2.80903,6.0325 -5.9965,9.2019 -20.90881,20.7879 -14.23927,11.0631 -31.37112,28.1026 -40.7428,40.5231 -7.70707,10.2144 -22.57208,37.3276 -25.95703,47.3437 -1.04552,3.0937 -2.55872,7.1905 -3.36365,9.104 -2.16542,5.1483 -6.15456,21.4071 -6.04614,24.646 0.0772,2.3091 2.76946,-6.8791 4.94385,-16.875 0.65415,-3.0074 6.32003,-18.6597 7.12646,-19.6875 0.75352,-0.9604 7.96245,-14.2607 9.77783,-18.0395 0.55541,-1.1561 1.32533,-2.1094 1.71204,-2.1094 0.38672,0 0.70312,-0.4226 0.70312,-0.9302 0,-0.5074 2.84612,-3.566 6.32447,-6.7968 12.40152,-11.5187 16.15188,-16.3878 16.19018,-21.0169 0.008,-0.9533 0.41346,-2.3638 0.90088,-3.1347 1.39709,-2.21 3.71039,1.5634 3.73169,6.09 0.0522,10.4609 -4.60908,19.3898 -17.7063,33.9167 -5.18523,5.7513 -11.47676,13.794 -13.9801,17.8729 -4.96995,8.0979 -12.41512,23.1654 -14.01672,28.3667 -1.95239,6.3404 -3.34479,11.7247 -3.19703,12.3578 0.0821,0.3516 -0.42054,2.0392 -1.11694,3.75 -0.69644,1.7108 -1.53939,4.7984 -1.87317,6.8609 -1.01605,6.2787 0.97735,1.6947 3.67859,-8.4576 3.25463,-12.2319 6.9415,-20.1372 11.31592,-24.2633 1.96775,-1.856 3.90572,-3.3728 4.30664,-3.3728 0.40086,0 1.84398,-1.687 3.20801,-3.7482 1.91737,-2.8972 2.36204,-4.4792 1.95739,-6.9726 -0.65275,-4.0225 0.91951,-5.6402 4.25354,-4.3726 2.93584,1.1161 3.52295,2.6743 3.52295,9.3457 0,6.4021 -1.4442,9.5116 -9.00146,19.3817 -12.23726,15.9825 -16.91121,22.9675 -17.7594,26.5357 -4.6091,19.3898 -5.41112,31.1872 -2.80701,41.2573 0.7526,2.9102 1.59998,7.1511 1.88416,9.4244 0.68418,5.4731 4.15701,14.8011 8.8623,23.8074 4.46779,8.5516 5.05724,13.4565 1.71204,14.231 -1.16018,0.2687 -6.32813,0.6091 -11.48438,0.758 -5.15617,0.1491 -9.48961,0.3592 -9.63134,0.4669 -0.1417,0.1079 -0.63407,-0.7901 -1.09314,-1.9976 -0.56385,-1.4831 -0.36529,-3.621 0.61157,-6.5882 1.59605,-4.8481 1.47353,-5.7857 -2.94434,-22.6245 -2.99217,-11.4048 -4.45512,-30.5417 -3.77746,-49.4147 0.26029,-7.2492 0.62471,-13.4392 0.80932,-13.7567 0.18464,-0.3175 0.40187,-10.9146 0.48157,-23.5473 0.0796,-12.6328 0.65602,-26.7657 1.28174,-31.4063 1.47206,-10.9175 1.1664,-33.3223 -0.55115,-40.4352 -0.73073,-3.0262 -1.37521,-6.5784 -1.43371,-7.8955 -0.0586,-1.3172 -0.80114,-5.5359 -1.64979,-9.375 -2.54795,-11.5267 -2.98409,-15.0978 -2.71728,-22.2436 0.26653,-7.1377 1.66628,-11.9373 3.71155,-12.7222 0.9366,-0.3594 1.0981,0.8951 0.7196,5.6104 -0.29632,3.6914 -0.0148,7.6153 0.71778,10.0048 0.6629,2.1623 1.76594,5.7087 2.45178,7.8791 1.47075,4.6541 3.16017,14.589 3.71155,21.8335 0.64703,8.5018 1.40735,13.125 2.15881,13.125 0.39037,0 0.61125,-1.5821 0.49255,-3.5157 -0.1187,-1.9336 -0.47459,-11.7422 -0.79101,-21.7968 -0.31645,-10.0547 -0.78191,-20.3907 -1.03455,-22.9688 -2.30854,-23.5582 -3.56482,-32.6125 -5.58472,-40.2447 -0.80903,-3.057 -1.70016,-7.0649 -1.97937,-8.9063 -0.27921,-1.8414 -1.77681,-8.4115 -3.32885,-14.599 -3.00341,-11.9739 -4.2688,-24.6143 -3.18604,-31.8347 0.47218,-3.149 1.60531,-5.4499 3.97522,-8.0731 3.9425,-4.3639 5.43107,-4.0408 3.4314,0.7452 -1.8923,4.529 -1.1362,12.8194 2.9718,32.6001 7.77596,37.4423 8.78701,46.9308 8.88977,83.4375 0.0399,14.193 0.38162,21.9556 0.92651,21.0242 0.88122,-1.5064 3.5008,-29.4082 4.35059,-46.3367 1.01615,-20.2417 0.11743,-48.943 -1.92993,-61.6131 -2.13675,-13.2235 -6.93042,-36.1387 -8.88062,-42.4494 -0.95609,-3.0938 -2.81229,-9.2109 -4.12353,-13.5937 -6.95838,-23.2581 -9.04891,-30.1589 -11.07788,-36.5625 -1.83107,-5.7791 -2.2284,-9.0349 -2.2284,-18.2813 0,-9.831 0.2633,-11.7401 2.08374,-15.1446 2.44679,-4.5756 6.23961,-7.8241 9.13697,-7.8241 3.22922,0 3.56883,1.1297 0.97046,3.2281 -6.07486,4.9065 -5.33062,21.8634 1.99768,45.5164 6.22491,20.0916 11.22686,38.7323 11.92199,44.425 0.19644,1.6085 0.67708,3.6824 1.06751,4.6069 0.39048,0.9246 0.49734,1.894 0.2362,2.1552 -0.26086,0.261 -0.12693,2.0359 0.29847,3.9441 3.29502,14.7796 4.87585,31.7737 5.16357,55.4993 0.16575,13.664 -0.11102,28.2187 -0.61523,32.3437 -0.50439,4.125 -0.79784,9.1875 -0.65186,11.25 0.36794,5.1991 2.99168,-11.5982 5.56458,-35.625 2.73383,-25.5291 2.97841,-64.9674 0.5072,-81.9726 -0.9321,-6.4138 -1.87658,-11.9552 -2.09839,-12.3139 -0.22177,-0.3589 -0.81391,-3.3389 -1.31653,-6.6211 -4.46413,-29.1515 -11.85837,-61.4252 -18.87085,-82.3736 -2.67538,-7.9922 -4.9828,-15.375 -5.12878,-16.4063 -0.14623,-1.0312 -0.33688,-1.875 -0.42298,-1.875 -0.086,0 -0.27556,-0.8437 -0.42297,-1.875 -0.14725,-1.0312 -1.18257,-5.039 -2.2998,-8.9062 -1.11724,-3.8672 -2.64386,-9.9844 -3.39295,-13.5938 -0.74909,-3.6094 -2.23838,-10.5703 -3.31055,-15.4687 -2.60772,-11.9138 -3.24375,-28.2047 -1.49963,-38.4375 3.87755,-22.7497 9.33598,-31.8732 19.07776,-31.8732 3.37887,0 7.53244,3.1722 7.97241,6.0919 0.23864,1.5834 -0.27471,1.8907 -3.29956,1.9757 -6.15443,0.1732 -11.81932,5.8348 -12.30102,12.2937 -0.15601,2.0918 -0.48434,4.1665 -0.7306,4.6106 -1.29645,2.3387 -1.5573,25.8548 -0.42663,38.5236 0.9237,10.3502 3.58631,21.2651 12.86682,52.7527 2.33848,7.9341 3.81801,13.6122 4.27368,16.4062 0.0841,0.5157 0.24969,1.1483 0.36804,1.4063 0.11831,0.2578 0.35744,1.7072 0.53284,3.219 0.17532,1.5118 1.15842,6.1524 2.18445,10.3125 7.1568,29.0188 10.8227,50.0153 14.2511,81.6247 1.2859,11.8562 1.62059,44.5454 0.65185,63.75 -0.40053,7.9404 -0.33828,11.829 0.15747,9.8438 1.30592,-5.2296 1.86406,-17.9225 2.28699,-52.0313 0.60194,-48.5442 -0.45079,-65.4962 -6.13403,-98.9062 -2.59647,-15.2638 -3.54821,-19.8313 -8.30567,-39.8438 -1.87663,-7.8942 -3.12465,-13.4329 -3.38012,-15 -0.084,-0.5156 -0.23823,-1.1483 -0.34241,-1.4062 -0.10421,-0.2578 -0.32448,-1.7344 -0.48889,-3.2813 -0.16434,-1.5468 -0.9577,-5.9975 -1.76331,-9.8913 -7.51028,-36.3012 -0.3688,-70.4047 16.55823,-79.0705 8.70398,-4.4561 19.4165,-3.459 19.4165,1.8073 0,1.948 -0.44547,2.3108 -2.84179,2.3108 -7.1701,0 -12.68046,4.8911 -18.15308,16.1132 -4.01978,8.243 -6.05285,19.8587 -6.12305,34.9805 -0.0574,12.362 3.98821,43.3945 7.94495,60.9375 0.81411,3.6094 1.6555,8.6719 1.86951,11.25 0.45128,5.4399 0.91221,9.2927 2.80334,23.4375 3.89031,29.098 5.18081,49.2432 5.13611,80.1563 -0.0197,13.664 -0.44331,28.6405 -0.94299,33.2812 -1.14063,10.5912 -1.14096,10.4171 -0.022,9.2981 1.07716,-1.0772 3.20286,-16.9295 4.76624,-35.5481 1.36112,-16.2104 1.74993,-54.8238 0.79834,-79.2187 -0.72081,-18.4802 -1.28302,-26.3845 -3.20618,-45 -0.23971,-2.3203 -0.67022,-6.961 -0.95581,-10.3125 -0.28545,-3.3516 -0.94915,-10.7344 -1.47583,-16.4063 -1.6835,-18.1293 -2.12195,-40.2923 -0.92102,-46.6406 1.85177,-9.789 4.75317,-17.4112 9.67163,-25.4169 5.95892,-9.6993 8.13031,-11.9869 14.64478,-15.4211 6.34173,-3.3431 10.42779,-4.3143 14.74365,-3.5047 7.42004,1.3921 7.36014,8.933 -0.0714,8.974 -3.91209,0.021 -9.80667,2.3768 -13.27515,5.3064 -4.74979,4.0118 -12.28756,18.1181 -13.02978,24.3824 -0.29388,2.4803 -0.93845,6.3241 -1.43189,8.5437 -1.2198,5.4908 -1.2129,25.1307 0.0147,40.4956 1.75663,21.9863 2.40598,46.1972 2.26318,84.375 -0.171,45.6809 -0.73252,60.6229 -2.72094,72.4639 -0.85174,5.0724 -1.31925,9.4511 -1.04004,9.7303 0.54036,0.5404 3.26326,-8.5753 3.27026,-10.9442 0.007,-2.563 0.96336,-11.5726 2.43897,-22.9688 0.80118,-6.1875 1.45901,-13.0166 1.46301,-15.1776 0.004,-2.161 0.45814,-4.2078 1.00891,-4.5483 0.54931,-0.3404 0.78772,-1.1787 0.52551,-1.8622 -0.26238,-0.6835 -0.10795,-9.1835 0.34424,-18.8892 0.45216,-9.7058 1.06916,-25.6633 1.36963,-35.4602 0.55414,-18.0762 2.05077,-45.113 2.82898,-51.0937 0.23485,-1.8047 0.68476,-6.8672 0.99976,-11.25 0.73285,-10.1942 2.64725,-21.8923 5.13793,-31.4063 1.0799,-4.125 2.11449,-8.3437 2.29981,-9.375 0.18542,-1.0312 0.40446,-1.875 0.48706,-1.875 0.0824,0 0.28456,-0.6904 0.44861,-1.5344 0.16416,-0.844 1.67561,-4.4299 3.35998,-7.9688 8.27848,-17.3927 16.40031,-25.4922 30.54383,-30.4632 5.96806,-2.0976 10.12883,-1.6707 11.66382,1.1975 1.36427,2.5491 -0.29579,4.3603 -4.61976,5.0391 -5.47628,0.8597 -9.38603,3.2938 -14.67041,9.1333 -4.64257,5.13 -8.38512,11.6458 -14.02038,24.4061 -5.99666,13.5783 -16.27399,68.1592 -12.83386,68.1592 0.58968,0 1.07116,-0.5535 1.07116,-1.2305 0,-0.6769 1.27732,-2.4522 2.83631,-3.9459 2.91163,-2.7896 4.09295,-5.8591 7.93396,-20.6049 1.2088,-4.6406 3.05046,-11.4961 4.0924,-15.2344 1.04194,-3.7382 1.6951,-6.7968 1.45203,-6.7968 -0.24311,0 0.0837,-0.9493 0.72693,-2.1094 0.64343,-1.1602 1.08414,-2.4128 0.97961,-2.785 -0.34526,-1.2274 7.14373,-17.6294 11.60706,-25.4224 9.12479,-15.9319 15.46292,-22.6308 26.39465,-27.8961 3.22597,-1.5538 8.13862,-3.3028 10.91675,-3.8855 4.35816,-0.9142 5.38497,-0.839 7.49268,0.542 2.955,1.9362 3.12614,4.399 0.47058,6.8023 -1.08535,0.9823 -2.03458,1.6123 -2.10938,1.4008 -0.33711,-0.9534 -7.83061,2.3197 -12.66907,5.5334 -6.33744,4.2095 -15.90501,14.1993 -20.5426,21.449 -8.08401,12.6374 -20.71114,42.3967 -22.35718,52.6904 -0.71032,4.4421 -0.93336,4.4779 7.6117,-1.1956 4.92849,-3.2722 7.54814,-7.4028 10.29236,-16.2177 1.80493,-5.7975 13.18417,-28.7056 15.48523,-31.1755 0.92841,-0.9965 2.32879,-3.039 3.11279,-4.5374 2.41593,-4.6174 22.33955,-24.3485 26.89819,-26.6382 2.32029,-1.1654 4.47381,-2.5146 4.78455,-2.9974 1.2211,-1.8971 13.78986,-5.6293 20.57556,-6.1102 7.9133,-0.5608 12.44374,0.9526 13.58093,4.5355 0.84132,2.6508 -0.82938,3.6111 -6.3153,3.6291 -10.69528,0.035 -22.32604,4.4741 -33.24097,12.6893 -11.82008,8.8965 -19.17715,17.5468 -29.26026,34.4018 -6.20166,10.3668 -11.81975,22.877 -10.58898,23.5803 0.93308,0.5334 17.4405,-5.802 17.78137,-6.8243 0.16232,-0.4868 3.93731,-5.6608 8.38806,-11.499 7.90114,-10.3642 27.45499,-30.7813 33.9624,-35.4602 1.79281,-1.2891 4.74592,-3.6485 6.5625,-5.2442 11.18646,-9.8267 27.79657,-17.0848 49.00452,-21.4123 l 10.07812,-2.0563 v 3.5083 c 0,5.8158 -4.33869,8.7153 -14.53125,9.7119 -8.44553,0.8258 -22.89418,4.6594 -27.41455,7.273 -8.52044,4.9265 -19.0558,12.9417 -25.57251,19.4549 -9.98286,9.9774 -24.50118,26.3603 -26.60339,30.0202 l -1.77979,3.0981 3.65479,-0.6134 c 2.00991,-0.3373 5.97333,-0.8868 8.8092,-1.2213 4.98976,-0.5883 5.47518,-0.9133 15.00366,-10.0855 5.41552,-5.2131 13.12192,-12.0073 17.12586,-15.097 9.24642,-7.1351 23.44058,-17.2143 24.33838,-17.2833 0.37765,-0.029 3.33075,-1.6637 6.5625,-3.6329 7.16108,-4.3634 21.53071,-10.5875 29.7821,-12.8997 3.35158,-0.9391 9.25781,-2.7831 13.125,-4.0979 6.35539,-2.1609 7.1189,-2.6862 7.93946,-5.4749 0.68923,-2.3426 1.3663,-3.0195 2.8125,-2.8125 z m -674.89929,27.0905 c 158.53117,0 283.48754,128.697 283.48754,287.2284 0,158.531 -124.95637,287.2357 -283.48754,287.2357 -158.53116,0 -283.478396,-128.7047 -283.478396,-287.2357 0,-158.5314 124.947236,-287.2284 283.478396,-287.2284 z m 0,26.6272 c -149.20809,0 -269.976199,111.3929 -269.976199,260.6012 0,149.2079 120.768109,260.6085 269.976199,260.6085 149.20809,0 269.98352,-111.4006 269.98352,-260.6085 0,-149.2083 -120.77543,-260.6012 -269.98352,-260.6012 z m -563.58032,25.1916 c -2.14108,0.2394 -3.75152,3.0653 -5.58472,9.5783 -1.20174,4.2695 -1.55925,9.6028 -1.56372,23.3459 -0.007,17.0448 0.12462,18.3141 3.01575,29.4397 5.00674,19.2673 12.30694,32.8436 24.03991,44.707 6.07628,6.144 8.30082,7.7791 11.71875,8.6115 6.18179,1.5056 20.38087,0.9154 24.37866,-1.0126 1.80691,-0.8714 5.90308,-3.8656 9.10035,-6.654 3.19736,-2.7884 9.11361,-7.0332 13.1488,-9.4336 5.82581,-3.4654 7.84469,-5.2688 9.7998,-8.7598 3.85632,-6.8856 5.75373,-14.6395 5.18921,-21.2054 -0.52834,-6.1448 -4.70436,-20.324 -6.56616,-22.295 -0.62876,-0.6655 -2.33207,-2.961 -3.78479,-5.1013 -9.09901,-13.406 -36.78223,-32.2507 -50.79712,-34.5794 -1.03128,-0.1715 -5.46092,-1.3623 -9.84375,-2.6459 -4.38276,-1.2834 -10.50002,-2.598 -13.59375,-2.9224 -3.09372,-0.3245 -6.5607,-0.7832 -7.70508,-1.0199 -0.32973,-0.068 -0.64628,-0.087 -0.95214,-0.053 z m 1126.21581,0.053 c -1.14438,0.2367 -4.61318,0.6954 -7.70691,1.0199 -3.09373,0.3244 -9.21096,1.639 -13.59375,2.9224 -4.38281,1.2836 -8.81247,2.4744 -9.84375,2.6459 -14.01489,2.3288 -41.69625,21.1734 -50.79528,34.5794 -1.45272,2.1403 -3.15604,4.4358 -3.78479,5.1013 -1.86179,1.971 -6.03783,16.1502 -6.56617,22.295 -0.56452,6.5659 1.3329,14.3198 5.18921,21.2054 1.95513,3.491 3.97215,5.2944 9.79798,8.7598 4.03518,2.4004 9.95326,6.6452 13.15063,9.4336 3.19727,2.7884 7.2916,5.7826 9.09851,6.654 3.9978,1.928 18.19687,2.5182 24.37866,1.0126 3.41794,-0.8324 5.64249,-2.4675 11.71875,-8.6115 11.73298,-11.8635 19.03315,-25.4397 24.03992,-44.707 2.89112,-11.1256 3.02275,-12.3949 3.01575,-29.4397 -0.004,-13.7431 -0.36197,-19.0764 -1.56372,-23.3459 -2.09509,-7.4434 -3.89719,-10.0704 -6.53504,-9.5252 z m -1118.76342,18.6054 6.69617,0.379 c 7.59326,0.429 16.52496,1.798 23.91723,3.6658 10.8116,2.7316 27.2567,11.9082 36.32996,20.2716 4.90937,4.5253 11.13262,14.7408 12.6123,20.7055 1.48844,6.0003 0.65272,15.2486 -1.81457,20.0849 -2.25397,4.4181 -8.65962,9.7154 -14.4928,11.9861 -2.50452,0.9749 -4.84931,2.86 -6.49841,5.224 -2.61656,3.751 -7.90203,7.663 -9.59839,7.1044 -0.51102,-0.1683 -1.49118,0.2552 -2.17713,0.9412 -1.50017,1.5002 -10.62645,1.555 -14.70703,0.088 v 0 c -9.87064,-3.5477 -18.24139,-12.5785 -24.62585,-26.5667 -6.85442,-15.0178 -8.19278,-21.2555 -8.13538,-37.8992 0.0283,-8.1805 0.58292,-17.0347 1.27075,-20.2588 z m 1112.26318,0 1.22131,5.7275 c 0.68783,3.2241 1.24428,12.0783 1.27258,20.2588 0.0574,16.6437 -1.28096,22.8814 -8.13537,37.8992 -6.38447,13.9883 -14.75704,23.019 -24.62769,26.5667 v 0 c -4.08057,1.4671 -13.20686,1.4123 -14.70703,-0.088 -0.68594,-0.686 -1.66428,-1.1095 -2.17529,-0.9412 -1.69636,0.5586 -6.98366,-3.3534 -9.60022,-7.1044 -1.64912,-2.364 -3.99207,-4.2491 -6.49658,-5.224 -5.8332,-2.2707 -12.23883,-7.568 -14.4928,-11.9861 -2.46731,-4.8363 -3.30301,-14.0846 -1.81458,-20.0849 1.47969,-5.9647 7.70109,-16.1802 12.61048,-20.7055 9.07327,-8.3634 25.52018,-17.54 36.33178,-20.2716 7.3923,-1.8678 16.32398,-3.2368 23.91724,-3.6658 z m -18.37464,9.1021 c -5.55232,0.2021 -13.16228,2.024 -21.65771,5.4218 -9.58648,3.8342 -20.12993,10.1282 -23.83484,14.2291 -11.35395,12.5674 -11.88714,28.9226 -1.1499,35.2149 2.18717,1.2819 4.86762,2.3309 5.95825,2.3309 3.90551,0 6.71511,2.2218 10.07813,7.9724 2.2872,3.9109 4.59116,6.5021 6.97265,7.8406 3.35363,1.8849 8.11955,2.4605 11.27014,1.3605 3.39668,-1.1859 9.08508,-4.3875 11.09803,-6.2458 4.11689,-3.8005 9.92338,-15.5289 10.979,-22.1777 0.20466,-1.2891 0.85502,-4.6641 1.4447,-7.5 1.21446,-5.8411 0.41526,-28.8659 -1.06567,-30.7031 -0.28545,-0.3541 -0.64492,-1.9489 -0.77637,-3.4497 -0.26938,-3.0788 -3.76408,-4.4959 -9.31641,-4.2939 z m -1069.96581,1.9538 c -7.19275,0.1263 -11.31611,3.2285 -11.65283,7.077 -0.13146,1.5008 -0.48909,3.0938 -0.77454,3.4479 -1.48093,1.8372 -5.49363,20.1269 -4.27918,25.968 0.58967,2.8359 1.24005,6.2109 1.44471,7.5 1.05563,6.6488 6.8621,18.3772 10.979,22.1777 2.01295,1.8583 7.69953,5.0599 11.09619,6.2458 3.15061,1.1 7.91653,0.5244 11.27014,-1.3605 2.3815,-1.3385 4.68728,-3.9297 6.97449,-7.8406 3.36302,-5.7506 6.17081,-7.9724 10.07629,-7.9724 1.09063,0 3.77291,-1.049 5.96009,-2.3309 10.73722,-6.2923 10.2022,-22.6475 -1.15174,-35.2149 -3.7049,-4.1009 -14.24836,-10.3949 -23.83483,-14.2291 -6.37157,-2.5484 -11.79215,-3.5438 -16.10779,-3.468 z m 1072.27111,5.6213 c 1.75359,0.051 2.20642,0.4884 2.20642,1.3385 0,0.7735 0.44825,1.4081 0.99427,1.4081 0.54597,0 0.74885,0.3916 0.45227,0.8716 -0.29675,0.48 -0.16258,1.1059 0.29663,1.3897 0.93462,0.5777 1.16107,22.9878 0.24719,24.4556 -0.3211,0.5157 -0.58499,1.5722 -0.58594,2.3456 -0.001,0.7734 -1.24776,4.7794 -2.77038,8.9044 -2.25135,6.0992 -3.76981,8.5072 -8.12622,12.8906 -5.21409,5.2461 -5.49413,5.3907 -10.46082,5.3907 -4.26402,0 -5.51,-0.4068 -7.57507,-2.472 -2.59597,-2.5958 -2.73803,-3.1305 -2.4939,-9.386 0.13809,-3.5364 1.88238,-7.6587 -0.401,-8.0859 -2.25177,-0.5441 -7.15919,1.9253 -9.51233,2.0929 -3.91224,0.1585 -5.27331,-0.2306 -7.5,-2.146 -2.53718,-2.1823 -2.72095,-2.7989 -2.72095,-9.1406 0,-4.6066 0.37803,-6.9241 1.17188,-7.1887 0.64456,-0.2149 1.17187,-0.8617 1.17187,-1.4356 0,-2.3249 5.22774,-8.3513 9.98108,-11.5063 6.40672,-4.2525 15.61685,-7.3937 25.61829,-8.7397 5.19944,-0.6997 8.25312,-1.0376 10.00671,-0.9869 z m -1076.911,4.7369 c 1.75357,-0.051 4.80727,0.2854 10.00671,0.9852 10.00143,1.346 15.99625,-0.248 22.40295,4.0045 4.75335,3.155 9.98108,9.1814 9.98108,11.5063 0,0.5739 0.52731,1.2207 1.17188,1.4356 0.79384,0.2646 1.17187,2.5821 1.17187,7.1887 0,6.3417 -0.18194,6.9583 -2.71911,9.1406 -2.22668,1.9154 -3.58778,2.3045 -7.5,2.146 -2.35314,-0.1676 -7.26241,-2.637 -9.51416,-2.0929 -2.28338,0.4272 -0.53909,4.5496 -0.40101,8.0859 0.24413,6.2555 0.10208,6.7902 -2.49389,9.386 -2.06507,2.0652 -3.31107,2.472 -7.57507,2.472 -4.96669,0 -5.24676,-0.1446 -10.46082,-5.3907 -4.3564,-4.3834 -5.87487,-6.7914 -8.12622,-12.8906 -1.52263,-4.125 -2.76926,-8.131 -2.77039,-8.9044 -9.6e-4,-0.7734 -0.26484,-1.8299 -0.58593,-2.3456 -0.91389,-1.4678 2.5279,-19.1427 3.46252,-19.7204 0.45921,-0.2838 0.59338,-0.908 0.29663,-1.388 -0.29657,-0.48 -0.0937,-0.8734 0.45227,-0.8734 0.54603,0 0.99243,-0.6328 0.99243,-1.4063 0,-0.8501 0.45467,-1.2877 2.20826,-1.3385 z m 64.89074,60.3534 c -1.15243,0 -1.36311,1.3519 -1.17004,7.4982 0.22996,7.3151 0.95985,11.7475 4.78638,29.0643 2.01126,9.1019 3.48101,13.5938 4.44763,13.5938 0.33484,0 0.33351,-1.3729 -0.002,-3.0487 -1.19055,-5.9504 -5.2165,-33.154 -5.93079,-40.0763 -0.54712,-5.3026 -1.07084,-7.0313 -2.13135,-7.0313 z m 943.91418,0 c -1.06051,0 -1.58421,1.7287 -2.13134,7.0313 -0.71429,6.9223 -4.74024,34.1259 -5.93079,40.0763 -0.33534,1.6758 -0.33484,3.0487 0,3.0487 0.96662,0 2.43634,-4.4919 4.44763,-13.5938 3.82652,-17.3169 4.55642,-21.7492 4.78638,-29.0643 0.19308,-6.1463 -0.0195,-7.4982 -1.17188,-7.4982 z m -952.24181,6.6578 c -0.2233,0.1098 -0.49756,0.3584 -0.84961,0.7104 -1.323,1.323 -1.37998,2.2163 -0.4303,6.7438 1.0407,4.9615 4.84883,13.9268 5.59753,13.1781 0.19346,-0.1934 -0.2536,-3.0376 -0.99426,-6.3208 -0.7409,-3.2833 -1.64013,-8.0308 -1.99768,-10.5487 -0.30021,-2.1137 -0.49099,-3.2275 -0.78369,-3.6383 -0.14636,-0.2055 -0.3187,-0.2344 -0.54199,-0.1245 z m 960.02929,0.1245 c -0.2927,0.4108 -0.48348,1.5246 -0.78369,3.6383 -0.35755,2.5179 -1.25678,7.2654 -1.99768,10.5487 -0.74066,3.2832 -1.18956,6.1274 -0.9961,6.3208 0.7487,0.7487 4.55684,-8.2166 5.59754,-13.1781 0.94968,-4.5275 0.8927,-5.4208 -0.4303,-6.7438 -0.70411,-0.7041 -1.09707,-0.9968 -1.38977,-0.5859 z m -973.89587,10.5615 c -2.66403,0 -0.99385,3.4104 4.61609,9.4263 6.0827,6.5229 7.62558,7.6586 6.6101,4.8687 -1.70749,-4.6911 -9.25009,-14.295 -11.22619,-14.295 z m 988.30444,0 c -1.9761,0 -9.51868,9.6039 -11.2262,14.295 -1.01548,2.7899 0.52555,1.6542 6.60828,-4.8687 5.60993,-6.0159 7.28196,-9.4263 4.61792,-9.4263 z m -1000.59448,5.8868 c -0.58888,-0.016 -1.21564,0.068 -1.97754,0.2106 -6.10836,1.1414 -6.16073,2.1892 -0.30579,6.1194 8.66544,5.8172 28.15652,25.6067 37.13746,37.7051 4.49739,6.0586 8.34886,11.0156 8.55834,11.0156 0.20941,0 -0.42168,-1.8738 -1.40258,-4.162 -0.98089,-2.2883 -3.76689,-7.2454 -6.1908,-11.0156 -14.41282,-22.4188 -18.90214,-27.9994 -28.89038,-35.9162 -3.73383,-2.9595 -5.16208,-3.9081 -6.92871,-3.9569 z m 1014.86023,0.2106 c -3.04759,-0.5694 -3.9278,-0.1997 -8.90625,3.7463 -9.98825,7.9168 -14.47571,13.4974 -28.88855,35.9162 -2.42391,3.7702 -5.2099,8.7273 -6.1908,11.0156 -0.98089,2.2882 -1.612,4.162 -1.40259,4.162 0.20948,0 4.06095,-4.957 8.55835,-11.0156 8.98093,-12.0984 28.47019,-31.8879 37.13562,-37.7051 5.85496,-3.9302 5.80259,-4.978 -0.30578,-6.1194 z m -696.840823,30.2399 c 6.959312,-0.01 15.325031,0.028 25.418701,0.084 l 50.491333,0.2802 4.449463,2.1899 c 5.592366,2.7541 7.940676,5.7153 8.734126,11.0065 0.87952,5.8651 -2.82641,13.2686 -9.142451,18.2611 -2.571482,2.0327 -22.042235,14.0894 -43.265991,26.792 -40.711376,24.3656 -50.3528423,30.8897 -55.0067139,37.218 -6.996582,9.5139 -7.5000003,26.17 -0.89721676,29.7033 1.99555206,1.068 5.47408616,0.9132 8.44482416,-0.3753 1.2424555,-0.539 1.4721545,0.8692 1.6680905,10.2118 0.24803,11.8283 -0.6286178,16.6533 -3.7426754,20.6122 -2.7864088,3.5424 -8.7505475,6.0571 -14.3664551,6.0571 -2.5780985,0 -6.4077305,-0.7807 -8.5107425,-1.7359 -12.283178,-5.5784 -14.011043,-23.9128 -4.998779,-53.0639 6.187936,-20.0156 22.3312071,-57.0555 34.198608,-78.4717 8.593058,-15.5072 8.537652,-16.8479 -0.715942,-17.4371 -10.6119077,-0.6758 -13.14022766,4.3254 -5.793457,11.4605 l 3.381958,3.2831 -3.0377197,5.4254 c -1.6702436,2.9836 -3.1653347,5.571 -3.3233643,5.7495 -0.6040976,0.6829 -9.5821151,-6.0862 -15.280151,-11.5209 -7.114902,-6.7865 -8.57666,-9.3527 -8.57666,-15.0513 0,-3.433 0.494296,-4.7686 2.427978,-6.5607 3.535318,-3.2764 7.286127,-4.09 37.443237,-4.118 z m 204.404293,0.018 h 0.002 c 17.99178,-0.024 21.03516,0.9662 21.03516,4.9182 0,2.6312 -2.57246,4.9717 -8.30933,7.5586 l -3.87817,1.7486 v 20.951 c 0,11.5232 0.31642,20.964 0.70313,20.982 0.38672,0.016 5.34378,-2.3196 11.01562,-5.1892 12.12459,-6.1345 18.05925,-7.4458 30.46875,-6.7291 20.30541,1.1728 32.94717,10.1385 32.94617,23.3661 -6.4e-4,6.3944 -1.09353,9.0869 -5.12329,12.6251 -6.66025,5.8478 -20.64885,9.2427 -34.99329,8.4924 -4.82187,-0.2523 -8.76709,-0.3145 -8.76709,-0.1391 0,0.7286 8.05736,4.3428 16.47583,7.3901 23.10281,8.3629 27.4478,13.3824 30.98877,35.8026 l 1.604,10.1587 5.39612,3.1513 c 2.96727,1.7332 6.78699,4.5869 8.48877,6.3427 3.66686,3.7833 3.16895,5.4073 -2.52319,8.2343 -3.17307,1.5759 -5.96732,1.8409 -21.06995,2.0032 -12.47339,0.1339 -17.8556,-0.1372 -18.97522,-0.9558 -2.6787,-1.9588 -3.65545,-6.1786 -4.50439,-19.4404 -0.92321,-14.4216 -1.97994,-19.6977 -5.34485,-26.7041 -3.08724,-6.4282 -7.39948,-10.4113 -17.56714,-16.2268 -4.64059,-2.6543 -9.36587,-5.6979 -10.49927,-6.762 -4.39093,-4.1243 -3.36027,-11.2054 2.00501,-13.7769 2.3148,-1.1094 4.35989,-1.1273 13.19275,-0.1099 16.28262,1.8754 21.08276,0.022 21.08276,-8.1463 0,-4.9323 -2.03213,-7.2544 -7.68494,-8.7836 -6.30733,-1.7062 -13.58838,-0.5733 -23.48877,3.6566 -4.89224,2.0903 -10.00539,4.0797 -11.36169,4.4202 l -2.4646,0.6189 v 36.416 36.416 l 4.11072,2.8272 c 2.26095,1.5556 5.17641,4.0958 6.4801,5.6451 3.2653,3.8806 2.42024,6.3555 -2.9956,8.7634 -3.80377,1.6909 -6.38514,1.9334 -21.82435,2.0453 -12.04153,0.088 -18.82439,-0.2584 -21.73461,-1.1059 h -0.006 c -4.64789,-1.3566 -8.31269,-5.1064 -7.42676,-7.5989 0.94968,-2.6717 2.10959,-3.7251 7.37732,-6.698 l 5.08118,-2.8674 -0.0238,-64.4458 -0.0256,-64.444 -5.75134,-2.8125 c -6.65518,-3.2552 -8.17593,-5.7746 -5.4895,-9.0949 1.72119,-2.1273 2.04011,-2.1586 24.7174,-2.4353 3.21509,-0.04 6.09069,-0.068 8.66089,-0.068 z m -69.24499,6.5478 c 2.97017,0.013 5.87284,0.2853 7.85156,0.835 5.0603,1.4057 7.89917,4.9422 7.89917,9.8401 0,4.9276 -2.59342,8.1216 -7.8772,9.7046 -4.15389,1.2445 -13.32601,1.2842 -17.48657,0.075 -9.61008,-2.7929 -9.85819,-15.8223 -0.36621,-19.2517 2.22889,-0.8052 6.16038,-1.221 9.97925,-1.203 z m -76.988527,5.5335 c -4.56872,-0.036 -6.460072,5.5534 -4.35791,12.8833 0.797316,2.7801 0.615417,3.2377 -2.109375,5.3082 -5.01741,3.8125 -19.60245,12.7313 -20.820922,12.7313 -0.66182,0 -2.018559,-3.4744 -3.202515,-8.2031 -3.784374,-15.1146 -7.19835,-19.7911 -12.63794,-17.3126 -2.472118,1.1264 -8.273076,9.158 -11.99707,16.6095 -2.440868,4.8841 -17.6037595,41.1386 -17.6037595,42.0904 0,0.885 67.6430145,-40.2531 71.4971925,-43.482 6.083196,-5.0963 8.701714,-12.3846 6.174316,-17.1863 -1.331636,-2.5299 -2.612025,-3.4207 -4.942017,-3.4387 z m 308.157347,29.0222 c 4.9376,-0.046 10.0571,0.416 15.28015,1.4154 1.69288,0.3239 3.29372,0.697 4.83216,1.1151 4.63691,1.381 -3.45487,12.5958 -5.70374,11.2189 -4.17065,-1.9355 -8.987,-2.6631 -14.40674,-2.157 -19.09764,1.7834 -29.54428,16.5465 -28.15796,39.7925 0.97129,16.2867 7.25415,26.3035 19.34693,30.8459 4.88118,1.8336 16.35388,1.0221 22.41577,-1.5857 6.15766,-2.649 11.51893,-8.4625 14.33533,-15.5401 1.94374,-4.8843 2.21274,-7.1229 2.23754,-18.6933 0.0283,-12.9945 -0.008,-13.217 -3.05969,-19.4146 -0.94149,-1.9125 -1.98825,-3.6458 -3.13476,-5.2094 -2.11784,-4.0509 6.69471,-13.7732 9.64416,-13.1451 2.50473,1.7149 4.89605,3.7412 7.2876,6.1413 10.92784,10.9671 16.00891,24.8997 16.00891,43.9032 0,16.7542 -3.4982,30.5998 -10.74646,42.5318 -4.31103,7.0967 -12.37136,14.578 -19.01733,17.6532 -5.22248,2.4164 -5.97089,2.4979 -23.67371,2.6074 -10.05466,0.062 -19.86994,-0.2343 -21.81152,-0.6592 -9.06527,-1.9841 -17.41787,-8.2896 -23.98316,-18.1055 -8.95255,-13.3848 -12.83006,-28.6849 -12.00805,-47.3767 0.58369,-13.273 1.94685,-19.1361 6.68518,-28.7292 8.24736,-16.6976 26.23321,-26.4119 47.62939,-26.6089 z m -232.20154,2.8509 c 24.44349,-0.016 27.56104,0.517 27.56104,4.7022 0,2.9658 -2.65285,5.2531 -8.90625,7.6813 l -3.75,1.4575 -0.24353,42.7148 c -0.19063,33.4166 0.0142,42.946 0.9375,43.7769 0.6497,0.5841 3.25537,2.1868 5.78979,3.5614 5.41155,2.935 6.66589,4.6235 5.85022,7.8735 -1.10803,4.4147 -6.38575,5.6467 -24.99023,5.8356 -10.48609,0.1066 -18.03548,-0.251 -20.93079,-0.9906 h -0.002 c -5.34936,-1.3679 -8.12622,-3.6066 -8.12622,-6.5479 0,-2.2746 1.90417,-4.0279 8.80005,-8.1024 l 4.32495,-2.5543 -0.0183,-42.9144 -0.0183,-42.9126 -5.07202,-2.1955 c -5.77949,-2.5014 -8.32948,-4.877 -7.85889,-7.3205 0.68014,-3.5317 4.07638,-4.051 26.65283,-4.065 z m -75.151974,6.7328 c 0.0177,0 0.02713,10e-4 0.03113,0.011 0.11374,0.1508 3.702831,16.7279 7.976075,36.8372 10.719206,50.4429 11.098091,51.5154 19.788209,56.1419 5.89036,3.1361 13.04626,9.6503 13.04626,11.8763 0,1.8838 -2.49208,4.1677 -5.625,5.1544 -3.49575,1.1009 -52.959047,1.0606 -56.229855,-0.046 -4.113374,-1.3915 -6.647436,-3.875 -5.95459,-5.8356 0.984046,-2.7844 4.15119,-5.7583 9.14978,-8.5894 2.614142,-1.4807 5.518051,-3.5434 6.452637,-4.585 2.009612,-2.2398 2.39511,0.4494 -6.430664,-44.8682 -3.327368,-17.0845 -6.049805,-31.2967 -6.049805,-31.5802 0,-0.5891 22.836869,-14.4727 23.845825,-14.5147 z"
       inkscape:label="voorkant" />
    <rect
       style="fill:#ffccaa;stroke-width:1.77165;stroke-linecap:round;stroke-linejoin:round"
       id="rect21507"
       width="1438.584"
       height="708.66211"
       x="-511.27136"
       y="1846.3073"
       inkscape:label="achterkant" />
    <path
       id="rect21503-4-7-91"
       style="display:inline;fill:#ffccaa;fill-opacity:1;stroke-width:1.77165;stroke-linecap:round;stroke-linejoin:round"
       d="m 473.9244,-26.613187 v 0.004 H 428.7596 425.6871 398.9061 266.5886 138.7169 14.6135 -7.2804 h -3.1641 -56.2866 -47.3053 -16.073 v -0.002 h -1.7615 v 0.002 h -24.342 -36.2036 -1.485 -92.9901 -1.5436 -222.8284 l -0.013,-0.002 v 39.78699 50.48217 3.24646 0.005 52.309567 0.002 10.72815 22.95959 2.08374 17.42249 111.4508 c 9e-4,0.002 0,0.005 0,0.007 v 33.70605 219.60205 70.78491 3.03223 0.002 19.3103 90.92469 1.3916 179.55871 0.002 90.13733 65.31926 h 81.8628 43.1726 13.6688 51.6376 100.5176 29.9396 1.2707 14.9268 164.7912 58.7842 169.8999 48.5687 83.3533 18.609 1.3275 23.3002 123.8434 18.7573 1.6113 29.9854 69.1351 105.9522 2.6696 39.5527 68.6151 37.8589 34.9749 0.011 V 279.95994 154.71947 64.062123 v -48.41675 -1.43372 -40.82153 h -79.5044 -19.129 -59.6704 -20.6012 v -0.002 h -0.9888 v 0.002 h -34.8797 -98.5767 -1.9464 c 6e-4,-10e-4 0,-0.002 0,-0.004 h -32.9865 c -3e-4,10e-4 0,0.002 0,0.004 h -28.1744 c -5e-4,-10e-4 0,-0.002 0,-0.004 h -8.1226 c -2e-4,10e-4 1e-4,0.002 0,0.004 h -0.5584 c 6e-4,-10e-4 0,-0.002 0,-0.004 z m -778.9545,68.28369 h 71.3782 l 35.6891,61.816407 -17.8436,30.9082 -17.8455,30.90637 h -71.3763 l -17.8437,-30.90637 -17.8436,-30.9082 z m 238.6817,0 H 5.0298 l 35.689,61.816407 -17.8436,30.9082 -17.8454,30.90637 h -71.3782 l -35.6873,-61.81457 z m 238.6816,0 h 71.3782 l 35.6891,61.816407 -17.8436,30.9082 -17.8455,30.90637 H 172.3332 L 136.646,103.48691 Z m 238.6817,0 h 71.3781 l 35.6891,61.816407 -17.8436,30.9082 -17.8455,30.90637 h -71.3781 l -35.6891,-61.81457 z m 238.6816,0 h 71.3782 l 35.6872,61.814567 -35.6891,61.81641 H 649.6965 L 614.0074,103.48691 Z M -424.3709,110.57309 h 71.3782 l 35.6891,61.81457 -35.6891,61.81458 h -71.3782 l -35.6872,-61.81458 z m 238.6817,0 h 71.3781 l 35.6891,61.81457 -35.6891,61.81458 h -71.3781 l -35.6873,-61.81458 z m 238.6816,0 h 71.3782 l 35.6891,61.81457 -35.6891,61.81458 H 52.9924 L 17.3051,172.38766 Z m 238.6816,0 h 71.3782 l 35.6891,61.81457 -35.6891,61.81458 H 291.674 l -35.689,-61.81458 z m 238.6817,0 h 71.3763 l 35.6909,61.81457 -35.6909,61.81458 h -71.3763 l -35.6891,-61.81458 29.9377,-51.85364 z m 238.6816,0 h 71.3764 l 35.6909,61.81457 -35.6909,61.81458 h -71.3764 l -35.6891,-61.81458 17.8437,-30.90637 z m -1074.0674,68.90258 h 71.38 l 35.6873,61.81275 v 0.002 l -17.8436,30.90637 -17.8455,30.90637 h -71.3782 l -35.6872,-61.81274 14.1559,-24.51965 z m 238.6799,0 H 5.0316 l 35.6872,61.81458 -35.689,61.81274 h -71.3782 l -35.6873,-61.81274 z m 238.6816,0 h 71.3818 l 35.6873,61.81275 v 0.002 l -17.8436,30.90637 -17.8455,30.90637 H 172.3332 L 136.646,241.29042 Z m 238.6816,0 h 71.3819 l 35.6872,61.81458 -35.6891,61.81274 h -71.3781 l -35.6891,-61.81274 v -0.002 z m 238.6817,0 h 71.38 l 35.6872,61.81275 -35.6872,61.81457 h -71.3782 l -35.6891,-61.81274 z m -1074.0674,68.90076 h 71.3818 l 35.6873,61.81458 -17.8436,30.9082 -17.8455,30.90637 h -71.3782 l -35.6872,-61.81457 z m 238.6816,0 h 71.3819 l 35.6872,61.81458 -17.8436,30.9082 -17.8455,30.90637 h -71.3781 l -35.6873,-61.81457 z m 238.6835,0 h 71.38 l 35.6873,61.81458 -17.8437,30.9082 -17.8454,30.90637 H 52.9924 L 17.3051,310.19101 35.1469,279.2828 Z m 238.6798,0 h 71.3818 l 35.6873,61.81458 -17.8436,30.9082 -17.8455,30.90637 H 291.674 l -35.689,-61.81457 z m 238.6835,0 h 71.3782 l 35.689,61.81458 -35.689,61.81457 h -71.3782 l -35.6891,-61.81457 z m 238.6816,0 h 71.3782 l 35.6891,61.81458 -35.6909,61.81457 h -71.3764 l -35.6891,-61.81457 z m -1074.0655,68.90076 h 71.3763 l 5.7514,9.96094 29.9377,51.85546 -34.8926,60.43396 h -72.9693 l -34.8926,-60.43579 z m 238.6798,0 H 5.0298 l 5.7513,9.96094 29.9377,51.85546 -29.1503,50.48767 -6.5387,11.32508 h -71.3782 l -35.6873,-61.81458 z m 238.6816,0 h 71.3782 l 5.7513,9.96094 29.9378,51.85546 -34.8926,60.43396 H 171.5367 L 136.646,379.09176 Z m 238.6817,0 h 71.3781 l 5.7514,9.96094 29.9377,51.85363 -29.1504,50.4895 -6.5387,11.32508 h -71.3781 l -35.6891,-61.81458 z m 238.6816,0 h 71.3763 l 35.6891,61.81457 -34.8925,60.43579 H 648.9 l -34.8926,-60.43396 v -0.002 z m -1074.0692,68.90259 h 71.3818 l 19.4843,33.74999 15.8038,27.37427 -36.0864,62.50305 h -70.5817 l -35.6872,-61.81274 z m 238.6816,0 h 71.3819 l 35.6872,61.81457 -17.8436,30.90637 -17.8455,30.90637 h -70.5816 l -36.0865,-62.50305 z m 238.6817,0 h 71.3818 l 19.4843,33.74999 15.8038,27.37427 -36.0864,62.50305 H 52.9924 L 17.3051,447.99435 Z m 238.6816,0 h 71.3818 l 35.6873,61.81274 v 0.002 l -17.8436,30.90637 -17.8455,30.90637 h -70.5816 l -36.0865,-62.50305 z m 238.6817,0 h 71.38 l 35.2899,61.12426 -36.0883,62.50305 h -70.5798 l -35.6891,-61.81274 v -0.002 l 7.9834,-13.82446 z m 238.6816,0 h 71.38 l 35.6891,61.81457 -35.6909,61.81274 h -70.5799 l -36.0864,-62.50305 z m -1074.0637,68.90075 h 71.3763 l 35.2899,61.12427 -35.2899,61.12427 h -71.3782 l -35.2899,-61.1261 z m 238.6798,0 H 5.0298 l 35.689,61.81458 -35.689,61.81457 h -71.3782 l -35.6873,-61.81457 z m 238.6816,0 h 71.3782 l 35.2899,61.12427 -35.2899,61.12427 h -71.3782 l -35.2899,-61.1261 z m 238.6817,0 h 71.3781 l 35.6891,61.81458 -35.6891,61.81457 h -71.3781 l -35.6891,-61.81457 z m 238.6816,0 h 71.3763 l 35.2918,61.1261 -35.2899,61.12244 H 649.6965 L 614.4066,516.2048 Z m -1074.0674,68.90076 h 71.3782 l 35.6891,61.81457 -17.8436,30.90638 -17.8455,30.9082 h -71.3782 l -35.6872,-61.81458 z m 238.6817,0 h 71.3781 l 5.7514,9.96094 29.9377,51.85547 -17.8436,30.90454 -17.8455,30.9082 h -71.3781 l -35.6873,-61.81458 z m 238.6816,0 h 71.3782 l 35.6891,61.81457 -17.8437,30.90638 -17.8454,30.9082 H 52.9924 L 17.3051,585.79586 Z m 238.6816,0 h 71.3782 l 5.7514,9.96094 29.9377,51.85547 -17.8436,30.90454 -17.8455,30.9082 H 291.674 l -35.689,-61.81458 z m 238.6817,0 h 71.3782 l 35.689,61.81457 -35.689,61.81458 H 530.3557 L 494.6666,585.7977 v -0.002 z m 238.6816,0 h 71.3764 l 35.6909,61.81457 -35.6909,61.81458 h -71.3764 l -35.6891,-61.81458 z m -1074.0655,68.90075 h 71.3763 l 17.8455,30.90821 17.8436,30.90637 -17.8436,30.9082 -17.8455,30.90638 h -71.3782 l -17.8436,-30.90638 -17.8436,-30.90637 17.8436,-30.9082 z m 477.3614,0 h 71.3782 l 17.8455,30.90821 17.8436,30.90637 -17.8436,30.9082 -17.8455,30.90638 H 172.3332 L 136.646,654.69845 Z m 477.3633,0 h 71.3763 l 35.6891,61.81458 -35.6872,61.81458 h -71.3782 l -35.6891,-61.81275 17.8436,-30.9082 z m -716.0467,0.002 H 5.0316 l 35.6872,61.81275 v 0.002 L 24.8619,682.16278 5.0298,716.51154 h -71.3782 l -35.6873,-61.81275 z m 477.3632,0 h 71.3819 l 35.6872,61.81275 v 0.002 l -15.8569,27.46399 -19.8322,34.34876 h -71.3781 l -35.6891,-61.81275 v -0.002 z m -835.3839,68.90076 h 71.3782 l 35.6891,61.81458 -35.6891,61.81457 h -71.3782 l -35.6872,-61.81457 z m 238.6817,0 h 71.3781 l 35.6891,61.81458 -35.6891,61.81457 h -71.3781 l -35.6873,-61.81477 z m 238.6816,0 h 71.3782 l 35.6891,61.81458 -35.6891,61.81457 H 52.9924 L 17.3051,723.59938 Z m 238.6816,0 h 71.3782 l 35.6891,61.81458 -35.6891,61.81457 H 291.674 l -35.689,-61.81457 z m 238.6817,0 h 71.3763 l 35.6909,61.81458 -35.6909,61.81457 h -71.3763 l -35.6891,-61.81477 17.8436,-30.90821 z m 238.6816,0 h 71.3764 l 35.6909,61.81458 -35.6909,61.81457 h -71.3764 l -35.6891,-61.81477 17.8437,-30.90821 z m -1074.0655,68.90056 h 71.3763 l 5.7514,9.96094 29.9377,51.85547 -17.8436,30.90454 -17.8455,30.9082 h -71.3763 l -35.6891,-61.81458 7.987,-13.83544 z m 238.6798,0 H 5.0298 l 35.689,61.81457 -35.689,61.81458 h -71.3782 l -35.6873,-61.81458 z m 238.6816,0 h 71.3782 l 5.7513,9.96094 29.9378,51.85547 -5.7514,9.9591 -29.9377,51.85364 H 172.3332 L 136.646,792.49993 Z m 238.6817,0 h 71.3781 l 35.6891,61.81641 -35.6891,61.81274 h -71.3781 l -35.6891,-61.81458 z m 238.6816,0 h 71.3763 l 35.6891,61.81641 -35.6872,61.81274 h -71.3782 l -35.6891,-61.81458 29.9378,-51.85363 z m -1074.0692,68.90259 h 71.3818 l 35.6873,61.81274 -17.8436,30.90637 -17.8455,30.90637 h -71.3782 l -35.6872,-61.81274 z m 238.6816,0 h 71.3819 l 35.6872,61.81274 -17.8436,30.90637 -17.8455,30.90637 h -71.3781 l -35.6873,-61.81274 z m 238.6817,0 h 71.3818 l 35.6873,61.81274 -17.8437,30.90637 -17.8454,30.90637 H 52.9924 L 17.3051,861.40069 Z m 238.6816,0 h 71.3818 l 5.7496,9.9591 29.9377,51.85547 -17.8436,30.90637 -17.8455,30.90638 H 291.674 l -35.689,-61.81275 z m 238.6817,0 h 71.38 l 35.689,61.81457 -35.689,61.81275 h -71.3782 l -35.6891,-61.81275 z m 238.6816,0 h 71.38 l 35.6891,61.81457 -35.6909,61.81275 H 769.0373 L 733.3482,861.40252 Z M -305.0301,868.4887 h 71.3782 l 17.8455,30.90638 17.8436,30.9082 -35.6891,61.81457 h -71.3782 l -35.6872,-61.81457 17.8436,-30.9082 z m 238.6817,0 H 5.0298 l 17.8454,30.90638 17.8436,30.9082 -35.689,61.81457 h -71.3782 l -35.6873,-61.81457 z m 238.6816,0 h 71.3782 l 17.8455,30.90638 17.8436,30.9082 -35.6891,61.81457 H 172.3332 L 136.646,930.30328 Z m 238.6817,0 h 71.3781 l 17.8455,30.90638 17.8436,30.9082 -35.6891,61.81457 h -71.3781 l -35.6891,-61.81457 z m 238.6816,0 h 71.3763 l 35.6891,61.81641 -35.6872,61.81274 h -71.3782 l -35.6891,-61.81457 z"
       inkscape:label="bovenkant" />
  </g>
</svg>
