<?xml version="1.0" encoding="UTF-8" standalone="no"?>
<!-- Created with Inkscape (http://www.inkscape.org/) -->

<svg
   xmlns:dc="http://purl.org/dc/elements/1.1/"
   xmlns:cc="http://creativecommons.org/ns#"
   xmlns:rdf="http://www.w3.org/1999/02/22-rdf-syntax-ns#"
   xmlns:svg="http://www.w3.org/2000/svg"
   xmlns="http://www.w3.org/2000/svg"
   xmlns:sodipodi="http://sodipodi.sourceforge.net/DTD/sodipodi-0.dtd"
   xmlns:inkscape="http://www.inkscape.org/namespaces/inkscape"
   width="210mm"
   height="297mm"
   viewBox="0 0 744.09448819 1052.3622047"
   id="svg2"
   version="1.1"
   inkscape:version="0.91 r13725"
   sodipodi:docname="chinees.svg">
  <defs
     id="defs4" />
  <sodipodi:namedview
     id="base"
     pagecolor="#ffffff"
     bordercolor="#666666"
     borderopacity="1.0"
     inkscape:pageopacity="0.0"
     inkscape:pageshadow="2"
     inkscape:zoom="1"
     inkscape:cx="70.413642"
     inkscape:cy="629.29034"
     inkscape:document-units="px"
     inkscape:current-layer="g4300"
     showgrid="false"
     inkscape:window-width="2560"
     inkscape:window-height="1381"
     inkscape:window-x="0"
     inkscape:window-y="0"
     inkscape:window-maximized="1" />
  <metadata
     id="metadata7">
    <rdf:RDF>
      <cc:Work
         rdf:about="">
        <dc:format>image/svg+xml</dc:format>
        <dc:type
           rdf:resource="http://purl.org/dc/dcmitype/StillImage" />
        <dc:title></dc:title>
      </cc:Work>
    </rdf:RDF>
  </metadata>
  <g
     inkscape:label="Laag 1"
     inkscape:groupmode="layer"
     id="layer1">
    <g
       id="g4300"
       transform="matrix(6.508681,0,0,6.508681,-354.11827,-1981.0755)"
       style="fill:#ff0000;fill-opacity:1;stroke-width:0.0192407;stroke-miterlimit:4;stroke-dasharray:none">
      <path
         id="path4200"
         d="m 102.02435,312.23781 c 0.33416,-0.0466 0.98645,0.39252 1.39062,0.97266 l 0.23828,0.34179 -0.19336,1.41407 c -0.22552,1.65382 -0.37881,3.24569 -0.3789,3.92968 l 0,0.48438 -0.31641,0 c -0.17361,0 -0.37306,0.0218 -0.44336,0.0488 -0.0703,0.027 -0.15601,0.0198 -0.19141,-0.0156 -0.0354,-0.0354 -0.0663,-0.73199 -0.0703,-1.54883 -0.004,-0.81683 -0.045,-1.85931 -0.0918,-2.3164 -0.0468,-0.45709 -0.11194,-1.35066 -0.14454,-1.98633 -0.0497,-0.96942 -0.0371,-1.17624 0.0801,-1.27344 0.0331,-0.0275 0.0734,-0.0438 0.1211,-0.0508 z"
         style="fill:#ff0000;fill-opacity:1;stroke:#ff0000;stroke-width:0.0192407;stroke-miterlimit:4;stroke-dasharray:none;stroke-opacity:1"
         inkscape:connector-curvature="0" />
      <path
         id="path4196"
         d="m 105.70991,316.37845 c 1.18323,-0.068 2.50054,0.1487 3.06836,0.56445 0.52283,0.38281 0.85856,0.70592 0.85156,0.8164 -0.004,0.054 -0.27604,0.29392 -0.60546,0.53516 -0.717,0.52507 -0.92942,0.54376 -1.82032,0.1582 -0.89127,-0.38573 -1.4959,-0.54704 -2.33398,-0.62304 l -0.72656,-0.0645 0,-0.54882 0,-0.54883 0.46093,-0.12305 c 0.33214,-0.0888 0.71106,-0.14341 1.10547,-0.16601 z"
         style="fill:#ff0000;fill-opacity:1;stroke:#ff0000;stroke-width:0.0192407;stroke-miterlimit:4;stroke-dasharray:none;stroke-opacity:1"
         inkscape:connector-curvature="0" />
      <path
         id="path4192"
         d="m 100.95795,317.55805 0,0.60156 -0.34766,0.0625 c -0.59247,0.1088 -1.236481,0.33848 -2.123041,0.75586 -1.02587,0.48295 -1.37633,0.50705 -1.96289,0.13477 -0.71085,-0.45117 -0.86415,-0.6782 -0.90625,-1.33984 l -0.0371,-0.58399 2.38867,-0.0566 c 1.31326,-0.0313 2.522441,-0.0831 2.687501,-0.11523 l 0.30078,-0.0586 z"
         style="fill:#ff0000;fill-opacity:1;stroke:#ff0000;stroke-width:0.0192407;stroke-miterlimit:4;stroke-dasharray:none;stroke-opacity:1"
         inkscape:connector-curvature="0" />
      <path
         id="path4188"
         d="m 109.84863,319.7612 c 0.76575,-0.0389 0.82152,0.0638 1.24024,0.51367 0.77933,0.83735 1.18714,1.8564 0.80273,2.00391 -0.35249,0.13527 -1.12924,0.0295 -2.34179,-0.31836 -0.71732,-0.20581 -1.64512,-0.43628 -2.0625,-0.51368 -1.06164,-0.19691 -3.6371,-0.27148 -4.60157,-0.13281 -2.40501,0.34579 -4.227401,0.8297 -5.210931,1.38477 -0.2756,0.15554 -0.61542,0.28129 -0.75586,0.27929 -0.47934,-0.007 -1.96099,-0.70506 -2.18946,-1.03125 -0.1939,-0.27672 -0.1826,-0.6529 0.0273,-0.91211 0.16839,-0.20791 0.21092,-0.21281 2.05468,-0.22851 1.27683,-0.0109 2.37292,-0.0778 3.406261,-0.20899 1.53264,-0.19456 3.70703,-0.39556 6.1875,-0.57421 0.73641,-0.053 1.81633,-0.136 2.40039,-0.1836 0.45285,-0.0369 0.78771,-0.0652 1.04296,-0.0781 z"
         style="fill:#ff0000;fill-opacity:1;stroke:#ff0000;stroke-width:0.0192407;stroke-miterlimit:4;stroke-dasharray:none;stroke-opacity:1"
         inkscape:connector-curvature="0" />
      <path
         id="path4184"
         d="m 109.6064,324.11863 c 0.16839,0.32563 0.0635,0.47955 -0.49805,0.72851 -0.38722,0.17165 -0.39594,0.17039 -1.0625,-0.0391 -0.59678,-0.18758 -0.85139,-0.21008 -2.28711,-0.20508 -1.81409,0.006 -3.55525,0.25926 -5.35547,0.77735 -1.146671,0.33008 -1.666431,0.34035 -2.525391,0.0508 -0.75305,-0.25385 -0.94992,-0.41436 -0.81445,-0.66211 0.18102,-0.33105 0.90889,-0.96302 1.13086,-0.98242 0.12308,-0.0107 0.84755,0.0147 1.60937,0.0566 0.898951,0.0495 1.804901,0.04 2.583991,-0.0273 1.21924,-0.10525 4.46898,-0.53979 4.58789,-0.61329 0.0358,-0.0222 0.34718,-0.0467 0.69336,-0.0527 0.87437,-0.0162 1.62138,0.35743 1.9375,0.96874 z"
         style="fill:#ff0000;fill-opacity:1;stroke:#ff0000;stroke-width:0.0192407;stroke-miterlimit:4;stroke-dasharray:none;stroke-opacity:1"
         inkscape:connector-curvature="0" />
      <path
         id="path4180"
         d="m 106.73326,325.96829 c 0.11035,-0.0234 0.19648,-0.0119 0.29688,0.0234 0.13742,0.0483 0.26369,0.15357 0.27929,0.23437 0.0159,0.0828 -0.28595,0.47506 -0.6914,0.89844 l -0.72071,0.75195 -1.40039,0 c -1.59601,-4.5e-4 -2.30596,0.11251 -3.71875,0.59375 -0.53056,0.18072 -1.021241,0.32813 -1.089841,0.32813 -0.06863,0 -0.22798,-0.11064 -0.35352,-0.2461 -0.28561,-0.30818 -0.81071,-1.36277 -0.75781,-1.52148 0.03019,-0.0906 0.48199,-0.12091 1.925781,-0.12891 1.76432,-0.0103 3.78506,-0.18547 4.88672,-0.42187 0.22855,-0.049 0.63592,-0.1977 0.9043,-0.33203 0.19605,-0.0981 0.3291,-0.15629 0.43945,-0.17969 z"
         style="fill:#ff0000;fill-opacity:1;stroke:#ff0000;stroke-width:0.0192407;stroke-miterlimit:4;stroke-dasharray:none;stroke-opacity:1"
         inkscape:connector-curvature="0" />
      <path
         id="path4176"
         d="m 108.78406,329.64794 c -0.0917,0.95729 -1.42085,2.56548 -2.64648,3.20312 -1.27588,0.66379 -1.5559,0.44331 -0.625,-0.49219 0.89321,-0.89761 1.32863,-1.94386 1.24023,-2.98437 -0.0434,-0.51129 -0.0328,-0.54449 0.33399,-0.99024 0.44114,-0.53604 0.70659,-0.7792 0.85742,-0.7832 0.38357,-0.011 0.91334,1.27988 0.83984,2.04688 z"
         style="fill:#ff0000;fill-opacity:1;stroke:#ff0000;stroke-width:0.0192407;stroke-miterlimit:4;stroke-dasharray:none;stroke-opacity:1"
         inkscape:connector-curvature="0" />
      <path
         id="path4170"
         d="m 114.2601,330.9683 c -0.25818,-0.0239 -1.32073,-0.22686 -2.70775,-0.29386 -0.77002,-0.0372 -1.95811,0.11751 -2.02411,0.0786 -0.54834,-0.0638 -0.17758,-0.73756 0.0586,-0.79483 2.3987,-0.46078 3.60222,0.0697 5.0403,0.27637 0.89701,0.18407 0.032,0.78157 -0.36707,0.7337 z"
         style="fill:#ff0000;fill-opacity:1;stroke:#ff0000;stroke-width:0.0192407;stroke-miterlimit:4;stroke-dasharray:none;stroke-opacity:1"
         inkscape:connector-curvature="0"
         sodipodi:nodetypes="ccccccc" />
      <path
         id="path4168"
         d="m 97.491089,329.11099 c 0.14836,-0.0569 1.01119,0.41289 1.38281,0.7539 0.14344,0.13163 0.22443,0.34314 0.26563,0.69141 0.0823,0.69488 0.71663,1.61566 1.496091,2.17187 0.31675,0.22603 0.61777,0.41016 0.66797,0.41016 0.18579,0 0.56868,0.37865 0.51758,0.51172 -0.0667,0.17333 -0.73388,0.1699 -1.39453,-0.008 -1.240351,-0.33399 -2.853641,-1.52551 -3.205081,-2.36914 -0.28136,-0.67538 -0.1145,-2.01474 0.26953,-2.16211 z"
         style="fill:#ff0000;fill-opacity:1;stroke:#ff0000;stroke-width:0.0192407;stroke-miterlimit:4;stroke-dasharray:none;stroke-opacity:1"
         inkscape:connector-curvature="0" />
      <path
         id="path4164"
         d="m 105.03994,330.353 c 0.11566,0.11566 -0.1427,0.71645 -0.35742,0.83008 -0.0932,0.0493 -0.70263,0.19836 -1.35352,0.33203 -1.76683,0.36282 -2.19697,0.39342 -2.39843,0.16993 -0.20393,-0.22632 -0.37003,-0.76172 -0.23633,-0.76172 0.33343,0 2.58779,-0.31699 3.34765,-0.47071 0.27752,-0.0561 0.51357,-0.0939 0.6875,-0.11132 0.17393,-0.0175 0.28475,-0.0141 0.31055,0.0117 z"
         style="fill:#ff0000;fill-opacity:1;stroke:#ff0000;stroke-width:0.0192407;stroke-miterlimit:4;stroke-dasharray:none;stroke-opacity:1"
         inkscape:connector-curvature="0" />
      <path
         id="path4160"
         d="m 96.307479,331.61672 c 0.1242,0.0216 0.22166,0.13586 0.4375,0.46093 l 0.33203,0.5 -0.66992,0.19141 c -0.90075,0.25824 -3.22544,1.07704 -3.85352,1.35742 -0.67056,0.29934 -1.33829,0.36099 -1.73437,0.1582 -0.77375,-0.39616 -1.01277,-1.2427 -0.50391,-1.77929 0.25068,-0.26433 0.27328,-0.26989 1.77735,-0.3711 1.26487,-0.0851 2.63758,-0.25832 4.07617,-0.51367 0.05287,-0.009 0.09727,-0.011 0.13867,-0.004 z"
         style="fill:#ff0000;fill-opacity:1;stroke:#ff0000;stroke-width:0.0192407;stroke-miterlimit:4;stroke-dasharray:none;stroke-opacity:1"
         inkscape:connector-curvature="0" />
      <path
         id="path4156"
         d="m 106.98709,334.34318 c 0.89246,0.009 1.47678,0.21247 2.02148,0.61133 0.56515,0.41383 0.84708,0.86452 0.76758,1.22656 -0.0674,0.30671 -0.46113,0.88184 -0.99414,1.45117 -0.77333,0.82603 -1.11734,1.41298 -1.30078,2.2207 -0.1069,0.47069 -0.16398,0.55679 -0.56055,0.83008 -0.24338,0.16772 -0.48019,0.30469 -0.52539,0.30469 -0.16674,0 -0.44403,-0.36894 -0.55469,-0.73828 -0.0987,-0.32956 -0.0857,-0.50748 0.0977,-1.33399 0.2645,-1.19152 0.24312,-2.21187 -0.0527,-2.60937 -0.15988,-0.21486 -0.27184,-0.26216 -0.66211,-0.28516 -0.50696,-0.0299 -2.96666,0.47972 -4.17382,0.86524 -0.38091,0.12165 -0.78032,0.22213 -0.88672,0.22265 -0.285921,0.002 -0.514911,-0.30839 -0.566411,-0.76562 -0.0434,-0.38504 -0.03027,-0.40958 0.26563,-0.54883 0.470221,-0.22128 1.807931,-0.58902 3.257811,-0.89648 1.77537,-0.37648 2.97472,-0.56369 3.86719,-0.55469 z"
         style="fill:#ff0000;fill-opacity:1;stroke:#ff0000;stroke-width:0.0192407;stroke-miterlimit:4;stroke-dasharray:none;stroke-opacity:1"
         inkscape:connector-curvature="0" />
      <path
         id="rect4149"
         d="m 98.403179,336.02114 c 0.19571,0.0379 0.2664,0.29295 0.53125,1.03907 0.59437,1.67437 1.233281,2.23957 2.640631,2.33007 0.46225,0.0297 1.06947,-0.0123 1.6914,-0.11523 0.53327,-0.0882 1.11522,-0.16492 1.29297,-0.16992 l 0.32227,-0.01 0.0293,0.50195 c 0.0157,0.27663 0.002,0.60445 -0.0293,0.72852 -0.0561,0.22347 -0.0639,0.22587 -0.85938,0.16797 -0.44165,-0.0321 -1.36319,-0.0191 -2.04883,0.0293 -0.68563,0.0484 -1.43357,0.10996 -1.66211,0.13476 -0.679721,0.0739 -0.990501,-0.0908 -1.894531,-1.00195 -0.68334,-0.68876 -0.87791,-0.95289 -1.09961,-1.48438 -0.3096,-0.74203 -0.41957,-1.61201 -0.2246,-1.77343 0.0688,-0.057 0.40839,-0.17753 0.7539,-0.26953 0.27743,-0.0738 0.43922,-0.13013 0.55664,-0.10743 z"
         style="fill:#ff0000;fill-opacity:1;stroke:#ff0000;stroke-width:0.0192407;stroke-miterlimit:4;stroke-dasharray:none;stroke-opacity:1"
         inkscape:connector-curvature="0" />
      <path
         inkscape:connector-curvature="0"
         id="path4200-6"
         d="m 120.96964,312.23781 c 0.33416,-0.0466 0.98645,0.39252 1.39062,0.97266 l 0.23828,0.34179 -0.19336,1.41407 c -0.22552,1.65382 -0.37881,3.24569 -0.3789,3.92968 l 0,0.48438 -0.31641,0 c -0.17361,0 -0.37306,0.0218 -0.44336,0.0488 -0.0703,0.027 -0.15601,0.0198 -0.19141,-0.0156 -0.0354,-0.0354 -0.0663,-0.73199 -0.0703,-1.54883 -0.004,-0.81683 -0.045,-1.85931 -0.0918,-2.3164 -0.0468,-0.45709 -0.11194,-1.35066 -0.14454,-1.98633 -0.0497,-0.96942 -0.0371,-1.17624 0.0801,-1.27344 0.0331,-0.0275 0.0734,-0.0438 0.1211,-0.0508 z"
         style="fill:#ff0000;fill-opacity:1;stroke:#ff0000;stroke-width:0.0192407;stroke-miterlimit:4;stroke-dasharray:none;stroke-opacity:1" />
      <path
         inkscape:connector-curvature="0"
         id="path4196-7"
         d="m 124.6552,316.37845 c 1.18323,-0.068 2.50054,0.1487 3.06836,0.56445 0.52283,0.38281 0.85856,0.70592 0.85156,0.8164 -0.004,0.054 -0.27604,0.29392 -0.60546,0.53516 -0.717,0.52507 -0.92942,0.54376 -1.82032,0.1582 -0.89127,-0.38573 -1.4959,-0.54704 -2.33398,-0.62304 l -0.72656,-0.0645 0,-0.54882 0,-0.54883 0.46093,-0.12305 c 0.33214,-0.0888 0.71106,-0.14341 1.10547,-0.16601 z"
         style="fill:#ff0000;fill-opacity:1;stroke:#ff0000;stroke-width:0.0192407;stroke-miterlimit:4;stroke-dasharray:none;stroke-opacity:1" />
      <path
         inkscape:connector-curvature="0"
         id="path4192-5"
         d="m 119.90324,317.55805 0,0.60156 -0.34766,0.0625 c -0.59247,0.1088 -1.23649,0.33848 -2.12305,0.75586 -1.02587,0.48295 -1.37633,0.50705 -1.96289,0.13477 -0.71085,-0.45117 -0.86415,-0.6782 -0.90625,-1.33984 l -0.0371,-0.58399 2.38868,-0.0566 c 1.31326,-0.0313 2.52244,-0.0831 2.6875,-0.11523 l 0.30078,-0.0586 z"
         style="fill:#ff0000;fill-opacity:1;stroke:#ff0000;stroke-width:0.0192407;stroke-miterlimit:4;stroke-dasharray:none;stroke-opacity:1" />
      <path
         inkscape:connector-curvature="0"
         id="path4188-3"
         d="m 128.79392,319.7612 c 0.76575,-0.0389 0.82152,0.0638 1.24024,0.51367 0.77933,0.83735 1.18714,1.8564 0.80273,2.00391 -0.35249,0.13527 -1.12924,0.0295 -2.34179,-0.31836 -0.71732,-0.20581 -1.64512,-0.43628 -2.0625,-0.51368 -1.06164,-0.19691 -3.6371,-0.27148 -4.60157,-0.13281 -2.40501,0.34579 -4.2274,0.8297 -5.21094,1.38477 -0.27559,0.15554 -0.61542,0.28129 -0.75585,0.27929 -0.47934,-0.007 -1.96099,-0.70506 -2.18946,-1.03125 -0.1939,-0.27672 -0.1826,-0.6529 0.0273,-0.91211 0.16839,-0.20791 0.21092,-0.21281 2.05468,-0.22851 1.27683,-0.0109 2.37291,-0.0778 3.40626,-0.20899 1.53264,-0.19456 3.70703,-0.39556 6.1875,-0.57421 0.73641,-0.053 1.81633,-0.136 2.40039,-0.1836 0.45285,-0.0369 0.78771,-0.0652 1.04296,-0.0781 z"
         style="fill:#ff0000;fill-opacity:1;stroke:#ff0000;stroke-width:0.0192407;stroke-miterlimit:4;stroke-dasharray:none;stroke-opacity:1" />
      <path
         inkscape:connector-curvature="0"
         id="path4184-5"
         d="m 128.55169,324.11863 c 0.16839,0.32563 0.0635,0.47955 -0.49805,0.72851 -0.38722,0.17165 -0.39594,0.17039 -1.0625,-0.0391 -0.59678,-0.18758 -0.85139,-0.21008 -2.28711,-0.20508 -1.81409,0.006 -3.55525,0.25926 -5.35547,0.77735 -1.14668,0.33008 -1.66644,0.34035 -2.5254,0.0508 -0.75305,-0.25385 -0.94992,-0.41436 -0.81444,-0.66211 0.18102,-0.33105 0.90889,-0.96302 1.13086,-0.98242 0.12308,-0.0107 0.84754,0.0147 1.60936,0.0566 0.89896,0.0495 1.80491,0.04 2.584,-0.0273 1.21924,-0.10525 4.46898,-0.53979 4.58789,-0.61329 0.0358,-0.0222 0.34718,-0.0467 0.69336,-0.0527 0.87437,-0.0162 1.62138,0.35743 1.9375,0.96874 z"
         style="fill:#ff0000;fill-opacity:1;stroke:#ff0000;stroke-width:0.0192407;stroke-miterlimit:4;stroke-dasharray:none;stroke-opacity:1" />
      <path
         inkscape:connector-curvature="0"
         id="path4180-6"
         d="m 125.67855,325.96829 c 0.11035,-0.0234 0.19648,-0.0119 0.29688,0.0234 0.13742,0.0483 0.26369,0.15357 0.27929,0.23437 0.0159,0.0828 -0.28595,0.47506 -0.6914,0.89844 l -0.72071,0.75195 -1.40039,0 c -1.59601,-4.5e-4 -2.30596,0.11251 -3.71875,0.59375 -0.53056,0.18072 -1.02124,0.32813 -1.08984,0.32813 -0.0686,0 -0.22799,-0.11064 -0.35353,-0.2461 -0.28561,-0.30818 -0.81071,-1.36277 -0.75781,-1.52148 0.0302,-0.0906 0.48199,-0.12091 1.92579,-0.12891 1.76432,-0.0103 3.78506,-0.18547 4.88672,-0.42187 0.22855,-0.049 0.63592,-0.1977 0.9043,-0.33203 0.19605,-0.0981 0.3291,-0.15629 0.43945,-0.17969 z"
         style="fill:#ff0000;fill-opacity:1;stroke:#ff0000;stroke-width:0.0192407;stroke-miterlimit:4;stroke-dasharray:none;stroke-opacity:1" />
      <path
         inkscape:connector-curvature="0"
         id="path4176-2"
         d="m 127.72935,329.64794 c -0.0917,0.95729 -1.42085,2.56548 -2.64648,3.20312 -1.27588,0.66379 -1.5559,0.44331 -0.625,-0.49219 0.89321,-0.89761 1.32863,-1.94386 1.24023,-2.98437 -0.0434,-0.51129 -0.0328,-0.54449 0.33399,-0.99024 0.44114,-0.53604 0.70659,-0.7792 0.85742,-0.7832 0.38357,-0.011 0.91334,1.27988 0.83984,2.04688 z"
         style="fill:#ff0000;fill-opacity:1;stroke:#ff0000;stroke-width:0.0192407;stroke-miterlimit:4;stroke-dasharray:none;stroke-opacity:1" />
      <path
         inkscape:connector-curvature="0"
         id="path4170-9"
         d="m 133.61278,330.6524 c 0.27894,0.12099 0.98188,0.97736 0.96195,1.17227 -0.0291,0.28446 -0.32327,0.66413 -0.68546,0.88606 -0.31613,0.19371 -0.90999,0.30748 -1.00325,0.19192 -0.0733,-0.0908 -1.89827,-0.52081 -3.26287,-0.76941 -0.75758,-0.13796 -1.36471,-0.29204 -1.42375,-0.36151 -0.0815,-0.0952 -0.0702,-0.2281 0.0556,-0.62257 l 0.15931,-0.50203 0.79461,0.0243 c 0.43628,0.0133 1.56487,-0.003 2.50886,-0.0361 0.94399,-0.033 1.79706,-0.0254 1.89481,0.017 z"
         style="fill:#ff0000;fill-opacity:1;stroke:#ff0000;stroke-width:0.0192407;stroke-miterlimit:4;stroke-dasharray:none;stroke-opacity:1" />
      <path
         inkscape:connector-curvature="0"
         id="path4168-1"
         d="m 116.43638,329.11099 c 0.14836,-0.0569 1.01119,0.41289 1.38281,0.7539 0.14344,0.13163 0.22443,0.34314 0.26563,0.69141 0.0823,0.69488 0.71663,1.61566 1.49609,2.17187 0.31675,0.22603 0.61777,0.41016 0.66797,0.41016 0.18579,0 0.56868,0.37865 0.51758,0.51172 -0.0667,0.17333 -0.73388,0.1699 -1.39453,-0.008 -1.24035,-0.33399 -2.85364,-1.52551 -3.20508,-2.36914 -0.28136,-0.67538 -0.1145,-2.01474 0.26953,-2.16211 z"
         style="fill:#ff0000;fill-opacity:1;stroke:#ff0000;stroke-width:0.0192407;stroke-miterlimit:4;stroke-dasharray:none;stroke-opacity:1" />
      <path
         inkscape:connector-curvature="0"
         id="path4164-2"
         d="m 124.10994,330.55576 c 0.0937,0.13408 -0.2656,0.68053 -0.49686,0.75492 -0.10038,0.0323 -0.72647,0.0726 -1.3907,0.0906 -1.80304,0.0487 -2.23192,0.004 -2.39126,-0.25146 -0.16128,-0.25845 -0.23135,-0.81463 -0.0997,-0.79128 0.32831,0.0582 2.60339,0.13972 3.37841,0.12103 0.28306,-0.007 0.52208,-0.003 0.69638,0.0104 0.17431,0.0131 0.28284,0.0358 0.30374,0.0657 z"
         style="fill:#ff0000;fill-opacity:1;stroke:#ff0000;stroke-width:0.0192407;stroke-miterlimit:4;stroke-dasharray:none;stroke-opacity:1" />
      <path
         inkscape:connector-curvature="0"
         id="path4156-0"
         d="m 125.93238,334.34318 c 0.89246,0.009 1.47678,0.21247 2.02148,0.61133 0.56515,0.41383 0.84708,0.86452 0.76758,1.22656 -0.0674,0.30671 -0.46113,0.88184 -0.99414,1.45117 -0.77333,0.82603 -1.11734,1.41298 -1.30078,2.2207 -0.1069,0.47069 -0.16398,0.55679 -0.56055,0.83008 -0.24338,0.16772 -0.48019,0.30469 -0.52539,0.30469 -0.16674,0 -0.44403,-0.36894 -0.55469,-0.73828 -0.0987,-0.32956 -0.0857,-0.50748 0.0977,-1.33399 0.2645,-1.19152 0.24312,-2.21187 -0.0527,-2.60937 -0.15988,-0.21486 -0.27184,-0.26216 -0.66211,-0.28516 -0.50696,-0.0299 -2.96666,0.47972 -4.17382,0.86524 -0.38091,0.12165 -0.78032,0.22213 -0.88672,0.22265 -0.28593,0.002 -0.51492,-0.30839 -0.56642,-0.76562 -0.0434,-0.38504 -0.0303,-0.40958 0.26563,-0.54883 0.47023,-0.22128 1.80794,-0.58902 3.25782,-0.89648 1.77537,-0.37648 2.97472,-0.56369 3.86719,-0.55469 z"
         style="fill:#ff0000;fill-opacity:1;stroke:#ff0000;stroke-width:0.0192407;stroke-miterlimit:4;stroke-dasharray:none;stroke-opacity:1" />
      <path
         inkscape:connector-curvature="0"
         id="rect4149-9"
         d="m 117.34846,336.02114 c 0.19572,0.0379 0.26641,0.29295 0.53125,1.03907 0.59437,1.67437 1.23329,2.23957 2.64064,2.33007 0.46225,0.0297 1.06947,-0.0123 1.6914,-0.11523 0.53327,-0.0882 1.11522,-0.16492 1.29297,-0.16992 l 0.32227,-0.01 0.0293,0.50195 c 0.0157,0.27663 0.002,0.60445 -0.0293,0.72852 -0.0561,0.22347 -0.0639,0.22587 -0.85938,0.16797 -0.44165,-0.0321 -1.36319,-0.0191 -2.04883,0.0293 -0.68563,0.0484 -1.43357,0.10996 -1.66211,0.13476 -0.67972,0.0739 -0.9905,-0.0908 -1.89453,-1.00195 -0.68334,-0.68876 -0.87791,-0.95289 -1.09961,-1.48438 -0.3096,-0.74203 -0.41957,-1.61201 -0.2246,-1.77343 0.0688,-0.057 0.40839,-0.17753 0.7539,-0.26953 0.27743,-0.0738 0.43922,-0.13013 0.55664,-0.10743 z"
         style="fill:#ff0000;fill-opacity:1;stroke:#ff0000;stroke-width:0.0192407;stroke-miterlimit:4;stroke-dasharray:none;stroke-opacity:1" />
      <text
         xml:space="preserve"
         style="font-style:normal;font-weight:normal;font-size:6.14563847px;line-height:125%;font-family:sans-serif;letter-spacing:0px;word-spacing:0px;fill:#000000;fill-opacity:1;stroke:none;stroke-width:1px;stroke-linecap:butt;stroke-linejoin:miter;stroke-opacity:1"
         x="63.641521"
         y="348.61984"
         id="text4352"
         sodipodi:linespacing="125%"><tspan
           sodipodi:role="line"
           x="63.641521"
           y="348.61984"
           id="tspan4356">&quot;double happiness&quot;</tspan></text>
    </g>
  </g>
  <path
     inkscape:connector-curvature="0"
     style="fill:none;stroke:#dd0022;stroke-width:16.0015748;stroke-miterlimit:4;stroke-dasharray:none"
     d="m 80,56.174711 0,43 m 84,0 0,-43 m -118,25 68,0 m 16,0 68,0 m 13,25.999999 -178,0 m 21,25 51,0 0,25 -51,0 z m 0,76 51,0 0,25 -51,0 z m 85,0 51,0 0,25 -51,0 z m 0,-76 51,0 0,25 -51,0 z m 25,33 0,42 m -84,0 0,-42 m -50,17.5 184,0 z"
     id="path4" />
</svg>
