<?xml version="1.0" encoding="UTF-8" standalone="no"?>
<!-- Created with Inkscape (http://www.inkscape.org/) -->

<svg
   xmlns:dc="http://purl.org/dc/elements/1.1/"
   xmlns:cc="http://creativecommons.org/ns#"
   xmlns:rdf="http://www.w3.org/1999/02/22-rdf-syntax-ns#"
   xmlns:svg="http://www.w3.org/2000/svg"
   xmlns="http://www.w3.org/2000/svg"
   xmlns:sodipodi="http://sodipodi.sourceforge.net/DTD/sodipodi-0.dtd"
   xmlns:inkscape="http://www.inkscape.org/namespaces/inkscape"
   width="210mm"
   height="297mm"
   viewBox="0 0 744.09448819 1052.3622047"
   id="svg2"
   version="1.1"
   inkscape:version="0.91 r13725"
   sodipodi:docname="floret.svg">
  <defs
     id="defs4" />
  <sodipodi:namedview
     id="base"
     pagecolor="#ffffff"
     bordercolor="#666666"
     borderopacity="1.0"
     inkscape:pageopacity="0.0"
     inkscape:pageshadow="2"
     inkscape:zoom="1"
     inkscape:cx="576.22118"
     inkscape:cy="668.58206"
     inkscape:document-units="px"
     inkscape:current-layer="layer1"
     showgrid="false"
     inkscape:snap-object-midpoints="true"
     inkscape:object-nodes="false"
     inkscape:snap-intersection-paths="false"
     inkscape:snap-smooth-nodes="false"
     inkscape:snap-center="true"
     inkscape:window-width="1920"
     inkscape:window-height="1017"
     inkscape:window-x="-8"
     inkscape:window-y="-8"
     inkscape:window-maximized="1"
     inkscape:snap-global="true"
     inkscape:snap-bbox="false"
     inkscape:snap-grids="false"
     inkscape:object-paths="true" />
  <metadata
     id="metadata7">
    <rdf:RDF>
      <cc:Work
         rdf:about="">
        <dc:format>image/svg+xml</dc:format>
        <dc:type
           rdf:resource="http://purl.org/dc/dcmitype/StillImage" />
      </cc:Work>
    </rdf:RDF>
  </metadata>
  <g
     inkscape:label="Laag 1"
     inkscape:groupmode="layer"
     id="layer1">
    <circle
       r="219.59363"
       cy="458.56961"
       cx="381.91922"
       id="path4138-0-2-0-1"
       style="opacity:0.72600002;fill:#101010;fill-opacity:0.37619048;fill-rule:nonzero;stroke:#717171;stroke-width:0;stroke-linecap:butt;stroke-linejoin:round;stroke-miterlimit:4;stroke-dasharray:none;stroke-dashoffset:0;stroke-opacity:1" />
    <path
       style="opacity:0.72600002;fill:#101010;fill-opacity:0.37619048;fill-rule:nonzero;stroke:#717171;stroke-width:0;stroke-linecap:butt;stroke-linejoin:round;stroke-miterlimit:4;stroke-dasharray:none;stroke-dashoffset:0;stroke-opacity:1"
       d="m 229.50195,142.36914 c 0.89649,15.59866 -4.48847,30.52686 -21.5178,46.3701 -17.02933,15.84325 -30.00294,45.30955 -30.05446,76.20607 0.0444,12.23912 2.12016,24.38598 6.14258,35.94531 -52.76909,-6.14725 -90.623407,26.16536 -108.001958,55.51758 0.08478,-0.25355 0.164473,-0.50836 0.25,-0.76172 -7.907128,13.46557 -21.225801,22.8373 -36.605468,25.54102 l 0.109375,0.48438 c 12.612714,9.07515 20.939923,23.03006 23.462518,52.35801 2.522595,29.32794 31.114618,66.35198 71.945683,80.86659 -30.48844,36.6841 -39.393084,78.26031 -24.38231,119.31041 4.94242,13.25644 3.71274,29.20663 -3.6548,42.63491 l 0.0723,0.3164 c 14.86142,-4.23123 30.82788,-1.79951 46.29032,8.64682 39.06318,22.2587 82.80977,22.48867 118.54562,0.73014 5.20884,43.89518 36.05516,80.47267 63.97545,89.12661 27.92028,8.65394 39.75977,19.6864 45.66517,33.99643 l 0.0605,0.0293 0.041,-0.0215 c 6.11697,-14.85076 18.6091,-26.14801 46.70931,-34.99985 28.10022,-8.85184 57.94869,-45.03016 63.0153,-88.16808 40.20111,22.29112 84.5802,21.29468 108.7301,5.34271 24.14991,-15.95198 40.46,-18.52477 55.61365,-14.15717 l 0.18946,-0.0918 c -7.71169,-13.95559 -8.76522,-30.63215 1.77251,-58.15067 10.53773,-27.51852 -3.40386,-77.47602 -29.4483,-104.54465 44.06362,-15.65342 73.52014,-57.32843 73.57227,-104.08984 -0.0299,-25.37532 -8.78505,-49.96854 -24.79688,-69.6543 -20.97579,-25.86889 -52.49248,-40.90762 -85.79687,-40.93945 -3.97453,0.0433 -7.94383,0.30084 -11.89063,0.77149 14.13381,-40.90965 -2.41406,-91.31086 -20.9545,-109.17177 C 540.02064,173.95171 533.9272,158.7674 534.73825,143.1504 l -0.27148,-0.33984 c -11.80254,10.43896 -27.6216,15.11602 -62.4035,13.35351 -34.7819,-1.7625 -69.94175,17.5945 -90.20197,49.51172 -20.28218,-31.95175 -55.49436,-51.31366 -90.24145,-49.68014 -34.74709,1.63352 -50.36979,-3.20811 -61.99879,-13.6265 z m 152.24414,181.8457 c 20.28218,31.95175 55.49436,51.31366 93.33985,51.32422 3.97452,-0.0433 7.94382,-0.30083 11.89062,-0.77148 -4.03997,11.58782 -6.12312,23.76725 -6.16406,36.03906 0.0184,29.14145 11.53787,57.09794 32.05469,77.79297 -39.62246,14.1051 -67.81497,49.46382 -72.74219,91.23242 -17.49442,-10.92446 -37.69517,-16.73911 -58.32031,-16.78711 -20.64392,0.0239 -40.86907,5.82541 -58.38672,16.74805 -4.94058,-41.74955 -33.12529,-77.08753 -72.73047,-91.18945 20.53782,-20.68711 32.07751,-48.64628 32.10938,-77.79688 -0.0457,-12.23934 -2.12274,-24.3862 -6.14649,-35.94531 3.94201,0.43862 7.90477,0.66486 11.87109,0.67773 37.80454,-0.05 72.96439,-19.407 93.22461,-51.32422 z"
       id="path4136-7-2"
       inkscape:connector-curvature="0"
       sodipodi:nodetypes="ccccccccccccccccccccccccccccccccccccccccccccccccccc" />
    <g
       id="g4210"
       transform="matrix(0.66574113,0,0,0.66574113,-1730.9665,-1638.702)">
      <path
         inkscape:transform-center-y="15.990366"
         d="M 404.06104,681.32358 151.57939,559.73483 89.22156,286.52737 263.94428,67.432 l 280.23349,-7e-6 174.72274,219.095367 -62.35781,273.20745 z"
         inkscape:randomized="0"
         inkscape:rounded="0"
         inkscape:flatsided="true"
         sodipodi:arg2="2.0195953"
         sodipodi:arg1="1.5707963"
         sodipodi:r2="290.95541"
         sodipodi:r1="322.93616"
         sodipodi:cy="358.38742"
         sodipodi:cx="404.06104"
         sodipodi:sides="7"
         id="path4136"
         style="opacity:0.72600002;fill:#101010;fill-opacity:0.37619048;fill-rule:nonzero;stroke:#717171;stroke-width:0;stroke-linecap:butt;stroke-linejoin:round;stroke-miterlimit:4;stroke-dasharray:none;stroke-dashoffset:0;stroke-opacity:1"
         sodipodi:type="star" />
      <circle
         r="166.12106"
         cy="67.431999"
         cx="263.94427"
         id="path4138"
         style="opacity:0.72600002;fill:#101010;fill-opacity:0.37619048;fill-rule:nonzero;stroke:#717171;stroke-width:0;stroke-linecap:butt;stroke-linejoin:round;stroke-miterlimit:4;stroke-dasharray:none;stroke-dashoffset:0;stroke-opacity:1" />
      <circle
         r="166.12106"
         cy="67.431992"
         cx="544.1778"
         id="path4138-0"
         style="opacity:0.72600002;fill:#101010;fill-opacity:0.37619048;fill-rule:nonzero;stroke:#717171;stroke-width:0;stroke-linecap:butt;stroke-linejoin:round;stroke-miterlimit:4;stroke-dasharray:none;stroke-dashoffset:0;stroke-opacity:1" />
      <circle
         r="166.12106"
         cy="286.52734"
         cx="718.90051"
         id="path4138-0-7"
         style="opacity:0.72600002;fill:#101010;fill-opacity:0.37619048;fill-rule:nonzero;stroke:#717171;stroke-width:0;stroke-linecap:butt;stroke-linejoin:round;stroke-miterlimit:4;stroke-dasharray:none;stroke-dashoffset:0;stroke-opacity:1" />
      <circle
         r="166.12106"
         cy="559.7348"
         cx="656.54272"
         id="path4138-0-2"
         style="opacity:0.72600002;fill:#101010;fill-opacity:0.37619048;fill-rule:nonzero;stroke:#717171;stroke-width:0;stroke-linecap:butt;stroke-linejoin:round;stroke-miterlimit:4;stroke-dasharray:none;stroke-dashoffset:0;stroke-opacity:1" />
      <circle
         r="166.12106"
         cy="681.32355"
         cx="404.06104"
         id="path4138-0-5"
         style="opacity:0.72600002;fill:#101010;fill-opacity:0.37619048;fill-rule:nonzero;stroke:#717171;stroke-width:0;stroke-linecap:butt;stroke-linejoin:round;stroke-miterlimit:4;stroke-dasharray:none;stroke-dashoffset:0;stroke-opacity:1" />
      <circle
         r="166.12106"
         cy="559.7348"
         cx="151.57939"
         id="path4138-0-8"
         style="opacity:0.72600002;fill:#101010;fill-opacity:0.37619048;fill-rule:nonzero;stroke:#717171;stroke-width:0;stroke-linecap:butt;stroke-linejoin:round;stroke-miterlimit:4;stroke-dasharray:none;stroke-dashoffset:0;stroke-opacity:1" />
      <circle
         r="166.12106"
         cy="286.52737"
         cx="89.221558"
         id="path4138-0-59"
         style="opacity:0.72600002;fill:#101010;fill-opacity:0.37619048;fill-rule:nonzero;stroke:#717171;stroke-width:0;stroke-linecap:butt;stroke-linejoin:round;stroke-miterlimit:4;stroke-dasharray:none;stroke-dashoffset:0;stroke-opacity:1" />
    </g>
    <path
       style="opacity:0.72600002;fill:#ff0000;fill-opacity:0.37619048;fill-rule:nonzero;stroke:#717171;stroke-width:0;stroke-linecap:butt;stroke-linejoin:round;stroke-miterlimit:4;stroke-dasharray:none;stroke-dashoffset:0;stroke-opacity:1"
       d="m 381.74371,324.12293 a 110.59362,110.59362 0 0 1 -23.82235,26.58803 110.59362,110.59362 0 0 1 23.88087,-2.75138 110.59362,110.59362 0 0 1 23.55192,2.60835 110.59362,110.59362 0 0 1 -23.61044,-26.445 z m -69.7286,48.71482 a 110.59362,110.59362 0 0 1 -23.49467,2.60836 110.59362,110.59362 0 0 1 -11.9131,-0.68395 110.59362,110.59362 0 0 1 6.16456,34.8591 110.59362,110.59362 0 0 1 29.24321,-36.78351 z m 139.55213,0.003 a 110.59362,110.59362 0 0 1 29.30692,36.68597 110.59362,110.59362 0 0 1 6.10085,-34.84999 110.59362,110.59362 0 0 1 -11.891,0.76977 110.59362,110.59362 0 0 1 -23.51677,-2.60575 z M 271.2372,459.36499 a 110.59362,110.59362 0 0 1 -20.65488,29.10797 110.59362,110.59362 0 0 1 31.41073,17.4588 110.59362,110.59362 0 0 1 -10.75585,-46.56677 z m 221.11707,0.0312 a 110.59362,110.59362 0 0 1 -10.71431,46.41854 110.59362,110.59362 0 0 1 31.3861,-17.35997 110.59362,110.59362 0 0 1 -20.67179,-29.05857 z m -178.88671,85.95733 a 110.59362,110.59362 0 0 1 9.96661,34.50151 110.59362,110.59362 0 0 1 33.05298,-13.76602 110.59362,110.59362 0 0 1 -43.01959,-20.73549 z m 136.57053,0.19504 a 110.59362,110.59362 0 0 1 -42.913,20.52485 110.59362,110.59362 0 0 1 33.01137,13.675 110.59362,110.59362 0 0 1 9.90163,-34.19985 z"
       id="path4136-7"
       inkscape:connector-curvature="0" />
    <g
       id="g4468"
       transform="matrix(0.66574113,0,0,0.66574113,-774.36144,-1677.6993)">
      <path
         id="path4136-7-6"
         d="m -1137.2129,1273.0418 a 166.12106,166.12106 0 0 1 -35.7832,39.9375 166.12106,166.12106 0 0 1 35.8711,-4.1328 166.12106,166.12106 0 0 1 35.377,3.918 166.12106,166.12106 0 0 1 -35.4649,-39.7227 z m -104.7383,73.1739 a 166.12106,166.12106 0 0 1 -35.291,3.9179 166.12106,166.12106 0 0 1 -17.8945,-1.0273 166.12106,166.12106 0 0 1 9.2597,52.3613 166.12106,166.12106 0 0 1 43.9258,-55.2519 z m 209.6192,0 a 166.12106,166.12106 0 0 1 44.02145,55.1054 166.12106,166.12106 0 0 1 9.164,-52.3476 166.12106,166.12106 0 0 1 -17.8613,1.1562 166.12106,166.12106 0 0 1 -35.32415,-3.914 z m -270.8711,129.9668 a 166.12106,166.12106 0 0 1 -31.0254,43.7226 166.12106,166.12106 0 0 1 47.1816,26.2246 166.12106,166.12106 0 0 1 -16.1562,-69.9472 z m 332.13665,0.047 a 166.12106,166.12106 0 0 1 -16.0938,69.7246 166.12106,166.12106 0 0 1 47.1446,-26.0762 166.12106,166.12106 0 0 1 -31.0508,-43.6484 z m -268.70305,129.1152 a 166.12106,166.12106 0 0 1 14.9707,51.8242 166.12106,166.12106 0 0 1 49.6484,-20.6777 166.12106,166.12106 0 0 1 -64.6191,-31.1465 z m 205.1406,0.293 a 166.12106,166.12106 0 0 1 -64.459,30.83 166.12106,166.12106 0 0 1 49.5859,20.5411 166.12106,166.12106 0 0 1 14.8731,-51.3711 z"
         style="opacity:0.72600002;fill:#ff0000;fill-opacity:0.37619048;fill-rule:nonzero;stroke:#717171;stroke-width:0;stroke-linecap:butt;stroke-linejoin:round;stroke-miterlimit:4;stroke-dasharray:none;stroke-dashoffset:0;stroke-opacity:1"
         inkscape:connector-curvature="0" />
      <path
         inkscape:transform-center-y="26.109248"
         d="m -1137.1221,2002.4009 -412.2548,-198.5314 -101.8186,-446.0962 285.2892,-357.7414 457.56841,0 285.28922,357.7414 -101.81853,446.0962 z"
         inkscape:randomized="0"
         inkscape:rounded="0"
         inkscape:flatsided="true"
         sodipodi:arg2="2.0195953"
         sodipodi:arg1="1.5707963"
         sodipodi:r2="475.07526"
         sodipodi:r1="527.29376"
         sodipodi:cy="1475.1072"
         sodipodi:cx="-1137.1221"
         sodipodi:sides="7"
         id="path4136-7-2-0"
         style="opacity:0.72600002;fill:#101010;fill-opacity:0.37619048;fill-rule:nonzero;stroke:#717171;stroke-width:0;stroke-linecap:butt;stroke-linejoin:round;stroke-miterlimit:4;stroke-dasharray:none;stroke-dashoffset:0;stroke-opacity:1"
         sodipodi:type="star" />
      <circle
         r="166.12106"
         cy="1184.1519"
         cx="-1277.2391"
         id="path4138-6-2-8"
         style="opacity:0.72600002;fill:#101010;fill-opacity:0.37619048;fill-rule:nonzero;stroke:#717171;stroke-width:0;stroke-linecap:butt;stroke-linejoin:round;stroke-miterlimit:4;stroke-dasharray:none;stroke-dashoffset:0;stroke-opacity:1" />
      <circle
         r="166.12106"
         cy="1184.1519"
         cx="-997.00555"
         id="path4138-0-6-5-8"
         style="opacity:0.72600002;fill:#101010;fill-opacity:0.37619048;fill-rule:nonzero;stroke:#717171;stroke-width:0;stroke-linecap:butt;stroke-linejoin:round;stroke-miterlimit:4;stroke-dasharray:none;stroke-dashoffset:0;stroke-opacity:1" />
      <circle
         r="166.12106"
         cy="1403.2472"
         cx="-822.2829"
         id="path4138-0-7-2-4-0"
         style="opacity:0.72600002;fill:#101010;fill-opacity:0.37619048;fill-rule:nonzero;stroke:#717171;stroke-width:0;stroke-linecap:butt;stroke-linejoin:round;stroke-miterlimit:4;stroke-dasharray:none;stroke-dashoffset:0;stroke-opacity:1" />
      <circle
         r="166.12106"
         cy="1676.4546"
         cx="-884.64081"
         id="path4138-0-2-4-9-4"
         style="opacity:0.72600002;fill:#101010;fill-opacity:0.37619048;fill-rule:nonzero;stroke:#717171;stroke-width:0;stroke-linecap:butt;stroke-linejoin:round;stroke-miterlimit:4;stroke-dasharray:none;stroke-dashoffset:0;stroke-opacity:1" />
      <circle
         r="166.12106"
         cy="1798.0433"
         cx="-1137.1226"
         id="path4138-0-5-9-5-9"
         style="opacity:0.72600002;fill:#101010;fill-opacity:0.37619048;fill-rule:nonzero;stroke:#717171;stroke-width:0;stroke-linecap:butt;stroke-linejoin:round;stroke-miterlimit:4;stroke-dasharray:none;stroke-dashoffset:0;stroke-opacity:1" />
      <circle
         r="166.12106"
         cy="1676.4546"
         cx="-1389.6041"
         id="path4138-0-8-0-7-9"
         style="opacity:0.72600002;fill:#101010;fill-opacity:0.37619048;fill-rule:nonzero;stroke:#717171;stroke-width:0;stroke-linecap:butt;stroke-linejoin:round;stroke-miterlimit:4;stroke-dasharray:none;stroke-dashoffset:0;stroke-opacity:1" />
      <circle
         r="166.12106"
         cy="1403.2472"
         cx="-1451.9618"
         id="path4138-0-59-0-3-7"
         style="opacity:0.72600002;fill:#101010;fill-opacity:0.37619048;fill-rule:nonzero;stroke:#717171;stroke-width:0;stroke-linecap:butt;stroke-linejoin:round;stroke-miterlimit:4;stroke-dasharray:none;stroke-dashoffset:0;stroke-opacity:1" />
      <path
         inkscape:transform-center-y="557.68846"
         inkscape:transform-center-x="-0.00097223798"
         inkscape:connector-curvature="0"
         id="path4302-2"
         d="m -1211.1211,1952.7957 a 80,80 0 0 0 -80,80 80,80 0 0 0 80,80 80,80 0 0 0 74.0078,-49.7344 80,80 0 0 0 73.9922,49.7344 80,80 0 0 0 79.99995,-80 80,80 0 0 0 -79.99995,-80 80,80 0 0 0 -74.0098,49.7344 80,80 0 0 0 -73.9902,-49.7344 z"
         style="opacity:0.72600002;fill:#ff0000;fill-opacity:0.37619048;fill-rule:nonzero;stroke:#717171;stroke-width:0;stroke-linecap:butt;stroke-linejoin:round;stroke-miterlimit:4;stroke-dasharray:none;stroke-dashoffset:0;stroke-opacity:1" />
      <path
         inkscape:transform-center-y="347.17015"
         inkscape:transform-center-x="436.45083"
         inkscape:connector-curvature="0"
         id="path4302-5-3"
         d="m -1557.0304,1714.5632 a 80,80 0 0 0 -112.4098,-12.8074 80,80 0 0 0 -12.8075,112.4098 80,80 0 0 0 84.9935,26.9587 80,80 0 0 0 7.1388,88.8672 80,80 0 0 0 112.4098,12.8075 80,80 0 0 0 12.8074,-112.4098 80,80 0 0 0 -84.9947,-26.9603 80,80 0 0 0 -7.1375,-88.8657 z"
         style="opacity:0.72600002;fill:#ff0000;fill-opacity:0.37619048;fill-rule:nonzero;stroke:#717171;stroke-width:0;stroke-linecap:butt;stroke-linejoin:round;stroke-miterlimit:4;stroke-dasharray:none;stroke-dashoffset:0;stroke-opacity:1" />
      <path
         inkscape:transform-center-y="347.98836"
         inkscape:transform-center-x="-435.79872"
         inkscape:connector-curvature="0"
         id="path4302-4-8"
         d="m -810.01315,1831.0031 a 80,80 0 0 0 12.5961,112.4337 80,80 0 0 0 112.43371,-12.5961 80,80 0 0 0 7.3155,-88.8659 80,80 0 0 0 85.0342,-26.7867 80,80 0 0 0 -12.5961,-112.4337 80,80 0 0 0 -112.4337,12.5962 80,80 0 0 0 -7.3168,88.8674 80,80 0 0 0 -85.03291,26.7851 z"
         style="opacity:0.72600002;fill:#ff0000;fill-opacity:0.37619048;fill-rule:nonzero;stroke:#717171;stroke-width:0;stroke-linecap:butt;stroke-linejoin:round;stroke-miterlimit:4;stroke-dasharray:none;stroke-dashoffset:0;stroke-opacity:1" />
      <path
         inkscape:transform-center-y="-123.31505"
         inkscape:transform-center-x="-543.88402"
         inkscape:connector-curvature="0"
         id="path4302-4-7-7"
         d="m -654.89524,1441.6497 a 80,80 0 0 0 95.7091,60.3305 80,80 0 0 0 60.3305,-95.7091 80,80 0 0 0 -64.8677,-61.1788 80,80 0 0 0 32.1424,-83.1578 80,80 0 0 0 -95.7091,-60.3305 80,80 0 0 0 -60.3305,95.7092 80,80 0 0 0 64.8681,61.1808 80,80 0 0 0 -32.1428,83.1557 z"
         style="opacity:0.72600002;fill:#ff0000;fill-opacity:0.37619048;fill-rule:nonzero;stroke:#717171;stroke-width:0;stroke-linecap:butt;stroke-linejoin:round;stroke-miterlimit:4;stroke-dasharray:none;stroke-dashoffset:0;stroke-opacity:1" />
      <path
         inkscape:transform-center-y="-502.00939"
         inkscape:transform-center-x="-242.90532"
         inkscape:connector-curvature="0"
         id="path4302-4-7-0-1"
         d="m -862.44965,1077.342 a 80,80 0 0 0 106.85751,-37.1681 80,80 0 0 0 -37.16811,-106.85752 80,80 0 0 0 -88.2811,12.53417 80,80 0 0 0 -44.9426,-76.99682 80,80 0 0 0 -106.85745,37.16807 80,80 0 0 0 37.16805,106.8576 80,80 0 0 0 88.2829,-12.5333 80,80 0 0 0 44.9408,76.9959 z"
         style="opacity:0.72600002;fill:#ff0000;fill-opacity:0.37619048;fill-rule:nonzero;stroke:#717171;stroke-width:0;stroke-linecap:butt;stroke-linejoin:round;stroke-miterlimit:4;stroke-dasharray:none;stroke-dashoffset:0;stroke-opacity:1" />
      <path
         inkscape:transform-center-y="-502.48966"
         inkscape:transform-center-x="241.91023"
         inkscape:connector-curvature="0"
         id="path4302-4-7-0-6-3"
         d="m -1277.655,1012.6003 a 80,80 0 0 0 37.3802,-106.78349 80,80 0 0 0 -106.7835,-37.38015 80,80 0 0 0 -45.1094,76.91431 80,80 0 0 0 -88.242,-12.71608 80,80 0 0 0 -37.3801,106.78351 80,80 0 0 0 106.7835,37.3802 80,80 0 0 0 45.1112,-76.91516 80,80 0 0 0 88.2401,12.71686 z"
         style="opacity:0.72600002;fill:#ff0000;fill-opacity:0.37619048;fill-rule:nonzero;stroke:#717171;stroke-width:0;stroke-linecap:butt;stroke-linejoin:round;stroke-miterlimit:4;stroke-dasharray:none;stroke-dashoffset:0;stroke-opacity:1" />
      <path
         inkscape:transform-center-y="-122.87315"
         inkscape:transform-center-x="543.98401"
         inkscape:connector-curvature="0"
         id="path4302-4-7-0-8-8"
         d="m -1586.7678,1297.6787 a 80,80 0 0 0 -60.4078,-95.6602 80,80 0 0 0 -95.6604,60.4078 80,80 0 0 0 32.2063,83.147 80,80 0 0 0 -64.8147,61.216 80,80 0 0 0 60.4078,95.6603 80,80 0 0 0 95.6604,-60.4078 80,80 0 0 0 -32.2058,-83.149 80,80 0 0 0 64.8142,-61.2141 z"
         style="opacity:0.72600002;fill:#ff0000;fill-opacity:0.37619048;fill-rule:nonzero;stroke:#717171;stroke-width:0;stroke-linecap:butt;stroke-linejoin:round;stroke-miterlimit:4;stroke-dasharray:none;stroke-dashoffset:0;stroke-opacity:1" />
    </g>
    <circle
       r="110.59363"
       cy="458.56961"
       cx="381.91922"
       id="path4138-0-2-0"
       style="opacity:0.72600002;fill:#101010;fill-opacity:0.37619048;fill-rule:nonzero;stroke:#717171;stroke-width:0;stroke-linecap:butt;stroke-linejoin:round;stroke-miterlimit:4;stroke-dasharray:none;stroke-dashoffset:0;stroke-opacity:1" />
  </g>
</svg>
