<?xml version="1.0" encoding="UTF-8" standalone="no"?>
<!-- Created with Inkscape (http://www.inkscape.org/) -->

<svg
   xmlns:dc="http://purl.org/dc/elements/1.1/"
   xmlns:cc="http://creativecommons.org/ns#"
   xmlns:rdf="http://www.w3.org/1999/02/22-rdf-syntax-ns#"
   xmlns:svg="http://www.w3.org/2000/svg"
   xmlns="http://www.w3.org/2000/svg"
   xmlns:sodipodi="http://sodipodi.sourceforge.net/DTD/sodipodi-0.dtd"
   xmlns:inkscape="http://www.inkscape.org/namespaces/inkscape"
   width="210mm"
   height="297mm"
   viewBox="0 0 744.09448819 1052.3622047"
   id="svg2"
   version="1.1"
   inkscape:version="0.91 r13725"
   sodipodi:docname="floret.svg">
  <defs
     id="defs4" />
  <sodipodi:namedview
     id="base"
     pagecolor="#ffffff"
     bordercolor="#666666"
     borderopacity="1.0"
     inkscape:pageopacity="0.0"
     inkscape:pageshadow="2"
     inkscape:zoom="0.35355339"
     inkscape:cx="1792.5842"
     inkscape:cy="265.83677"
     inkscape:document-units="px"
     inkscape:current-layer="layer1"
     showgrid="false"
     inkscape:snap-object-midpoints="true"
     inkscape:object-nodes="false"
     inkscape:snap-intersection-paths="false"
     inkscape:snap-smooth-nodes="false"
     inkscape:snap-center="true"
     inkscape:window-width="2560"
     inkscape:window-height="1381"
     inkscape:window-x="0"
     inkscape:window-y="0"
     inkscape:window-maximized="1"
     inkscape:snap-global="true"
     inkscape:snap-bbox="false"
     inkscape:snap-grids="false"
     inkscape:object-paths="true"
     inkscape:snap-others="true"
     inkscape:snap-nodes="false"
     showguides="false" />
  <metadata
     id="metadata7">
    <rdf:RDF>
      <cc:Work
         rdf:about="">
        <dc:format>image/svg+xml</dc:format>
        <dc:type
           rdf:resource="http://purl.org/dc/dcmitype/StillImage" />
      </cc:Work>
    </rdf:RDF>
  </metadata>
  <g
     inkscape:label="Laag 1"
     inkscape:groupmode="layer"
     id="layer1">
    <path
       style="opacity:0.72600002;fill:#101010;fill-opacity:0.37619048;fill-rule:nonzero;stroke:#717171;stroke-width:0;stroke-linecap:butt;stroke-linejoin:round;stroke-miterlimit:4;stroke-dasharray:none;stroke-dashoffset:0;stroke-opacity:1"
       d="M 229.50195 142.36914 C 229.51485 142.59362 229.51315 142.81681 229.52344 143.04102 C 229.43311 142.96221 229.3379 142.89002 229.24805 142.81055 L 228.97656 143.15039 C 229.69771 157.03624 224.93591 170.5853 210.84375 185.97266 C 209.92727 186.89233 208.97927 187.81268 207.98438 188.73828 C 191.95623 203.65007 179.524 230.63148 178.07422 259.51367 C 182.14463 257.5439 186.54236 255.01888 191.39062 251.81641 C 205.90053 242.23204 227.48766 238.76665 250.59375 242.73242 C 250.60275 242.73442 250.61209 242.73628 250.62109 242.73828 C 262.38576 244.29439 273.79628 248.11186 284.51562 253.92188 C 290.75287 216.895 316.46694 186.72971 341.41797 178.99609 C 345.65322 177.68337 349.39944 176.32668 352.75195 174.91992 C 334.59411 161.95953 313.02149 154.98994 291.61914 155.99609 C 256.87205 157.62961 241.25009 152.78753 229.62109 142.36914 L 229.50195 142.36914 z M 534.09375 142.36914 C 522.46475 152.78753 506.84279 157.62961 472.0957 155.99609 C 450.72875 154.9916 429.19183 161.93632 411.05273 174.85547 C 414.44341 176.28509 418.24564 177.66352 422.54492 178.99609 C 447.49562 186.72962 473.20577 216.89387 479.44336 253.91992 C 490.15776 248.11287 501.56579 244.29764 513.32422 242.74023 C 536.44656 238.76273 558.04943 242.22608 572.56836 251.81641 C 577.31777 254.95358 581.6337 257.43416 585.63477 259.38672 C 584.15502 230.55239 571.73515 203.62825 555.73047 188.73828 C 554.73557 187.81268 553.78757 186.89233 552.87109 185.97266 C 538.77893 170.5853 534.01714 157.03624 534.73828 143.15039 L 534.4668 142.81055 C 534.37694 142.89002 534.28173 142.96221 534.19141 143.04102 C 534.20169 142.81681 534.19999 142.59362 534.21289 142.36914 L 534.09375 142.36914 z M 404.89453 179.56836 C 396.06219 186.85606 388.22414 195.64145 381.85742 205.66992 C 375.51289 195.67639 367.70872 186.9153 358.91406 179.64258 C 354.44301 181.78526 349.34166 183.77357 343.46289 185.5957 C 322.39878 192.12456 297.59047 220.12771 291.43945 254.24805 C 319.08905 241.86783 349.70572 234.97656 381.91992 234.97656 C 414.18647 234.97656 444.84836 241.89037 472.5332 254.30859 C 466.40056 220.16087 441.57647 192.1284 420.5 185.5957 C 414.55317 183.75247 409.40221 181.7396 404.89453 179.56836 z M 381.9082 246.98438 C 352.12724 247.073 322.72496 253.48515 295.58594 265.70898 C 295.45631 266.45084 295.34961 267.19713 295.23633 267.94141 C 321.73557 285.45442 338.01939 315.23033 338.05469 347.45508 A 4.1291428 4.1291428 0 0 1 338.05469 347.46289 C 338.05464 350.36959 337.91726 353.24303 337.66211 356.08398 C 340.09336 357.49473 342.5987 358.78949 345.17188 359.96484 C 349.84309 357.18366 354.31002 354.05327 358.53711 350.60352 A 110.59362 110.59362 0 0 0 357.92188 350.71094 A 110.59362 110.59362 0 0 0 381.74414 324.12305 A 110.59362 110.59362 0 0 0 405.35352 350.56836 A 110.59362 110.59362 0 0 0 405.0625 350.50586 C 409.20442 353.89456 413.57823 356.97566 418.14844 359.72266 C 420.53942 358.61152 422.87548 357.40137 425.14258 356.08594 C 424.88732 353.24436 424.74809 350.36829 424.74805 347.46094 C 424.7477 315.22286 441.013 285.42613 467.49805 267.88867 C 467.35103 266.95986 467.20608 266.03033 467.0332 265.10547 C 440.21797 253.25268 411.24194 247.04997 381.9082 246.98438 z M 233.61719 248.06641 C 218.20834 247.86085 204.57387 251.39098 195.20117 257.58203 C 189.00161 261.67709 183.3043 264.77984 177.98047 267.05078 C 178.24192 278.57569 180.28079 289.99497 184.07227 300.89062 C 172.62658 299.55728 161.8898 300.04538 151.90625 301.91016 C 151.47031 303.84477 150.95783 305.83616 150.35742 307.90039 A 3.4554175 3.4554175 0 0 1 150.31445 308.04297 C 149.80047 309.56072 149.32269 311.07535 148.88867 312.58594 A 3.4554175 3.4554175 0 0 1 148.84375 312.73438 C 148.22285 314.57979 147.55561 316.47716 146.79297 318.46875 C 142.69727 329.16438 143.20544 345.21674 147.68359 361.31445 C 151.57085 375.28807 158.37877 389.28641 167.04883 400.0625 C 183.56378 338.76899 225.37587 287.89451 280.53906 259.48047 C 270.76476 254.29268 260.38017 250.99473 249.70703 249.58398 L 249.68359 249.58008 A 3.4554175 3.4554175 0 0 1 249.52539 249.55664 C 244.08694 248.61799 238.75347 248.13492 233.61719 248.06641 z M 530.3457 248.06641 C 525.20961 248.1349 519.87584 248.61807 514.4375 249.55664 A 3.4554175 3.4554175 0 0 1 514.35156 249.57031 L 514.31641 249.57617 A 3.4554175 3.4554175 0 0 1 514.26758 249.58203 C 503.56849 250.99494 493.15878 254.30497 483.36328 259.51367 C 538.52917 287.95196 580.3332 338.85661 596.82031 400.17773 C 605.53396 389.38671 612.37578 375.33642 616.27734 361.31445 C 620.75656 345.21637 621.26576 329.16471 617.16992 318.46875 C 616.41059 316.4858 615.74601 314.59665 615.12695 312.75781 A 3.4554175 3.4554175 0 0 1 615.08008 312.60938 C 614.64347 311.08846 614.16303 309.55974 613.64453 308.0293 A 3.4554175 3.4554175 0 0 1 613.59766 307.88672 C 613.00342 305.84273 612.49916 303.87006 612.06641 301.95312 C 602.01066 300.04856 591.18602 299.54593 579.64258 300.89062 C 583.44541 289.96233 585.48491 278.50732 585.73633 266.94727 C 580.48301 264.68563 574.86392 261.61407 568.75977 257.58203 C 559.38723 251.3911 545.75399 247.86093 530.3457 248.06641 z M 478.87891 270.81445 C 478.05231 271.26021 477.23613 271.71962 476.42773 272.18945 C 476.68984 274.98293 476.83822 277.78834 476.85352 280.59766 A 4.1291428 4.1291428 0 0 1 476.85352 280.61914 C 476.85356 313.88045 459.78596 343.19467 433.94531 360.28516 C 434.33869 362.96059 434.86216 365.59345 435.49219 368.18359 C 440.77073 370.21037 446.21809 371.83431 451.78711 373.03906 A 110.59362 110.59362 0 0 0 451.56641 372.83984 A 110.59362 110.59362 0 0 0 475.08398 375.44727 A 110.59362 110.59362 0 0 0 486.97461 374.67578 A 110.59362 110.59362 0 0 0 486.9082 374.87695 C 486.91928 374.87574 486.93033 374.87427 486.94141 374.87305 C 486.59481 375.87041 486.28242 376.87704 485.96484 377.88281 A 110.59362 110.59362 0 0 0 483.44531 387.25977 C 483.40986 387.41976 483.36677 387.57813 483.33203 387.73828 A 110.59362 110.59362 0 0 0 480.875 409.52734 A 110.59362 110.59362 0 0 0 480.8457 409.46875 C 480.83881 409.91503 480.81399 410.36009 480.8125 410.80664 C 480.81568 415.84853 481.17085 420.85349 481.84961 425.79297 C 484.01668 426.85447 486.22821 427.83823 488.49219 428.7207 C 505.64087 412.29876 528.89285 402.1992 554.47852 402.19922 A 4.1291428 4.1291428 0 0 1 554.49023 402.19922 C 564.46403 402.22689 574.34551 403.82659 583.7832 406.90039 C 584.63409 405.9885 585.47224 405.06286 586.28711 404.11133 C 570.84138 346.53118 531.85661 298.15087 478.87891 270.81445 z M 284.09375 271.00586 C 231.2177 298.66651 192.48365 347.33293 177.39258 405.06836 C 177.93744 405.68617 178.4924 406.294 179.05273 406.89453 C 188.48185 403.82463 198.35025 402.22902 208.31055 402.19922 A 4.1291428 4.1291428 0 0 1 208.32422 402.19922 C 233.90989 402.1992 257.16187 412.29874 274.31055 428.7207 C 276.9141 427.70588 279.45517 426.56706 281.92969 425.31641 C 282.56598 420.53166 282.89926 415.68637 282.90234 410.80664 C 282.90083 410.35227 282.87625 409.8994 282.86914 409.44531 A 110.59362 110.59362 0 0 0 282.77148 409.62109 A 110.59362 110.59362 0 0 0 276.60742 374.76172 A 110.59362 110.59362 0 0 0 288.51953 375.44531 A 110.59362 110.59362 0 0 0 312.01562 372.83789 A 110.59362 110.59362 0 0 0 311.72656 373.08008 C 317.01504 371.94612 322.19468 370.43639 327.22461 368.56055 C 327.89683 365.84968 328.44894 363.0901 328.86133 360.28516 C 303.01993 343.1948 285.95114 313.88299 285.95117 280.62109 A 4.1291428 4.1291428 0 0 1 285.95117 280.61523 C 285.95389 277.82645 286.08568 275.04227 286.33203 272.26758 C 285.59267 271.83842 284.84833 271.41491 284.09375 271.00586 z M 468.50195 277.39258 C 446.4339 293.63916 433.00557 319.49775 433.00586 347.46289 C 433.00596 348.60866 433.03452 349.74591 433.07812 350.88086 C 454.62399 335.01758 468.5917 309.47637 468.5957 280.63086 C 468.5897 279.54964 468.55355 278.4711 468.50195 277.39258 z M 294.28906 277.48047 C 294.24496 278.52627 294.20997 279.57113 294.20898 280.61914 C 294.20895 309.46855 308.17703 335.01341 329.72461 350.87891 C 329.76811 349.74596 329.79876 348.61053 329.79883 347.4668 L 329.79883 347.46484 L 329.79883 347.46094 C 329.76704 319.52925 316.34014 293.70789 294.28906 277.48047 z M 144.36914 303.61133 C 136.82939 305.61509 129.7613 308.40042 123.20312 311.77734 C 109.17974 318.74595 96.619324 328.6869 86.511719 341.15234 C 82.769456 345.75327 79.428777 350.62459 76.498047 355.70898 C 76.357915 355.94169 76.207886 356.17585 76.070312 356.4082 C 76.155092 356.15465 76.234786 355.89984 76.320312 355.64648 C 68.413184 369.11205 55.094511 378.48378 39.714844 381.1875 L 39.824219 381.67188 C 52.436933 390.74703 60.764514 404.70135 63.287109 434.0293 C 65.007299 454.02839 78.856154 477.60093 100.43555 495.17969 C 101.76304 490.13582 102.75465 484.21317 103.36719 477.0918 C 105.61426 450.9671 129.1208 420.11933 163.14453 406.12109 C 153.00817 394.20158 145.35953 378.73904 141.02734 363.16602 C 136.27847 346.09518 135.3838 328.93725 140.33789 316 C 141.05755 314.12065 141.69251 312.31596 142.29297 310.53125 C 142.73348 309.00681 143.2113 307.48714 143.72266 305.9707 C 143.95642 305.16702 144.16376 304.38782 144.36914 303.61133 z M 619.60938 303.67773 C 619.80862 304.42889 620.0086 305.18046 620.23438 305.95703 C 620.74962 307.48421 621.23186 309.0174 621.67578 310.55469 C 622.27413 312.33203 622.90811 314.12789 623.625 316 C 628.57931 328.93783 627.68359 346.09674 622.93359 363.16797 C 618.60059 378.74055 610.95089 394.20401 600.81445 406.12305 C 634.83842 420.12121 658.34471 450.96697 660.5918 477.0918 C 661.19751 484.13391 662.17733 490.00194 663.48242 495.00977 C 684.9441 477.44896 698.71301 453.9648 700.42773 434.0293 C 702.95032 404.70135 711.27792 390.74703 723.89062 381.67188 L 724 381.1875 C 708.62033 378.48378 695.30166 369.11205 687.39453 355.64648 C 687.48006 355.89984 687.55973 356.15465 687.64453 356.4082 C 687.50696 356.17585 687.35693 355.94169 687.2168 355.70898 C 684.28607 350.62459 680.9454 345.75327 677.20312 341.15234 C 667.09552 328.6869 654.5351 318.74595 640.51172 311.77734 C 634.02947 308.43952 627.05089 305.67635 619.60938 303.67773 z M 381.91992 381.47656 A 77.093628 77.093628 0 0 0 304.82617 458.57031 A 77.093628 77.093628 0 0 0 381.91992 535.66406 A 77.093628 77.093628 0 0 0 459.01367 458.57031 A 77.093628 77.093628 0 0 0 381.91992 381.47656 z M 208.32422 410.45703 C 200.73961 410.48076 193.22529 411.53402 185.94922 413.51953 C 201.60256 427.00196 221.63669 434.6253 242.60352 434.6543 L 242.60938 434.6543 C 250.47919 434.65379 258.10265 433.6075 265.35156 431.6582 C 250.07023 418.4454 230.14134 410.45701 208.32422 410.45703 z M 554.46875 410.45703 C 532.65534 410.4594 512.73027 418.4453 497.45117 431.65625 C 504.70179 433.60616 512.32547 434.65414 520.19727 434.6543 L 520.19922 434.6543 C 541.19543 434.63664 561.2424 427.00337 576.89648 413.51953 C 569.60546 411.52755 562.07306 410.47813 554.46875 410.45703 z M 599.91992 413.20117 C 602.929 427.85287 604.51367 443.02669 604.51367 458.57031 C 604.51367 507.48793 588.84291 552.73864 562.28906 589.55859 C 578.00875 589.8565 591.88891 586.05393 603.82227 579.9082 A 3.4554175 3.4554175 0 0 1 603.86523 579.88672 C 615.53948 574.08445 625.99292 565.81149 634.40625 555.43555 A 3.4554175 3.4554175 0 0 1 634.41016 555.43164 C 637.52444 551.60278 640.30705 547.54728 642.74805 543.3125 A 3.4554175 3.4554175 0 0 1 642.78125 543.25586 C 642.93609 542.99875 643.06042 542.80259 643.13672 542.67383 A 3.4554175 3.4554175 0 0 1 643.99805 541.70703 C 644.54517 540.85386 645.12477 540.02677 645.71875 539.21289 C 640.97721 530.335 635.29746 522.15654 628.86719 515.37305 C 628.73663 515.21481 628.61378 515.05454 628.48242 514.89648 C 639.13416 511.11001 648.94329 505.78277 657.68359 499.46875 C 655.79426 493.38099 654.44316 486.21922 653.70898 477.68359 C 651.82164 455.7411 630.66204 426.66554 599.91992 413.20117 z M 163.90625 413.25781 C 133.23643 426.74759 112.13657 455.77094 110.25195 477.68164 C 109.51186 486.28605 108.14389 493.49414 106.23047 499.61328 C 114.92046 505.8641 124.66186 511.13886 135.23242 514.89648 C 135.10106 515.05454 134.97822 515.21481 134.84766 515.37305 C 128.46403 522.10733 122.82223 530.21812 118.10156 539.02148 C 118.74533 539.89486 119.37146 540.78406 119.96094 541.70312 A 3.4554175 3.4554175 0 0 1 120.82422 542.67383 C 120.90698 542.8136 121.0373 543.01709 121.19531 543.2793 A 3.4554175 3.4554175 0 0 1 121.22852 543.33789 C 123.66629 547.5641 126.44257 551.61025 129.55078 555.43164 A 3.4554175 3.4554175 0 0 1 129.55469 555.43555 C 137.9704 565.81442 148.42719 574.09039 160.10547 579.89258 A 3.4554175 3.4554175 0 0 1 160.14844 579.91406 C 172.04886 586.041 185.88559 589.83658 201.55078 589.56055 C 174.99596 552.74019 159.32617 507.48891 159.32617 458.57031 C 159.32617 443.04676 160.90474 427.89194 163.90625 413.25781 z M 176.85352 416.53711 C 175.99659 416.8735 175.14227 417.21908 174.29492 417.58203 C 171.58726 431.13782 170.17049 444.91906 170.15039 458.74609 C 170.21695 504.13351 184.92874 548.23769 211.96484 584.64648 C 213.04023 584.60183 214.10905 584.53222 215.17383 584.44922 C 227.5114 551.66389 256.95569 528.23495 291.59766 523.52539 C 292.3432 521.12641 292.97592 518.6781 293.51562 516.19531 C 289.90349 512.4328 286.01837 508.92186 281.89062 505.68945 A 110.59362 110.59362 0 0 0 281.99219 505.93164 A 110.59362 110.59362 0 0 0 251.23047 488.74219 C 251.10215 488.69597 250.97622 488.64538 250.84766 488.59961 C 250.85155 488.59568 250.85547 488.59182 250.85938 488.58789 A 110.59362 110.59362 0 0 0 250.58203 488.47266 A 110.59362 110.59362 0 0 0 271.23633 459.36523 A 110.59362 110.59362 0 0 0 271.25586 460.10938 C 273.74478 455.11879 275.86018 449.94956 277.57031 444.64062 C 275.86708 442.41834 274.06527 440.27449 272.16016 438.22852 C 262.85095 441.26324 252.91994 442.91017 242.60547 442.91016 A 4.1291428 4.1291428 0 0 1 242.59766 442.91016 C 217.98282 442.87767 194.47533 433.34217 176.85352 416.53711 z M 585.98242 416.54297 C 568.36198 433.34082 544.84623 442.88996 520.20312 442.91016 A 4.1291428 4.1291428 0 0 1 520.19922 442.91016 C 509.88474 442.91017 499.95177 441.26324 490.64258 438.22852 C 488.97649 440.0178 487.39521 441.8857 485.88281 443.81055 C 487.60806 449.31439 489.76913 454.67092 492.32812 459.83789 A 110.59362 110.59362 0 0 0 492.35352 459.39648 A 110.59362 110.59362 0 0 0 513.02539 488.45508 A 110.59362 110.59362 0 0 0 512.80664 488.53711 C 512.82707 488.55775 512.84674 488.57899 512.86719 488.59961 C 511.37095 489.13225 509.89643 489.70621 508.43359 490.29883 A 110.59362 110.59362 0 0 0 501.69141 493.29492 C 500.79484 493.72997 499.90526 494.17697 499.02344 494.63477 A 110.59362 110.59362 0 0 0 491.44336 498.95508 C 490.93958 499.26952 490.4394 499.58804 489.94141 499.91016 A 110.59362 110.59362 0 0 0 482.02539 505.54102 C 477.53616 509.04043 473.32928 512.86425 469.44922 516.98633 C 469.95051 519.19713 470.52989 521.37833 471.19531 523.52148 C 505.87726 528.23244 535.32099 551.70013 547.64258 584.4668 C 549.00149 584.57223 550.36827 584.64861 551.74414 584.69141 C 578.83359 548.28921 593.5905 504.17098 593.6875 458.75781 L 593.6875 458.74414 C 593.60996 445.04909 592.16071 431.4028 589.44727 417.98242 C 588.30162 417.47601 587.146 417.00034 585.98242 416.54297 z M 304.375 530.90234 C 302.12565 530.90528 299.89602 531.00565 297.68359 531.17773 C 285.55933 563.38487 256.50952 587.37271 221.31055 592.17383 C 220.98478 593.22119 220.67098 594.27604 220.38281 595.3418 C 258.85107 640.78294 314.64766 667.92005 374.14453 670.12305 C 374.93369 669.06813 375.68905 667.99191 376.42773 666.90625 C 367.67224 652.20766 362.98356 635.35619 362.97656 618.09766 A 4.1291428 4.1291428 0 0 0 362.97656 618.0957 C 362.97654 600.18557 367.92793 583.42024 376.5293 569.08984 C 375.21685 567.15967 373.82241 565.29138 372.36328 563.47656 C 366.96317 563.94589 361.6163 564.80864 356.36523 566.05469 A 110.59362 110.59362 0 0 0 356.48633 566.08984 A 110.59362 110.59362 0 0 0 323.43359 579.85547 A 110.59362 110.59362 0 0 0 313.4668 545.35352 A 110.59362 110.59362 0 0 0 313.74414 545.5625 C 311.33295 540.46367 308.54762 535.56768 305.4082 530.91797 C 305.0635 530.91397 304.72066 530.90234 304.375 530.90234 z M 458.42383 530.90234 C 458.38789 530.90235 458.35233 530.90425 458.31641 530.9043 C 455.16317 535.57295 452.36811 540.49187 449.94922 545.61328 A 110.59362 110.59362 0 0 0 450.03906 545.54883 A 110.59362 110.59362 0 0 0 440.13672 579.74805 A 110.59362 110.59362 0 0 0 407.125 566.07422 A 110.59362 110.59362 0 0 0 407.26953 566.03711 C 401.76754 564.73495 396.16304 563.84845 390.5 563.40039 C 389.01824 565.23917 387.60439 567.13433 386.27344 569.0918 C 394.87434 583.42192 399.82618 600.18609 399.82617 618.0957 A 4.1291428 4.1291428 0 0 1 399.82617 618.10352 C 399.79402 635.36911 395.08006 652.22288 386.29492 666.91406 C 387.05921 668.04147 387.84154 669.15755 388.66016 670.25195 C 448.10552 668.37857 503.99924 641.60518 542.71484 596.45703 C 542.34571 595.01641 541.9316 593.59724 541.49414 592.18945 C 506.32049 587.39249 477.24219 563.40907 465.11328 531.17773 C 462.90173 531.00596 460.67265 530.90534 458.42383 530.90234 z M 474.50781 532.42969 C 485.84044 558.42797 509.4964 577.7895 538.15234 583.20312 C 526.65026 556.81399 502.78335 537.76362 474.50781 532.42969 z M 288.26172 532.43555 C 260.02812 537.77409 236.17514 556.79861 224.66406 583.19141 C 253.3243 577.77118 276.93141 558.40135 288.26172 532.43555 z M 114.5918 546.04688 C 102.87217 571.34483 98.635357 600.63249 105.83789 619.44141 C 106.69305 621.67459 107.44527 623.81153 108.15039 625.90625 C 108.67207 627.7232 109.24457 629.53961 109.85938 631.35547 C 112.70627 641.14016 113.83606 649.40435 113.51172 656.62305 C 112.7791 663.55859 110.6839 670.4834 107.19531 676.8418 L 107.26758 677.1582 C 107.48463 677.09641 107.70434 677.05114 107.92188 676.99219 C 107.81542 677.19079 107.72046 677.3943 107.61133 677.5918 L 107.80078 677.68359 C 122.95443 673.31599 139.26415 675.88786 163.41406 691.83984 C 179.06025 702.17477 203.20037 706.22031 229.19141 701.73438 C 229.20967 701.73197 229.22783 701.72898 229.24609 701.72656 C 231.86189 701.38079 234.4626 700.9347 237.04688 700.40039 C 235.50308 698.33456 233.75887 696.22095 231.76172 694.03711 C 231.01414 693.28806 230.24705 692.54054 229.44141 691.79102 C 213.80853 677.24696 202.42501 651.09432 202.37891 623.44336 A 3.4554175 3.4554175 0 0 1 202.37891 623.42578 C 202.41236 614.20516 203.81038 605.06384 206.375 596.22461 C 187.63636 597.43601 171.00539 593.26775 157.03125 586.08203 C 157.02675 586.07903 157.02158 586.07722 157.01758 586.07422 C 144.47322 579.83907 133.23352 570.94372 124.18945 559.79102 C 121.07755 555.96509 118.30974 551.91391 115.82617 547.71484 A 3.4554175 3.4554175 0 0 1 115.08789 546.8418 C 114.92919 546.57154 114.75587 546.31295 114.5918 546.04688 z M 649.22461 546.27734 C 649.10927 546.46704 648.98567 546.65 648.87305 546.8418 A 3.4554175 3.4554175 0 0 1 648.12305 547.73047 C 645.64235 551.92288 642.88219 555.96902 639.77539 559.78906 L 639.77148 559.79102 C 630.72806 570.94291 619.49083 579.83907 606.94727 586.07422 L 606.94141 586.07617 C 592.96526 593.26477 576.32886 597.43628 557.58594 596.22461 C 560.15055 605.06384 561.54863 614.20516 561.58203 623.42578 A 3.4554175 3.4554175 0 0 1 561.58203 623.44336 C 561.53592 651.09432 550.15242 677.24696 534.51953 691.79102 C 533.71611 692.53848 532.94974 693.28507 532.20117 694.03516 C 530.18964 696.23461 528.43471 698.3635 526.88281 700.44336 C 529.39648 700.9578 531.92539 701.39036 534.46875 701.72656 C 534.48701 701.72898 534.50518 701.73194 534.52344 701.73438 C 560.51447 706.22033 584.6546 702.17477 600.30078 691.83984 C 624.45069 675.88786 640.76041 673.31599 655.91406 677.68359 L 656.10352 677.5918 C 655.99438 677.3943 655.89942 677.19079 655.79297 676.99219 C 656.01049 677.05114 656.23021 677.09641 656.44727 677.1582 L 656.51953 676.8418 C 653.03094 670.4834 650.93577 663.55859 650.20312 656.62305 C 649.87878 649.40435 651.00858 641.14016 653.85547 631.35547 C 654.47023 629.53961 655.04278 627.7232 655.56445 625.90625 C 656.26958 623.81153 657.0218 621.67459 657.87695 619.44141 C 665.05783 600.68907 660.86405 571.52299 649.22461 546.27734 z M 381.40234 577.16992 C 374.91438 589.37021 371.23435 603.29674 371.23438 618.0957 C 371.24003 632.34621 374.77393 646.26957 381.36719 658.72461 C 387.98431 646.27499 391.54056 632.35097 391.56836 618.0957 L 391.56836 618.0918 L 391.56836 618.08789 C 391.56707 603.29214 387.88893 589.3679 381.40234 577.16992 z M 552.17188 602.55273 C 513.26111 648.92267 455.93685 679.18737 391.54297 681.94336 C 408.86982 703.005 434.597 715.27688 459.76367 714.09375 C 469.54102 713.6341 477.70013 713.78559 484.63477 714.52148 C 488.0181 705.70539 490.45222 696.303 491.61133 686.53516 C 500.53519 691.96864 509.96049 696.02274 519.68555 698.71289 C 521.77065 695.62465 524.2324 692.50232 527.13672 689.33008 A 3.4554175 3.4554175 0 0 1 527.23828 689.22461 C 528.05926 688.40045 528.91234 687.56988 529.8125 686.73242 C 543.59688 673.9081 554.62655 649.16028 554.67188 623.43945 C 554.64567 616.39328 553.79201 609.38869 552.17188 602.55273 z M 211.76172 602.66797 C 210.16015 609.46476 209.31575 616.42805 209.28906 623.43164 C 209.28907 623.43564 209.28906 623.43645 209.28906 623.43945 C 209.33435 649.16027 220.36405 673.9081 234.14844 686.73242 C 235.04757 687.56893 235.9033 688.40006 236.72656 689.22656 A 3.4554175 3.4554175 0 0 1 236.82617 689.33008 C 239.71147 692.4817 242.16178 695.58566 244.23828 698.6543 C 253.88932 695.96391 263.24361 691.92969 272.10352 686.53516 C 273.26392 696.31391 275.70255 705.72615 279.0918 714.55078 C 286.07845 713.79237 294.30805 713.62875 304.19922 714.09375 C 329.3642 715.2768 355.08917 703.00635 372.41602 681.94727 C 308.02611 679.22627 250.69512 649.00211 211.76172 602.66797 z M 380.77539 682.14844 C 362.22913 707.2742 333.09288 722.37164 303.875 720.99805 C 295.12201 720.58656 287.92651 720.65237 281.84766 721.14844 C 294.31657 748.68078 315.95527 769.425 336.07812 775.66211 C 363.9984 784.31605 375.83874 795.34817 381.74414 809.6582 L 381.80469 809.6875 L 381.8457 809.66602 C 381.84926 809.65737 381.85386 809.64928 381.85742 809.64062 C 381.86099 809.64927 381.86558 809.65737 381.86914 809.66602 L 381.91016 809.6875 L 381.9707 809.6582 C 387.8761 795.34817 399.71644 784.31605 427.63672 775.66211 C 447.76383 769.42367 469.40733 748.67189 481.875 721.13086 C 475.84562 720.6525 468.72762 720.59188 460.08789 720.99805 C 430.86965 722.37166 401.73006 707.2748 383.18359 682.14844 C 382.76159 682.1508 382.34248 682.16406 381.91992 682.16406 C 381.53733 682.16406 381.15753 682.15038 380.77539 682.14844 z "
       id="path4136-7-2" />
    <g
       id="g4210"
       transform="matrix(0.66574113,0,0,0.66574113,-1730.9665,-1638.702)">
      <path
         inkscape:transform-center-y="15.990366"
         d="M 404.06104,681.32358 151.57939,559.73483 89.22156,286.52737 263.94428,67.432 l 280.23349,-7e-6 174.72274,219.095367 -62.35781,273.20745 z"
         inkscape:randomized="0"
         inkscape:rounded="0"
         inkscape:flatsided="true"
         sodipodi:arg2="2.0195953"
         sodipodi:arg1="1.5707963"
         sodipodi:r2="290.95541"
         sodipodi:r1="322.93616"
         sodipodi:cy="358.38742"
         sodipodi:cx="404.06104"
         sodipodi:sides="7"
         id="path4136"
         style="opacity:0.72600002;fill:#101010;fill-opacity:0.37619048;fill-rule:nonzero;stroke:#717171;stroke-width:0;stroke-linecap:butt;stroke-linejoin:round;stroke-miterlimit:4;stroke-dasharray:none;stroke-dashoffset:0;stroke-opacity:1"
         sodipodi:type="star" />
      <circle
         r="166.12106"
         cy="67.431999"
         cx="263.94427"
         id="path4138"
         style="opacity:0.72600002;fill:#101010;fill-opacity:0.37619048;fill-rule:nonzero;stroke:#717171;stroke-width:0;stroke-linecap:butt;stroke-linejoin:round;stroke-miterlimit:4;stroke-dasharray:none;stroke-dashoffset:0;stroke-opacity:1" />
      <circle
         r="166.12106"
         cy="67.431992"
         cx="544.1778"
         id="path4138-0"
         style="opacity:0.72600002;fill:#101010;fill-opacity:0.37619048;fill-rule:nonzero;stroke:#717171;stroke-width:0;stroke-linecap:butt;stroke-linejoin:round;stroke-miterlimit:4;stroke-dasharray:none;stroke-dashoffset:0;stroke-opacity:1" />
      <circle
         r="166.12106"
         cy="286.52734"
         cx="718.90051"
         id="path4138-0-7"
         style="opacity:0.72600002;fill:#101010;fill-opacity:0.37619048;fill-rule:nonzero;stroke:#717171;stroke-width:0;stroke-linecap:butt;stroke-linejoin:round;stroke-miterlimit:4;stroke-dasharray:none;stroke-dashoffset:0;stroke-opacity:1" />
      <circle
         r="166.12106"
         cy="559.7348"
         cx="656.54272"
         id="path4138-0-2"
         style="opacity:0.72600002;fill:#101010;fill-opacity:0.37619048;fill-rule:nonzero;stroke:#717171;stroke-width:0;stroke-linecap:butt;stroke-linejoin:round;stroke-miterlimit:4;stroke-dasharray:none;stroke-dashoffset:0;stroke-opacity:1" />
      <circle
         r="166.12106"
         cy="681.32355"
         cx="404.06104"
         id="path4138-0-5"
         style="opacity:0.72600002;fill:#101010;fill-opacity:0.37619048;fill-rule:nonzero;stroke:#717171;stroke-width:0;stroke-linecap:butt;stroke-linejoin:round;stroke-miterlimit:4;stroke-dasharray:none;stroke-dashoffset:0;stroke-opacity:1" />
      <circle
         r="166.12106"
         cy="559.7348"
         cx="151.57939"
         id="path4138-0-8"
         style="opacity:0.72600002;fill:#101010;fill-opacity:0.37619048;fill-rule:nonzero;stroke:#717171;stroke-width:0;stroke-linecap:butt;stroke-linejoin:round;stroke-miterlimit:4;stroke-dasharray:none;stroke-dashoffset:0;stroke-opacity:1" />
      <circle
         r="166.12106"
         cy="286.52737"
         cx="89.221558"
         id="path4138-0-59"
         style="opacity:0.72600002;fill:#101010;fill-opacity:0.37619048;fill-rule:nonzero;stroke:#717171;stroke-width:0;stroke-linecap:butt;stroke-linejoin:round;stroke-miterlimit:4;stroke-dasharray:none;stroke-dashoffset:0;stroke-opacity:1" />
    </g>
    <g
       id="g4468"
       transform="matrix(0.66574113,0,0,0.66574113,-774.36144,-1677.6993)">
      <path
         id="path4136-7-6"
         d="m -1137.2129,1273.0418 a 166.12106,166.12106 0 0 1 -35.7832,39.9375 166.12106,166.12106 0 0 1 35.8711,-4.1328 166.12106,166.12106 0 0 1 35.377,3.918 166.12106,166.12106 0 0 1 -35.4649,-39.7227 z m -104.7383,73.1739 a 166.12106,166.12106 0 0 1 -35.291,3.9179 166.12106,166.12106 0 0 1 -17.8945,-1.0273 166.12106,166.12106 0 0 1 9.2597,52.3613 166.12106,166.12106 0 0 1 43.9258,-55.2519 z m 209.6192,0 a 166.12106,166.12106 0 0 1 44.02145,55.1054 166.12106,166.12106 0 0 1 9.164,-52.3476 166.12106,166.12106 0 0 1 -17.8613,1.1562 166.12106,166.12106 0 0 1 -35.32415,-3.914 z m -270.8711,129.9668 a 166.12106,166.12106 0 0 1 -31.0254,43.7226 166.12106,166.12106 0 0 1 47.1816,26.2246 166.12106,166.12106 0 0 1 -16.1562,-69.9472 z m 332.13665,0.047 a 166.12106,166.12106 0 0 1 -16.0938,69.7246 166.12106,166.12106 0 0 1 47.1446,-26.0762 166.12106,166.12106 0 0 1 -31.0508,-43.6484 z m -268.70305,129.1152 a 166.12106,166.12106 0 0 1 14.9707,51.8242 166.12106,166.12106 0 0 1 49.6484,-20.6777 166.12106,166.12106 0 0 1 -64.6191,-31.1465 z m 205.1406,0.293 a 166.12106,166.12106 0 0 1 -64.459,30.83 166.12106,166.12106 0 0 1 49.5859,20.5411 166.12106,166.12106 0 0 1 14.8731,-51.3711 z"
         style="opacity:0.72600002;fill:#ff0000;fill-opacity:0.37619048;fill-rule:nonzero;stroke:#717171;stroke-width:0;stroke-linecap:butt;stroke-linejoin:round;stroke-miterlimit:4;stroke-dasharray:none;stroke-dashoffset:0;stroke-opacity:1"
         inkscape:connector-curvature="0" />
      <path
         inkscape:transform-center-y="26.109248"
         d="m -1137.1221,2002.4009 -412.2548,-198.5314 -101.8186,-446.0962 285.2892,-357.7414 457.56841,0 285.28922,357.7414 -101.81853,446.0962 z"
         inkscape:randomized="0"
         inkscape:rounded="0"
         inkscape:flatsided="true"
         sodipodi:arg2="2.0195953"
         sodipodi:arg1="1.5707963"
         sodipodi:r2="475.07526"
         sodipodi:r1="527.29376"
         sodipodi:cy="1475.1072"
         sodipodi:cx="-1137.1221"
         sodipodi:sides="7"
         id="path4136-7-2-0"
         style="opacity:0.72600002;fill:#101010;fill-opacity:0.37619048;fill-rule:nonzero;stroke:#717171;stroke-width:0;stroke-linecap:butt;stroke-linejoin:round;stroke-miterlimit:4;stroke-dasharray:none;stroke-dashoffset:0;stroke-opacity:1"
         sodipodi:type="star" />
      <circle
         r="166.12106"
         cy="1184.1519"
         cx="-1277.2391"
         id="path4138-6-2-8"
         style="opacity:0.72600002;fill:#101010;fill-opacity:0.37619048;fill-rule:nonzero;stroke:#717171;stroke-width:0;stroke-linecap:butt;stroke-linejoin:round;stroke-miterlimit:4;stroke-dasharray:none;stroke-dashoffset:0;stroke-opacity:1" />
      <circle
         r="166.12106"
         cy="1184.1519"
         cx="-997.00555"
         id="path4138-0-6-5-8"
         style="opacity:0.72600002;fill:#101010;fill-opacity:0.37619048;fill-rule:nonzero;stroke:#717171;stroke-width:0;stroke-linecap:butt;stroke-linejoin:round;stroke-miterlimit:4;stroke-dasharray:none;stroke-dashoffset:0;stroke-opacity:1" />
      <circle
         r="166.12106"
         cy="1403.2472"
         cx="-822.2829"
         id="path4138-0-7-2-4-0"
         style="opacity:0.72600002;fill:#101010;fill-opacity:0.37619048;fill-rule:nonzero;stroke:#717171;stroke-width:0;stroke-linecap:butt;stroke-linejoin:round;stroke-miterlimit:4;stroke-dasharray:none;stroke-dashoffset:0;stroke-opacity:1" />
      <circle
         r="166.12106"
         cy="1676.4546"
         cx="-884.64081"
         id="path4138-0-2-4-9-4"
         style="opacity:0.72600002;fill:#101010;fill-opacity:0.37619048;fill-rule:nonzero;stroke:#717171;stroke-width:0;stroke-linecap:butt;stroke-linejoin:round;stroke-miterlimit:4;stroke-dasharray:none;stroke-dashoffset:0;stroke-opacity:1" />
      <circle
         r="166.12106"
         cy="1798.0433"
         cx="-1137.1226"
         id="path4138-0-5-9-5-9"
         style="opacity:0.72600002;fill:#101010;fill-opacity:0.37619048;fill-rule:nonzero;stroke:#717171;stroke-width:0;stroke-linecap:butt;stroke-linejoin:round;stroke-miterlimit:4;stroke-dasharray:none;stroke-dashoffset:0;stroke-opacity:1" />
      <circle
         r="166.12106"
         cy="1676.4546"
         cx="-1389.6041"
         id="path4138-0-8-0-7-9"
         style="opacity:0.72600002;fill:#101010;fill-opacity:0.37619048;fill-rule:nonzero;stroke:#717171;stroke-width:0;stroke-linecap:butt;stroke-linejoin:round;stroke-miterlimit:4;stroke-dasharray:none;stroke-dashoffset:0;stroke-opacity:1" />
      <circle
         r="166.12106"
         cy="1403.2472"
         cx="-1451.9618"
         id="path4138-0-59-0-3-7"
         style="opacity:0.72600002;fill:#101010;fill-opacity:0.37619048;fill-rule:nonzero;stroke:#717171;stroke-width:0;stroke-linecap:butt;stroke-linejoin:round;stroke-miterlimit:4;stroke-dasharray:none;stroke-dashoffset:0;stroke-opacity:1" />
      <path
         inkscape:transform-center-y="557.68846"
         inkscape:transform-center-x="-0.00097223798"
         inkscape:connector-curvature="0"
         id="path4302-2"
         d="m -1211.1211,1952.7957 a 80,80 0 0 0 -80,80 80,80 0 0 0 80,80 80,80 0 0 0 74.0078,-49.7344 80,80 0 0 0 73.9922,49.7344 80,80 0 0 0 79.99995,-80 80,80 0 0 0 -79.99995,-80 80,80 0 0 0 -74.0098,49.7344 80,80 0 0 0 -73.9902,-49.7344 z"
         style="opacity:0.72600002;fill:#ff0000;fill-opacity:0.37619048;fill-rule:nonzero;stroke:#717171;stroke-width:0;stroke-linecap:butt;stroke-linejoin:round;stroke-miterlimit:4;stroke-dasharray:none;stroke-dashoffset:0;stroke-opacity:1" />
      <path
         inkscape:transform-center-y="347.17015"
         inkscape:transform-center-x="436.45083"
         inkscape:connector-curvature="0"
         id="path4302-5-3"
         d="m -1557.0304,1714.5632 a 80,80 0 0 0 -112.4098,-12.8074 80,80 0 0 0 -12.8075,112.4098 80,80 0 0 0 84.9935,26.9587 80,80 0 0 0 7.1388,88.8672 80,80 0 0 0 112.4098,12.8075 80,80 0 0 0 12.8074,-112.4098 80,80 0 0 0 -84.9947,-26.9603 80,80 0 0 0 -7.1375,-88.8657 z"
         style="opacity:0.72600002;fill:#ff0000;fill-opacity:0.37619048;fill-rule:nonzero;stroke:#717171;stroke-width:0;stroke-linecap:butt;stroke-linejoin:round;stroke-miterlimit:4;stroke-dasharray:none;stroke-dashoffset:0;stroke-opacity:1" />
      <path
         inkscape:transform-center-y="347.98836"
         inkscape:transform-center-x="-435.79872"
         inkscape:connector-curvature="0"
         id="path4302-4-8"
         d="m -810.01315,1831.0031 a 80,80 0 0 0 12.5961,112.4337 80,80 0 0 0 112.43371,-12.5961 80,80 0 0 0 7.3155,-88.8659 80,80 0 0 0 85.0342,-26.7867 80,80 0 0 0 -12.5961,-112.4337 80,80 0 0 0 -112.4337,12.5962 80,80 0 0 0 -7.3168,88.8674 80,80 0 0 0 -85.03291,26.7851 z"
         style="opacity:0.72600002;fill:#ff0000;fill-opacity:0.37619048;fill-rule:nonzero;stroke:#717171;stroke-width:0;stroke-linecap:butt;stroke-linejoin:round;stroke-miterlimit:4;stroke-dasharray:none;stroke-dashoffset:0;stroke-opacity:1" />
      <path
         inkscape:transform-center-y="-123.31505"
         inkscape:transform-center-x="-543.88402"
         inkscape:connector-curvature="0"
         id="path4302-4-7-7"
         d="m -654.89524,1441.6497 a 80,80 0 0 0 95.7091,60.3305 80,80 0 0 0 60.3305,-95.7091 80,80 0 0 0 -64.8677,-61.1788 80,80 0 0 0 32.1424,-83.1578 80,80 0 0 0 -95.7091,-60.3305 80,80 0 0 0 -60.3305,95.7092 80,80 0 0 0 64.8681,61.1808 80,80 0 0 0 -32.1428,83.1557 z"
         style="opacity:0.72600002;fill:#ff0000;fill-opacity:0.37619048;fill-rule:nonzero;stroke:#717171;stroke-width:0;stroke-linecap:butt;stroke-linejoin:round;stroke-miterlimit:4;stroke-dasharray:none;stroke-dashoffset:0;stroke-opacity:1" />
      <path
         inkscape:transform-center-y="-502.00939"
         inkscape:transform-center-x="-242.90532"
         inkscape:connector-curvature="0"
         id="path4302-4-7-0-1"
         d="m -862.44965,1077.342 a 80,80 0 0 0 106.85751,-37.1681 80,80 0 0 0 -37.16811,-106.85752 80,80 0 0 0 -88.2811,12.53417 80,80 0 0 0 -44.9426,-76.99682 80,80 0 0 0 -106.85745,37.16807 80,80 0 0 0 37.16805,106.8576 80,80 0 0 0 88.2829,-12.5333 80,80 0 0 0 44.9408,76.9959 z"
         style="opacity:0.72600002;fill:#ff0000;fill-opacity:0.37619048;fill-rule:nonzero;stroke:#717171;stroke-width:0;stroke-linecap:butt;stroke-linejoin:round;stroke-miterlimit:4;stroke-dasharray:none;stroke-dashoffset:0;stroke-opacity:1" />
      <path
         inkscape:transform-center-y="-502.48966"
         inkscape:transform-center-x="241.91023"
         inkscape:connector-curvature="0"
         id="path4302-4-7-0-6-3"
         d="m -1277.655,1012.6003 a 80,80 0 0 0 37.3802,-106.78349 80,80 0 0 0 -106.7835,-37.38015 80,80 0 0 0 -45.1094,76.91431 80,80 0 0 0 -88.242,-12.71608 80,80 0 0 0 -37.3801,106.78351 80,80 0 0 0 106.7835,37.3802 80,80 0 0 0 45.1112,-76.91516 80,80 0 0 0 88.2401,12.71686 z"
         style="opacity:0.72600002;fill:#ff0000;fill-opacity:0.37619048;fill-rule:nonzero;stroke:#717171;stroke-width:0;stroke-linecap:butt;stroke-linejoin:round;stroke-miterlimit:4;stroke-dasharray:none;stroke-dashoffset:0;stroke-opacity:1" />
      <path
         inkscape:transform-center-y="-122.87315"
         inkscape:transform-center-x="543.98401"
         inkscape:connector-curvature="0"
         id="path4302-4-7-0-8-8"
         d="m -1586.7678,1297.6787 a 80,80 0 0 0 -60.4078,-95.6602 80,80 0 0 0 -95.6604,60.4078 80,80 0 0 0 32.2063,83.147 80,80 0 0 0 -64.8147,61.216 80,80 0 0 0 60.4078,95.6603 80,80 0 0 0 95.6604,-60.4078 80,80 0 0 0 -32.2058,-83.149 80,80 0 0 0 64.8142,-61.2141 z"
         style="opacity:0.72600002;fill:#ff0000;fill-opacity:0.37619048;fill-rule:nonzero;stroke:#717171;stroke-width:0;stroke-linecap:butt;stroke-linejoin:round;stroke-miterlimit:4;stroke-dasharray:none;stroke-dashoffset:0;stroke-opacity:1" />
    </g>
    <g
       id="g14599">
      <circle
         style="opacity:0.72600002;fill:#101010;fill-opacity:0.37619048;fill-rule:nonzero;stroke:#717171;stroke-width:0;stroke-linecap:butt;stroke-linejoin:round;stroke-miterlimit:4;stroke-dasharray:none;stroke-dashoffset:0;stroke-opacity:1"
         id="path4138-0-2-0-1-6"
         cx="-1596.0613"
         cy="214.36252"
         r="219.59363" />
      <path
         id="path4136-7-2-9"
         d="m -1748.4785,-101.83793 c 0.013,0.22448 0.011,0.44767 0.021,0.67188 -0.09,-0.0788 -0.1855,-0.151 -0.2754,-0.23047 l -0.2715,0.33984 c 0.7212,13.885848 -4.0406,27.434908 -18.1328,42.822268 -0.9165,0.91967 -1.8645,1.84002 -2.8594,2.76562 -17.0293,15.843248 -30.0031,45.310508 -30.0546,76.207028 0.044,12.23912 2.1201,24.38599 6.1425,35.94531 -23.3821,-2.72385 -43.8275,2.1117 -60.8691,10.88672 -14.0234,6.96861 -26.5838,16.90956 -36.6914,29.375 -3.7423,4.600934 -7.083,9.472254 -10.0137,14.556644 -0.1401,0.23271 -0.2902,0.46687 -0.4277,0.69922 0.085,-0.25355 0.1644,-0.50836 0.25,-0.76172 -7.9072,13.46557 -21.2258,22.8373 -36.6055,25.54102 l 0.1094,0.48438 c 12.6127,9.07515 20.9403,23.02947 23.4629,52.35742 2.5226,29.32794 31.1142,66.35257 71.9453,80.86718 -0.1314,0.15806 -0.2542,0.31833 -0.3848,0.47657 -25.7577,27.17257 -39.4873,76.70708 -29.0097,104.06836 0.8551,2.23318 1.6073,4.37012 2.3125,6.46484 0.5216,1.81695 1.0942,3.63336 1.7089,5.44922 2.8469,9.78469 3.9767,18.04888 3.6524,25.26758 -0.7326,6.93554 -2.8278,13.86035 -6.3164,20.21875 l 0.072,0.3164 c 0.217,-0.0618 0.4368,-0.10706 0.6543,-0.16601 -0.1065,0.1986 -0.2014,0.40211 -0.3106,0.59961 l 0.1895,0.0918 c 15.1536,-4.3676 31.4633,-1.79573 55.6133,14.15625 15.6461,10.33493 39.7863,14.38049 65.7773,9.89454 0.018,-0.002 0.036,-0.005 0.055,-0.008 14.9652,-1.97819 29.4728,-7.0419 42.8574,-15.1914 5.2089,43.89518 36.0543,80.47301 63.9746,89.12695 27.9203,8.65394 39.7607,19.68606 45.6661,33.99609 l 0.061,0.0293 0.041,-0.0215 c 0,-0.009 0.01,-0.0168 0.012,-0.0254 0,0.009 0.01,0.0168 0.012,0.0254 l 0.041,0.0215 0.061,-0.0293 c 5.9054,-14.31003 17.7457,-25.34215 45.666,-33.99609 27.9203,-8.65395 58.7657,-45.23177 63.9746,-89.12695 13.3846,8.1495 27.8922,13.21321 42.8574,15.1914 0.018,0.002 0.036,0.005 0.055,0.008 25.991,4.48595 50.1312,0.44039 65.7773,-9.89454 24.15,-15.95198 40.4597,-18.52385 55.6133,-14.15625 l 0.1895,-0.0918 c -0.1092,-0.1975 -0.2041,-0.40101 -0.3106,-0.59961 0.2176,0.0589 0.4373,0.10422 0.6543,0.16601 l 0.072,-0.3164 c -3.4886,-6.3584 -5.5838,-13.28321 -6.3164,-20.21875 -0.3243,-7.2187 0.8055,-15.48289 3.6524,-25.26758 0.6147,-1.81586 1.1873,-3.63227 1.709,-5.44922 0.7051,-2.09472 1.4573,-4.23166 2.3125,-6.46484 10.4775,-27.36128 -3.2521,-76.89579 -29.0098,-104.06836 -0.1306,-0.15824 -0.2534,-0.31851 -0.3848,-0.47657 40.8311,-14.51461 69.4227,-51.53924 71.9453,-80.86718 2.5226,-29.32795 10.8502,-43.28227 23.4629,-52.35742 l 0.1095,-0.48438 c -15.3797,-2.70372 -28.6984,-12.07545 -36.6055,-25.54102 0.086,0.25336 0.1652,0.50817 0.25,0.76172 -0.1376,-0.23235 -0.2876,-0.46651 -0.4277,-0.69922 -2.9308,-5.08439 -6.2715,-9.95571 -10.0137,-14.556644 -10.1076,-12.46544 -22.668,-22.40639 -36.6914,-29.375 -17.0416,-8.77502 -37.4871,-13.61057 -60.8692,-10.88672 4.0225,-11.55933 6.0982,-23.70619 6.1426,-35.94531 -0.051,-30.89651 -13.0253,-60.36378 -30.0547,-76.207028 -0.9949,-0.9256 -1.9429,-1.84595 -2.8594,-2.76562 -14.0921,-15.38736 -18.8539,-28.93642 -18.1328,-42.822268 l -0.2714,-0.33984 c -0.09,0.0795 -0.1851,0.15166 -0.2754,0.23047 0.01,-0.22421 0.01,-0.4474 0.022,-0.67188 l -0.1192,0 c -11.629,10.418388 -27.2509,15.260468 -61.998,13.626948 -34.745,-1.63341 -69.9555,17.72563 -90.2383,49.673828 -20.2828,-31.948198 -55.4934,-51.307238 -90.2383,-49.673828 -34.7471,1.63352 -50.369,-3.20856 -61.998,-13.626948 l -0.1192,0 z m 152.3555,182.015626 c 20.2992,31.849394 55.4508,51.143754 93.2285,51.154294 0.015,-1.6e-4 0.03,-0.002 0.045,-0.002 0.021,4e-5 0.042,0.002 0.062,0.002 3.9251,-0.0127 7.8466,-0.23632 11.748,-0.66601 -4.0159,11.55636 -6.088,23.69886 -6.1289,35.93359 0.018,29.14145 11.5379,57.09794 32.0547,77.79297 -39.5809,14.0903 -67.7538,49.39024 -72.7246,91.10156 -17.4825,-10.8613 -37.6484,-16.63242 -58.2324,-16.65625 -0.018,4e-5 -0.035,0.002 -0.053,0.002 -0.018,-5e-5 -0.035,-0.002 -0.053,-0.002 -20.584,0.0238 -40.75,5.79495 -58.2324,16.65625 -4.9708,-41.71132 -33.1438,-77.01126 -72.7246,-91.10156 20.5168,-20.69503 32.0362,-48.65152 32.0546,-77.79297 -0.041,-12.23473 -2.1129,-24.37723 -6.1289,-35.93359 3.9015,0.42969 7.823,0.65328 11.7481,0.66601 0.021,-3e-5 0.042,-0.002 0.062,-0.002 0.015,1.7e-4 0.03,0.002 0.045,0.002 37.7776,-0.0105 72.9293,-19.3049 93.2285,-51.154294 z"
         style="opacity:0.72600002;fill:#101010;fill-opacity:0.37619048;fill-rule:nonzero;stroke:#717171;stroke-width:0;stroke-linecap:butt;stroke-linejoin:round;stroke-miterlimit:4;stroke-dasharray:none;stroke-dashoffset:0;stroke-opacity:1"
         inkscape:connector-curvature="0" />
      <path
         inkscape:connector-curvature="0"
         id="path4136-7-0"
         d="m -1596.2367,79.915856 a 110.59362,110.59362 0 0 1 -23.8224,26.588034 110.59362,110.59362 0 0 1 23.8809,-2.75138 110.59362,110.59362 0 0 1 23.5519,2.60835 110.59362,110.59362 0 0 1 -23.6104,-26.445004 z m -69.7286,48.714824 a 110.59362,110.59362 0 0 1 -23.4947,2.60836 110.59362,110.59362 0 0 1 -11.9131,-0.68395 110.59362,110.59362 0 0 1 6.1646,34.8591 110.59362,110.59362 0 0 1 29.2432,-36.78351 z m 139.5521,0.003 a 110.59362,110.59362 0 0 1 29.3069,36.68597 110.59362,110.59362 0 0 1 6.1009,-34.84999 110.59362,110.59362 0 0 1 -11.891,0.76977 110.59362,110.59362 0 0 1 -23.5168,-2.60575 z m -180.33,86.52424 a 110.59362,110.59362 0 0 1 -20.6549,29.10797 110.59362,110.59362 0 0 1 31.4107,17.4588 110.59362,110.59362 0 0 1 -10.7558,-46.56677 z m 221.117,0.0312 a 110.59362,110.59362 0 0 1 -10.7143,46.41854 110.59362,110.59362 0 0 1 31.3861,-17.35997 110.59362,110.59362 0 0 1 -20.6718,-29.05857 z m -178.8867,85.95733 a 110.59362,110.59362 0 0 1 9.9666,34.50151 110.59362,110.59362 0 0 1 33.053,-13.76602 110.59362,110.59362 0 0 1 -43.0196,-20.73549 z m 136.5705,0.19504 a 110.59362,110.59362 0 0 1 -42.913,20.52485 110.59362,110.59362 0 0 1 33.0114,13.675 110.59362,110.59362 0 0 1 9.9016,-34.19985 z"
         style="opacity:0.72600002;fill:#ff0000;fill-opacity:0.37619048;fill-rule:nonzero;stroke:#717171;stroke-width:0;stroke-linecap:butt;stroke-linejoin:round;stroke-miterlimit:4;stroke-dasharray:none;stroke-dashoffset:0;stroke-opacity:1" />
      <circle
         style="opacity:0.72600002;fill:#101010;fill-opacity:0.37619048;fill-rule:nonzero;stroke:#717171;stroke-width:0;stroke-linecap:butt;stroke-linejoin:round;stroke-miterlimit:4;stroke-dasharray:none;stroke-dashoffset:0;stroke-opacity:1"
         id="path4138-0-2-0-4"
         cx="-1596.0613"
         cy="214.36252"
         r="110.59363" />
      <path
         id="path4136-7-2-4-8"
         d="m -1596.0527,-136.7559 -0.061,0.0293 c -5.9054,14.31003 -17.7438,25.34215 -45.6641,33.99609 -27.9203,8.653948 -58.7677,45.231788 -63.9765,89.126956 -13.3934,-8.15483 -27.9112,-13.21987 -42.8868,-15.19532 -0.01,-10e-4 -0.017,-0.003 -0.025,-0.004 -25.991,-4.48593 -50.1311,-0.44039 -65.7773,9.89453 -24.1499,15.9519803 -40.4596,18.52385031 -55.6133,14.1562503 l -0.1894,0.0918 c 0.1091,0.19749 0.2041,0.401 0.3105,0.5996 -0.2175,-0.059 -0.4372,-0.10421 -0.6543,-0.16601 l -0.072,0.31641 c 3.4919,6.36435 5.5876,13.2962 6.3184,20.2382797 0.3216,7.21199 -0.808,15.46599 -3.6504,25.23828 -0.6137,1.81202 -1.1842,3.62633 -1.7051,5.43945 -0.707,2.10134 -1.4603,4.24365 -2.3184,6.48438 -10.4771,27.36022 3.2482,76.893164 29.0039,104.066404 0.1314,0.15927 0.2565,0.31944 0.3887,0.47852 -40.831,14.51461 -69.4227,51.53924 -71.9453,80.86719 -2.5226,29.32794 -10.8502,43.28227 -23.4629,52.35742 l -0.1094,0.48437 c 15.3797,2.70372 28.6984,12.07545 36.6055,25.54102 -0.085,-0.25336 -0.1652,-0.50817 -0.25,-0.76172 0.1433,0.24204 0.2992,0.4861 0.4453,0.72851 2.9267,5.07386 6.261,9.93521 9.9961,14.52735 10.1089,12.46707 22.6717,22.40821 36.6973,29.37695 17.0405,8.77334 37.4835,13.60835 60.8633,10.88477 -4.0225,11.55933 -6.0982,23.70619 -6.1426,35.94531 0.052,30.89651 13.0253,60.36378 30.0547,76.20703 1.0004,0.93075 1.9538,1.8565 2.875,2.78125 14.0813,15.38104 18.8381,28.9254 18.1172,42.80664 l 0.2714,0.33984 c 0.09,-0.0795 0.1851,-0.15166 0.2754,-0.23046 -0.01,0.22435 -0.01,0.44724 -0.021,0.67187 l 0.1192,0 c 11.629,-10.41839 27.2529,-15.25852 62,-13.625 34.7449,1.63342 69.9535,-17.72758 90.2363,-49.67578 20.2828,31.9482 55.4933,51.3092 90.2383,49.67578 34.7471,-1.63352 50.369,3.20661 61.998,13.625 l 0.1192,0 c -0.013,-0.22398 -0.011,-0.44621 -0.021,-0.66992 0.09,0.0785 0.1858,0.14932 0.2754,0.22851 l 0.2714,-0.33984 c -0.7209,-13.88184 4.0384,-27.42673 18.1211,-42.80859 0.9206,-0.9241 1.8714,-1.84922 2.8711,-2.7793 17.0294,-15.84325 30.0032,-45.31052 30.0547,-76.20703 -0.044,-12.23912 -2.1201,-24.38598 -6.1426,-35.94531 23.3851,2.7242 43.8341,-2.11348 60.877,-10.89063 14.0206,-6.96844 26.5776,-16.90769 36.6836,-29.37109 3.7422,-4.60093 7.0829,-9.47225 10.0137,-14.55664 0.1401,-0.23271 0.2901,-0.46687 0.4277,-0.69922 -0.085,0.25355 -0.1645,0.50836 -0.25,0.76172 7.9071,-13.46557 21.2258,-22.8373 36.6055,-25.54102 l -0.1094,-0.48437 c -12.6127,-9.07515 -20.9403,-23.02948 -23.4629,-52.35742 -2.5226,-29.32795 -31.1143,-66.35258 -71.9453,-80.86719 0.1313,-0.15806 0.2542,-0.31833 0.3847,-0.47657 25.7577,-27.17257 39.4873,-76.707084 29.0098,-104.068354 -0.8545,-2.23153 -1.6058,-4.36573 -2.3105,-6.45899 -0.5245,-1.82691 -1.1002,-3.65466 -1.7188,-5.48047 -2.8416,-9.77414 -3.9688,-18.02942 -3.6445,-25.24219 0.7326,-6.9355397 2.8278,-13.8603497 6.3164,-20.2187397 l -0.072,-0.31641 c -0.2171,0.0618 -0.4368,0.10706 -0.6543,0.16601 0.1065,-0.1986 0.2014,-0.40211 0.3105,-0.5996 l -0.1894,-0.0918 c -15.1537,4.36760001 -31.4634,1.79573 -55.6133,-14.1562503 -15.6459,-10.33473 -39.7849,-14.38008 -65.7754,-9.89453 -0.014,0.002 -0.027,0.004 -0.041,0.006 -14.97,1.97691 -29.4843,7.04136 -42.873,15.19336 -5.2089,-43.895178 -36.0543,-80.473008 -63.9746,-89.126956 -27.9203,-8.65394 -39.7606,-19.68606 -45.666,-33.99609 l -0.061,-0.0293 -0.041,0.0215 c -0,0.009 -0.01,0.0168 -0.012,0.0254 -0,-0.009 -0.01,-0.0168 -0.012,-0.0254 l -0.041,-0.0215 z m -58.2324,229.986326 c 17.4824,10.861304 37.6484,16.632424 58.2324,16.656254 0.018,-4e-5 0.035,-0.002 0.053,-0.002 0.018,5e-5 0.035,0.002 0.053,0.002 20.584,-0.0238 40.75,-5.79498 58.2324,-16.656254 4.9708,41.711324 33.1437,77.011264 72.7246,91.101564 -20.5168,20.69503 -32.0363,48.65152 -32.0547,77.79297 0.041,12.23471 2.113,24.37725 6.1289,35.93359 -3.9014,-0.42969 -7.8229,-0.65327 -11.748,-0.66601 -0.021,3e-5 -0.042,0.002 -0.062,0.002 -0.015,-1.7e-4 -0.03,-0.002 -0.045,-0.002 -37.7776,0.0105 -72.9293,19.30495 -93.2285,51.1543 -20.2992,-31.84932 -55.4509,-51.14376 -93.2285,-51.1543 -0.015,1.6e-4 -0.03,0.002 -0.045,0.002 -0.021,-4e-5 -0.042,-0.002 -0.062,-0.002 -3.9252,0.0127 -7.8466,0.23632 -11.7481,0.66601 4.016,-11.55635 6.0881,-23.69887 6.1289,-35.93359 -0.018,-29.14145 -11.5378,-57.09794 -32.0547,-77.79297 39.5809,-14.0903 67.7538,-49.39024 72.7246,-91.101564 z"
         style="opacity:0.72600002;fill:none;fill-opacity:0.86315786;fill-rule:nonzero;stroke:#711571;stroke-width:8;stroke-linecap:butt;stroke-linejoin:round;stroke-miterlimit:4;stroke-dasharray:none;stroke-dashoffset:0;stroke-opacity:0.94736843"
         inkscape:connector-curvature="0" />
    </g>
  </g>
</svg>
