<?xml version="1.0" encoding="UTF-8" standalone="no"?>
<!-- Created with Inkscape (http://www.inkscape.org/) -->

<svg
   xmlns:dc="http://purl.org/dc/elements/1.1/"
   xmlns:cc="http://creativecommons.org/ns#"
   xmlns:rdf="http://www.w3.org/1999/02/22-rdf-syntax-ns#"
   xmlns:svg="http://www.w3.org/2000/svg"
   xmlns="http://www.w3.org/2000/svg"
   xmlns:sodipodi="http://sodipodi.sourceforge.net/DTD/sodipodi-0.dtd"
   xmlns:inkscape="http://www.inkscape.org/namespaces/inkscape"
   width="594mm"
   height="420mm"
   viewBox="0 0 594 420"
   version="1.1"
   id="svg4536"
   inkscape:version="0.91 r13725"
   sodipodi:docname="onderzetters.svg">
  <defs
     id="defs4530">
    <inkscape:perspective
       sodipodi:type="inkscape:persp3d"
       inkscape:vp_x="0 : 210 : 1"
       inkscape:vp_y="0 : 1000 : 0"
       inkscape:vp_z="594 : 210 : 1"
       inkscape:persp3d-origin="297 : 140 : 1"
       id="perspective6493" />
  </defs>
  <sodipodi:namedview
     id="base"
     pagecolor="#ffffff"
     bordercolor="#666666"
     borderopacity="1.0"
     inkscape:pageopacity="0.0"
     inkscape:pageshadow="2"
     inkscape:zoom="0.35"
     inkscape:cx="1217.5255"
     inkscape:cy="581.604"
     inkscape:document-units="mm"
     inkscape:current-layer="layer1"
     showgrid="false"
     inkscape:window-width="1920"
     inkscape:window-height="1017"
     inkscape:window-x="-8"
     inkscape:window-y="-8"
     inkscape:window-maximized="1"
     inkscape:snap-object-midpoints="true"
     inkscape:snap-center="true"
     inkscape:object-nodes="true"
     inkscape:snap-intersection-paths="true" />
  <metadata
     id="metadata4533">
    <rdf:RDF>
      <cc:Work
         rdf:about="">
        <dc:format>image/svg+xml</dc:format>
        <dc:type
           rdf:resource="http://purl.org/dc/dcmitype/StillImage" />
        <dc:title></dc:title>
      </cc:Work>
    </rdf:RDF>
  </metadata>
  <g
     inkscape:label="Layer 1"
     inkscape:groupmode="layer"
     id="layer1"
     transform="translate(0,123)">
    <path
       style="opacity:1;fill:#000000;fill-opacity:1;fill-rule:nonzero;stroke:none;stroke-width:17.71653557;stroke-linecap:butt;stroke-linejoin:round;stroke-miterlimit:4;stroke-dasharray:none;stroke-dashoffset:0;stroke-opacity:1"
       d="m 87.490758,204.22729 a 44.395237,44.395237 0 0 0 -29.325756,11.14061 44.395237,44.395237 0 0 0 -0.334589,0.29216 l 0.0215,0 a 44.395237,44.395237 0 0 0 -1.607896,1.49984 l -0.04134,0 a 44.395237,44.395237 0 0 0 -0.274506,0.29489 44.395237,44.395237 0 0 0 -0.863202,0.92662 44.395237,44.395237 0 0 0 -1.465682,1.57317 l 0.08489,0 a 44.395237,44.395237 0 0 0 -2.527323,3.19704 l 0.103629,0 a 44.395237,44.395237 0 0 0 -3.312803,5.3931 l 16.437237,0 0,1.49984 -17.161535,0 a 44.395237,44.395237 0 0 0 -1.172436,2.79521 l 5.449316,0 0,1.49987 -5.996672,0 a 44.395237,44.395237 0 0 0 -0.841705,2.79465 l 19.723032,0 0,1.50041 -20.106126,0 a 44.395237,44.395237 0 0 0 -0.544051,2.79467 l 7.765522,0 0,1.49985 -7.99207,0 a 44.395237,44.395237 0 0 0 -0.267341,2.79521 l 21.144066,0 0,1.49987 -21.21903,0 a 44.395237,44.395237 0 0 0 -0.07001,1.39841 44.395237,44.395237 0 0 0 0.04961,1.3968 l 8.354771,0 0,1.49984 -8.301854,0 a 44.395237,44.395237 0 0 0 0.318603,2.79468 l 20.867906,0 0,1.50041 -20.686005,0 a 44.395237,44.395237 0 0 0 0.590903,2.79465 l 7.210447,0 0,1.49987 -6.873655,0 a 44.395237,44.395237 0 0 0 0.886353,2.79521 l 18.871957,0 0,1.49984 -18.373657,0 a 44.395237,44.395237 0 0 0 1.21543,2.79468 l 4.273572,0 0,1.50041 -3.602191,0 a 44.395237,44.395237 0 0 0 1.595766,2.79465 l 14.89108,0 0,1.49987 -13.976612,0 a 44.395237,44.395237 0 0 0 1.422685,1.93971 l -0.03528,0 a 44.395237,44.395237 0 0 0 0.347266,0.4261 44.395237,44.395237 0 0 0 1.961224,2.40385 44.395237,44.395237 0 0 0 1.01589,1.12889 44.395237,44.395237 0 0 0 1.093612,1.19171 l 0.09536,0 a 44.395237,44.395237 0 0 0 7.196666,5.79493 l -0.07882,0 a 44.395237,44.395237 0 0 0 0.582083,0.3346 44.395237,44.395237 0 0 0 2.542204,1.46016 44.395237,44.395237 0 0 0 1.597973,0.84557 44.395237,44.395237 0 0 0 3.874494,1.65419 l -0.01323,0 a 44.395237,44.395237 0 0 0 0.06118,0.0198 44.395237,44.395237 0 0 0 3.598883,1.15259 44.395237,44.395237 0 0 0 0.744695,0.21938 44.395237,44.395237 0 0 0 3.212481,0.68407 44.395237,44.395237 0 0 0 1.245746,0.23481 44.395237,44.395237 0 0 0 2.757732,0.30483 44.395237,44.395237 0 0 0 1.940278,0.16866 44.395237,44.395237 0 0 0 1.919331,0.0607 44.395237,44.395237 0 0 0 0.963523,-0.0496 l 0.436011,0 a 44.395237,44.395237 0 0 0 0.745245,-0.0606 44.395237,44.395237 0 0 0 3.259336,-0.26625 44.395237,44.395237 0 0 0 1.381345,-0.21056 44.395237,44.395237 0 0 0 2.886163,-0.52917 44.395237,44.395237 0 0 0 1.693883,-0.43547 44.395237,44.395237 0 0 0 2.47937,-0.71656 44.395237,44.395237 0 0 0 1.7231,-0.57658 l -0.15049,0 a 44.395237,44.395237 0 0 0 3.54873,-1.49984 l 0.0865,0 a 44.395237,44.395237 0 0 0 0.91557,-0.48562 44.395237,44.395237 0 0 0 2.0202,-1.07267 44.395237,44.395237 0 0 0 2.14037,-1.23639 l -0.13009,0 a 44.395237,44.395237 0 0 0 2.1729,-1.50041 l 0.0551,0 a 44.395237,44.395237 0 0 0 0.82792,-0.67358 44.395237,44.395237 0 0 0 2.17675,-1.77052 44.395237,44.395237 0 0 0 0.43105,-0.35055 l -0.0557,0 a 44.395237,44.395237 0 0 0 1.60514,-1.49987 l 0.0783,0 a 44.395237,44.395237 0 0 0 0.52311,-0.56167 44.395237,44.395237 0 0 0 0.0446,-0.048 44.395237,44.395237 0 0 0 2.03619,-2.18559 l -0.12182,0 a 44.395237,44.395237 0 0 0 1.27056,-1.49984 l 0.003,0 a 44.395237,44.395237 0 0 0 0.0287,-0.0408 44.395237,44.395237 0 0 0 0.62178,-0.81469 l -0.0524,0 a 44.395237,44.395237 0 0 0 3.9004,-6.23423 l -16.50945,0 0,-1.50041 17.2343,0 a 44.395237,44.395237 0 0 0 1.17188,-2.79468 l -5.52152,0 0,-1.49984 6.06888,0 a 44.395237,44.395237 0 0 0 0.8417,-2.79521 l -19.79524,0 0,-1.49987 20.17834,0 a 44.395237,44.395237 0 0 0 0.5435,-2.79465 l -7.83718,0 0,-1.50041 8.06428,0 a 44.395237,44.395237 0 0 0 0.26679,-2.79468 l -21.21573,0 0,-1.49984 21.29069,0 a 44.395237,44.395237 0 0 0 0.07,-1.3968 44.395237,44.395237 0 0 0 -0.0496,-1.39841 l -8.42643,0 0,-1.49987 8.37351,0 a 44.395237,44.395237 0 0 0 -0.3186,-2.79521 l -20.93957,0 0,-1.49985 20.75767,0 a 44.395237,44.395237 0 0 0 -0.59091,-2.79467 l -7.2821,0 0,-1.50041 6.94531,0 a 44.395237,44.395237 0 0 0 -0.88691,-2.79465 l -18.94306,0 0,-1.49987 18.44421,0 a 44.395237,44.395237 0 0 0 -1.21543,-2.79521 l -4.34412,0 0,-1.49984 3.67275,0 a 44.395237,44.395237 0 0 0 -1.59577,-2.79522 l -14.96164,0 0,-1.49987 14.04662,0 a 44.395237,44.395237 0 0 0 -0.80533,-1.09801 l 0.0198,0 a 44.395237,44.395237 0 0 0 -0.34617,-0.44484 44.395237,44.395237 0 0 0 -2.16021,-2.77757 44.395237,44.395237 0 0 0 -0.83619,-0.9288 44.395237,44.395237 0 0 0 -1.67735,-1.84051 l -0.075,0 a 44.395237,44.395237 0 0 0 -1.59301,-1.49984 l 0.0579,0 a 44.395237,44.395237 0 0 0 -1.08038,-0.87864 44.395237,44.395237 0 0 0 -2.01635,-1.63988 44.395237,44.395237 0 0 0 -0.3401,-0.2767 l -0.0557,0 a 44.395237,44.395237 0 0 0 -2.14753,-1.49987 l 0.0358,0 a 44.395237,44.395237 0 0 0 -0.20946,-0.12127 44.395237,44.395237 0 0 0 -2.38896,-1.38353 44.395237,44.395237 0 0 0 -1.47726,-0.82573 44.395237,44.395237 0 0 0 -2.41267,-1.09195 44.395237,44.395237 0 0 0 -1.6553,-0.71879 44.395237,44.395237 0 0 0 -2.41488,-0.81359 44.395237,44.395237 0 0 0 -1.811841,-0.57988 44.395237,44.395237 0 0 0 -2.393377,-0.54791 44.395237,44.395237 0 0 0 -1.950751,-0.41506 44.395237,44.395237 0 0 0 -2.336602,-0.29379 44.395237,44.395237 0 0 0 -2.147533,-0.23648 44.395237,44.395237 0 0 0 -2.863012,-0.1097 z m -32.798963,20.02234 24.294812,0 0,1.49987 -24.294812,0 0,-1.49987 z m 28.345694,0 24.296461,0 0,1.49987 -24.296461,0 0,-1.49987 z m -15.461036,4.29509 24.294811,0 0,1.49984 -24.294811,0 0,-1.49984 z m 28.345694,0 24.297013,0 0,1.49984 -24.297013,0 0,-1.49984 z m -41.230352,4.29505 24.294812,0 0,1.49987 -24.294812,0 0,-1.49987 z m 28.345694,0 24.296461,0 0,1.49987 -24.296461,0 0,-1.49987 z m -15.461036,4.29452 24.294811,0 0,1.50041 -24.294811,0 0,-1.50041 z m 28.345694,0 24.297013,0 0,1.50041 -24.297013,0 0,-1.50041 z m -41.230352,4.29508 24.294812,0 0,1.49985 -24.294812,0 0,-1.49985 z m 28.345694,0 24.296461,0 0,1.49985 -24.296461,0 0,-1.49985 z m -15.461036,4.29506 24.294811,0 0,1.49987 -24.294811,0 0,-1.49987 z m 28.345694,0 24.297013,0 0,1.49987 -24.297013,0 0,-1.49987 z m -41.230352,4.29508 24.294812,0 0,1.49984 -24.294812,0 0,-1.49984 z m 28.345694,0 24.296461,0 0,1.49984 -24.296461,0 0,-1.49984 z m -15.461036,4.29452 24.294811,0 0,1.50041 -24.294811,0 0,-1.50041 z m 28.345694,0 24.297013,0 0,1.50041 -24.297013,0 0,-1.50041 z m -41.230352,4.29506 24.294812,0 0,1.49987 -24.294812,0 0,-1.49987 z m 28.345694,0 24.296461,0 0,1.49987 -24.296461,0 0,-1.49987 z m -15.461036,4.29508 24.294811,0 0,1.49984 -24.294811,0 0,-1.49984 z m 28.345694,0 24.297013,0 0,1.49984 -24.297013,0 0,-1.49984 z m -41.230352,4.29452 24.294812,0 0,1.50041 -24.294812,0 0,-1.50041 z m 28.345694,0 24.296461,0 0,1.50041 -24.296461,0 0,-1.50041 z m -15.461036,4.29506 24.294811,0 0,1.49987 -24.294811,0 0,-1.49987 z m 28.345694,0 24.297013,0 0,1.49987 -24.297013,0 0,-1.49987 z"
       id="path4279-9"
       inkscape:connector-curvature="0" />
    <path
       style="opacity:1;fill:#000000;fill-opacity:1;fill-rule:nonzero;stroke:none;stroke-width:17.71653557;stroke-linecap:butt;stroke-linejoin:round;stroke-miterlimit:4;stroke-dasharray:none;stroke-dashoffset:0;stroke-opacity:1"
       d="m 232.1102,115.33038 c 12.02235,21.75155 39.40154,29.63857 61.15303,17.61612 21.75156,-12.02235 29.63858,-39.401553 17.61612,-61.153045 C 298.85699,50.0419 271.47779,42.154893 249.7263,54.17736 227.97476,66.199708 220.08775,93.578896 232.1102,115.33038 Z m 6.8712,-19.600163 c -0.19983,-0.372919 -0.39483,-0.752084 -0.58403,-1.137392 -2.33263,-5.437344 -1.70778,-9.175456 1.87423,-11.213778 2.55388,-1.411571 5.11264,-1.597124 7.6761,-0.557314 2.52869,1.029782 4.14151,3.048053 4.83855,6.055344 -2.53698,-1.7856 -5.33965,-1.961957 -8.4082,-0.529139 -3.50894,1.588502 -4.54181,3.768025 -3.09839,6.53827 1.89503,3.164035 4.70073,5.488512 8.41681,6.973362 3.68128,1.47484 7.68966,1.16022 12.02513,-0.94359 2.15064,-1.188691 3.54135,-2.878465 4.17262,-5.069884 -1.29418,-1.653635 -2.43979,-3.462471 -3.43744,-5.426219 l 2.14408,-0.08877 c 2.06781,3.741192 5.76144,6.481761 11.08052,8.221211 5.31911,1.739432 10.58832,1.166557 15.80807,-1.718483 2.39706,-1.324889 3.83885,-2.896493 4.32512,-4.715313 0.47388,-1.841212 -0.0256,-4.094926 -1.49902,-6.760808 -2.78363,-4.983352 -7.98635,-9.024808 -15.60716,-12.12421 l 0.5441,-1.397592 c 2.46376,0.0128 6.14496,1.356089 11.04436,4.029417 4.87698,2.685703 8.7386,6.576369 11.58413,11.671735 2.03067,3.673994 2.80738,7.221885 2.33006,10.644301 -0.49973,3.434785 -2.59778,6.174015 -6.29417,8.217065 -5.86119,2.88862 -12.35491,2.67549 -19.48052,-0.63914 -2.20796,-1.03158 -4.23002,-2.28249 -6.0666,-3.75331 -0.26037,3.12702 -1.77971,5.45808 -4.55759,6.99346 -5.11957,2.5372 -10.53589,2.31415 -16.25006,-0.66923 -5.38967,-2.80631 -9.58323,-7.00632 -12.5807,-12.599994 z"
       id="path4268"
       inkscape:connector-curvature="0"
       sodipodi:nodetypes="sssssccccccccccccsscccccccccccccc" />
    <path
       style="opacity:1;fill:#000000;fill-opacity:1;fill-rule:nonzero;stroke:none;stroke-width:17.71653557;stroke-linecap:butt;stroke-linejoin:round;stroke-miterlimit:4;stroke-dasharray:none;stroke-dashoffset:0;stroke-opacity:1"
       d="m 182.87885,170.95485 a 45.000005,45.000005 0 0 0 42.40002,47.45774 45.000005,45.000005 0 0 0 47.45776,-42.40003 45.000005,45.000005 0 0 0 -42.40005,-47.45774 45.000005,45.000005 0 0 0 -47.45773,42.40003 z M 199.323,151.2687 c 0.0774,-1.25026 0.18097,-2.52488 0.31077,-3.82368 l 1.21515,0.61153 c -0.40134,7.13046 0.51903,13.93697 2.76185,20.41946 2.24382,6.46444 5.33112,10.16965 9.26186,11.11525 3.05255,0.46156 4.75716,-1.02704 5.11369,-4.46578 0.0742,-1.31778 -0.26841,-2.46919 -1.0279,-3.4536 l 1.37684,-0.32964 c 1.44093,1.74713 2.18576,3.95276 2.23497,6.61755 0.0393,2.51936 -0.52085,4.58859 -1.6804,6.20747 -1.17759,1.61785 -3.07495,2.35293 -5.69246,2.20561 -5.48422,-1.01494 -9.37104,-5.15418 -11.66043,-12.41798 -2.01811,-6.3725 -2.75602,-13.93443 -2.2139,-22.68619 z m 3.09048,-2.11482 c 0.0102,-0.21709 0.0225,-0.43542 0.0398,-0.65403 l 1.32809,0.53692 c -0.18006,3.5211 3.08285,6.52065 9.78857,8.99872 l 32.64566,11.6704 c 4.1197,1.77115 6.98574,4.41353 8.59888,7.92692 1.63222,3.49635 2.26661,6.86418 1.9032,10.10334 -0.19278,4.38962 -1.19191,7.50246 -2.9975,9.3385 -1.78753,1.83704 -4.28309,2.42088 -7.48692,1.75161 -2.94197,-0.81753 -5.30902,-2.84302 -7.10089,-6.07672 -1.79084,-3.25176 -2.54203,-6.95225 -2.25418,-11.10111 l 1.48939,-0.40518 c -0.14663,2.92541 0.56359,5.42851 2.13067,7.50871 1.56806,2.06213 3.67926,3.48443 6.33342,4.26764 2.79677,0.50149 4.76086,0.19595 5.89197,-0.91751 1.13211,-1.13147 1.74943,-2.77218 1.85229,-4.92136 -0.003,-4.45496 -3.16749,-7.91056 -9.49411,-10.3673 l -32.6452,-11.67083 c -3.95949,-1.39994 -6.67659,-3.64447 -8.15063,-6.73352 -1.3979,-2.91387 -2.02194,-5.9987 -1.87259,-9.25521 z"
       id="path4156-5-1"
       inkscape:connector-curvature="0" />
    <path
       style="opacity:1;fill:#000000;fill-opacity:1;fill-rule:nonzero;stroke:none;stroke-width:17.71653557;stroke-linecap:butt;stroke-linejoin:round;stroke-miterlimit:4;stroke-dasharray:none;stroke-dashoffset:0;stroke-opacity:1"
       d="M 340.70138,52.381053 C 361.96962,39.52321 368.78761,11.85855 355.92976,-9.4096945 343.07192,-30.677939 315.40726,-37.495916 294.13901,-24.638078 c -21.26824,12.857843 -28.08622,40.522504 -15.22837,61.79075 12.85784,21.268244 40.5225,28.086219 61.79074,15.228381 z M 322.80045,37.354844 c -5.52932,3.342784 -11.06318,4.338331 -16.60196,2.986545 -5.54495,-1.326792 -9.70728,-5.063289 -12.48715,-11.209426 -2.93119,-7.522177 -3.48542,-14.120368 -1.66275,-19.7949493 1.80708,-5.6651592 5.31931,-10.07521618 10.53715,-13.2296872 3.77871,-2.263163 7.18642,-2.536572 10.22302,-0.820587 l -0.20666,1.241386 -0.11666,0.07053 c -2.75633,-0.970912 -5.78865,-0.445539 -9.09683,1.575711 -2.71016,1.63844202 -4.54393,4.937722 -5.50123,9.897721 -0.9573,4.9600085 -0.18197,10.3931635 2.32556,16.2998555 2.79651,6.455105 6.12581,10.397192 9.98865,11.826374 3.86285,1.42917 7.78679,1.024534 11.77161,-1.214354 5.28917,-3.282672 8.62301,-7.425091 10.00157,-12.427095 1.36297,-4.992575 1.06752,-9.333506 -0.88633,-13.0227244 -2.18021,-4.1691661 -4.71379,-6.2315561 -7.60095,-6.1875711 l 3.45397,13.5756395 c 0.87007,4.429507 0.41742,8.095737 -1.35832,10.998351 -1.78191,2.927602 -3.96913,5.132252 -6.56118,6.614222 l -0.30883,-1.408094 c 2.58957,-2.224863 3.14936,-6.593625 1.67925,-13.106226 L 316.63454,5.2561975 c -4.12752,2.4953134 -5.91641,5.2356025 -5.36643,8.2209635 0.37949,1.472045 0.9996,2.479954 1.85979,3.023336 l -0.16039,1.053657 c -1.00477,0.09701 -1.91947,-0.360289 -2.74378,-1.371998 -1.53592,-2.857203 -1.42948,-5.60095 0.31908,-8.2319016 1.74856,-2.6309599 3.56414,-4.3775619 5.44659,-5.2391279 l -0.32759,-1.333131 c -0.87008,-4.429489 -0.46433,-8.173279 1.21725,-11.231647 1.50155,-2.7581145 3.94837,-5.1309515 7.34094,-7.1181385 4.24343,-2.373984 7.26159,-1.603575 9.05388,2.310929 0.78405,2.035654 0.87765,3.914338 0.28099,5.6362235 -0.60283,1.746885 -1.98422,3.156044 -4.14378,4.227667 l -0.26715,-1.497385 c 2.38271,-1.546812 3.06671,-3.8103305 2.05165,-6.7910075 -1.20452,-2.695999 -3.16113,-3.469952 -5.86979,-2.321579 -3.62259,2.27513 -4.66086,6.8375745 -3.11471,13.6870235 l 0.46474,1.82422602 c 5.88887,-1.30570702 10.27719,0.869191 13.16468,6.52489198 2.5655,5.5100815 2.57179,11.0787505 0.0186,16.7058245 -2.55324,5.627091 -6.90628,10.30039 -13.05863,14.019833 z"
       id="path4156-0"
       inkscape:connector-curvature="0"
       sodipodi:nodetypes="ssssscccccccccscsccccccccccccccscccccccccccccscc" />
    <path
       style="opacity:1;fill:#000000;fill-opacity:1;fill-rule:nonzero;stroke:none;stroke-width:17.71653557;stroke-linecap:butt;stroke-linejoin:round;stroke-miterlimit:4;stroke-dasharray:none;stroke-dashoffset:0;stroke-opacity:1"
       d="m 525.37048,-23.902785 a 45.000003,45.000003 0 0 0 -61.74684,15.4060858 45.000003,45.000003 0 0 0 15.40608,61.7468432 45.000003,45.000003 0 0 0 61.74684,-15.406087 45.000003,45.000003 0 0 0 -15.40608,-61.746842 z m 0.0282,26.0109518 c 4.61665,2.9842087 6.01449,6.0305998 4.19413,9.1394912 -1.07769,1.794246 -2.61584,3.006484 -4.61453,3.637156 -1.97105,0.623797 -4.23513,0.602511 -6.79233,-0.0648 l -0.0511,-1.08714 c 2.63695,-0.129935 4.87226,-1.545815 6.70624,-4.2474345 1.20909,-2.3257047 0.89078,-4.0431422 -0.95521,-5.151911 -6.96355,-3.1026397 -15.66347,-2.0242267 -26.09962,3.2343432 -5.28901,3.0209953 -8.953,6.7363363 -10.99142,11.1463163 -2.03839,4.409992 -1.13358,7.770109 2.71368,10.08091 4.98594,2.994726 10.38879,4.04496 16.20834,3.15031 l 0.3361,0.905965 -0.0781,0.129946 c -2.703,1.099736 -6.02159,1.524049 -9.95612,1.273711 -3.9345,-0.250331 -7.48592,-1.315058 -10.65347,-3.194129 -7.15284,-4.272754 -10.07492,-9.080356 -8.76778,-14.42259 1.32438,-5.331855 5.08982,-9.9013632 11.29729,-13.7088572 6.24192,-3.66940805 12.74358,-5.504586 19.50493,-5.504892 6.78898,-0.0072 12.7887,1.554177 17.99891,4.68361 z"
       id="path4156-1"
       inkscape:connector-curvature="0" />
    <path
       style="opacity:1;fill:#000000;fill-opacity:1;fill-rule:nonzero;stroke:none;stroke-width:17.71653557;stroke-linecap:butt;stroke-linejoin:round;stroke-miterlimit:4;stroke-dasharray:none;stroke-dashoffset:0;stroke-opacity:1"
       d="m 387.34078,-24.509608 c -21.92794,11.697357 -30.22146,38.956039 -18.5241,60.883976 11.69735,21.927934 38.95603,30.221454 60.88396,18.524105 C 451.62857,43.201121 459.9221,15.942442 448.22475,-5.9854917 436.5274,-27.913429 409.26872,-36.206962 387.34078,-24.509608 Z m 6.19106,20.3455703 c 6.6878,-3.434746 12.77388,-5.258489 18.25848,-5.470716 5.49937,-0.220093 10.34789,-1.4115413 14.54513,-3.5746323 l 0.16269,1.478631 c -8.61305,4.5567033 -15.55332,6.9492733 -20.82026,7.1782163 -5.26695,0.228942 -9.53214,1.2329 -12.79578,3.011822 -2.90812,1.62720401 -4.90279,3.384198 -5.98399,5.270275 -1.07431,1.8634239 -1.28296,4.0334477 -0.62585,6.5102787 1.15946,3.347396 2.99998,5.107621 5.5212,5.280742 2.52123,0.173103 4.65658,-0.501283 6.40651,-2.023024 l 0.44938,1.269017 c -3.9155,2.904661 -7.3965,4.258559 -10.44265,4.06185 -3.04615,-0.196702 -5.22571,-1.899333 -6.53878,-5.107858 -1.14071,-2.920956 -0.81079,-5.8956117 0.98924,-8.924177 1.80693,-3.0512087 5.43168,-6.0379077 10.87468,-8.9604247 z m 33.32526,-6.3065823 0.31318,1.6544903 c -2.23747,1.212565 -2.87799,4.742237 -1.92217,10.589206 l 3.97081,19.7698987 c 0.65723,3.899945 0.81809,6.157676 0.48232,6.773234 1.556,-0.640286 2.61896,-1.510878 3.1891,-2.611983 l 0.57631,0.973277 c 0.30737,1.145354 -0.24939,2.182743 -1.67044,3.111577 l -8.85288,4.69393 -0.41396,-1.629276 c 1.39544,-1.048009 1.16384,-5.431247 -0.69524,-13.149342 l -0.0591,-0.110814 c -4.10267,2.340357 -7.99715,4.057232 -11.68335,5.150743 l 0.63544,3.218909 c 1.29874,8.339586 -1.20316,14.143099 -7.5059,17.410387 -3.27054,1.801539 -6.08457,2.30667 -8.44236,1.515067 -2.36568,-0.806391 -4.01515,-2.564443 -4.94803,-5.273679 -1.08362,-3.311951 -0.91692,-6.360683 0.50004,-9.146945 1.42384,-2.808906 3.74936,-5.083807 6.97656,-6.824315 1.90362,-1.091359 3.77375,-2.031888 5.6104,-2.821939 l -3.37244,-16.674007 -2.34904,1.25308 -0.32503,-1.6767305 8.50855,-4.5388452 3.78361,19.4717097 c 1.67521,-0.381286 3.66619,-0.722143 5.97269,-1.022724 2.31337,-0.323235 4.44987,-0.960348 6.40964,-1.910899 L 418.84882,4.9305681 c -1.47293,-6.7096398 1.19639,-11.8433558 8.00828,-15.4012131 z m -29.2317,38.364288 c -1.64657,0.897351 -2.91614,2.466522 -3.80822,4.707134 -0.8773,2.232728 -0.87422,4.621659 0.009,7.167412 0.86982,2.306439 2.15032,3.710823 3.84135,4.212943 1.7058,0.494245 3.35971,0.304457 4.96198,-0.569242 1.97945,-1.055927 2.85327,-3.295946 2.62054,-6.720236 -0.24061,-3.439066 -0.83159,-7.090113 -1.77246,-10.952604 -2.11441,0.482761 -4.06519,1.201106 -5.8526,2.154593 z"
       id="path4156-5"
       inkscape:connector-curvature="0"
       sodipodi:nodetypes="sssssccccscccsccsccccccccccccccccccccccccccccccccccccccccc" />
    <path
       style="opacity:1;fill:#000000;fill-opacity:1;fill-rule:nonzero;stroke:none;stroke-width:17.71653557;stroke-linecap:butt;stroke-linejoin:round;stroke-miterlimit:4;stroke-dasharray:none;stroke-dashoffset:0;stroke-opacity:1"
       d="M 383.66907,53.879179 A 45.000007,45.000007 0 0 0 322.75526,72.304933 45.000007,45.000007 0 0 0 341.181,133.21874 45.000007,45.000007 0 0 0 402.09481,114.79299 45.000007,45.000007 0 0 0 383.66907,53.879179 Z m 1.04168,22.796439 c 5.17486,2.761041 9.14286,6.239371 11.90368,10.435955 2.94486,4.476362 2.57535,9.323402 -1.10933,14.541397 -4.31894,5.03814 -9.89301,6.98434 -16.72182,5.83859 -6.81926,-1.16347 -12.29567,-3.17171 -16.42949,-6.02469 l 1.10302,-1.29265 c 4.68248,2.55317 9.12403,3.5737 13.32515,3.06117 4.22836,-0.52079 7.70312,-2.5752 10.42376,-6.163506 2.99054,-3.580753 3.7925,-7.146478 2.40635,-10.696798 -1.38615,-3.550306 -4.34893,-6.415518 -8.88877,-8.595589 -5.30524,-2.498627 -10.07434,-3.568778 -14.30716,-3.210185 -4.22332,0.340861 -7.35189,1.941365 -9.38586,4.801602 -2.31522,3.257521 -2.14595,5.733816 0.50768,7.428841 l -1.25417,1.383176 c -2.64462,-0.731369 -4.61513,-2.06075 -5.9117,-3.987862 -1.26933,-1.935367 -0.98923,-4.398865 0.84135,-7.390849 2.62554,-4.050171 6.87927,-6.109926 12.76067,-6.179239 5.89091,-0.08704 12.45288,1.749084 19.68563,5.50823 0.35572,0.177675 0.70601,0.358343 1.051,0.542416 z m 0.0475,5.965579 c 0.21466,0.111553 0.42766,0.227888 0.64043,0.3475 l -1.16473,1.088612 c -3.46907,-1.834964 -8.02836,0.04963 -13.67768,5.653753 l -14.91529,15.126968 c -3.53171,2.97133 -7.49846,4.43133 -11.89986,4.38004 -4.37416,-0.0595 -8.02171,-0.98578 -10.94274,-2.77835 -3.98483,-2.06545 -6.50205,-4.61211 -7.55169,-7.63978 -1.04015,-3.04541 -0.56541,-5.849825 1.42425,-8.414183 2.39635,-2.940125 5.42216,-4.561954 9.07719,-4.864708 3.67274,-0.293259 7.31655,0.44839 10.93132,2.22438 l -0.29065,1.693286 c -2.3514,-1.236308 -4.94479,-1.551838 -7.77993,-0.947004 -2.81739,0.61435 -5.203,2.212859 -7.15717,4.796215 -1.62921,2.232313 -2.04132,4.408841 -1.23637,6.529283 0.8227,2.129931 2.2055,3.703891 4.1488,4.721751 4.4974,2.08883 9.376,0.69468 14.6358,-4.18207 l 14.91571,-15.126759 c 3.27188,-3.338774 6.81257,-5.026913 10.62221,-5.064228 3.59707,-0.04272 7.00395,0.775641 10.22041,2.455329 z"
       id="path4156-2"
       inkscape:connector-curvature="0" />
    <path
       style="opacity:1;fill:#000000;fill-opacity:1;fill-rule:nonzero;stroke:none;stroke-width:17.71653557;stroke-linecap:butt;stroke-linejoin:round;stroke-miterlimit:4;stroke-dasharray:none;stroke-dashoffset:0;stroke-opacity:1"
       d="M 567.39217,133.42708 C 589.81218,122.70303 599.29365,95.834466 588.5696,73.414449 577.84556,50.994435 550.97698,41.512973 528.55697,52.237015 c -22.42002,10.724043 -31.90148,37.592619 -21.17744,60.012625 10.72405,22.42002 37.59262,31.90148 60.01264,21.17744 z m -1.68653,-22.64689 c -4.6977,2.20869 -8.61385,3.33811 -11.74856,3.38824 -3.35983,0.0612 -6.28131,0.64597 -8.76377,1.75412 l -0.10394,-1.58531 c 5.37725,-2.92881 9.76223,-4.45161 13.15502,-4.56819 3.39277,-0.11659 6.46864,-0.85425 9.22738,-2.21346 2.37238,-1.21405 4.09886,-2.76342 5.17943,-4.64781 1.07217,-1.86055 1.19642,-4.169686 0.37297,-6.927069 -0.8557,-2.741965 -2.66481,-4.244656 -5.42716,-4.508896 -2.76236,-0.264237 -5.11269,0.374407 -7.05093,1.915917 l -0.41966,-1.374994 c 4.79727,-3.146884 8.71617,-4.545854 11.75692,-4.196773 3.04079,0.349075 5.10924,2.104561 6.20549,5.266574 1.08014,3.16973 0.61032,6.268151 -1.40993,9.295691 -2.02864,3.05137 -5.3698,5.70014 -10.02336,7.94586 -0.32011,0.15689 -0.63672,0.30889 -0.94988,0.45613 z m -35.84665,12.72555 c -0.75081,0.36933 -1.55915,0.69334 -2.42469,0.9711 l -0.0663,-1.69291 c 2.75456,-1.11938 3.91769,-5.21316 3.48956,-12.28205 -0.44427,-7.06115 1.32278,-12.068669 5.30099,-15.021962 -2.42637,1.101128 -4.42513,1.294335 -5.99604,0.57911 -1.8879,-0.880705 -3.01487,-3.195683 -3.38113,-6.944712 l -0.42308,-4.61397 c -0.40335,-2.086277 -1.08882,-2.897668 -2.05657,-2.434774 -0.46773,0.22373 -1.22325,1.130068 -2.26667,2.719236 l -0.71032,-0.5522 c 1.54894,-3.971424 3.61382,-6.574327 6.19446,-7.808712 2.11292,-1.01066 3.6338,-0.628141 4.56239,1.14745 0.91036,1.90323 1.63217,5.422451 2.16611,10.557902 0.60964,4.465019 4.77651,4.681861 12.50021,0.650498 l -1.42479,-9.069721 c -0.27232,-4.091248 0.76621,-7.699676 3.11604,-10.825405 2.34141,-3.10188 4.92178,-5.227802 7.74086,-6.378042 3.89619,-1.92317 7.02752,-2.627926 9.39366,-2.114691 2.37387,0.529335 3.87929,2.018785 4.51617,4.469022 0.53802,2.616449 -0.0802,5.03305 -1.85436,7.249188 -1.79024,2.223847 -4.18681,3.925183 -7.19033,5.104193 l -1.06066,-1.098251 c 1.95303,-0.557615 3.49303,-1.730027 4.61989,-3.517648 1.11074,-1.779904 1.40854,-3.726215 0.89369,-5.838445 -0.58847,-2.017548 -1.67653,-3.131978 -3.26424,-3.343691 -1.60383,-0.203979 -3.44207,0.199756 -5.51499,1.211116 -3.85976,2.123674 -5.42517,6.35049 -4.69621,12.680904 l 2.99681,18.633395 c 0.67202,4.09825 0.0205,7.52157 -1.95488,10.26999 -1.98378,2.77226 -4.55579,4.87453 -7.7157,6.30672 l -0.16713,-1.4062 c 3.13745,-1.52055 4.1836,-5.77671 3.13834,-12.768402 l -1.07335,-6.532576 -3.79841,1.816875 c -4.58064,2.19103 -6.66558,7.320903 -6.25493,15.389113 0.36609,7.07378 -2.07874,11.9031 -7.33441,14.48855 z"
       id="path4156-28"
       inkscape:connector-curvature="0"
       sodipodi:nodetypes="sssssccccscccsccscccccccccccccsccsccccccccccccccccccccccsccc" />
    <path
       style="opacity:1;fill:#000000;fill-opacity:1;fill-rule:nonzero;stroke:none;stroke-width:0;stroke-linecap:butt;stroke-linejoin:round;stroke-miterlimit:4;stroke-dasharray:none;stroke-dashoffset:0;stroke-opacity:1"
       d="m 290.23456,209.05778 c -11.17362,-4.19376 -23.55556,-3.77707 -34.42194,1.15844 -10.86639,4.9355 -19.3271,13.9855 -23.52086,25.15911 -4.19377,11.17361 -3.77707,23.55556 1.15843,34.42194 4.93549,10.86638 13.98549,19.32709 25.1591,23.52086 11.17364,4.19383 23.55563,3.77718 34.42205,-1.15831 10.86642,-4.93548 19.32717,-13.9855 23.52095,-25.15915 4.19379,-11.17365 3.77707,-23.55564 -1.15847,-34.42204 -4.93552,-10.86642 -13.9856,-19.32712 -25.15926,-23.52085 z m -2.74263,14.72409 c 0.37577,0.3931 0.82304,0.79465 1.35778,1.20934 1.89519,1.46972 3.35061,5.27034 2.67047,8.97937 -2.34288,-2.32102 -5.19891,-4.19561 -8.48228,-5.42795 -3.27805,-1.23035 -6.65674,-1.69843 -9.94314,-1.49466 1.92906,-3.23709 5.52302,-5.13914 7.91581,-4.99901 0.6678,0.0391 1.26285,0.0316 1.79965,-0.0157 0.61717,1.07595 1.0767,2.26552 1.34062,3.52476 1.03087,-0.77731 2.164,-1.37194 3.34109,-1.77619 z m -4.91384,5.9822 c 2.16372,0.81744 4.18366,1.95829 5.99933,3.37364 0.13734,0.10709 0.27353,0.21567 0.4085,0.32588 -0.13486,-0.1099 -0.27084,-0.21883 -0.4085,-0.32588 -1.79312,-1.39437 -3.82355,-2.54522 -6.06063,-3.38486 -0.53512,-0.20084 -1.07297,-0.37954 -1.61277,-0.53845 0.56387,0.16154 1.12238,0.34446 1.67409,0.54961 z m -15.1311,-5.55351 4e-4,1.5e-4 c 0.5202,0.20273 1.04429,0.45604 1.56187,0.75922 0.005,0.003 0.0101,0.006 0.015,0.009 l 0.002,0.001 c 1.03219,0.55118 1.96295,1.28339 2.75943,2.1846 -6.69851,0.78452 -12.89624,4.3645 -16.91773,9.97084 -0.47069,-1.42768 -0.62881,-3.11213 -0.49068,-4.68252 0.15913,-1.80911 0.7205,-3.46197 1.54577,-4.39391 0.15367,-0.17352 0.29403,-0.34112 0.42768,-0.50519 0.004,-0.004 0.007,-0.009 0.0103,-0.0133 0.10188,-0.13712 0.20832,-0.27301 0.3186,-0.40782 0.004,-0.004 0.006,-0.009 0.0101,-0.0128 0.13998,-0.1871 0.26815,-0.37018 0.3864,-0.55039 1.08713,0.19154 2.19832,0.55194 3.31208,1.12476 0.0303,-1.25352 0.25898,-2.49341 0.67254,-3.67614 0.62848,-0.0278 1.32672,-0.12589 2.11398,-0.30581 1.19019,-0.27203 2.71244,-0.11051 4.27257,0.49891 z m 30.19447,11.33283 c 1.57576,0.56761 2.82823,1.44749 3.54552,2.43542 0.46715,0.64343 0.92161,1.17059 1.36981,1.60137 -0.46707,1.16674 -1.11212,2.25446 -1.91647,3.22127 1.226,0.30404 2.30829,0.76863 3.2588,1.34646 -0.0291,0.21162 -0.0532,0.43159 -0.0708,0.66228 1.2e-4,0.005 -8.4e-4,0.0108 -7.6e-4,0.0163 -0.006,0.17555 -0.0152,0.34945 -0.0288,0.52088 1.2e-4,0.005 -9.8e-4,0.0112 -9.7e-4,0.0168 -0.007,0.21076 -0.0118,0.42838 -0.0102,0.65916 0.008,1.24483 -0.65657,2.85876 -1.7272,4.3258 -0.93254,1.27784 -2.16538,2.44626 -3.46421,3.21153 0.66432,-6.86959 -1.64539,-13.64615 -6.17282,-18.64691 1.1957,-0.15591 2.38139,-0.0952 3.52407,0.1697 0.002,5e-4 0.004,9.9e-4 0.005,0.001 l 0.004,8e-4 c 0.003,6.4e-4 0.006,0.001 0.009,0.002 0.58925,0.11219 1.15046,0.26674 1.67571,0.45593 z m -8.59009,-2.02644 c 0.11484,0.0945 0.22869,0.19008 0.34177,0.28677 -0.113,-0.0965 -0.22672,-0.19231 -0.34177,-0.28677 z m 0.46876,0.39611 c 0.0939,0.0815 0.1871,0.16368 0.27972,0.24669 -0.0926,-0.0829 -0.1857,-0.16519 -0.27972,-0.24669 z m 0.45788,0.40812 c 0.0781,0.0715 0.15583,0.1434 0.23297,0.216 -0.077,-0.0725 -0.15478,-0.14451 -0.23297,-0.216 z m -8.12229,-2.80704 c 2.62472,0.98513 4.93818,2.4338 6.88422,4.21661 -2.56688,1.09626 -4.62962,3.20168 -5.64,5.89377 -0.11103,0.29585 -0.20675,0.59382 -0.28925,0.89274 -0.28094,0.0473 -0.56487,0.0812 -0.85061,0.10294 -0.36014,-0.45407 -0.68754,-0.93465 -0.97958,-1.43767 0.009,0.006 0.018,0.0121 0.0271,0.0177 -0.65431,-1.11491 -1.12449,-2.32808 -1.39243,-3.59273 -1.0417,0.78088 -2.20336,1.38734 -3.43956,1.79569 0.0223,0.004 0.0446,0.008 0.0668,0.0126 -0.5619,0.18959 -1.136,0.33753 -1.71755,0.44213 -0.21696,-0.21787 -0.42245,-0.44531 -0.61596,-0.68172 0.13443,-0.27936 0.25822,-0.56649 0.36923,-0.86226 l 3.1e-4,-8.2e-4 c 1.008,-2.69418 0.83653,-5.63861 -0.37989,-8.15298 2.63818,-0.0619 5.33286,0.36925 7.9572,1.35424 z m 8.55922,3.21785 c 0.0442,0.0427 0.0893,0.0844 0.13317,0.12731 -1.7e-4,7.5e-4 -5e-5,0.001 -3e-4,0.002 -0.0441,-0.0433 -0.0883,-0.0865 -0.13282,-0.12943 z m 1.86321,2.02486 c 0.0508,0.0621 0.10063,0.12482 0.15074,0.18741 -0.05,-0.0627 -0.10004,-0.12524 -0.15074,-0.18741 z m 0.3278,0.411 c 0.0799,0.10228 0.15848,0.20525 0.2365,0.30871 -0.0778,-0.10356 -0.15688,-0.20641 -0.2365,-0.30871 z m 0.31176,0.40905 c 0.1005,0.13471 0.19922,0.27053 0.29656,0.40721 1.4011,1.96732 2.47565,4.13141 3.19593,6.40918 -0.72701,-2.28503 -1.80494,-4.4498 -3.19593,-6.40918 -0.0972,-0.13687 -0.19635,-0.27237 -0.29656,-0.40721 z m -21.67082,-7.18655 c -0.87213,3.1281 -0.20259,6.38291 1.60617,8.87717 -0.14907,0.26968 -0.31067,0.52939 -0.4826,0.77957 -0.58349,-0.001 -1.16821,-0.0454 -1.74967,-0.13201 0.0129,-0.005 0.0258,-0.009 0.0386,-0.0136 -0.85036,-0.12109 -1.6853,-0.33299 -2.4905,-0.63205 -0.40465,-0.15295 -0.80044,-0.32841 -1.18605,-0.52452 -0.0301,1.29051 -0.26782,2.56775 -0.70412,3.78264 0.006,-0.004 0.011,-0.009 0.0166,-0.0142 -0.0166,0.0465 -0.0309,0.0937 -0.0482,0.13993 -0.18668,0.49643 -0.40569,0.97673 -0.65315,1.43933 -0.29956,0.0328 -0.60163,0.0516 -0.90532,0.0554 -1.11782,-2.32601 -3.09816,-4.24177 -5.70171,-5.21895 l -0.002,-7.1e-4 c -0.47606,-0.17654 -0.96315,-0.31685 -1.45724,-0.42178 3.36694,-4.42284 8.32524,-7.30307 13.71907,-8.11625 z m 19.34625,7.26866 c 3.52027,4.15942 5.35531,9.58529 4.98141,15.12577 -0.43742,-0.24311 -0.89211,-0.45643 -1.36265,-0.63456 l -0.002,-7e-4 c -2.60355,-0.97719 -5.35535,-0.83753 -7.72755,0.17858 -0.19669,-0.17626 -0.38414,-0.36084 -0.56412,-0.55162 0.11956,-0.52856 0.27427,-1.05153 0.46683,-1.56458 0.017,-0.0454 0.0359,-0.09 0.0539,-0.13509 l 7e-4,0.007 c 0.28955,-0.74187 0.65202,-1.45318 1.08221,-2.12337 0.01,-0.0149 0.0197,-0.0296 0.0298,-0.0444 0.19216,-0.29485 0.39722,-0.58111 0.61451,-0.85796 0.0707,-0.0902 0.14099,-0.18071 0.21433,-0.26897 -9.6e-4,-3e-4 -0.002,-6e-4 -0.003,-8.5e-4 0.004,-0.006 0.01,-0.0119 0.0143,-0.018 -0.4196,-0.1028 -0.83331,-0.22828 -1.23944,-0.37559 -0.80384,-0.3049 -1.57282,-0.69478 -2.29352,-1.16352 0.005,0.009 0.01,0.0191 0.0149,0.0287 -0.52068,-0.33529 -1.01297,-0.70859 -1.47269,-1.11643 0.0348,-0.28763 0.0821,-0.57554 0.14425,-0.86281 3.00092,-0.68771 5.64493,-2.69595 7.04716,-5.62184 z m 5.83106,6.77853 c 0.0435,0.13858 0.0858,0.27753 0.12672,0.41693 -0.0412,-0.13929 -0.083,-0.27851 -0.12672,-0.41693 z m 0.19463,0.65284 c 0.0231,0.0817 0.0461,0.16336 0.0682,0.24532 -0.0223,-0.082 -0.0451,-0.16368 -0.0682,-0.24532 z m 1.79493,9.91416 c 2.61375,2.54422 3.65634,6.31078 3.01039,8.61559 -0.25129,0.89661 -0.38733,1.67698 -0.42758,2.36862 -1.13055,0.30869 -2.33216,0.47614 -3.56068,0.45462 0.007,0.0211 0.0137,0.0421 0.0209,0.0632 0.39526,0.93586 0.66085,1.985 0.80427,3.06949 -0.0916,0.0602 -0.1821,0.12215 -0.27035,0.18808 -0.0453,0.0138 -0.0875,0.036 -0.12456,0.0655 -0.0124,0.0103 -0.0328,0.0254 -0.0584,0.0457 -0.002,0.002 -0.003,0.003 -0.006,0.004 -0.41013,0.33769 -0.84818,0.64409 -1.3113,0.91478 l -8e-5,2.1e-4 c -1.25242,0.73449 -2.63209,1.17709 -4.04165,1.32165 -0.002,1e-5 -0.004,8.2e-4 -0.005,1.2e-4 -1.44903,0.16962 -3.00668,0.0265 -4.59491,-0.60426 4.10832,-2.73255 7.43118,-6.73867 9.29947,-11.71643 0.59362,-1.58162 1.01185,-3.18614 1.26524,-4.79192 z M 254.0434,238.35752 c -0.86429,1.37445 -1.60373,2.85619 -2.19659,4.43578 -1.86833,4.97785 -2.00207,10.181 -0.70617,14.94196 -1.60459,-0.5702 -2.86763,-1.4849 -3.84459,-2.56287 -0.002,-0.001 -0.002,-0.003 -0.004,-0.004 -0.96676,-1.03643 -1.71474,-2.27796 -2.17471,-3.65551 l 1.5e-4,-4e-4 c -0.17034,-0.50757 -0.29831,-1.02533 -0.38496,-1.54849 -2.3e-4,-0.002 -4.7e-4,-0.004 -0.002,-0.007 -0.006,-0.0327 -0.0115,-0.0584 -0.0146,-0.0758 -0.008,-0.0467 -0.0257,-0.0915 -0.0507,-0.13174 -0.0249,-0.11605 -0.0546,-0.23043 -0.0868,-0.3439 0.81659,-0.7155 1.70046,-1.32538 2.60724,-1.76683 0.0193,-0.0111 0.0379,-0.0227 0.0573,-0.0338 -0.93213,-0.78609 -1.72194,-1.69489 -2.36748,-2.66285 0.42842,-0.54959 0.84291,-1.23082 1.24684,-2.07812 1.02857,-2.15751 4.28389,-4.3049 7.91979,-4.50639 z m 2.05259,2.28935 c 1.18508,1.6821 2.85687,2.99282 4.82219,3.73336 l 9.4e-4,3.6e-4 c 1.04957,0.39393 2.12304,0.60564 3.18622,0.65236 0.11572,0.28097 0.21719,0.56793 0.30563,0.85912 -0.37678,0.47492 -0.78947,0.92012 -1.23333,1.33291 0.009,-0.0256 0.018,-0.0508 0.0266,-0.0764 -0.94641,0.89356 -2.03169,1.62748 -3.21342,2.17307 0.008,0.007 0.016,0.0145 0.0238,0.0223 -1.6e-4,4e-4 -10e-4,2.6e-4 -10e-4,5.8e-4 0.0113,0.01 0.0222,0.0196 0.0335,0.0291 0.97556,0.8362 1.81074,1.82342 2.47374,2.92404 -5.8e-4,-0.01 -4.1e-4,-0.0189 -0.001,-0.0285 0.29658,0.48656 0.55784,0.99221 0.7817,1.51304 -0.14978,0.23202 -0.30763,0.457 -0.47513,0.67264 -3.19038,-0.72664 -6.51794,0.10763 -8.9821,2.18239 -1.04342,-4.06621 -0.89334,-8.48317 0.69566,-12.71678 0.43276,-1.15302 0.95585,-2.24537 1.55634,-3.27368 z m 39.14646,14.70344 c -0.22435,1.16614 -0.54853,2.32956 -0.98007,3.47931 -1.58738,4.22931 -4.37651,7.65146 -7.83268,10.02674 -0.49346,-3.17687 -2.44809,-5.99115 -5.32767,-7.54215 0.0142,-0.24348 0.0385,-0.48758 0.0719,-0.73169 0.55227,-0.27126 1.12639,-0.49969 1.71686,-0.68433 0.33606,-0.10513 0.67658,-0.19543 1.02057,-0.27065 0.063,-0.0138 0.12602,-0.027 0.18931,-0.0398 0.31002,-0.0623 0.62237,-0.11241 0.93634,-0.15012 0.10728,-0.0129 0.2148,-0.0244 0.32266,-0.0345 0.26623,-0.0247 0.53321,-0.0405 0.80049,-0.0474 0.17149,-0.004 0.34347,-0.007 0.51606,-0.004 -10e-4,-0.003 -0.002,-0.005 -0.004,-0.009 0.009,0 0.017,-3e-5 0.0254,-6e-5 -0.53172,-1.18684 -0.86732,-2.45211 -0.9937,-3.74646 -0.006,0.0147 -0.0131,0.0292 -0.0197,0.0439 -0.0631,-0.62352 -0.0784,-1.25113 -0.0437,-1.87707 0.22742,-0.13812 0.45967,-0.2678 0.69755,-0.38623 0.83137,0.66434 1.77923,1.21129 2.82881,1.60523 1.96392,0.73498 4.08041,0.84958 6.07512,0.36736 z m -15.72204,6.22691 c 0.22872,0.0862 0.45169,0.18161 0.6702,0.28348 0.003,3.22869 1.52427,6.31346 4.12167,8.27606 -4.83929,2.55484 -10.64085,3.23403 -16.21213,1.49448 0.91913,-0.98355 1.64532,-2.14229 2.12705,-3.41863 l 2.3e-4,-6.1e-4 c 0.68401,-1.82244 0.8204,-3.71746 0.4925,-5.50415 0.21018,-0.14835 0.42644,-0.2872 0.64745,-0.41772 0.55915,0.26189 1.09559,0.56614 1.60573,0.90878 -0.005,-8.2e-4 -0.0109,-8.8e-4 -0.0161,-0.002 1.08316,0.72445 2.04132,1.62022 2.83696,2.65222 0.59861,-1.15214 1.37993,-2.19968 2.3136,-3.10192 -0.004,8.2e-4 -0.008,0.002 -0.0118,0.003 0.44174,-0.42876 0.91402,-0.82256 1.4132,-1.17719 0.004,0.001 0.008,0.003 0.011,0.004 z m -15.67597,-5.88339 1.3e-4,2.8e-4 c 0.0352,0.0132 0.0697,0.0272 0.10478,0.0404 0.14188,0.59304 0.23832,1.19763 0.28894,1.80857 -0.007,-0.011 -0.0137,-0.0213 -0.0205,-0.0319 0.11152,1.30504 0.009,2.61955 -0.30353,3.89151 1.28026,-0.25707 2.59385,-0.30381 3.88913,-0.13839 -0.003,-0.002 -0.007,-0.006 -0.011,-0.008 0.58192,0.0738 1.15895,0.19017 1.72639,0.34866 0.0792,0.2404 0.1497,0.48377 0.20954,0.73031 -1.42257,1.12972 -2.56673,2.64663 -3.25076,4.46912 l -8e-5,2e-4 c -0.47883,1.27733 -0.69605,2.62729 -0.65297,3.97258 -5.34204,-2.35483 -9.26594,-6.68378 -11.23033,-11.7926 3.25263,0.23525 6.43106,-1.08795 8.55893,-3.51848 0.23169,0.067 0.4624,0.14194 0.6914,0.22757 z m 22.47879,16.755 c -0.0962,0.75749 -0.27673,1.50292 -0.54332,2.22088 -0.98703,2.61554 -3.0545,4.7126 -4.94696,5.49111 -0.12354,0.0508 -0.24213,0.10277 -0.35714,0.15529 -0.005,0.002 -0.009,0.005 -0.0143,0.007 -0.4167,0.21188 -0.78645,0.43558 -1.11657,0.6702 -0.88686,-0.64517 -1.69112,-1.41769 -2.39168,-2.31142 -0.49101,0.94969 -1.0978,1.8135 -1.77879,2.58138 -0.67754,-0.33975 -1.50203,-0.66672 -2.51449,-0.99343 -2.60609,-0.84077 -4.75535,-3.07213 -5.71409,-5.87708 6.65784,2.17893 13.64692,1.28862 19.37739,-1.94378 z m -34.64356,-12.98955 c 2.19216,6.20183 6.8717,11.46699 13.31996,14.2031 -2.56744,1.48117 -5.65379,1.74729 -8.16935,0.66578 -0.98877,-0.42505 -1.83245,-0.7227 -2.57235,-0.91239 -0.008,-1.02743 0.10349,-2.07833 0.35888,-3.11771 -1.10759,0.21055 -2.21354,0.26381 -3.29837,0.16897 -0.0941,-0.39157 -0.2249,-0.801 -0.39812,-1.2319 -0.002,-0.005 -0.004,-0.01 -0.006,-0.0144 -0.0522,-0.11552 -0.10754,-0.2328 -0.16709,-0.35227 -0.91287,-1.83144 -1.09008,-4.77099 -0.11231,-7.39 l 2.3e-4,-6.1e-4 c 0.27029,-0.71163 0.62209,-1.38797 1.04462,-2.01843 z"
       id="path4684-1-4"
       inkscape:connector-curvature="0"
       sodipodi:nodetypes="ssssssssscscscsccccscsscccccccccsccccccccscssccccccccsccccccscccccccccsccccccccccccccscccccccccccscscccccccccccccsccccccsccscccccccccccccccccccccscccccccccccccsccscccccccccccccscccscccccccccccccsccscccccccccccccccccccccccsccccccccccccccccccccscccccccccccccsccccscccccscccc" />
    <path
       style="opacity:1;fill:#000000;fill-opacity:1;fill-rule:nonzero;stroke:none;stroke-width:0;stroke-linecap:butt;stroke-linejoin:round;stroke-miterlimit:4;stroke-dasharray:none;stroke-dashoffset:0;stroke-opacity:1"
       d="m 479.54067,133.56258 a 44.999905,44.999905 0 0 0 -17.52168,61.17983 44.999905,44.999905 0 0 0 61.17983,17.52168 44.999905,44.999905 0 0 0 17.52186,-61.17994 44.999905,44.999905 0 0 0 -61.18001,-17.52157 z m -9.19652,17.40777 3e-4,8e-5 0.0113,-0.006 c 1.65457,0.37709 3.39465,0.0136 6.61105,-1.97364 1.98114,-1.22404 4.39897,-1.69903 6.8081,-1.42456 -0.24446,0.31046 -0.52899,0.63693 -0.86232,0.985 -1.96372,2.05055 -2.81726,6.27335 -1.45787,10.12143 -1.32514,0.013 -2.61092,0.25173 -3.81114,0.72411 -9.9e-4,2.9e-4 -0.002,3e-4 -0.003,7.9e-4 -2.4052,0.84133 -4.27424,2.30884 -5.148,3.98482 -0.29195,0.56001 -0.57678,1.03185 -0.85981,1.43369 -1.38498,-2.82156 -1.62597,-6.04146 -0.88879,-8.30382 0.0458,-0.14041 0.0874,-0.27789 0.12595,-0.41362 0.5281,-2.20549 0.26633,-3.74432 -0.53434,-5.02607 l 0.008,-0.0466 c 0.0131,0.003 0.0256,0.005 0.0383,0.007 -0.0127,-0.0208 -0.0243,-0.0422 -0.0372,-0.0629 z m 28.94986,-16.05938 0.0113,-0.006 c 0.011,0.0219 0.0228,0.0431 0.0337,0.0648 0.004,-0.0127 0.009,-0.024 0.0138,-0.0364 l 0.0437,0.018 c 0.66355,1.3578 1.83051,2.3945 3.9812,3.11398 0.13556,0.039 0.27422,0.0766 0.41757,0.1121 2.30623,0.57138 4.90623,2.47555 6.56714,5.13809 -0.48323,0.0254 -1.02421,0.0172 -1.64103,-0.0306 -1.88559,-0.14602 -4.12144,0.6638 -6.10938,2.26096 -1.03546,0.76796 -1.91858,1.73207 -2.63076,2.8489 -2.54502,-3.19025 -6.57903,-4.70166 -9.3582,-4.12118 -0.47888,0.10002 -0.91293,0.16948 -1.31059,0.21237 1.04288,-2.18427 2.7237,-3.97985 4.80748,-5.01093 3.38865,-1.67675 4.61815,-2.96064 5.17412,-4.56397 z m 0.88469,16.29213 c 0.0621,0.0995 0.12146,0.20039 0.17962,0.30236 1.52051,2.7418 1.53955,5.90581 0.32812,8.54953 -0.0634,-0.10597 -0.1268,-0.21208 -0.1872,-0.32097 -1.47437,-2.65775 -1.56146,-5.8232 -0.32086,-8.53075 z m -16.55328,9.1929 c 2.95129,0.37978 5.58891,2.12586 7.06458,4.77887 l 1.9e-4,3.4e-4 9e-5,1.7e-4 c 0.0603,0.10868 0.11755,0.21808 0.17291,0.32819 -2.88449,-0.37185 -5.55891,-2.0633 -7.07997,-4.80529 -0.0551,-0.0996 -0.10678,-0.20073 -0.15751,-0.3025 z m -12.87148,10.38783 c 0.0214,0.0846 0.0429,0.16959 0.0629,0.25835 0.0313,0.17109 0.0661,0.34071 0.10456,0.50883 0.037,0.20131 0.0718,0.40629 0.10252,0.62286 0.21124,1.49081 1.20093,3.07441 2.55229,4.44655 1.23283,1.25173 2.77504,2.3181 4.3669,2.91655 -2.49573,3.12433 -3.10349,7.29561 -1.93965,9.8971 0.31723,0.70916 0.53528,1.32435 0.67504,1.87373 -2.97783,-0.53301 -5.53694,-2.04328 -6.75488,-3.8534 -1.78605,-2.65447 -3.31327,-3.54169 -4.99052,-3.73924 l -0.036,-0.0403 c 1.31921,-1.06785 2.09096,-2.66079 2.13252,-4.35753 0.006,0.0285 0.0111,0.057 0.0164,0.0856 7.6e-4,-0.0293 0.003,-0.0595 0.004,-0.089 0.0105,-0.63777 0.0711,-1.27688 0.18427,-1.91148 0.30341,-1.71769 0.9731,-3.32478 1.93854,-4.72647 0.44527,-0.66674 0.97021,-1.30413 1.58118,-1.8921 z m 45.17297,-25.04969 c 0.81257,-0.20234 1.62149,-0.30759 2.41352,-0.33212 1.70023,-0.077 3.41819,0.20556 5.0361,0.8574 0.59825,0.24 1.1726,0.52686 1.71923,0.85557 0.0256,0.0147 0.0523,0.0291 0.0775,0.0439 -0.0213,-0.0198 -0.0423,-0.0398 -0.0638,-0.0593 1.46149,0.86294 3.22148,1.05146 4.82579,0.49754 l 0.0157,0.0516 c -0.7203,1.52755 -0.77605,3.29289 0.53048,6.21336 0.88811,1.98516 0.81762,4.94317 -0.2963,7.74379 -0.38809,-0.40716 -0.79062,-0.91322 -1.21945,-1.5506 -1.591,-2.36456 -5.45147,-4.05692 -9.42331,-3.59349 0.335,-1.66729 0.24676,-3.54033 -0.16246,-5.24888 -0.4486,-1.87296 -1.26817,-3.55106 -2.42114,-4.51954 -0.16683,-0.14015 -0.3218,-0.27739 -0.47236,-0.41478 -0.12329,-0.12268 -0.24993,-0.243 -0.3794,-0.36099 -0.0624,-0.0619 -0.12106,-0.12278 -0.17956,-0.1837 z m -18.48925,19.92638 c 4.04678,-2.24488 9.1472,-0.78414 11.39207,3.26264 2.24488,4.04679 0.78414,9.1472 -3.26265,11.39207 -4.04678,2.24488 -9.14719,0.78414 -11.39206,-3.26265 -2.2449,-4.04679 -0.78415,-9.14719 3.26264,-11.39206 z m -14.97139,11.90715 2e-4,-1.1e-4 3.6e-4,-2e-4 c 2.0736,-1.1503 4.38887,-1.44176 6.53797,-0.99167 -0.5862,0.56747 -1.2556,1.06886 -2.00356,1.48383 l -8.7e-4,4.8e-4 c -1.99425,1.10284 -4.30039,1.43443 -6.49902,0.97831 0.5869,-0.57234 1.24562,-1.06855 1.96517,-1.47078 z m 32.89904,-18.25011 1.9e-4,-1.1e-4 c 0.72414,-0.39827 1.49499,-0.69623 2.29291,-0.89131 -0.77691,2.10692 -2.2798,3.88938 -4.27446,4.99807 -0.74817,0.41503 -1.52799,0.7174 -2.31997,0.91432 0.75563,-2.06115 2.22825,-3.87073 4.30133,-5.02097 z m -1.16877,15.80863 c 2.96866,-0.98384 6.2415,-0.43157 8.72607,1.47014 -3.00902,0.99632 -6.27823,0.40336 -8.72607,-1.47014 z m -17.70134,9.82036 c 0.29213,3.0653 -0.93033,6.15096 -3.36856,8.17721 -0.29747,-3.11541 0.96656,-6.18122 3.36856,-8.17721 z m -15.78864,10.45096 c 0.0295,0.0165 0.0594,0.0319 0.0886,0.0491 0.036,0.0211 0.0753,0.036 0.11617,0.0441 0.45744,0.26815 0.9341,0.50725 1.43158,0.70682 1.44761,0.58317 2.98489,0.83602 4.50591,0.76725 5.1e-4,1.4e-4 9.9e-4,-2e-4 0.002,-3.1e-4 1.70702,-0.0538 3.50749,-0.53449 5.22462,-1.63761 0.22229,0.97534 0.57157,1.91778 1.05435,2.79602 l 10e-4,0.003 c 1.46225,2.62565 3.92309,4.51112 6.17572,5.06923 0.11614,0.0288 0.22842,0.0594 0.33896,0.0912 0.30496,0.10225 0.58218,0.21118 0.83784,0.32614 -0.21745,0.18706 -0.4411,0.36659 -0.67152,0.53733 -0.002,0.001 -0.003,0.003 -0.005,0.004 -2.23379,1.79672 -4.74146,2.68501 -6.77347,2.52763 -3.13637,-0.24286 -4.82214,0.37261 -6.03213,1.58669 l -0.0229,0.001 c 2e-5,-0.0245 -0.002,-0.0488 -0.002,-0.0733 -0.0177,0.0167 -0.036,0.0329 -0.0534,0.0503 l -0.0228,-0.0267 c -0.004,-0.78826 -0.16964,-1.55689 -0.46568,-2.25471 -0.34982,-0.70318 -0.89283,-1.42911 -1.67935,-2.20898 -0.15415,-0.14019 -0.30434,-0.28262 -0.44973,-0.42782 -0.17743,-0.16194 -0.36163,-0.32535 -0.56065,-0.49252 -1.67612,-1.40783 -2.81748,-4.41453 -3.03754,-7.43665 z m 50.82597,-28.1666 c 0,0 1.9e-4,-1e-4 1.9e-4,-1e-4 2.43725,1.78578 4.3734,4.33671 4.67958,6.49757 0.0365,0.25732 0.0777,0.50012 0.12107,0.73639 0.0462,0.20019 0.0876,0.403 0.12487,0.60802 0.24531,1.08009 0.57386,1.92501 0.98526,2.59401 0.43529,0.62059 0.99955,1.16826 1.66637,1.58866 l 0.01,0.034 c -0.0236,0.006 -0.047,0.0132 -0.071,0.0187 0.0204,0.0134 0.0405,0.0276 0.0611,0.0407 l -0.0132,0.0187 c -1.67056,0.38384 -3.08511,1.4882 -4.53937,4.27764 -0.9422,1.80721 -3.02329,3.46451 -5.73011,4.40848 -0.002,6.3e-4 -0.004,10e-4 -0.006,0.002 -0.25945,0.10218 -0.52242,0.19431 -0.78848,0.2779 0.0378,-0.27951 0.0924,-0.57437 0.16761,-0.88948 0.0317,-0.11075 0.0651,-0.22212 0.10203,-0.33552 0.719,-2.20658 0.42206,-5.29243 -1.03143,-7.92293 l -10e-4,-0.003 c -0.48964,-0.87443 -1.10416,-1.66973 -1.81396,-2.37463 1.8453,-0.87304 3.20656,-2.14667 4.15591,-3.56679 l 7.7e-4,-6.7e-4 c 0.86344,-1.25396 1.46244,-2.69197 1.734,-4.22871 l -1.1e-4,-1.9e-4 c 0.0939,-0.52687 0.14289,-1.05696 0.15763,-1.58622 0.0151,-0.0396 0.0233,-0.0817 0.0244,-0.12401 6.2e-4,-0.024 0.003,-0.0479 0.004,-0.0719 z m -23.82623,17.05661 c 1.25964,0.81735 2.3434,1.94683 3.1236,3.35305 l 1.8e-4,3.2e-4 1.9e-4,3.4e-4 c 0.74897,1.35634 1.14508,2.86727 1.17256,4.39942 -1.28334,-0.83616 -2.35284,-1.97345 -3.1052,-3.32732 -0.78027,-1.40655 -1.16476,-2.92424 -1.19137,-4.42587 z m 5.47527,10.01074 c 0.0363,-0.0201 0.0729,-0.0393 0.10927,-0.0595 0.0401,-0.0223 0.0795,-0.0453 0.11963,-0.0675 3.0875,1.41028 6.65304,1.30879 9.35766,-0.36227 0.79975,-0.49408 1.47949,-0.86361 2.07773,-1.13612 0.26709,3.27498 -0.69589,6.38846 -2.27994,8.04258 -2.1974,2.29458 -2.74111,3.96741 -2.5479,5.63886 l -0.005,0.006 -0.005,-6.8e-4 c -7.1e-4,-4.9e-4 -10e-4,-3.9e-4 -0.002,-0.002 3.8e-4,6.8e-4 -3.9e-4,0.001 5.8e-4,0.003 l -0.002,0.005 -0.008,7.7e-4 c -1.31577,-1.04874 -3.02279,-1.47302 -6.13274,-0.82344 -2.24142,0.46816 -5.39179,-0.36259 -8.02852,-2.32198 0.55162,-0.36764 1.23202,-0.75331 2.08568,-1.17563 2.84943,-1.40994 4.82267,-4.38106 5.26066,-7.74697 z"
       id="path4684-1"
       inkscape:connector-curvature="0" />
    <path
       style="opacity:1;fill:#000000;fill-opacity:1;stroke:none;stroke-width:0.09414233"
       d="m 422.26,128.81957 a 45.000026,45.000026 0 0 0 -54.95675,32.08981 45.000026,45.000026 0 0 0 32.08981,54.95675 45.000026,45.000026 0 0 0 54.95675,-32.08981 A 45.000026,45.000026 0 0 0 422.26,128.81957 Z m -19.12142,3.85132 0.0131,0.003 c 0.98721,1.49581 2.58033,2.48897 6.48563,3.32101 2.40546,0.5125 4.59728,1.91547 6.23519,3.88391 -0.41323,0.0584 -0.86873,0.0997 -1.37721,0.12196 -2.99564,0.1309 -6.73015,2.72984 -8.5025,6.65871 -1.02063,-0.95767 -2.17615,-1.71413 -3.4369,-2.23001 -9.1e-4,-4.7e-4 -0.002,-0.001 -0.003,-0.002 -2.4496,-1.11417 -4.94735,-1.35901 -6.83777,-0.71817 -0.63166,0.21415 -1.19345,0.36629 -1.7028,0.46627 1.0033,-3.16425 3.17028,-5.79727 5.38465,-6.98533 0.13744,-0.0737 0.26959,-0.14817 0.39816,-0.22355 2.01331,-1.29731 2.93716,-2.66273 3.26207,-4.22539 l 0.04,-0.0297 c 0.008,0.0113 0.0163,0.0223 0.0239,0.0337 0.006,-0.0251 0.0121,-0.05 0.0167,-0.0753 z m 33.81618,8.88344 0.0131,0.003 c -0.008,0.0247 -0.014,0.0495 -0.0225,0.0738 0.0124,-0.006 0.0249,-0.0114 0.0372,-0.0176 l 0.0204,0.0456 c -0.48506,1.52059 -0.35155,3.16377 0.76421,5.28309 0.0749,0.12883 0.15323,0.25854 0.23669,0.39032 1.34259,2.11988 1.93624,5.47138 1.25957,8.71576 -0.38726,-0.33348 -0.79404,-0.73487 -1.22983,-1.22167 -1.3322,-1.48818 -3.62957,-2.50256 -6.31264,-2.73533 -1.35085,-0.17003 -2.72874,-0.0793 -4.08763,0.25289 0.38736,-4.29259 -1.58726,-8.39121 -4.13176,-9.97748 -0.43845,-0.27333 -0.82028,-0.53738 -1.15502,-0.79499 2.39061,-0.90528 4.98404,-1.04804 7.32692,-0.31336 3.81002,1.19476 5.68576,1.11287 7.28068,0.29537 z m -15.42873,0.36165 c 0.43713,0.37252 0.95014,0.74624 1.5566,1.12431 2.14941,1.33997 4.08786,5.17608 3.77279,9.14606 -2.71143,-2.18612 -5.91396,-3.84778 -9.49623,-4.78884 -3.57646,-0.93953 -7.17642,-1.06752 -10.60718,-0.49946 1.67802,-3.60869 5.24901,-5.99401 7.77799,-6.10452 0.70581,-0.0308 1.33006,-0.10278 1.88893,-0.21027 0.76428,1.06393 1.37519,2.26411 1.78811,3.55865 0.99932,-0.92769 2.12587,-1.67444 3.31899,-2.22593 z m -4.51823,6.81415 -5e-5,2.1e-4 c 3.25488,0.86229 6.29091,2.39644 8.92229,4.49441 -0.008,0.10771 -0.0188,0.21515 -0.0295,0.32256 -3.45188,1.17459 -6.12686,4.00823 -7.06704,7.58734 -0.0848,0.32278 -0.15313,0.6463 -0.20767,0.96921 -0.29006,0.0799 -0.58475,0.14611 -0.88261,0.19974 -0.42727,-0.43826 -0.82304,-0.908 -1.18406,-1.40501 a 12.694823,12.694823 0 0 1 0.0305,0.0153 12.694823,12.694823 0 0 1 -1.84992,-3.62443 12.694823,12.694823 0 0 1 -3.42015,2.25694 12.694823,12.694823 0 0 1 0.0714,0.006 c -0.56991,0.25971 -1.15712,0.47708 -1.75683,0.64962 -0.25139,-0.20554 -0.49174,-0.42224 -0.72051,-0.64977 0.1112,-0.30796 0.21022,-0.62314 0.295,-0.94584 a 0.47397614,0.47397614 0 0 0 2e-4,-7.7e-4 c 0.93596,-3.57864 -0.003,-7.35929 -2.43463,-10.07645 0.0343,-0.0793 0.0679,-0.15902 0.10398,-0.23759 3.36952,-0.5656 6.82075,-0.42017 10.12966,0.43855 z m -16.49506,-4.20478 c 0.56821,0.15754 1.14628,0.36658 1.72267,0.62944 a 0.39664055,0.39664055 0 0 0 0.0169,0.008 l 0.003,0.001 c 1.1438,0.46791 2.20043,1.13693 3.13428,1.99796 -6.95297,1.54572 -13.07882,5.9745 -16.69995,12.29772 -0.64827,-1.44923 -0.99581,-3.20198 -1.01984,-4.86672 -0.0277,-1.91779 0.38418,-3.71485 1.15083,-4.78284 0.14271,-0.19888 0.27212,-0.38991 0.39487,-0.57668 a 0.39664055,0.39664055 0 0 0 0.009,-0.0152 c 0.0922,-0.15506 0.18953,-0.30924 0.29086,-0.46274 a 0.39664055,0.39664055 0 0 0 0.009,-0.0146 c 0.12684,-0.21166 0.24189,-0.4179 0.34671,-0.61997 1.16277,0.0841 2.36904,0.34305 3.60087,0.8249 -0.10317,-1.32023 0.003,-2.64747 0.3106,-3.9346 0.65729,-0.0969 1.38034,-0.27511 2.18805,-0.54894 1.22112,-0.41398 2.83775,-0.40831 4.54248,0.0639 z m 32.94327,8.65413 -5e-5,2e-4 c 1.71664,0.42656 3.12726,1.21594 3.98725,2.17661 0.5601,0.62567 1.09424,1.1306 1.61151,1.5349 -0.3651,1.27606 -0.9256,2.48843 -1.66652,3.59079 1.32079,0.18738 2.50795,0.55885 3.56881,1.06356 -0.008,0.22545 -0.009,0.45904 -0.003,0.70329 a 0.39664055,0.39664055 0 0 0 6.7e-4,0.0171 c 0.0129,0.18503 0.0216,0.3689 0.0258,0.55049 a 0.39664055,0.39664055 0 0 0 5.1e-4,0.0177 c 0.0151,0.22222 0.0336,0.4513 0.0601,0.69359 0.14277,1.30694 -0.38178,3.07409 -1.34857,4.73069 -0.84211,1.44294 -2.01147,2.80337 -3.29359,3.74727 -0.042,-7.28879 -3.19851,-14.15964 -8.49369,-18.92581 1.23942,-0.29258 2.49167,-0.35646 3.72071,-0.20129 a 0.39664055,0.39664055 0 0 0 0.006,9.9e-4 l 0.004,4.8e-4 a 0.39664055,0.39664055 0 0 0 0.0102,6e-4 c 0.63115,0.0544 1.23741,0.1563 1.80962,0.29849 z m -6.37743,1.02458 c 5.08438,4.58001 8.00145,11.08826 8.03693,17.93135 -0.11818,0.0819 -0.23816,0.16017 -0.35922,0.2366 -0.95814,-0.61651 -2.00854,-1.08241 -3.11503,-1.37637 a 0.47397614,0.47397614 0 0 0 -9.7e-4,-2.6e-4 c -2.84054,-0.74621 -5.71653,-0.30292 -8.09934,1.02012 -0.22562,-0.16401 -0.4425,-0.33774 -0.65214,-0.5188 0.0687,-0.56817 0.17533,-1.13427 0.32205,-1.69412 0.0132,-0.0496 0.0289,-0.0981 0.0428,-0.14738 a 12.694823,12.694823 0 0 1 10e-4,0.008 12.694823,12.694823 0 0 1 0.90831,-2.34745 c 0.009,-0.0168 0.018,-0.033 0.0265,-0.0497 a 12.694823,12.694823 0 0 1 0.55325,-0.96775 c 0.0646,-0.10238 0.12848,-0.20492 0.19609,-0.30552 -10e-4,-1.5e-4 -0.003,-5.1e-4 -0.004,-7.6e-4 a 12.694823,12.694823 0 0 1 0.0136,-0.0203 12.694823,12.694823 0 0 1 -1.34262,-0.26121 12.694823,12.694823 0 0 1 -2.53477,-0.97533 12.694823,12.694823 0 0 1 0.0186,0.0285 c -0.58314,-0.29617 -1.14049,-0.63538 -1.66741,-1.01434 0.006,-0.30593 0.0242,-0.61339 0.0586,-0.9219 3.3673,-1.14376 6.11718,-3.90041 7.08724,-7.59312 a 0.47397614,0.47397614 0 0 0 5.1e-4,-0.002 c 0.08,-0.3124 0.14547,-0.62816 0.19783,-0.94594 0.10345,-0.0285 0.20754,-0.0558 0.31231,-0.0812 z m -21.63088,-5.65984 c 0.0718,0.0675 0.14227,0.13611 0.21184,0.20537 -0.1083,0.30086 -0.20411,0.60614 -0.28573,0.91568 a 0.47397614,0.47397614 0 0 0 -2.2e-4,8.2e-4 c -0.97009,3.69278 0.0699,7.44474 2.4404,10.0958 -0.12755,0.29938 -0.26937,0.58954 -0.42306,0.87089 -0.61314,0.0616 -1.23226,0.0783 -1.85247,0.0499 a 12.694823,12.694823 0 0 1 0.0392,-0.0186 12.694823,12.694823 0 0 1 -2.68461,-0.39578 12.694823,12.694823 0 0 1 -1.30246,-0.42321 12.694823,12.694823 0 0 1 -0.33241,4.0499 12.694823,12.694823 0 0 1 0.0161,-0.0167 c -0.0125,0.0506 -0.0226,0.10161 -0.0358,0.15206 -0.14258,0.54168 -0.3212,1.06997 -0.53137,1.58263 -0.3112,0.0667 -0.6265,0.11896 -0.94514,0.1557 -1.42493,-2.32334 -3.71173,-4.12288 -6.55227,-4.86908 a 0.47397614,0.47397614 0 0 0 -9.7e-4,-2.5e-4 c -1.10657,-0.2876 -2.24892,-0.39771 -3.38529,-0.33189 -0.0447,-0.083 -0.0886,-0.16684 -0.13108,-0.25132 3.35927,-5.9697 9.07891,-10.24302 15.75599,-11.77181 z m 20.28706,6.08735 c -0.0257,0.12127 -0.0533,0.24212 -0.0841,0.36233 -0.8418,3.20233 -3.13729,5.63063 -5.99199,6.76341 0.0283,-0.12727 0.0585,-0.25436 0.092,-0.38156 0.81558,-3.10474 3.06067,-5.58398 5.98451,-6.74408 z m -19.344,-5.07118 c 1.97487,2.44471 2.71242,5.70308 1.90133,8.80501 l -7e-5,2.6e-4 -5e-5,2.1e-4 c -0.0334,0.12697 -0.0694,0.25238 -0.10728,0.37689 -1.92952,-2.38984 -2.73522,-5.63319 -1.89382,-8.83608 0.0307,-0.11633 0.065,-0.23152 0.10029,-0.34635 z m -17.40634,-1.4713 c -0.0455,0.0802 -0.0912,0.16076 -0.1406,0.24318 -0.101,0.15344 -0.19842,0.30828 -0.29179,0.46468 -0.11869,0.18063 -0.24186,0.36232 -0.37656,0.54997 -0.92733,1.29183 -1.32832,3.22286 -1.299,5.25656 0.0268,1.85529 0.425,3.79499 1.20271,5.41394 -4.18561,0.5618 -7.69496,3.30112 -8.70636,6.13597 -0.27569,0.77276 -0.55868,1.40125 -0.85317,1.92251 -1.88309,-2.58098 -2.73312,-5.60188 -2.34083,-7.87237 0.57529,-3.3296 0.0579,-5.12162 -1.0777,-6.497 l 0.002,-0.0571 c 1.78632,0.14837 3.53821,-0.50371 4.8088,-1.76806 -0.0171,0.0256 -0.033,0.0516 -0.0499,0.0773 0.0221,-0.0218 0.0454,-0.0433 0.0677,-0.065 0.47365,-0.47899 0.98665,-0.9224 1.53631,-1.32406 1.48571,-1.08913 3.17025,-1.82651 4.93039,-2.19118 0.82658,-0.18364 1.69244,-0.28681 2.58795,-0.28936 z m 52.75978,13.86815 c 0.76788,0.43892 1.46199,0.9491 2.08431,1.50872 1.35364,1.18265 2.45809,2.65269 3.2167,4.3314 0.28128,0.61994 0.51013,1.25822 0.68721,1.90817 0.009,0.0299 0.0187,0.0601 0.0272,0.09 -0.002,-0.0307 -0.004,-0.0612 -0.006,-0.0918 0.48513,1.72557 1.69056,3.15454 3.31917,3.90326 l -0.0263,0.0507 c -1.66494,0.63969 -2.99648,1.946 -4.13189,5.12845 -0.77179,2.16325 -2.98531,4.36883 -5.88017,5.69252 0.001,-0.59404 0.0634,-1.27398 0.20155,-2.07347 0.51246,-2.96595 -1.1975,-7.07614 -4.56663,-9.62254 1.47298,-1.02764 2.77324,-2.52126 3.70847,-4.12378 1.02524,-1.75673 1.6252,-3.63558 1.45254,-5.21644 -0.025,-0.22876 -0.0431,-0.44667 -0.0577,-0.66145 -0.004,-0.18363 -0.0132,-0.3679 -0.0259,-0.55248 -0.002,-0.0928 -0.003,-0.18188 -0.003,-0.2711 z m -28.65769,1.70492 a 8.8494251,8.8494251 0 0 1 6.31066,10.80762 8.8494251,8.8494251 0 0 1 -10.80755,6.31048 8.8494251,8.8494251 0 0 1 -6.31053,-10.80736 8.8494251,8.8494251 0 0 1 10.80742,-6.31074 z m -20.11792,-1.84551 c 2.42217,0.6363 4.40178,2.10449 5.71299,4.01707 -0.86164,0.005 -1.73865,-0.10127 -2.61238,-0.33074 l -5.2e-4,-1.3e-4 c -2.327,-0.6144 -4.32885,-2.04529 -5.67348,-3.99865 0.8657,-0.008 1.73074,0.0939 2.57349,0.31247 z m 38.42934,10.0953 c 0.84349,0.22468 1.64935,0.56043 2.40071,0.99423 -2.13119,1.04044 -4.57958,1.3031 -6.91112,0.69271 l -2e-4,-5e-5 c -0.87393,-0.22961 -1.6897,-0.56821 -2.4378,-0.99615 2.0816,-1.02107 4.52661,-1.3267 6.94841,-0.69074 z m 4.96591,1.63029 2.1e-4,6e-5 c 3.02034,2.39142 4.52151,6.23654 4.09109,8.72767 -0.16741,0.96905 -0.22647,1.8036 -0.19425,2.53458 -1.15451,0.44607 -2.39872,0.75135 -3.69172,0.86106 0.01,0.0213 0.019,0.0427 0.0288,0.064 0.51606,0.94064 0.90805,2.01432 1.17553,3.13824 -0.0897,0.073 -0.1782,0.14792 -0.26382,0.22669 a 0.39664055,0.39664055 0 0 0 -0.12375,0.0822 c -0.0125,0.012 -0.0317,0.0302 -0.0564,0.0542 a 0.39664055,0.39664055 0 0 0 -0.006,0.006 c -0.39452,0.39895 -0.82162,0.76815 -1.27904,1.1024 a 0.39664055,0.39664055 0 0 0 -3.2e-4,1.9e-4 c -1.23667,0.90657 -2.63864,1.52023 -4.10395,1.82392 a 0.39664055,0.39664055 0 0 0 -0.005,6.6e-4 c -1.50409,0.33428 -3.15608,0.35173 -4.89261,-0.13981 4.02189,-3.31335 7.08136,-7.8801 8.50804,-13.31098 0.45333,-1.72567 0.71992,-3.4566 0.81316,-5.17101 z m -48.40813,-12.7105 c -0.76004,1.53716 -1.37723,3.17372 -1.82998,4.89715 -1.42671,5.431 -1.00683,10.91182 0.86745,15.77412 -1.74722,-0.42621 -3.17266,-1.25109 -4.31517,-2.27839 a 0.39664055,0.39664055 0 0 0 -0.004,-0.004 c -1.12734,-0.98481 -2.04692,-2.20865 -2.67855,-3.60637 a 0.39664055,0.39664055 0 0 0 -3.4e-4,-3.6e-4 c -0.23362,-0.5149 -0.42383,-1.04512 -0.57121,-1.58541 a 0.39664055,0.39664055 0 0 0 -0.002,-0.008 c -0.01,-0.0337 -0.0185,-0.0602 -0.0236,-0.0782 a 0.39664055,0.39664055 0 0 0 -0.0675,-0.13289 c -0.0387,-0.11923 -0.0824,-0.23613 -0.12836,-0.35187 0.78085,-0.83968 1.64388,-1.57575 2.549,-2.13722 0.0191,-0.0138 0.0374,-0.0279 0.0566,-0.0417 -1.06398,-0.72546 -1.99169,-1.59505 -2.77415,-2.54247 0.39089,-0.62355 0.75296,-1.38399 1.08607,-2.31768 0.84826,-2.37759 4.03738,-4.98438 7.83581,-5.58755 z m 1.34178,0.7417 c 1.46629,2.37965 3.798,4.12384 6.52983,4.84534 a 0.47397614,0.47397614 0 0 0 7.6e-4,2e-4 c 1.14513,0.30082 2.29576,0.40759 3.41779,0.34217 0.15183,0.28271 0.28941,0.57332 0.41369,0.86971 -0.34469,0.53953 -0.7304,1.05171 -1.15228,1.53318 a 12.694823,12.694823 0 0 1 0.0197,-0.083 12.694823,12.694823 0 0 1 -3.14194,2.62905 12.694823,12.694823 0 0 1 0.0275,0.0209 l -10e-4,7.1e-4 c 0.0131,0.009 0.0255,0.018 0.0384,0.0268 a 12.694823,12.694823 0 0 1 2.91386,2.80562 12.694823,12.694823 0 0 1 -0.004,-0.0298 c 0.36399,0.47925 0.69295,0.98244 0.98424,1.5055 -0.13229,0.25992 -0.27408,0.5132 -0.42682,0.7578 -3.98334,-0.48747 -7.93544,1.25481 -10.26136,4.53485 -0.12075,-0.0214 -0.2414,-0.0453 -0.36212,-0.0717 -1.93973,-4.83057 -2.28672,-10.15604 -0.97038,-15.19695 0.40519,-1.53457 0.96461,-3.0232 1.66058,-4.44922 0.1047,-0.0156 0.20973,-0.0291 0.31468,-0.0414 z m 45.42185,11.93276 c 0.11583,0.0847 0.23022,0.17118 0.34263,0.26082 -0.0901,1.56908 -0.32723,3.12652 -0.71803,4.64923 l -2.6e-4,9.7e-4 c -1.33521,5.039 -4.26037,9.50674 -8.32955,12.75809 -0.15148,-0.045 -0.30101,-0.0932 -0.44878,-0.14467 -0.41232,-3.99716 -2.99668,-7.46122 -6.70973,-8.99574 -0.0114,-0.25735 -0.0122,-0.5164 -0.003,-0.77647 0.55099,-0.34447 1.12953,-0.64639 1.72999,-0.90397 a 12.694823,12.694823 0 0 1 1.04322,-0.39419 c 0.0647,-0.0213 0.12946,-0.0421 0.19457,-0.0623 a 12.694823,12.694823 0 0 1 0.96758,-0.25846 c 0.11124,-0.0251 0.22305,-0.0489 0.33528,-0.071 a 12.694823,12.694823 0 0 1 0.83586,-0.13595 c 0.17968,-0.0231 0.36006,-0.0439 0.54171,-0.0594 -0.001,-0.002 -0.004,-0.006 -0.005,-0.009 a 12.694823,12.694823 0 0 1 0.0265,-0.002 12.694823,12.694823 0 0 1 -1.44738,-3.82901 12.694823,12.694823 0 0 1 -0.0158,0.0483 c -0.13341,-0.64827 -0.21712,-1.30597 -0.24814,-1.96733 0.22405,-0.16959 0.45401,-0.33097 0.69117,-0.48103 0.945,0.60842 1.99975,1.08101 3.14488,1.38183 a 0.47397614,0.47397614 0 0 0 2.6e-4,7e-5 c 2.73641,0.71678 5.62588,0.3422 8.07204,-1.00883 z m -34.59967,4.48336 c 0.0384,0.0101 0.0762,0.021 0.11415,0.032 0.21293,0.60778 0.37925,1.23257 0.49824,1.86896 a 12.694823,12.694823 0 0 1 -0.0246,-0.0313 12.694823,12.694823 0 0 1 0.10028,4.12098 12.694823,12.694823 0 0 1 4.07093,-0.56412 12.694823,12.694823 0 0 1 -0.0124,-0.007 c 0.61933,0.0148 1.23809,0.075 1.8513,0.18036 0.10907,0.24403 0.20933,0.49219 0.29875,0.74476 -1.37289,1.34011 -2.41145,3.0571 -2.93379,5.0455 a 0.47397614,0.47397614 0 0 0 -6e-5,2.1e-4 c -0.50257,1.91626 -0.47352,3.92387 0.0698,5.81108 -0.11368,0.099 -0.22894,0.19648 -0.34733,0.29058 -6.54116,-1.9798 -11.94419,-6.61998 -14.8897,-12.78684 0.0631,-0.1099 0.12858,-0.21787 0.19525,-0.32465 4.04787,0.49354 7.97263,-1.32237 10.258,-4.54443 0.25066,0.0454 0.50121,0.0994 0.75101,0.16472 z m 17.10264,4.49282 c 0.24959,0.0658 0.49408,0.14199 0.7346,0.22555 0.40654,3.93209 2.93531,7.44291 6.70043,9.00132 0.007,0.16905 0.0122,0.33857 0.0112,0.50928 -5.61499,3.88325 -12.60135,5.22553 -19.25568,3.69978 -0.059,-0.14539 -0.11312,-0.29208 -0.16509,-0.43954 1.4038,-1.37481 2.41871,-3.10843 2.92583,-5.02434 a 0.47397614,0.47397614 0 0 0 2e-4,-7.6e-4 c 0.52235,-1.98835 0.46145,-3.99404 -0.0755,-5.83583 0.20485,-0.1785 0.41702,-0.34762 0.63515,-0.50856 0.61566,0.21487 1.21214,0.47682 1.785,0.78185 a 12.694823,12.694823 0 0 1 -0.0171,-3.5e-4 12.694823,12.694823 0 0 1 3.26622,2.48093 12.694823,12.694823 0 0 1 2.09683,-3.50817 12.694823,12.694823 0 0 1 -0.0122,0.005 c 0.41791,-0.49803 0.87177,-0.96258 1.358,-1.38894 0.004,0.001 0.008,0.002 0.0121,0.003 z m 1.74113,0.63863 c 2.98361,1.41683 5.07766,4.22787 5.58499,7.49308 -3.02352,-1.43678 -5.08507,-4.27621 -5.58499,-7.49308 z m -20.67735,-5.43135 c -2.0152,2.5523 -5.20102,4.01416 -8.541,3.78004 2.04772,-2.59443 5.25077,-4.01078 8.541,-3.78004 z M 378.6081,174.1356 c 0.0104,0.0343 0.0221,0.0681 0.032,0.10269 a 0.39664055,0.39664055 0 0 0 0.0564,0.11849 c 0.15326,0.53861 0.3423,1.06903 0.57621,1.58455 0.67881,1.50196 1.66727,2.81753 2.87812,3.87563 3.4e-4,3.6e-4 7.3e-4,7.4e-4 0.002,0.001 1.34185,1.20531 3.06683,2.15313 5.18255,2.56514 -0.54253,0.90655 -0.96448,1.88073 -1.23713,2.90344 a 0.39664055,0.39664055 0 0 0 -5.1e-4,0.002 c -0.8016,3.07111 -0.3002,6.30671 1.01121,8.37734 0.0676,0.10668 0.13089,0.21213 0.19203,0.31709 0.15804,0.3007 0.28997,0.58617 0.40111,0.86054 -0.30248,-0.0161 -0.60417,-0.0424 -0.90466,-0.0803 -0.002,-2.5e-4 -0.004,-2.5e-4 -0.006,-5.6e-4 -3.01639,-0.26 -5.57842,-1.41323 -7.01405,-3.01694 -2.21591,-2.47534 -3.95158,-3.23649 -5.76134,-3.19355 l -0.0185,-0.0157 c 0.0179,-0.0188 0.0344,-0.0386 0.052,-0.0576 -0.026,4.2e-4 -0.0515,-0.001 -0.0774,-5.8e-4 l 0.002,-0.0372 c 0.57275,-0.60417 1.00739,-1.31182 1.29101,-2.06044 0.24651,-0.79198 0.36212,-1.74254 0.3314,-2.91188 -0.0153,-0.21954 -0.0258,-0.43787 -0.0307,-0.6548 -0.0171,-0.25312 -0.0384,-0.51218 -0.0682,-0.78505 -0.25107,-2.29825 1.07356,-5.42639 3.11251,-7.8932 z m 59.34859,15.61834 c 0.55594,3.14226 0.17107,6.5026 -1.17307,8.37507 -0.16011,0.22299 -0.30594,0.43836 -0.44533,0.65035 -0.11092,0.1865 -0.22758,0.37144 -0.34879,0.55511 -0.60144,1.00327 -0.96773,1.88776 -1.14225,2.69865 -0.12094,0.79136 -0.0904,1.62121 0.11145,2.42887 l -0.017,0.0332 c -0.0223,-0.0131 -0.0453,-0.0247 -0.0677,-0.0375 0.006,0.0252 0.0105,0.0506 0.0168,0.0757 l -0.0236,0.005 c -1.55499,-0.92685 -3.44086,-1.11708 -6.58725,-0.0504 -2.03848,0.69108 -4.8365,0.43624 -7.59122,-0.81983 -0.002,-7.6e-4 -0.004,-0.002 -0.006,-0.002 -0.27256,-0.11151 -0.54076,-0.23315 -0.80483,-0.36355 0.23295,-0.18564 0.48998,-0.37084 0.77745,-0.55635 0.10495,-0.0614 0.21183,-0.12208 0.32283,-0.18163 2.15976,-1.15876 4.18637,-3.73026 4.99793,-6.79876 a 0.39664055,0.39664055 0 0 0 5.1e-4,-0.002 c 0.26505,-1.0247 0.37651,-2.08045 0.34957,-3.1366 2.04552,0.68117 4.01422,0.70334 5.77553,0.31287 l 5.6e-4,-7e-5 c 1.57446,-0.3264 3.08159,-0.98627 4.41085,-1.96061 l 3.1e-4,-1.4e-4 c 0.45634,-0.3335 0.8808,-0.70228 1.27848,-1.09538 a 0.39664055,0.39664055 0 0 0 0.10908,-0.0768 c 0.0181,-0.018 0.0372,-0.0347 0.0555,-0.0523 z m -30.63478,-4.38125 c 0.36439,1.54342 0.36672,3.19645 -0.0647,4.83912 l -1.4e-4,5.1e-4 -7e-5,2.6e-4 c -0.41865,1.58187 -1.21972,3.02401 -2.31745,4.2132 -0.36875,-1.57507 -0.35498,-3.22396 0.06,-4.80623 0.4316,-1.64301 1.24632,-3.08184 2.32244,-4.24711 z m 18.21877,7.79845 c -0.0195,0.80618 -0.12908,1.60874 -0.33167,2.39178 -0.75498,2.85428 -2.70161,5.28018 -4.606,6.30192 -0.12434,0.0667 -0.2431,0.13409 -0.35829,0.20165 a 0.39664055,0.39664055 0 0 0 -0.0145,0.009 c -0.41496,0.26747 -0.77924,0.54228 -1.10081,0.82433 -1.00123,-0.58229 -1.92937,-1.30713 -2.76164,-2.17061 -0.41356,1.05063 -0.95819,2.02339 -1.59093,2.9035 -0.74843,-0.28398 -1.64984,-0.53882 -2.74873,-0.77296 -2.82854,-0.60264 -5.32679,-2.7153 -6.63617,-5.55892 7.22945,1.57207 14.47637,-0.1161 20.14867,-4.12931 z m -37.7962,-9.91533 c 2.97108,6.27955 8.45462,11.30714 15.52391,13.48716 -2.53784,1.83267 -5.75167,2.44486 -8.51101,1.57958 -1.08456,-0.34013 -2.00298,-0.56206 -2.80074,-0.68168 -0.11891,-1.07856 -0.11525,-2.19462 0.0411,-3.31411 -1.14097,0.34051 -2.29714,0.51565 -3.44708,0.53286 -0.14104,-0.40123 -0.32251,-0.81746 -0.55092,-1.2515 a 0.39664055,0.39664055 0 0 0 -0.008,-0.0144 c -0.0673,-0.11579 -0.13787,-0.23292 -0.21329,-0.35201 -1.15634,-1.82579 -1.65916,-4.89515 -0.91404,-7.75203 7e-5,-2.6e-4 7e-5,-2.6e-4 2.1e-4,-7.7e-4 0.20716,-0.77679 0.50397,-1.52529 0.88002,-2.23316 z m 16.44603,13.75331 c 0.0424,0.0114 0.084,0.0241 0.12655,0.0353 0.0469,0.0123 0.0939,0.0226 0.14077,0.0349 1.32623,3.33047 4.12105,5.85638 7.40495,6.55603 0.97104,0.20691 1.75957,0.4213 2.41499,0.65034 -2.18741,2.69401 -5.19543,4.36662 -7.61191,4.47221 -3.35214,0.14647 -4.98845,1.02585 -6.06142,2.44234 l -0.008,0.001 -0.004,-0.003 c -3.2e-4,-8.9e-4 -4.6e-4,-0.002 -2.1e-4,-0.003 -7.7e-4,8.3e-4 -10e-4,0.002 -0.002,0.003 l -0.005,6.6e-4 -0.006,-0.005 c -0.23827,-1.76095 -1.23092,-3.33095 -4.07827,-5.10601 -2.05216,-1.27933 -3.84948,-4.21353 -4.43081,-7.63385 0.68933,0.12225 1.48994,0.32471 2.44972,0.62565 3.20374,1.00463 6.87882,0.17828 9.67064,-2.07032 z"
       id="path40"
       inkscape:connector-curvature="0" />
    <path
       style="opacity:1;fill:#000000;fill-opacity:1;fill-rule:nonzero;stroke:none;stroke-width:0.08199468;stroke-linecap:butt;stroke-linejoin:round;stroke-miterlimit:4;stroke-dasharray:none;stroke-dashoffset:0;stroke-opacity:1"
       d="m 511.98367,278.062 a 44.959113,44.959113 0 0 0 62.92117,9.14071 44.959113,44.959113 0 0 0 9.14177,-62.91971 44.959113,44.959113 0 0 0 -62.92077,-9.14324 44.959113,44.959113 0 0 0 -9.14217,62.92224 z m 6.86982,-13.74624 a 32.010146,32.010146 0 0 1 4.9324,-34.00123 15.867922,15.867922 0 0 0 1.36872,16.75433 l 0.65417,0.87657 -0.87657,0.65418 a 15.867922,15.867922 0 0 0 -6.07872,15.71615 z m 8.30568,11.08565 a 15.867922,15.867922 0 0 0 16.75432,-1.36872 l 0.87656,-0.65417 0.65416,0.87657 a 15.867922,15.867922 0 0 0 15.71615,6.07871 32.010146,32.010146 0 0 1 -34.00119,-4.93239 z m 17.67712,-21.8566 a 3.9669805,3.9669805 0 0 1 0.80546,-5.5526 3.9669805,3.9669805 0 0 1 5.55367,0.80691 3.9669805,3.9669805 0 0 1 -0.80798,5.55223 3.9669805,3.9669805 0 0 1 -5.55115,-0.80654 z m -9.9635,-31.53575 a 32.010146,32.010146 0 0 1 34.00119,4.93238 15.867922,15.867922 0 0 0 -16.75429,1.36874 l -0.87656,0.65415 -0.65417,-0.87658 a 15.867922,15.867922 0 0 0 -15.71617,-6.07869 z m 37.37381,50.01974 a 15.867922,15.867922 0 0 0 -1.36873,-16.75429 l -0.65416,-0.87656 0.87658,-0.65418 a 15.867922,15.867922 0 0 0 6.07865,-15.71617 32.010146,32.010146 0 0 1 -4.93234,34.0012 z"
       id="path4136-2"
       inkscape:connector-curvature="0" />
    <path
       style="opacity:1;fill:#000000;fill-opacity:1;fill-rule:nonzero;stroke:none;stroke-width:0.08199472;stroke-linecap:butt;stroke-linejoin:round;stroke-miterlimit:4;stroke-dasharray:none;stroke-dashoffset:0;stroke-opacity:1"
       d="m 380.89318,293.10679 a 44.959135,44.959135 0 0 0 26.82793,-57.64447 44.959135,44.959135 0 0 0 -57.64278,-26.82859 44.959135,44.959135 0 0 0 -26.83026,57.64344 44.959135,44.959135 0 0 0 57.64511,26.82962 z m -11.19386,-10.5286 a 32.010161,32.010161 0 0 1 -31.15185,-14.49044 15.86793,15.86793 0 0 0 16.44149,3.50115 l 1.0275,-0.37482 0.37483,1.02753 a 15.86793,15.86793 0 0 0 13.30803,10.33658 z m 13.00413,-4.77165 a 15.86793,15.86793 0 0 0 3.50117,-16.44149 l -0.37482,-1.02751 1.02751,-0.37483 a 15.86793,15.86793 0 0 0 10.33659,-13.30801 32.010161,32.010161 0 0 1 -14.49045,31.15184 z m -3.64285,-5.57588 c -0.89006,0.36716 -1.6277,-0.0625 -1.6277,-0.0625 -2.8344,-1.48389 -5.2257,-11.78793 -4.52075,-10.71515 -0.75202,-1.01844 8.10212,4.74389 8.52679,7.91249 0,0 0.20541,1.14599 -0.89513,1.89299 -0.1573,0.10666 -0.3414,0.20341 -0.55638,0.28961 -0.002,7.7e-4 -0.003,-10e-4 -0.007,5.2e-4 -2.9e-4,5.7e-4 -1.9e-4,0.002 -0.001,0.003 -0.30874,0.3452 -0.62233,0.5552 -0.91898,0.67771 z m -10.27357,3.74769 c -0.13751,0.0406 -0.28849,0.0667 -0.45421,0.079 -0.1896,0.0136 -0.39838,0.006 -0.62754,-0.027 -0.002,-1.9e-4 -0.003,-10e-4 -0.009,-0.004 l -10e-4,0.003 c -1.75992,0.57887 -2.51379,-0.73994 -2.51379,-0.73994 -1.71269,-2.70227 1.36836,-12.82109 1.44247,-11.53952 -0.14193,-1.25805 4.64349,8.15771 3.42699,11.11412 0,0 -0.30175,0.83982 -1.26589,1.1142 z m 20.52782,-24.54047 c -3.33366,1.07222 -12.15371,-1.64105 -10.95224,-1.71056 -1.25795,0.14222 8.16,-4.64242 11.11644,-3.42589 0,0 1.09488,0.39406 1.19152,1.72066 0.0135,0.18964 0.007,0.39604 -0.026,0.62533 -10e-4,0.003 -10e-4,0.003 -0.004,0.009 l 6.9e-4,0.002 c 0.57886,1.75987 -0.73993,2.51376 -0.73993,2.51376 -0.16911,0.10704 -0.36565,0.19491 -0.58786,0.2665 z m -41.70409,15.2132 c -0.21668,0.0865 -0.4237,0.14711 -0.62193,0.17312 0,0 -1.14545,0.20686 -1.89239,-0.89345 l -0.002,6.8e-4 c -0.10666,-0.15729 -0.20322,-0.34146 -0.2896,-0.55635 -6.8e-4,-0.002 -5.2e-4,-0.007 -0.001,-0.009 l -0.002,6.8e-4 c -1.38111,-1.23488 -0.61579,-2.54844 -0.61579,-2.54844 1.48388,-2.83439 11.78687,-5.22338 10.71411,-4.51838 0.95478,-0.70508 -4.04927,7.03167 -7.28943,8.35146 z m 19.23429,-12.05457 a 3.9669825,3.9669825 0 0 1 -5.08728,-2.36634 3.9669825,3.9669825 0 0 1 2.36805,-5.0879 3.9669825,3.9669825 0 0 1 5.08617,2.36868 3.9669825,3.9669825 0 0 1 -2.36694,5.08556 z m 14.36488,-12.34117 c -2.91481,1.03188 -5.72931,1.57065 -5.14267,1.18511 -1.0184,0.75206 4.74451,-8.1004 7.91309,-8.52511 0,0 1.14372,-0.20646 1.89073,0.89411 l 0.002,-6.8e-4 c 0.10666,0.15729 0.20322,0.34145 0.28958,0.55632 6.9e-4,0.002 5.2e-4,0.007 10e-4,0.009 l 0.002,-6.9e-4 c 1.38111,1.23486 0.61548,2.54663 0.61548,2.54663 -0.55643,1.06289 -2.35266,2.06484 -4.32468,2.86308 -0.41082,0.16626 -0.82993,0.32394 -1.24641,0.47107 z m -32.58312,11.87191 c -2.56646,1.02659 -5.66028,1.9193 -7.13858,1.31086 0,0 -1.09489,-0.39403 -1.19152,-1.72066 -0.0138,-0.18953 -0.007,-0.39601 0.026,-0.62534 0.001,-0.003 0.001,-0.003 0.004,-0.009 l -6.9e-4,-0.002 c -0.57889,-1.75995 0.73989,-2.51378 0.73989,-2.51378 2.70226,-1.71269 12.82173,1.37005 11.54019,1.44417 0.62896,-0.071 -1.41139,1.08841 -3.97789,2.115 z m -14.85064,0.95476 a 32.010161,32.010161 0 0 1 14.4905,-31.15185 15.86793,15.86793 0 0 0 -3.5012,16.44149 l 0.37483,1.02752 -1.0275,0.37482 a 15.86793,15.86793 0 0 0 -10.33663,13.30802 z m 58.64675,-21.43223 a 15.86793,15.86793 0 0 0 -16.44147,-3.50117 l -1.02751,0.37483 -0.37483,-1.02752 a 15.86793,15.86793 0 0 0 -13.30805,-10.3366 32.010161,32.010161 0 0 1 31.15186,14.49046 z m -28.03494,4.45171 c -0.0253,0.007 -0.043,-0.0315 -0.0481,-0.11131 0.14224,1.25794 -4.6441,-8.15944 -3.42762,-11.11587 0,0 0.39409,-1.09488 1.72068,-1.19149 0.18961,-0.0136 0.39844,-0.006 0.62759,0.027 0.002,1.9e-4 0.003,0.001 0.009,0.004 l 0.001,-0.003 c 1.7599,-0.57887 2.51374,0.73993 2.51374,0.73993 1.60567,2.53338 -1.00252,11.58587 -1.39585,11.65146 z m -6.30105,2.29856 c -0.35445,0.19455 -8.16046,-5.05542 -8.55859,-8.02598 0,0 -0.2054,-1.14598 0.89518,-1.89297 0.15729,-0.10666 0.3414,-0.20341 0.55635,-0.28959 0.002,-7.7e-4 0.003,0.001 0.007,-5.2e-4 2.5e-4,-6e-4 1.6e-4,-0.002 10e-4,-0.003 1.23488,-1.38111 2.54663,-0.61549 2.54663,-0.61549 2.83435,1.48389 5.22567,11.78798 4.52072,10.71519 0.0475,0.0635 0.0534,0.1014 0.0318,0.11349 z"
       id="path4136-0-73"
       inkscape:connector-curvature="0" />
    <path
       style="opacity:1;fill:#000000;fill-opacity:1;fill-rule:nonzero;stroke:none;stroke-width:0.0819947;stroke-linecap:butt;stroke-linejoin:round;stroke-miterlimit:4;stroke-dasharray:none;stroke-dashoffset:0;stroke-opacity:1"
       d="m 298.46174,212.77276 a 44.959124,44.959124 0 0 0 60.58304,-19.29555 44.959124,44.959124 0 0 0 -19.29396,-60.58225 44.959124,44.959124 0 0 0 -60.58383,19.29317 44.959124,44.959124 0 0 0 19.29475,60.58463 z m 0.16678,-15.36639 a 32.010153,32.010153 0 0 1 -10.43326,-32.73463 15.867926,15.867926 0 0 0 8.55772,14.46878 l 0.97161,0.50223 -0.50225,0.97164 a 15.867926,15.867926 0 0 0 1.40618,16.79198 z m 12.31723,6.33733 a 15.867926,15.867926 0 0 0 14.46877,-8.55769 l 0.50225,-0.97164 0.97164,0.50225 a 15.867926,15.867926 0 0 0 16.79198,-1.40617 32.010153,32.010153 0 0 1 -32.73464,10.43325 z m -3.53123,-8.29491 c -2.40841,-1.24492 -3.35133,-4.20577 -2.10644,-6.61414 1.2449,-2.40839 7.46422,-3.75102 7.46422,-3.75102 0,0 2.50124,5.85031 1.25638,8.25872 -1.2449,2.40837 -4.20579,3.35133 -6.61416,2.10644 z m 27.69417,-8.81993 c -2.40839,-1.24491 -3.75098,-7.46421 -3.75098,-7.46421 0,0 5.85029,-2.50129 8.25868,-1.25639 2.40839,1.2449 3.35134,4.20576 2.10644,6.61415 -1.24489,2.40837 -4.20575,3.35135 -6.61414,2.10645 z M 298.5946,167.75461 c -2.40837,-1.24489 -3.35133,-4.20577 -2.10644,-6.61414 1.24491,-2.40839 4.20577,-3.35135 6.61414,-2.10646 2.40839,1.24491 3.75258,7.46505 3.75258,7.46505 0,0 -5.85189,2.50045 -8.26028,1.25555 z m 18.69032,8.60284 a 3.9669815,3.9669815 0 0 1 -1.70382,-5.34577 3.9669815,3.9669815 0 0 1 5.34736,-1.703 3.9669815,3.9669815 0 0 1 1.70138,5.34652 3.9669815,3.9669815 0 0 1 -5.34492,1.70225 z m -22.75113,-24.00338 a 32.010153,32.010153 0 0 1 32.73468,-10.43325 15.867926,15.867926 0 0 0 -14.4688,8.55769 l -0.50224,0.97164 -0.97161,-0.50223 a 15.867926,15.867926 0 0 0 -16.79203,1.40615 z m 55.48479,28.63951 a 15.867926,15.867926 0 0 0 -8.55771,-14.46882 l -0.97164,-0.50225 0.50225,-0.97164 a 15.867926,15.867926 0 0 0 -1.40618,-16.792 32.010153,32.010153 0 0 1 10.43328,32.73471 z m -24.57984,-20.41442 c 0,0 -2.50127,-5.8503 -1.25638,-8.25867 1.24491,-2.40839 4.20578,-3.35136 6.61415,-2.10647 2.40838,1.2449 3.35132,4.20577 2.10645,6.61417 -1.2449,2.40837 -7.46422,3.75097 -7.46422,3.75097 z"
       id="path4136-0-7-5-1"
       inkscape:connector-curvature="0" />
    <path
       style="opacity:1;fill:#000000;fill-opacity:1;fill-rule:nonzero;stroke:none;stroke-width:0.08199472;stroke-linecap:butt;stroke-linejoin:round;stroke-miterlimit:4;stroke-dasharray:none;stroke-dashoffset:0;stroke-opacity:1"
       d="m 445.73121,207.91899 a 44.959135,44.959135 0 0 0 -32.76355,54.49012 44.959135,44.959135 0 0 0 54.48835,32.764 44.959135,44.959135 0 0 0 32.76577,-54.4888 44.959135,44.959135 0 0 0 -54.49057,-32.76532 z m 10.0198,11.6515 a 32.010161,32.010161 0 0 1 29.44802,17.6982 15.86793,15.86793 0 0 0 -15.98001,-5.21736 l -1.06133,0.26425 -0.26425,-1.06132 a 15.86793,15.86793 0 0 0 -12.14243,-11.68377 z m -13.4352,3.37214 a 15.86793,15.86793 0 0 0 -5.21735,15.97996 l 0.26426,1.06137 -1.06135,0.26426 a 15.86793,15.86793 0 0 0 -11.68375,12.1424 32.010161,32.010161 0 0 1 17.69819,-29.44799 z m 7.55222,4.16527 c 0.18469,-0.0439 0.39187,-0.0672 0.62315,-0.0713 0.002,5e-5 0.002,0.001 0.007,2.5e-4 0,0 0.001,-0.002 0.001,-0.002 1.6487,-0.84513 2.59808,0.34057 2.59808,0.34057 2.1118,2.40328 0.64005,12.87785 0.36768,11.62339 0.33761,1.22019 -5.855,-7.33802 -5.11268,-10.44757 0,0 0.21908,-1.14302 1.51456,-1.44463 z m 5.76726,20.58921 a 3.9669825,3.9669825 0 0 1 4.80903,2.89016 3.9669825,3.9669825 0 0 1 -2.89195,4.80948 3.9669825,3.9669825 0 0 1 -4.80773,-2.89239 3.9669825,3.9669825 0 0 1 2.89065,-4.80725 z m -21.13753,6.50554 c 3.84626,-0.76067 10.57178,0.25264 9.55254,0.47392 1.22017,-0.3376 -7.33802,5.85498 -10.4476,5.11269 0,0 -1.14294,-0.2191 -1.44459,-1.51454 -0.0439,-0.18469 -0.0672,-0.39188 -0.0713,-0.62315 4.1e-4,-0.002 10e-4,-0.002 2.5e-4,-0.007 0,0 -0.002,-10e-4 -0.002,-10e-4 -0.84513,-1.64868 0.34054,-2.59808 0.34054,-2.59808 0.4506,-0.39608 1.18325,-0.66609 2.07084,-0.84175 z m 42.86829,-10.67348 c 0.86582,-0.25947 1.63938,-0.36458 2.22239,-0.22549 0,0 1.14298,0.21907 1.44463,1.51455 0.0439,0.18469 0.0671,0.39177 0.0713,0.62316 -3.9e-4,0.002 -0.001,0.002 -2.5e-4,0.007 0,0 0.002,0.001 0.002,0.001 0.84511,1.6487 -0.34057,2.59808 -0.34057,2.59808 -2.40326,2.11181 -12.87783,0.64007 -11.6234,0.3677 -0.99147,0.27386 4.4734,-3.7624 8.22518,-4.88723 z m 11.20447,7.1758 a 32.010161,32.010161 0 0 1 -17.69824,29.44801 15.86793,15.86793 0 0 0 5.21738,-15.97996 l -0.26427,-1.0614 1.06132,-0.26425 a 15.86793,15.86793 0 0 0 11.68381,-12.1424 z m -60.58163,15.12111 a 15.86793,15.86793 0 0 0 15.97997,5.21734 l 1.06135,-0.26426 0.26425,1.06135 a 15.86793,15.86793 0 0 0 12.14244,11.68378 32.010161,32.010161 0 0 1 -29.44801,-17.69821 z m 31.67309,-1.83667 c 0.0249,-0.008 0.0462,0.0251 0.0631,0.10357 -0.33771,-1.22019 5.85499,7.33798 5.11269,10.44755 0,0 -0.21909,1.14302 -1.51457,1.44463 -0.18469,0.0439 -0.39187,0.0672 -0.62314,0.0713 -0.002,0 -0.002,-0.001 -0.007,-2.5e-4 0,0 -10e-4,0.002 -10e-4,0.002 -1.64872,0.84511 -2.59807,-0.34055 -2.59807,-0.34055 -1.97984,-2.25309 -0.80915,-11.60102 -0.43075,-11.72693 z"
       id="path4136-0-7-2"
       inkscape:connector-curvature="0" />
    <path
       style="opacity:1;fill:#000000;fill-opacity:1;fill-rule:nonzero;stroke:none;stroke-width:17.71653557;stroke-linecap:butt;stroke-linejoin:round;stroke-miterlimit:4;stroke-dasharray:none;stroke-dashoffset:0;stroke-opacity:1"
       d="m 427.33074,59.073864 a 45.000072,45.000072 0 0 0 -5.06082,63.438066 45.000072,45.000072 0 0 0 63.43807,5.06081 45.000072,45.000072 0 0 0 5.06081,-63.438058 45.000072,45.000072 0 0 0 -63.43806,-5.060818 z m 7.94768,17.764737 c 6.38062,-5.282028 12.45115,-8.786718 18.21179,-10.51383 5.77351,-1.738087 10.49977,-4.130014 14.179,-7.17657 l 0.48108,1.425914 c -7.91131,6.697794 -14.67036,10.922336 -20.27672,12.673752 -5.60639,1.751436 -9.82955,3.859501 -12.6694,6.324234 -2.52139,2.237831 -4.15349,4.552596 -4.89696,6.944269 -0.74157,2.367801 -0.48392,5.007539 0.77361,7.919284 1.72276,3.405417 3.95386,5.109366 6.69301,5.111623 2.73916,0.0023 4.61548,-0.773176 5.62847,-2.32636 l 0.7186,1.156371 c -3.24023,3.718362 -6.39526,5.539382 -9.46489,5.462702 -3.06963,-0.0767 -5.52647,-1.73262 -7.37097,-4.967521 -1.8316,-3.245889 -2.14441,-6.706966 -0.93802,-10.383318 1.20831,-3.700238 4.18557,-7.583727 8.9314,-11.65055 z M 468.2184,62.247099 c 0.1009,-0.08836 0.20284,-0.173713 0.30549,-0.255618 l 0.49505,1.247251 c -1.52864,1.992627 -1.12912,5.868944 1.19873,11.629436 l 8.85299,19.827535 c 0.87669,1.812067 1.7663,2.333809 2.66866,1.564779 0.37385,-0.318603 0.78102,-1.277556 1.22095,-2.876448 l 0.784,0.332914 c -0.4523,4.012856 -1.64509,6.843142 -3.57874,8.491072 -1.68874,1.4392 -3.17412,1.45912 -4.45616,0.0593 -1.9885,-2.33328 -5.66885,-10.190138 -11.04127,-23.570491 -1.46405,-3.937453 -1.59861,-7.372667 -0.40352,-10.305003 1.1222,-2.771467 2.44015,-4.819477 3.95382,-6.144694 z m -28.33786,24.221877 7.42529,-6.328101 11.73759,26.816165 c 1.24432,3.67963 1.17086,7.23611 -0.22038,10.66943 -1.38936,3.40945 -3.23467,5.9835 -5.53602,7.72225 -3.09958,2.70832 -5.90505,3.98635 -8.41597,3.8341 -2.52192,-0.16513 -4.30755,-1.347 -5.35766,-3.54535 -1.32961,-2.7613 -1.4746,-5.46418 -0.43464,-8.10854 1.05285,-2.65534 2.81103,-4.88794 5.27424,-6.69788 l 1.23759,0.74763 c -1.65254,0.98553 -2.75434,2.52568 -3.3059,4.62028 -0.53868,2.08362 -0.21524,4.27783 0.97052,6.58311 0.90056,1.81397 2.21339,2.75395 3.93828,2.81947 1.73776,0.0545 3.43263,-0.63359 5.08459,-2.0637 3.0174,-2.88309 3.42252,-7.13378 1.21552,-12.75247 l -10.87898,-24.476519 -2.04951,1.746667 -0.68456,-1.586542 z m 11.2731,-9.607345 5.2983,-4.515409 7.67196,17.462728 1.68226,-1.433687 0.72371,1.319298 -1.7983,1.532578 7.61652,17.710291 -5.53038,4.7132 -7.59708,-17.726867 -1.35329,1.153321 -0.74315,-1.302725 1.48877,-1.268784 -7.45932,-17.643944 z"
       id="path5323"
       inkscape:connector-curvature="0" />
    <circle
       style="opacity:1;fill:#000000;fill-opacity:1;fill-rule:nonzero;stroke:none;stroke-width:17.71653557;stroke-linecap:butt;stroke-linejoin:round;stroke-miterlimit:4;stroke-dasharray:none;stroke-dashoffset:0;stroke-opacity:1"
       id="path4279"
       cx="-155.7016"
       cy="12.526503"
       r="45" />
    <path
       style="opacity:1;fill:#000000;fill-opacity:1;fill-rule:nonzero;stroke:none;stroke-width:17.71653557;stroke-linecap:butt;stroke-linejoin:round;stroke-miterlimit:4;stroke-dasharray:none;stroke-dashoffset:0;stroke-opacity:1"
       d="m 179.40839,206.63503 a 45,45 0 0 0 -44.99956,45.00011 45,45 0 0 0 44.99956,45.00011 45,45 0 0 0 45.00011,-45.00011 45,45 0 0 0 -45.00011,-45.00011 z m -13.71093,8.49368 0.28332,0.67964 c -6.94699,2.88462 -12.97306,7.84107 -17.10972,14.12545 -10.86467,16.50553 -6.61557,39.60392 10.05086,50.52494 15.57116,10.20333 37.33872,6.17905 47.59579,-9.55421 9.54217,-14.63669 5.74532,-35.07145 -9.05482,-44.66443 -13.70208,-8.88125 -32.80765,-5.31053 -41.73636,8.55652 -8.22062,12.76732 -4.87305,30.54077 8.06097,38.805 11.83237,7.56034 28.27359,4.44059 35.87309,-7.56047 6.90049,-10.89717 4.0071,-26.00894 -7.06107,-32.94338 -9.96168,-6.2412 -23.74473,-3.57316 -30.01367,6.56222 -5.58263,9.02579 -3.1399,21.48111 6.06282,27.08396 8.08936,4.92502 19.21606,2.7079 24.15204,-5.56231 4.26873,-7.15222 2.2794,-16.95492 -5.0585,-21.22289 -6.21402,-3.61429 -14.69657,-1.85113 -18.29483,4.55469 -2.96264,5.27426 -1.42315,12.43985 4.05088,15.36568 4.3319,2.31537 10.18672,1.00311 12.43542,-3.53935 1.67559,-3.38477 0.58934,-7.94553 -3.02122,-9.50792 -1.21341,-0.52507 -2.66337,-0.57331 -3.90039,-0.15048 -1.23703,0.42283 -2.25258,1.29571 -2.68001,2.63316 -0.2288,0.7159 -0.18215,1.65341 0.14441,2.3829 0.32657,0.72949 0.87952,1.23993 1.73468,1.28323 0.18774,0.01 0.73221,-0.2008 0.99219,-0.46137 0.12998,-0.13028 0.18316,-0.2513 0.18576,-0.3164 0.003,-0.0651 -0.003,-0.13226 -0.19348,-0.26733 l 0.42554,-0.60138 c 0.32531,0.23102 0.51727,0.56777 0.50381,0.89848 -0.0135,0.33071 -0.18938,0.5968 -0.40018,0.80808 -0.42161,0.42257 -0.99966,0.70369 -1.55057,0.67579 -1.14655,-0.058 -1.96086,-0.80668 -2.36912,-1.71869 -0.40827,-0.912 -0.46729,-1.99627 -0.17584,-2.90821 0.50316,-1.57438 1.72617,-2.62032 3.14413,-3.105 1.41796,-0.48467 3.03927,-0.43114 4.43177,0.17143 4.03799,1.74735 5.23749,6.77573 3.38887,10.51003 -2.44853,4.94613 -8.76598,6.36361 -13.44359,3.86346 -5.86351,-3.134 -7.50139,-10.75935 -4.34578,-16.37716 3.81176,-6.78591 12.75235,-8.64524 19.30852,-4.83195 7.71134,4.48518 9.79267,14.74651 5.32033,22.23988 -5.15591,8.63871 -16.73981,10.94484 -25.16959,5.81257 -9.56739,-5.82488 -12.09763,-18.73588 -6.3048,-28.10151 6.49261,-10.497 20.73015,-13.25251 31.03121,-6.79868 11.42732,7.15945 14.40829,22.72639 7.29313,33.96257 -7.82563,12.35815 -24.72343,15.56597 -36.89449,7.78923 -13.28938,-8.4913 -16.71998,-26.72012 -8.28146,-39.82586 9.15657,-14.22093 28.71585,-17.87801 42.75612,-8.77755 15.15273,9.82152 19.03561,30.7128 9.27309,45.68748 -10.48621,16.08475 -32.70987,20.19221 -48.61884,9.76753 -17.01694,-11.1507 -21.35056,-34.70536 -10.26363,-51.54855 4.21962,-6.41041 10.35958,-11.45749 17.44321,-14.39884 z"
       id="path4279-6"
       inkscape:connector-curvature="0" />
    <path
       style="opacity:1;fill:#000000;fill-opacity:1;fill-rule:nonzero;stroke:none;stroke-width:17.71653557;stroke-linecap:butt;stroke-linejoin:round;stroke-miterlimit:4;stroke-dasharray:none;stroke-dashoffset:0;stroke-opacity:1"
       d="m 136.99894,125.96735 a 45,45 0 0 0 -45.00009,45.00012 45,45 0 0 0 45.00009,45.00011 45,45 0 0 0 44.99956,-45.00011 45,45 0 0 0 -44.99956,-45.00012 z m 0,12.1317 a 10.774446,10.774446 0 0 1 10.7746,10.77406 10.774446,10.774446 0 0 1 -3.16067,7.61393 l -7.61393,-7.61393 -7.61394,7.61393 a 10.774446,10.774446 0 0 1 -3.16067,-7.61393 10.774446,10.774446 0 0 1 10.77461,-10.77406 z m -22.09437,22.09381 a 10.774446,10.774446 0 0 1 7.61394,3.16067 l -7.61394,7.61394 7.61394,7.61393 a 10.774446,10.774446 0 0 1 -7.61394,3.16067 10.774446,10.774446 0 0 1 -10.77405,-10.7746 10.774446,10.774446 0 0 1 10.77405,-10.77461 z m 44.18873,0 a 10.774446,10.774446 0 0 1 10.77405,10.77461 10.774446,10.774446 0 0 1 -10.77405,10.7746 10.774446,10.774446 0 0 1 -7.61394,-3.16067 l 7.61394,-7.61393 -7.61394,-7.61339 a 10.774446,10.774446 0 0 1 7.61394,-3.16122 z m -29.70775,25.25503 7.61339,7.61394 7.61393,-7.61394 a 10.774446,10.774446 0 0 1 3.16067,7.61394 10.774446,10.774446 0 0 1 -10.7746,10.7746 10.774446,10.774446 0 0 1 -10.77461,-10.7746 10.774446,10.774446 0 0 1 3.16122,-7.61394 z"
       id="path4279-8"
       inkscape:connector-curvature="0" />
    <path
       style="opacity:1;fill:#000000;fill-opacity:1;fill-rule:nonzero;stroke:none;stroke-width:17.71653557;stroke-linecap:butt;stroke-linejoin:round;stroke-miterlimit:4;stroke-dasharray:none;stroke-dashoffset:0;stroke-opacity:1"
       d="M 46.434293,124.27415 A 45,45 0 0 0 1.4341829,169.27426 45,45 0 0 0 46.434293,214.27382 45,45 0 0 0 91.434406,169.27426 45,45 0 0 0 46.434293,124.27415 Z m -13.868578,23.14939 34.025417,0 -17.012708,17.01326 -34.024864,0 17.012155,-17.01326 z m 35.71875,1.69333 0,34.02542 -17.012708,17.01271 0,-34.02487 17.012708,-17.01326 z"
       id="path4279-1"
       inkscape:connector-curvature="0" />
    <path
       style="opacity:1;fill:#000000;fill-opacity:1;fill-rule:nonzero;stroke:none;stroke-width:17.71653557;stroke-linecap:butt;stroke-linejoin:round;stroke-miterlimit:4;stroke-dasharray:none;stroke-dashoffset:0;stroke-opacity:1"
       d="M 640 598.74023 A 159.44882 159.44882 0 0 0 480.55078 758.18945 A 159.44882 159.44882 0 0 0 640 917.63867 A 159.44882 159.44882 0 0 0 799.44922 758.18945 A 159.44882 159.44882 0 0 0 640 598.74023 z M 640 721.04688 A 37.142855 37.142855 0 0 1 677.14258 758.18945 A 37.142855 37.142855 0 0 1 640 795.33203 A 37.142855 37.142855 0 0 1 602.85742 758.18945 A 37.142855 37.142855 0 0 1 640 721.04688 z "
       transform="matrix(0.28222222,0,0,0.28222222,0,-123)"
       id="path4279-7" />
    <path
       style="opacity:1;fill:#000000;fill-opacity:1;fill-rule:nonzero;stroke:none;stroke-width:17.71653557;stroke-linecap:butt;stroke-linejoin:round;stroke-miterlimit:4;stroke-dasharray:none;stroke-dashoffset:0;stroke-opacity:1"
       d="m 90.057556,44.848685 c -24.852902,-6.3e-5 -45.000175,20.147211 -45.000113,45.000113 -6.2e-5,24.852912 20.147211,45.000182 45.000113,45.000122 24.852904,6e-5 45.000174,-20.14721 45.000114,-45.000122 6e-5,-24.8529 -20.14721,-45.000173 -45.000114,-45.000113 z M 69.066921,65.874884 c 1.422837,0 2.845756,1.005764 2.845756,3.017976 -0.01556,0.856346 -0.09262,1.70959 -0.08842,2.566596 0.12451,1.503764 0.199241,3.009366 0.403692,4.50497 0.165807,1.310088 0.425543,2.612272 0.923587,3.840173 0.369962,0.912165 0.592268,1.283485 1.050896,2.158275 0.752525,1.227997 1.559288,2.47081 2.718908,3.357316 0.485791,0.371361 0.794555,0.504233 1.326354,0.780997 1.035854,0.456677 2.155858,0.568189 3.27167,0.638873 1.494184,0.06437 2.990368,0.05058 4.485527,0.04722 0.135495,-1.31e-4 0.270973,5.9e-5 0.406469,0 0.04351,-3.015727 0.02998,-6.031557 -0.1162,-9.044664 -0.123831,-2.223643 -0.238668,-4.461817 -0.591652,-6.664171 -0.07204,-0.449525 -0.136373,-0.686286 -0.234252,-1.07636 -1.44468,-3.756177 3.867666,-5.799639 5.312356,-2.043463 0.07805,0.258343 0.168157,0.513333 0.234253,0.774979 0.264492,1.046495 0.356349,1.716104 0.495358,2.836961 0.241211,1.944921 0.355807,3.897582 0.46619,5.853081 0.152363,3.087931 0.169431,6.178992 0.126849,9.269656 0.223314,-0.0076 0.446542,-0.01458 0.669889,-0.02129 0.378976,-0.01095 0.777645,0.01975 1.142563,-0.09583 0.122931,-0.04188 0.249079,-0.07602 0.368971,-0.125922 0.77951,-0.324514 1.517264,-0.750773 2.244384,-1.17543 1.062558,-0.620559 1.102956,-0.650832 2.156887,-1.290243 1.30911,-0.830478 2.565084,-1.745634 3.707304,-2.795757 0.7374,-0.677943 0.88447,-0.856546 1.57542,-1.582367 0.68079,-0.81498 1.36221,-1.635399 1.91245,-2.547152 0.51662,-0.856051 0.91349,-1.766361 1.28562,-2.691132 0.39811,-1.130666 0.7731,-2.270445 0.98886,-3.449905 -1.74926,-2.347776 1.01071,-5.872002 4.00406,-3.942022 0.49323,0.344742 0.862,0.635846 1.22172,1.160615 0.14579,0.326468 0.32566,0.639999 0.43749,0.979605 0.2637,0.801654 0.079,1.690471 -0.009,2.501782 -0.28931,1.68114 -0.78337,3.311988 -1.37821,4.910054 -0.17205,0.413606 -0.33064,0.832971 -0.51618,1.240706 -0.96488,2.120369 -2.2765,4.043844 -3.83508,5.772065 -0.83769,0.871834 -1.05068,1.123454 -1.94579,1.936523 -1.39039,1.262978 -2.90974,2.372499 -4.49802,3.373055 -0.86381,0.523659 -1.41411,0.863557 -2.289764,1.368482 -1.10691,0.638294 -2.232898,1.26351 -3.443882,1.687454 -0.309831,0.108467 -0.632458,0.176925 -0.948586,0.265271 -0.301943,0.04813 -0.602356,0.108621 -0.905994,0.144441 -0.231587,0.02728 -0.849876,0.03731 -1.097192,0.04445 -0.32561,0.0094 -0.6513,0.02036 -0.976826,0.03194 -0.0168,0.594855 -0.03379,1.189534 -0.05092,1.784212 -0.04079,1.375703 -0.08284,2.751528 -0.130552,4.127204 1.449416,-0.004 2.898619,-0.0027 4.34803,-0.0028 2.507554,0 5.015396,0.0021 7.522946,0.0028 0.83928,3.95e-4 0.44533,2.06e-4 1.18238,4.62e-4 4.02481,0.0014 4.02257,5.69286 -0.002,5.69152 l -1.18238,0 c -2.50663,-6.7e-4 -5.013542,-0.003 -7.520173,-0.003 -1.530339,0 -3.060722,-10e-4 -4.591079,0.003 -0.08784,1.66963 -0.193331,3.33843 -0.324991,5.00542 -0.198404,1.71633 -0.251859,4.29661 -2.646224,4.72209 -2.252866,0.40033 -2.779148,-0.70617 -3.658235,-1.93189 -0.686997,-1.13301 -1.270842,-2.32421 -1.93467,-3.47027 -0.215108,-0.37136 -0.492336,-0.79488 -0.725442,-1.15831 -0.463752,-0.60101 -0.996759,-1.13858 -1.465238,-1.73698 -0.202039,-0.26489 -0.385039,-0.54545 -0.613409,-0.78934 -0.117953,-0.12595 -0.212301,-0.18392 -0.326382,-0.33008 -0.174373,-0.22344 -0.332671,-0.45895 -0.49906,-0.68841 -0.423631,-1.23553 -0.705704,-1.47 -0.142126,-2.91983 0.166019,-0.42708 0.526,-0.754004 0.839793,-1.087934 0.360523,-0.383674 0.999264,-0.602224 1.482367,-0.77637 0.267046,-0.06527 0.53103,-0.145999 0.801368,-0.195827 0.523627,-0.09653 1.312801,-0.157754 1.838838,-0.190274 0.638857,-0.03948 1.278174,-0.06254 1.918004,-0.07917 0.05085,-1.451969 0.09534,-2.904443 0.139349,-4.356364 0.01478,-0.511254 0.02945,-1.022365 0.04398,-1.533754 -0.08781,1.2e-5 -0.175608,-8e-6 -0.263416,0 -1.625045,0.0033 -3.251195,0.0184 -4.874869,-0.05972 -0.690703,-0.04761 -1.040577,-0.06041 -1.737454,-0.15833 -1.350538,-0.189271 -2.668045,-0.574688 -3.89619,-1.170303 -1.057012,-0.597426 -1.452491,-0.763798 -2.422157,-1.564771 -1.643058,-1.357226 -2.873944,-3.115491 -3.936467,-4.943385 -0.610251,-1.188046 -0.889997,-1.65716 -1.376351,-2.916124 -0.613736,-1.588733 -0.970835,-3.257211 -1.185615,-4.942923 -0.231873,-1.748254 -0.342386,-3.507453 -0.454155,-5.266985 0.0034,-0.855743 0.0526,-1.708797 0.08796,-2.562894 0,-2.012212 1.422904,-3.017974 2.845755,-3.017974 l 0,-4.64e-4 z m 39.192929,4.119796 c -0.003,0.0045 -0.0118,0.05818 -0.0102,0.07917 0.003,0.04302 0.003,0.08626 0.005,0.129625 0.005,-0.06849 0.008,-0.137117 0.007,-0.20555 0,-0.0026 -8.4e-4,-0.0025 -0.002,-0.0033 z m -22.827633,39.60356 c -0.25621,0.53389 -0.124459,0.81543 0,0 z"
       id="path4279-5"
       inkscape:connector-curvature="0"
       sodipodi:nodetypes="sssssccccccccccccscccscccccscscscccccccscscssccccccccsccsccscccccccscccccccccscscscccccccccccccc" />
  </g>
</svg>
