<?xml version="1.0" encoding="UTF-8" standalone="no"?>
<!-- Created with Inkscape (http://www.inkscape.org/) -->

<svg
   xmlns:dc="http://purl.org/dc/elements/1.1/"
   xmlns:cc="http://creativecommons.org/ns#"
   xmlns:rdf="http://www.w3.org/1999/02/22-rdf-syntax-ns#"
   xmlns:svg="http://www.w3.org/2000/svg"
   xmlns="http://www.w3.org/2000/svg"
   xmlns:sodipodi="http://sodipodi.sourceforge.net/DTD/sodipodi-0.dtd"
   xmlns:inkscape="http://www.inkscape.org/namespaces/inkscape"
   width="210mm"
   height="297mm"
   viewBox="0 0 210 297"
   version="1.1"
   id="svg4536"
   inkscape:version="0.92.1 r15371"
   sodipodi:docname="onderzetters.svg">
  <defs
     id="defs4530" />
  <sodipodi:namedview
     id="base"
     pagecolor="#ffffff"
     bordercolor="#666666"
     borderopacity="1.0"
     inkscape:pageopacity="0.0"
     inkscape:pageshadow="2"
     inkscape:zoom="0.98994949"
     inkscape:cx="520.50887"
     inkscape:cy="722.68718"
     inkscape:document-units="mm"
     inkscape:current-layer="layer1"
     showgrid="false"
     inkscape:window-width="1920"
     inkscape:window-height="1017"
     inkscape:window-x="1912"
     inkscape:window-y="-8"
     inkscape:window-maximized="1" />
  <metadata
     id="metadata4533">
    <rdf:RDF>
      <cc:Work
         rdf:about="">
        <dc:format>image/svg+xml</dc:format>
        <dc:type
           rdf:resource="http://purl.org/dc/dcmitype/StillImage" />
        <dc:title></dc:title>
      </cc:Work>
    </rdf:RDF>
  </metadata>
  <g
     inkscape:label="Layer 1"
     inkscape:groupmode="layer"
     id="layer1">
    <path
       style="stroke-width:0.09414233"
       d="M 54.42857,7.8273743 A 45.000026,45.000026 0 0 0 9.4285695,52.827381 45.000026,45.000026 0 0 0 54.42857,97.827383 a 45.000026,45.000026 0 0 0 45,-45.000002 45.000026,45.000026 0 0 0 -45,-45.0000067 z m -17.5154,8.5832537 h 0.0136 c 1.33487,1.195906 3.12804,1.751691 7.11659,1.564183 2.45674,-0.115494 4.93309,0.684544 7.01739,2.172242 -0.38483,0.161479 -0.81488,0.317184 -1.30103,0.467868 -2.86408,0.887727 -5.8157,4.350242 -6.53166,8.600486 -1.23045,-0.666922 -2.54025,-1.104968 -3.8907,-1.283589 -10e-4,-2.32e-4 -0.002,-5.56e-4 -0.003,-8.47e-4 -2.6523,-0.455221 -5.13029,-0.05745 -6.79585,1.042718 -0.55652,0.367606 -1.06122,0.657505 -1.52845,0.88361 0.16641,-3.31533 1.59329,-6.412515 3.43313,-8.124208 0.1142,-0.106248 0.2231,-0.21181 0.3283,-0.317379 1.61762,-1.766285 2.16423,-3.321623 2.08145,-4.915551 l 0.0311,-0.03889 c 0.0103,0.0091 0.0214,0.01744 0.0317,0.02647 -10e-4,-0.02574 -10e-4,-0.05137 -0.003,-0.07714 z m 34.96355,0 h 0.0136 c -0.001,0.02577 -0.001,0.0514 -0.003,0.07714 0.0104,-0.0091 0.0212,-0.01736 0.0315,-0.02647 l 0.0313,0.03888 c -0.0828,1.593929 0.46383,3.149267 2.08144,4.915552 0.1052,0.105568 0.21389,0.211131 0.3281,0.317379 1.83714,1.709189 3.26285,4.79987 3.43271,8.109707 -0.45928,-0.224132 -0.9547,-0.508999 -1.49987,-0.869109 -1.6666,-1.100856 -4.14631,-1.498236 -6.80047,-1.041668 -1.34973,0.178774 -2.65935,0.616588 -3.88924,1.283168 -0.716,-4.250145 -3.66719,-7.712558 -6.53122,-8.600274 -0.49351,-0.152961 -0.9299,-0.31133 -1.31911,-0.475434 2.08215,-1.482965 4.5542,-2.27998 7.00687,-2.164676 3.98855,0.187509 5.78193,-0.368277 7.1168,-1.564183 z m -14.83053,4.26987 c 0.51743,0.249233 1.10856,0.480342 1.79118,0.691924 2.41933,0.749876 5.26883,3.967583 5.97278,7.887333 -3.17789,-1.425465 -6.69752,-2.218904 -10.40133,-2.218904 -3.69781,0 -7.21215,0.790865 -10.386,2.211967 0.70607,-3.916606 3.55382,-7.130963 5.97173,-7.880396 0.67481,-0.20916 1.2603,-0.437351 1.77352,-0.683308 1.00952,0.834822 1.90532,1.840408 2.6336,2.987546 0.73082,-1.151148 1.63067,-2.159621 2.64452,-2.996162 z m -2.63864,7.738523 v 2.12e-4 c 3.36716,0.0075 6.69335,0.719412 9.77142,2.079972 0.0198,0.106163 0.0365,0.212863 0.0534,0.319478 -3.04017,2.013091 -4.9074,5.433385 -4.90736,9.133927 1e-5,0.333732 0.0161,0.663996 0.0454,0.990174 -0.26024,0.150995 -0.52844,0.28988 -0.8029,0.417425 -0.5246,-0.315322 -1.02673,-0.669081 -1.50218,-1.058063 a 12.694823,12.694823 0 0 1 0.0334,0.0071 12.694823,12.694823 0 0 1 -2.7101,-3.035464 12.694823,12.694823 0 0 1 -2.73448,3.051857 12.694823,12.694823 0 0 1 0.0706,-0.01238 c -0.48522,0.395991 -0.99793,0.755422 -1.53412,1.074668 -0.29537,-0.134916 -0.58289,-0.28344 -0.86196,-0.445381 0.0293,-0.326104 0.045,-0.656095 0.045,-0.98975 a 0.47397614,0.47397614 0 0 0 0,-7.94e-4 c -0.004,-3.699015 -1.87313,-7.116918 -4.91493,-9.127201 0.013,-0.08543 0.0253,-0.171058 0.0402,-0.256216 3.11524,-1.403147 6.49017,-2.139371 9.90867,-2.149543 z m -17.0221,0.12422 c 0.58959,0.0079 1.2018,0.06334 1.82607,0.171089 a 0.39664055,0.39664055 0 0 0 0.0183,0.0028 l 0.003,2.91e-4 c 1.22515,0.161936 2.41709,0.540543 3.53906,1.13604 -6.33207,3.261592 -11.13164,9.10147 -13.02736,16.137233 -0.99521,-1.236967 -1.77668,-2.843893 -2.22289,-4.447898 -0.51404,-1.84782 -0.57229,-3.690553 -0.10215,-4.918284 0.0875,-0.22861 0.16413,-0.446251 0.2354,-0.658082 a 0.39664055,0.39664055 0 0 0 0.005,-0.01701 c 0.0498,-0.173397 0.10474,-0.347247 0.16374,-0.521464 a 0.39664055,0.39664055 0 0 0 0.005,-0.0164 c 0.0689,-0.236948 0.12777,-0.465646 0.17781,-0.687719 1.14599,-0.214053 2.37846,-0.270123 3.69229,-0.11707 -0.43522,-1.250692 -0.66927,-2.561473 -0.69928,-3.884396 0.61111,-0.260677 1.26514,-0.616793 1.97677,-1.086857 1.07587,-0.710658 2.64089,-1.115918 4.40965,-1.092322 z m 34.06102,0 v 2.09e-4 c 1.76869,-0.02359 3.33358,0.381468 4.40943,1.092112 0.70069,0.462831 1.34559,0.815479 1.94861,1.075087 -0.0289,1.326955 -0.26297,2.641938 -0.69949,3.896375 1.32505,-0.154355 2.56764,-0.09671 3.72192,0.121907 0.0497,0.22004 0.10751,0.446368 0.17572,0.680992 a 0.39664055,0.39664055 0 0 0 0.005,0.0164 c 0.0595,0.175676 0.11466,0.351293 0.16478,0.525876 a 0.39664055,0.39664055 0 0 0 0.005,0.01701 c 0.0711,0.211077 0.14719,0.427943 0.23436,0.655561 0.47015,1.227767 0.4118,3.070209 -0.10236,4.918075 -0.44786,1.609556 -1.23319,3.222458 -2.23341,4.461137 -1.89252,-7.03893 -6.69119,-12.882312 -13.02358,-16.146689 1.12441,-0.597897 2.31934,-0.977847 3.54747,-1.140032 a 0.39664055,0.39664055 0 0 0 0.006,-5.55e-4 l 0.004,-5.56e-4 a 0.39664055,0.39664055 0 0 0 0.01,-0.0017 c 0.62426,-0.107738 1.23651,-0.163226 1.82607,-0.171089 z m -5.90783,2.611315 c 6.08121,3.137894 10.55615,8.691401 12.32914,15.300912 -0.0935,0.109222 -0.18965,0.215434 -0.28732,0.320111 -1.08334,-0.352838 -2.21764,-0.536572 -3.36251,-0.539752 a 0.47397614,0.47397614 0 0 0 -0.001,0 c -2.93693,-3e-6 -5.60591,1.159462 -7.57437,3.044502 -0.25988,-0.101296 -0.51379,-0.214233 -0.76255,-0.336082 -0.0779,-0.566991 -0.11862,-1.1416 -0.11896,-1.72035 1.7e-4,-0.05126 0.003,-0.102206 0.004,-0.153432 a 12.694823,12.694823 0 0 1 0.003,0.0067 12.694823,12.694823 0 0 1 0.28207,-2.501181 c 0.004,-0.01836 0.009,-0.03649 0.013,-0.05485 a 12.694823,12.694823 0 0 1 0.28921,-1.076561 c 0.0365,-0.11545 0.0722,-0.230846 0.11203,-0.345328 -0.001,1.11e-4 -0.003,2.64e-4 -0.004,2.64e-4 a 12.694823,12.694823 0 0 1 0.008,-0.02312 12.694823,12.694823 0 0 1 -1.36493,0.08848 12.694823,12.694823 0 0 1 -2.69939,-0.299299 12.694823,12.694823 0 0 1 0.0252,0.02291 c -0.63925,-0.138293 -1.2645,-0.324758 -1.87041,-0.557406 -0.0723,-0.29732 -0.13245,-0.599416 -0.17761,-0.906521 2.9662,-1.961787 4.92544,-5.326649 4.92543,-9.14465 a 0.47397614,0.47397614 0 0 0 0,-0.0025 c -0.002,-0.322475 -0.0189,-0.644502 -0.049,-0.96516 0.0928,-0.05393 0.18656,-0.10668 0.28144,-0.157847 z m -22.35907,0.02184 c 0.0866,0.04696 0.17218,0.09555 0.25706,0.144816 -0.0283,0.318502 -0.0434,0.638108 -0.0437,0.958227 a 0.47397614,0.47397614 0 0 0 0,8.47e-4 c -1e-5,3.818069 1.95914,7.182672 4.92543,9.144441 -0.0473,0.321971 -0.11074,0.63864 -0.18791,0.949814 -0.57737,0.215326 -1.17193,0.388779 -1.77899,0.518943 a 12.694823,12.694823 0 0 1 0.0332,-0.02797 12.694823,12.694823 0 0 1 -2.69707,0.299302 12.694823,12.694823 0 0 1 -1.36724,-0.0784 12.694823,12.694823 0 0 1 0.70748,4.001466 12.694823,12.694823 0 0 1 0.0113,-0.02019 c 7.9e-4,0.05212 0.004,0.104011 0.004,0.156165 -2.7e-4,0.560134 -0.0388,1.116468 -0.11182,1.665701 -0.28405,0.14356 -0.57572,0.27424 -0.87457,0.390731 -1.96847,-1.885045 -4.63745,-3.044507 -7.57437,-3.044505 a 0.47397614,0.47397614 0 0 0 -0.001,0 c -1.14333,0.0034 -2.27617,0.186733 -3.35852,0.539121 -0.0643,-0.06893 -0.12809,-0.138843 -0.19064,-0.209762 1.73227,-6.627313 6.17846,-12.213635 12.248,-15.388748 z m 21.16797,0.73312 c 0.006,0.1238 0.01,0.247701 0.0107,0.371814 -5.3e-4,3.311117 -1.60372,6.242973 -4.07693,8.063886 -0.005,-0.130278 -0.008,-0.26089 -0.008,-0.392411 -3e-5,-3.210063 1.54147,-6.178379 4.07461,-8.043289 z m -19.99767,0.0101 c 2.5312,1.862712 4.07243,4.826764 4.07608,8.032985 v 2.65e-4 2.11e-4 c 0,0.131287 -0.003,0.261734 -0.008,0.391782 -2.4734,-1.821169 -4.07672,-4.753372 -4.07671,-8.064938 1.1e-4,-0.120299 0.004,-0.240419 0.009,-0.360462 z m -17.20896,2.999532 c -0.0236,0.08913 -0.0474,0.17867 -0.0742,0.270922 -0.0587,0.17407 -0.11358,0.348578 -0.16415,0.523568 -0.0689,0.204862 -0.14187,0.411883 -0.22447,0.627605 -0.56867,1.485043 -0.46588,3.454583 0.0792,5.414111 0.49728,1.787596 1.37527,3.562469 2.5388,4.930688 -3.90552,1.606827 -6.6037,5.147894 -6.86164,8.146698 -0.0703,0.817446 -0.18433,1.497211 -0.33671,2.076185 -2.47706,-2.017829 -4.06674,-4.723617 -4.2642,-7.019274 -0.28956,-3.366497 -1.24528,-4.968259 -2.69307,-6.009976 l -0.0126,-0.0557 c 1.7654,-0.310354 3.29412,-1.386157 4.20177,-2.931843 -0.01,0.02908 -0.0188,0.05833 -0.0286,0.08743 0.0158,-0.02667 0.0329,-0.05337 0.049,-0.08008 0.33641,-0.583626 0.71992,-1.14282 1.14949,-1.670955 1.16023,-1.43088 2.60214,-2.572054 4.21186,-3.371969 0.7528,-0.387628 1.56403,-0.707406 2.4295,-0.937413 z m 54.55199,0.0078 c 0.8542,0.229418 1.65516,0.546497 2.39924,0.92964 1.60971,0.799913 3.05142,1.941087 4.21165,3.371967 0.42957,0.528135 0.81308,1.087329 1.14949,1.670957 0.0161,0.02673 0.0334,0.05341 0.0492,0.08008 -0.01,-0.0291 -0.019,-0.05835 -0.0288,-0.08743 0.90764,1.545685 2.43658,2.621489 4.20198,2.931843 l -0.0126,0.0557 c -1.44778,1.04172 -2.40372,2.643478 -2.69328,6.009976 -0.19683,2.288357 -1.77733,4.983959 -4.24087,6.999729 C 86.5791,56.314571 86.46656,55.641119 86.39703,54.832769 86.13909,51.83395 83.44094,48.2931 79.53539,46.68628 c 1.16354,-1.368163 2.04164,-3.143139 2.53901,-4.930687 0.54525,-1.959571 0.64815,-3.929208 0.0795,-5.414317 -0.0823,-0.214898 -0.15516,-0.421069 -0.22384,-0.625084 -0.051,-0.176461 -0.10627,-0.35247 -0.16541,-0.527769 -0.0259,-0.08914 -0.0488,-0.175247 -0.0717,-0.26147 z m -27.28408,8.930246 a 8.8494251,8.8494251 0 0 1 8.84954,8.849553 8.8494251,8.8494251 0 0 1 -8.84954,8.849342 8.8494251,8.8494251 0 0 1 -8.84935,-8.849342 8.8494251,8.8494251 0 0 1 8.84935,-8.849553 z m -19.92663,3.32655 c 2.50435,-3e-6 4.79204,0.917038 6.54616,2.433709 -0.83209,0.223758 -1.70733,0.3438 -2.61069,0.34386 h -5.3e-4 c -2.40674,-0.0033 -4.70646,-0.878313 -6.50327,-2.425935 0.8352,-0.227912 1.69781,-0.348917 2.56843,-0.351634 z m 39.73323,0 c 0.87289,0.0026 1.73762,0.122978 2.57454,0.351634 -1.7969,1.547783 -4.09821,2.423903 -6.50833,2.425935 h -2e-4 c -0.90359,-2.1e-5 -1.77862,-0.120245 -2.6109,-0.344069 1.75386,-1.516459 4.04098,-2.433272 6.54489,-2.4335 z m 5.21717,0.315063 h 2.1e-4 c 3.52883,1.545548 5.9577,4.883076 6.17434,7.401809 0.0843,0.979789 0.23922,1.801958 0.4561,2.50076 -1.00328,0.724775 -2.1291,1.336151 -3.35179,1.770792 0.0151,0.01815 0.0292,0.03648 0.0441,0.05465 0.73812,0.778666 1.39004,1.717511 1.93431,2.736586 -0.0682,0.09342 -0.13477,0.188338 -0.19757,0.286271 a 0.39664055,0.39664055 0 0 0 -0.0988,0.110977 c -0.009,0.01479 -0.023,0.03732 -0.0408,0.06684 a 0.39664055,0.39664055 0 0 0 -0.004,0.0065 c -0.2802,0.4861 -0.59948,0.951693 -0.95697,1.3912 a 0.39664055,0.39664055 0 0 0 -2.6e-4,2.65e-4 c -0.96575,1.191035 -2.16579,2.140754 -3.50586,2.806785 a 0.39664055,0.39664055 0 0 0 -0.005,0.0024 c -1.3698,0.705458 -2.96315,1.142074 -4.76758,1.107879 3.04806,-4.226491 4.84682,-9.420717 4.84682,-15.035871 0,-1.784223 -0.18194,-3.526081 -0.52735,-5.207918 z m -50.04902,0.0065 c -0.34454,1.679824 -0.52567,3.419488 -0.52567,5.201404 0,5.615268 1.79865,10.809547 4.84682,15.03608 -1.79817,0.03169 -3.38642,-0.403944 -4.75245,-1.107244 a 0.39664055,0.39664055 0 0 0 -0.005,-0.0026 C 27.6067,65.966888 26.40635,65.016864 25.44032,63.825493 a 0.39664055,0.39664055 0 0 0 -4.2e-4,-2.64e-4 c -0.35678,-0.43865 -0.67546,-0.903142 -0.95528,-1.388258 a 0.39664055,0.39664055 0 0 0 -0.004,-0.0067 c -0.0181,-0.0301 -0.0332,-0.05353 -0.0427,-0.06957 a 0.39664055,0.39664055 0 0 0 -0.099,-0.111401 c -0.0677,-0.105494 -0.13965,-0.207451 -0.21355,-0.307705 0.54188,-1.010523 1.18957,-1.941713 1.92234,-2.714728 0.015,-0.01818 0.0291,-0.0365 0.0441,-0.05465 -1.21338,-0.431329 -2.33159,-1.036669 -3.32909,-1.754187 0.21963,-0.702406 0.37661,-1.52989 0.46156,-2.517574 0.21633,-2.515087 2.63847,-5.84662 6.159,-7.395086 z m 1.4862,0.376441 c 2.02278,1.929014 4.72114,3.023532 7.54663,3.027262 a 0.47397614,0.47397614 0 0 0 7.9e-4,0 c 1.18398,0 2.32398,-0.18909 3.39257,-0.53744 0.21868,0.234852 0.42558,0.48097 0.62109,0.736063 -0.1963,0.609401 -0.43922,1.202764 -0.72492,1.775627 a 12.694823,12.694823 0 0 1 -0.002,-0.08533 12.694823,12.694823 0 0 1 -2.37086,3.341071 12.694823,12.694823 0 0 1 0.0319,0.01323 l -10e-4,0.0013 c 0.0148,0.0052 0.0292,0.01087 0.0439,0.01617 a 12.694823,12.694823 0 0 1 3.53108,1.973199 12.694823,12.694823 0 0 1 -0.0118,-0.02774 c 0.47381,0.371044 0.91982,0.774139 1.33445,1.206032 -0.0619,0.284996 -0.13469,0.565988 -0.22027,0.841364 -3.97648,0.540599 -7.35621,3.229851 -8.77242,6.993213 -0.12222,0.0096 -0.245,0.01754 -0.36845,0.0227 -3.10341,-4.179207 -4.79209,-9.241756 -4.79973,-14.451687 0.002,-1.587177 0.16483,-3.169087 0.47564,-4.725128 0.0973,-0.04166 0.19547,-0.0814 0.29384,-0.120015 z m 46.96312,5.29e-4 c 0.13356,0.0525 0.26616,0.107075 0.39766,0.165204 0.31147,1.540499 0.47789,3.10707 0.48679,4.679098 v 0.0013 c -0.0111,5.212887 -1.70512,10.277229 -4.81467,14.455768 -0.15793,-0.0049 -0.31482,-0.01373 -0.47081,-0.02585 -1.41437,-3.761222 -4.79407,-6.454976 -8.77515,-6.995737 -0.0764,-0.24601 -0.14297,-0.496372 -0.20051,-0.750144 0.44539,-0.473165 0.92823,-0.912164 1.44354,-1.313855 a 12.694823,12.694823 0 0 1 0.90883,-0.646313 c 0.0572,-0.03697 0.11452,-0.07362 0.17235,-0.109718 a 12.694823,12.694823 0 0 1 0.87016,-0.495821 c 0.10122,-0.05255 0.20332,-0.103915 0.30624,-0.153853 a 12.694823,12.694823 0 0 1 0.77389,-0.34386 c 0.16791,-0.06802 0.3371,-0.133908 0.50885,-0.195048 -0.002,-0.0024 -0.005,-0.0048 -0.007,-0.0071 a 12.694823,12.694823 0 0 1 0.025,-0.0094 12.694823,12.694823 0 0 1 -2.37275,-3.335604 12.694823,12.694823 0 0 1 -0.003,0.05065 c -0.29374,-0.593106 -0.54181,-1.207958 -0.73985,-1.839733 0.17361,-0.220948 0.35502,-0.435462 0.54627,-0.640847 1.06858,0.34835 2.20879,0.537437 3.39277,0.537437 a 0.47397614,0.47397614 0 0 0 2.7e-4,0 c 2.82873,-0.0024 5.52821,-1.098444 7.55083,-3.026637 z M 45.50777,61.009485 c 0.0397,0 0.079,0.0011 0.11854,0.0016 0.36037,0.533733 0.67998,1.095764 0.95675,1.681046 a 12.694823,12.694823 0 0 1 -0.0317,-0.02397 12.694823,12.694823 0 0 1 1.14403,3.960272 12.694823,12.694823 0 0 1 3.79401,-1.579948 12.694823,12.694823 0 0 1 -0.0139,-0.0042 c 0.60276,-0.143034 1.2165,-0.242065 1.83637,-0.295939 0.16749,0.208319 0.32752,0.422859 0.47817,0.644421 -0.98734,1.644957 -1.55557,3.569473 -1.55557,5.625341 a 0.47397614,0.47397614 0 0 0 0,2.12e-4 c 8e-4,1.981073 0.53898,3.915418 1.54401,5.602642 -0.0848,0.124621 -0.17151,0.2482 -0.2621,0.369289 -6.82953,-0.252875 -13.23422,-3.367989 -17.64992,-8.584088 0.0331,-0.122336 0.069,-0.243393 0.10635,-0.363617 4.04043,-0.551112 7.37502,-3.304628 8.76674,-7.001621 0.25396,-0.01976 0.51002,-0.03118 0.76822,-0.03153 z m 17.68292,0 c 0.25813,2.65e-4 0.51394,0.0118 0.7678,0.03153 1.39225,3.699772 4.73006,6.452878 8.76758,7.00351 0.0502,0.1616 0.0978,0.324364 0.14019,0.489731 -4.44409,5.182465 -10.86014,8.255759 -17.68376,8.470802 -0.094,-0.125627 -0.18362,-0.253754 -0.27135,-0.383167 1.00843,-1.68637 1.54956,-3.620969 1.55325,-5.602851 a 0.47397614,0.47397614 0 0 0 0,-7.94e-4 c 1e-5,-2.05581 -0.56849,-3.980206 -1.55577,-5.625134 0.15278,-0.224692 0.31502,-0.442177 0.4851,-0.653248 0.65005,0.05143 1.29351,0.153193 1.92507,0.302664 a 12.694823,12.694823 0 0 1 -0.0166,0.0042 12.694823,12.694823 0 0 1 3.78939,1.569646 12.694823,12.694823 0 0 1 1.13667,-3.9258 12.694823,12.694823 0 0 1 -0.0105,0.0076 c 0.27766,-0.587875 0.59859,-1.152496 0.96054,-1.688401 0.004,0 0.008,-2.09e-4 0.0124,-2.09e-4 z m 1.84625,0.175292 c 3.24569,0.612272 5.98524,2.799014 7.30554,5.828168 -3.28936,-0.621417 -6.00469,-2.843877 -7.30554,-5.828168 z m -21.37878,5.29e-4 c -1.30059,2.980563 -4.01044,5.203891 -7.3003,5.826067 1.32134,-3.029577 4.05942,-5.213265 7.3003,-5.826067 z m -19.93524,1.562291 c 0.0188,0.03054 0.0387,0.0602 0.057,0.09122 a 0.39664055,0.39664055 0 0 0 0.0847,0.100259 c 0.28508,0.482002 0.60269,0.946986 0.9599,1.386157 1.03815,1.280197 2.32843,2.301457 3.76838,3.017179 4.2e-4,2.64e-4 9e-4,5.29e-4 0.002,7.93e-4 1.60406,0.824834 3.51325,1.303261 5.66422,1.164204 -0.29439,1.01464 -0.45498,2.064065 -0.45883,3.12248 a 0.39664055,0.39664055 0 0 0 0,0.0019 c 0.005,3.174 1.31204,6.176024 3.10651,7.845507 0.0925,0.08603 0.18049,0.171913 0.2663,0.257895 0.22925,0.250677 0.42938,0.493255 0.60659,0.730385 -0.29664,0.06133 -0.59512,0.112482 -0.89538,0.152175 -0.002,2.65e-4 -0.004,7.94e-4 -0.006,0.0011 -2.98346,0.514932 -5.75442,0.0505 -7.55041,-1.135828 -2.77212,-1.831096 -4.64422,-2.126273 -6.38368,-1.624925 l -0.0219,-0.0105 c 0.0125,-0.02268 0.0235,-0.04614 0.0357,-0.06894 -0.025,0.0068 -0.0501,0.01201 -0.075,0.01913 l -0.008,-0.03636 c 0.40045,-0.729869 0.64103,-1.524725 0.72513,-2.320843 0.0372,-0.828622 -0.0925,-1.777362 -0.41932,-2.900526 -0.0706,-0.208439 -0.13621,-0.416941 -0.1961,-0.625504 -0.0809,-0.240451 -0.1673,-0.485606 -0.26546,-0.741948 -0.82676,-2.159039 -0.34039,-5.521081 1.00489,-8.424984 z m 61.36927,0.0267 c 1.33607,2.897896 1.81761,6.245743 0.99333,8.398285 -0.0982,0.256344 -0.18452,0.501711 -0.26547,0.742159 -0.0599,0.208563 -0.12574,0.417065 -0.19631,0.625504 -0.32679,1.123164 -0.45633,2.071695 -0.4191,2.900317 0.0841,0.796118 0.32447,1.590974 0.72492,2.320843 l -0.008,0.03636 c -0.0249,-0.0071 -0.0501,-0.01236 -0.075,-0.01913 0.0122,0.02281 0.023,0.04627 0.0355,0.06894 l -0.0216,0.0105 c -1.73946,-0.501345 -3.61177,-0.206171 -6.38389,1.624928 -1.796,1.186326 -4.56695,1.650762 -7.55041,1.135828 -0.002,-2.65e-4 -0.004,-7.94e-4 -0.006,-0.0011 -0.29195,-0.03859 -0.58225,-0.08807 -0.87079,-0.147127 0.17814,-0.238744 0.37968,-0.483168 0.61058,-0.735639 0.0859,-0.0861 0.17387,-0.171887 0.26609,-0.257686 1.79447,-1.669484 3.10122,-4.671507 3.10651,-7.845507 a 0.39664055,0.39664055 0 0 0 0,-0.0019 c -0.004,-1.058415 -0.16444,-2.107843 -0.45883,-3.122483 2.15146,0.139089 4.06119,-0.339667 5.66549,-1.164831 l 5.2e-4,-2.11e-4 c 1.43986,-0.715722 2.72988,-1.736868 3.76796,-3.01697 l 2.6e-4,-2.09e-4 c 0.35663,-0.438494 0.67347,-0.903031 0.95822,-1.384266 a 0.39664055,0.39664055 0 0 0 0.086,-0.101938 c 0.0129,-0.02196 0.0272,-0.04302 0.0404,-0.06474 z m -30.74265,3.54612 c 0.74458,1.400186 1.16683,2.99838 1.16694,4.696754 v 5.29e-4 2.65e-4 c -0.003,1.636336 -0.41136,3.234687 -1.17093,4.663757 -0.75683,-1.429689 -1.16246,-3.027968 -1.16315,-4.663757 -1e-5,-1.698744 0.4224,-3.297354 1.16714,-4.697802 z m 19.60231,2.913563 c 0.18597,0.784683 0.2839,1.588741 0.28691,2.397559 -0.005,2.952443 -1.27138,5.793319 -2.85367,7.2654 -0.10332,0.09613 -0.20106,0.191455 -0.2953,0.286059 a 0.39664055,0.39664055 0 0 0 -0.0118,0.01196 c -0.33338,0.364132 -0.61589,0.722481 -0.85524,1.076975 -1.11632,-0.308795 -2.19817,-0.77402 -3.22252,-1.397717 -0.13305,1.121231 -0.41265,2.200455 -0.80101,3.212439 -0.79602,-0.08447 -1.7326,-0.101947 -2.85492,-0.04918 -2.88883,0.135808 -5.84188,-1.272775 -7.83079,-3.690398 7.39164,-0.316354 13.97182,-3.790405 18.43831,-9.11312 z m -39.07514,0.01323 c 4.46908,5.318604 11.05006,8.787961 18.44126,9.100299 -1.98892,2.417328 -4.94174,3.825986 -7.83038,3.690186 -1.13539,-0.05338 -2.08005,-0.03472 -2.88203,0.05233 -0.38904,-1.01296 -0.66907,-2.093317 -0.80227,-3.215801 -1.01701,0.619228 -2.09074,1.082379 -3.19857,1.3912 C 38.36636,79.913185 38.0851,79.55673 37.7539,79.194965 a 0.39664055,0.39664055 0 0 0 -0.0116,-0.01177 c -0.0945,-0.09487 -0.19252,-0.190248 -0.29573,-0.286268 -1.58228,-1.472081 -2.84845,-4.31296 -2.85365,-7.265401 0,-2.64e-4 0,-2.64e-4 0,-7.93e-4 0.003,-0.803929 0.0999,-1.603285 0.28375,-2.383475 z m 19.40074,9.123418 c 0.0439,2.2e-4 0.0874,0.0019 0.13137,0.0019 0.0485,0 0.0966,-0.0016 0.14502,-0.0019 2.12891,2.884207 5.47379,4.61713 8.82769,4.459459 0.99174,-0.04663 1.80887,-0.03957 2.50097,0.01535 -1.43114,3.161382 -3.91548,5.543368 -6.22583,6.259465 -3.20492,0.993368 -4.5641,2.25964 -5.24197,3.90226 l -0.007,0.0034 -0.005,-0.0024 c -5.3e-4,-7.93e-4 -0.001,-0.0019 -0.001,-0.0029 -5.3e-4,0.0011 -7.9e-4,0.0019 -10e-4,0.0029 l -0.005,0.0024 -0.007,-0.0034 c -0.67787,-1.64262 -2.03684,-2.908892 -5.24176,-3.90226 -2.30986,-0.715944 -4.79371,-3.097188 -6.22499,-6.257573 0.69777,-0.05694 1.52355,-0.06447 2.52829,-0.01725 3.35386,0.157668 6.69838,-1.575324 8.82727,-4.459459 z"
       id="path40"
       inkscape:connector-curvature="0" />
  </g>
</svg>
