<?xml version="1.0" encoding="UTF-8" standalone="no"?>
<!-- Created with Inkscape (http://www.inkscape.org/) -->

<svg
   xmlns:dc="http://purl.org/dc/elements/1.1/"
   xmlns:cc="http://creativecommons.org/ns#"
   xmlns:rdf="http://www.w3.org/1999/02/22-rdf-syntax-ns#"
   xmlns:svg="http://www.w3.org/2000/svg"
   xmlns="http://www.w3.org/2000/svg"
   xmlns:sodipodi="http://sodipodi.sourceforge.net/DTD/sodipodi-0.dtd"
   xmlns:inkscape="http://www.inkscape.org/namespaces/inkscape"
   width="210mm"
   height="297mm"
   viewBox="0 0 744.09448819 1052.3622047"
   id="svg5173"
   version="1.1"
   inkscape:version="0.91 r13725"
   sodipodi:docname="ontwerp.svg">
  <defs
     id="defs5175" />
  <sodipodi:namedview
     id="base"
     pagecolor="#ffffff"
     bordercolor="#666666"
     borderopacity="1.0"
     inkscape:pageopacity="0.0"
     inkscape:pageshadow="2"
     inkscape:zoom="0.35"
     inkscape:cx="-1129.4767"
     inkscape:cy="361.05185"
     inkscape:document-units="px"
     inkscape:current-layer="layer1"
     showgrid="false"
     inkscape:snap-object-midpoints="true"
     inkscape:object-nodes="true"
     inkscape:window-width="1600"
     inkscape:window-height="841"
     inkscape:window-x="0"
     inkscape:window-y="0"
     inkscape:window-maximized="1" />
  <metadata
     id="metadata5178">
    <rdf:RDF>
      <cc:Work
         rdf:about="">
        <dc:format>image/svg+xml</dc:format>
        <dc:type
           rdf:resource="http://purl.org/dc/dcmitype/StillImage" />
        <dc:title></dc:title>
      </cc:Work>
    </rdf:RDF>
  </metadata>
  <g
     inkscape:label="Laag 1"
     inkscape:groupmode="layer"
     id="layer1">
    <rect
       style="fill:#3cb552;fill-opacity:1;stroke:none;stroke-opacity:1"
       id="rect4580"
       width="2055.1182"
       height="992.12598"
       x="-2118.9873"
       y="1142.8572" />
    <rect
       style="fill:#3cb552;fill-opacity:1;stroke:none;stroke-opacity:1"
       id="rect4580-8"
       width="2055.1182"
       height="992.12598"
       x="1412.4409"
       y="1142.8572" />
    <path
       style="fill:#3cb552;fill-opacity:1;stroke:none;stroke-opacity:1"
       d="m -3590.608,1142.8571 0,992.125 1466.9297,0 0,-992.125 z m 34.8477,30.0137 95.2558,103.1758 c -1.7263,1.5857 -3.4225,3.2039 -5.0878,4.8535 l -103.0528,-95.1445 z m 126.1934,0 55.9277,55.9258 c -9.8877,2.2668 -19.5741,5.3362 -28.9629,9.1777 z m 196.6874,0 -27.0019,65.1875 c -9.3826,-3.8607 -19.0644,-6.9497 -28.9492,-9.2363 z m 126.1954,0 12.8711,12.8692 12.8691,-12.8692 95.2559,103.1758 c -1.7263,1.5857 -3.4226,3.2039 -5.0879,4.8535 l -103.0391,-95.1308 -103.1602,95.2441 c -1.5857,-1.7263 -3.2039,-3.4226 -4.8535,-5.0879 z m 151.9336,0 55.9277,55.9258 c -9.8877,2.2668 -19.5741,5.3362 -28.9629,9.1777 z m 196.6875,0 -27.002,65.1875 c -9.3826,-3.8607 -19.0644,-6.9497 -28.9492,-9.2363 z m 126.1953,0 12.8691,12.8692 12.8691,-12.8692 95.2579,103.1758 c -1.7263,1.5857 -3.4226,3.2039 -5.0879,4.8535 l -103.0391,-95.1308 -103.1601,95.2441 c -1.5858,-1.7263 -3.2039,-3.4226 -4.8536,-5.0879 z m 151.9336,0 55.9257,55.9258 c -9.8871,2.2669 -19.5728,5.3363 -28.9609,9.1777 z m 196.6875,0 -27.0039,65.1875 c -9.3819,-3.8606 -19.0631,-6.9496 -28.9473,-9.2363 z m 126.1933,0 12.8848,12.8848 -103.1758,95.2578 c -1.5851,-1.7263 -3.2026,-3.4226 -4.8516,-5.0879 z m -1205.9043,66.6094 31.7344,31.7344 31.7187,-31.7168 c 11.9199,2.1934 23.5778,5.6274 34.7833,10.2461 l -25.7657,62.205 -10.1054,24.3946 c -9.7094,-4.031 -20.1178,-6.1092 -30.6309,-6.1192 -10.5101,0.025 -20.9118,2.1189 -30.6133,6.1621 l -10.1211,-24.4375 -25.7324,-62.1171 c 11.1852,-4.6513 22.8259,-8.1207 34.7324,-10.3516 z m 474.8164,0 31.7344,31.7344 31.7168,-31.7168 c 11.9199,2.1934 23.5777,5.6274 34.7832,10.2461 l -25.7656,62.205 -10.1035,24.3946 c -9.7094,-4.031 -20.1179,-6.1092 -30.6309,-6.1192 -10.5102,0.025 -20.9118,2.1189 -30.6133,6.1621 l -10.1211,-24.4375 -25.7324,-62.1171 c 11.1852,-4.6513 22.8259,-8.1207 34.7324,-10.3516 z m 474.8164,0 31.7344,31.7344 31.7168,-31.7168 c 11.9199,2.1934 23.5777,5.6274 34.7832,10.2461 l -25.7656,62.205 -10.1035,24.3946 c -9.7093,-4.031 -20.1178,-6.1092 -30.6309,-6.1192 -10.5102,0.025 -20.9138,2.1189 -30.6152,6.1621 l -10.1211,-24.4375 -25.7305,-62.1171 c 11.1852,-4.6513 22.8259,-8.1207 34.7324,-10.3516 z m -1038.6523,45.8027 51.2168,55.4688 -55.3477,-51.0996 c 1.3517,-1.4801 2.7288,-2.9367 4.1309,-4.3692 z m 474.8164,0 51.2168,55.4688 -55.3477,-51.0996 c 1.3517,-1.4801 2.7288,-2.9367 4.1309,-4.3692 z m 474.8164,0 51.2168,55.4688 -55.3477,-51.0996 c 1.3517,-1.4801 2.7288,-2.9367 4.1309,-4.3692 z m -708.2383,0.1211 c 1.4808,1.353 2.938,2.7314 4.3711,4.1348 l -55.4687,51.2129 z m 474.8164,0 c 1.4808,1.353 2.938,2.7314 4.3711,4.1348 l -55.4707,51.2129 z m 474.8164,0 c 1.4808,1.353 2.938,2.7314 4.3711,4.1348 l -55.4707,51.2129 z m -1307.6953,26.5449 65.1914,27.0039 c -3.8609,9.3839 -6.9499,19.067 -9.2363,28.9532 z m 474.8164,0 0.016,0.01 0.014,-0.01 -0.01,0.01 65.1699,26.9961 c -3.8609,9.3839 -6.9499,19.067 -9.2363,28.9532 l -55.9414,-55.9414 -55.9121,55.9121 c -2.265,-9.8869 -5.3325,-19.5727 -9.1719,-28.961 l 65.0781,-26.959 z m 474.8145,0 0.016,0.01 0.016,-0.01 -0.01,0.01 65.1718,26.9942 c -3.8609,9.3838 -6.9499,19.067 -9.2363,28.9531 l -55.9414,-55.9414 -55.9121,55.9121 c -2.2656,-9.8869 -5.3337,-19.5727 -9.1738,-28.9609 l 65.08,-26.9571 z m 474.8457,0 -55.9258,55.9278 c -2.2656,-9.887 -5.3337,-19.5727 -9.1738,-28.961 z m -1347.5996,31.8438 62.2012,25.7656 24.3945,10.1035 c -4.0311,9.7096 -6.1192,20.1178 -6.1192,30.6309 0.025,10.5102 2.1171,20.9138 6.1602,30.6152 l -24.4355,10.1211 -62.1172,25.7324 c -4.6504,-11.1871 -8.1184,-22.8299 -10.3477,-34.7382 l 31.7305,-31.7305 -31.7129,-31.7129 c 2.1932,-11.9212 5.6272,-23.5803 10.2461,-34.7871 z m 474.8164,0 62.2012,25.7656 24.3945,10.1035 c -4.0311,9.7095 -6.1192,20.1178 -6.1192,30.6309 0.025,10.5102 2.1171,20.9138 6.1602,30.6152 l -24.4355,10.1211 -62.1172,25.7324 c -4.6504,-11.1871 -8.1184,-22.8299 -10.3477,-34.7382 l 31.7305,-31.7305 -31.7149,-31.7129 c 2.1938,-11.9213 5.6285,-23.5804 10.2481,-34.7871 z m 474.8164,0 62.2012,25.7656 24.3945,10.1035 c -4.0311,9.7095 -6.1211,20.1178 -6.1211,30.6309 0.025,10.5102 2.119,20.9138 6.1621,30.6152 l -24.4355,10.1211 -62.1172,25.7324 c -4.6504,-11.1871 -8.1184,-22.8299 -10.3477,-34.7382 l 31.7285,-31.7305 -31.7129,-31.7129 c 2.1938,-11.9213 5.6285,-23.5804 10.2481,-34.7871 z m -628.6211,0.033 c 4.6501,11.1859 8.1182,22.8273 10.3477,34.7344 l -31.7344,31.7343 31.7168,31.7168 c -2.1934,11.9199 -5.6275,23.5777 -10.2461,34.7832 l -62.2071,-25.7656 -24.3925,-10.1035 c 4.0311,-9.7095 6.1191,-20.1178 6.1191,-30.6309 -0.023,-10.51 -2.1164,-20.9135 -6.1582,-30.6152 l 24.4316,-10.1211 z m 474.8164,0 c 4.6494,11.186 8.1168,22.8274 10.3457,34.7344 l -31.7344,31.7343 31.7188,31.7168 c -2.1934,11.9199 -5.6275,23.5777 -10.2461,34.7832 l -62.207,-25.7656 -24.3946,-10.1035 c 4.0311,-9.7096 6.1211,-20.1178 6.1211,-30.6309 -0.023,-10.5099 -2.1164,-20.9135 -6.1582,-30.6152 l 24.4317,-10.1211 z m 474.8145,0 c 4.6501,11.1859 8.1181,22.8273 10.3476,34.7344 l -31.7344,31.7343 31.7188,31.7168 c -2.1941,11.92 -5.6288,23.5778 -10.2481,34.7832 l -62.205,-25.7656 -24.3946,-10.1035 c 4.0311,-9.7096 6.1192,-20.1178 6.1192,-30.6309 -0.023,-10.5099 -2.1145,-20.9135 -6.1563,-30.6152 l 24.4317,-10.1211 z m -1110.0977,0.3945 c 36.4915,-10e-4 66.0742,29.5826 66.0742,66.0742 0,36.4915 -29.5827,66.0733 -66.0742,66.0723 -36.4898,-10e-4 -66.0684,-29.5824 -66.0684,-66.0723 -0,-36.4899 29.5786,-66.0742 66.0684,-66.0742 z m 474.8164,0 c 36.4914,-10e-4 66.0723,29.5826 66.0723,66.0742 0,36.4915 -29.5809,66.0733 -66.0723,66.0723 -36.4899,-10e-4 -66.0684,-29.5824 -66.0684,-66.0723 0,-36.4899 29.5785,-66.0742 66.0684,-66.0742 z m 474.8164,0 c 36.4914,-10e-4 66.0723,29.5826 66.0723,66.0742 0,36.4915 -29.5809,66.0733 -66.0723,66.0723 -36.4898,-10e-4 -66.0683,-29.5824 -66.0683,-66.0723 0,-36.4899 29.5785,-66.0742 66.0683,-66.0742 z m -768.1621,108.4649 55.9375,55.9375 55.9121,-55.9121 c 2.2668,9.8877 5.3362,19.5741 9.1777,28.9629 l -65.082,26.957 0.01,0.01 -0.014,-0.01 -0.016,0.01 0.01,-0.01 -65.166,-26.9961 c 3.8601,-9.3826 6.9485,-19.0645 9.2344,-28.9492 z m 474.8164,0 55.9375,55.9375 55.9121,-55.9121 c 2.2668,9.8877 5.3363,19.5741 9.1778,28.9629 l -65.084,26.955 0.01,0.01 -0.016,-0.01 -0.016,0.01 0.01,-0.01 -65.1679,-26.9941 c 3.8607,-9.3826 6.9497,-19.0644 9.2363,-28.9492 z m 474.8164,0 55.9512,55.9531 -65.1875,-27.0039 c 3.8607,-9.3826 6.9497,-19.0644 9.2363,-28.9492 z m -1312.5996,0.025 c 2.2668,9.8877 5.3362,19.5741 9.1777,28.9629 l -65.1035,26.9648 z m 111.959,27.125 -51.1035,55.3476 c -1.4808,-1.3529 -2.938,-2.7314 -4.3711,-4.1347 z m 139.0801,0 55.3476,51.0996 c -1.3536,1.4808 -2.7327,2.938 -4.1367,4.3711 z m 335.7363,0 -51.1035,55.3476 c -1.4808,-1.3529 -2.938,-2.7314 -4.3711,-4.1347 z m 139.0781,0 55.3496,51.0996 c -1.3536,1.4808 -2.7327,2.938 -4.1367,4.3711 z m 335.7383,0 -51.1035,55.3476 c -1.4808,-1.3529 -2.938,-2.7314 -4.3711,-4.1347 z m 139.0781,0 55.3477,51.0996 c -1.3529,1.4807 -2.7314,2.938 -4.1348,4.3711 z m -988.5586,4.3671 10.1211,24.4356 25.7305,62.1211 c -11.1853,4.6499 -22.826,8.118 -34.7324,10.3476 l -31.7344,-31.7343 -31.7168,31.7187 c -11.9201,-2.1953 -23.5779,-5.6313 -34.7832,-10.2519 l 25.7656,-62.2012 10.1035,-24.3945 c 9.7097,4.031 20.1177,6.1091 30.6309,6.1191 10.5104,-0.025 20.9136,-2.117 30.6152,-6.1602 z m 474.8164,0 10.1192,24.4356 25.7324,62.1211 c -11.1853,4.6499 -22.826,8.118 -34.7324,10.3476 l -31.7344,-31.7343 -31.7168,31.7168 c -11.92,-2.1947 -23.5778,-5.6301 -34.7832,-10.25 l 25.7656,-62.2012 10.1035,-24.3945 c 9.7097,4.031 20.1176,6.1091 30.6309,6.1191 10.5103,-0.025 20.9136,-2.117 30.6152,-6.1602 z m 474.8145,0 10.1211,24.4356 25.7324,62.1211 c -11.1853,4.6499 -22.826,8.118 -34.7324,10.3476 l -31.7344,-31.7343 -31.7168,31.7168 c -11.92,-2.1947 -23.5778,-5.6301 -34.7832,-10.25 l 25.7637,-62.2012 10.1055,-24.3945 c 9.7096,4.031 20.1176,6.1091 30.6308,6.1191 10.5103,-0.025 20.9117,-2.117 30.6133,-6.1602 z m -1114.4883,55.3731 c 1.5851,1.7263 3.2026,3.4225 4.8516,5.0879 l -95.1465,103.0527 95.2558,103.1758 c -1.7263,1.5857 -3.4225,3.2039 -5.0878,4.8535 l -103.0528,-95.1445 12.8848,-12.8848 -12.8848,-12.8847 z m 474.8164,0 c 1.5851,1.7263 3.2026,3.4225 4.8516,5.0879 l -95.1465,103.0527 95.2559,103.1758 c -1.7263,1.5857 -3.4226,3.2039 -5.0879,4.8535 l -103.0391,-95.1308 -103.1602,95.2441 c -1.5857,-1.7263 -3.2039,-3.4226 -4.8535,-5.0879 l 95.1446,-103.0547 -95.2578,-103.1758 c 1.7263,-1.5851 3.4225,-3.2025 5.0878,-4.8515 l 103.0411,95.1289 z m 474.8145,0 c 1.5857,1.7263 3.2039,3.4226 4.8535,5.0879 l -95.1485,103.0527 95.2579,103.1758 c -1.7263,1.5857 -3.4226,3.2039 -5.0879,4.8535 l -103.0391,-95.1308 -103.1601,95.2441 c -1.5858,-1.7263 -3.2039,-3.4226 -4.8536,-5.0879 l 95.1446,-103.0547 -95.2578,-103.1758 c 1.7263,-1.5851 3.4225,-3.2025 5.0878,-4.8515 l 103.0391,95.1289 z m 268.6133,0.1133 103.0527,95.1426 -12.8848,12.8847 12.8848,12.8848 -103.1758,95.2578 c -1.5851,-1.7263 -3.2026,-3.4226 -4.8516,-5.0879 l 95.1426,-103.0547 -95.2558,-103.1758 c 1.7263,-1.5851 3.4226,-3.2025 5.0879,-4.8515 z m -1155.3418,42.8398 c 9.3826,3.8608 19.0644,6.9498 28.9492,9.2363 l -55.9531,55.9512 55.9277,55.9278 c -9.8877,2.2661 -19.5741,5.3349 -28.9629,9.1757 l -26.9648,-65.1035 z m 474.8164,0 c 9.3819,3.8607 19.0631,6.9497 28.9472,9.2363 l -55.9511,55.9512 55.9277,55.9278 c -9.8877,2.2661 -19.5741,5.3349 -28.9629,9.1757 l -26.9648,-65.1035 z m 474.8144,0 c 9.3826,3.8608 19.0644,6.9498 28.9492,9.2363 l -55.9511,55.9512 55.9257,55.9278 c -9.887,2.2662 -19.5727,5.335 -28.9609,9.1757 l -26.9648,-65.1035 z m -806.9121,0.088 26.9648,65.0996 -27.0019,65.1875 c -9.3826,-3.86 -19.0645,-6.9484 -28.9492,-9.2343 l 55.9511,-55.9532 -55.9257,-55.9258 c 9.8869,-2.2656 19.5727,-5.3337 28.9609,-9.1738 z m 474.8164,0 26.9649,65.0996 -27.002,65.1875 c -9.3826,-3.86 -19.0645,-6.9484 -28.9492,-9.2343 l 55.9512,-55.9532 -55.9258,-55.9258 c 9.8869,-2.2656 19.5727,-5.3337 28.9609,-9.1738 z m 474.8164,0 26.9649,65.0996 -27.0039,65.1875 c -9.382,-3.8599 -19.0632,-6.9483 -28.9473,-9.2343 l 55.9512,-55.9532 -55.9278,-55.9258 c 9.8876,-2.2655 19.574,-5.3336 28.9629,-9.1738 z m -1052.7461,131.709 31.7344,31.7344 31.7187,-31.7168 c 11.9199,2.1934 23.5778,5.6275 34.7833,10.2461 l -25.7657,62.207 -10.1054,24.3926 c -9.7094,-4.031 -20.1178,-6.1092 -30.6309,-6.1192 -10.5101,0.025 -20.9118,2.1189 -30.6133,6.1622 l -10.1211,-24.4356 -25.7324,-62.1191 c 11.1852,-4.6513 22.8259,-8.1207 34.7324,-10.3516 z m 474.8164,0 31.7344,31.7344 31.7168,-31.7168 c 11.9199,2.1934 23.5777,5.6275 34.7832,10.2461 l -25.7656,62.207 -10.1035,24.3926 c -9.7094,-4.031 -20.1179,-6.1092 -30.6309,-6.1192 -10.5102,0.025 -20.9118,2.1189 -30.6133,6.1622 l -10.1211,-24.4356 -25.7324,-62.1191 c 11.1852,-4.6513 22.8259,-8.1207 34.7324,-10.3516 z m 474.8164,0 31.7344,31.7344 31.7168,-31.7168 c 11.9199,2.1934 23.5777,5.6275 34.7832,10.2461 l -25.7656,62.207 -10.1035,24.3926 c -9.7093,-4.031 -20.1178,-6.1092 -30.6309,-6.1192 -10.5102,0.025 -20.9138,2.1189 -30.6152,6.1622 l -10.1211,-24.4356 -25.7305,-62.1191 c 11.1852,-4.6513 22.8259,-8.1207 34.7324,-10.3516 z m -1038.6523,45.8027 51.2168,55.4688 -55.3477,-51.0977 c 1.3517,-1.4807 2.7288,-2.938 4.1309,-4.3711 z m 474.8164,0 51.2168,55.4688 -55.3477,-51.0977 c 1.3517,-1.4807 2.7288,-2.938 4.1309,-4.3711 z m 474.8164,0 51.2168,55.4688 -55.3477,-51.0977 c 1.3517,-1.4807 2.7288,-2.938 4.1309,-4.3711 z m -708.2383,0.1211 c 1.4808,1.3536 2.938,2.7327 4.3711,4.1368 l -55.4687,51.2109 z m 474.8164,0 c 1.4808,1.3536 2.938,2.7327 4.3711,4.1368 l -55.4707,51.2109 z m 474.8164,0 c 1.4808,1.3536 2.938,2.7327 4.3711,4.1368 l -55.4707,51.2109 z m -1307.6953,26.5469 65.1914,27.002 c -3.8609,9.3838 -6.9499,19.0669 -9.2363,28.9531 z m 474.8164,0 0.016,0.01 0.014,-0.01 -0.01,0.01 65.1699,26.9941 c -3.8609,9.3839 -6.9499,19.067 -9.2363,28.9532 l -55.9414,-55.9414 -55.9121,55.9121 c -2.265,-9.8869 -5.3325,-19.5727 -9.1719,-28.961 l 65.0781,-26.957 z m 474.8145,0 0.016,0.01 0.016,-0.01 -0.01,0.01 65.1718,26.9922 c -3.8609,9.3838 -6.9499,19.067 -9.2363,28.9531 l -55.9414,-55.9394 -55.9121,55.9101 c -2.2656,-9.8869 -5.3337,-19.5727 -9.1738,-28.9609 l 65.08,-26.9551 z m 474.8457,0 -55.9258,55.9258 c -2.2656,-9.887 -5.3337,-19.5727 -9.1738,-28.9609 z m -1347.5996,31.8418 62.2012,25.7656 24.3945,10.1055 c -4.0311,9.7095 -6.1192,20.1178 -6.1192,30.6309 0.025,10.5102 2.1171,20.9118 6.1602,30.6132 l -24.4355,10.1211 -62.1172,25.7325 c -4.6504,-11.1872 -8.1184,-22.8299 -10.3477,-34.7383 l 31.7305,-31.7285 -31.7129,-31.7149 c 2.1932,-11.9212 5.6272,-23.5803 10.2461,-34.7871 z m 474.8164,0 62.2012,25.7656 24.3945,10.1055 c -4.0311,9.7096 -6.1192,20.1178 -6.1192,30.6309 0.025,10.5102 2.1171,20.9117 6.1602,30.6132 l -24.4355,10.1211 -62.1172,25.7325 c -4.6504,-11.1872 -8.1184,-22.8299 -10.3477,-34.7383 l 31.7305,-31.7285 -31.7149,-31.7149 c 2.1938,-11.9213 5.6285,-23.5804 10.2481,-34.7871 z m 474.8164,0 62.2012,25.7656 24.3945,10.1055 c -4.0311,9.7096 -6.1211,20.1178 -6.1211,30.6309 0.025,10.5102 2.119,20.9117 6.1621,30.6132 l -24.4355,10.1211 -62.1172,25.7325 c -4.6504,-11.1872 -8.1184,-22.8299 -10.3477,-34.7383 l 31.7285,-31.7285 -31.7129,-31.7149 c 2.1938,-11.9213 5.6285,-23.5804 10.2481,-34.7871 z m -628.6211,0.035 c 4.65,11.1853 8.118,22.826 10.3477,34.7324 l -31.7344,31.7344 31.7168,31.7168 c -2.1934,11.9199 -5.6275,23.5777 -10.2461,34.7832 l -62.2071,-25.7656 -24.3925,-10.1035 c 4.0311,-9.7096 6.1191,-20.1178 6.1191,-30.6309 -0.023,-10.5099 -2.1164,-20.9135 -6.1582,-30.6152 l 24.4316,-10.1211 z m 474.8164,0 c 4.6493,11.1854 8.1167,22.8261 10.3457,34.7324 l -31.7344,31.7344 31.7188,31.7168 c -2.1934,11.9199 -5.6275,23.5777 -10.2461,34.7832 l -62.207,-25.7656 -24.3946,-10.1035 c 4.0311,-9.7096 6.1211,-20.1178 6.1211,-30.6309 -0.023,-10.5099 -2.1164,-20.9135 -6.1582,-30.6152 l 24.4317,-10.1211 z m 474.8145,0 c 4.6499,11.1853 8.118,22.826 10.3476,34.7324 l -31.7344,31.7344 31.7188,31.7168 c -2.1941,11.92 -5.6288,23.5778 -10.2481,34.7832 l -62.205,-25.7656 -24.3946,-10.1035 c 4.0311,-9.7096 6.1192,-20.1178 6.1192,-30.6309 -0.023,-10.5099 -2.1145,-20.9135 -6.1563,-30.6152 l 24.4317,-10.1211 z m -1110.0977,0.3945 c 36.4915,-10e-4 66.0742,29.5807 66.0742,66.0723 0,36.4915 -29.5827,66.0733 -66.0742,66.0723 -36.4898,-10e-4 -66.0684,-29.5824 -66.0684,-66.0723 -0,-36.4899 29.5786,-66.0723 66.0684,-66.0723 z m 474.8164,0 c 36.4914,-10e-4 66.0723,29.5808 66.0723,66.0723 0,36.4915 -29.5809,66.0733 -66.0723,66.0723 -36.4899,-10e-4 -66.0684,-29.5824 -66.0684,-66.0723 0,-36.4899 29.5785,-66.0713 66.0684,-66.0723 z m 474.8164,0 c 36.4914,-10e-4 66.0723,29.5808 66.0723,66.0723 0,36.4915 -29.5809,66.0733 -66.0723,66.0723 -36.4898,-10e-4 -66.0683,-29.5824 -66.0683,-66.0723 0,-36.4899 29.5785,-66.0713 66.0683,-66.0723 z m -768.1621,108.4649 55.9375,55.9355 55.9121,-55.9121 c 2.2668,9.8877 5.3362,19.5741 9.1777,28.9629 l -65.082,26.957 0.01,0.01 -0.014,-0.01 -0.016,0.01 0.01,-0.01 -65.166,-26.9941 c 3.8601,-9.3826 6.9485,-19.0645 9.2344,-28.9492 z m 474.8164,0 55.9375,55.9355 55.9121,-55.9121 c 2.2668,9.8878 5.3363,19.5742 9.1778,28.9629 l -65.084,26.9551 0.01,0.01 -0.016,-0.01 -0.016,0.01 0.01,-0.01 -65.1679,-26.9922 c 3.8607,-9.3826 6.9497,-19.0644 9.2363,-28.9492 z m 474.8164,0 55.9512,55.9511 -65.1875,-27.0019 c 3.8607,-9.3826 6.9497,-19.0644 9.2363,-28.9492 z m -1312.5996,0.023 c 2.2668,9.8877 5.3362,19.5741 9.1777,28.9629 l -65.1035,26.9648 z m 111.959,27.125 -51.1035,55.3476 c -1.4808,-1.3529 -2.938,-2.7314 -4.3711,-4.1347 z m 139.0801,0 55.3476,51.0996 c -1.3536,1.4808 -2.7327,2.938 -4.1367,4.3711 z m 335.7363,0 -51.1035,55.3476 c -1.4808,-1.3529 -2.938,-2.7314 -4.3711,-4.1347 z m 139.0781,0 55.3496,51.0996 c -1.3536,1.4808 -2.7327,2.938 -4.1367,4.3711 z m 335.7383,0 -51.1035,55.3476 c -1.4808,-1.3529 -2.938,-2.7314 -4.3711,-4.1347 z m 139.0781,0 55.3477,51.0996 c -1.3529,1.4808 -2.7314,2.938 -4.1348,4.3711 z m -988.5586,4.3672 10.1211,24.4355 25.7305,62.1211 c -11.1853,4.65 -22.826,8.118 -34.7324,10.3477 l -31.7344,-31.7344 -31.7168,31.7187 c -11.9201,-2.1953 -23.5779,-5.6313 -34.7832,-10.2519 l 25.7656,-62.2012 10.1035,-24.3945 c 9.7097,4.031 20.1177,6.1091 30.6309,6.1191 10.5104,-0.025 20.9136,-2.1169 30.6152,-6.1601 z m 474.8164,0 10.1192,24.4355 25.7324,62.1211 c -11.1853,4.65 -22.826,8.118 -34.7324,10.3477 l -31.7344,-31.7344 -31.7168,31.7187 c -11.9201,-2.1953 -23.5779,-5.6313 -34.7832,-10.2519 l 25.7656,-62.2012 10.1035,-24.3945 c 9.7097,4.031 20.1176,6.1091 30.6309,6.1191 10.5103,-0.025 20.9136,-2.1169 30.6152,-6.1601 z m 474.8145,0 10.1211,24.4355 25.7324,62.1211 c -11.1853,4.65 -22.826,8.118 -34.7324,10.3477 l -31.7344,-31.7344 -31.7168,31.7187 c -11.9201,-2.1953 -23.5779,-5.6313 -34.7832,-10.2519 l 25.7637,-62.2012 10.1055,-24.3945 c 9.7096,4.031 20.1176,6.1091 30.6308,6.1191 10.5103,-0.025 20.9117,-2.1169 30.6133,-6.1601 z m -1114.4883,55.373 c 1.5851,1.7263 3.2026,3.4226 4.8516,5.0879 l -95.1465,103.0527 -12.8848,-12.8847 z m 474.8164,0 c 1.5851,1.7263 3.2026,3.4226 4.8516,5.0879 l -95.1465,103.0527 -12.8691,-12.8691 -12.8711,12.8691 -95.2578,-103.1757 c 1.7263,-1.5851 3.4225,-3.2026 5.0878,-4.8516 l 103.0411,95.1289 z m 474.8145,0 c 1.5857,1.7263 3.2039,3.4226 4.8535,5.0879 l -95.1485,103.0527 -12.8691,-12.8691 -12.8691,12.8691 -95.2578,-103.1757 c 1.7263,-1.5851 3.4225,-3.2026 5.0878,-4.8516 l 103.0391,95.1289 z m 268.6133,0.1133 103.0527,95.1426 -12.8848,12.8847 -95.2558,-103.1757 c 1.7263,-1.5851 3.4226,-3.2026 5.0879,-4.8516 z m -1155.3418,42.8398 c 9.3826,3.8608 19.0644,6.9498 28.9492,9.2364 l -55.9531,55.9511 z m 474.8164,0 c 9.3819,3.8607 19.0631,6.9497 28.9472,9.2364 l -55.9511,55.9511 z m 474.8144,0 c 9.3826,3.8608 19.0644,6.9498 28.9492,9.2364 l -55.9511,55.9511 z m -806.9121,0.088 26.9648,65.0996 -55.9257,-55.9257 c 9.8869,-2.2657 19.5727,-5.3338 28.9609,-9.1739 z m 474.8164,0 26.9649,65.0996 -55.9258,-55.9257 c 9.8869,-2.2657 19.5727,-5.3338 28.9609,-9.1739 z m 474.8164,0 26.9649,65.0996 -55.9278,-55.9257 c 9.8876,-2.2656 19.574,-5.3337 28.9629,-9.1739 z"
       id="rect5212-7"
       inkscape:connector-curvature="0"
       sodipodi:nodetypes="ccccccccccccccccccccccccccccccccccccccccccccccccccccccccccccccccccccccccccccccccccccccccccccccccccccccccccccccccccccccccccccccccccccccccccccccccccccccccccccccccccccccccccccccccccccccccccccccccccccccccccccccccccccsccccsccccsccccccccccccccccccccccccccccccccccccccccccccccccccccccccccccccccccccccccccccccccccccccccccccccccccccccccccccccccccccccccccccccccccccccccccccccccccccccccccccccccccccccccccccccccccccccccccccccccccccccccccccccccccccccccccccccccccccccccccccccccccccccccccccccccccccccccccccccccccccccccccccccccccccccccccccccccccccccccccccccccccccccccccsccscscsscscsccccccccccccccccccccccccccccccccccccccccccccccccccccccccccccccccccccccccccccccccccccccccccccccccccccccccccccccccccccccccccccccccccccccccccc" />
    <text
       xml:space="preserve"
       style="font-style:normal;font-weight:normal;font-size:90px;line-height:125%;font-family:sans-serif;letter-spacing:0px;word-spacing:0px;fill:#000000;fill-opacity:1;stroke:none;stroke-width:1px;stroke-linecap:butt;stroke-linejoin:miter;stroke-opacity:1"
       x="-1206.8954"
       y="2252.313"
       id="text5285"
       sodipodi:linespacing="125%"><tspan
         sodipodi:role="line"
         id="tspan5287"
         x="-1206.8954"
         y="2252.313">Voor</tspan></text>
    <text
       xml:space="preserve"
       style="font-style:normal;font-weight:normal;font-size:90px;line-height:125%;font-family:sans-serif;letter-spacing:0px;word-spacing:0px;fill:#000000;fill-opacity:1;stroke:none;stroke-width:1px;stroke-linecap:butt;stroke-linejoin:miter;stroke-opacity:1"
       x="427.43881"
       y="2283.9558"
       id="text5285-9"
       sodipodi:linespacing="125%"><tspan
         sodipodi:role="line"
         id="tspan5287-2"
         x="427.43881"
         y="2283.9558">Rechts</tspan></text>
    <text
       xml:space="preserve"
       style="font-style:normal;font-weight:normal;font-size:40px;line-height:125%;font-family:sans-serif;letter-spacing:0px;word-spacing:0px;fill:#000000;fill-opacity:1;stroke:none;stroke-width:1px;stroke-linecap:butt;stroke-linejoin:miter;stroke-opacity:1"
       x="1862.7213"
       y="-212.34879"
       id="text5307"
       sodipodi:linespacing="125%"><tspan
         sodipodi:role="line"
         id="tspan5309"
         x="1862.7213"
         y="-212.34879"></tspan></text>
    <text
       xml:space="preserve"
       style="font-style:normal;font-weight:normal;font-size:90px;line-height:125%;font-family:sans-serif;letter-spacing:0px;word-spacing:0px;fill:#000000;fill-opacity:1;stroke:none;stroke-width:1px;stroke-linecap:butt;stroke-linejoin:miter;stroke-opacity:1"
       x="2225.5103"
       y="1091.976"
       id="text5285-0"
       sodipodi:linespacing="125%"><tspan
         sodipodi:role="line"
         id="tspan5287-23"
         x="2225.5103"
         y="1091.976">Achter</tspan></text>
    <text
       xml:space="preserve"
       style="font-style:normal;font-weight:normal;font-size:90px;line-height:125%;font-family:sans-serif;letter-spacing:0px;word-spacing:0px;fill:#000000;fill-opacity:1;stroke:none;stroke-width:1px;stroke-linecap:butt;stroke-linejoin:miter;stroke-opacity:1"
       x="-3042.2476"
       y="2227.6252"
       id="text5285-7"
       sodipodi:linespacing="125%"><tspan
         sodipodi:role="line"
         id="tspan5287-5"
         x="-3042.2476"
         y="2227.6252">Links</tspan></text>
    <path
       style="fill:#3cb552;fill-opacity:1;stroke:none;stroke-opacity:1"
       d="m -59.179034,1142.8576 0,992.125 1466.929734,0 0,-992.125 z m 34.8477,30.0136 95.2558,103.1758 c -1.7263,1.5858 -3.4225,3.2039 -5.0878,4.8535 l -103.0528,-95.1445 z m 126.193404,0 55.9277,55.9258 c -9.8877,2.2668 -19.5741,5.3362 -28.9629,9.1777 z m 196.6874,0 -27.0019,65.1875 c -9.3826,-3.8607 -19.0644,-6.9497 -28.9492,-9.2363 z m 126.1954,0 12.8711,12.8692 12.8691,-12.8692 95.2559,103.1758 c -1.7263,1.5858 -3.4226,3.2039 -5.0879,4.8535 l -103.0391,-95.1308 -103.1602,95.2441 c -1.5857,-1.7263 -3.2039,-3.4225 -4.8535,-5.0879 z m 151.9336,0 55.9277,55.9258 c -9.8877,2.2668 -19.5741,5.3362 -28.9629,9.1777 z m 196.6875,0 -27.002,65.1875 c -9.3826,-3.8607 -19.0644,-6.9497 -28.9492,-9.2363 z m 126.1953,0 12.8691,12.8692 12.8691,-12.8692 95.25793,103.1758 c -1.7263,1.5858 -3.4226,3.2039 -5.0879,4.8535 l -103.03913,-95.1308 -103.1601,95.2441 c -1.5858,-1.7263 -3.2039,-3.4226 -4.8536,-5.0879 z m 151.93363,0 55.9257,55.9258 c -9.8871,2.2669 -19.5728,5.3364 -28.9609,9.1777 z m 196.6875,0 -27.0039,65.1875 c -9.3819,-3.8606 -19.0631,-6.9496 -28.9473,-9.2363 z m 126.1933,0 12.8848,12.8848 -103.1758,95.2578 c -1.5851,-1.7263 -3.2026,-3.4225 -4.8516,-5.0879 z m -1205.90433,66.6094 31.7344,31.7344 31.7187,-31.7168 c 11.9199,2.1934 23.5778,5.6275 34.7833,10.2461 l -25.7657,62.2051 -10.1054,24.3945 c -9.7094,-4.031 -20.1178,-6.1091 -30.6309,-6.1191 -10.5101,0.025 -20.9118,2.1189 -30.6133,6.1621 l -10.1211,-24.4375 -25.7324,-62.1172 c 11.1852,-4.6513 22.8259,-8.1207 34.7324,-10.3516 z m 474.8164,0 31.7344,31.7344 31.7168,-31.7168 c 11.9199,2.1934 23.5777,5.6275 34.7832,10.2461 l -25.7656,62.2051 -10.1035,24.3945 c -9.7094,-4.031 -20.1179,-6.1091 -30.6309,-6.1191 -10.5102,0.025 -20.9118,2.1189 -30.6133,6.1621 l -10.1211,-24.4375 -25.7324,-62.1172 c 11.1852,-4.6513 22.8259,-8.1207 34.7324,-10.3516 z m 474.81643,0 31.7344,31.7344 31.7168,-31.7168 c 11.9199,2.1934 23.5777,5.6275 34.7832,10.2461 l -25.7656,62.2051 -10.1035,24.3945 c -9.7093,-4.031 -20.1178,-6.1091 -30.6309,-6.1191 -10.5102,0.025 -20.9138,2.1189 -30.6152,6.1621 l -10.1211,-24.4375 -25.7305,-62.1172 c 11.1852,-4.6513 22.8259,-8.1207 34.7324,-10.3516 z m -1038.652334,45.8027 51.216804,55.4688 -55.347704,-51.0996 c 1.3517,-1.4801 2.7288,-2.9367 4.1309,-4.3692 z m 474.816404,0 51.2168,55.4688 -55.3477,-51.0996 c 1.3517,-1.4801 2.7288,-2.9367 4.1309,-4.3692 z m 474.81643,0 51.2168,55.4688 -55.3477,-51.0996 c 1.3517,-1.4801 2.7288,-2.9367 4.1309,-4.3692 z m -708.23833,0.1211 c 1.4808,1.353 2.938,2.7314 4.3711,4.1348 l -55.4687,51.2129 z m 474.8164,0 c 1.4808,1.353 2.938,2.7314 4.3711,4.1348 l -55.4707,51.2129 z m 474.81643,0 c 1.4808,1.353 2.938,2.7314 4.3711,4.1348 l -55.4707,51.2129 z m -1307.695334,26.545 65.1914,27.0039 c -3.8609,9.3838 -6.9499,19.067 -9.2363,28.9531 z m 474.816404,0 0.016,0.01 0.014,-0.01 -0.01,0.01 65.1699,26.9961 c -3.8609,9.3838 -6.9499,19.0669 -9.2363,28.9531 l -55.9414,-55.9414 -55.9121,55.9121 c -2.265,-9.8869 -5.3325,-19.5727 -9.1719,-28.961 l 65.0781,-26.9589 z m 474.8145,0 0.016,0.01 0.016,-0.01 -0.01,0.01 65.1718,26.9941 c -3.8609,9.3838 -6.9499,19.067 -9.2363,28.9531 l -55.9414,-55.9414 -55.9121,55.9121 c -2.2656,-9.8869 -5.3337,-19.5727 -9.1738,-28.9609 l 65.08,-26.957 z m 474.84573,0 -55.9258,55.9277 c -2.2656,-9.887 -5.3337,-19.5727 -9.1738,-28.9609 z m -1347.599634,31.8437 62.201204,25.7656 24.3945,10.1036 c -4.0311,9.7096 -6.1192,20.1177 -6.1192,30.6308 0.025,10.5102 2.1171,20.9138 6.1602,30.6152 l -24.4355,10.1211 -62.117204,25.7325 c -4.6504,-11.1872 -8.1184,-22.8299 -10.3477,-34.7383 l 31.7305,-31.7305 -31.7129,-31.7129 c 2.1932,-11.9212 5.6272,-23.5803 10.2461,-34.7871 z m 474.816404,0 62.2012,25.7656 24.3945,10.1036 c -4.0311,9.7095 -6.1192,20.1177 -6.1192,30.6308 0.025,10.5102 2.1171,20.9138 6.1602,30.6152 l -24.4355,10.1211 -62.1172,25.7325 c -4.6504,-11.1872 -8.1184,-22.8299 -10.3477,-34.7383 l 31.7305,-31.7305 -31.7149,-31.7129 c 2.1938,-11.9213 5.6285,-23.5804 10.2481,-34.7871 z m 474.8164,0 62.20123,25.7656 24.3945,10.1036 c -4.0311,9.7095 -6.1211,20.1177 -6.1211,30.6308 0.025,10.5102 2.119,20.9138 6.1621,30.6152 l -24.4355,10.1211 -62.11723,25.7325 c -4.6504,-11.1872 -8.1184,-22.8299 -10.3477,-34.7383 l 31.72853,-31.7305 -31.71293,-31.7129 c 2.1938,-11.9213 5.6285,-23.5804 10.2481,-34.7871 z m -628.6211,0.033 c 4.6501,11.186 8.1182,22.8273 10.3477,34.7344 l -31.7344,31.7344 31.7168,31.7168 c -2.1934,11.9199 -5.6275,23.5777 -10.2461,34.7832 l -62.2071,-25.7657 -24.3925,-10.1035 c 4.0311,-9.7095 6.1191,-20.1177 6.1191,-30.6308 -0.023,-10.51 -2.1164,-20.9136 -6.1582,-30.6153 l 24.4316,-10.1211 z m 474.8164,0 c 4.6494,11.186 8.1168,22.8274 10.3457,34.7344 l -31.7344,31.7344 31.7188,31.7168 c -2.1934,11.9199 -5.6275,23.5777 -10.2461,34.7832 l -62.207,-25.7657 -24.3946,-10.1035 c 4.0311,-9.7096 6.1211,-20.1177 6.1211,-30.6308 -0.023,-10.5099 -2.1164,-20.9136 -6.1582,-30.6153 l 24.4317,-10.1211 z m 474.81453,0 c 4.6501,11.186 8.1181,22.8273 10.3476,34.7344 l -31.7344,31.7344 31.7188,31.7168 c -2.1941,11.9199 -5.6288,23.5777 -10.2481,34.7832 l -62.205,-25.7657 -24.3946,-10.1035 c 4.0311,-9.7096 6.1192,-20.1177 6.1192,-30.6308 -0.023,-10.5099 -2.1145,-20.9136 -6.1563,-30.6153 l 24.4317,-10.1211 z m -1110.09773,0.3945 c 36.4915,-10e-4 66.0742,29.5827 66.0742,66.0743 0,36.4915 -29.5827,66.0732 -66.0742,66.0722 -36.4898,-10e-4 -66.0684,-29.5823 -66.0684,-66.0722 0,-36.4899 29.5786,-66.0743 66.0684,-66.0743 z m 474.8164,0 c 36.4914,-10e-4 66.0723,29.5827 66.0723,66.0743 0,36.4915 -29.5809,66.0732 -66.0723,66.0722 -36.4899,-10e-4 -66.0684,-29.5823 -66.0684,-66.0722 0,-36.4899 29.5785,-66.0743 66.0684,-66.0743 z m 474.81643,0 c 36.4914,-10e-4 66.0723,29.5827 66.0723,66.0743 0,36.4915 -29.5809,66.0732 -66.0723,66.0722 -36.4898,-10e-4 -66.0683,-29.5823 -66.0683,-66.0722 0,-36.4899 29.5785,-66.0743 66.0683,-66.0743 z m -768.16213,108.4649 55.9375,55.9375 55.9121,-55.9121 c 2.2668,9.8877 5.3362,19.5741 9.1777,28.9629 l -65.082,26.957 0.01,0.01 -0.014,-0.01 -0.016,0.01 0.01,-0.01 -65.166,-26.9961 c 3.8601,-9.3826 6.9485,-19.0645 9.2344,-28.9492 z m 474.8164,0 55.9375,55.9375 55.9121,-55.9121 c 2.2668,9.8877 5.3363,19.5741 9.1778,28.9629 l -65.084,26.955 0.01,0.01 -0.016,-0.01 -0.016,0.01 0.01,-0.01 -65.1679,-26.9941 c 3.8607,-9.3826 6.9497,-19.0644 9.2363,-28.9492 z m 474.81643,0 55.9512,55.9531 -65.1875,-27.0039 c 3.8607,-9.3826 6.9497,-19.0644 9.2363,-28.9492 z m -1312.599634,0.025 c 2.2668,9.8877 5.3362,19.5741 9.1777,28.9629 l -65.1035,26.9648 z m 111.959004,27.125 -51.103504,55.3476 c -1.4808,-1.3529 -2.938,-2.7314 -4.3711,-4.1347 z m 139.0801,0 55.3476,51.0996 c -1.3536,1.4808 -2.7327,2.938 -4.1367,4.3711 z m 335.7363,0 -51.1035,55.3476 c -1.4808,-1.3529 -2.938,-2.7314 -4.3711,-4.1347 z m 139.0781,0 55.3496,51.0996 c -1.3536,1.4808 -2.7327,2.938 -4.1367,4.3711 z m 335.73833,0 -51.1035,55.3476 c -1.4808,-1.3529 -2.938,-2.7314 -4.3711,-4.1347 z m 139.0781,0 55.3477,51.0996 c -1.3529,1.4808 -2.7314,2.938 -4.1348,4.3711 z m -988.55863,4.3672 10.1211,24.4355 25.7305,62.1211 c -11.1853,4.65 -22.826,8.118 -34.7324,10.3477 l -31.7344,-31.7344 -31.7168,31.7187 c -11.9201,-2.1953 -23.5779,-5.6313 -34.7832,-10.2519 l 25.7656,-62.2012 10.1035,-24.3945 c 9.7097,4.031 20.1177,6.1091 30.6309,6.1191 10.5104,-0.025 20.9136,-2.1169 30.6152,-6.1601 z m 474.8164,0 10.1192,24.4355 25.7324,62.1211 c -11.1853,4.65 -22.826,8.118 -34.7324,10.3477 l -31.7344,-31.7344 -31.7168,31.7168 c -11.92,-2.1947 -23.5778,-5.6301 -34.7832,-10.25 l 25.7656,-62.2012 10.1035,-24.3945 c 9.7097,4.031 20.1176,6.1091 30.6309,6.1191 10.5103,-0.025 20.9136,-2.1169 30.6152,-6.1601 z m 474.81453,0 10.1211,24.4355 25.7324,62.1211 c -11.1853,4.65 -22.826,8.118 -34.7324,10.3477 l -31.7344,-31.7344 -31.7168,31.7168 c -11.92,-2.1947 -23.5778,-5.6301 -34.7832,-10.25 l 25.7637,-62.2012 10.1055,-24.3945 c 9.7096,4.031 20.1176,6.1091 30.6308,6.1191 10.5103,-0.025 20.9117,-2.1169 30.6133,-6.1601 z m -1114.488334,55.373 c 1.5851,1.7263 3.2026,3.4226 4.8516,5.0879 l -95.1465,103.0527 95.2558,103.1758 c -1.7263,1.5858 -3.4225,3.2039 -5.0878,4.8535 l -103.0528,-95.1445 12.8848,-12.8848 -12.8848,-12.8847 z m 474.816404,0 c 1.5851,1.7263 3.2026,3.4226 4.8516,5.0879 l -95.1465,103.0527 95.2559,103.1758 c -1.7263,1.5858 -3.4226,3.2039 -5.0879,4.8535 l -103.0391,-95.1308 -103.1602,95.2441 c -1.5857,-1.7263 -3.2039,-3.4225 -4.8535,-5.0879 l 95.1446,-103.0547 -95.2578,-103.1757 c 1.7263,-1.5851 3.4225,-3.2026 5.0878,-4.8516 l 103.0411,95.1289 z m 474.81453,0 c 1.5857,1.7263 3.2039,3.4226 4.8535,5.0879 l -95.14853,103.0527 95.25793,103.1758 c -1.7263,1.5858 -3.4226,3.2039 -5.0879,4.8535 l -103.03913,-95.1308 -103.1601,95.2441 c -1.5858,-1.7263 -3.2039,-3.4226 -4.8536,-5.0879 l 95.1446,-103.0547 -95.2578,-103.1757 c 1.7263,-1.5851 3.4225,-3.2026 5.0878,-4.8516 l 103.0391,95.1289 z m 268.6133,0.1133 103.0527,95.1426 -12.8848,12.8847 12.8848,12.8848 -103.1758,95.2578 c -1.5851,-1.7263 -3.2026,-3.4225 -4.8516,-5.0879 l 95.1426,-103.0547 -95.2558,-103.1757 c 1.7263,-1.5851 3.4226,-3.2026 5.0879,-4.8516 z m -1155.34183,42.8398 c 9.3826,3.8608 19.0644,6.9498 28.9492,9.2364 l -55.9531,55.9511 55.9277,55.9278 c -9.8877,2.2662 -19.5741,5.3349 -28.9629,9.1758 l -26.9648,-65.1036 z m 474.8164,0 c 9.3819,3.8607 19.0631,6.9497 28.9472,9.2364 l -55.9511,55.9511 55.9277,55.9278 c -9.8877,2.2662 -19.5741,5.3349 -28.9629,9.1758 l -26.9648,-65.1036 z m 474.81443,0 c 9.3826,3.8608 19.0644,6.9498 28.9492,9.2364 l -55.9511,55.9511 55.9257,55.9278 c -9.887,2.2663 -19.5727,5.335 -28.9609,9.1758 l -26.9648,-65.1036 z m -806.91213,0.088 26.9648,65.0997 -27.0019,65.1875 c -9.3826,-3.8601 -19.0645,-6.9485 -28.9492,-9.2344 l 55.9511,-55.9531 -55.9257,-55.9258 c 9.8869,-2.2657 19.5727,-5.3338 28.9609,-9.1739 z m 474.8164,0 26.9649,65.0997 -27.002,65.1875 c -9.3826,-3.8601 -19.0645,-6.9485 -28.9492,-9.2344 l 55.9512,-55.9531 -55.9258,-55.9258 c 9.8869,-2.2657 19.5727,-5.3338 28.9609,-9.1739 z m 474.81643,0 26.9649,65.0997 -27.0039,65.1875 c -9.382,-3.86 -19.0632,-6.9484 -28.9473,-9.2344 l 55.9512,-55.9531 -55.9278,-55.9258 c 9.8876,-2.2656 19.574,-5.3337 28.9629,-9.1739 z m -1052.74613,131.709 31.7344,31.7344 31.7187,-31.7168 c 11.9199,2.1934 23.5778,5.6275 34.7833,10.2461 l -25.7657,62.207 -10.1054,24.3926 c -9.7094,-4.031 -20.1178,-6.1091 -30.6309,-6.1191 -10.5101,0.025 -20.9118,2.1188 -30.6133,6.1621 l -10.1211,-24.4356 -25.7324,-62.1191 c 11.1852,-4.6513 22.8259,-8.1207 34.7324,-10.3516 z m 474.8164,0 31.7344,31.7344 31.7168,-31.7168 c 11.9199,2.1934 23.5777,5.6275 34.7832,10.2461 l -25.7656,62.207 -10.1035,24.3926 c -9.7094,-4.031 -20.1179,-6.1091 -30.6309,-6.1191 -10.5102,0.025 -20.9118,2.1188 -30.6133,6.1621 l -10.1211,-24.4356 -25.7324,-62.1191 c 11.1852,-4.6513 22.8259,-8.1207 34.7324,-10.3516 z m 474.81643,0 31.7344,31.7344 31.7168,-31.7168 c 11.9199,2.1934 23.5777,5.6275 34.7832,10.2461 l -25.7656,62.207 -10.1035,24.3926 c -9.7093,-4.031 -20.1178,-6.1091 -30.6309,-6.1191 -10.5102,0.025 -20.9138,2.1188 -30.6152,6.1621 l -10.1211,-24.4356 -25.7305,-62.1191 c 11.1852,-4.6513 22.8259,-8.1207 34.7324,-10.3516 z m -1038.652334,45.8028 51.216804,55.4687 -55.347704,-51.0976 c 1.3517,-1.4808 2.7288,-2.938 4.1309,-4.3711 z m 474.816404,0 51.2168,55.4687 -55.3477,-51.0976 c 1.3517,-1.4808 2.7288,-2.938 4.1309,-4.3711 z m 474.81643,0 51.2168,55.4687 -55.3477,-51.0976 c 1.3517,-1.4808 2.7288,-2.938 4.1309,-4.3711 z m -708.23833,0.1211 c 1.4808,1.3535 2.938,2.7326 4.3711,4.1367 l -55.4687,51.2109 z m 474.8164,0 c 1.4808,1.3535 2.938,2.7326 4.3711,4.1367 l -55.4707,51.2109 z m 474.81643,0 c 1.4808,1.3535 2.938,2.7326 4.3711,4.1367 l -55.4707,51.2109 z m -1307.695334,26.5468 65.1914,27.002 c -3.8609,9.3838 -6.9499,19.067 -9.2363,28.9531 z m 474.816404,0 0.016,0.01 0.014,-0.01 -0.01,0.01 65.1699,26.9942 c -3.8609,9.3838 -6.9499,19.0669 -9.2363,28.9531 l -55.9414,-55.9414 -55.9121,55.9121 c -2.265,-9.8869 -5.3325,-19.5727 -9.1719,-28.9609 l 65.0781,-26.9571 z m 474.8145,0 0.016,0.01 0.016,-0.01 -0.01,0.01 65.1718,26.9922 c -3.8609,9.3838 -6.9499,19.067 -9.2363,28.9531 l -55.9414,-55.9394 -55.9121,55.9101 c -2.2656,-9.8869 -5.3337,-19.5727 -9.1738,-28.9609 l 65.08,-26.9551 z m 474.84573,0 -55.9258,55.9258 c -2.2656,-9.8869 -5.3337,-19.5727 -9.1738,-28.9609 z m -1347.599634,31.8418 62.201204,25.7657 24.3945,10.1054 c -4.0311,9.7095 -6.1192,20.1178 -6.1192,30.6309 0.025,10.5102 2.1171,20.9119 6.1602,30.6133 l -24.4355,10.1211 -62.117204,25.7324 c -4.6504,-11.1872 -8.1184,-22.8299 -10.3477,-34.7383 l 31.7305,-31.7285 -31.7129,-31.7149 c 2.1932,-11.9212 5.6272,-23.5803 10.2461,-34.7871 z m 474.816404,0 62.2012,25.7657 24.3945,10.1054 c -4.0311,9.7096 -6.1192,20.1178 -6.1192,30.6309 0.025,10.5102 2.1171,20.9118 6.1602,30.6133 l -24.4355,10.1211 -62.1172,25.7324 c -4.6504,-11.1872 -8.1184,-22.8299 -10.3477,-34.7383 l 31.7305,-31.7285 -31.7149,-31.7149 c 2.1938,-11.9213 5.6285,-23.5804 10.2481,-34.7871 z m 474.8164,0 62.20123,25.7657 24.3945,10.1054 c -4.0311,9.7096 -6.1211,20.1178 -6.1211,30.6309 0.025,10.5102 2.119,20.9118 6.1621,30.6133 l -24.4355,10.1211 -62.11723,25.7324 c -4.6504,-11.1872 -8.1184,-22.8299 -10.3477,-34.7383 l 31.72853,-31.7285 -31.71293,-31.7149 c 2.1938,-11.9213 5.6285,-23.5804 10.2481,-34.7871 z m -628.6211,0.035 c 4.65,11.1853 8.118,22.8261 10.3477,34.7324 l -31.7344,31.7344 31.7168,31.7168 c -2.1934,11.9199 -5.6275,23.5777 -10.2461,34.7832 l -62.2071,-25.7656 -24.3925,-10.1035 c 4.0311,-9.7096 6.1191,-20.1178 6.1191,-30.6309 -0.023,-10.5099 -2.1164,-20.9135 -6.1582,-30.6152 l 24.4316,-10.1211 z m 474.8164,0 c 4.6493,11.1854 8.1167,22.8261 10.3457,34.7324 l -31.7344,31.7344 31.7188,31.7168 c -2.1934,11.9199 -5.6275,23.5777 -10.2461,34.7832 l -62.207,-25.7656 -24.3946,-10.1035 c 4.0311,-9.7096 6.1211,-20.1178 6.1211,-30.6309 -0.023,-10.5099 -2.1164,-20.9135 -6.1582,-30.6152 l 24.4317,-10.1211 z m 474.81453,0 c 4.6499,11.1853 8.118,22.8261 10.3476,34.7324 l -31.7344,31.7344 31.7188,31.7168 c -2.1941,11.92 -5.6288,23.5778 -10.2481,34.7832 l -62.205,-25.7656 -24.3946,-10.1035 c 4.0311,-9.7096 6.1192,-20.1178 6.1192,-30.6309 -0.023,-10.5099 -2.1145,-20.9135 -6.1563,-30.6152 l 24.4317,-10.1211 z m -1110.09773,0.3946 c 36.4915,-10e-4 66.0742,29.5806 66.0742,66.0722 0,36.4915 -29.5827,66.0733 -66.0742,66.0723 -36.4898,-10e-4 -66.0684,-29.5824 -66.0684,-66.0723 0,-36.4899 29.5786,-66.0722 66.0684,-66.0722 z m 474.8164,0 c 36.4914,-10e-4 66.0723,29.5807 66.0723,66.0722 0,36.4915 -29.5809,66.0733 -66.0723,66.0723 -36.4899,-10e-4 -66.0684,-29.5824 -66.0684,-66.0723 0,-36.4899 29.5785,-66.0712 66.0684,-66.0722 z m 474.81643,0 c 36.4914,-10e-4 66.0723,29.5807 66.0723,66.0722 0,36.4915 -29.5809,66.0733 -66.0723,66.0723 -36.4898,-10e-4 -66.0683,-29.5824 -66.0683,-66.0723 0,-36.4899 29.5785,-66.0712 66.0683,-66.0722 z m -768.16213,108.4648 55.9375,55.9355 55.9121,-55.9121 c 2.2668,9.8878 5.3362,19.5742 9.1777,28.9629 l -65.082,26.9571 0.01,0.01 -0.014,-0.01 -0.016,0.01 0.01,-0.01 -65.166,-26.9942 c 3.8601,-9.3826 6.9485,-19.0644 9.2344,-28.9492 z m 474.8164,0 55.9375,55.9355 55.9121,-55.9121 c 2.2668,9.8878 5.3363,19.5742 9.1778,28.9629 l -65.084,26.9551 0.01,0.01 -0.016,-0.01 -0.016,0.01 0.01,-0.01 -65.1679,-26.9922 c 3.8607,-9.3826 6.9497,-19.0644 9.2363,-28.9492 z m 474.81643,0 55.9512,55.9512 -65.1875,-27.002 c 3.8607,-9.3826 6.9497,-19.0644 9.2363,-28.9492 z m -1312.599634,0.023 c 2.2668,9.8877 5.3362,19.5741 9.1777,28.9629 l -65.1035,26.9648 z m 111.959004,27.125 -51.103504,55.3477 c -1.4808,-1.353 -2.938,-2.7314 -4.3711,-4.1348 z m 139.0801,0 55.3476,51.0996 c -1.3536,1.4808 -2.7327,2.938 -4.1367,4.3711 z m 335.7363,0 -51.1035,55.3477 c -1.4808,-1.353 -2.938,-2.7314 -4.3711,-4.1348 z m 139.0781,0 55.3496,51.0996 c -1.3536,1.4808 -2.7327,2.938 -4.1367,4.3711 z m 335.73833,0 -51.1035,55.3477 c -1.4808,-1.353 -2.938,-2.7314 -4.3711,-4.1348 z m 139.0781,0 55.3477,51.0996 c -1.3529,1.4808 -2.7314,2.938 -4.1348,4.3711 z m -988.55863,4.3672 10.1211,24.4355 25.7305,62.1211 c -11.1853,4.65 -22.826,8.118 -34.7324,10.3477 l -31.7344,-31.7344 -31.7168,31.7188 c -11.9201,-2.1954 -23.5779,-5.6314 -34.7832,-10.252 l 25.7656,-62.2012 10.1035,-24.3945 c 9.7097,4.031 20.1177,6.1091 30.6309,6.1191 10.5104,-0.025 20.9136,-2.1169 30.6152,-6.1601 z m 474.8164,0 10.1192,24.4355 25.7324,62.1211 c -11.1853,4.65 -22.826,8.118 -34.7324,10.3477 l -31.7344,-31.7344 -31.7168,31.7188 c -11.9201,-2.1954 -23.5779,-5.6314 -34.7832,-10.252 l 25.7656,-62.2012 10.1035,-24.3945 c 9.7097,4.031 20.1176,6.1091 30.6309,6.1191 10.5103,-0.025 20.9136,-2.1169 30.6152,-6.1601 z m 474.81453,0 10.1211,24.4355 25.7324,62.1211 c -11.1853,4.65 -22.826,8.118 -34.7324,10.3477 l -31.7344,-31.7344 -31.7168,31.7188 c -11.9201,-2.1954 -23.5779,-5.6314 -34.7832,-10.252 l 25.7637,-62.2012 10.1055,-24.3945 c 9.7096,4.031 20.1176,6.1091 30.6308,6.1191 10.5103,-0.025 20.9117,-2.1169 30.6133,-6.1601 z M 65.963566,2014.422 c 1.5851,1.7263 3.2026,3.4226 4.8516,5.0879 l -95.1465,103.0528 -12.8848,-12.8848 z m 474.816404,0 c 1.5851,1.7263 3.2026,3.4226 4.8516,5.0879 l -95.1465,103.0528 -12.8691,-12.8692 -12.8711,12.8692 -95.2578,-103.1758 c 1.7263,-1.5851 3.4225,-3.2026 5.0878,-4.8516 l 103.0411,95.1289 z m 474.81453,0 c 1.5857,1.7263 3.2039,3.4226 4.8535,5.0879 l -95.14853,103.0528 -12.8691,-12.8692 -12.8691,12.8692 -95.2578,-103.1758 c 1.7263,-1.5851 3.4225,-3.2026 5.0878,-4.8516 l 103.0391,95.1289 z m 268.6133,0.1133 103.0527,95.1426 -12.8848,12.8848 -95.2558,-103.1758 c 1.7263,-1.5851 3.4226,-3.2026 5.0879,-4.8516 z m -1155.34183,42.8399 c 9.3826,3.8607 19.0644,6.9497 28.9492,9.2363 l -55.9531,55.9512 z m 474.8164,0 c 9.3819,3.8606 19.0631,6.9496 28.9472,9.2363 l -55.9511,55.9512 z m 474.81443,0 c 9.3826,3.8607 19.0644,6.9497 28.9492,9.2363 l -55.9511,55.9512 z m -806.91213,0.088 26.9648,65.0996 -55.9257,-55.9258 c 9.8869,-2.2657 19.5727,-5.3338 28.9609,-9.1738 z m 474.8164,0 26.9649,65.0996 -55.9258,-55.9258 c 9.8869,-2.2657 19.5727,-5.3338 28.9609,-9.1738 z m 474.81643,0 26.9649,65.0996 -55.9278,-55.9258 c 9.8876,-2.2656 19.574,-5.3337 28.9629,-9.1738 z"
       id="rect5212-7-7"
       inkscape:connector-curvature="0"
       sodipodi:nodetypes="ccccccccccccccccccccccccccccccccccccccccccccccccccccccccccccccccccccccccccccccccccccccccccccccccccccccccccccccccccccccccccccccccccccccccccccccccccccccccccccccccccccccccccccccccccccccccccccccccccccccccccccccccccccsccccsccccsccccccccccccccccccccccccccccccccccccccccccccccccccccccccccccccccccccccccccccccccccccccccccccccccccccccccccccccccccccccccccccccccccccccccccccccccccccccccccccccccccccccccccccccccccccccccccccccccccccccccccccccccccccccccccccccccccccccccccccccccccccccccccccccccccccccccccccccccccccccccccccccccccccccccccccccccccccccccccccccccccccccccccsccscscsscscsccccccccccccccccccccccccccccccccccccccccccccccccccccccccccccccccccccccccccccccccccccccccccccccccccccccccccccccccccccccccccccccccccccccccccc" />
    <rect
       style="fill:#3cb552;fill-opacity:1;fill-rule:nonzero;stroke:#ff0000;stroke-width:0.08858269;stroke-linecap:butt;stroke-linejoin:round;stroke-miterlimit:4;stroke-dasharray:none;stroke-dashoffset:0;stroke-opacity:1"
       id="rect4133"
       width="2055.1182"
       height="1488.189"
       x="-2118.9873"
       y="-349.79654" />
    <text
       xml:space="preserve"
       style="font-style:normal;font-weight:normal;font-size:90px;line-height:125%;font-family:sans-serif;letter-spacing:0px;word-spacing:0px;fill:#000000;fill-opacity:1;stroke:none;stroke-width:1px;stroke-linecap:butt;stroke-linejoin:miter;stroke-opacity:1"
       x="-1248.6515"
       y="-406.45499"
       id="text5285-6"
       sodipodi:linespacing="125%"><tspan
         sodipodi:role="line"
         id="tspan5287-56"
         x="-1248.6515"
         y="-406.45499">Deksel</tspan></text>
    <rect
       style="fill:#3cb552;fill-opacity:1;fill-rule:nonzero;stroke:#ff0000;stroke-width:0.08858269;stroke-linecap:butt;stroke-linejoin:round;stroke-miterlimit:4;stroke-dasharray:none;stroke-dashoffset:0;stroke-opacity:1"
       id="rect4133-9"
       width="2055.1182"
       height="1488.189"
       x="1412.4409"
       y="2147.1047" />
    <text
       xml:space="preserve"
       style="font-style:normal;font-weight:normal;font-size:90px;line-height:125%;font-family:sans-serif;letter-spacing:0px;word-spacing:0px;fill:#000000;fill-opacity:1;stroke:none;stroke-width:1px;stroke-linecap:butt;stroke-linejoin:miter;stroke-opacity:1"
       x="2298.1899"
       y="3777.343"
       id="text5285-0-3"
       sodipodi:linespacing="125%"><tspan
         sodipodi:role="line"
         id="tspan5287-23-7"
         x="2298.1899"
         y="3777.343">Onder</tspan></text>
    <path
       inkscape:connector-curvature="0"
       style="fill:#4d0000;fill-opacity:1;stroke:none;stroke-width:0.28222221;stroke-opacity:1"
       d="m -3573.3425,149.50612 -12.8848,12.8849 103.0542,95.1437 a 186.58284,186.58284 0 0 1 5.0876,-4.8529 l -95.257,-103.1757 z m 126.1941,0 26.9653,65.104 a 186.58284,186.58284 0 0 1 28.9617,-9.1771 l -55.927,-55.9269 z m 196.6879,0 -55.952,55.952 a 186.58284,186.58284 0 0 1 28.9491,9.2359 l 27.0029,-65.1879 z m 126.1943,0 -95.1437,103.0541 a 186.58284,186.58284 0 0 1 4.8526,5.0877 l 103.1759,-95.2569 -12.8848,-12.8849 z m -256.2724,66.6098 a 173.83132,173.83132 0 0 0 -34.733,10.3515 l 25.732,62.1177 10.1209,24.4361 c 9.7015,-4.0433 20.1042,-6.1368 30.6144,-6.1615 10.513,0.01 20.9214,2.0885 30.6308,6.1195 l 10.1042,-24.3941 25.7657,-62.2058 a 173.83132,173.83132 0 0 0 -34.7834,-10.2467 l -31.7173,31.7174 -31.7343,-31.7341 z m -89.0199,45.8018 a 173.83132,173.83132 0 0 0 -4.1314,4.3705 l 55.3481,51.0992 -51.2167,-55.4697 z m 241.395,0.1216 -51.0993,55.3481 55.4698,-51.2125 a 173.83132,173.83132 0 0 0 -4.3705,-4.1356 z m -358.0638,26.5458 55.9562,55.9562 a 186.58284,186.58284 0 0 1 9.2358,-28.9533 l -65.192,-27.0029 z m 474.8459,0 -65.0999,26.9652 a 186.58284,186.58284 0 0 1 9.173,28.9617 l 55.9269,-55.9269 z m -397.9685,31.8431 a 173.83132,173.83132 0 0 0 -10.2468,34.7876 l 31.7133,31.7132 -31.7301,31.7299 a 173.83132,173.83132 0 0 0 10.3476,34.7373 l 62.1175,-25.7321 24.436,-10.1208 c -4.0431,-9.7015 -6.1367,-20.1041 -6.1614,-30.6143 0,-10.5131 2.0885,-20.9214 6.1196,-30.631 l -24.3942,-10.1041 -62.2015,-25.7657 z m 321.0114,0.034 -62.122,25.7321 -24.4319,10.1209 c 4.0418,9.7017 6.1341,20.1043 6.1573,30.6142 0,10.5131 -2.0884,20.9215 -6.1195,30.6311 l 24.3941,10.1041 62.2059,25.7656 a 173.83132,173.83132 0 0 0 10.2467,-34.7834 l -31.7175,-31.7173 31.7343,-31.7342 a 173.83132,173.83132 0 0 0 -10.3474,-34.733 z m -160.4658,0.3945 c -36.4899,10e-4 -66.07,29.583 -66.069,66.0729 0,36.4899 29.5791,66.0717 66.069,66.0729 36.4914,0 66.074,-29.5814 66.0727,-66.0729 0,-36.4915 -29.5813,-66.074 -66.0727,-66.0729 z m 181.4709,108.4648 a 186.58284,186.58284 0 0 1 -9.2359,28.9491 l 65.1879,27.003 -55.952,-55.9521 z m -362.9671,0.025 -55.9268,55.9269 65.104,-26.9652 a 186.58284,186.58284 0 0 1 -9.1772,-28.9617 z m 111.9587,27.1246 -55.4739,51.2125 a 173.83132,173.83132 0 0 0 4.3704,4.1356 l 51.1035,-55.3481 z m 139.079,0 51.2124,55.4697 a 173.83132,173.83132 0 0 0 4.1357,-4.3704 l -55.3481,-51.0993 z m -38.9273,4.3663 c -9.7016,4.0432 -20.1039,6.1367 -30.6142,6.1614 -10.5133,-0.01 -20.9215,-2.0885 -30.6312,-6.1195 l -10.1041,24.3941 -25.7655,62.2016 a 173.83132,173.83132 0 0 0 34.7833,10.2509 l 31.7175,-31.7173 31.7341,31.7341 a 173.83132,173.83132 0 0 0 34.7329,-10.3474 l -25.732,-62.1219 -10.1208,-24.436 z m -164.8575,55.3732 -103.1797,95.257 12.8848,12.8849 95.1478,-103.0542 a 186.58284,186.58284 0 0 1 -4.8529,-5.0877 z m 268.6122,0.1132 a 186.58284,186.58284 0 0 1 -5.0879,4.8528 l 95.2571,103.1758 12.8848,-12.8849 -103.054,-95.1437 z m -205.7099,42.8406 -27.0031,65.188 55.952,-55.9521 a 186.58284,186.58284 0 0 1 -28.9489,-9.2359 z m 142.7195,0.088 a 186.58284,186.58284 0 0 1 -28.9616,9.173 l 55.9269,55.9269 -26.9653,-65.0999 z"
       id="rect4364-28-3" />
    <path
       inkscape:connector-curvature="0"
       style="fill:#4d0000;fill-opacity:1;stroke:none;stroke-width:0.28222221;stroke-opacity:1"
       d="m -1614.1581,1170.8496 -12.8848,12.8849 103.0542,95.1437 a 186.58284,186.58284 0 0 1 5.0876,-4.8529 l -95.257,-103.1757 z m 126.1941,0 26.9653,65.104 a 186.58284,186.58284 0 0 1 28.9617,-9.1771 l -55.927,-55.9269 z m 196.6879,0 -55.952,55.952 a 186.58284,186.58284 0 0 1 28.9491,9.2359 l 27.0029,-65.1879 z m 126.1943,0 -95.1437,103.0541 a 186.58284,186.58284 0 0 1 4.8526,5.0877 l 103.1759,-95.2569 -12.8848,-12.8849 z m -256.2724,66.6098 a 173.83132,173.83132 0 0 0 -34.733,10.3515 l 25.732,62.1177 10.1209,24.4361 c 9.7015,-4.0433 20.1042,-6.1368 30.6144,-6.1615 10.513,0.01 20.9214,2.0885 30.6308,6.1195 l 10.1042,-24.3941 25.7657,-62.2058 a 173.83132,173.83132 0 0 0 -34.7834,-10.2467 l -31.7173,31.7174 -31.7343,-31.7341 z m -89.0199,45.8018 a 173.83132,173.83132 0 0 0 -4.1314,4.3705 l 55.3481,51.0992 -51.2167,-55.4697 z m 241.395,0.1216 -51.0993,55.3481 55.4698,-51.2125 a 173.83132,173.83132 0 0 0 -4.3705,-4.1356 z m -358.0638,26.5458 55.9562,55.9562 a 186.58284,186.58284 0 0 1 9.2358,-28.9533 l -65.192,-27.0029 z m 474.8459,0 -65.0999,26.9652 a 186.58284,186.58284 0 0 1 9.173,28.9617 l 55.9269,-55.9269 z m -397.9685,31.8431 a 173.83132,173.83132 0 0 0 -10.2468,34.7876 l 31.7133,31.7132 -31.7301,31.7299 a 173.83132,173.83132 0 0 0 10.3476,34.7373 l 62.1175,-25.7321 24.436,-10.1208 c -4.0431,-9.7015 -6.1367,-20.1041 -6.1614,-30.6143 0,-10.5131 2.0885,-20.9214 6.1196,-30.631 l -24.3942,-10.1041 -62.2015,-25.7657 z m 321.0114,0.034 -62.122,25.7321 -24.4319,10.1209 c 4.0418,9.7017 6.1341,20.1043 6.1573,30.6142 0,10.5131 -2.0884,20.9215 -6.1195,30.6311 l 24.3941,10.1041 62.2059,25.7656 a 173.83132,173.83132 0 0 0 10.2467,-34.7834 l -31.7175,-31.7173 31.7343,-31.7342 a 173.83132,173.83132 0 0 0 -10.3474,-34.733 z m -160.4658,0.3945 c -36.4899,0 -66.07,29.583 -66.069,66.0729 0,36.4899 29.5791,66.0717 66.069,66.0729 36.4914,0 66.074,-29.5814 66.0727,-66.0729 0,-36.4915 -29.5813,-66.074 -66.0727,-66.0729 z m 181.4709,108.4648 a 186.58284,186.58284 0 0 1 -9.2359,28.9491 l 65.1879,27.003 -55.952,-55.9521 z m -362.9671,0.025 -55.9268,55.9269 65.104,-26.9652 a 186.58284,186.58284 0 0 1 -9.1772,-28.9617 z m 111.9587,27.1246 -55.4739,51.2125 a 173.83132,173.83132 0 0 0 4.3704,4.1356 l 51.1035,-55.3481 z m 139.079,0 51.2124,55.4697 a 173.83132,173.83132 0 0 0 4.1357,-4.3704 l -55.3481,-51.0993 z m -38.9273,4.3663 c -9.7016,4.0432 -20.1039,6.1367 -30.6142,6.1614 -10.5133,-0.01 -20.9215,-2.0885 -30.6312,-6.1195 l -10.1041,24.3941 -25.7655,62.2016 a 173.83132,173.83132 0 0 0 34.7833,10.2509 l 31.7175,-31.7173 31.7341,31.7341 a 173.83132,173.83132 0 0 0 34.7329,-10.3474 l -25.732,-62.1219 -10.1208,-24.436 z m -164.8575,55.3732 -103.1797,95.257 12.8848,12.8849 95.1478,-103.0542 a 186.58284,186.58284 0 0 1 -4.8529,-5.0877 z m 268.6122,0.1132 a 186.58284,186.58284 0 0 1 -5.0879,4.8528 l 95.2571,103.1758 12.8848,-12.8849 -103.054,-95.1437 z m -205.7099,42.8406 -27.0031,65.188 55.952,-55.9521 a 186.58284,186.58284 0 0 1 -28.9489,-9.2359 z m 142.7195,0.088 a 186.58284,186.58284 0 0 1 -28.9616,9.173 l 55.9269,55.9269 -26.9653,-65.0999 z"
       id="rect4364-28-3-5" />
    <path
       inkscape:connector-curvature="0"
       style="fill:#4d0000;fill-opacity:1;stroke:none;stroke-width:0.28222221;stroke-opacity:1"
       d="m -1614.1588,1645.6965 -12.8848,12.8849 103.0542,95.1437 a 186.58284,186.58284 0 0 1 5.0876,-4.8529 l -95.257,-103.1757 z m 126.1941,0 26.9653,65.104 a 186.58284,186.58284 0 0 1 28.9617,-9.1771 l -55.927,-55.9269 z m 196.6879,0 -55.952,55.952 a 186.58284,186.58284 0 0 1 28.9491,9.2359 l 27.0029,-65.1879 z m 126.1943,0 -95.1437,103.0541 a 186.58284,186.58284 0 0 1 4.8526,5.0877 l 103.1759,-95.2569 -12.8848,-12.8849 z m -256.2724,66.6098 a 173.83132,173.83132 0 0 0 -34.733,10.3515 l 25.732,62.1177 10.1209,24.4361 c 9.7015,-4.0433 20.1042,-6.1368 30.6144,-6.1615 10.513,0.01 20.9214,2.0885 30.6308,6.1195 l 10.1042,-24.3941 25.7657,-62.2058 a 173.83132,173.83132 0 0 0 -34.7834,-10.2467 l -31.7173,31.7174 -31.7343,-31.7341 z m -89.0199,45.8018 a 173.83132,173.83132 0 0 0 -4.1314,4.3705 l 55.3481,51.0992 -51.2167,-55.4697 z m 241.395,0.1216 -51.0993,55.3481 55.4698,-51.2125 a 173.83132,173.83132 0 0 0 -4.3705,-4.1356 z m -358.0638,26.5458 55.9562,55.9562 a 186.58284,186.58284 0 0 1 9.2358,-28.9533 l -65.192,-27.0029 z m 474.8459,0 -65.0999,26.9652 a 186.58284,186.58284 0 0 1 9.173,28.9617 l 55.9269,-55.9269 z m -397.9685,31.8431 a 173.83132,173.83132 0 0 0 -10.2468,34.7876 l 31.7133,31.7132 -31.7301,31.7299 a 173.83132,173.83132 0 0 0 10.3476,34.7373 l 62.1175,-25.7321 24.436,-10.1208 c -4.0431,-9.7015 -6.1367,-20.1041 -6.1614,-30.6143 0,-10.5131 2.0885,-20.9214 6.1196,-30.631 l -24.3942,-10.1041 -62.2015,-25.7657 z m 321.0114,0.034 -62.122,25.7321 -24.4319,10.1209 c 4.0418,9.7017 6.1341,20.1043 6.1573,30.6142 0,10.5131 -2.0884,20.9215 -6.1195,30.6311 l 24.3941,10.1041 62.2059,25.7656 a 173.83132,173.83132 0 0 0 10.2467,-34.7834 l -31.7175,-31.7173 31.7343,-31.7342 a 173.83132,173.83132 0 0 0 -10.3474,-34.733 z m -160.4658,0.3945 c -36.4899,0 -66.07,29.583 -66.069,66.0729 0,36.4899 29.5791,66.0717 66.069,66.0729 36.4914,0 66.074,-29.5814 66.0727,-66.0729 0,-36.4915 -29.5813,-66.074 -66.0727,-66.0729 z m 181.4709,108.4648 a 186.58284,186.58284 0 0 1 -9.2359,28.9491 l 65.1879,27.003 -55.952,-55.9521 z m -362.9671,0.025 -55.9268,55.9269 65.104,-26.9652 a 186.58284,186.58284 0 0 1 -9.1772,-28.9617 z m 111.9587,27.1246 -55.4739,51.2125 a 173.83132,173.83132 0 0 0 4.3704,4.1356 l 51.1035,-55.3481 z m 139.079,0 51.2124,55.4697 a 173.83132,173.83132 0 0 0 4.1357,-4.3704 l -55.3481,-51.0993 z m -38.9273,4.3663 c -9.7016,4.0432 -20.1039,6.1367 -30.6142,6.1614 -10.5133,-0.01 -20.9215,-2.0885 -30.6312,-6.1195 l -10.1041,24.3941 -25.7655,62.2016 a 173.83132,173.83132 0 0 0 34.7833,10.2509 l 31.7175,-31.7173 31.7341,31.7341 a 173.83132,173.83132 0 0 0 34.7329,-10.3474 l -25.732,-62.1219 -10.1208,-24.436 z m -164.8575,55.3732 -103.1797,95.257 12.8848,12.8849 95.1478,-103.0542 a 186.58284,186.58284 0 0 1 -4.8529,-5.0877 z m 268.6122,0.1132 a 186.58284,186.58284 0 0 1 -5.0879,4.8528 l 95.2571,103.1758 12.8848,-12.8849 -103.054,-95.1437 z m -205.7099,42.8406 -27.0031,65.188 55.952,-55.9521 a 186.58284,186.58284 0 0 1 -28.9489,-9.2359 z m 142.7195,0.088 a 186.58284,186.58284 0 0 1 -28.9616,9.173 l 55.9269,55.9269 -26.9653,-65.0999 z"
       id="rect4364-28-3-5-2" />
    <path
       inkscape:connector-curvature="0"
       style="fill:#4d0000;fill-opacity:1;stroke:none;stroke-width:0.28222221;stroke-opacity:1"
       d="m -2088.9757,1645.6959 -12.8848,12.8849 103.0542,95.1437 a 186.58284,186.58284 0 0 1 5.0876,-4.8529 l -95.257,-103.1757 z m 126.1941,0 26.9653,65.104 a 186.58284,186.58284 0 0 1 28.9617,-9.1771 l -55.927,-55.9269 z m 196.6879,0 -55.952,55.952 a 186.58284,186.58284 0 0 1 28.9491,9.2359 l 27.0029,-65.1879 z m 126.1943,0 -95.1437,103.0541 a 186.58284,186.58284 0 0 1 4.8526,5.0877 l 103.1759,-95.2569 -12.8848,-12.8849 z m -256.2724,66.6098 a 173.83132,173.83132 0 0 0 -34.733,10.3515 l 25.732,62.1177 10.1209,24.4361 c 9.7015,-4.0433 20.1042,-6.1368 30.6144,-6.1615 10.513,0.01 20.9214,2.0885 30.6308,6.1195 l 10.1042,-24.3941 25.7657,-62.2058 a 173.83132,173.83132 0 0 0 -34.7834,-10.2467 l -31.7173,31.7174 -31.7343,-31.7341 z m -89.0199,45.8018 a 173.83132,173.83132 0 0 0 -4.1314,4.3705 l 55.3481,51.0992 -51.2167,-55.4697 z m 241.395,0.1216 -51.0993,55.3481 55.4698,-51.2125 a 173.83132,173.83132 0 0 0 -4.3705,-4.1356 z m -358.0638,26.5458 55.9562,55.9562 a 186.58284,186.58284 0 0 1 9.2358,-28.9533 l -65.192,-27.0029 z m 474.8459,0 -65.0999,26.9652 a 186.58284,186.58284 0 0 1 9.173,28.9617 l 55.9269,-55.9269 z m -397.9685,31.8431 a 173.83132,173.83132 0 0 0 -10.2468,34.7876 l 31.7133,31.7132 -31.7301,31.7299 a 173.83132,173.83132 0 0 0 10.3476,34.7373 l 62.1175,-25.7321 24.436,-10.1208 c -4.0431,-9.7015 -6.1367,-20.1041 -6.1614,-30.6143 0,-10.5131 2.0885,-20.9214 6.1196,-30.631 l -24.3942,-10.1041 -62.2015,-25.7657 z m 321.0114,0.034 -62.122,25.7321 -24.4319,10.1209 c 4.0418,9.7017 6.1341,20.1043 6.1573,30.6142 0,10.5131 -2.0884,20.9215 -6.1195,30.6311 l 24.3941,10.1041 62.2059,25.7656 a 173.83132,173.83132 0 0 0 10.2467,-34.7834 l -31.7175,-31.7173 31.7343,-31.7342 a 173.83132,173.83132 0 0 0 -10.3474,-34.733 z m -160.4658,0.3945 c -36.4899,0 -66.07,29.583 -66.069,66.0729 0,36.4899 29.5791,66.0717 66.069,66.0729 36.4914,0 66.074,-29.5814 66.0727,-66.0729 0,-36.4915 -29.5813,-66.074 -66.0727,-66.0729 z m 181.4709,108.4648 a 186.58284,186.58284 0 0 1 -9.2359,28.9491 l 65.1879,27.003 -55.952,-55.9521 z m -362.9671,0.025 -55.9268,55.9269 65.104,-26.9652 a 186.58284,186.58284 0 0 1 -9.1772,-28.9617 z m 111.9587,27.1246 -55.4739,51.2125 a 173.83132,173.83132 0 0 0 4.3704,4.1356 l 51.1035,-55.3481 z m 139.079,0 51.2124,55.4697 a 173.83132,173.83132 0 0 0 4.1357,-4.3704 l -55.3481,-51.0993 z m -38.9273,4.3663 c -9.7016,4.0432 -20.1039,6.1367 -30.6142,6.1614 -10.5133,-0.01 -20.9215,-2.0885 -30.6312,-6.1195 l -10.1041,24.3941 -25.7655,62.2016 a 173.83132,173.83132 0 0 0 34.7833,10.2509 l 31.7175,-31.7173 31.7341,31.7341 a 173.83132,173.83132 0 0 0 34.7329,-10.3474 l -25.732,-62.1219 -10.1208,-24.436 z m -164.8575,55.3732 -103.1797,95.257 12.8848,12.8849 95.1478,-103.0542 a 186.58284,186.58284 0 0 1 -4.8529,-5.0877 z m 268.6122,0.1132 a 186.58284,186.58284 0 0 1 -5.0879,4.8528 l 95.2571,103.1758 12.8848,-12.8849 -103.054,-95.1437 z m -205.7099,42.8406 -27.0031,65.188 55.952,-55.9521 a 186.58284,186.58284 0 0 1 -28.9489,-9.2359 z m 142.7195,0.088 a 186.58284,186.58284 0 0 1 -28.9616,9.173 l 55.9269,55.9269 -26.9653,-65.0999 z"
       id="rect4364-28-3-5-5" />
    <path
       inkscape:connector-curvature="0"
       style="fill:#4d0000;fill-opacity:1;stroke:none;stroke-width:0.28222221;stroke-opacity:1"
       d="m -2088.9753,1170.8504 -12.8848,12.8849 103.0542,95.1437 a 186.58284,186.58284 0 0 1 5.0876,-4.8529 l -95.257,-103.1757 z m 126.1941,0 26.9653,65.104 a 186.58284,186.58284 0 0 1 28.9617,-9.1771 l -55.927,-55.9269 z m 196.6879,0 -55.952,55.952 a 186.58284,186.58284 0 0 1 28.9491,9.2359 l 27.0029,-65.1879 z m 126.1943,0 -95.1437,103.0541 a 186.58284,186.58284 0 0 1 4.8526,5.0877 l 103.1759,-95.2569 -12.8848,-12.8849 z m -256.2724,66.6098 a 173.83132,173.83132 0 0 0 -34.733,10.3515 l 25.732,62.1177 10.1209,24.4361 c 9.7015,-4.0433 20.1042,-6.1368 30.6144,-6.1615 10.513,0.01 20.9214,2.0885 30.6308,6.1195 l 10.1042,-24.3941 25.7657,-62.2058 a 173.83132,173.83132 0 0 0 -34.7834,-10.2467 l -31.7173,31.7174 -31.7343,-31.7341 z m -89.0199,45.8018 a 173.83132,173.83132 0 0 0 -4.1314,4.3705 l 55.3481,51.0992 -51.2167,-55.4697 z m 241.395,0.1216 -51.0993,55.3481 55.4698,-51.2125 a 173.83132,173.83132 0 0 0 -4.3705,-4.1356 z m -358.0638,26.5458 55.9562,55.9562 a 186.58284,186.58284 0 0 1 9.2358,-28.9533 l -65.192,-27.0029 z m 474.8459,0 -65.0999,26.9652 a 186.58284,186.58284 0 0 1 9.173,28.9617 l 55.9269,-55.9269 z m -397.9685,31.8431 a 173.83132,173.83132 0 0 0 -10.2468,34.7876 l 31.7133,31.7132 -31.7301,31.7299 a 173.83132,173.83132 0 0 0 10.3476,34.7373 l 62.1175,-25.7321 24.436,-10.1208 c -4.0431,-9.7015 -6.1367,-20.1041 -6.1614,-30.6143 0,-10.5131 2.0885,-20.9214 6.1196,-30.631 l -24.3942,-10.1041 -62.2015,-25.7657 z m 321.0114,0.034 -62.122,25.7321 -24.4319,10.1209 c 4.0418,9.7017 6.1341,20.1043 6.1573,30.6142 0,10.5131 -2.0884,20.9215 -6.1195,30.6311 l 24.3941,10.1041 62.2059,25.7656 a 173.83132,173.83132 0 0 0 10.2467,-34.7834 l -31.7175,-31.7173 31.7343,-31.7342 a 173.83132,173.83132 0 0 0 -10.3474,-34.733 z m -160.4658,0.3945 c -36.4899,0 -66.07,29.583 -66.069,66.0729 0,36.4899 29.5791,66.0717 66.069,66.0729 36.4914,0 66.074,-29.5814 66.0727,-66.0729 0,-36.4915 -29.5813,-66.074 -66.0727,-66.0729 z m 181.4709,108.4648 a 186.58284,186.58284 0 0 1 -9.2359,28.9491 l 65.1879,27.003 -55.952,-55.9521 z m -362.9671,0.025 -55.9268,55.9269 65.104,-26.9652 a 186.58284,186.58284 0 0 1 -9.1772,-28.9617 z m 111.9587,27.1246 -55.4739,51.2125 a 173.83132,173.83132 0 0 0 4.3704,4.1356 l 51.1035,-55.3481 z m 139.079,0 51.2124,55.4697 a 173.83132,173.83132 0 0 0 4.1357,-4.3704 l -55.3481,-51.0993 z m -38.9273,4.3663 c -9.7016,4.0432 -20.1039,6.1367 -30.6142,6.1614 -10.5133,-0.01 -20.9215,-2.0885 -30.6312,-6.1195 l -10.1041,24.3941 -25.7655,62.2016 a 173.83132,173.83132 0 0 0 34.7833,10.2509 l 31.7175,-31.7173 31.7341,31.7341 a 173.83132,173.83132 0 0 0 34.7329,-10.3474 l -25.732,-62.1219 -10.1208,-24.436 z m -164.8575,55.3732 -103.1797,95.257 12.8848,12.8849 95.1478,-103.0542 a 186.58284,186.58284 0 0 1 -4.8529,-5.0877 z m 268.6122,0.1132 a 186.58284,186.58284 0 0 1 -5.0879,4.8528 l 95.2571,103.1758 12.8848,-12.8849 -103.054,-95.1437 z m -205.7099,42.8406 -27.0031,65.188 55.952,-55.9521 a 186.58284,186.58284 0 0 1 -28.9489,-9.2359 z m 142.7195,0.088 a 186.58284,186.58284 0 0 1 -28.9616,9.173 l 55.9269,55.9269 -26.9653,-65.0999 z"
       id="rect4364-28-3-5-4" />
    <path
       inkscape:connector-curvature="0"
       style="fill:#4d0000;fill-opacity:1;stroke:none;stroke-width:0.28222221;stroke-opacity:1"
       d="m -657.87064,1171.4852 -12.8848,12.8849 103.0542,95.1437 a 186.58284,186.58284 0 0 1 5.0876,-4.8529 l -95.257,-103.1757 z m 126.1941,0 26.9653,65.104 a 186.58284,186.58284 0 0 1 28.9617,-9.1771 l -55.927,-55.9269 z m 196.6879,0 -55.952,55.952 a 186.58284,186.58284 0 0 1 28.9491,9.2359 l 27.0029,-65.1879 z m 126.1943,0 -95.1437,103.0541 a 186.58284,186.58284 0 0 1 4.8526,5.0877 l 103.1759,-95.2569 -12.8848,-12.8849 z m -256.2724,66.6098 a 173.83132,173.83132 0 0 0 -34.733,10.3515 l 25.732,62.1177 10.1209,24.4361 c 9.7015,-4.0433 20.1042,-6.1368 30.6144,-6.1615 10.513,0.01 20.9214,2.0885 30.6308,6.1195 l 10.1042,-24.3941 25.7657,-62.2058 a 173.83132,173.83132 0 0 0 -34.7834,-10.2467 l -31.7173,31.7174 -31.7343,-31.7341 z m -89.0199,45.8018 a 173.83132,173.83132 0 0 0 -4.1314,4.3705 l 55.3481,51.0992 -51.2167,-55.4697 z m 241.395,0.1216 -51.0993,55.3481 55.4698,-51.2125 a 173.83132,173.83132 0 0 0 -4.3705,-4.1356 z m -358.0638,26.5458 55.9562,55.9562 a 186.58284,186.58284 0 0 1 9.2358,-28.9533 l -65.192,-27.0029 z m 474.8459,0 -65.0999,26.9652 a 186.58284,186.58284 0 0 1 9.173,28.9617 l 55.9269,-55.9269 z m -397.9685,31.8431 a 173.83132,173.83132 0 0 0 -10.2468,34.7876 l 31.7133,31.7132 -31.7301,31.7299 a 173.83132,173.83132 0 0 0 10.3476,34.7373 l 62.1175,-25.7321 24.436,-10.1208 c -4.0431,-9.7015 -6.1367,-20.1041 -6.1614,-30.6143 0,-10.5131 2.0885,-20.9214 6.1196,-30.631 l -24.3942,-10.1041 -62.2015,-25.7657 z m 321.0114,0.034 -62.122,25.7321 -24.4319,10.1209 c 4.0418,9.7017 6.1341,20.1043 6.1573,30.6142 0,10.5131 -2.0884,20.9215 -6.1195,30.6311 l 24.3941,10.1041 62.2059,25.7656 a 173.83132,173.83132 0 0 0 10.2467,-34.7834 l -31.7175,-31.7173 31.7343,-31.7342 a 173.83132,173.83132 0 0 0 -10.3474,-34.733 z m -160.4658,0.3945 c -36.4899,0 -66.07,29.583 -66.069,66.0729 0,36.4899 29.5791,66.0717 66.069,66.0729 36.4914,0 66.074,-29.5814 66.0727,-66.0729 0,-36.4915 -29.5813,-66.074 -66.0727,-66.0729 z m 181.4709,108.4648 a 186.58284,186.58284 0 0 1 -9.2359,28.9491 l 65.1879,27.003 -55.952,-55.9521 z m -362.9671,0.025 -55.9268,55.9269 65.104,-26.9652 a 186.58284,186.58284 0 0 1 -9.1772,-28.9617 z m 111.9587,27.1246 -55.4739,51.2125 a 173.83132,173.83132 0 0 0 4.3704,4.1356 l 51.1035,-55.3481 z m 139.079,0 51.2124,55.4697 a 173.83132,173.83132 0 0 0 4.1357,-4.3704 l -55.3481,-51.0993 z m -38.9273,4.3663 c -9.7016,4.0432 -20.1039,6.1367 -30.6142,6.1614 -10.5133,-0.01 -20.9215,-2.0885 -30.6312,-6.1195 l -10.1041,24.3941 -25.7655,62.2016 a 173.83132,173.83132 0 0 0 34.7833,10.2509 l 31.7175,-31.7173 31.7341,31.7341 a 173.83132,173.83132 0 0 0 34.7329,-10.3474 l -25.732,-62.1219 -10.1208,-24.436 z m -164.8575,55.3732 -103.1797,95.257 12.8848,12.8849 95.1478,-103.0542 a 186.58284,186.58284 0 0 1 -4.8529,-5.0877 z m 268.6122,0.1132 a 186.58284,186.58284 0 0 1 -5.0879,4.8528 l 95.2571,103.1758 12.8848,-12.8849 -103.054,-95.1437 z m -205.7099,42.8406 -27.0031,65.188 55.952,-55.9521 a 186.58284,186.58284 0 0 1 -28.9489,-9.2359 z m 142.7195,0.088 a 186.58284,186.58284 0 0 1 -28.9616,9.173 l 55.9269,55.9269 -26.9653,-65.0999 z"
       id="rect4364-28-3-5-7" />
    <path
       inkscape:connector-curvature="0"
       style="fill:#4d0000;fill-opacity:1;stroke:none;stroke-width:0.28222221;stroke-opacity:1"
       d="m -657.87134,1646.3321 -12.8848,12.8849 103.0542,95.1437 a 186.58284,186.58284 0 0 1 5.0876,-4.8529 l -95.257,-103.1757 z m 126.1941,0 26.9653,65.104 a 186.58284,186.58284 0 0 1 28.9617,-9.1771 l -55.927,-55.9269 z m 196.6879,0 -55.952,55.952 a 186.58284,186.58284 0 0 1 28.9491,9.2359 l 27.0029,-65.1879 z m 126.1943,0 -95.1437,103.0541 a 186.58284,186.58284 0 0 1 4.8526,5.0877 l 103.1759,-95.2569 -12.8848,-12.8849 z m -256.2724,66.6098 a 173.83132,173.83132 0 0 0 -34.733,10.3515 l 25.732,62.1177 10.1209,24.4361 c 9.7015,-4.0433 20.1042,-6.1368 30.6144,-6.1615 10.513,0.01 20.9214,2.0885 30.6308,6.1195 l 10.1042,-24.3941 25.7657,-62.2058 a 173.83132,173.83132 0 0 0 -34.7834,-10.2467 l -31.7173,31.7174 -31.7343,-31.7341 z m -89.0199,45.8018 a 173.83132,173.83132 0 0 0 -4.1314,4.3705 l 55.3481,51.0992 -51.2167,-55.4697 z m 241.395,0.1216 -51.0993,55.3481 55.4698,-51.2125 a 173.83132,173.83132 0 0 0 -4.3705,-4.1356 z m -358.0638,26.5458 55.9562,55.9562 a 186.58284,186.58284 0 0 1 9.2358,-28.9533 l -65.192,-27.0029 z m 474.8459,0 -65.0999,26.9652 a 186.58284,186.58284 0 0 1 9.173,28.9617 l 55.9269,-55.9269 z m -397.9685,31.8431 a 173.83132,173.83132 0 0 0 -10.2468,34.7876 l 31.7133,31.7132 -31.7301,31.7299 a 173.83132,173.83132 0 0 0 10.3476,34.7373 l 62.1175,-25.7321 24.436,-10.1208 c -4.0431,-9.7015 -6.1367,-20.1041 -6.1614,-30.6143 0,-10.5131 2.0885,-20.9214 6.1196,-30.631 l -24.3942,-10.1041 -62.2015,-25.7657 z m 321.0114,0.034 -62.122,25.7321 -24.4319,10.1209 c 4.0418,9.7017 6.1341,20.1043 6.1573,30.6142 0,10.5131 -2.0884,20.9215 -6.1195,30.6311 l 24.3941,10.1041 62.2059,25.7656 a 173.83132,173.83132 0 0 0 10.2467,-34.7834 l -31.7175,-31.7173 31.7343,-31.7342 a 173.83132,173.83132 0 0 0 -10.3474,-34.733 z m -160.4658,0.3945 c -36.4899,0 -66.07,29.583 -66.069,66.0729 0,36.4899 29.5791,66.0717 66.069,66.0729 36.4914,0 66.074,-29.5814 66.0727,-66.0729 0,-36.4915 -29.5813,-66.074 -66.0727,-66.0729 z m 181.4709,108.4648 a 186.58284,186.58284 0 0 1 -9.2359,28.9491 l 65.1879,27.003 -55.952,-55.9521 z m -362.9671,0.025 -55.9268,55.9269 65.104,-26.9652 a 186.58284,186.58284 0 0 1 -9.1772,-28.9617 z m 111.9587,27.1246 -55.4739,51.2125 a 173.83132,173.83132 0 0 0 4.3704,4.1356 l 51.1035,-55.3481 z m 139.079,0 51.2124,55.4697 a 173.83132,173.83132 0 0 0 4.1357,-4.3704 l -55.3481,-51.0993 z m -38.9273,4.3663 c -9.7016,4.0432 -20.1039,6.1367 -30.6142,6.1614 -10.5133,-0.01 -20.9215,-2.0885 -30.6312,-6.1195 l -10.1041,24.3941 -25.7655,62.2016 a 173.83132,173.83132 0 0 0 34.7833,10.2509 l 31.7175,-31.7173 31.7341,31.7341 a 173.83132,173.83132 0 0 0 34.7329,-10.3474 l -25.732,-62.1219 -10.1208,-24.436 z m -164.8575,55.3732 -103.1797,95.257 12.8848,12.8849 95.1478,-103.0542 a 186.58284,186.58284 0 0 1 -4.8529,-5.0877 z m 268.6122,0.1132 a 186.58284,186.58284 0 0 1 -5.0879,4.8528 l 95.2571,103.1758 12.8848,-12.8849 -103.054,-95.1437 z m -205.7099,42.8406 -27.0031,65.188 55.952,-55.9521 a 186.58284,186.58284 0 0 1 -28.9489,-9.2359 z m 142.7195,0.088 a 186.58284,186.58284 0 0 1 -28.9616,9.173 l 55.9269,55.9269 -26.9653,-65.0999 z"
       id="rect4364-28-3-5-2-4" />
    <path
       inkscape:connector-curvature="0"
       style="fill:#4d0000;fill-opacity:1;stroke:none;stroke-width:0.28222221;stroke-opacity:1"
       d="m -1132.6882,1646.3315 -12.8848,12.8849 103.0542,95.1437 a 186.58284,186.58284 0 0 1 5.0876,-4.8529 l -95.257,-103.1757 z m 126.1941,0 26.96526,65.104 a 186.58284,186.58284 0 0 1 28.9617,-9.1771 l -55.92696,-55.9269 z m 196.68786,0 -55.952,55.952 a 186.58284,186.58284 0 0 1 28.9491,9.2359 l 27.0029,-65.1879 z m 126.1943,0 -95.1437,103.0541 a 186.58284,186.58284 0 0 1 4.8526,5.0877 l 103.1759,-95.2569 -12.8848,-12.8849 z m -256.2724,66.6098 a 173.83132,173.83132 0 0 0 -34.733,10.3515 l 25.732,62.1177 10.1209,24.4361 c 9.7015,-4.0433 20.1042,-6.1368 30.6144,-6.1615 10.513,0.01 20.9214,2.0885 30.6308,6.1195 l 10.1042,-24.3941 25.7657,-62.2058 a 173.83132,173.83132 0 0 0 -34.7834,-10.2467 l -31.7173,31.7174 -31.7343,-31.7341 z m -89.01986,45.8018 a 173.83132,173.83132 0 0 0 -4.1314,4.3705 l 55.34806,51.0992 -51.21666,-55.4697 z m 241.39496,0.1216 -51.0993,55.3481 55.4698,-51.2125 a 173.83132,173.83132 0 0 0 -4.3705,-4.1356 z m -358.06376,26.5458 55.9562,55.9562 a 186.58284,186.58284 0 0 1 9.2358,-28.9533 l -65.192,-27.0029 z m 474.84586,0 -65.0999,26.9652 a 186.58284,186.58284 0 0 1 9.173,28.9617 l 55.9269,-55.9269 z m -397.96846,31.8431 a 173.83132,173.83132 0 0 0 -10.2468,34.7876 l 31.7133,31.7132 -31.7301,31.7299 a 173.83132,173.83132 0 0 0 10.3476,34.7373 l 62.1175,-25.7321 24.43596,-10.1208 c -4.0431,-9.7015 -6.1367,-20.1041 -6.1614,-30.6143 0,-10.5131 2.0885,-20.9214 6.1196,-30.631 l -24.39416,-10.1041 -62.2015,-25.7657 z m 321.01136,0.034 -62.122,25.7321 -24.4319,10.1209 c 4.0418,9.7017 6.1341,20.1043 6.1573,30.6142 0,10.5131 -2.0884,20.9215 -6.1195,30.6311 l 24.3941,10.1041 62.2059,25.7656 a 173.83132,173.83132 0 0 0 10.2467,-34.7834 l -31.7175,-31.7173 31.7343,-31.7342 a 173.83132,173.83132 0 0 0 -10.3474,-34.733 z m -160.4658,0.3945 c -36.4899,0 -66.07,29.583 -66.069,66.0729 0,36.4899 29.5791,66.0717 66.069,66.0729 36.4914,0 66.074,-29.5814 66.0727,-66.0729 0,-36.4915 -29.5813,-66.074 -66.0727,-66.0729 z m 181.4709,108.4648 a 186.58284,186.58284 0 0 1 -9.2359,28.9491 l 65.1879,27.003 -55.952,-55.9521 z m -362.96706,0.025 -55.9268,55.9269 65.104,-26.9652 a 186.58284,186.58284 0 0 1 -9.1772,-28.9617 z m 111.95866,27.1246 -55.47386,51.2125 a 173.83132,173.83132 0 0 0 4.3704,4.1356 l 51.10346,-55.3481 z m 139.079,0 51.2124,55.4697 a 173.83132,173.83132 0 0 0 4.1357,-4.3704 l -55.3481,-51.0993 z m -38.9273,4.3663 c -9.7016,4.0432 -20.1039,6.1367 -30.6142,6.1614 -10.5133,-0.01 -20.9215,-2.0885 -30.6312,-6.1195 l -10.1041,24.3941 -25.7655,62.2016 a 173.83132,173.83132 0 0 0 34.7833,10.2509 l 31.7175,-31.7173 31.7341,31.7341 a 173.83132,173.83132 0 0 0 34.7329,-10.3474 l -25.732,-62.1219 -10.1208,-24.436 z m -164.85746,55.3732 -103.1797,95.257 12.8848,12.8849 95.1478,-103.0542 a 186.58284,186.58284 0 0 1 -4.8529,-5.0877 z m 268.61216,0.1132 a 186.58284,186.58284 0 0 1 -5.0879,4.8528 l 95.2571,103.1758 12.8848,-12.8849 -103.054,-95.1437 z m -205.7099,42.8406 -27.00306,65.188 55.95196,-55.9521 a 186.58284,186.58284 0 0 1 -28.9489,-9.2359 z m 142.7195,0.088 a 186.58284,186.58284 0 0 1 -28.9616,9.173 l 55.9269,55.9269 -26.9653,-65.0999 z"
       id="rect4364-28-3-5-5-4" />
    <path
       inkscape:connector-curvature="0"
       style="fill:#4d0000;fill-opacity:1;stroke:none;stroke-width:0.28222221;stroke-opacity:1"
       d="m -1132.6878,1171.486 -12.8848,12.8849 103.0542,95.1437 a 186.58284,186.58284 0 0 1 5.0876,-4.8529 l -95.257,-103.1757 z m 126.1941,0 26.96526,65.104 a 186.58284,186.58284 0 0 1 28.9617,-9.1771 l -55.92696,-55.9269 z m 196.68786,0 -55.952,55.952 a 186.58284,186.58284 0 0 1 28.9491,9.2359 l 27.0029,-65.1879 z m 126.1943,0 -95.1437,103.0541 a 186.58284,186.58284 0 0 1 4.8526,5.0877 l 103.1759,-95.2569 -12.8848,-12.8849 z m -256.2724,66.6098 a 173.83132,173.83132 0 0 0 -34.733,10.3515 l 25.732,62.1177 10.1209,24.4361 c 9.7015,-4.0433 20.1042,-6.1368 30.6144,-6.1615 10.513,0.01 20.9214,2.0885 30.6308,6.1195 l 10.1042,-24.3941 25.7657,-62.2058 a 173.83132,173.83132 0 0 0 -34.7834,-10.2467 l -31.7173,31.7174 -31.7343,-31.7341 z m -89.01986,45.8018 a 173.83132,173.83132 0 0 0 -4.1314,4.3705 l 55.34806,51.0992 -51.21666,-55.4697 z m 241.39496,0.1216 -51.0993,55.3481 55.4698,-51.2125 a 173.83132,173.83132 0 0 0 -4.3705,-4.1356 z m -358.06376,26.5458 55.9562,55.9562 a 186.58284,186.58284 0 0 1 9.2358,-28.9533 l -65.192,-27.0029 z m 474.84586,0 -65.0999,26.9652 a 186.58284,186.58284 0 0 1 9.173,28.9617 l 55.9269,-55.9269 z m -397.96846,31.8431 a 173.83132,173.83132 0 0 0 -10.2468,34.7876 l 31.7133,31.7132 -31.7301,31.7299 a 173.83132,173.83132 0 0 0 10.3476,34.7373 l 62.1175,-25.7321 24.43596,-10.1208 c -4.0431,-9.7015 -6.1367,-20.1041 -6.1614,-30.6143 0,-10.5131 2.0885,-20.9214 6.1196,-30.631 l -24.39416,-10.1041 -62.2015,-25.7657 z m 321.01136,0.034 -62.122,25.7321 -24.4319,10.1209 c 4.0418,9.7017 6.1341,20.1043 6.1573,30.6142 0,10.5131 -2.0884,20.9215 -6.1195,30.6311 l 24.3941,10.1041 62.2059,25.7656 a 173.83132,173.83132 0 0 0 10.2467,-34.7834 l -31.7175,-31.7173 31.7343,-31.7342 a 173.83132,173.83132 0 0 0 -10.3474,-34.733 z m -160.4658,0.3945 c -36.4899,0 -66.07,29.583 -66.069,66.0729 0,36.4899 29.5791,66.0717 66.069,66.0729 36.4914,0 66.074,-29.5814 66.0727,-66.0729 0,-36.4915 -29.5813,-66.074 -66.0727,-66.0729 z m 181.4709,108.4648 a 186.58284,186.58284 0 0 1 -9.2359,28.9491 l 65.1879,27.003 -55.952,-55.9521 z m -362.96706,0.025 -55.9268,55.9269 65.104,-26.9652 a 186.58284,186.58284 0 0 1 -9.1772,-28.9617 z m 111.95866,27.1246 -55.47386,51.2125 a 173.83132,173.83132 0 0 0 4.3704,4.1356 l 51.10346,-55.3481 z m 139.079,0 51.2124,55.4697 a 173.83132,173.83132 0 0 0 4.1357,-4.3704 l -55.3481,-51.0993 z m -38.9273,4.3663 c -9.7016,4.0432 -20.1039,6.1367 -30.6142,6.1614 -10.5133,-0.01 -20.9215,-2.0885 -30.6312,-6.1195 l -10.1041,24.3941 -25.7655,62.2016 a 173.83132,173.83132 0 0 0 34.7833,10.2509 l 31.7175,-31.7173 31.7341,31.7341 a 173.83132,173.83132 0 0 0 34.7329,-10.3474 l -25.732,-62.1219 -10.1208,-24.436 z m -164.85746,55.3732 -103.1797,95.257 12.8848,12.8849 95.1478,-103.0542 a 186.58284,186.58284 0 0 1 -4.8529,-5.0877 z m 268.61216,0.1132 a 186.58284,186.58284 0 0 1 -5.0879,4.8528 l 95.2571,103.1758 12.8848,-12.8849 -103.054,-95.1437 z m -205.7099,42.8406 -27.00306,65.188 55.95196,-55.9521 a 186.58284,186.58284 0 0 1 -28.9489,-9.2359 z m 142.7195,0.088 a 186.58284,186.58284 0 0 1 -28.9616,9.173 l 55.9269,55.9269 -26.9653,-65.0999 z"
       id="rect4364-28-3-5-4-3" />
    <text
       xml:space="preserve"
       style="font-style:normal;font-weight:normal;font-size:40px;line-height:125%;font-family:sans-serif;letter-spacing:0px;word-spacing:0px;fill:#000000;fill-opacity:1;stroke:none;stroke-width:1px;stroke-linecap:butt;stroke-linejoin:miter;stroke-opacity:1"
       x="-3734.2856"
       y="-536.20923"
       id="text6314"
       sodipodi:linespacing="125%"><tspan
         sodipodi:role="line"
         id="tspan6316"
         x="-3734.2856"
         y="-536.20923">Machteld</tspan></text>
  </g>
</svg>
