<?xml version="1.0" encoding="UTF-8" standalone="no"?>
<!-- Created with Inkscape (http://www.inkscape.org/) -->

<svg
   xmlns:dc="http://purl.org/dc/elements/1.1/"
   xmlns:cc="http://creativecommons.org/ns#"
   xmlns:rdf="http://www.w3.org/1999/02/22-rdf-syntax-ns#"
   xmlns:svg="http://www.w3.org/2000/svg"
   xmlns="http://www.w3.org/2000/svg"
   xmlns:sodipodi="http://sodipodi.sourceforge.net/DTD/sodipodi-0.dtd"
   xmlns:inkscape="http://www.inkscape.org/namespaces/inkscape"
   width="297mm"
   height="210mm"
   viewBox="0 0 297 210"
   id="svg3352"
   version="1.1"
   inkscape:version="0.91 r13725"
   sodipodi:docname="ster.svg">
  <defs
     id="defs3354" />
  <sodipodi:namedview
     inkscape:document-units="mm"
     pagecolor="#ffffff"
     bordercolor="#666666"
     borderopacity="1.0"
     inkscape:pageopacity="0.0"
     inkscape:pageshadow="2"
     inkscape:zoom="2.4559706"
     inkscape:cx="628.01035"
     inkscape:cy="465.14584"
     inkscape:current-layer="layer2"
     id="namedview3356"
     showgrid="false"
     inkscape:snap-object-midpoints="true"
     inkscape:snap-intersection-paths="true"
     inkscape:object-nodes="true"
     showguides="true"
     inkscape:snap-center="true"
     inkscape:window-width="2560"
     inkscape:window-height="1381"
     inkscape:window-x="0"
     inkscape:window-y="0"
     inkscape:window-maximized="1">
    <sodipodi:guide
       position="95.308041,102.70701"
       orientation="-221.11754,91.589917"
       id="guide4303" />
    <sodipodi:guide
       position="121.15675,165.11129"
       orientation="3.5433071e-05,-91.589878"
       id="guide4305" />
    <sodipodi:guide
       position="95.308052,165.11128"
       orientation="221.1175,91.589842"
       id="guide4307" />
    <sodipodi:guide
       position="121.15674,102.70701"
       orientation="0,-91.589881"
       id="guide4309" />
    <sodipodi:guide
       position="77.030259,146.83351"
       orientation="91.58991,221.11753"
       id="guide4311" />
    <sodipodi:guide
       position="139.43454,120.9848"
       orientation="-91.589871,-3.5433071e-05"
       id="guide4313" />
    <sodipodi:guide
       position="139.43453,146.8335"
       orientation="91.58986,-221.1175"
       id="guide4315" />
    <sodipodi:guide
       position="77.030259,120.98481"
       orientation="-91.589899,0"
       id="guide4317" />
    <sodipodi:guide
       position="77.030259,165.11131"
       orientation="221.1176,0"
       id="guide4319" />
    <sodipodi:guide
       position="77.030259,102.70701"
       orientation="0,221.11753"
       id="guide4321" />
    <sodipodi:guide
       position="139.43454,102.70701"
       orientation="-221.1176,0"
       id="guide4323" />
    <sodipodi:guide
       position="139.43454,165.11131"
       orientation="0,-221.11753"
       id="guide4325" />
    <sodipodi:guide
       position="140.02488,100.42335"
       orientation="-225.30104,-225.30102"
       id="guide4327" />
    <sodipodi:guide
       position="140.02488,103.80999"
       orientation="-225.30113,-225.30102"
       id="guide4329" />
    <sodipodi:guide
       position="76.439916,100.42336"
       orientation="-225.30097,225.30109"
       id="guide4331" />
    <sodipodi:guide
       position="76.439916,103.81"
       orientation="-225.30105,225.30109"
       id="guide4333" />
    <sodipodi:guide
       position="76.439916,102.11668"
       orientation="-225.30101,225.30109"
       id="guide4335" />
    <sodipodi:guide
       position="140.02488,102.11667"
       orientation="-225.30108,-225.30102"
       id="guide4337" />
    <sodipodi:guide
       position="121.15675,102.70702"
       orientation="-156.3537,-156.3537"
       id="guide4339" />
    <sodipodi:guide
       position="77.030261,146.83351"
       orientation="3.5433071e-05,156.3537"
       id="guide4341" />
    <sodipodi:guide
       position="121.15675,146.8335"
       orientation="156.35367,5.6843419e-14"
       id="guide4343" />
    <sodipodi:guide
       position="77.030257,120.98481"
       orientation="-156.3537,156.35372"
       id="guide4345" />
    <sodipodi:guide
       position="121.15675,165.1113"
       orientation="156.3537,0"
       id="guide4347" />
    <sodipodi:guide
       position="121.15675,120.98481"
       orientation="0,-156.35372"
       id="guide4349" />
    <sodipodi:guide
       position="139.43453,146.8335"
       orientation="156.3537,-156.35368"
       id="guide4351" />
    <sodipodi:guide
       position="95.308048,102.70701"
       orientation="-156.3537,1.0629921e-05"
       id="guide4353" />
    <sodipodi:guide
       position="95.308051,146.8335"
       orientation="0,156.35367"
       id="guide4355" />
    <sodipodi:guide
       position="95.308051,165.11129"
       orientation="156.35368,156.3537"
       id="guide4357" />
    <sodipodi:guide
       position="139.43454,120.9848"
       orientation="-1.0629921e-05,-156.3537"
       id="guide4359" />
    <sodipodi:guide
       position="95.308051,120.98481"
       orientation="-156.35367,-5.6843419e-14"
       id="guide4361" />
  </sodipodi:namedview>
  <metadata
     id="metadata3358">
    <rdf:RDF>
      <cc:Work
         rdf:about="">
        <dc:format>image/svg+xml</dc:format>
        <dc:type
           rdf:resource="http://purl.org/dc/dcmitype/StillImage" />
        <dc:title></dc:title>
      </cc:Work>
    </rdf:RDF>
  </metadata>
  <g
     inkscape:label="hulplijnen"
     inkscape:groupmode="layer"
     id="layer1"
     sodipodi:insensitive="true" />
  <g
     inkscape:groupmode="layer"
     id="layer2"
     inkscape:label="tekening">
    <rect
       style="fill:#bf4e66;fill-opacity:0.4;stroke:none;stroke-width:0.28222221;stroke-opacity:1"
       id="rect4364"
       width="62.404243"
       height="62.404263"
       x="77.030296"
       y="44.888729" />
    <path
       style="fill:#002eff;fill-opacity:1;fill-rule:evenodd;stroke:none;stroke-width:0.28222221px;stroke-linecap:butt;stroke-linejoin:miter;stroke-opacity:1"
       d="M 272.94141 159.05469 L 272.94141 165.05469 L 278.94141 159.05469 L 272.94141 159.05469 z M 278.94141 159.05469 L 323.29883 207.09961 A 86.884323 86.884323 0 0 0 320.92969 209.35938 L 272.94141 165.05469 L 272.94141 223.81836 L 303.29883 236.39258 A 86.884323 86.884323 0 0 0 298.99805 249.875 L 272.94141 223.81836 L 272.94141 315.4082 L 298.98438 289.36523 A 86.884323 86.884323 0 0 0 303.25781 302.85156 L 272.94141 315.4082 L 272.94141 374.17188 L 320.98828 329.81445 A 86.884323 86.884323 0 0 0 323.24805 332.18359 L 278.94141 380.17188 L 337.70508 380.17188 L 350.2793 349.81641 A 86.884323 86.884323 0 0 0 363.75977 354.11719 L 337.70508 380.17188 L 429.29492 380.17188 L 403.25195 354.12891 A 86.884323 86.884323 0 0 0 416.73828 349.85742 L 429.29492 380.17188 L 488.05859 380.17188 L 443.70117 332.12695 A 86.884323 86.884323 0 0 0 446.07031 329.86719 L 494.05859 374.17188 L 494.05859 315.4082 L 463.70312 302.83398 A 86.884323 86.884323 0 0 0 468.00391 289.35352 L 494.05859 315.4082 L 494.05859 223.81836 L 468.01562 249.86133 A 86.884323 86.884323 0 0 0 463.74414 236.375 L 494.05859 223.81836 L 494.05859 165.05469 L 446.01367 209.41211 A 86.884323 86.884323 0 0 0 443.75391 207.04297 L 488.05859 159.05469 L 429.29492 159.05469 L 416.7207 189.41016 A 86.884323 86.884323 0 0 0 403.24023 185.10938 L 429.29492 159.05469 L 337.70508 159.05469 L 363.74805 185.09766 A 86.884323 86.884323 0 0 0 350.26172 189.37109 L 337.70508 159.05469 L 278.94141 159.05469 z M 488.05859 159.05469 L 494.05859 165.05469 L 494.05859 159.05469 L 488.05859 159.05469 z M 494.05859 374.17188 L 488.05859 380.17188 L 494.05859 380.17188 L 494.05859 374.17188 z M 278.94141 380.17188 L 272.94141 374.17188 L 272.94141 380.17188 L 278.94141 380.17188 z M 368.72266 190.07227 L 383.5 204.84961 L 398.26953 190.08008 A 80.946441 80.946441 0 0 1 414.4668 194.85156 L 402.46875 223.81836 L 397.76367 235.17773 C 393.2423 233.30065 388.39553 232.33236 383.5 232.32812 C 378.60579 232.33962 373.76173 233.3145 369.24414 235.19727 L 364.53125 223.81836 L 352.54883 194.89258 A 80.946441 80.946441 0 0 1 368.72266 190.07227 z M 327.26953 211.40039 L 351.11914 237.23047 L 325.3457 213.43555 A 80.946441 80.946441 0 0 1 327.26953 211.40039 z M 439.67773 211.45703 A 80.946441 80.946441 0 0 1 441.71289 213.38281 L 415.88281 237.23047 L 439.67773 211.45703 z M 308.74023 238.64648 L 337.70508 250.64453 L 349.06445 255.34961 C 347.18737 259.87098 346.21908 264.71775 346.21484 269.61328 C 346.22634 274.50749 347.20122 279.35155 349.08398 283.86914 L 337.70508 288.58203 L 308.7793 300.56445 A 80.946441 80.946441 0 0 1 303.96094 284.38867 L 318.73633 269.61328 L 303.96875 254.8457 A 80.946441 80.946441 0 0 1 308.74023 238.64648 z M 458.22266 238.66211 A 80.946441 80.946441 0 0 1 463.04102 254.83594 L 448.26367 269.61328 L 463.0332 284.38281 A 80.946441 80.946441 0 0 1 458.26172 300.58008 L 429.29492 288.58203 L 417.93555 283.87695 C 419.81263 279.35558 420.78092 274.50881 420.78516 269.61328 C 420.77436 264.7192 419.80007 259.87514 417.91797 255.35742 L 429.29492 250.64453 L 458.22266 238.66211 z M 383.5 238.8457 C 400.49268 238.84519 414.26809 252.6206 414.26758 269.61328 C 414.26809 286.60596 400.49268 300.38137 383.5 300.38086 C 366.50809 300.38029 352.73387 286.60519 352.73438 269.61328 C 352.73387 252.62137 366.50809 238.84627 383.5 238.8457 z M 351.11914 301.99609 L 327.32227 327.76953 A 80.946441 80.946441 0 0 1 325.28711 325.84375 L 351.11914 301.99609 z M 415.88281 301.99609 L 441.65625 325.79102 A 80.946441 80.946441 0 0 1 439.73047 327.82617 L 415.88281 301.99609 z M 397.75586 304.0293 L 402.46875 315.4082 L 414.45117 344.33594 A 80.946441 80.946441 0 0 1 398.27734 349.1543 L 383.5 334.37695 L 368.73047 349.14648 A 80.946441 80.946441 0 0 1 352.5332 344.37305 L 364.53125 315.4082 L 369.23633 304.04883 C 373.7577 305.92591 378.60447 306.8942 383.5 306.89844 C 388.39421 306.88694 393.23827 305.91206 397.75586 304.0293 z "
       transform="scale(0.28222222,0.28222222)"
       id="path4370" />
    <path
       inkscape:connector-curvature="0"
       style="fill:#bf4e66;fill-opacity:0.4;stroke:none;stroke-width:0.28222221;stroke-opacity:1"
       d="m 163.77441,35.042115 -1.69333,1.693333 13.54336,12.503768 a 24.520687,24.520687 0 0 1 0.66862,-0.637757 L 163.77441,35.042115 Z m 16.58442,0 3.54376,8.555961 a 24.520687,24.520687 0 0 1 3.80614,-1.206057 l -7.3499,-7.349904 z m 25.84869,0 -7.35322,7.353212 a 24.520687,24.520687 0 0 1 3.80449,1.213776 l 3.54873,-8.566988 z m 16.58441,0 -12.50376,13.543359 a 24.520687,24.520687 0 0 1 0.63775,0.668624 l 13.55934,-12.51865 -1.69333,-1.693333 z m -33.67925,8.75385 a 22.844884,22.844884 0 0 0 -4.56462,1.360399 l 3.38171,8.163498 1.33008,3.211381 c 1.27497,-0.531359 2.64207,-0.806492 4.02332,-0.809738 1.38163,0.0011 2.7495,0.27447 4.02553,0.804224 l 1.32788,-3.205867 3.38611,-8.175075 a 22.844884,22.844884 0 0 0 -4.57123,-1.346618 l -4.16829,4.16829 -4.17049,-4.170494 z m -11.699,6.01927 a 22.844884,22.844884 0 0 0 -0.54294,0.574367 l 7.27383,6.715455 -6.73089,-7.289822 z m 31.7241,0.01597 -6.71546,7.273837 7.28982,-6.730339 a 22.844884,22.844884 0 0 0 -0.57436,-0.543494 z m -47.0567,3.488646 7.35376,7.353763 a 24.520687,24.520687 0 0 1 1.21378,-3.805039 l -8.56754,-3.548724 z m 62.40418,0 -8.55541,3.543763 a 24.520687,24.520687 0 0 1 1.20551,3.806142 l 7.3499,-7.349905 z m -52.30096,4.184825 a 22.844884,22.844884 0 0 0 -1.34661,4.57178 l 4.16774,4.167739 -4.16995,4.169943 a 22.844884,22.844884 0 0 0 1.35985,4.565165 l 8.1635,-3.381705 3.21138,-1.330083 c -0.53136,-1.274964 -0.80649,-2.642065 -0.80974,-4.02332 0.001,-1.381628 0.27447,-2.749494 0.80423,-4.025525 l -3.20587,-1.327878 -8.17453,-3.386116 z m 42.18727,0.0044 -8.16405,3.381706 -3.21083,1.330082 c 0.53117,1.275001 0.80614,2.642102 0.80918,4.02332 -0.001,1.381628 -0.27447,2.749494 -0.80422,4.025525 l 3.20587,1.327878 8.17507,3.386117 a 22.844884,22.844884 0 0 0 1.34662,-4.57123 l -4.16829,-4.16829 4.1705,-4.170493 a 22.844884,22.844884 0 0 0 -1.35985,-4.564615 z m -21.0884,0.05183 c -4.79549,1.61e-4 -8.68288,3.887801 -8.68274,8.683295 -1.4e-4,4.795495 3.88725,8.683134 8.68274,8.683295 4.79571,1.44e-4 8.68344,-3.887583 8.6833,-8.683295 1.4e-4,-4.795712 -3.88759,-8.683439 -8.6833,-8.683295 z m 23.84888,14.25443 a 24.520687,24.520687 0 0 1 -1.21377,3.804485 l 8.56698,3.548724 -7.35321,-7.353209 z m -47.70106,0.0033 -7.34991,7.349904 8.55596,-3.543762 a 24.520687,24.520687 0 0 1 -1.20605,-3.806142 z m 14.71358,3.564709 -7.29037,6.73034 a 22.844884,22.844884 0 0 0 0.57437,0.543498 l 6.716,-7.273838 z m 18.27775,0 6.73034,7.289823 a 22.844884,22.844884 0 0 0 0.5435,-0.574365 l -7.27384,-6.715458 z m -5.11583,0.573817 c -1.27496,0.531357 -2.64206,0.80649 -4.02332,0.809735 -1.38162,-0.0011 -2.74949,-0.274469 -4.02552,-0.804223 l -1.32788,3.205866 -3.38612,8.174525 a 22.844884,22.844884 0 0 0 4.57123,1.347168 l 4.16829,-4.168287 4.1705,4.170497 a 22.844884,22.844884 0 0 0 4.56461,-1.359849 l -3.3817,-8.164051 -1.33009,-3.211378 z m -21.66551,7.277142 -13.5599,12.518653 1.69333,1.693333 12.50432,-13.543362 a 24.520687,24.520687 0 0 1 -0.63775,-0.668624 z m 35.30092,0.01487 a 24.520687,24.520687 0 0 1 -0.66862,0.637754 l 12.51865,13.559351 1.69333,-1.693333 -13.54336,-12.503768 z m -27.03435,5.630113 -3.54872,8.566988 7.35321,-7.353213 a 24.520687,24.520687 0 0 1 -3.80449,-1.213775 z m 18.7562,0.01157 a 24.520687,24.520687 0 0 1 -3.80614,1.205509 l 7.34991,7.349905 -3.54377,-8.555414 z"
       id="rect4364-4" />
  </g>
</svg>
