<?xml version="1.0" encoding="UTF-8" standalone="no"?>
<!-- Created with Inkscape (http://www.inkscape.org/) -->

<svg
   xmlns:dc="http://purl.org/dc/elements/1.1/"
   xmlns:cc="http://creativecommons.org/ns#"
   xmlns:rdf="http://www.w3.org/1999/02/22-rdf-syntax-ns#"
   xmlns:svg="http://www.w3.org/2000/svg"
   xmlns="http://www.w3.org/2000/svg"
   xmlns:sodipodi="http://sodipodi.sourceforge.net/DTD/sodipodi-0.dtd"
   xmlns:inkscape="http://www.inkscape.org/namespaces/inkscape"
   version="1.1"
   id="svg2"
   xml:space="preserve"
   width="426.02536mm"
   height="326.02502mm"
   viewBox="0 0 1610.1745 1232.2205"
   sodipodi:docname="DekselMidden.svg"
   inkscape:version="0.91 r13725"><metadata
     id="metadata8"><rdf:RDF><cc:Work
         rdf:about=""><dc:format>image/svg+xml</dc:format><dc:type
           rdf:resource="http://purl.org/dc/dcmitype/StillImage" /><dc:title></dc:title></cc:Work></rdf:RDF></metadata><defs
     id="defs6" /><sodipodi:namedview
     pagecolor="#ffffff"
     bordercolor="#666666"
     borderopacity="1"
     objecttolerance="10"
     gridtolerance="10"
     guidetolerance="10"
     inkscape:pageopacity="0"
     inkscape:pageshadow="2"
     inkscape:window-width="2560"
     inkscape:window-height="1381"
     id="namedview4"
     showgrid="false"
     units="mm"
     inkscape:zoom="0.6728065"
     inkscape:cx="280.95086"
     inkscape:cy="658.39975"
     inkscape:window-x="0"
     inkscape:window-y="0"
     inkscape:window-maximized="1"
     inkscape:current-layer="g10"
     fit-margin-top="10"
     fit-margin-left="10"
     fit-margin-right="10"
     fit-margin-bottom="10" /><g
     id="g10"
     inkscape:groupmode="layer"
     inkscape:label="box-20170423_015345_480414"
     transform="matrix(1.3333333,0,0,-1.3333333,-2961.4735,2007.0622)"><path
       style="display:inline;fill:none;fill-opacity:1;fill-rule:nonzero;stroke:#ff0000;stroke-width:0.07086615;stroke-linecap:butt;stroke-linejoin:round;stroke-miterlimit:4;stroke-dasharray:none;stroke-dashoffset:0;stroke-opacity:1"
       d="m 2249.487,1476.9148 0,-867.40165 1150.8672,0 0,867.40165 z m 575.572,-297.9704 c 19.7104,-0.2821 36.1176,-3.3065 49.2176,-9.0703 13.14,-5.7639 25.3928,-8.7263 36.7592,-8.8875 l -1.3296,-3.325 c -24.668,0.081 -43.432,2.8619 -56.2896,8.3437 -12.8576,5.4818 -23.7592,8.1838 -32.7072,8.1032 -8.0216,-0.1613 -14.5512,-1.8345 -19.5896,-5.0188 -4.9984,-3.1439 -8.6064,-8.3225 -10.8232,-15.5375 -2.1352,-8.8272 -0.7248,-15.3584 4.2328,-19.5906 4.9576,-4.2322 9.552,-5.723 13.784,-4.4734 l -0.484,-3.2048 c -11.6088,-1.7332 -20.1344,-0.1599 -25.5752,4.7172 -5.4416,4.8772 -7.3344,11.6672 -5.6824,20.3735 1.6936,8.7064 6.4696,15.4581 14.3296,20.2546 7.9,4.8367 19.284,7.2749 34.1576,7.3157 z m 262.1128,-8.0922 c 0.5552,0 1.1152,2e-4 1.6792,-0.01 l -1.0296,-3.0219 c -9.8752,-1.2494 -17.148,-8.8903 -21.8248,-22.9172 l -10.3392,-34.6421 c 7.86,5.1996 15.62,7.82 23.2784,7.8608 5.7232,0 10.1784,-2.2177 13.3624,-6.6515 3.184,-4.3935 3.3248,-10.5801 0.4232,-18.5609 l -4.656,-13.9079 c -1.2096,-4.6353 -0.6048,-6.9531 1.8136,-6.9531 1.1688,0 3.5864,1.1096 7.2552,3.3266 l 0.908,-1.814 c -7.0144,-6.5701 -13.7456,-9.8548 -20.1944,-9.8548 -5.2808,0 -8.0024,2.256 -8.1624,6.7704 0,4.3532 2.2976,13.5846 6.892,27.6921 1.2096,8.2227 -2.0952,11.8105 -9.9152,10.7626 -5.4408,-0.6047 -10.136,-3.7099 -14.0856,-9.3126 l -11.0656,-35.9125 -16.8688,0 25.3936,82.8313 c 3.4264,9.3916 8.4848,15.8211 15.176,19.2875 6.3096,3.2874 13.6312,4.9625 21.96,5.0265 z m 177.8744,0 c 0.556,0 1.1152,2e-4 1.6784,-0.01 l -1.0264,-3.0219 c -9.8744,-1.2494 -17.1496,-8.8903 -21.8248,-22.9172 l -19.652,-65.9016 c -1.2096,-4.6353 -0.4008,-6.9531 2.4208,-6.9531 1.1688,0 3.384,1.1096 6.648,3.3266 l 0.908,-1.814 c -7.0128,-6.5701 -13.5416,-9.8548 -19.588,-9.8548 -5.28,0 -8.0016,2.256 -8.1624,6.7704 0,7.2956 7.1536,32.6501 21.4632,76.0609 3.4256,9.3916 8.4848,15.8211 15.176,19.2875 6.3112,3.2874 13.6296,4.9625 21.9592,5.0265 z m 72.9688,0 c 0.4592,0 0.9216,2e-4 1.3848,-0.01 l -1.0264,-3.022 c -7.0536,-1.2495 -12.7784,-8.7871 -17.172,-22.6124 l -22.4904,-66.2063 c -1.2096,-4.6353 -0.6072,-6.9531 1.812,-6.9531 1.1688,0 3.588,1.1096 7.256,3.3266 l 0.9064,-1.8141 c -7.0128,-6.5701 -14.348,-9.8547 -22.0064,-9.8547 -3.668,0 -5.988,2.2558 -6.9544,6.7703 -7.256,-5.2803 -14.892,-8.041 -22.9144,-8.2828 -6.1256,0 -10.48,1.4906 -13.0592,4.4734 -2.58,3.0231 -3.8688,6.6506 -3.8688,10.8828 0,11.4473 6.2272,21.5059 18.6816,30.1719 8.3856,5.7855 19.024,9.4502 31.9,11.011 l -1.9488,-5.2234 c -5.4832,-1.5809 -10.3736,-4.0448 -14.6512,-7.422 -9.1088,-7.1745 -13.8248,-15.4758 -14.1472,-24.9077 -0.5648,-7.6583 2.4768,-11.2463 9.128,-10.7626 3.4664,0.4031 7.196,2.2162 11.1864,5.4407 0.604,3.547 4.856,16.4459 12.756,38.6953 -0.016,0 -0.024,-0.01 -0.04,-0.01 l 1.6656,4.6047 c 0,2e-4 0,-10e-5 0,0 l 0.8144,2.2625 3.1856,8.8063 -0.01,0.022 5.8656,16.2984 c 2.8216,8.7063 7.5152,14.9723 14.0856,18.8016 6.1968,3.5898 12.7496,5.4282 19.656,5.5108 z m -968.1512,-15.0609 c 0.6664,-0.01 1.3368,-0.03 2.0112,-0.062 9.2712,-0.9271 13.9456,-4.6339 14.0264,-11.1235 0,-4.595 -1.6944,-8.2636 -5.08,-11.0046 -3.3456,-2.7006 -7.3552,-3.3849 -12.0312,-2.0547 4.3936,2.1361 6.772,5.8622 7.1344,11.1828 0.484,6.046 -1.7304,9.1307 -6.648,9.2516 -5.804,-0.2015 -11.1456,-2.2971 -16.0224,-6.2875 -4.8368,-3.9501 -7.4592,-9.7144 -7.8624,-17.2922 0,-3.8694 1.272,-7.0731 3.8112,-9.6125 3.2648,0.5239 6.6304,0.7256 10.0968,0.6047 l -1.5128,-3.025 c -6.7312,0 -13.32,-3.0022 -19.7688,-9.0078 -6.4496,-6.0059 -9.6744,-13.7052 -9.6744,-23.0969 0,-4.3129 1.068,-7.4944 3.204,-9.55 2.1768,-2.0557 5.664,-3.0844 10.46,-3.0844 8.9888,0.041 18.5208,4.1315 28.5984,12.2734 l 1.5104,-1.8156 c -1.8944,-3.3858 -6.5504,-7.4356 -13.9672,-12.1515 -7.4152,-4.6756 -15.7184,-7.0342 -24.9088,-7.075 -6.6096,0 -12.0928,1.6352 -16.4456,4.9 -4.3528,3.3052 -6.5296,8.282 -6.5296,14.9328 0.4832,10.2784 5.724,19.0653 15.72,26.3609 3.104,2.2571 6.3688,4.0907 9.7952,5.5016 -4.1112,2.7408 -6.1672,6.6098 -6.1672,11.6078 0.4032,8.9885 4.8368,16.2833 13.3016,21.8859 7.9728,5.2903 16.9568,7.8722 26.9488,7.7422 z m 309.4216,-0.6813 c 0.6672,-0.01 1.336,-0.028 2.0112,-0.061 9.2696,-0.927 13.9456,-4.6355 14.0264,-11.125 0,-4.595 -1.692,-8.2639 -5.0784,-11.0047 -3.3448,-2.7005 -7.356,-3.3848 -12.0312,-2.0546 4.3928,2.1363 6.7704,5.8637 7.1344,11.1843 0.4832,6.046 -1.7344,9.1307 -6.6512,9.2516 -5.8048,-0.2015 -11.144,-2.2986 -16.0216,-6.289 -4.8368,-3.9501 -7.4576,-9.713 -7.86,-17.2907 0,-3.8695 1.268,-7.0747 3.8064,-9.6141 3.2648,0.524 6.632,0.7256 10.1,0.6048 l -1.512,-3.0235 c -6.7312,0 -13.3224,-3.002 -19.772,-9.0078 -6.448,-6.0057 -9.672,-13.7053 -9.672,-23.0969 0,-4.3129 1.068,-7.4958 3.2032,-9.5515 2.1768,-2.0557 5.664,-3.0844 10.4608,-3.0844 3.4056,0.015 6.8912,0.6135 10.4528,1.7921 l 13.2096,44.7016 16.9296,0 -1.9952,-7.8593 c 7.8592,5.1996 15.62,7.8185 23.2784,7.8593 5.724,0 10.1768,-2.2162 13.3608,-6.65 3.1848,-4.3934 3.324,-10.5802 0.4216,-18.5609 l -4.6528,-13.9063 c -1.2096,-4.6352 -0.6048,-6.9531 1.8136,-6.9531 1.1696,0 3.5864,1.1081 7.2552,3.325 l 0.9072,-1.814 c -7.0144,-6.5701 -13.744,-9.8547 -20.1936,-9.8547 -5.28,0 -8.0016,2.2574 -8.1624,6.7718 0,4.3532 2.2968,13.583 6.892,27.6906 1.2088,8.2227 -2.0952,11.8106 -9.9152,10.7625 -5.4416,-0.6045 -10.1368,-3.7081 -14.0872,-9.3109 l -5.4048,-17.5344 c -1.8944,-3.3858 -6.5496,-7.4355 -13.9656,-12.1515 -7.4168,-4.6757 -15.7216,-7.0342 -24.9112,-7.075 -6.6104,0 -12.092,1.6336 -16.4456,4.8984 -4.3536,3.3052 -6.5296,8.2821 -6.5296,14.9329 0.484,10.2782 5.7248,19.0652 15.7208,26.3608 3.1032,2.2572 6.368,4.0909 9.7936,5.5016 -4.1104,2.7409 -6.1672,6.6113 -6.1672,11.6094 0.4032,8.9885 4.8376,16.2832 13.3016,21.8859 7.9736,5.2903 16.9568,7.8706 26.9496,7.7407 z m 227.9624,-0.5813 c 0.3192,0.01 0.6352,3e-4 0.9472,-0.01 l -1.028,-3.0218 c -5.8448,-1.2495 -11.104,-8.8888 -15.78,-22.9156 l -14.572,-49.5782 c -1.2096,-4.6353 -0.4016,-6.9531 2.4192,-6.9531 1.1688,0 3.3848,1.1096 6.6496,3.3266 l 0.9064,-1.8141 c -7.0136,-6.57 -13.5416,-9.8547 -19.5872,-9.8547 -5.2808,0 -8.0016,2.2559 -8.1624,6.7703 0,7.2955 5.4584,27.2081 16.3824,59.736 3.4264,9.3915 8.4872,15.8209 15.1784,19.2874 6.3096,3.2875 11.8592,4.9626 16.6464,5.0266 z m -321.3416,-0.1312 16.5656,0 -9.6736,-31.9219 5.2576,0 -0.7232,-3.5078 -5.6216,0 -12.0944,-39.964 c -1.208,-4.6353 -0.4024,-6.9532 2.4192,-6.9532 1.1688,0 3.3856,1.1096 6.6512,3.3266 l 0.9048,-1.8141 c -7.0136,-6.57 -13.5392,-9.8546 -19.5856,-9.8546 -5.2808,0 -8.0008,2.2558 -8.1624,6.7702 0,5.2803 4.212,21.443 12.6352,48.4891 l -4.2328,0 0.6656,3.5078 4.6552,0 z m 232.6248,0 23.2168,0 -20.1328,-66.6859 c -3.4264,-8.5854 -9.0496,-14.915 -16.8688,-18.986 -7.78,-4.0306 -15.0944,-5.8437 -21.9464,-5.4406 -9.7944,-0.1209 -16.8488,1.8937 -21.1624,6.0453 -4.3128,4.1919 -5.7224,9.0894 -4.2312,14.6922 1.8536,7.0537 5.7632,12.1736 11.728,15.3578 6.0064,3.1843 12.6352,4.5131 19.8904,3.9891 l 1.0904,-3.2641 c -4.5144,0.7659 -8.8872,-0.3215 -13.12,-3.264 -4.192,-2.9424 -6.9952,-7.4178 -8.4064,-13.4235 -1.1688,-4.6756 -0.2384,-8.4031 2.7848,-11.1844 3.0632,-2.7812 7.1936,-4.1532 12.3936,-4.1124 9.9152,0.5644 17.2104,7.6383 21.8856,21.2218 l 18.0784,61.125 -6.4096,0 z m 35.2496,0 16.5656,0 -13.0592,-43.4688 5.2592,0 -0.7264,-3.5077 -5.6216,0 -13.544,-43.8344 -17.2904,0 13.6032,43.8344 -4.2312,0 0.664,3.5077 4.6544,0 z m 274.7944,0 16.5656,0 -9.6736,-31.9219 5.2576,0 -0.7232,-3.5078 -5.624,0 -12.0904,-39.964 c -1.2096,-4.6353 -0.404,-6.9532 2.4176,-6.9532 1.1696,0 3.384,1.1096 6.6496,3.3266 l 0.908,-1.8141 c -7.0144,-6.57 -13.5424,-9.8546 -19.5888,-9.8546 -5.28,0 -8.0008,2.2558 -8.1624,6.7702 0,5.2803 4.2112,21.443 12.6352,48.4891 l -4.2312,0 0.664,3.5078 4.6568,0 z m -699.0536,-34.8 c 2.8688,-0.041 5.4016,-0.9551 7.5936,-2.7437 3.5472,-2.8216 5.1376,-7.1953 4.7752,-13.1204 -0.4032,-8.7467 -5.1776,-17.6162 -14.328,-26.6047 -9.1488,-8.9481 -18.4208,-13.4202 -27.8112,-13.4202 -7.6992,0 -13.3016,2.3369 -16.8088,7.0125 -3.5064,4.6756 -4.4544,10.5621 -2.8424,17.6562 l 9.5528,29.7453 16.8096,0 -10.4608,-33.0719 c -1.9752,-9.4722 1.0672,-14.4093 9.1296,-14.8124 4.7968,0.2015 8.968,2.6002 12.5152,7.1952 3.5472,4.5951 6.288,11.9312 8.224,22.0079 0.9672,8.0211 0.3416,14.4491 -1.8752,19.2859 1.9648,0.6046 3.8056,0.8951 5.5264,0.8703 z m 58.3208,-0.025 c 5.804,0 11.0608,-1.0669 15.7776,-3.2031 4.756,-2.1363 7.1344,-6.1877 7.1344,-12.1531 -0.7656,-6.2476 -4.0688,-10.7816 -9.9136,-13.6031 -5.8048,-2.8215 -11.7296,-4.2514 -17.7752,-4.2922 -6.248,0 -11.3656,0.8668 -15.356,2.6 l 0.7248,2.6 c 6.892,-1.4107 12.8984,-1.1282 18.0168,0.8469 5.16,2.0153 8.1416,5.7414 8.9472,11.1828 0,2.7813 -0.784,5.0402 -2.356,6.7734 -1.572,1.7333 -3.8504,2.6 -6.8328,2.6 -4.5552,-0.04 -9.432,-3.2059 -14.632,-9.4937 -5.1592,-6.2476 -7.9016,-13.6837 -8.2232,-22.3094 -0.3224,-7.1747 4.7368,-10.761 15.1768,-10.761 6.6912,0.4032 12.8376,3.0211 18.4408,7.8579 l 1.7512,-2.0547 c -8.224,-9.1095 -18.5592,-13.7863 -31.0136,-14.0281 -10.1576,0 -16.7296,1.3922 -19.7128,4.1734 -2.9816,2.8215 -4.4736,6.5507 -4.4736,11.1859 0,11.4472 4.6168,21.401 13.8472,29.8656 8.3832,7.6582 18.5416,11.7288 30.472,12.2125 z m 525.1344,0 c 4.5144,-0.04 7.8792,-0.8246 10.0968,-2.3562 2.2568,-1.5317 3.4248,-3.9511 3.5056,-7.2563 -0.4024,-2.9425 -1.652,-5.2998 -3.748,-7.0734 -2.0952,-1.7332 -5.0576,-2.7207 -8.8872,-2.9625 -2.9416,0 -4.5552,0.7065 -4.8376,2.1172 2.7816,1.6527 4.1712,4.1719 4.1712,7.5578 0,2.2169 -1.2088,3.325 -3.628,3.325 -4.9576,-0.04 -10.036,-3.2059 -15.236,-9.4937 -5.1592,-6.2476 -7.9008,-13.4836 -8.2232,-21.7063 0.081,-7.5777 4.736,-11.3641 13.9656,-11.3641 5.0784,0.4032 10.8224,2.8194 17.2312,7.2532 l 1.7568,-2.0547 c -9.432,-8.7063 -20.1752,-13.1816 -32.2272,-13.4234 -7.7384,0 -13.1,1.3922 -16.0824,4.1734 -2.9824,2.8215 -4.4752,6.5507 -4.4752,11.1859 0,11.4472 4.6184,21.401 13.8488,29.8656 8.464,7.7388 19.3864,11.8094 32.7688,12.2125 z m 168.6824,0 c 5.804,0 11.0672,-1.0669 15.7832,-3.2031 4.7568,-2.1363 7.1344,-6.1877 7.1344,-12.1531 -0.7656,-6.2476 -4.0728,-10.7816 -9.9176,-13.6031 -5.8048,-2.8215 -11.728,-4.2514 -17.7736,-4.2922 -6.248,0 -11.3696,0.8668 -15.3592,2.6 l 0.7264,2.6 c 6.8928,-1.4107 12.8984,-1.1282 18.0176,0.8469 5.1592,2.0153 8.1432,5.7414 8.948,11.1828 0,2.7813 -0.788,5.0402 -2.3592,6.7734 -1.572,1.7333 -3.8472,2.6 -6.8296,2.6 -4.5552,-0.04 -9.4328,-3.2059 -14.6328,-9.4937 -5.1592,-6.2476 -7.8992,-13.6837 -8.2216,-22.3094 -0.3216,-7.1747 4.736,-10.761 15.176,-10.761 6.6912,0.4032 12.836,3.0211 18.4392,7.8579 l 1.7544,-2.0547 c -8.2232,-9.1095 -18.564,-13.7863 -31.0184,-14.0281 -10.1576,0 -16.7264,1.3922 -19.7096,4.1734 -2.9824,2.8215 -4.4728,6.5507 -4.4728,11.1859 0,11.4472 4.6128,21.401 13.8432,29.8656 8.384,7.6582 18.5408,11.7288 30.472,12.2125 z m -222.172,-0.023 c 1.3656,-0.014 2.7504,-0.045 4.1536,-0.095 l -1.816,-3.9296 c -14.4296,0.8464 -26.1976,-2.3191 -35.3064,-9.4938 -9.0704,-7.1343 -13.7656,-15.4165 -14.0888,-24.8484 -0.16,-7.6582 2.8808,-11.2462 9.128,-10.7626 3.4664,0.4032 7.1976,2.2162 11.1872,5.4407 0.8872,5.3205 5.0784,17.1303 12.5752,35.4297 l 16.8064,0 -10.7,-32.286 c -1.2096,-4.6352 -0.6032,-6.9531 1.8144,-6.9531 1.1696,0 3.5872,1.1097 7.2544,3.3266 l 0.908,-1.8125 c -7.0144,-6.5701 -14.3488,-9.8562 -22.008,-9.8562 -3.6672,0 -5.984,2.2558 -6.9512,6.7702 -7.2552,-5.2802 -14.896,-8.0409 -22.9176,-8.2828 -6.1264,0 -10.4784,1.4907 -13.0576,4.4734 -2.58,3.0231 -3.8704,6.6521 -3.8704,10.8844 0,11.4472 6.2272,21.4836 18.6824,30.1094 11.6768,8.1244 27.7448,12.0867 48.2064,11.8859 z m -403.808,-0.5797 c 2.9016,-0.04 5.1592,-0.8262 6.7704,-2.3577 1.6536,-1.5317 2.5192,-3.7495 2.6,-6.6516 -0.4032,-3.3455 -1.6528,-5.8031 -3.748,-7.375 -2.096,-1.5317 -5.0592,-2.4191 -8.888,-2.6609 -2.9432,0 -4.5552,0.7064 -4.8368,2.1172 2.7808,1.6527 4.1712,3.1622 4.1712,4.5328 0,2.2168 -1.2088,3.3249 -3.628,3.3249 -3.788,-0.8868 -7.416,-4.3126 -10.8824,-10.2781 l -11.0624,-35.9124 -16.8688,0 16.0808,54.4156 16.9296,0 -1.936,-7.5594 c 5.0392,5.4818 10.1392,8.2837 15.2984,8.4046 z m 75.5768,-87.2468 c 5.1888,-0.047 9.5096,-1.4571 12.9576,-4.2312 3.6776,-2.9592 5.2992,-7.4561 4.8688,-13.4892 -0.4312,-6.464 -3.8504,-13 -10.2576,-19.60768 -6.3776,-6.6077 -16.6344,-14.0329 -30.7688,-22.2782 6.5784,0.4597 11.8384,0.2153 15.7736,-0.7328 3.9656,-0.9193 7.2696,0.3732 9.9128,3.8782 1.608,3.1601 1.12,5.6162 -1.4656,7.3687 0.2008,1.0918 1.4936,1.594 3.8776,1.5078 5.344,-0.7756 7.6136,-3.8345 6.8096,-9.1781 -1.092,-4.4243 -3.4904,-7.3258 -7.1968,-8.7047 -4.0512,-1.6088 -9.8568,-1.3644 -17.4128,0.7328 -7.5256,2.0972 -14.5208,1.8244 -20.984,-0.8188 l 1.336,3.6188 c 9.596,5.4872 18.0416,12.2243 25.3384,20.2109 7.2976,7.9867 11.2896,16.31918 11.9784,24.99538 1.1208,8.475 -1.764,12.6405 -8.6592,12.4969 -7.1816,0.4021 -11.9376,-2.4423 -14.264,-8.5328 l -3.4488,0 c 0.7192,3.1314 2.8312,6.0613 6.336,8.7905 3.5336,2.7293 8.2744,4.0519 14.2208,3.9657 0.3544,0.01 0.7008,0.011 1.048,0.01 z m 301.8296,0 c 5.1896,-0.047 9.5096,-1.4571 12.9568,-4.2312 3.6776,-2.9592 5.3,-7.4561 4.8688,-13.4892 -0.432,-6.464 -3.8504,-13 -10.2568,-19.60768 -6.3784,-6.6077 -16.6336,-14.0329 -30.7688,-22.2782 6.5792,0.4597 11.8344,0.2153 15.7704,-0.7328 3.964,-0.9193 7.2704,0.3732 9.9128,3.8782 1.6088,3.1601 1.1208,5.6162 -1.464,7.3687 0.2008,1.0918 1.4928,1.594 3.8776,1.5078 5.344,-0.7756 7.6128,-3.8345 6.808,-9.1781 -1.092,-4.4243 -3.4896,-7.3258 -7.1952,-8.7047 -4.0504,-1.6088 -9.8544,-1.3644 -17.4096,0.7328 -7.5272,2.0972 -14.5224,1.8244 -20.9872,-0.8188 l 1.336,3.6188 c 9.5952,5.4872 18.0424,12.2243 25.3392,20.2109 7.2976,7.9867 11.2896,16.31918 11.9792,24.99538 1.12,8.475 -1.768,12.6405 -8.6624,12.4969 -7.1824,0.4021 -11.9368,-2.4423 -14.264,-8.5328 l -3.4472,0 c 0.7184,3.1314 2.8312,6.0613 6.336,8.7905 3.5336,2.7293 8.2736,4.0519 14.2208,3.9657 0.3544,0.01 0.704,0.011 1.0496,0.01 z m -244.8792,-0.3188 c 0.7536,-0.01 1.5176,-0.034 2.2904,-0.078 l -0.6472,-2.1546 c -7.5272,0.115 -14.02,-3.863 -19.4792,-11.9359 -5.4296,-8.0442 -8.4904,-17.36778 -9.18,-27.96878 -0.2592,-11.6927 2.6312,-17.6965 8.664,-18.0125 5.8608,0.1723 10.816,4.1804 14.8672,12.0234 4.0504,7.8431 5.7888,15.7001 5.2144,23.57188 0,4.5966 -1.064,8.1593 -3.1896,10.6875 -2.0976,2.5282 -4.568,3.6048 -7.412,3.2313 1.752,3.3613 4.9,5.1577 9.4392,5.3875 3.8496,0.029 6.9944,-1.1783 9.4368,-3.6203 2.4704,-2.4419 3.648,-6.7364 3.5336,-12.8844 -0.2592,-9.5381 -4.008,-19.23498 -11.2472,-29.08908 -7.24,-9.854 -15.256,-14.6808 -24.0472,-14.4796 -4.8848,0 -9.1376,1.8533 -12.7576,5.5593 -3.5912,3.7348 -5.384,9.3802 -5.384,16.9359 0.2592,10.9458 4.2648,20.98758 12.0216,30.12348 7.272,8.5648 16.5648,12.799 27.8768,12.7031 z m 301.828,0 c 0.7544,-0.01 1.516,-0.034 2.2872,-0.078 l -0.644,-2.1546 c -7.5264,0.115 -14.02,-3.863 -19.4776,-11.9359 -5.4312,-8.0442 -8.4912,-17.36778 -9.18,-27.96878 -0.2592,-11.6927 2.6288,-17.6965 8.6624,-18.0125 5.8608,0.1723 10.8168,4.1804 14.8672,12.0234 4.0512,7.8431 5.7888,15.7001 5.2144,23.57188 0,4.5966 -1.0624,8.1593 -3.1888,10.6875 -2.0976,2.5282 -4.5696,3.6048 -7.4128,3.2313 1.752,3.3613 4.8984,5.1577 9.4376,5.3875 3.8488,0.029 6.9952,-1.1783 9.4376,-3.6203 2.4704,-2.4419 3.6496,-6.7364 3.5344,-12.8844 -0.2584,-9.5381 -4.0104,-19.23498 -11.2504,-29.08908 -7.2392,-9.854 -15.2536,-14.6808 -24.044,-14.4796 -4.884,0 -9.1376,1.8533 -12.756,5.5593 -3.592,3.7348 -5.3856,9.3802 -5.3856,16.9359 0.2584,10.9458 4.264,20.98758 12.02,30.12348 7.2728,8.5648 16.5664,12.799 27.8784,12.7031 z m 58.872,-0.164 c 4.5104,-0.2586 8.892,-0.7039 13.1432,-1.336 4.2808,-0.6032 10.2128,-0.2299 17.7968,1.1204 l 1.2504,-1.2922 c -7.584,-6.0906 -13.7616,-15.2117 -18.5312,-27.3641 -4.768,-12.12368 -7.756,-24.07568 -8.9624,-35.85468 l -11.3344,0 c 0.7472,7.3259 3.6504,17.4532 8.7064,30.3813 5.0568,12.95678 12.036,22.58168 20.9416,28.87338 -4.1648,-0.5458 -7.4256,-0.7049 -9.7808,-0.475 -2.356,0.2298 -4.584,0.3588 -6.6816,0.3875 -4.6824,-0.029 -8.016,-1.4217 -9.9984,-4.1797 -1.9536,-2.7293 -2.2096,-6.019 -0.7736,-9.8687 -1.092,-0.8332 -3.0904,-0.9336 -5.992,-0.3016 -2.9016,0.6321 -4.436,2.9022 -4.608,6.8094 0.032,3.5049 1.2792,6.5068 3.7488,9.0062 2.4704,2.5282 6.1624,3.8927 11.0752,4.0938 z m -19.436,-0.042 4.9136,-0.044 -0.9936,-3.1891 c -1.0632,-0.6608 -2.4976,-3.8636 -4.308,-9.6093 l -14.9528,-51.84228 -11.508,0 14.8264,53.00628 c -2.3272,-1.1205 -4.4696,-1.6812 -6.4232,-1.6812 l 1.2952,4.05 c 2.0104,0 4.8968,1.5668 8.6608,4.6984 3.792,3.1314 6.6224,4.6684 8.4896,4.6109 z m -195.2568,-24.8656 c 4.1368,0 7.8848,-0.7618 11.2456,-2.2844 3.3896,-1.5227 5.0872,-4.40918 5.0872,-8.66098 -0.5464,-4.453 -2.9024,-7.6858 -7.0688,-9.6969 -4.1368,-2.011 -8.3592,-3.0306 -12.668,-3.0593 -4.4536,0 -8.1024,0.6178 -10.9456,1.8531 l 0.5168,1.8531 c 4.912,-1.0055 9.192,-0.8046 12.8392,0.6031 3.6768,1.4364 5.8056,4.0935 6.38,7.9719 0,1.9824 -0.56,3.5912 -1.68,4.8266 -1.1208,1.23538 -2.7448,1.85308 -4.8704,1.85308 -3.2472,-0.029 -6.724,-2.28388 -10.4296,-6.76568 -3.6752,-4.453 -5.6312,-9.7534 -5.8608,-15.9015 -0.2304,-5.1137 3.3768,-7.6703 10.8184,-7.6703 4.7688,0.2874 9.1488,2.154 13.1424,5.6016 l 1.2504,-1.4641 c -5.8608,-6.4927 -13.2296,-9.8261 -22.1064,-9.9985 -7.24,0 -11.924,0.9912 -14.0504,2.9735 -2.1256,2.011 -3.1888,4.6681 -3.1888,7.9719 0,8.159 3.288,15.256 9.8672,21.289 5.9752,5.45858 13.2184,8.35998 21.7216,8.70478 z m -99.9344,-1.0344 12.0656,0 -1.4232,-5.60158 c 4.4536,3.70598 8.8368,5.57278 13.1456,5.60158 4.0792,0 7.252,-1.5654 9.5216,-4.6969 0.6032,-0.83308 1.0488,-1.75228 1.336,-2.75788 l 2.2856,1.8532 c 4.4536,3.70598 8.8336,5.57278 13.1424,5.60158 4.08,0 7.2552,-1.5804 9.5248,-4.7407 2.2704,-3.13138 2.3704,-7.54128 0.3016,-13.22968 l -3.32,-9.9109 c -0.8616,-3.3039 -0.4288,-4.9563 1.2952,-4.9563 0.8328,0 2.5544,0.7903 5.1688,2.3704 l 0.6472,-1.2922 c -4.9984,-4.6828 -9.796,-7.025 -14.3928,-7.025 -3.764,0 -5.7048,1.6088 -5.8184,4.8265 0,3.1027 1.64,9.6824 4.9144,19.7375 1.724,5.8608 0.084,8.4173 -4.9144,7.6704 -4.224,-1.2354 -7.0672,-3.2896 -8.5328,-6.1625 l -8.1016,-26.0719 -12.0216,0 7.2824,24.564 c 1.724,5.8608 0.087,8.4173 -4.912,7.6704 -4.4528,-1.2928 -7.3712,-3.5045 -8.7504,-6.636 l -7.884,-25.5984 -12.0224,0 z m 127.4288,0 11.9792,0 -8.7064,-27.88128 c -0.8608,-3.3039 -0.4296,-4.9563 1.2944,-4.9563 0.8336,0 3.8072,5.1037 5.1712,2.3704 l 0.644,-1.2922 c -4.9992,-4.6828 -9.7944,-7.025 -14.392,-7.025 -3.7632,0 -5.7016,1.6088 -5.816,4.8265 0,5.4872 3.2752,16.8066 9.8256,33.95788 z m 459.4136,-283.05788 c 21.1352,1.6e-4 38.2672,-17.13264 38.2672,-38.2672 0,-21.13525 -17.132,-38.26885 -38.2672,-38.26869 -21.1344,3.2e-4 -38.2672,17.13376 -38.2672,38.26869 0,21.13424 17.1336,38.26688 38.2672,38.2672 z"
       id="rect5319-3-9"
       inkscape:connector-curvature="0"
       sodipodi:nodetypes="cccccccccscccscccccccccccccccsccsccccccccccccccsccscccccccccsccscccsccccccccccccccccccccccccccccccsccccccccccccccccccccccccccsccccccccccsccscccccccccccccccccccsccscccccccccccsccsccccccccccccccccccccccccccccccccccccccccccccsccsccccccccccsccccccscccccccccccccccccccccsccccccccsccccccccsccccccccccccccccccccsccccccccccccsccscccsccccccccscccccccccccccccccccccccccccccccccccccccccccccccccccccccccccccccccccccsccccccccccccccccccccccccccccccccccccccccccccccccccccccccccccccccccscccccccccccccsccscccccccccccccccsccsccsssss" /></g></svg>