<?xml version="1.0" encoding="UTF-8" standalone="no"?>
<!-- Created with Inkscape (http://www.inkscape.org/) -->

<svg
   xmlns:dc="http://purl.org/dc/elements/1.1/"
   xmlns:cc="http://creativecommons.org/ns#"
   xmlns:rdf="http://www.w3.org/1999/02/22-rdf-syntax-ns#"
   xmlns:svg="http://www.w3.org/2000/svg"
   xmlns="http://www.w3.org/2000/svg"
   xmlns:sodipodi="http://sodipodi.sourceforge.net/DTD/sodipodi-0.dtd"
   xmlns:inkscape="http://www.inkscape.org/namespaces/inkscape"
   width="615.58954mm"
   height="357.1503mm"
   viewBox="0 0 615.58954 357.1503"
   version="1.1"
   id="svg4536"
   inkscape:version="0.91 r13725"
   sodipodi:docname="onderzetters.svg">
  <defs
     id="defs4530">
    <inkscape:perspective
       sodipodi:type="inkscape:persp3d"
       inkscape:vp_x="0 : 210 : 1"
       inkscape:vp_y="0 : 1000 : 0"
       inkscape:vp_z="594.00002 : 210 : 1"
       inkscape:persp3d-origin="297.00001 : 140 : 1"
       id="perspective6493" />
  </defs>
  <sodipodi:namedview
     id="base"
     pagecolor="#ffffff"
     bordercolor="#666666"
     borderopacity="1.0"
     inkscape:pageopacity="0.0"
     inkscape:pageshadow="2"
     inkscape:zoom="0.98994949"
     inkscape:cx="1113.7643"
     inkscape:cy="505.33599"
     inkscape:document-units="mm"
     inkscape:current-layer="layer1"
     showgrid="false"
     inkscape:window-width="2560"
     inkscape:window-height="1381"
     inkscape:window-x="0"
     inkscape:window-y="0"
     inkscape:window-maximized="1"
     inkscape:snap-object-midpoints="true"
     inkscape:snap-center="true"
     inkscape:object-nodes="true"
     inkscape:snap-intersection-paths="false"
     inkscape:snap-global="true"
     fit-margin-top="15"
     fit-margin-left="15"
     fit-margin-right="5"
     fit-margin-bottom="5"
     showguides="true"
     inkscape:guide-bbox="true"
     inkscape:snap-midpoints="true" />
  <metadata
     id="metadata4533">
    <rdf:RDF>
      <cc:Work
         rdf:about="">
        <dc:format>image/svg+xml</dc:format>
        <dc:type
           rdf:resource="http://purl.org/dc/dcmitype/StillImage" />
        <dc:title></dc:title>
      </cc:Work>
    </rdf:RDF>
  </metadata>
  <g
     inkscape:label="Layer 1"
     inkscape:groupmode="layer"
     id="layer1"
     transform="translate(17.592132,55.502561)">
    <path
       style="opacity:1;fill:none;fill-opacity:0.33157893;fill-rule:nonzero;stroke:#ff0000;stroke-width:0.025;stroke-linecap:butt;stroke-linejoin:round;stroke-miterlimit:4;stroke-dasharray:none;stroke-dashoffset:0;stroke-opacity:1"
       d="m 88.619893,205.3562 c -10.805277,0.021 -21.23198,3.98204 -29.325758,11.14062 -0.112017,0.0968 -0.223549,0.1942 -0.334589,0.29214 l 0.0215,0 c -0.548267,0.4866 -1.084396,0.98671 -1.607896,1.49986 l -0.04134,0 c -0.09195,0.0979 -0.18345,0.19618 -0.274506,0.2949 -0.292125,0.30474 -0.579888,0.61364 -0.863202,0.92659 -0.50119,0.51248 -0.989895,1.03702 -1.465682,1.57317 l 0.08489,0 c -0.890936,1.02643 -1.734264,2.09324 -2.527323,3.19705 l 0.103629,0 c -0.241108,0.36252 -0.47687,0.72856 -0.707209,1.09802 l 0.946988,0 0,1.49985 -1.913269,0 c -0.580271,0.91148 -1.127074,1.84385 -1.639313,2.79522 l 16.437238,0 0,1.49984 -17.161536,0 c -0.422515,0.91813 -0.813554,1.85039 -1.172436,2.79521 l 5.449316,0 0,1.49987 -5.996672,0 c -0.311122,0.92208 -0.591843,1.85412 -0.841705,2.79465 l 19.723033,0 0,1.50044 -20.106127,0 c -0.211182,0.92549 -0.392625,1.85753 -0.544051,2.79465 l 7.765522,0 0,1.49984 -7.992071,0 c -0.118564,0.92868 -0.207724,1.86089 -0.26734,2.79521 l 21.144067,0 0,1.49987 -21.219031,0 c -0.03069,0.46575 -0.05402,0.93196 -0.07001,1.39844 0.0092,0.46584 0.02574,0.93148 0.04961,1.39677 l 8.354771,0 0,1.49985 -8.301855,0 c 0.07666,0.93469 0.182911,1.86673 0.318604,2.79467 l 20.867907,0 0,1.50041 -20.686007,0 c 0.166941,0.93766 0.364011,1.86967 0.590903,2.79465 l 7.210448,0 0,1.49987 -6.873655,0 c 0.264592,0.94124 0.560203,1.8735 0.886353,2.79521 l 18.871958,0 0,1.49984 -18.373658,0 c 0.373041,0.94519 0.778422,1.87732 1.215429,2.79468 l 4.273573,0 0,1.50041 -3.602194,0 c 0.497973,0.95052 1.030247,1.8827 1.595769,2.79465 l 14.891081,0 0,1.49987 -13.976613,0 c 0.456621,0.6593 0.931023,1.30612 1.422685,1.93971 l -0.03528,0 c 0.114876,0.14275 0.230632,0.28479 0.347266,0.4261 0.625537,0.82389 1.279678,1.62566 1.961225,2.40386 0.332167,0.38207 0.670848,0.75841 1.01589,1.12888 0.35727,0.40384 0.721868,0.80115 1.093611,1.19172 l 0.09536,0 c 2.190801,2.17669 4.602748,4.11886 7.196667,5.79492 l -0.07883,0 c 0.193182,0.113 0.387215,0.22454 0.582084,0.3346 0.831096,0.51458 1.67896,1.00155 2.542204,1.46017 0.526864,0.29266 1.059632,0.57457 1.597973,0.84556 1.264593,0.6124 2.557546,1.16442 3.874494,1.65419 l -0.01324,0 c 0.02038,0.007 0.04079,0.0133 0.06119,0.0198 1.182725,0.4351 2.38344,0.81965 3.598884,1.15259 0.247587,0.0753 0.495827,0.14845 0.744694,0.2194 1.062022,0.26758 2.133583,0.49572 3.212482,0.68405 0.41411,0.0842 0.8294,0.16248 1.245746,0.23481 0.915842,0.13033 1.835537,0.23199 2.757732,0.30483 0.645447,0.0704 1.292363,0.12666 1.940277,0.16868 0.639265,0.034 1.279193,0.0543 1.919332,0.0606 0.321344,-0.013 0.642538,-0.0296 0.963524,-0.0496 l 0.43601,0 c 0.248582,-0.0181 0.497005,-0.0383 0.745245,-0.0606 1.089347,-0.0487 2.176529,-0.1375 3.259334,-0.26625 0.461526,-0.0629 0.922031,-0.13312 1.381348,-0.21057 0.967621,-0.14452 1.930202,-0.32102 2.886162,-0.52916 0.567434,-0.134 1.132169,-0.27918 1.693883,-0.43544 0.833224,-0.2148 1.660024,-0.45376 2.479364,-0.71659 0.57824,-0.18043 1.15273,-0.37265 1.7231,-0.57658 l -0.15048,0 c 1.20405,-0.44837 2.38807,-0.94878 3.54872,-1.49985 l 0.086,0 c 0.30707,-0.15829 0.61228,-0.32018 0.91557,-0.48562 0.6825,-0.34013 1.35612,-0.69782 2.0202,-1.07267 0.7248,-0.39217 1.43853,-0.80447 2.14037,-1.23638 l -0.13008,0 c 0.73901,-0.47848 1.46363,-0.97883 2.17289,-1.50041 l 0.0551,0 c 0.27866,-0.22121 0.55466,-0.44574 0.82792,-0.67358 0.74406,-0.56707 1.47,-1.15753 2.17675,-1.77049 0.14442,-0.11597 0.2881,-0.23284 0.43105,-0.35058 l -0.0557,0 c 0.54733,-0.48663 1.08254,-0.98676 1.60514,-1.49987 l 0.0783,0 c 0.17598,-0.1857 0.35036,-0.37296 0.5231,-0.56168 0.0149,-0.0161 0.0298,-0.0319 0.0447,-0.048 0.70306,-0.70547 1.38217,-1.43442 2.03619,-2.18558 l 0,0 c 0.43454,-0.4905 0.73634,-0.99057 1.14873,-1.49984 l 0.003,0 c 0.01,-0.0136 0.0191,-0.0271 0.0287,-0.0408 0.21038,-0.26918 0.41766,-0.54076 0.62177,-0.81471 l 0,0 c 0.45168,-0.635 0.83419,-1.2818 1.25181,-1.93972 l -1.02857,0 0,-1.49987 2.03674,0 c 0.56292,-0.91208 1.09261,-1.84424 1.58805,-2.79465 l -16.50944,0 0,-1.5004 17.23429,0 c 0.42232,-0.91796 0.81318,-1.85005 1.17189,-2.79468 l -5.52153,0 0,-1.49984 6.06888,0 c 0.31114,-0.92225 0.59186,-1.85451 0.84171,-2.79522 l -19.79524,0 0,-1.49987 20.17833,0 c 0.211,-0.92549 0.39226,-1.85753 0.5435,-2.79464 l -7.83718,0 0,-1.50041 8.06428,0 c 0.11837,-0.92851 0.20735,-1.86055 0.26679,-2.79468 l -21.21572,0 0,-1.49984 21.29069,0 c 0.0307,-0.46519 0.054,-0.93085 0.07,-1.39677 -0.009,-0.46638 -0.0257,-0.93258 -0.0496,-1.39844 l -8.42643,0 0,-1.49987 8.37352,0 c -0.0767,-0.93486 -0.1829,-1.86707 -0.31861,-2.79522 l -20.93956,0 0,-1.49984 20.75766,0 c -0.16694,-0.93765 -0.36401,-1.86966 -0.5909,-2.79465 l -7.28211,0 0,-1.50043 6.94532,0 c -0.26479,-0.94107 -0.56058,-1.87311 -0.88691,-2.79465 l -18.94306,0 0,-1.49987 18.44421,0 c -0.37303,-0.94539 -0.77841,-1.87765 -1.21543,-2.79521 l -4.34413,0 0,-1.49985 3.67275,0 c -0.49796,-0.95072 -1.03023,-1.88307 -1.59577,-2.79521 l -14.96163,0 0,-1.49986 14.04661,0 c -0.26281,-0.3701 -0.53128,-0.73615 -0.80532,-1.09802 l 0.0198,0 c -0.11444,-0.14901 -0.22984,-0.29729 -0.34616,-0.44483 -0.68308,-0.95404 -1.40372,-1.88063 -2.16022,-2.77757 -0.27436,-0.31351 -0.55311,-0.62314 -0.83619,-0.9288 -0.5418,-0.62906 -1.10113,-1.24281 -1.67735,-1.84051 l -0.075,0 c -0.5186,-0.51296 -1.04977,-1.01307 -1.59302,-1.49985 l 0.0579,0 c -0.35551,-0.29851 -0.71568,-0.59143 -1.08038,-0.87864 -0.65596,-0.56618 -1.32837,-1.11304 -2.01634,-1.63987 -0.11292,-0.0928 -0.22628,-0.18503 -0.3401,-0.27671 l -0.0557,0 c -0.70093,-0.52096 -1.41709,-1.02113 -2.14753,-1.49985 l 0.0358,0 c -0.0697,-0.0406 -0.13953,-0.081 -0.20947,-0.12127 -0.78178,-0.48584 -1.57849,-0.94724 -2.38896,-1.38355 -0.48713,-0.2846 -0.97964,-0.55989 -1.47726,-0.82572 -0.79319,-0.3879 -1.59777,-0.75205 -2.41267,-1.09196 -0.54684,-0.25078 -1.09872,-0.49043 -1.6553,-0.71878 -0.79701,-0.29425 -1.6023,-0.56556 -2.41487,-0.8136 -0.59974,-0.20621 -1.20383,-0.39955 -1.81184,-0.57988 -0.792584,-0.20466 -1.590689,-0.38737 -2.393379,-0.5479 -0.64706,-0.15295 -1.297475,-0.29134 -1.950752,-0.41507 -0.776133,-0.11858 -1.555273,-0.21654 -2.336602,-0.2938 -0.713819,-0.0962 -1.429876,-0.17508 -2.147534,-0.23647 -0.952909,-0.0674 -1.907743,-0.10394 -2.863012,-0.10969 z m -32.798966,20.02235 24.294814,0 0,1.49985 -24.294814,0 z m 28.345696,0 24.296457,0 0,1.49985 -24.296457,0 z m -15.461037,4.29507 24.294814,0 0,1.49984 -24.294814,0 z m 28.345696,0 24.297008,0 0,1.49984 -24.297008,0 z m -41.230355,4.29505 24.294814,0 0,1.49987 -24.294814,0 z m 28.345696,0 24.296457,0 0,1.49987 -24.296457,0 z m -15.461037,4.29452 24.294814,0 0,1.50044 -24.294814,0 z m 28.345696,0 24.297008,0 0,1.50044 -24.297008,0 z m -41.230355,4.29509 24.294814,0 0,1.49984 -24.294814,0 z m 28.345696,0 24.296457,0 0,1.49984 -24.296457,0 z m -15.461037,4.29505 24.294814,0 0,1.49987 -24.294814,0 z m 28.345696,0 24.297008,0 0,1.49987 -24.297008,0 z m -41.230355,4.29508 24.294814,0 0,1.49985 -24.294814,0 z m 28.345696,0 24.296457,0 0,1.49985 -24.296457,0 z m -15.461037,4.29452 24.294814,0 0,1.50041 -24.294814,0 z m 28.345696,0 24.297008,0 0,1.50041 -24.297008,0 z m -41.230355,4.29506 24.294814,0 0,1.49987 -24.294814,0 z m 28.345696,0 24.296457,0 0,1.49987 -24.296457,0 z m -15.461037,4.29508 24.294814,0 0,1.49984 -24.294814,0 z m 28.345696,0 24.297008,0 0,1.49984 -24.297008,0 z m -41.230355,4.29452 24.294814,0 0,1.50041 -24.294814,0 z m 28.345696,0 24.296457,0 0,1.50041 -24.296457,0 z m -15.461037,4.29506 24.294814,0 0,1.49987 -24.294814,0 z m 28.345696,0 24.297008,0 0,1.49987 -24.297008,0 z"
       id="path4279-9"
       inkscape:connector-curvature="0"
       sodipodi:nodetypes="cccccccccccccccccccccccccccccccccccccccccccccccccccccccccccccccccccccccccccccccccccccccccccccccccccccccccccccccccccccccccccccccccccccccccccccccccccccccccccccccccccccccccccccccccccccccccccccccccccccccccccccccccccccccccccccccccccccccccccccccccccccccccccccccccccccccccccccccccccccccccccccccccccccccccccccccccccccccc" />
    <path
       style="opacity:1;fill:none;fill-opacity:0.33157893;fill-rule:nonzero;stroke:#ff0000;stroke-width:0.025;stroke-linecap:butt;stroke-linejoin:round;stroke-miterlimit:4;stroke-dasharray:none;stroke-dashoffset:0;stroke-opacity:1"
       d="m 232.1102,115.33038 c 12.02235,21.75155 39.40154,29.63857 61.15303,17.61612 21.75156,-12.02235 29.63858,-39.401553 17.61612,-61.153045 C 298.85699,50.0419 271.47779,42.154893 249.7263,54.17736 227.97476,66.199708 220.08775,93.578896 232.1102,115.33038 Z m 6.8712,-19.600163 c -0.19983,-0.372919 -0.39483,-0.752084 -0.58403,-1.137392 -2.33263,-5.437344 -1.70778,-9.175456 1.87423,-11.213778 2.55388,-1.411571 5.11264,-1.597124 7.6761,-0.557314 2.52869,1.029782 4.14151,3.048053 4.83855,6.055344 -2.53698,-1.7856 -5.33965,-1.961957 -8.4082,-0.529139 -3.50894,1.588502 -4.54181,3.768025 -3.09839,6.53827 1.89503,3.164035 4.70073,5.488512 8.41681,6.973362 3.68128,1.47484 7.68966,1.16022 12.02513,-0.94359 2.15064,-1.188691 3.54135,-2.878465 4.17262,-5.069884 -1.29418,-1.653635 -2.43979,-3.462471 -3.43744,-5.426219 l 2.14408,-0.08877 c 2.06781,3.741192 5.76144,6.481761 11.08052,8.221211 5.31911,1.739432 10.58832,1.166557 15.80807,-1.718483 2.39706,-1.324889 3.83885,-2.896493 4.32512,-4.715313 0.47388,-1.841212 -0.0256,-4.094926 -1.49902,-6.760808 -2.78363,-4.983352 -7.98635,-9.024808 -15.60716,-12.12421 l 0.5441,-1.397592 c 2.46376,0.0128 6.14496,1.356089 11.04436,4.029417 4.87698,2.685703 8.7386,6.576369 11.58413,11.671735 2.03067,3.673994 2.80738,7.221885 2.33006,10.644301 -0.49973,3.434785 -2.59778,6.174015 -6.29417,8.217065 -5.86119,2.88862 -12.35491,2.67549 -19.48052,-0.63914 -2.20796,-1.03158 -4.23002,-2.28249 -6.0666,-3.75331 -0.26037,3.12702 -1.77971,5.45808 -4.55759,6.99346 -5.11957,2.5372 -10.53589,2.31415 -16.25006,-0.66923 -5.38967,-2.80631 -9.58323,-7.00632 -12.5807,-12.599994 z"
       id="path4268"
       inkscape:connector-curvature="0"
       sodipodi:nodetypes="sssssccccccccccccsscccccccccccccc" />
    <path
       style="opacity:1;fill:none;fill-opacity:0.33157893;fill-rule:nonzero;stroke:#ff0000;stroke-width:0.025;stroke-linecap:butt;stroke-linejoin:round;stroke-miterlimit:4;stroke-dasharray:none;stroke-dashoffset:0;stroke-opacity:1"
       d="m 182.87885,170.95485 a 45.000005,45.000005 0 0 0 42.40002,47.45774 45.000005,45.000005 0 0 0 47.45776,-42.40003 45.000005,45.000005 0 0 0 -42.40005,-47.45774 45.000005,45.000005 0 0 0 -47.45773,42.40003 z M 199.323,151.2687 c 0.0774,-1.25026 0.18097,-2.52488 0.31077,-3.82368 l 1.21515,0.61153 c -0.40134,7.13046 0.51903,13.93697 2.76185,20.41946 2.24382,6.46444 5.33112,10.16965 9.26186,11.11525 3.05255,0.46156 4.75716,-1.02704 5.11369,-4.46578 0.0742,-1.31778 -0.26841,-2.46919 -1.0279,-3.4536 l 1.37684,-0.32964 c 1.44093,1.74713 2.18576,3.95276 2.23497,6.61755 0.0393,2.51936 -0.52085,4.58859 -1.6804,6.20747 -1.17759,1.61785 -3.07495,2.35293 -5.69246,2.20561 -5.48422,-1.01494 -9.37104,-5.15418 -11.66043,-12.41798 -2.01811,-6.3725 -2.75602,-13.93443 -2.2139,-22.68619 z m 3.09048,-2.11482 c 0.0102,-0.21709 0.0225,-0.43542 0.0398,-0.65403 l 1.32809,0.53692 c -0.18006,3.5211 3.08285,6.52065 9.78857,8.99872 l 32.64566,11.6704 c 4.1197,1.77115 6.98574,4.41353 8.59888,7.92692 1.63222,3.49635 2.26661,6.86418 1.9032,10.10334 -0.19278,4.38962 -1.19191,7.50246 -2.9975,9.3385 -1.78753,1.83704 -4.28309,2.42088 -7.48692,1.75161 -2.94197,-0.81753 -5.30902,-2.84302 -7.10089,-6.07672 -1.79084,-3.25176 -2.54203,-6.95225 -2.25418,-11.10111 l 1.48939,-0.40518 c -0.14663,2.92541 0.56359,5.42851 2.13067,7.50871 1.56806,2.06213 3.67926,3.48443 6.33342,4.26764 2.79677,0.50149 4.76086,0.19595 5.89197,-0.91751 1.13211,-1.13147 1.74943,-2.77218 1.85229,-4.92136 -0.003,-4.45496 -3.16749,-7.91056 -9.49411,-10.3673 l -32.6452,-11.67083 c -3.95949,-1.39994 -6.67659,-3.64447 -8.15063,-6.73352 -1.3979,-2.91387 -2.02194,-5.9987 -1.87259,-9.25521 z"
       id="path4156-5-1"
       inkscape:connector-curvature="0" />
    <path
       style="opacity:1;fill:none;fill-opacity:0.33157893;fill-rule:nonzero;stroke:#ff0000;stroke-width:0.025;stroke-linecap:butt;stroke-linejoin:round;stroke-miterlimit:4;stroke-dasharray:none;stroke-dashoffset:0;stroke-opacity:1"
       d="m 314.99338,-31.063027 c -24.81664,1.340298 -43.84799,22.5446828 -42.50769,47.361333 1.34029,24.816645 22.54468,43.847988 47.36133,42.5077 24.81664,-1.340297 43.84799,-22.544688 42.50769,-47.361339 -1.34029,-24.816645 -22.54469,-43.847986 -47.36133,-42.507694 z m 8.72704,21.6810774 c 6.45183,-0.3484508 11.8034,1.3764915 16.055,5.1750904 4.26879,3.77944633 6.18388,9.0348116 5.74541,15.7661132 -0.9523,8.016742 -3.56739,14.099882 -7.8454,18.249781 -4.25981,4.148918 -9.43382,6.388108 -15.52221,6.716924 -4.39914,0.219353 -7.53481,-1.142562 -9.40708,-4.085373 l 0.76638,-0.998204 0.13612,-0.0074 c 1.97548,2.153487 4.89844,3.116458 8.76856,2.889212 3.16233,-0.17079 6.33265,-2.219445 9.51086,-6.145897 3.17821,-3.926461 5.0501,-9.085564 5.61623,-15.47745 0.56913,-7.0117711 -0.51414,-12.05665006 -3.25044,-15.1350894 -2.7363,-3.0784334 -6.38924,-4.5674133 -10.95884,-4.4664474 -6.21164,0.4083865 -11.10233,2.4953304 -14.67202,6.2606651 -3.5515,3.7643487 -5.33301,7.7338847 -5.3445,11.9085377 -0.0375,4.704663 1.22789,7.716502 3.79628,9.03597 l 3.33887,-13.6044046 c 1.31612,-4.3180309 3.44035,-7.34024684 6.37286,-9.0661747 2.9497,-1.7450751 5.91695,-2.66152 8.90143,-2.7498003 l -0.38992,1.3878262 c -3.3318,0.7449934 -5.88108,4.33673548 -7.64771,10.7752298 l -3.62993,14.7962356 c 4.81615,-0.260108 7.6839,-1.83661 8.60306,-4.729704 0.35766,-1.477501 0.28464,-2.658638 -0.21877,-3.542812 l 0.63723,-0.854316 c 0.93227,0.387096 1.52428,1.220954 1.77571,2.501511 0.0111,3.243846 -1.37359,5.614917 -4.15431,7.113911 -2.78072,1.499001 -5.20453,2.186093 -7.27098,2.06075 l -0.3381,1.330503 c -1.3161,4.31802 -3.43543,7.430741 -6.35813,9.338408 -2.62257,1.727412 -5.89802,2.670139 -9.82658,2.827625 -4.86136,0.09851 -7.16221,-2.001224 -6.90217,-6.298668 0.26582,-2.16517 1.06706,-3.867 2.40364,-5.10573 1.35378,-1.257888 3.2357,-1.85148 5.6455,-1.781128 l -0.46871,1.44701 c -2.83027,0.243984 -4.49873,1.919574 -5.0053,5.027335 -0.20545,2.945686 1.157,4.549139 4.08744,4.810092 4.26701,-0.30336 7.32963,-3.840908 9.18764,-10.612418 l 0.44812,-1.82838 c -5.81076,-1.618266 -8.65992,-5.601958 -8.54715,-11.951118 0.32839,-6.0691805 2.94265,-10.9860644 7.84293,-14.7503641 4.90034,-3.7642912 10.94015,-5.8402076 18.11896,-6.2279231 z"
       id="path4156-0"
       inkscape:connector-curvature="0"
       sodipodi:nodetypes="ssssscccccccccscsccccccccccccccscccccccccccccscc" />
    <path
       style="opacity:1;fill:none;fill-opacity:0.33157893;fill-rule:nonzero;stroke:#ff0000;stroke-width:0.025;stroke-linecap:butt;stroke-linejoin:round;stroke-miterlimit:4;stroke-dasharray:none;stroke-dashoffset:0;stroke-opacity:1"
       d="m 525.37048,-23.902785 a 45.000003,45.000003 0 0 0 -61.74684,15.4060858 45.000003,45.000003 0 0 0 15.40608,61.7468432 45.000003,45.000003 0 0 0 61.74684,-15.406087 45.000003,45.000003 0 0 0 -15.40608,-61.746842 z m 0.0282,26.0109518 c 4.61665,2.9842087 6.01449,6.0305998 4.19413,9.1394912 -1.07769,1.794246 -2.61584,3.006484 -4.61453,3.637156 -1.97105,0.623797 -4.23513,0.602511 -6.79233,-0.0648 l -0.0511,-1.08714 c 2.63695,-0.129935 4.87226,-1.545815 6.70624,-4.2474345 1.20909,-2.3257047 0.89078,-4.0431422 -0.95521,-5.151911 -6.96355,-3.1026397 -15.66347,-2.0242267 -26.09962,3.2343432 -5.28901,3.0209953 -8.953,6.7363363 -10.99142,11.1463163 -2.03839,4.409992 -1.13358,7.770109 2.71368,10.08091 4.98594,2.994726 10.38879,4.04496 16.20834,3.15031 l 0.3361,0.905965 -0.0781,0.129946 c -2.703,1.099736 -6.02159,1.524049 -9.95612,1.273711 -3.9345,-0.250331 -7.48592,-1.315058 -10.65347,-3.194129 -7.15284,-4.272754 -10.07492,-9.080356 -8.76778,-14.42259 1.32438,-5.331855 5.08982,-9.9013632 11.29729,-13.7088572 6.24192,-3.66940805 12.74358,-5.504586 19.50493,-5.504892 6.78898,-0.0072 12.7887,1.554177 17.99891,4.68361 z"
       id="path4156-1"
       inkscape:connector-curvature="0" />
    <path
       style="opacity:1;fill:none;fill-opacity:0.33157893;fill-rule:nonzero;stroke:#ff0000;stroke-width:0.025;stroke-linecap:butt;stroke-linejoin:round;stroke-miterlimit:4;stroke-dasharray:none;stroke-dashoffset:0;stroke-opacity:1"
       d="m 387.34078,-24.509608 c -21.92794,11.697357 -30.22146,38.956039 -18.5241,60.883976 11.69735,21.927934 38.95603,30.221454 60.88396,18.524105 C 451.62857,43.201121 459.9221,15.942442 448.22475,-5.9854917 436.5274,-27.913429 409.26872,-36.206962 387.34078,-24.509608 Z m 6.19106,20.3455703 c 6.6878,-3.434746 12.77388,-5.258489 18.25848,-5.470716 5.49937,-0.220093 10.34789,-1.4115413 14.54513,-3.5746323 l 0.16269,1.478631 c -8.61305,4.5567033 -15.55332,6.9492733 -20.82026,7.1782163 -5.26695,0.228942 -9.53214,1.2329 -12.79578,3.011822 -2.90812,1.62720401 -4.90279,3.384198 -5.98399,5.270275 -1.07431,1.8634239 -1.28296,4.0334477 -0.62585,6.5102787 1.15946,3.347396 2.99998,5.107621 5.5212,5.280742 2.52123,0.173103 4.65658,-0.501283 6.40651,-2.023024 l 0.44938,1.269017 c -3.9155,2.904661 -7.3965,4.258559 -10.44265,4.06185 -3.04615,-0.196702 -5.22571,-1.899333 -6.53878,-5.107858 -1.14071,-2.920956 -0.81079,-5.8956117 0.98924,-8.924177 1.80693,-3.0512087 5.43168,-6.0379077 10.87468,-8.9604247 z m 33.32526,-6.3065823 0.31318,1.6544903 c -2.23747,1.212565 -2.87799,4.742237 -1.92217,10.589206 l 3.97081,19.7698987 c 0.65723,3.899945 0.81809,6.157676 0.48232,6.773234 1.556,-0.640286 2.61896,-1.510878 3.1891,-2.611983 l 0.57631,0.973277 c 0.30737,1.145354 -0.24939,2.182743 -1.67044,3.111577 l -8.85288,4.69393 -0.41396,-1.629276 c 1.39544,-1.048009 1.16384,-5.431247 -0.69524,-13.149342 l -0.0591,-0.110814 c -4.10267,2.340357 -7.99715,4.057232 -11.68335,5.150743 l 0.63544,3.218909 c 1.29874,8.339586 -1.20316,14.143099 -7.5059,17.410387 -3.27054,1.801539 -6.08457,2.30667 -8.44236,1.515067 -2.36568,-0.806391 -4.01515,-2.564443 -4.94803,-5.273679 -1.08362,-3.311951 -0.91692,-6.360683 0.50004,-9.146945 1.42384,-2.808906 3.74936,-5.083807 6.97656,-6.824315 1.90362,-1.091359 3.77375,-2.031888 5.6104,-2.821939 l -3.37244,-16.674007 -2.34904,1.25308 -0.32503,-1.6767305 8.50855,-4.5388452 3.78361,19.4717097 c 1.67521,-0.381286 3.66619,-0.722143 5.97269,-1.022724 2.31337,-0.323235 4.44987,-0.960348 6.40964,-1.910899 L 418.84882,4.9305681 c -1.47293,-6.7096398 1.19639,-11.8433558 8.00828,-15.4012131 z m -29.2317,38.364288 c -1.64657,0.897351 -2.91614,2.466522 -3.80822,4.707134 -0.8773,2.232728 -0.87422,4.621659 0.009,7.167412 0.86982,2.306439 2.15032,3.710823 3.84135,4.212943 1.7058,0.494245 3.35971,0.304457 4.96198,-0.569242 1.97945,-1.055927 2.85327,-3.295946 2.62054,-6.720236 -0.24061,-3.439066 -0.83159,-7.090113 -1.77246,-10.952604 -2.11441,0.482761 -4.06519,1.201106 -5.8526,2.154593 z"
       id="path4156-5"
       inkscape:connector-curvature="0"
       sodipodi:nodetypes="sssssccccscccsccsccccccccccccccccccccccccccccccccccccccccc" />
    <path
       style="opacity:1;fill:none;fill-opacity:0.33157893;fill-rule:nonzero;stroke:#ff0000;stroke-width:0.025;stroke-linecap:butt;stroke-linejoin:round;stroke-miterlimit:4;stroke-dasharray:none;stroke-dashoffset:0;stroke-opacity:1"
       d="M 383.66907,53.879179 A 45.000007,45.000007 0 0 0 322.75526,72.304933 45.000007,45.000007 0 0 0 341.181,133.21874 45.000007,45.000007 0 0 0 402.09481,114.79299 45.000007,45.000007 0 0 0 383.66907,53.879179 Z m 1.04168,22.796439 c 5.17486,2.761041 9.14286,6.239371 11.90368,10.435955 2.94486,4.476362 2.57535,9.323402 -1.10933,14.541397 -4.31894,5.03814 -9.89301,6.98434 -16.72182,5.83859 -6.81926,-1.16347 -12.29567,-3.17171 -16.42949,-6.02469 l 1.10302,-1.29265 c 4.68248,2.55317 9.12403,3.5737 13.32515,3.06117 4.22836,-0.52079 7.70312,-2.5752 10.42376,-6.163506 2.99054,-3.580753 3.7925,-7.146478 2.40635,-10.696798 -1.38615,-3.550306 -4.34893,-6.415518 -8.88877,-8.595589 -5.30524,-2.498627 -10.07434,-3.568778 -14.30716,-3.210185 -4.22332,0.340861 -7.35189,1.941365 -9.38586,4.801602 -2.31522,3.257521 -2.14595,5.733816 0.50768,7.428841 l -1.25417,1.383176 c -2.64462,-0.731369 -4.61513,-2.06075 -5.9117,-3.987862 -1.26933,-1.935367 -0.98923,-4.398865 0.84135,-7.390849 2.62554,-4.050171 6.87927,-6.109926 12.76067,-6.179239 5.89091,-0.08704 12.45288,1.749084 19.68563,5.50823 0.35572,0.177675 0.70601,0.358343 1.051,0.542416 z m 0.0475,5.965579 c 0.21466,0.111553 0.42766,0.227888 0.64043,0.3475 l -1.16473,1.088612 c -3.46907,-1.834964 -8.02836,0.04963 -13.67768,5.653753 l -14.91529,15.126968 c -3.53171,2.97133 -7.49846,4.43133 -11.89986,4.38004 -4.37416,-0.0595 -8.02171,-0.98578 -10.94274,-2.77835 -3.98483,-2.06545 -6.50205,-4.61211 -7.55169,-7.63978 -1.04015,-3.04541 -0.56541,-5.849825 1.42425,-8.414183 2.39635,-2.940125 5.42216,-4.561954 9.07719,-4.864708 3.67274,-0.293259 7.31655,0.44839 10.93132,2.22438 l -0.29065,1.693286 c -2.3514,-1.236308 -4.94479,-1.551838 -7.77993,-0.947004 -2.81739,0.61435 -5.203,2.212859 -7.15717,4.796215 -1.62921,2.232313 -2.04132,4.408841 -1.23637,6.529283 0.8227,2.129931 2.2055,3.703891 4.1488,4.721751 4.4974,2.08883 9.376,0.69468 14.6358,-4.18207 l 14.91571,-15.126759 c 3.27188,-3.338774 6.81257,-5.026913 10.62221,-5.064228 3.59707,-0.04272 7.00395,0.775641 10.22041,2.455329 z"
       id="path4156-2"
       inkscape:connector-curvature="0" />
    <path
       style="opacity:1;fill:none;fill-opacity:0.33157893;fill-rule:nonzero;stroke:#ff0000;stroke-width:0.025;stroke-linecap:butt;stroke-linejoin:round;stroke-miterlimit:4;stroke-dasharray:none;stroke-dashoffset:0;stroke-opacity:1"
       d="M 567.39217,133.42708 C 589.81218,122.70303 599.29365,95.834466 588.5696,73.414449 577.84556,50.994435 550.97698,41.512973 528.55697,52.237015 c -22.42002,10.724043 -31.90148,37.592619 -21.17744,60.012625 10.72405,22.42002 37.59262,31.90148 60.01264,21.17744 z m -1.68653,-22.64689 c -4.6977,2.20869 -8.61385,3.33811 -11.74856,3.38824 -3.35983,0.0612 -6.28131,0.64597 -8.76377,1.75412 l -0.10394,-1.58531 c 5.37725,-2.92881 9.76223,-4.45161 13.15502,-4.56819 3.39277,-0.11659 6.46864,-0.85425 9.22738,-2.21346 2.37238,-1.21405 4.09886,-2.76342 5.17943,-4.64781 1.07217,-1.86055 1.19642,-4.169686 0.37297,-6.927069 -0.8557,-2.741965 -2.66481,-4.244656 -5.42716,-4.508896 -2.76236,-0.264237 -5.11269,0.374407 -7.05093,1.915917 l -0.41966,-1.374994 c 4.79727,-3.146884 8.71617,-4.545854 11.75692,-4.196773 3.04079,0.349075 5.10924,2.104561 6.20549,5.266574 1.08014,3.16973 0.61032,6.268151 -1.40993,9.295691 -2.02864,3.05137 -5.3698,5.70014 -10.02336,7.94586 -0.32011,0.15689 -0.63672,0.30889 -0.94988,0.45613 z m -35.84665,12.72555 c -0.75081,0.36933 -1.55915,0.69334 -2.42469,0.9711 l -0.0663,-1.69291 c 2.75456,-1.11938 3.91769,-5.21316 3.48956,-12.28205 -0.44427,-7.06115 1.32278,-12.068669 5.30099,-15.021962 -2.42637,1.101128 -4.42513,1.294335 -5.99604,0.57911 -1.8879,-0.880705 -3.01487,-3.195683 -3.38113,-6.944712 l -0.42308,-4.61397 c -0.40335,-2.086277 -1.08882,-2.897668 -2.05657,-2.434774 -0.46773,0.22373 -1.22325,1.130068 -2.26667,2.719236 l -0.71032,-0.5522 c 1.54894,-3.971424 3.61382,-6.574327 6.19446,-7.808712 2.11292,-1.01066 3.6338,-0.628141 4.56239,1.14745 0.91036,1.90323 1.63217,5.422451 2.16611,10.557902 0.60964,4.465019 4.77651,4.681861 12.50021,0.650498 l -1.42479,-9.069721 c -0.27232,-4.091248 0.76621,-7.699676 3.11604,-10.825405 2.34141,-3.10188 4.92178,-5.227802 7.74086,-6.378042 3.89619,-1.92317 7.02752,-2.627926 9.39366,-2.114691 2.37387,0.529335 3.87929,2.018785 4.51617,4.469022 0.53802,2.616449 -0.0802,5.03305 -1.85436,7.249188 -1.79024,2.223847 -4.18681,3.925183 -7.19033,5.104193 l -1.06066,-1.098251 c 1.95303,-0.557615 3.49303,-1.730027 4.61989,-3.517648 1.11074,-1.779904 1.40854,-3.726215 0.89369,-5.838445 -0.58847,-2.017548 -1.67653,-3.131978 -3.26424,-3.343691 -1.60383,-0.203979 -3.44207,0.199756 -5.51499,1.211116 -3.85976,2.123674 -5.42517,6.35049 -4.69621,12.680904 l 2.99681,18.633395 c 0.67202,4.09825 0.0205,7.52157 -1.95488,10.26999 -1.98378,2.77226 -4.55579,4.87453 -7.7157,6.30672 l -0.16713,-1.4062 c 3.13745,-1.52055 4.1836,-5.77671 3.13834,-12.768402 l -1.07335,-6.532576 -3.79841,1.816875 c -4.58064,2.19103 -6.66558,7.320903 -6.25493,15.389113 0.36609,7.07378 -2.07874,11.9031 -7.33441,14.48855 z"
       id="path4156-28"
       inkscape:connector-curvature="0"
       sodipodi:nodetypes="sssssccccscccsccscccccccccccccsccsccccccccccccccccccccccsccc" />
    <path
       style="opacity:1;fill:none;fill-opacity:0.33157893;fill-rule:nonzero;stroke:#ff0000;stroke-width:0.08858268;stroke-linecap:butt;stroke-linejoin:round;stroke-miterlimit:4;stroke-dasharray:none;stroke-dashoffset:0;stroke-opacity:1"
       d="m 970.88672,1166.4219 c -22.03876,0.204 -44.01017,4.9751 -64.46484,14.2656 -38.50296,17.488 -68.48202,49.555 -83.3418,89.1465 -14.85982,39.5915 -13.38253,83.4639 4.10547,121.9668 17.48795,38.5029 49.55495,68.482 89.14648,83.3418 39.59164,14.86 83.46569,13.3844 121.96877,-4.1035 38.503,-17.488 68.4819,-49.5548 83.3418,-89.1465 14.8599,-39.5917 13.3826,-83.4658 -4.1055,-121.9688 -17.4881,-38.503 -49.5548,-68.4821 -89.1465,-83.3418 -18.5585,-6.9655 -38.05792,-10.3402 -57.50388,-10.1601 z m 31.19728,56.1367 c 2.1868,3.8124 3.8148,8.0284 4.75,12.4902 3.6527,-2.7542 7.6671,-4.8625 11.8379,-6.2949 1.3314,1.3929 2.9158,2.8158 4.8105,4.2852 6.7153,5.2076 11.8729,18.6741 9.4629,31.8164 -8.3015,-8.2241 -18.4207,-14.8659 -30.0547,-19.2325 -11.61511,-4.3595 -23.58767,-6.0169 -35.2324,-5.2949 6.83526,-11.47 19.57044,-18.2094 28.04883,-17.7129 2.36622,0.1386 4.47487,0.111 6.37697,-0.057 z m -66.20705,5.5156 c 3.5546,-0.1444 7.62434,0.5804 11.76953,2.1992 7.9e-4,3e-4 10e-4,0 0.002,0 l 0,0 c 1.84323,0.7184 3.69926,1.6172 5.5332,2.6914 0.0177,0.011 0.0373,0.021 0.0547,0.031 l 0.006,0 c 3.65736,1.953 6.95517,4.547 9.77734,7.7402 -23.73488,2.7798 -45.69398,15.4651 -59.94336,35.3301 -1.6678,-5.0587 -2.22967,-11.0274 -1.74023,-16.5918 0.56384,-6.4102 2.55433,-12.2662 5.47851,-15.5683 0.5445,-0.6149 1.04207,-1.2097 1.51563,-1.7911 0.0142,-0.014 0.0235,-0.032 0.0352,-0.047 0.361,-0.4859 0.73815,-0.9677 1.12891,-1.4453 0.0142,-0.014 0.0226,-0.032 0.0371,-0.045 0.49599,-0.6629 0.95014,-1.3106 1.36914,-1.9492 3.85204,0.6787 7.78798,1.9547 11.73438,3.9844 0.10736,-4.4416 0.91744,-8.8346 2.38281,-13.0254 2.2269,-0.098 4.70268,-0.4465 7.49219,-1.084 1.0543,-0.241 2.18209,-0.3854 3.36718,-0.4336 z m 59.45313,19.9297 c 1.99796,0.5724 3.97676,1.2204 5.93162,1.9473 7.6667,2.8964 14.8224,6.9381 21.2559,11.9531 -6.3536,-4.9407 -13.548,-9.0171 -21.4746,-11.9922 -1.89613,-0.7116 -3.80024,-1.3451 -5.71292,-1.9082 z m -24.82422,3.3516 c 9.34788,-0.2194 18.89647,1.3067 28.19531,4.7968 9.30023,3.4907 17.49713,8.6244 24.39263,14.9415 -9.0953,3.8843 -16.4043,11.3439 -19.9844,20.8828 -0.3934,1.0482 -0.7311,2.1049 -1.0235,3.164 -0.9954,0.1676 -2.0031,0.2863 -3.01559,0.3633 -1.27608,-1.6089 -2.43591,-3.3114 -3.4707,-5.0937 0.0319,0.021 0.0635,0.043 0.0957,0.062 -2.31842,-3.9505 -3.9842,-8.2495 -4.93359,-12.7305 -3.69106,2.7669 -7.80727,4.9164 -12.1875,6.3633 0.079,0.014 0.15962,0.029 0.23828,0.045 -1.99098,0.6718 -4.02533,1.1958 -6.08594,1.5664 -0.76875,-0.772 -1.49793,-1.5783 -2.18359,-2.416 0.47633,-0.9899 0.91525,-2.0067 1.30859,-3.0547 l 0.002,0 c 3.57165,-9.5463 2.96249,-19.9794 -1.34766,-28.8886 z m -9.39453,0.8144 c -3.09023,11.0838 -0.71759,22.6172 5.6914,31.4551 -0.5282,0.9556 -1.10173,1.8753 -1.71093,2.7617 -2.06749,0 -4.13893,-0.1599 -6.19922,-0.4668 0.0457,-0.018 0.0914,-0.033 0.13672,-0.049 -3.01309,-0.4291 -5.97115,-1.1806 -8.82422,-2.2402 -1.4338,-0.542 -2.83679,-1.1626 -4.20313,-1.8575 -0.10665,4.5727 -0.94819,9.0977 -2.49414,13.4024 0.0213,-0.014 0.0388,-0.03 0.0586,-0.049 -0.0588,0.1647 -0.11058,0.3303 -0.17188,0.4941 -0.66146,1.759 -1.43763,3.4624 -2.31445,5.1016 -1.06143,0.1162 -2.13097,0.1818 -3.20703,0.1953 -3.96078,-8.2418 -10.97795,-15.0298 -20.20313,-18.4922 l -0.006,0 c -1.68682,-0.6255 -3.41335,-1.1223 -5.16406,-1.4941 11.9301,-15.6715 29.49933,-25.8784 48.61133,-28.7598 z m 67.91797,15.3848 c 0.1566,0.1513 0.3172,0.2991 0.4727,0.4512 -6e-4,0 0,0 0,0.01 -0.1563,-0.1534 -0.313,-0.3049 -0.4707,-0.457 z m 11.8613,0.3437 c 2.6211,0.011 5.2117,0.3138 7.7422,0.9004 0.01,0 0.014,0 0.018,0 l 0.014,0 c 0.011,0 0.023,0 0.033,0.01 2.0879,0.3975 4.0763,0.9449 5.9375,1.6152 l 0,0 c 5.5834,2.0112 10.0209,5.1284 12.5625,8.6289 1.6552,2.2799 3.2654,4.1474 4.8535,5.6738 -1.655,4.1341 -3.939,7.9884 -6.7891,11.4141 4.3441,1.0773 8.1789,2.724 11.5469,4.7715 -0.1031,0.7498 -0.1896,1.5283 -0.252,2.3457 5e-4,0.018 0,0.039 0,0.059 -0.021,0.622 -0.053,1.2382 -0.1016,1.8457 5e-4,0.018 0,0.039 0,0.059 -0.025,0.7467 -0.043,1.5182 -0.037,2.3359 0.028,4.4108 -2.3256,10.13 -6.1191,15.3281 -3.3043,4.5278 -7.6733,8.6673 -12.2754,11.3789 2.3539,-24.341 -5.829,-48.3511 -21.8711,-66.0703 1.5888,-0.2071 3.1715,-0.3071 4.7441,-0.3008 z m -11.2324,10.0254 0,0 c 12.4734,14.7381 18.9752,33.9641 17.6503,53.5957 -1.5499,-0.8614 -3.1608,-1.6188 -4.8281,-2.25 l -0.01,0 c -9.2252,-3.4625 -18.9755,-2.9675 -27.3809,0.6328 -0.6969,-0.6245 -1.3623,-1.279 -2,-1.955 0.4236,-1.8729 0.972,-3.7251 1.6543,-5.543 0.06,-0.1609 0.1276,-0.3188 0.1914,-0.4785 l 0,0.025 c 1.0259,-2.6287 2.3096,-5.1507 3.8339,-7.5254 0.036,-0.053 0.072,-0.1038 0.1075,-0.1563 0.6808,-1.0447 1.4058,-2.06 2.1757,-3.041 0.2506,-0.3196 0.4999,-0.6404 0.7598,-0.9531 0,0 -0.01,0 -0.01,0 0.014,-0.021 0.036,-0.043 0.051,-0.064 -1.4867,-0.3643 -2.9535,-0.8081 -4.3925,-1.3301 -2.8483,-1.0803 -5.5733,-2.4622 -8.127,-4.123 0.018,0.032 0.035,0.067 0.053,0.1015 -1.8449,-1.188 -3.5878,-2.51 -5.2168,-3.9551 0.1233,-1.0191 0.2896,-2.0407 0.5098,-3.0585 10.6332,-2.4368 20.0022,-9.5526 24.9707,-19.92 z m 9.2891,1.1543 c 4.9645,6.9708 8.772,14.6382 11.3242,22.709 -2.576,-8.0966 -6.3955,-15.7663 -11.3242,-22.709 z m -138.79886,1.3223 0.006,0 c -3.06245,4.8701 -5.68252,10.1198 -7.78321,15.7168 -6.62006,17.638 -7.09372,36.0758 -2.50195,52.9453 -5.68555,-2.0204 -10.16138,-5.2625 -13.62305,-9.082 -0.007,0 -0.007,-0.01 -0.0137,-0.014 -3.42553,-3.6724 -6.07721,-8.072 -7.70703,-12.9531 l 0.002,0 c -0.60356,-1.7985 -1.0582,-3.6346 -1.36523,-5.4883 -8.2e-4,-0.01 -4.4e-4,-0.013 -0.006,-0.023 -0.0213,-0.1159 -0.0417,-0.2079 -0.0527,-0.2696 -0.0284,-0.1655 -0.0911,-0.3242 -0.17969,-0.4668 -0.0882,-0.4112 -0.19255,-0.8167 -0.30664,-1.2187 2.89343,-2.5353 6.02528,-4.6956 9.23828,-6.2598 0.0684,-0.039 0.13438,-0.08 0.20312,-0.1191 -3.30282,-2.7854 -6.10132,-6.0058 -8.38867,-9.4356 1.51803,-1.9473 2.98672,-4.361 4.41797,-7.3633 3.64454,-7.6447 15.17744,-15.2548 28.06055,-15.9687 z m 7.27929,8.1133 c 4.19901,5.9591 10.12308,10.6029 17.08594,13.2265 l 0.002,0 c 3.71895,1.3958 7.52385,2.1469 11.29102,2.3125 0.41003,0.9956 0.76866,2.0112 1.08203,3.043 -1.33505,1.6827 -2.79641,3.26 -4.36914,4.7226 0.0319,-0.091 0.0633,-0.1788 0.0937,-0.2695 -3.35342,3.1661 -7.19949,5.766 -11.38672,7.6992 0.0284,0.025 0.0583,0.051 0.0859,0.078 -5.7e-4,0 -0.004,8e-4 -0.004,0 0.04,0.035 0.0791,0.07 0.11914,0.1035 3.45671,2.9629 6.41446,6.4615 8.76368,10.3613 -0.002,-0.035 -0.002,-0.068 -0.004,-0.1015 1.05087,1.724 1.97828,3.5158 2.77148,5.3613 -0.53071,0.8221 -1.09009,1.6187 -1.68359,2.3828 -11.3045,-2.5747 -23.0949,0.3829 -31.82617,7.7344 -3.69716,-14.4079 -3.16547,-30.0596 2.46484,-45.0606 1.5332,-4.0849 3.38631,-7.9544 5.51367,-11.5976 z m 107.15627,45.1054 c 2.9458,2.354 6.3044,4.2917 10.0234,5.6875 6.9588,2.6043 14.4575,3.0095 21.5254,1.3008 l 0,0 c -0.795,4.132 -1.9436,8.2542 -3.4727,12.3282 -5.6246,14.9857 -15.5076,27.111 -27.7539,35.5273 -1.7485,-11.2566 -8.6737,-21.227 -18.87695,-26.7227 0.0503,-0.8627 0.13556,-1.7288 0.25391,-2.5937 1.95686,-0.9612 3.99174,-1.7696 6.08394,-2.4238 1.1908,-0.3725 2.3964,-0.6925 3.6153,-0.959 0.2232,-0.049 0.4476,-0.097 0.6718,-0.1426 1.0985,-0.2207 2.2059,-0.3976 3.3184,-0.5312 0.3801,-0.046 0.7604,-0.087 1.1426,-0.1231 0.9433,-0.088 1.8889,-0.1416 2.8359,-0.166 0.6077,-0.014 1.2166,-0.026 1.8281,-0.016 0,-0.011 -0.01,-0.017 -0.014,-0.031 0.032,0 0.06,10e-5 0.09,0 -1.884,-4.2053 -3.0737,-8.6891 -3.5215,-13.2754 -0.021,0.052 -0.045,0.1042 -0.068,0.1563 -0.2236,-2.2094 -0.2792,-4.4345 -0.1563,-6.6524 0.8058,-0.4894 1.6298,-0.9475 2.4727,-1.3672 z m 42.7871,5.7676 c 9.2613,9.015 12.9568,22.3607 10.668,30.5274 -0.8904,3.1769 -1.373,5.9418 -1.5157,8.3925 -4.0058,1.0938 -8.2641,1.6876 -12.6172,1.6114 0.025,0.075 0.049,0.1479 0.074,0.2226 1.4005,3.3161 2.3414,7.0343 2.8496,10.877 -0.3246,0.2133 -0.6444,0.4324 -0.9571,0.666 -0.1605,0.049 -0.31,0.1279 -0.4414,0.2324 -0.044,0.037 -0.1163,0.09 -0.207,0.1621 -0.01,0.01 -0.011,0.01 -0.022,0.014 -1.4532,1.1965 -3.0055,2.283 -4.6465,3.2422 -4.4377,2.6025 -9.3258,4.1714 -14.3203,4.6836 -0.01,0 -0.014,0 -0.017,0 -5.1344,0.601 -10.6537,0.094 -16.2813,-2.1406 14.557,-9.6823 26.3293,-23.8779 32.9492,-41.5157 2.1029,-5.6029 3.5865,-11.2861 4.4844,-16.9746 z m -124.93946,1.6348 c 0.82095,0.2374 1.63976,0.5032 2.45117,0.8066 l 0,0 c 0.12473,0.047 0.2468,0.096 0.3711,0.1426 0.50272,2.1013 0.84407,4.2434 1.02343,6.4082 -0.0248,-0.039 -0.0482,-0.076 -0.0723,-0.1133 0.39515,4.6241 0.0312,9.2821 -1.07617,13.789 4.53635,-0.9108 9.19167,-1.0763 13.78125,-0.4902 -0.0106,-0.01 -0.0249,-0.022 -0.0391,-0.029 2.06192,0.2615 4.10658,0.6748 6.11719,1.2363 0.28063,0.8518 0.53016,1.7144 0.74219,2.5879 -5.0406,4.003 -9.0958,9.3783 -11.51953,15.836 -1.69664,4.5259 -2.46515,9.3094 -2.3125,14.0761 -18.92849,-8.3438 -32.83253,-23.683 -39.79297,-41.7851 11.52507,0.8335 22.78647,-3.8547 30.32617,-12.4668 z m -40.65234,14.1504 c 7.76775,21.9742 24.34774,40.6296 47.19531,50.3242 -9.09723,5.2482 -20.03191,6.1915 -28.94531,2.3594 -3.50352,-1.5061 -6.49354,-2.5603 -9.11524,-3.2325 -0.0283,-3.6405 0.36656,-7.364 1.27149,-11.0468 -3.92453,0.746 -7.84362,0.9337 -11.6875,0.5976 -0.33343,-1.3874 -0.79639,-2.8384 -1.41016,-4.3652 -0.007,-0.018 -0.0144,-0.035 -0.0215,-0.051 -0.18496,-0.4093 -0.3808,-0.8247 -0.5918,-1.248 -3.23458,-6.4894 -3.86298,-16.9037 -0.39844,-26.1836 l 0.002,0 c 0.95773,-2.5216 2.20402,-4.9165 3.70118,-7.1504 z m 98.60742,7.4883 c 0.0142,0 0.0284,0.01 0.0391,0.014 l 0,0 c 0.81043,0.3054 1.60075,0.6429 2.375,1.0039 0.0106,11.4402 5.40208,22.3701 14.60538,29.3242 -17.147,9.0526 -37.70447,11.4587 -57.44522,5.2949 3.25676,-3.485 5.83019,-7.5908 7.53711,-12.1133 l 0,0 c 2.42365,-6.4575 2.90794,-13.1712 1.74609,-19.502 0.74473,-0.5256 1.50986,-1.018 2.29297,-1.4804 1.98124,0.9279 3.88382,2.0066 5.69141,3.2207 -0.0177,0 -0.0402,0 -0.0586,-0.01 3.83797,2.5669 7.23354,5.7417 10.05274,9.3984 2.12106,-4.0824 4.88898,-7.7953 8.19726,-10.9922 -0.0142,0 -0.0276,0.01 -0.041,0.012 1.56522,-1.5192 3.23906,-2.9153 5.00781,-4.1718 z m 24.14448,38.5371 c -0.3408,2.684 -0.9811,5.3252 -1.9257,7.8691 -3.4974,9.2677 -10.8218,16.6985 -17.52738,19.457 -0.43774,0.18 -0.8581,0.3628 -1.26562,0.5489 -0.0177,0.01 -0.032,0.018 -0.0508,0.025 -1.4765,0.7507 -2.78732,1.5436 -3.95703,2.375 -3.14242,-2.2861 -5.99231,-5.0227 -8.47461,-8.1895 -1.7398,3.365 -3.88978,6.4257 -6.30274,9.1465 -2.40073,-1.2039 -5.3227,-2.3639 -8.91015,-3.5215 -9.23418,-2.9791 -16.84899,-10.8854 -20.2461,-20.8242 23.59078,7.7206 48.35535,4.5667 68.66013,-6.8867 z"
       transform="matrix(0.28222222,0,0,0.28222222,0,-123)"
       id="path4684-1-4"
       inkscape:connector-curvature="0" />
    <path
       style="opacity:1;fill:none;fill-opacity:0.33157893;fill-rule:nonzero;stroke:#ff0000;stroke-width:0.08858268;stroke-linecap:butt;stroke-linejoin:round;stroke-miterlimit:4;stroke-dasharray:none;stroke-dashoffset:0;stroke-opacity:1"
       d="m 1770.8203,889.16406 a 159.44848,159.44848 0 0 0 -71.6601,19.91602 159.44848,159.44848 0 0 0 -62.086,216.77932 159.44848,159.44848 0 0 0 216.7793,62.084 159.44848,159.44848 0 0 0 62.086,-216.77934 159.44848,159.44848 0 0 0 -145.1192,-82 z m -1.6289,24.67188 c 0.039,0.0776 0.081,0.15358 0.1191,0.23047 0.014,-0.045 0.032,-0.085 0.049,-0.12891 l 0.1562,0.0625 c 2.3512,4.8111 6.4849,8.48582 14.1055,11.03516 0.4803,0.13819 0.9725,0.27069 1.4805,0.39648 8.1716,2.02458 17.3844,8.77284 23.2695,18.20703 -1.7122,0.09 -3.6289,0.06 -5.8145,-0.10937 -6.6812,-0.5174 -14.6045,2.35249 -21.6484,8.01172 -3.6689,2.72111 -6.7968,6.13647 -9.3203,10.09375 -9.0178,-11.30404 -23.3127,-16.65839 -33.1602,-14.60157 -1.6968,0.3544 -3.2335,0.59998 -4.6425,0.75196 3.6952,-7.73954 9.6497,-14.10243 17.0332,-17.75586 12.007,-5.94124 16.364,-10.49079 18.3339,-16.17188 l 0.039,-0.0215 z m 69.709,37.15234 c 5.2794,0.0404 10.5678,1.05912 15.584,3.08008 2.1198,0.85039 4.1549,1.86653 6.0918,3.03125 0.091,0.0521 0.1841,0.10381 0.2734,0.15625 -0.075,-0.0702 -0.1484,-0.14184 -0.2246,-0.21094 5.1785,3.05766 11.4131,3.72638 17.0977,1.76367 l 0.057,0.1836 c -2.5522,5.41258 -2.7505,11.6675 1.8789,22.01562 3.1468,7.03403 2.8981,17.51405 -1.0488,27.43749 -1.3751,-1.4427 -2.8028,-3.2357 -4.3223,-5.4941 -5.6374,-8.37839 -19.3152,-14.37452 -33.3887,-12.73245 1.187,-5.90772 0.8739,-12.54374 -0.5761,-18.59766 -1.5896,-6.63647 -4.4928,-12.584 -8.5782,-16.01562 -0.5911,-0.4966 -1.1403,-0.98194 -1.6738,-1.46875 -0.4368,-0.43469 -0.885,-0.86122 -1.3437,-1.2793 -0.2211,-0.21933 -0.4295,-0.43453 -0.6368,-0.65039 2.8786,-0.71665 5.7431,-1.08888 8.5489,-1.17578 0.753,-0.0341 1.5075,-0.0488 2.2617,-0.043 z m -129.5313,7.44336 c 1.5924,-0.004 3.1925,0.0852 4.793,0.26758 -0.8662,1.10005 -1.8736,2.25691 -3.0547,3.49023 -6.958,7.26573 -9.9827,22.22836 -5.166,35.86328 -4.6954,0.0461 -9.2512,0.89262 -13.5039,2.56637 0,0 -0.01,3e-4 -0.01,0 -8.5223,2.9811 -15.1462,8.1806 -18.2422,14.1191 -1.0344,1.9843 -2.042,3.6563 -3.0449,5.0801 -4.9074,-9.9976 -5.7624,-21.40563 -3.1504,-29.42186 0.1623,-0.49752 0.3107,-0.98587 0.4473,-1.4668 1.8712,-7.81473 0.9425,-13.26696 -1.8945,-17.80859 l 0.029,-0.16407 c 0.046,0.0106 0.09,0.0164 0.1347,0.0234 -0.045,-0.0737 -0.085,-0.14931 -0.1308,-0.22265 l 0.039,-0.0195 c 5.8627,1.33615 12.0272,0.0473 23.4239,-6.99414 5.7035,-3.52393 12.43,-5.29555 19.33,-5.31445 z m 62.9161,13.1543 0,0 c 0.22,0.35256 0.4306,0.709 0.6367,1.07031 5.3877,9.71504 5.4546,20.92741 1.1621,30.29495 -0.2246,-0.3755 -0.45,-0.7529 -0.664,-1.1387 -5.2242,-9.41722 -5.5326,-20.63288 -1.1367,-30.22656 z m 61.9375,25.59375 c -2.7529,7.46551 -8.0788,13.78051 -15.1465,17.70901 -2.651,1.4706 -5.4125,2.5425 -8.2188,3.2402 2.6775,-7.3033 7.8947,-13.7154 15.2403,-17.791 2.5658,-1.4112 5.2977,-2.46698 8.125,-3.15821 z m -120.5879,6.97851 c 10.4565,1.3462 19.8028,7.5337 25.0312,16.9336 l 0,0 c 0.2137,0.385 0.4171,0.7719 0.6133,1.1621 -10.2206,-1.3176 -19.6964,-7.3097 -25.0859,-17.0254 -0.1953,-0.3529 -0.3789,-0.7117 -0.5586,-1.0723 z m 63.0527,14.9238 c 10.5323,-0.093 20.7834,5.433 26.252,15.291 7.9543,14.3391 2.7784,32.411 -11.5606,40.3653 -14.339,7.9543 -32.411,2.7785 -40.3652,-11.5606 -7.9544,-14.339 -2.7785,-32.4109 11.5605,-40.3652 4.481,-2.4857 9.3259,-3.6882 14.1133,-3.7305 z m 106.6953,9.295 c 8.6359,6.3275 15.4972,15.3668 16.582,23.0234 0.1294,0.9118 0.2761,1.7722 0.4297,2.6094 0.1637,0.7093 0.3094,1.4278 0.4414,2.1543 0.8692,3.8271 2.0345,6.8209 3.4922,9.1914 1.5424,2.1989 3.5416,4.1393 5.9043,5.6289 l 0.035,0.1191 c -0.084,0.021 -0.1669,0.047 -0.252,0.066 0.072,0.047 0.1438,0.098 0.2168,0.1446 l -0.047,0.066 c -5.9193,1.36 -10.931,5.2743 -16.0839,15.1582 -3.3385,6.4035 -10.7136,12.2743 -20.3047,15.6191 -0.01,0 -0.014,0 -0.022,0.01 -0.9193,0.3621 -1.8502,0.6882 -2.793,0.9844 0.134,-0.9904 0.3273,-2.0358 0.5938,-3.1524 0.1123,-0.3924 0.2304,-0.7856 0.3613,-1.1875 2.5476,-7.8185 1.4959,-18.7535 -3.6543,-28.0742 l 0,-0.01 c -1.7349,-3.0984 -3.9127,-5.9164 -6.4277,-8.4141 6.5384,-3.0934 11.3627,-7.6068 14.7265,-12.6387 l 0,0 c 3.0594,-4.4432 5.1823,-9.5393 6.1445,-14.9844 0.3327,-1.8669 0.5064,-3.7458 0.5586,-5.6211 0.053,-0.1403 0.082,-0.2895 0.086,-0.4394 0,-0.084 0.01,-0.1663 0.014,-0.25 z m -215.3574,12.5898 c 0.076,0.2998 0.1518,0.5996 0.2226,0.9141 0.111,0.6062 0.2349,1.2089 0.3711,1.8046 0.1311,0.7134 0.2545,1.4397 0.3633,2.2071 0.7485,5.2824 4.2547,10.892 9.043,15.7539 4.3683,4.4352 9.8342,8.2135 15.4746,10.334 -8.8431,11.0704 -10.9969,25.8524 -6.873,35.0703 1.124,2.5128 1.8954,4.692 2.3906,6.6387 -10.5514,-1.8887 -19.6181,-7.2405 -23.9336,-13.6543 -6.3285,-9.4056 -11.7406,-12.5501 -17.6836,-13.25 l -0.127,-0.1426 c 4.6744,-3.7837 7.4094,-9.4274 7.5567,-15.4395 0.021,0.101 0.038,0.2014 0.057,0.3028 0,-0.1039 0.012,-0.21 0.016,-0.3145 0.037,-2.2598 0.2514,-4.5248 0.6524,-6.7734 1.0751,-6.0863 3.4483,-11.7815 6.8691,-16.7481 1.5778,-2.3624 3.4367,-4.6197 5.6016,-6.7031 z m 163.9902,13.6914 c 7.435,-0.1023 14.8069,2.2717 20.8594,6.9043 -10.6619,3.5303 -22.2445,1.4294 -30.918,-5.209 3.2872,-1.0894 6.6791,-1.6488 10.0586,-1.6953 z m -106.5879,6.1172 c 2.4506,-0.027 4.886,0.2145 7.2657,0.7129 -2.0771,2.0107 -4.4474,3.7874 -7.0977,5.2578 l 0,0 c -7.0662,3.9077 -15.2369,5.083 -23.0273,3.4668 2.0791,-2.0275 4.4119,-3.7858 6.9609,-5.2109 l 0,0 0,0 c 5.0514,-2.8022 10.5092,-4.1661 15.9004,-4.2266 z m 73.5313,28.0391 c 4.4633,2.8961 8.3039,6.8981 11.0683,11.8808 l 0,0 c 2.6538,4.8059 4.0569,10.159 4.1543,15.5879 -4.5473,-2.9628 -8.3381,-6.9919 -11.0039,-11.7891 -2.7647,-4.9838 -4.1264,-10.3609 -4.2207,-15.6816 z m -39.7246,2.3339 c 1.0351,10.8613 -3.2962,21.795 -11.9356,28.9746 -1.054,-11.0388 3.4246,-21.9022 11.9356,-28.9746 z m 100.4551,27.377 c 0.9463,11.6043 -2.4654,22.637 -8.0782,28.498 -7.786,8.1304 -9.7119,14.058 -9.0273,19.9805 l -0.018,0.022 -0.018,0 c 0,0 0,-2e-4 -0.01,-0.01 0,0 0,0 0,0.01 l -0.01,0.018 -0.027,0 c -4.6622,-3.716 -10.7109,-5.2197 -21.7305,-2.918 -7.942,1.6588 -19.1045,-1.2858 -28.4472,-8.2285 1.9545,-1.3027 4.3658,-2.6677 7.3906,-4.1641 10.0964,-4.9958 17.0867,-15.5247 18.6387,-27.4511 0.1286,-0.071 0.2578,-0.1394 0.3867,-0.211 0.1421,-0.079 0.2836,-0.1596 0.4258,-0.2383 10.9399,4.9971 23.5729,4.636 33.1562,-1.2851 2.8338,-1.7507 5.2416,-3.0598 7.3614,-4.0254 z m -116.1153,9.4043 c 0.7877,3.4559 2.0257,6.7963 3.7363,9.9082 l 0,0.01 c 5.1812,9.3034 13.8991,15.9833 21.8808,17.9609 0.4115,0.102 0.8095,0.2115 1.2012,0.3242 1.0806,0.3623 2.0629,0.7489 2.9687,1.1563 -0.7705,0.6628 -1.5624,1.2973 -2.3789,1.9023 -0.01,0 -0.011,0.012 -0.017,0.016 -7.9151,6.3664 -16.8,9.5128 -24,8.9551 -11.1132,-0.8605 -17.0857,1.3212 -21.3731,5.6231 l -0.082,0 c 0,-0.087 -0.01,-0.173 -0.01,-0.2598 -0.063,0.059 -0.1278,0.1161 -0.1895,0.1777 l -0.08,-0.096 c -0.014,-2.793 -0.6014,-5.5157 -1.6504,-7.9883 -1.2395,-2.4915 -3.1623,-5.0648 -5.9492,-7.8281 -0.5462,-0.4967 -1.0786,-1.0011 -1.5937,-1.5156 -0.6287,-0.5738 -1.2812,-1.1518 -1.9864,-1.7441 -5.939,-4.9884 -9.9839,-15.6433 -10.7636,-26.3516 l 0,0 c 0.1045,0.059 0.211,0.1129 0.3145,0.1738 0.1275,0.075 0.2653,0.1276 0.4101,0.1563 1.6209,0.9501 3.3115,1.7987 5.0742,2.5058 5.1294,2.0664 10.5754,2.9624 15.9649,2.7188 0,5e-4 0,0 0.01,0 6.0485,-0.1906 12.4274,-1.894 18.5117,-5.8027 z"
       transform="matrix(0.28222222,0,0,0.28222222,0,-123)"
       id="path4684-1"
       inkscape:connector-curvature="0" />
    <path
       style="opacity:1;fill:none;fill-opacity:0.33157893;stroke:#ff0000;stroke-width:0.08858268;stroke-miterlimit:4;stroke-dasharray:none;stroke-opacity:1"
       d="m 1448.8125,887.18945 a 159.44891,159.44891 0 0 0 -147.3437,118.78905 159.44891,159.44891 0 0 0 113.7031,194.7285 159.44891,159.44891 0 0 0 194.7285,-113.705 159.44891,159.44891 0 0 0 -113.7031,-194.72856 159.44891,159.44891 0 0 0 -47.3848,-5.08399 z m -20.3711,18.72852 0,0.002 0.047,0.0117 c 3.498,5.30011 9.1428,8.81941 22.9805,11.76758 8.5233,1.81594 16.2901,6.78693 22.0938,13.76172 -1.4642,0.20693 -3.0792,0.35276 -4.8809,0.43164 -10.6145,0.46382 -23.847,9.67256 -30.127,23.59375 -3.6164,-3.39332 -7.7105,-6.07442 -12.1777,-7.90235 0,-0.002 -0.01,-0.002 -0.01,-0.006 -8.6796,-3.94784 -17.5301,-4.81561 -24.2285,-2.54492 -2.2381,0.7588 -4.2284,1.29809 -6.0332,1.65235 3.555,-11.21191 11.232,-20.54229 19.0781,-24.75196 0.487,-0.26114 0.9566,-0.52392 1.4122,-0.79101 7.1337,-4.59677 10.4073,-9.43567 11.5585,-14.97266 l 0.1407,-0.10547 c 0.028,0.04 0.059,0.0788 0.086,0.11914 0.021,-0.0889 0.042,-0.17598 0.059,-0.26562 z m 47.0586,28.03906 c 2.7081,3.76983 4.8728,8.02242 6.3359,12.60938 3.5409,-3.28709 7.5322,-5.93458 11.7598,-7.88868 1.5489,1.31996 3.3668,2.64476 5.5156,3.98438 7.616,4.74792 14.4856,18.34134 13.3692,32.4082 -9.6075,-7.74609 -20.9554,-13.63428 -33.6485,-16.96875 -12.6725,-3.32904 -25.4277,-3.78234 -37.584,-1.76953 5.9458,-12.7867 18.5977,-21.23929 27.5586,-21.63086 2.5009,-0.10913 4.7132,-0.36327 6.6934,-0.74414 z m 35.6934,0.72656 c 3.8372,-0.0172 7.6395,0.52517 11.2714,1.66407 13.5001,4.2334 20.1476,3.94352 25.7989,1.04687 l 0,0.002 0.045,0.0117 c -0.028,0.0875 -0.048,0.17562 -0.078,0.26172 0.044,-0.0213 0.087,-0.0405 0.1309,-0.0625 l 0.072,0.16211 c -1.7187,5.38792 -1.2464,11.20935 2.7071,18.71875 0.2654,0.45649 0.5441,0.91588 0.8398,1.38281 4.7572,7.51139 6.8606,19.38698 4.4629,30.88282 -1.3722,-1.18163 -2.8133,-2.60325 -4.3574,-4.32813 -4.7204,-5.27308 -12.8603,-8.86858 -22.3672,-9.69336 -4.7865,-0.60247 -9.6694,-0.28056 -14.4844,0.89649 1.3726,-15.20997 -5.6247,-29.73288 -14.6406,-35.35352 -1.5536,-0.96849 -2.9057,-1.90361 -4.0918,-2.81641 4.7648,-1.80432 9.7558,-2.7533 14.6895,-2.77539 z m -100.7422,11.95313 c 2.7279,0.0308 5.6692,0.45247 8.6894,1.28906 l 0,-0.002 c 2.0133,0.55821 4.0631,1.29907 6.1054,2.23047 a 1.4054193,1.4054193 0 0 0 0.059,0.0293 l 0.012,0.004 c 4.0528,1.65795 7.7965,4.02723 11.1054,7.07812 -24.6365,5.47697 -46.343,21.16911 -59.1738,43.57413 -2.297,-5.13497 -3.5281,-11.34536 -3.6133,-17.24405 -0.098,-6.79532 1.3617,-13.16305 4.0781,-16.94726 0.5057,-0.7047 0.9635,-1.38119 1.3985,-2.04297 a 1.4054193,1.4054193 0 0 0 0.033,-0.0527 c 0.3267,-0.54942 0.6702,-1.09672 1.0293,-1.64062 a 1.4054193,1.4054193 0 0 0 0.033,-0.0508 c 0.4494,-0.74998 0.8571,-1.48127 1.2285,-2.19727 4.12,0.29799 8.3931,1.21453 12.7578,2.92188 -0.3656,-4.67798 0.012,-9.38071 1.1016,-13.94141 2.3289,-0.34335 4.89,-0.97309 7.7519,-1.94336 2.1634,-0.73343 4.6783,-1.09526 7.4063,-1.06445 z m 44.7558,13.4414 c 7.528,-0.0709 15.0511,0.84441 22.3789,2.7461 11.5331,3.05536 22.2915,8.49203 31.6153,15.92578 -0.028,0.38165 -0.068,0.76199 -0.1055,1.14258 -12.2311,4.16193 -21.7077,14.20092 -25.0391,26.88282 -0.3004,1.1437 -0.543,2.2914 -0.7363,3.4355 -1.0278,0.2831 -2.0715,0.517 -3.1269,0.7071 -1.514,-1.5529 -2.9181,-3.2175 -4.1973,-4.9785 a 44.981656,44.981656 0 0 1 0.1094,0.055 44.981656,44.981656 0 0 1 -6.5547,-12.84176 44.981656,44.981656 0 0 1 -12.1192,7.99606 44.981656,44.981656 0 0 1 0.2539,0.021 c -2.0193,0.9203 -4.1016,1.6914 -6.2265,2.3028 -0.8908,-0.7283 -1.7421,-1.4966 -2.5528,-2.3028 0.3941,-1.0912 0.7446,-2.20812 1.045,-3.35154 a 1.679443,1.679443 0 0 0 0,-0.004 c 3.3164,-12.68022 -0.011,-26.07539 -8.6269,-35.70312 0.1215,-0.28099 0.2413,-0.5634 0.3691,-0.8418 4.4772,-0.75153 8.9949,-1.14887 13.5117,-1.19141 z m -76.916,0.47461 c -0.1612,0.28418 -0.323,0.56929 -0.498,0.86133 -0.3579,0.54369 -0.7024,1.09231 -1.0332,1.64649 -0.4206,0.64002 -0.8567,1.28236 -1.334,1.94726 -3.2858,4.57735 -4.7074,11.42093 -4.6035,18.62696 0.095,6.57386 1.506,13.44715 4.2617,19.18363 -14.8309,1.9906 -27.2659,11.6954 -30.8496,21.7402 -0.9769,2.7381 -1.98,4.9655 -3.0235,6.8125 -6.6723,-9.1452 -9.6829,-19.8495 -8.2929,-27.8945 2.0384,-11.79783 0.2034,-18.14618 -3.8203,-23.01957 l 0.01,-0.20312 c 6.3294,0.52572 12.5369,-1.78565 17.039,-6.26563 -0.061,0.0907 -0.1159,0.18433 -0.1757,0.27539 0.078,-0.0772 0.1592,-0.15358 0.2382,-0.23047 1.6783,-1.69721 3.4958,-3.2682 5.4434,-4.6914 5.2643,-3.85913 11.234,-6.47349 17.4707,-7.76563 2.9288,-0.65069 5.9968,-1.0144 9.1699,-1.02344 z m 58.334,1.61133 c 0.2544,0.23918 0.5054,0.48311 0.752,0.72852 -0.3838,1.06604 -0.7245,2.14734 -1.0137,3.24414 a 1.679443,1.679443 0 0 0 0,0.004 c -3.4373,13.08466 0.2471,26.37797 8.6465,35.77148 -0.452,1.0608 -0.9535,2.089 -1.4981,3.0859 -2.1725,0.2183 -4.3668,0.2784 -6.5644,0.1778 a 44.981656,44.981656 0 0 1 0.1386,-0.066 44.981656,44.981656 0 0 1 -9.5117,-1.4024 44.981656,44.981656 0 0 1 -4.6152,-1.5 44.981656,44.981656 0 0 1 -1.1778,14.3496 44.981656,44.981656 0 0 1 0.057,-0.059 c -0.044,0.1793 -0.08,0.3603 -0.127,0.5391 -0.5052,1.9193 -1.1381,3.7909 -1.8828,5.6074 -1.1027,0.2364 -2.2205,0.4206 -3.3496,0.5508 -5.0489,-8.2323 -13.1499,-14.6079 -23.2148,-17.2519 -3.921,-1.0191 -7.9696,-1.411 -11.9961,-1.1778 -0.1584,-0.2941 -0.3144,-0.5893 -0.4649,-0.8886 11.9023,-21.15142 32.1688,-36.29523 55.8262,-41.71294 z m 3.3438,3.60352 c 6.9962,8.66212 9.61,20.20708 6.7363,31.19726 l 0,0 c -0.1183,0.4499 -0.2447,0.89476 -0.3789,1.33594 -6.8369,-8.46794 -9.6923,-19.95977 -6.7109,-31.30859 0.1086,-0.41159 0.2306,-0.81833 0.3555,-1.22461 z m 84.4882,11.46484 c 1.6495,-0.0139 3.2927,0.0848 4.9258,0.29102 a 1.4054193,1.4054193 0 0 0 0.021,0.002 l 0.014,0.002 a 1.4054193,1.4054193 0 0 0 0.037,0.002 c 2.2363,0.19275 4.3846,0.55477 6.4121,1.05859 l 0,0.002 c 6.0826,1.51144 11.0817,4.30895 14.1289,7.71289 1.9846,2.21695 3.8761,4.00495 5.709,5.4375 -1.2937,4.52148 -3.279,8.81668 -5.9043,12.72268 4.6799,0.6639 8.8856,1.9812 12.6445,3.7695 -0.028,0.7989 -0.031,1.6268 -0.01,2.4922 a 1.4054193,1.4054193 0 0 0 0,0.061 c 0.046,0.6556 0.077,1.3057 0.092,1.9492 a 1.4054193,1.4054193 0 0 0 0,0.064 c 0.054,0.7874 0.119,1.5986 0.2129,2.4571 0.5059,4.6308 -1.3536,10.8918 -4.7793,16.7617 -2.9838,5.1128 -7.1269,9.9328 -11.6699,13.2773 -0.1488,-25.8264 -11.3332,-50.17058 -30.0957,-67.05858 2.7448,-0.64794 5.5087,-0.98071 8.2578,-1.00391 z m -11.1855,4.98633 c 18.0155,16.22838 28.3508,39.28995 28.4765,63.53715 -0.4187,0.2902 -0.8444,0.567 -1.2734,0.8379 -3.395,-2.1845 -7.1165,-3.8354 -11.0371,-4.877 -10.0649,-2.6441 -20.2542,-1.0747 -28.6973,3.6133 -0.7994,-0.5812 -1.5677,-1.1964 -2.3105,-1.8379 0.2434,-2.0132 0.6207,-4.0182 1.1406,-6.002 0.047,-0.1757 0.1011,-0.3488 0.1504,-0.5234 a 44.981656,44.981656 0 0 1 0,0.029 44.981656,44.981656 0 0 1 3.2188,-8.3184 c 0.032,-0.06 0.064,-0.1166 0.094,-0.1757 a 44.981656,44.981656 0 0 1 1.9609,-3.4297 c 0.2289,-0.3628 0.4558,-0.7256 0.6954,-1.0821 0,-5e-4 -0.012,0 -0.016,0 a 44.981656,44.981656 0 0 1 0.049,-0.072 44.981656,44.981656 0 0 1 -4.7579,-0.9258 44.981656,44.981656 0 0 1 -8.9804,-3.457 44.981656,44.981656 0 0 1 0.066,0.1016 c -2.0663,-1.0495 -4.0412,-2.251 -5.9082,-3.5938 0.021,-1.084 0.085,-2.1744 0.207,-3.2676 11.9314,-4.0527 21.6741,-13.81985 25.1113,-26.90426 a 1.679443,1.679443 0 0 0 0,-0.006 c 0.2835,-1.10693 0.5156,-2.22557 0.7012,-3.35156 0.3665,-0.10099 0.7362,-0.19906 1.1074,-0.28906 l 0,-0.004 z m -4.7617,1.51563 c -0.091,0.42969 -0.1897,0.85726 -0.2989,1.2832 -2.9827,11.34684 -11.1154,19.95102 -21.2304,23.96482 0.1002,-0.4509 0.2055,-0.9008 0.3242,-1.3515 2.8898,-11.00109 10.845,-19.78593 21.2051,-23.89652 z m -133.8633,21.96482 0,0 c -2.6931,5.4467 -4.8802,11.2449 -6.4844,17.3516 -5.0553,19.2437 -3.5669,38.6639 3.0742,55.8926 -6.1909,-1.5102 -11.2427,-4.4323 -15.291,-8.0723 a 1.4054193,1.4054193 0 0 0 -0.014,-0.014 c -3.9945,-3.4895 -7.2521,-7.8267 -9.4902,-12.7793 -0.8278,-1.8245 -1.5013,-3.7028 -2.0235,-5.6172 a 1.4054193,1.4054193 0 0 0 -0.01,-0.027 c -0.035,-0.1194 -0.066,-0.2135 -0.084,-0.2773 a 1.4054193,1.4054193 0 0 0 -0.2383,-0.4707 c -0.1371,-0.4225 -0.2922,-0.8379 -0.455,-1.248 2.7668,-2.9753 5.8241,-5.5829 9.0312,-7.5723 0.068,-0.049 0.1331,-0.1 0.2012,-0.1484 -3.77,-2.5706 -7.0576,-5.6509 -9.8301,-9.0079 1.385,-2.2094 2.6673,-4.9045 3.8477,-8.2129 3.0056,-8.4245 14.3066,-17.6616 27.7656,-19.7988 z m 8.6445,2.3867 c 3.0675,-0.028 6.1311,0.333 9.1172,1.1075 8.5825,2.2546 15.5962,7.4555 20.2422,14.2324 -3.0531,0.018 -6.16,-0.3588 -9.2559,-1.1719 l 0,0 c -8.2453,-2.177 -15.3371,-7.2466 -20.1016,-14.168 z m -3.8867,0.2442 0,0 c 5.1955,8.4319 13.457,14.6115 23.1367,17.168 4.0576,1.0659 8.1337,1.4447 12.1094,1.2129 0.538,1.0017 1.0264,2.0318 1.4668,3.082 -1.2214,1.9117 -2.5891,3.7257 -4.084,5.4317 a 44.981656,44.981656 0 0 1 0.07,-0.293 44.981656,44.981656 0 0 1 -11.1328,9.3144 44.981656,44.981656 0 0 1 0.098,0.074 l 0,0 c 0.046,0.032 0.091,0.064 0.1367,0.096 a 44.981656,44.981656 0 0 1 10.3242,9.9414 44.981656,44.981656 0 0 1 -0.014,-0.1054 c 1.2897,1.6981 2.4542,3.4806 3.4863,5.3339 -0.4687,0.921 -0.9705,1.8189 -1.5117,2.6856 -14.1142,-1.7273 -28.1179,4.4462 -36.3593,16.0684 -0.4279,-0.076 -0.8555,-0.1604 -1.2832,-0.254 -6.8731,-17.1161 -8.1017,-35.9861 -3.4376,-53.8476 1.4358,-5.4375 3.4168,-10.7128 5.8829,-15.7656 0.3709,-0.055 0.7433,-0.1029 1.1152,-0.1465 z m 185.8301,1.3613 c 2.7208,1.5552 5.1816,3.3628 7.3867,5.3457 4.7964,4.1905 8.7085,9.3995 11.3965,15.3477 0.9966,2.1966 1.8081,4.4587 2.4355,6.7617 0.032,0.1059 0.068,0.2124 0.098,0.3183 -0.01,-0.1087 -0.014,-0.2177 -0.022,-0.3261 1.719,6.1142 5.9891,11.1771 11.7598,13.8301 l -0.094,0.1796 c -5.8994,2.2667 -10.6175,6.8955 -14.6406,18.1719 -2.7347,7.6651 -10.5766,15.4816 -20.834,20.1719 0,-2.1049 0.2234,-4.5148 0.7129,-7.3477 1.8158,-10.5092 -4.2418,-25.073 -16.1797,-34.0957 5.2192,-3.6412 9.8268,-8.9331 13.1406,-14.6113 3.6328,-6.2246 5.7583,-12.8829 5.1465,-18.4844 -0.089,-0.8105 -0.1533,-1.5827 -0.2051,-2.3437 -0.014,-0.6507 -0.047,-1.303 -0.092,-1.9571 -0.01,-0.3288 -0.01,-0.6448 -0.01,-0.9609 z m -109.9453,5.0156 a 31.35623,31.35623 0 0 1 8.4023,1.0254 31.35623,31.35623 0 0 1 22.3613,38.2949 31.35623,31.35623 0 0 1 -38.2949,22.3594 31.35623,31.35623 0 0 1 -22.3594,-38.2929 31.35623,31.35623 0 0 1 29.8907,-23.3868 z m 63.6699,29.086 c 3.1688,-0.051 6.3992,0.3249 9.6172,1.1699 2.9887,0.7961 5.8435,1.9863 8.5058,3.5234 -7.5514,3.6866 -16.2269,4.6179 -24.4882,2.4551 -3.0967,-0.8136 -5.988,-2.0149 -8.6387,-3.5312 4.6098,-2.2613 9.7225,-3.5321 15.0039,-3.6172 z m -18.3613,5.498 c 3.3484,2.1558 7.0869,3.8306 11.1445,4.8965 9.6959,2.5398 19.9341,1.2129 28.6016,-3.5742 0.4104,0.3001 0.8165,0.6062 1.2148,0.9238 -0.3193,5.5597 -1.1602,11.0772 -2.5449,16.4727 l 0,0 c -4.7311,17.8547 -15.0973,33.6845 -29.5157,45.2051 -0.5367,-0.1595 -1.0662,-0.3294 -1.5898,-0.5118 -1.461,-14.1631 -10.617,-26.4377 -23.7734,-31.875 -0.04,-0.9118 -0.044,-1.8304 -0.012,-2.7519 1.9524,-1.2206 4.0033,-2.2885 6.1309,-3.2012 a 44.981656,44.981656 0 0 1 3.6953,-1.3984 c 0.2293,-0.075 0.4588,-0.1492 0.6895,-0.2207 a 44.981656,44.981656 0 0 1 3.4297,-0.916 c 0.3941,-0.089 0.7898,-0.1717 1.1875,-0.25 a 44.981656,44.981656 0 0 1 2.9609,-0.4825 c 0.6367,-0.082 1.2763,-0.156 1.9199,-0.2109 0,-0.01 -0.014,-0.021 -0.018,-0.031 a 44.981656,44.981656 0 0 1 0.094,-0.01 44.981656,44.981656 0 0 1 -5.1289,-13.5664 44.981656,44.981656 0 0 1 -0.055,0.1699 c -0.4727,-2.297 -0.7709,-4.6273 -0.8809,-6.9707 0.7939,-0.6009 1.6089,-1.1714 2.4493,-1.7031 z m 45.5742,1.4492 c 10.702,8.4736 16.0212,22.099 14.4961,30.9258 -0.5932,3.4337 -0.8017,6.3904 -0.6875,8.9805 -4.0908,1.5805 -8.5006,2.662 -13.0821,3.0508 0.035,0.075 0.067,0.1511 0.1016,0.2265 1.8286,3.333 3.2183,7.1368 4.166,11.1192 -0.3178,0.2586 -0.6322,0.5255 -0.9355,0.8047 a 1.4054193,1.4054193 0 0 0 -0.4375,0.291 c -0.044,0.043 -0.1117,0.1063 -0.1992,0.1914 a 1.4054193,1.4054193 0 0 0 -0.022,0.022 c -1.3979,1.4136 -2.9125,2.7219 -4.5332,3.9062 -4.3819,3.2123 -9.351,5.3868 -14.543,6.4629 a 1.4054193,1.4054193 0 0 0 -0.018,0 c -5.3294,1.1844 -11.1829,1.2475 -17.3359,-0.4942 14.2508,-11.7402 25.0913,-27.9227 30.1465,-47.166 1.6062,-6.1146 2.5524,-12.2476 2.8828,-18.3223 z m -204.6446,2.1075 c 0.036,0.1195 0.077,0.2387 0.1114,0.3593 a 1.4054193,1.4054193 0 0 0 0.1992,0.42 c 0.543,1.9084 1.2122,3.7866 2.041,5.6132 2.4052,5.3219 5.9088,9.9833 10.1992,13.7325 0,0 0,0 0.01,0 4.7546,4.2707 10.8666,7.6299 18.3633,9.0898 -1.9224,3.2122 -3.4168,6.6633 -4.3828,10.2871 a 1.4054193,1.4054193 0 0 0 0,0.01 c -2.8403,10.8819 -1.0627,22.3467 3.584,29.6836 0.2395,0.378 0.463,0.7512 0.6797,1.1231 0.56,1.0654 1.028,2.0766 1.4218,3.0488 -1.0717,-0.057 -2.1403,-0.1489 -3.205,-0.2832 -0.01,-9e-4 -0.014,0 -0.021,0 -10.688,-0.9213 -19.7667,-5.007 -24.8535,-10.6895 -7.8517,-8.7709 -14.0016,-11.4666 -20.4141,-11.3144 l -0.066,-0.057 c 0.063,-0.067 0.1232,-0.1358 0.1855,-0.2031 -0.092,0 -0.1836,0 -0.2753,0 l 0.01,-0.1329 c 2.0294,-2.1407 3.5692,-4.6481 4.5742,-7.3007 0.8734,-2.8063 1.2827,-6.1751 1.1738,-10.3184 -0.054,-0.7779 -0.09,-1.5517 -0.1074,-2.3203 -0.061,-0.8969 -0.1366,-1.8144 -0.2422,-2.7813 -0.8895,-8.142 3.8008,-19.2228 11.0234,-27.9628 z m 67.5411,12.5019 c 0.7253,0.01 1.453,0.035 2.1816,0.086 -7.1405,9.0436 -18.4291,14.2241 -30.2637,13.3946 6.8022,-8.6183 17.2025,-13.5691 28.0821,-13.4805 z m 6.0175,0.5684 c 0.8882,0.1608 1.7751,0.3525 2.6602,0.584 l 0,0 c 0.1361,0.036 0.2698,0.074 0.4043,0.1133 0.7545,2.1536 1.344,4.3681 1.7656,6.6231 a 44.981656,44.981656 0 0 1 -0.086,-0.1114 44.981656,44.981656 0 0 1 0.3554,14.6016 44.981656,44.981656 0 0 1 14.4239,-1.998 44.981656,44.981656 0 0 1 -0.043,-0.025 c 2.1945,0.052 4.3858,0.2653 6.5586,0.6386 0.3865,0.8647 0.7418,1.7438 1.0586,2.6387 -4.8646,4.7484 -8.5437,10.8334 -10.3945,17.8789 -1.7808,6.7899 -1.6791,13.9049 0.2461,20.5918 -0.4028,0.3508 -0.811,0.6959 -1.2305,1.0293 -23.1774,-7.015 -42.321,-23.4575 -52.7578,-45.3086 0.2236,-0.3894 0.4551,-0.772 0.6914,-1.1504 14.3428,1.7488 28.2499,-4.6848 36.3476,-16.1015 z m 63.2188,16.4902 c 0.014,0 0.028,0.01 0.043,0.01 0.8843,0.2331 1.7493,0.5027 2.6015,0.7988 1.4405,13.9326 10.4012,26.3726 23.7422,31.8945 0.025,0.599 0.043,1.1998 0.039,1.8047 -19.8957,13.7596 -44.6502,18.5156 -68.2285,13.1094 -0.2091,-0.5152 -0.3999,-1.0342 -0.584,-1.5566 4.9741,-4.8714 8.5703,-11.0141 10.3672,-17.8028 1.8508,-7.0453 1.635,-14.1517 -0.2676,-20.6777 0.7258,-0.6325 1.4771,-1.2325 2.25,-1.8028 2.1815,0.7614 4.2963,1.6907 6.3262,2.7715 a 44.981656,44.981656 0 0 1 -0.061,0 44.981656,44.981656 0 0 1 11.5723,8.791 44.981656,44.981656 0 0 1 7.4297,-12.4297 44.981656,44.981656 0 0 1 -0.043,0.018 c 1.4808,-1.7647 3.0896,-3.4112 4.8125,-4.9219 z m 6.2109,2.2734 c 10.5719,5.0203 17.9915,14.9792 19.7891,26.5489 -10.7133,-5.091 -18.0177,-15.1505 -19.7891,-26.5489 z m -110.6172,0.4766 c 10.5275,22.2504 29.9572,40.0646 55.0059,47.7891 -8.9923,6.4937 -20.381,8.6636 -30.1582,5.5976 -3.8429,-1.2052 -7.0971,-1.9921 -9.9238,-2.416 -0.4214,-3.8217 -0.4075,-7.7755 0.1465,-11.7422 -4.0429,1.2066 -8.1403,1.8258 -12.2149,1.8867 -0.4997,-1.4216 -1.1418,-2.8956 -1.9512,-4.4336 a 1.4054193,1.4054193 0 0 0 -0.029,-0.051 c -0.2384,-0.4103 -0.4886,-0.8261 -0.7558,-1.2481 -4.0973,-6.4693 -5.8785,-17.344 -3.2383,-27.4668 l 0,0 c 0.734,-2.7524 1.7867,-5.4039 3.1191,-7.9121 z m 69.3692,7.5 c 1.2911,5.4688 1.2982,11.326 -0.2305,17.1465 l 0,0 0,0 c -1.4834,5.605 -4.3233,10.7141 -8.2129,14.9277 -1.3066,-5.5809 -1.2575,-11.4228 0.2129,-17.0293 1.5293,-5.8217 4.4175,-10.9199 8.2305,-15.0488 z m 108.5469,15.5273 c 1.9693,11.1335 0.6061,23.0395 -4.1563,29.6739 -0.5673,0.7901 -1.0842,1.5516 -1.5781,2.3027 -0.393,0.6608 -0.8069,1.318 -1.2363,1.9688 -2.1311,3.5549 -3.4285,6.6873 -4.0469,9.5605 -0.4286,2.804 -0.3207,5.7456 0.3945,8.6074 l -0.059,0.1172 c -0.079,-0.046 -0.1609,-0.087 -0.2402,-0.1328 0.021,0.089 0.036,0.1786 0.059,0.2676 l -0.084,0.018 c -5.5098,-3.2842 -12.1912,-3.9573 -23.3399,-0.1778 -7.2229,2.4487 -17.1376,1.5464 -26.8984,-2.9043 -0.01,0 -0.014,-0.01 -0.021,-0.01 -0.9657,-0.3951 -1.9159,-0.827 -2.8515,-1.289 0.8254,-0.6578 1.7372,-1.3134 2.7558,-1.9707 0.3719,-0.2176 0.7493,-0.4316 1.1426,-0.6426 7.6527,-4.1059 14.8334,-13.2172 17.709,-24.0899 a 1.4054193,1.4054193 0 0 0 0,-0.01 c 0.9392,-3.6308 1.3357,-7.371 1.2403,-11.1133 7.2479,2.4136 14.222,2.491 20.4629,1.1075 l 0,0 c 5.5788,-1.1566 10.9189,-3.4949 15.6289,-6.9473 l 0,0 c 1.6169,-1.1817 3.1202,-2.488 4.5293,-3.8809 a 1.4054193,1.4054193 0 0 0 0.3867,-0.2734 c 0.064,-0.064 0.1324,-0.1232 0.1973,-0.1856 z m -43.9922,12.1055 c -0.069,2.8566 -0.458,5.7001 -1.1758,8.4746 -2.6751,10.1136 -9.5725,18.7098 -16.3203,22.3301 -0.4406,0.2363 -0.8614,0.4755 -1.2696,0.7148 a 1.4054193,1.4054193 0 0 0 -0.053,0.031 c -1.4703,0.9477 -2.761,1.9225 -3.9004,2.9219 -3.5476,-2.0633 -6.8362,-4.6319 -9.7851,-7.6914 -1.4654,3.7227 -3.3948,7.1686 -5.6368,10.2871 -2.6519,-1.0063 -5.8465,-1.9087 -9.7402,-2.7383 -10.0224,-2.1353 -18.8741,-9.6215 -23.5137,-19.6973 25.6162,5.5704 51.2939,-0.4108 71.3926,-14.6308 l 0,0 z m -75.6504,13.5996 c 0.1502,0.04 0.2965,0.085 0.4472,0.125 0.1662,0.044 0.334,0.08 0.5,0.1231 4.6993,11.8008 14.6005,20.7514 26.2364,23.2304 3.4407,0.7332 6.2362,1.4932 8.5586,2.3047 -7.7507,9.5457 -18.4104,15.4716 -26.9727,15.8457 -11.8777,0.519 -17.6747,3.6353 -21.4766,8.6543 l -0.029,0 -0.014,-0.012 c 0,0 -9e-4,-0.01 0,-0.01 0,0 0,0.01 -0.01,0.01 l -0.018,0 -0.022,-0.018 c -0.8443,-6.2395 -4.3621,-11.8041 -14.4512,-18.0937 -7.2714,-4.5331 -13.6394,-14.9296 -15.6992,-27.0488 2.4425,0.4331 5.2789,1.1504 8.6797,2.2168 11.3518,3.5597 24.3753,0.6315 34.2676,-7.336 z"
       transform="matrix(0.28222222,0,0,0.28222222,0,-123)"
       id="path40"
       inkscape:connector-curvature="0" />
    <path
       style="opacity:1;fill:none;fill-opacity:0.33157893;fill-rule:nonzero;stroke:#ff0000;stroke-width:0.08858268;stroke-linecap:butt;stroke-linejoin:round;stroke-miterlimit:4;stroke-dasharray:none;stroke-dashoffset:0;stroke-opacity:1"
       d="m 1946.5137,1166.5723 a 159.30394,159.30394 0 0 0 -100.0039,31.5605 159.30394,159.30394 0 0 0 -32.3946,222.9531 159.30394,159.30394 0 0 0 222.9493,32.3887 159.30394,159.30394 0 0 0 32.3925,-222.9434 159.30394,159.30394 0 0 0 -122.9433,-63.9589 z m -7.3379,45.9589 a 113.42178,113.42178 0 0 1 76.5195,27.418 56.22492,56.22492 0 0 0 -59.3652,4.8516 l -3.1055,2.3164 -2.3184,-3.1055 a 56.22492,56.22492 0 0 0 -55.6874,-21.539 113.42178,113.42178 0 0 1 43.957,-9.9415 z m -83.2422,39.3711 a 56.22492,56.22492 0 0 0 4.8496,59.3653 l 2.3184,3.1054 -3.1055,2.3184 a 56.22492,56.22492 0 0 0 -21.5391,55.6875 113.42178,113.42178 0 0 1 17.4766,-120.4766 z m 189.1894,27.3301 a 113.42178,113.42178 0 0 1 -17.4785,120.4766 56.22492,56.22492 0 0 0 -4.8496,-59.3672 l -2.3164,-3.1055 3.1055,-2.3183 a 56.22492,56.22492 0 0 0 21.539,-55.6856 z m -103.9179,32.5254 a 14.05623,14.05623 0 0 1 11.8496,5.6406 14.05623,14.05623 0 0 1 -2.8633,19.6739 14.05623,14.05623 0 0 1 -19.6699,-2.8575 14.05623,14.05623 0 0 1 2.8555,-19.6757 14.05623,14.05623 0 0 1 7.8281,-2.7813 z m -10.8457,92.7324 2.3164,3.1075 a 56.22492,56.22492 0 0 0 55.6875,21.5371 113.42178,113.42178 0 0 1 -120.4766,-17.4766 56.22492,56.22492 0 0 0 59.3653,-4.8496 l 3.1074,-2.3184 z"
       transform="matrix(0.28222222,0,0,0.28222222,0,-123)"
       id="path4136-2"
       inkscape:connector-curvature="0" />
    <path
       style="opacity:1;fill:none;fill-opacity:0.33157893;fill-rule:nonzero;stroke:#ff0000;stroke-width:0.08858268;stroke-linecap:butt;stroke-linejoin:round;stroke-miterlimit:4;stroke-dasharray:none;stroke-dashoffset:0;stroke-opacity:1"
       d="m 1298.3672,1165.4707 a 159.30402,159.30402 0 0 0 -57.9317,9.6094 159.30402,159.30402 0 0 0 -95.0683,204.248 159.30402,159.30402 0 0 0 204.2539,95.0664 159.30402,159.30402 0 0 0 95.0605,-204.2519 159.30402,159.30402 0 0 0 -146.3144,-104.6719 z m -6.9727,45.9863 a 113.42183,113.42183 0 0 1 99.0801,52.2618 56.224948,56.224948 0 0 0 -58.2578,-12.4043 l -3.6406,1.3281 -1.3282,-3.6406 a 56.224948,56.224948 0 0 0 -47.1542,-36.627 113.42183,113.42183 0 0 1 11.3007,-0.918 z m -57.3789,17.8223 a 56.224948,56.224948 0 0 0 -12.4062,58.2578 l 1.3281,3.6406 -3.6406,1.3282 a 56.224948,56.224948 0 0 0 -36.625,47.1543 113.42183,113.42183 0 0 1 51.3437,-110.3809 z m 56.3008,5.791 c 4.006,0.057 5.7695,3.1406 5.7695,3.1406 5.6894,8.9766 -3.5516,41.0528 -4.9453,41.2852 l 0,0 c -0.09,0.025 -0.1519,-0.1117 -0.1699,-0.3945 0.5039,4.4573 -16.4569,-28.9112 -12.1465,-39.3867 0,0 1.3971,-3.8803 6.0976,-4.2227 0.6719,-0.048 1.4127,-0.021 2.2246,0.096 0.01,7e-4 0.01,0 0.031,0.014 l 0,-0.01 c 1.1692,-0.3845 2.2122,-0.5326 3.1367,-0.5195 z m -40.5059,13.457 c 1.709,0.067 2.8711,0.7461 2.8711,0.7461 10.043,5.2579 18.5155,41.7681 16.0176,37.9668 0.1683,0.225 0.1898,0.3595 0.1133,0.4024 l 0,0 c -1.2559,0.6893 -28.9155,-17.9139 -30.3262,-28.4395 0,0 -0.7278,-4.0602 3.1719,-6.707 0.5573,-0.3779 1.2091,-0.72 1.9707,-1.0254 0.01,0 0.011,0 0.025,0 9e-4,0 9e-4,-0.01 0,-0.012 2.1878,-2.4468 4.4434,-2.9923 6.1523,-2.9258 z m 111.4239,19.6231 c 1.2638,-0.023 4.0402,0.296 6.0254,3.2207 l 0.01,0 c 0.3779,0.5574 0.7194,1.2113 1.0254,1.9727 0,0.01 0,0.024 0,0.031 l 0.01,0 c 4.8937,4.3755 2.1817,9.0234 2.1817,9.0234 -1.9716,3.7662 -8.3368,7.3162 -15.3242,10.1446 -1.4557,0.5891 -2.9403,1.1466 -4.4161,1.6679 l 0,0 c -10.328,3.6563 -20.3013,5.5653 -18.2226,4.1993 -3.6085,2.6647 16.8118,-28.7022 28.039,-30.2071 0,0 0.2526,-0.045 0.6739,-0.053 z m 13.9258,39.7031 c 1.9063,-0.05 3.5733,0.1565 4.8828,0.6953 0,0 3.8802,1.3952 4.2226,6.0957 0.048,0.672 0.025,1.4044 -0.092,2.2168 0,0.011 0,0.01 -0.014,0.031 l 0,0.01 c 2.0511,6.2358 -2.6211,8.9062 -2.6211,8.9062 -0.5992,0.3793 -1.2966,0.6917 -2.084,0.9454 l 0.01,0 c -11.8122,3.7993 -43.0658,-5.8142 -38.8086,-6.0605 -3.9001,0.4409 21.1616,-12.4836 34.5059,-12.834 z m 32.2207,1.9473 a 113.42183,113.42183 0 0 1 -51.3457,110.3789 56.224948,56.224948 0 0 0 12.4062,-58.2559 l -1.3281,-3.6406 3.6406,-1.3281 a 56.224948,56.224948 0 0 0 36.627,-47.1543 z m -113.0528,0.8945 a 14.056237,14.056237 0 0 1 13.9043,9.2246 14.056237,14.056237 0 0 1 -8.3886,18.0196 14.056237,14.056237 0 0 1 -18.0254,-8.3829 14.056237,14.056237 0 0 1 8.3906,-18.0293 14.056237,14.056237 0 0 1 4.1191,-0.832 z m -76.4687,11.1348 c 13.9706,0.033 35.0807,6.746 31.5332,6.9511 2.2286,-0.2515 -5.0018,3.8567 -14.0957,7.4942 l -0.01,0 c -9.0937,3.6376 -20.0549,6.8005 -25.293,4.6446 0,0 -3.8802,-1.3951 -4.2226,-6.0957 -0.049,-0.6716 -0.025,-1.4042 0.092,-2.2168 0,-0.011 0.01,-0.01 0.016,-0.031 l 0,-0.01 c -2.0512,-6.236 2.6231,-8.9062 2.6231,-8.9062 2.0945,-1.3275 5.4456,-1.8432 9.3574,-1.834 z m 39.3359,28.791 c 0.6447,-0.012 0.7994,0.1291 0.3242,0.4414 3.3831,-2.4983 -14.3472,24.9154 -25.8281,29.5918 -0.7678,0.3065 -1.5007,0.5211 -2.2031,0.6133 0,0 -4.0585,0.7327 -6.7051,-3.166 l -0.01,0 c -0.3779,-0.5573 -0.7193,-1.2093 -1.0254,-1.9707 0,-0.01 0,-0.026 0,-0.033 l -0.01,0 c -4.8937,-4.3755 -2.1817,-9.0312 -2.1817,-9.0312 4.6007,-8.7878 33.1257,-16.3671 37.6387,-16.4512 z m 64.2422,11.2051 c 2.8599,0.5477 28.7535,18.2705 30.1172,28.4453 0,0 0.7277,4.0602 -3.1719,6.707 -0.5573,0.3779 -1.209,0.7219 -1.9707,1.0274 -0.01,0 -0.011,0 -0.025,0 -10e-4,0 9e-4,0.01 0,0.01 -1.094,1.2231 -2.2067,1.9663 -3.2578,2.4004 l 0,0.01 c -3.1537,1.301 -5.7676,-0.2226 -5.7676,-0.2226 -10.0431,-5.2579 -18.5174,-41.768 -16.0195,-37.9668 -0.2498,-0.3383 -0.2002,-0.4649 0.096,-0.4082 z m -22.2754,8.1406 c 1.4327,0.031 16.084,29.9664 12.043,39.7871 0,0 -1.0701,2.977 -4.4863,3.9492 l 0.01,0 c -0.4873,0.1439 -1.0222,0.2357 -1.6094,0.2793 -0.6718,0.048 -1.4126,0.021 -2.2246,-0.096 -0.01,-7e-4 -0.01,0 -0.031,-0.014 l 0,0.01 c -6.2359,2.0511 -8.9082,-2.6211 -8.9082,-2.6211 -6.0686,-9.575 4.8488,-45.4296 5.1113,-40.8887 -0.031,-0.2786 0.01,-0.4083 0.1016,-0.4062 z m -99.584,15.7773 a 56.224948,56.224948 0 0 0 58.2559,12.4063 l 3.6426,-1.3281 1.3281,3.6406 a 56.224948,56.224948 0 0 0 47.1543,36.625 113.42183,113.42183 0 0 1 -110.3809,-51.3438 z"
       transform="matrix(0.28222222,0,0,0.28222222,0,-123)"
       id="path4136-0-73"
       inkscape:connector-curvature="0" />
    <path
       style="opacity:1;fill:none;fill-opacity:0.33157893;fill-rule:nonzero;stroke:#ff0000;stroke-width:0.08858268;stroke-linecap:butt;stroke-linejoin:round;stroke-miterlimit:4;stroke-dasharray:none;stroke-dashoffset:0;stroke-opacity:1"
       d="m 1127.041,888.9668 a 159.30398,159.30398 0 0 0 -137.86717,86.10937 159.30398,159.30398 0 0 0 68.36717,214.66993 159.30398,159.30398 0 0 0 214.6641,-68.3711 159.30398,159.30398 0 0 0 -68.3633,-214.66016 159.30398,159.30398 0 0 0 -76.8008,-17.74804 z m 6.4727,46.01172 a 113.4218,113.4218 0 0 1 26.0996,3.71679 56.224934,56.224934 0 0 0 -51.2676,30.32227 l -1.7793,3.44336 -3.4434,-1.7793 a 56.224934,56.224934 0 0 0 -59.5,4.98242 113.4218,113.4218 0 0 1 89.8907,-40.68554 z m 69.7422,26.17578 a 113.4218,113.4218 0 0 1 36.9668,115.9883 56.224934,56.224934 0 0 0 -30.3223,-51.2676 l -3.4434,-1.7793 1.7813,-3.4434 a 56.224934,56.224934 0 0 0 -4.9824,-59.498 z m -39.4707,4.98437 c 2.8038,-0.0575 5.6613,0.56492 8.3281,1.94336 8.5336,4.41106 11.8758,14.90185 7.4648,23.43555 -4.411,8.53362 -26.4492,13.29102 -26.4492,13.29102 0,0 -8.8622,-20.73008 -4.4512,-29.26368 3.0327,-5.86689 8.9391,-9.27964 15.1075,-9.40625 z m -98.129,31.25195 c 2.8039,-0.0575 5.6614,0.56492 8.3282,1.94336 8.5336,4.41112 13.2968,26.44922 13.2968,26.44922 0,0 -20.7358,8.8603 -29.2695,4.4492 -8.5336,-4.411 -11.8739,-14.9019 -7.4629,-23.4355 3.0327,-5.8669 8.9391,-9.27968 15.1074,-9.40628 z m -44.4921,21.91798 a 56.224934,56.224934 0 0 0 30.3222,51.2676 l 3.4434,1.7793 -1.7793,3.4433 a 56.224934,56.224934 0 0 0 4.9824,59.5 113.4218,113.4218 0 0 1 -36.9687,-115.9902 z m 109.6093,14.8594 a 14.056234,14.056234 0 0 1 6.375,1.5722 14.056234,14.056234 0 0 1 6.0274,18.9434 14.056234,14.056234 0 0 1 -18.9375,6.0312 14.056234,14.056234 0 0 1 -6.0371,-18.9414 14.056234,14.056234 0 0 1 12.5722,-7.6054 z m 66.7227,30.8144 c 2.2405,0.04 4.2691,0.4015 5.8691,1.2285 8.5337,4.4111 11.874,14.9019 7.4629,23.4356 -4.411,8.5336 -14.9019,11.8739 -23.4355,7.4629 -8.5337,-4.4111 -13.291,-26.4473 -13.291,-26.4473 0,0 13.6855,-5.8516 23.3945,-5.6797 z m -89.2481,26.6524 c 0,0 8.8621,20.7299 4.4512,29.2636 -4.411,8.5336 -14.9019,11.874 -23.4355,7.4629 -8.5338,-4.4111 -11.8739,-14.9019 -7.4629,-23.4355 4.411,-8.5337 26.4472,-13.291 26.4472,-13.291 z m 109.5176,29.1504 a 113.4218,113.4218 0 0 1 -115.9902,36.9687 56.224934,56.224934 0 0 0 51.2676,-30.3223 l 1.7793,-3.4433 3.4433,1.7793 a 56.224934,56.224934 0 0 0 59.5,-4.9824 z"
       transform="matrix(0.28222222,0,0,0.28222222,0,-123)"
       id="path4136-0-7-5-1"
       inkscape:connector-curvature="0" />
    <path
       style="opacity:1;fill:none;fill-opacity:0.33157893;fill-rule:nonzero;stroke:#ff0000;stroke-width:0.08858268;stroke-linecap:butt;stroke-linejoin:round;stroke-miterlimit:4;stroke-dasharray:none;stroke-dashoffset:0;stroke-opacity:1"
       d="m 1622.1211,1167.8848 a 159.30402,159.30402 0 0 0 -42.7578,4.6621 159.30402,159.30402 0 0 0 -116.0918,193.0761 159.30402,159.30402 0 0 0 193.0683,116.0918 159.30402,159.30402 0 0 0 116.0997,-193.0703 159.30402,159.30402 0 0 0 -150.3184,-120.7597 z m -7.2559,45.9472 a 113.42183,113.42183 0 0 1 104.3438,62.711 56.224948,56.224948 0 0 0 -56.6211,-18.4864 l -3.7617,0.9356 -0.9356,-3.7598 a 56.224948,56.224948 0 0 0 -43.0254,-41.4004 z m -47.6054,11.9492 a 56.224948,56.224948 0 0 0 -18.4864,56.6211 l 0.9375,3.7618 -3.7617,0.9355 a 56.224948,56.224948 0 0 0 -41.3984,43.0254 113.42183,113.42183 0 0 1 62.709,-104.3438 z m 32.9004,13.4258 c 3.4106,-0.082 5.3027,2.2813 5.3027,2.2813 7.4827,8.5155 2.2678,45.6305 1.3027,41.1855 1.1963,4.3235 -20.7455,-26.0014 -18.1152,-37.0195 0,0 0.7749,-4.0504 5.3652,-5.1191 l 0.01,0 c 0.6544,-0.1556 1.3875,-0.2375 2.207,-0.252 0.01,2e-4 0.01,0 0.025,0 l 0,-0.01 c 1.4605,-0.7486 2.7655,-1.0469 3.9024,-1.0742 z m 97.498,58.5078 c 0.5954,0.02 1.1554,0.088 1.6719,0.211 0,0 4.0483,0.7769 5.1172,5.3672 0.1555,0.6544 0.239,1.3891 0.2539,2.209 0,0.01 0,0.01 0,0.023 l 0.01,0 c 2.9945,5.8418 -1.207,9.2051 -1.207,9.2051 -8.5155,7.4828 -45.6304,2.2678 -41.1855,1.3027 -3.5131,0.9704 15.8508,-13.3308 29.1445,-17.3164 l 0,0 c 2.3009,-0.6895 4.4169,-1.0698 6.2031,-1.0098 z m -80.4258,15.375 a 14.056237,14.056237 0 0 1 14.2637,10.6446 14.056237,14.056237 0 0 1 -10.2481,17.041 14.056237,14.056237 0 0 1 -17.0351,-10.2481 14.056237,14.056237 0 0 1 10.2422,-17.0332 14.056237,14.056237 0 0 1 2.7773,-0.4043 z m 113.9238,11.0625 a 113.42183,113.42183 0 0 1 -62.7109,104.3418 56.224948,56.224948 0 0 0 18.4863,-56.6211 l -0.9355,-3.7617 3.7598,-0.9355 a 56.224948,56.224948 0 0 0 41.4003,-43.0235 z m -180.0507,11.4082 c 12.2825,-0.091 25.0094,2.0761 22.3007,2.6641 4.3235,-1.1962 -26.0013,20.7454 -37.0195,18.1152 0,0 -4.0483,-0.777 -5.1172,-5.3671 -0.1555,-0.6545 -0.2393,-1.3876 -0.2539,-2.2071 0,-0.01 0,-0.01 0,-0.025 l -0.01,0 c -2.9946,-5.8418 1.207,-9.2051 1.207,-9.2051 1.5966,-1.4034 4.1929,-2.36 7.3379,-2.9824 l 0,0 c 3.4071,-0.6738 7.4527,-0.9542 11.5469,-0.9844 z m 77.8769,35.6114 c 1.4151,-0.1906 20.5459,27.106 18.0801,37.4355 0,0 -0.775,4.0505 -5.3652,5.1192 -0.6544,0.1555 -1.3896,0.2393 -2.209,0.2539 -0.01,0 -0.01,0 -0.025,0 l 0,0.01 c -5.8419,2.9945 -9.207,-1.207 -9.207,-1.207 -7.0152,-7.9834 -2.8662,-41.1066 -1.5254,-41.5527 l -0.01,0 c 0.088,-0.028 0.1647,0.089 0.2246,0.3671 -0.075,-0.2702 -0.059,-0.4052 0.035,-0.4179 z m -112.4863,6.5586 a 56.224948,56.224948 0 0 0 56.6211,18.4863 l 3.7617,-0.9356 0.9356,3.7598 a 56.224948,56.224948 0 0 0 43.0253,41.3985 113.42183,113.42183 0 0 1 -104.3437,-62.709 z"
       transform="matrix(0.28222222,0,0,0.28222222,0,-123)"
       id="path4136-0-7-2"
       inkscape:connector-curvature="0" />
    <path
       style="opacity:1;fill:none;fill-opacity:0.33157893;fill-rule:nonzero;stroke:#ff0000;stroke-width:0.025;stroke-linecap:butt;stroke-linejoin:round;stroke-miterlimit:4;stroke-dasharray:none;stroke-dashoffset:0;stroke-opacity:1"
       d="m 427.33074,59.073864 a 45.000072,45.000072 0 0 0 -5.06082,63.438066 45.000072,45.000072 0 0 0 63.43807,5.06081 45.000072,45.000072 0 0 0 5.06081,-63.438058 45.000072,45.000072 0 0 0 -63.43806,-5.060818 z m 7.94768,17.764737 c 6.38062,-5.282028 12.45115,-8.786718 18.21179,-10.51383 5.77351,-1.738087 10.49977,-4.130014 14.179,-7.17657 l 0.48108,1.425914 c -7.91131,6.697794 -14.67036,10.922336 -20.27672,12.673752 -5.60639,1.751436 -9.82955,3.859501 -12.6694,6.324234 -2.52139,2.237831 -4.15349,4.552596 -4.89696,6.944269 -0.74157,2.367801 -0.48392,5.007539 0.77361,7.919284 1.72276,3.405417 3.95386,5.109366 6.69301,5.111623 2.73916,0.0023 4.61548,-0.773176 5.62847,-2.32636 l 0.7186,1.156371 c -3.24023,3.718362 -6.39526,5.539382 -9.46489,5.462702 -3.06963,-0.0767 -5.52647,-1.73262 -7.37097,-4.967521 -1.8316,-3.245889 -2.14441,-6.706966 -0.93802,-10.383318 1.20831,-3.700238 4.18557,-7.583727 8.9314,-11.65055 z M 468.2184,62.247099 c 0.1009,-0.08836 0.20284,-0.173713 0.30549,-0.255618 l 0.49505,1.247251 c -1.52864,1.992627 -1.12912,5.868944 1.19873,11.629436 l 8.85299,19.827535 c 0.87669,1.812067 1.7663,2.333809 2.66866,1.564779 0.37385,-0.318603 0.78102,-1.277556 1.22095,-2.876448 l 0.784,0.332914 c -0.4523,4.012856 -1.64509,6.843142 -3.57874,8.491072 -1.68874,1.4392 -3.17412,1.45912 -4.45616,0.0593 -1.9885,-2.33328 -5.66885,-10.190138 -11.04127,-23.570491 -1.46405,-3.937453 -1.59861,-7.372667 -0.40352,-10.305003 1.1222,-2.771467 2.44015,-4.819477 3.95382,-6.144694 z m -28.33786,24.221877 7.42529,-6.328101 11.73759,26.816165 c 1.24432,3.67963 1.17086,7.23611 -0.22038,10.66943 -1.38936,3.40945 -3.23467,5.9835 -5.53602,7.72225 -3.09958,2.70832 -5.90505,3.98635 -8.41597,3.8341 -2.52192,-0.16513 -4.30755,-1.347 -5.35766,-3.54535 -1.32961,-2.7613 -1.4746,-5.46418 -0.43464,-8.10854 1.05285,-2.65534 2.81103,-4.88794 5.27424,-6.69788 l 1.23759,0.74763 c -1.65254,0.98553 -2.75434,2.52568 -3.3059,4.62028 -0.53868,2.08362 -0.21524,4.27783 0.97052,6.58311 0.90056,1.81397 2.21339,2.75395 3.93828,2.81947 1.73776,0.0545 3.43263,-0.63359 5.08459,-2.0637 3.0174,-2.88309 3.42252,-7.13378 1.21552,-12.75247 l -10.87898,-24.476519 -2.04951,1.746667 -0.68456,-1.586542 z m 11.2731,-9.607345 5.2983,-4.515409 7.67196,17.462728 1.68226,-1.433687 0.72371,1.319298 -1.7983,1.532578 7.61652,17.710291 -5.53038,4.7132 -7.59708,-17.726867 -1.35329,1.153321 -0.74315,-1.302725 1.48877,-1.268784 -7.45932,-17.643944 z"
       id="path5323"
       inkscape:connector-curvature="0" />
    <path
       style="opacity:1;fill:none;fill-opacity:0.33157893;fill-rule:nonzero;stroke:#ff0000;stroke-width:0.025;stroke-linecap:butt;stroke-linejoin:round;stroke-miterlimit:4;stroke-dasharray:none;stroke-dashoffset:0;stroke-opacity:1"
       d="m 179.40839,206.63503 a 45,45 0 0 0 -44.99956,45.00011 45,45 0 0 0 44.99956,45.00011 45,45 0 0 0 45.00011,-45.00011 45,45 0 0 0 -45.00011,-45.00011 z m -13.71093,8.49368 0.28332,0.67964 c -6.94699,2.88462 -12.97306,7.84107 -17.10972,14.12545 -10.86467,16.50553 -6.61557,39.60392 10.05086,50.52494 15.57116,10.20333 37.33872,6.17905 47.59579,-9.55421 9.54217,-14.63669 5.74532,-35.07145 -9.05482,-44.66443 -13.70208,-8.88125 -32.80765,-5.31053 -41.73636,8.55652 -8.22062,12.76732 -4.87305,30.54077 8.06097,38.805 11.83237,7.56034 28.27359,4.44059 35.87309,-7.56047 6.90049,-10.89717 4.0071,-26.00894 -7.06107,-32.94338 -9.96168,-6.2412 -23.74473,-3.57316 -30.01367,6.56222 -5.58263,9.02579 -3.1399,21.48111 6.06282,27.08396 8.08936,4.92502 19.21606,2.7079 24.15204,-5.56231 4.26873,-7.15222 2.2794,-16.95492 -5.0585,-21.22289 -6.21402,-3.61429 -14.69657,-1.85113 -18.29483,4.55469 -2.96264,5.27426 -1.42315,12.43985 4.05088,15.36568 4.3319,2.31537 10.18672,1.00311 12.43542,-3.53935 1.67559,-3.38477 0.58934,-7.94553 -3.02122,-9.50792 -1.21341,-0.52507 -2.66337,-0.57331 -3.90039,-0.15048 -1.23703,0.42283 -2.25258,1.29571 -2.68001,2.63316 -0.2288,0.7159 -0.18215,1.65341 0.14441,2.3829 0.32657,0.72949 0.87952,1.23993 1.73468,1.28323 0.18774,0.01 0.73221,-0.2008 0.99219,-0.46137 0.12998,-0.13028 0.18316,-0.2513 0.18576,-0.3164 0.003,-0.0651 -0.003,-0.13226 -0.19348,-0.26733 l 0.42554,-0.60138 c 0.32531,0.23102 0.51727,0.56777 0.50381,0.89848 -0.0135,0.33071 -0.18938,0.5968 -0.40018,0.80808 -0.42161,0.42257 -0.99966,0.70369 -1.55057,0.67579 -1.14655,-0.058 -1.96086,-0.80668 -2.36912,-1.71869 -0.40827,-0.912 -0.46729,-1.99627 -0.17584,-2.90821 0.50316,-1.57438 1.72617,-2.62032 3.14413,-3.105 1.41796,-0.48467 3.03927,-0.43114 4.43177,0.17143 4.03799,1.74735 5.23749,6.77573 3.38887,10.51003 -2.44853,4.94613 -8.76598,6.36361 -13.44359,3.86346 -5.86351,-3.134 -7.50139,-10.75935 -4.34578,-16.37716 3.81176,-6.78591 12.75235,-8.64524 19.30852,-4.83195 7.71134,4.48518 9.79267,14.74651 5.32033,22.23988 -5.15591,8.63871 -16.73981,10.94484 -25.16959,5.81257 -9.56739,-5.82488 -12.09763,-18.73588 -6.3048,-28.10151 6.49261,-10.497 20.73015,-13.25251 31.03121,-6.79868 11.42732,7.15945 14.40829,22.72639 7.29313,33.96257 -7.82563,12.35815 -24.72343,15.56597 -36.89449,7.78923 -13.28938,-8.4913 -16.71998,-26.72012 -8.28146,-39.82586 9.15657,-14.22093 28.71585,-17.87801 42.75612,-8.77755 15.15273,9.82152 19.03561,30.7128 9.27309,45.68748 -10.48621,16.08475 -32.70987,20.19221 -48.61884,9.76753 -17.01694,-11.1507 -21.35056,-34.70536 -10.26363,-51.54855 4.21962,-6.41041 10.35958,-11.45749 17.44321,-14.39884 z"
       id="path4279-6"
       inkscape:connector-curvature="0" />
    <path
       style="opacity:1;fill:none;fill-opacity:0.33157893;fill-rule:nonzero;stroke:#ff0000;stroke-width:0.025;stroke-linecap:butt;stroke-linejoin:round;stroke-miterlimit:4;stroke-dasharray:none;stroke-dashoffset:0;stroke-opacity:1"
       d="m 136.99894,125.96735 a 45,45 0 0 0 -45.00009,45.00012 45,45 0 0 0 45.00009,45.00011 45,45 0 0 0 44.99956,-45.00011 45,45 0 0 0 -44.99956,-45.00012 z m 0,12.1317 a 10.774446,10.774446 0 0 1 10.7746,10.77406 10.774446,10.774446 0 0 1 -3.16067,7.61393 l -7.61393,-7.61393 -7.61394,7.61393 a 10.774446,10.774446 0 0 1 -3.16067,-7.61393 10.774446,10.774446 0 0 1 10.77461,-10.77406 z m -22.09437,22.09381 a 10.774446,10.774446 0 0 1 7.61394,3.16067 l -7.61394,7.61394 7.61394,7.61393 a 10.774446,10.774446 0 0 1 -7.61394,3.16067 10.774446,10.774446 0 0 1 -10.77405,-10.7746 10.774446,10.774446 0 0 1 10.77405,-10.77461 z m 44.18873,0 a 10.774446,10.774446 0 0 1 10.77405,10.77461 10.774446,10.774446 0 0 1 -10.77405,10.7746 10.774446,10.774446 0 0 1 -7.61394,-3.16067 l 7.61394,-7.61393 -7.61394,-7.61339 a 10.774446,10.774446 0 0 1 7.61394,-3.16122 z m -29.70775,25.25503 7.61339,7.61394 7.61393,-7.61394 a 10.774446,10.774446 0 0 1 3.16067,7.61394 10.774446,10.774446 0 0 1 -10.7746,10.7746 10.774446,10.774446 0 0 1 -10.77461,-10.7746 10.774446,10.774446 0 0 1 3.16122,-7.61394 z"
       id="path4279-8"
       inkscape:connector-curvature="0" />
    <path
       style="opacity:1;fill:none;fill-opacity:0.33157893;fill-rule:nonzero;stroke:#ff0000;stroke-width:0.025;stroke-linecap:butt;stroke-linejoin:round;stroke-miterlimit:4;stroke-dasharray:none;stroke-dashoffset:0;stroke-opacity:1"
       d="M 46.434293,124.27415 A 45,45 0 0 0 1.4341829,169.27426 45,45 0 0 0 46.434293,214.27382 45,45 0 0 0 91.434406,169.27426 45,45 0 0 0 46.434293,124.27415 Z m -13.868578,23.14939 34.025417,0 -17.012708,17.01326 -34.024864,0 17.012155,-17.01326 z m 35.71875,1.69333 0,34.02542 -17.012708,17.01271 0,-34.02487 17.012708,-17.01326 z"
       id="path4279-1"
       inkscape:connector-curvature="0" />
    <path
       style="opacity:1;fill:none;fill-opacity:0.33157893;fill-rule:nonzero;stroke:#ff0000;stroke-width:0.025;stroke-linecap:butt;stroke-linejoin:round;stroke-miterlimit:4;stroke-dasharray:none;stroke-dashoffset:0;stroke-opacity:1"
       d="M 42.420481,-35.796281 A 45,45 0 0 0 -2.5796308,9.2038316 45,45 0 0 0 42.420481,54.203944 45,45 0 0 0 87.420594,9.2038316 45,45 0 0 0 42.420481,-35.796281 Z m 0,34.5176536 A 10.482539,10.482539 0 0 1 52.902943,9.2038316 10.482539,10.482539 0 0 1 42.420481,19.686293 10.482539,10.482539 0 0 1 31.93802,9.2038316 10.482539,10.482539 0 0 1 42.420481,-1.2786274 Z"
       id="path4279-7"
       inkscape:connector-curvature="0" />
    <path
       style="opacity:1;fill:none;fill-opacity:0.33157893;fill-rule:nonzero;stroke:#ff0000;stroke-width:0.025;stroke-linecap:butt;stroke-linejoin:round;stroke-miterlimit:4;stroke-dasharray:none;stroke-dashoffset:0;stroke-opacity:1"
       d="m 90.057556,44.848685 c -24.852902,-6.3e-5 -45.000175,20.147211 -45.000113,45.000113 -6.2e-5,24.852912 20.147211,45.000182 45.000113,45.000122 24.852904,6e-5 45.000174,-20.14721 45.000114,-45.000122 6e-5,-24.8529 -20.14721,-45.000173 -45.000114,-45.000113 z M 69.066921,65.874884 c 1.422837,0 2.845756,1.005764 2.845756,3.017976 -0.01556,0.856346 -0.09262,1.70959 -0.08842,2.566596 0.12451,1.503764 0.199241,3.009366 0.403692,4.50497 0.165807,1.310088 0.425543,2.612272 0.923587,3.840173 0.369962,0.912165 0.592268,1.283485 1.050896,2.158275 0.752525,1.227997 1.559288,2.47081 2.718908,3.357316 0.485791,0.371361 0.794555,0.504233 1.326354,0.780997 1.035854,0.456677 2.155858,0.568189 3.27167,0.638873 1.494184,0.06437 2.990368,0.05058 4.485527,0.04722 0.135495,-1.31e-4 0.270973,5.9e-5 0.406469,0 0.04351,-3.015727 0.02998,-6.031557 -0.1162,-9.044664 -0.123831,-2.223643 -0.238668,-4.461817 -0.591652,-6.664171 -0.07204,-0.449525 -0.136373,-0.686286 -0.234252,-1.07636 -1.44468,-3.756177 3.867666,-5.799639 5.312356,-2.043463 0.07805,0.258343 0.168157,0.513333 0.234253,0.774979 0.264492,1.046495 0.356349,1.716104 0.495358,2.836961 0.241211,1.944921 0.355807,3.897582 0.46619,5.853081 0.152363,3.087931 0.169431,6.178992 0.126849,9.269656 0.223314,-0.0076 0.446542,-0.01458 0.669889,-0.02129 0.378976,-0.01095 0.777645,0.01975 1.142563,-0.09583 0.122931,-0.04188 0.249079,-0.07602 0.368971,-0.125922 0.77951,-0.324514 1.517264,-0.750773 2.244384,-1.17543 1.062558,-0.620559 1.102956,-0.650832 2.156887,-1.290243 1.30911,-0.830478 2.565084,-1.745634 3.707304,-2.795757 0.7374,-0.677943 0.88447,-0.856546 1.57542,-1.582367 0.68079,-0.81498 1.36221,-1.635399 1.91245,-2.547152 0.51662,-0.856051 0.91349,-1.766361 1.28562,-2.691132 0.39811,-1.130666 0.7731,-2.270445 0.98886,-3.449905 -1.74926,-2.347776 1.01071,-5.872002 4.00406,-3.942022 0.49323,0.344742 0.862,0.635846 1.22172,1.160615 0.14579,0.326468 0.32566,0.639999 0.43749,0.979605 0.2637,0.801654 0.079,1.690471 -0.009,2.501782 -0.28931,1.68114 -0.78337,3.311988 -1.37821,4.910054 -0.17205,0.413606 -0.33064,0.832971 -0.51618,1.240706 -0.96488,2.120369 -2.2765,4.043844 -3.83508,5.772065 -0.83769,0.871834 -1.05068,1.123454 -1.94579,1.936523 -1.39039,1.262978 -2.90974,2.372499 -4.49802,3.373055 -0.86381,0.523659 -1.41411,0.863557 -2.289764,1.368482 -1.10691,0.638294 -2.232898,1.26351 -3.443882,1.687454 -0.309831,0.108467 -0.632458,0.176925 -0.948586,0.265271 -0.301943,0.04813 -0.602356,0.108621 -0.905994,0.144441 -0.231587,0.02728 -0.849876,0.03731 -1.097192,0.04445 -0.32561,0.0094 -0.6513,0.02036 -0.976826,0.03194 -0.0168,0.594855 -0.03379,1.189534 -0.05092,1.784212 -0.04079,1.375703 -0.08284,2.751528 -0.130552,4.127204 1.449416,-0.004 2.898619,-0.0027 4.34803,-0.0028 2.507554,0 5.015396,0.0021 7.522946,0.0028 0.83928,3.95e-4 0.44533,2.06e-4 1.18238,4.62e-4 4.02481,0.0014 4.02257,5.69286 -0.002,5.69152 l -1.18238,0 c -2.50663,-6.7e-4 -5.013542,-0.003 -7.520173,-0.003 -1.530339,0 -3.060722,-10e-4 -4.591079,0.003 -0.08784,1.66963 -0.193331,3.33843 -0.324991,5.00542 -0.198404,1.71633 -0.251859,4.29661 -2.646224,4.72209 -2.252866,0.40033 -2.779148,-0.70617 -3.658235,-1.93189 -0.686997,-1.13301 -1.270842,-2.32421 -1.93467,-3.47027 -0.215108,-0.37136 -0.492336,-0.79488 -0.725442,-1.15831 -0.463752,-0.60101 -0.996759,-1.13858 -1.465238,-1.73698 -0.202039,-0.26489 -0.385039,-0.54545 -0.613409,-0.78934 -0.117953,-0.12595 -0.212301,-0.18392 -0.326382,-0.33008 -0.174373,-0.22344 -0.332671,-0.45895 -0.49906,-0.68841 -0.423631,-1.23553 -0.705704,-1.47 -0.142126,-2.91983 0.166019,-0.42708 0.526,-0.754004 0.839793,-1.087934 0.360523,-0.383674 0.999264,-0.602224 1.482367,-0.77637 0.267046,-0.06527 0.53103,-0.145999 0.801368,-0.195827 0.523627,-0.09653 1.312801,-0.157754 1.838838,-0.190274 0.638857,-0.03948 1.278174,-0.06254 1.918004,-0.07917 0.05085,-1.451969 0.09534,-2.904443 0.139349,-4.356364 0.01478,-0.511254 0.02945,-1.022365 0.04398,-1.533754 -0.08781,1.2e-5 -0.175608,-8e-6 -0.263416,0 -1.625045,0.0033 -3.251195,0.0184 -4.874869,-0.05972 -0.690703,-0.04761 -1.040577,-0.06041 -1.737454,-0.15833 -1.350538,-0.189271 -2.668045,-0.574688 -3.89619,-1.170303 -1.057012,-0.597426 -1.452491,-0.763798 -2.422157,-1.564771 -1.643058,-1.357226 -2.873944,-3.115491 -3.936467,-4.943385 -0.610251,-1.188046 -0.889997,-1.65716 -1.376351,-2.916124 -0.613736,-1.588733 -0.970835,-3.257211 -1.185615,-4.942923 -0.231873,-1.748254 -0.342386,-3.507453 -0.454155,-5.266985 0.0034,-0.855743 0.0526,-1.708797 0.08796,-2.562894 0,-2.012212 1.422904,-3.017974 2.845755,-3.017974 l 0,-4.64e-4 z m 39.192929,4.119796 c -0.003,0.0045 -0.0118,0.05818 -0.0102,0.07917 0.003,0.04302 0.003,0.08626 0.005,0.129625 0.005,-0.06849 0.008,-0.137117 0.007,-0.20555 0,-0.0026 -8.4e-4,-0.0025 -0.002,-0.0033 z m -22.827633,39.60356 c -0.25621,0.53389 -0.124459,0.81543 0,0 z"
       id="path4279-5"
       inkscape:connector-curvature="0"
       sodipodi:nodetypes="sssssccccccccccccscccscccccscscscccccccscscssccccccccsccsccscccccccscccccccccscscscccccccccccccc" />
    <path
       style="opacity:1;fill:none;fill-opacity:0.33157893;fill-rule:nonzero;stroke:#ff0000;stroke-width:0.08858268;stroke-linecap:butt;stroke-linejoin:round;stroke-miterlimit:4;stroke-dasharray:none;stroke-dashoffset:0;stroke-opacity:1"
       d="m 478.22852,292.4707 c -88.06121,-2.1e-4 -159.44944,71.38796 -159.44922,159.44922 -2.2e-4,88.06121 71.38801,159.44943 159.44922,159.44922 88.06124,2.1e-4 159.44751,-71.38801 159.44726,-159.44922 2.5e-4,-88.06126 -71.38602,-159.44943 -159.44726,-159.44922 z m -44.92579,27.14453 51.0293,83.05469 69.61719,-68.23242 -33.11914,91.68164 96.75195,11.88672 -92.32617,31.26758 51.0293,83.05468 -82.01172,-52.6875 -33.11914,91.67969 -9.93946,-96.9707 -92.32812,31.26953 69.61719,-68.23242 -82.01172,-52.6875 96.75,11.88672 -9.93946,-96.97071 z"
       transform="matrix(0.28222222,0,0,0.28222222,0,-123)"
       id="path28900"
       inkscape:connector-curvature="0" />
    <path
       style="opacity:1;fill:none;fill-opacity:0.33157893;fill-rule:nonzero;stroke:#ff0000;stroke-width:0.025;stroke-linecap:butt;stroke-linejoin:round;stroke-miterlimit:4;stroke-dasharray:none;stroke-dashoffset:0;stroke-opacity:1"
       d="m 226.78587,-36.672996 c -24.85283,-5.6e-5 -45.00017,20.147272 -45.00011,45.0001132 -6e-5,24.8528328 20.14728,45.0001718 45.00011,45.0001128 24.85284,5.9e-5 45.00018,-20.14728 45.00011,-45.0001128 7e-5,-24.8528412 -20.14727,-45.0001692 -45.00011,-45.0001132 z m -12.67905,7.660793 16.01721,10.290084 18.03191,-6.106913 1.94137,18.9392048 16.01722,10.2900875 -13.59628,13.3256297 1.94138,18.938655 -18.89566,-2.321721 -13.59683,13.326181 -9.96652,-16.220612 -18.89566,-2.321718 6.46796,-17.905677 -9.96597,-16.2206116 18.03191,-6.1069134 6.46796,-17.905676 z"
       id="path28906"
       inkscape:connector-curvature="0" />
    <path
       inkscape:connector-curvature="0"
       style="opacity:1;fill:none;fill-opacity:0.33157893;fill-rule:nonzero;stroke:#ff0000;stroke-width:0.025;stroke-linecap:butt;stroke-linejoin:round;stroke-miterlimit:4;stroke-dasharray:none;stroke-dashoffset:0;stroke-opacity:1"
       d="m 181.03084,45.608 c -24.85283,-6e-5 -45.00018,20.14727 -45.00012,45.000116 -6e-5,24.852834 20.14729,45.000184 45.00012,45.000124 24.85284,6e-5 44.99963,-20.14729 44.99956,-45.000124 C 226.03047,65.75527 205.88368,45.60794 181.03084,45.608 Z m -12.67906,7.66079 14.4016,23.439882 19.64752,-19.256712 -9.34696,25.874603 27.30556,3.354696 -26.0565,8.824406 14.4016,23.439885 -23.14553,-14.86958 -9.34696,25.87404 -2.80513,-27.36728 -26.05705,8.82495 19.64752,-19.256711 -23.14553,-14.869584 27.305,3.354697 -2.80514,-27.367292 z"
       id="path28900-8" />
  </g>
</svg>
