<?xml version="1.0" encoding="UTF-8" standalone="no"?>
<!-- Created with Inkscape (http://www.inkscape.org/) -->

<svg
   xmlns:dc="http://purl.org/dc/elements/1.1/"
   xmlns:cc="http://creativecommons.org/ns#"
   xmlns:rdf="http://www.w3.org/1999/02/22-rdf-syntax-ns#"
   xmlns:svg="http://www.w3.org/2000/svg"
   xmlns="http://www.w3.org/2000/svg"
   xmlns:sodipodi="http://sodipodi.sourceforge.net/DTD/sodipodi-0.dtd"
   xmlns:inkscape="http://www.inkscape.org/namespaces/inkscape"
   version="1.1"
   id="svg2"
   xml:space="preserve"
   width="426.02606mm"
   height="220.02522mm"
   viewBox="0 0 1610.1771 831.59139"
   sodipodi:docname="achterkantBuiten.svg"
   inkscape:version="0.91 r13725"><metadata
     id="metadata8"><rdf:RDF><cc:Work
         rdf:about=""><dc:format>image/svg+xml</dc:format><dc:type
           rdf:resource="http://purl.org/dc/dcmitype/StillImage" /><dc:title></dc:title></cc:Work></rdf:RDF></metadata><defs
     id="defs6" /><sodipodi:namedview
     pagecolor="#ffffff"
     bordercolor="#666666"
     borderopacity="1"
     objecttolerance="10"
     gridtolerance="10"
     guidetolerance="10"
     inkscape:pageopacity="0"
     inkscape:pageshadow="2"
     inkscape:window-width="2560"
     inkscape:window-height="1381"
     id="namedview4"
     showgrid="false"
     units="mm"
     inkscape:zoom="2.691226"
     inkscape:cx="1403.8807"
     inkscape:cy="693.33015"
     inkscape:window-x="0"
     inkscape:window-y="0"
     inkscape:window-maximized="1"
     inkscape:current-layer="g10"
     inkscape:object-nodes="true"
     fit-margin-top="10"
     fit-margin-left="10"
     fit-margin-right="10"
     fit-margin-bottom="10" /><g
     id="g10"
     inkscape:groupmode="layer"
     inkscape:label="box-20170423_015345_480414"
     transform="matrix(1.3333333,0,0,-1.3333333,-2891.5822,1620.9962)"><rect
       style="fill:none;fill-opacity:1;stroke:#ff0000;stroke-width:0.07086615;stroke-miterlimit:4;stroke-dasharray:none;stroke-opacity:1"
       id="rect6353"
       width="1150.8662"
       height="566.92914"
       x="2197.0686"
       y="-1187.3646"
       transform="scale(1,-1)" /><path
       inkscape:connector-curvature="0"
       style="display:inline;fill:none;fill-opacity:1;fill-rule:nonzero;stroke:#ff0000;stroke-width:0.07086615;stroke-linecap:butt;stroke-linejoin:round;stroke-miterlimit:4;stroke-dasharray:none;stroke-dashoffset:0;stroke-opacity:1"
       d="m 2197.0704,1187.3653 0,-111.0437 c 2.3776,2.0894 5.1808,4.1764 8.4176,6.2703 5.7,3.6876 22.9224,12.2359 24.6512,12.2359 0.6864,0 0.7928,-1.5741 0.392,-5.8 -2.2856,-24.1236 -10.8288,-39.5724 -25.8032,-46.6562 -2.5088,-1.1871 -5.612,-2.2399 -6.8936,-2.3407 -0.2848,-0.022 -0.5248,-0.054 -0.764,-0.089 l 0,-28.8344 c 3.3624,1.7837 2.7824,0.1299 0,-8.2344 l 0,-5.21082 c 5.6952,17.95322 11.232,27.09622 21.4816,37.66242 l 6.1136,6.3031 -5.9448,-7.2 c -6.648,-8.0487 -9.9408,-12.7381 -12.5504,-17.8797 l -1.7672,-3.4813 2.9,-5.5172 c 5.808,-11.05282 6.5064,-22.94872 2.0584,-35.13582 l -2.2752,-6.2328 4.3824,-1.9828 4.3832,-1.9828 5.3328,2.7907 c 4.9072,2.5676 5.76,2.7608 10.6736,2.4171 6.468,-0.4525 10.8264,-2.7671 16.976,-9.0156 5.1312,-5.2143 10.444,-12.7502 9.764,-13.85 -0.272,-0.4404 -3.8208,-1.6228 -7.8872,-2.6281 -9.6952,-2.3971 -25.9768,-2.6766 -29.9296,-0.5141 -4.0168,2.1976 -6.1344,5.8383 -6.5232,11.2187 -0.1872,2.5916 -0.024,5.0252 0.3592,5.4079 0.6096,0.605 22.6648,-6.5196 25.936,-8.3782 0.9344,-0.531 0.9224,-0.4013 -0.064,0.6516 -0.676,0.7221 -6.576,3.3125 -13.1096,5.7563 -6.5344,2.4438 -13.9824,5.504 -16.5528,6.8015 l -4.6736,2.3594 -1.5584,-3.05 c -1.4008,-2.747 -4.1656,-6.7272 -7.5248,-10.986 l 0,-330.7609 15.08,0 c -1.928,8.4112 -2.5064,17.59016 -1.2672,25.35624 2.54,15.92472 11.3304,35.75561 22.9296,51.72809 l 3.408,4.69224 1.2216,-2.92656 c 2.2104,-5.29104 6.6816,-24.6936 7.6984,-33.40473 1.1992,-10.27968 0.6392,-26.30016 -1.156,-33.05312 -0.7016,-2.64 -2.9136,-8.13712 -4.9144,-12.2156 -0.032,-0.0624 -0.056,-0.11488 -0.089,-0.17656 l 56.7032,0 c -0.5928,12.0968 2.8368,22.38752 10.2704,30.4312 2.104,2.27696 4.2112,3.90144 4.684,3.60944 1.2616,-0.77952 0.2256,6.3532 -3.536,24.35153 -0.2296,1.1 0.116,0.6328 0.7688,-1.03752 1.1728,-2.99936 3.3808,-13.13329 5.2968,-24.30937 1.4888,-8.68248 0.876,-21.81376 -1.1824,-33.04528 l 1.5104,0 c 0.3552,1.46632 0.672,2.87704 0.88,4.0828 0.8048,4.66224 1.1456,10.72544 0.9856,17.52032 -0.1344,5.7152 -0.064,10.38992 0.1568,10.38752 0.7696,-0.009 6.016,-3.38232 7.9048,-5.08288 2.8744,-2.58752 5.6768,-9.1792 5.6856,-13.37032 0.01,-3.65536 -1.2288,-8.3424 -3.4408,-13.53744 l 41.364,0 c 1.4704,1.43864 2.9504,3.46904 5.3048,7.05464 l 3.8488,5.86256 -1.9264,4.13744 c -2.2568,4.84736 -2.6168,12.5724 -0.7896,16.94536 1.6944,4.05416 8.0584,10.52624 14.5224,14.76873 5.6256,3.69256 10.4952,6.12336 11.0824,5.53128 0.7528,-0.75944 2.044,-13.51177 2.044,-20.19849 0,-11.97792 -2.7936,-19.81696 -8.024,-22.52184 -2.2792,-1.17872 -9.2384,-1.57976 -12.4512,-0.7172 -1.5768,0.42344 -1.3288,1.15072 4.272,12.58904 3.2688,6.6768 6.5384,12.86064 7.2672,13.74064 0.9224,1.11488 0.6752,1.02736 -0.8144,-0.28752 -1.1768,-1.03792 -4.7408,-6.97792 -7.9216,-13.2 -5.972,-11.68072 -10.616,-19.2404 -14.2408,-23.18432 -0.1624,-0.17664 -0.3432,-0.34744 -0.5184,-0.52032 l 94.848,0 c 0.5848,1.48632 1.228,2.95248 1.936,4.39216 3.4848,7.08344 6.6584,11.46808 7.1832,9.92504 0.1568,-0.46256 1.776,-6.73888 3.712,-14.3172 l 1.5312,0 c -0.5464,2.25456 -1.1096,4.60144 -1.6104,6.60624 -2.7232,10.89416 -10.236,27.59016 -15.564,34.58592 -1.716,2.25296 -2.2432,3.3012 -1.2048,2.4 2.824,-2.4528 8.588,-11.72096 12.6968,-20.41872 3.4696,-7.34472 4.0168,-8.04848 8.6768,-11.15944 4.7216,-3.152 9.0224,-7.23592 12.7672,-12.014 l 26.5808,0 c -0.04,0.0104 -0.064,0.016 -0.098,0.0264 -3.8136,1.05912 -7.7416,4.37176 -9.1328,7.70152 -1.7768,4.25272 -1.3528,14.18544 1.0048,23.54536 2.2944,9.11144 8.0304,24.71873 9.0856,24.71873 1.8272,0 13.58,-20.62561 16.9424,-29.73441 4.76,-12.89552 3.1424,-21.04016 -4.9312,-24.82496 -1.0352,-0.4852 -1.9696,-0.99248 -2.6784,-1.4328 l 91.6392,0 c -8.9304,5.47208 -14.7992,11.44296 -18,18.2 -2.4096,5.08616 -2.5496,5.89224 -2.492,14.19216 0.048,6.63936 0.4456,9.84456 1.628,13.05784 l 1.5672,4.25937 4.3,-6.60161 c 6.2136,-9.54088 18.5072,-24.51816 28.8232,-35.1156 9.4088,-9.66632 8.4376,-8.30208 -5.9792,8.38752 -11.3928,13.1892 -21.74,27.02512 -26.2848,35.15001 -4.1632,7.44256 -7.7576,17.53864 -7.6216,21.40312 0.072,1.98464 0.2744,1.54352 0.8096,-1.74064 0.3952,-2.42 2.3776,-7.87232 4.4048,-12.1156 l 3.6872,-7.71568 6.1016,-0.5656 c 8.304,-0.77144 19.728,-3.76368 26.2792,-6.88129 7.556,-3.59592 15.332,-11.43368 17.78,-17.92184 2.8832,-7.64 4.2104,-16.76144 3.7968,-25.99216 l 112.3568,0 c -8.728,5.85736 -16.0416,17.84984 -20.2704,33.65 -0.9344,3.49192 -1.4568,6.5908 -1.16,6.88744 0.7976,0.79816 16.3968,-1.17504 23.3552,-2.95464 18.6624,-4.77296 28.2032,-14.662 29.012,-30.0672 0.1936,-3.698 0.1144,-6.72344 -0.1776,-6.72344 -0.2928,0 -1.8864,0.6904 -3.5408,1.5344 -1.6544,0.844 -7.8504,3.586 -13.7688,6.09376 -5.9176,2.50776 -11.2096,4.92192 -11.7592,5.364 -0.5504,0.44208 -1,0.584 -1,0.31568 0,-1.01096 6.368,-4.42328 17.2,-9.21568 3.3176,-1.46792 6.9872,-3.24696 10.1424,-4.88432 l 34.9744,0 c 1.5832,1.52216 4.1432,3.7828 8.0672,7.20936 35.6048,31.0912 59.3976,46.38281 72.1704,46.38281 2.9888,0 3.8456,-0.28464 3.8456,-1.27816 0,-0.70288 -3.5104,-4.7788 -7.8,-9.05625 -8.3584,-8.33384 -19.6736,-16.35352 -32.2032,-22.82496 -7.4784,-3.86224 -9.3784,-5.26864 -4.1968,-3.10784 10.2376,4.26944 23.7896,12.50936 32.0464,19.4844 8.6416,7.29992 14.0432,14.29617 19.416,25.14841 2.6056,5.26112 4.7376,9.25976 4.7376,8.886 0,-1.31712 -5.9192,-14.49768 -8.1456,-18.14064 -1.3344,-2.1828 -2.2544,-4.82464 -2.2544,-6.47193 0,-4.42032 -2.9384,-14.72168 -5.6472,-19.80464 -7.0576,-13.24064 -20.124,-21.90968 -40.128,-26.42656 l 181.7832,0 c 3.3928,6.55944 7.9296,12.65616 13.0888,17.41088 3.5216,3.24584 12.9352,9.78128 14.0904,9.78128 0.2968,0 -1.1784,-8.73 -3.2768,-19.4 -0.5208,-2.6484 -1.0288,-5.28632 -1.504,-7.79216 l 1.3248,0 c 0.6472,3.04328 1.264,5.90016 1.9424,9.17184 l 4.14,19.97968 -0.4856,12.42032 c -0.268,6.83105 -0.684,13.50033 -0.9248,14.82033 -0.3824,2.09504 -0.3376,2.17136 0.3512,0.60472 1.1688,-2.65744 2.6016,-18.11649 2.3176,-25.00473 -0.22,-5.32456 -0.01,-6.40528 1.8952,-9.6 4.6104,-7.74496 7.1496,-14.36304 8.3776,-22.39216 l 34.8048,0 c -5.9424,12.58376 -11.2176,27.54848 -14.9064,42.70312 -3.0592,12.57137 -5.6864,27.51297 -4.964,28.23593 0.6856,0.6852 18.484,-9.23824 28.8256,-16.07184 12.5312,-8.28065 23.58,-17.33081 32.94,-26.97977 8.8568,-9.13024 15.3856,-18.29792 19.8392,-27.88744 l 83.2608,0 c -0.4096,9.98224 1.5704,21.14816 4.2752,20.28592 3.0088,-0.95896 -4.6272,4.65248 -11.1952,8.22808 -3.836,2.08808 -6.8552,3.91496 -6.7112,4.05944 0.4256,0.42512 11.32,-4.97968 15.688,-7.7828 l 4.0216,-2.58128 3.492,3.22032 c 3.916,3.60968 12.3192,9.3928 12.8608,8.85152 0.1936,-0.19384 -0.1912,-3.72064 -0.8544,-7.83904 -0.756,-4.69824 -0.9216,-7.76976 -0.448,-8.24376 0.4744,-0.47408 0.9536,0.83672 1.2872,3.5188 1.6616,13.37232 5.936,27.75625 9.592,32.27497 1.6488,2.03864 1.5472,1.60816 -0.684,-2.85472 -1.444,-2.88968 -3.256,-7.82497 -4.0256,-10.96713 l -1.4,-5.71256 4.6176,-5.4328 c 8.744,-10.28936 14.1584,-20.11848 16.072,-29.02496 l 21.2856,0 0,116.90937 c -1.1544,1.71168 -2.276,3.0828 -2.5432,3.0828 -0.2808,0 -1.1632,-1.20848 -1.9584,-2.6844 -1.2856,-2.38768 -1.3368,-3.22632 -0.4744,-7.61248 4.1304,-20.99368 -8.2208,-35.11288 -37.1704,-42.49064 -8.7712,-2.23528 -8.4696,-2.33336 -7.9832,2.58752 0.8848,8.95576 3.3096,19.3544 6.3408,27.2 0.3632,0.94024 0.1576,1.4 -0.6248,1.4 -2.5624,0 -8.1048,5.17248 -12.0016,11.2016 -3.8928,6.02216 -4.256,6.3464 -8.1392,7.25936 -4.9344,1.15992 -17.4728,5.59792 -17.0392,6.0312 0.1712,0.17112 2.2616,-0.35896 4.644,-1.17808 13.364,-4.59536 31.264,-6.96384 42.8544,-5.67032 6.0952,0.68032 17.6696,3.65944 16.9264,4.35624 -0.1384,0.12936 -2.9496,-0.46616 -6.2496,-1.32344 -7.6984,-1.99976 -21.0176,-2.7104 -29.1472,-1.55472 -3.4896,0.49632 -6.4944,1.052 -6.6768,1.2344 -0.6784,0.67824 4.7504,7.64024 8.0912,10.37816 9.7728,8.008 22.108,8.67288 38.1496,2.05776 4.8112,-1.98384 5.6504,-2.14376 5.172,-0.9812 -1.752,4.25344 -1.6888,4.2624 6.7424,0.97656 0.2656,-0.1036 0.7984,-0.31952 1.0872,-0.4328 l 0,1.62032 c -6.008,2.37056 -15.2592,5.7108 -22.6184,8.0812 -5.94,1.91304 -10.316,3.49304 -9.724,3.51096 1.3088,0.04 8.0152,-1.80224 16.1848,-4.44536 l 6.0592,-1.96088 4.4128,2.01872 c 1.9528,0.89392 3.82,1.6508 5.6856,2.29688 l 0,10.09848 c -0.1704,0.0866 -0.3576,0.17048 -0.5216,0.25776 -4.7072,2.50136 -13.2968,9.89769 -13.2968,11.45001 0,0.284 5.2832,1.02432 13.8184,2.01096 l 0,1.46248 c -1.436,-0.14728 -2.6344,-0.26384 -4.1048,-0.4156 -15.1168,-1.56032 -27.6504,-2.67136 -27.8512,-2.47032 -0.2008,0.20104 3.5064,0.83728 8.2376,1.4156 l 8.6032,1.0516 4.5512,4.0312 4.552,4.03128 -5.3032,0.5672 c -9.8072,1.04936 -15.9944,2.22312 -22.4456,4.26096 l -6.4144,2.02656 -3.1952,-1.62968 c -4.5352,-2.31352 -16.1976,-5.48072 -23.248,-6.31256 -3.3,-0.38944 -6.1512,-0.57272 -6.336,-0.40776 -0.6696,0.59848 2.536,13.64176 4.7824,19.45312 1.2672,3.27672 2.2248,6.03008 2.1288,6.11872 -0.097,0.0886 -5.3832,-0.5056 -11.7472,-1.32032 -6.364,-0.81472 -11.6928,-1.36088 -11.8408,-1.21248 -0.372,0.3716 8.3176,1.88408 17.1312,2.98128 7.2528,0.90296 7.3336,0.93776 8.9656,3.84216 3.9832,7.0876 10.804,13.10016 17.2704,15.22344 1.736,0.57 5.7856,2.28456 9,3.81096 l 5.8456,2.77496 -0.082,4.91248 c -0.116,7.13264 -0.6352,8.1852 -5.4688,11.09376 -7.9136,4.76216 -9.9664,12.60568 -6.3688,24.3328 1.8528,6.03864 9.2296,20.97369 12.1344,24.56721 l 1.8472,2.2844 2.8936,-4.36096 c 14.4936,-21.82865 14.7256,-38.68137 0.664,-48.08441 -1.088,-0.72752 -2.3112,-1.32184 -2.72,-1.32184 -1.096,0 0.04,22.70056 1.4168,28.39376 0.6392,2.63632 1.0576,4.8972 0.9296,5.02496 -0.4336,0.434 -2.044,-4.20336 -2.8528,-8.21872 -1.016,-5.04216 -2.06,-38 -1.2032,-38 0.3496,0 3.0608,0.72192 6.0248,1.60472 7.3248,2.18128 15.3896,3.44472 24.2032,3.79216 l 0,83.175 c -1.0232,-0.3384 -2.084,-0.6556 -3.22,-0.9344 -6.0088,-1.4747 -17.0992,-2.2895 -18.4936,-1.3578 -0.9168,0.6122 -0.8648,1.4346 0.32,5.0266 3.9352,11.9245 10.6312,23.4203 15.8376,27.1922 1.7336,1.2555 3.6072,2.0169 5.556,2.2953 l 0,15.4578 c -7.84,-1.5609 -20.9104,-2.3814 -27.676,-1.7125 -13.5624,1.3405 -27.8864,8.9294 -32.7896,17.3719 l -1.4432,2.48892 2.6432,0.031 c 8.6296,0.1024 37.9352,1.264 59.2656,2.2484 l 0,1.1672 c -10.2432,-0.3212 -24.2576,-0.8214 -43.2152,-1.5312 -32.344,-1.211 -43.9672,-1.2248 -27.5208,-0.033 l 8.2864,0.6016 5.2048,3.989 c 13.2056,10.1214 28.0032,14.3542 50.2264,14.3687 2.3272,0 4.664,-0.05 7.0184,-0.15 l 0,166.2454 -68.8544,0 c -1.2352,-2.7104 -2.2424,-5.2609 -2.8736,-7.3625 -0.3448,-1.147 0.4824,-2.9094 2.8144,-6 10.1648,-13.4724 11.0472,-29.6329 2.6152,-47.9016 -1.504,-3.2598 -2.6416,-5.9884 -2.528,-6.0625 0.1136,-0.074 3.3312,-1.662 7.1512,-3.5297 20.2264,-9.8892 32.4968,-28.5472 38.2424,-58.1531 1.6056,-8.2729 3.1576,-27.5281 2.2192,-27.5281 -0.2408,0 -3.2664,2.0261 -6.7224,4.5031 -15.3352,10.9903 -26.6552,22.0633 -34.3776,33.6281 -8.12,12.1588 -10.9912,21.7968 -10.5816,35.5204 l 0.2768,9.2531 -3.8936,-5.6531 c -4.676,-6.7892 -10.0048,-13.2516 -10.924,-13.2516 -1.732,0 -8.5936,18.9919 -10.4048,28.8 -1.2784,6.9172 -1.2944,18.5516 -0.032,24 1.8824,8.1304 6.3024,15.8713 12.8392,22.4844 3.3072,3.3469 6.788,6.4908 7.7344,6.9859 1.7152,0.8973 1.7176,0.8869 0.6456,-3.2859 -1.7176,-6.6897 -3.5408,-20.5098 -3.944,-29.9063 l -0.372,-8.6781 1.8848,14.0093 c 2.8296,21.0552 4.632,29.1927 8.772,38.1282 l -104.1624,0 c 1.6712,-15.8586 1.212,-46.9375 -0.9288,-46.9375 -0.3608,0 -2.852,1.6499 -5.536,3.6672 -17.2488,12.9662 -31.0464,28.4716 -39.0448,43.2703 l -29.2248,0 c -2.8048,-2.48 -5.3344,-4.3755 -7.2472,-5.3313 -4.092,-2.0446 -7.7608,-3.0643 -7.7608,-2.1578 0,0.1366 0.8832,2.5019 1.9624,5.2563 0.2912,0.744 0.6,1.4871 0.9216,2.2328 l -1.572,0 c -2.656,-6.0294 -3.7752,-10.5993 -4.8824,-18.7235 -0.86,-6.306 -1.0824,-7.0314 -1.1488,-3.7562 -0.048,2.2325 0.4904,7.3842 1.188,11.4469 1.008,5.8689 1.0888,7.8729 0.376,11.0328 l -152.1696,0 c -3.488,-4.6975 -8.7112,-9.4984 -15.6752,-14.4016 -6.4224,-4.5214 -6.6,-4.7339 -6.6,-7.8984 0,-4.7572 -1.5296,-9.0894 -4.3672,-12.3719 l -2.5,-2.8937 -1.3048,1.9921 c -1.7448,2.662 -5.0472,10.6047 -6.2016,14.9156 -1.2072,4.5066 -1.78,3.9604 -0.736,-0.7015 1.7744,-7.9204 8.2304,-19.3117 17.1016,-30.1781 3.28,-4.0175 1.9112,-3.0836 -2.9312,2 -2.4104,2.53 -5.3744,6.1016 -6.5872,7.9375 -1.508,2.2829 -3.5936,4.0176 -6.5984,5.4875 -8.2136,4.0186 -11.2696,11.0354 -10.4096,23.9 0.3232,4.8346 1.04,9.3229 1.8544,12.2125 l -97.5448,0 c -0.3904,-0.7475 -1.6032,-2.5716 -3.8816,-5.7375 -11.0824,-15.4019 -10.6344,-14.524 -11.2344,-22 -0.4408,-5.4893 -0.2184,-8.2219 1.1472,-14.1735 1.6112,-7.0209 1.852,-7.4881 5.0712,-9.8 1.8592,-1.3353 5.1936,-4.7045 7.408,-7.4875 11.996,-15.0752 17.9688,-35.1127 19.0568,-63.9343 0.284,-7.5285 0.8376,-13.4047 1.2624,-13.4047 0.416,0 3.8232,-1.4377 7.5744,-3.1953 l 6.8208,-3.1969 -0.4688,2.9969 c -0.2576,1.6476 -0.7144,5.4253 -1.0128,8.3953 l -0.5432,5.4 3.9104,-0.014 c 2.1504,-0.01 7.6488,-0.546 12.2176,-1.1953 37.4048,-5.3165 52.0936,-17.2036 52.0936,-42.1547 l 0,-7.9938 -6.2,5.8126 c -7.7216,7.239 -19.3688,16.578 -29.136,23.3624 -8.9504,6.2167 -16.664,11.1633 -16.664,10.686 0,-0.1906 4.7696,-3.7565 10.6,-7.9235 27.296,-19.5099 44.0944,-35.2727 50.4888,-47.37332 3.004,-5.6848 2.6008,-6.5103 -0.5,-1.025 -1.4248,2.5202 -4.3888,6.76042 -6.5888,9.42182 l -4,4.839 -6.4,-0.6218 c -9.0344,-0.8765 -21.6408,-0.4689 -26.6936,0.8624 -4.1792,1.1013 -4.4504,1.0672 -10.1936,-1.2718 l -5.8992,-2.4031 4.0656,-5.30302 4.0672,-5.3048 -4.712,4.9328 -4.7128,4.93432 -7.9608,-0.4359 c -5.9544,-0.3253 -9.256,-0.1022 -13.0952,0.8843 -5.1832,1.3321 -13.3152,5.4301 -13.828,6.9688 -0.3384,1.0144 -5.728,-1.037 -16.0048,-6.0906 -4.0888,-2.0107 -6.7128,-3.0558 -5.8328,-2.3234 1.9736,1.6423 22.8592,11.7589 27.0736,13.114 2.064,0.6638 2.808,1.2524 2.2672,1.7938 -0.5416,0.5413 -1.6152,0.4032 -3.2688,-0.4219 l -2.4624,-1.2281 -5.9112,8.1359 c -6.3608,8.7551 -13.0128,18.9385 -17.2248,26.3656 -2.9568,5.2141 -2.196,5.1219 -11.6344,1.4079 -3.0584,-1.2034 -5.8064,-2.6938 -6.108,-3.3125 -0.3016,-0.6187 -1.3176,-4.5035 -2.2576,-8.6329 -4.1864,-18.3912 -12.2464,-31.0129 -23.0456,-36.089 -4.6656,-2.1928 -12.9208,-3.97092 -18.5152,-3.98902 -4.2016,-0.014 -4.2768,-0.055 -3.772,-2.0672 1.9008,-7.5729 1.7792,-26.5449 -0.1816,-28.5062 -0.3656,-0.3655 -2.412,2.6703 -4.548,6.7469 -6.228,11.8832 -11.7136,21.7489 -12.5736,22.6124 -0.4384,0.44 3.0312,-6.87 7.708,-16.2437 4.6776,-9.3737 8.4016,-17.5139 8.2776,-18.0891 -0.284,-1.3188 5.0968,-12.5675 5.8736,-12.2796 0.316,0.1172 4.0456,4.7952 8.2888,10.3968 4.244,5.6016 8.124,10.4375 8.6224,10.7453 1.0072,0.6224 -0.4696,-1.5539 -8.2328,-12.1297 -9.0848,-12.3761 -8.568,-10.4558 -4.8112,-17.9281 1.7896,-3.5595 3.0752,-6.4719 2.8576,-6.4719 -0.2176,0 -1.2864,1.71 -2.376,3.8 -1.0896,2.09 -2.2808,4.2399 -2.6472,4.7782 -0.3728,0.5472 -0.6784,-3.3326 -0.692,-8.8 -0.032,-11.5017 -1.3496,-17.29889 -5.9624,-26.17817 -1.7144,-3.3 -4.8264,-7.95272 -6.9144,-10.33904 -2.3656,-2.70256 -3.42,-4.46424 -2.7968,-4.67192 5.4776,-1.82608 19.3672,-16.97017 19.3672,-21.11713 0,-1.83 -12.1936,-9.89784 -18.0904,-11.97032 -6.6992,-2.35472 -11.3368,-2.69856 -16.4376,-1.21568 -5.3896,1.56688 -10.7192,5.52816 -14.66,10.89688 -2.4328,3.3136 -3.3616,4.01232 -5.0936,3.8344 -2.072,-0.21272 -2.1272,-0.0962 -2.5184,5.21248 -0.4472,6.06576 -0.7424,6.41304 -6.6672,7.8344 -5.6408,1.35328 -6.04,0.65832 -5.3032,-9.26408 0.3264,-4.4 0.7784,-11.6 1.0032,-16 0.548,-10.72504 -0.5592,-4.19456 -1.8768,11.07192 l -1.012,11.72184 -6.9376,7.02496 c -5.5464,5.61553 -7.6664,8.47977 -10.5688,14.27817 l -3.6312,7.25312 -3.8144,-8.28904 c -4.2032,-9.13664 -7.3272,-12.63872 -12.0688,-13.52817 -3.9968,-0.74984 -10.688,0.89145 -16.9608,4.16097 l -5.2544,2.73904 -4.8552,-1.5984 c -2.6704,-0.87912 -6.7584,-1.9988 -9.0856,-2.48912 l -4.2328,-0.89216 1.6888,-2.52657 c 13.4168,-20.07352 12.376,-43.95656 -3.092,-70.94216 -2.108,-3.6768 -4.2152,-6.81184 -4.6816,-6.9672 -0.4656,-0.15544 -2.2848,1.442 -4.0416,3.55 l 0,0 c -7.0024,8.39944 -14.048,21.67344 -16.6832,31.4328 -2.1832,8.08424 -1.9024,19.63728 0.6656,27.42184 2.1712,6.58272 6.884,15.12 10.9192,19.77817 l 2.4248,2.8 0.1672,-18.00001 c 0.1432,-15.4624 0.2464,-16.81584 0.7344,-9.6 0.3128,4.62 0.612,13.10896 0.6656,18.8656 0.056,5.75673 0.368,10.73473 0.6984,11.06097 0.3296,0.32632 0.9936,7.85576 1.4736,16.7328 l 0.8728,16.14061 0.1456,-15.59997 0.144,-15.6 3.6792,-3.85624 3.6784,-3.85784 4.1032,0.9688 c 16.7144,3.94128 34.7232,13.37928 43.9112,23.014 7.1888,7.53795 6.5304,8.19805 -0.9288,0.93128 -6.9952,-6.81432 -15.0784,-12.22816 -24.3856,-16.33128 l -4.7048,-2.07496 0.3832,5.97968 c 0.7024,10.94792 6.2904,19.20773 16.4672,24.34523 4.9552,2.5012 12.9864,4.8813 16.4744,4.8813 1.1464,0 2.0704,0.27 2.0504,0.6 -0.016,0.33 -2.9336,2.76 -6.4752,5.4 -8.1376,6.0659 -18.2312,16.5227 -20.5264,21.2641 -3.0648,6.3311 -1.836,13.8748 2.864,17.5719 l 2.0248,1.5922 -1.9264,2.0562 c -1.06,1.1309 -4.0008,3.3384 -6.5376,4.9063 -2.5368,1.5679 -4.436,3.0261 -4.2216,3.2406 0.9208,0.9207 10.0464,-5.5037 15.6688,-11.0313 6.72,-6.6061 11.0592,-12.6389 16.9608,-23.5765 4.476,-8.2953 4.3256,-6.2424 -0.2144,2.9344 -3.888,7.8585 -7.2016,12.6872 -12.6416,18.4218 l -4.3456,4.5813 2.1544,0.8187 c 3.0736,1.1685 8.9592,1.0124 11.4912,-0.3046 4.8128,-2.5042 9.0312,-9.8607 10.6368,-18.5516 0.48,-2.5982 1.0368,-5.25 1.2376,-5.8938 0.2008,-0.6437 1.792,2.0472 3.5344,5.9797 4.6152,10.4167 4.3472,10.3286 10.68,3.4891 13.1064,-14.1566 21.208,-31.2807 21.2576,-44.9329 0.024,-5.69205 -2.204,-15.39893 -4.8824,-21.30621 -2.3936,-5.27936 -7.0928,-13.13833 -7.5704,-12.66089 -0.1424,0.14312 -0.9768,7.93657 -1.852,17.31873 -0.876,9.38208 -1.8176,17.28467 -2.0936,17.56097 -0.276,0.2763 -0.2904,-2.5528 -0.032,-6.28753 1.5928,-22.86072 2.1672,-29.23025 2.6736,-29.67505 0.6536,-0.57424 7.5424,-2.3156 9.1592,-2.3156 0.7816,0 1.3424,2.28864 2.0064,8.20001 1.7984,16.00864 6.4352,26.80277 15.4032,35.85787 7.4784,7.5508 14.9424,11.8225 25.8032,14.7672 4.416,1.1974 4.6168,1.8113 -2.6312,-8.0251 -7.1056,-9.6442 -15.036,-21.39413 -12.4192,-18.39997 1.1544,1.31997 6.4616,8.11737 11.7952,15.10627 5.3336,6.9888 10.3616,12.8812 11.1736,13.0937 0.8128,0.2125 1.4704,0.6136 1.4608,0.8922 -0.01,0.2787 -1.4056,2.9805 -3.1032,6.0031 l -3.0872,5.4954 -6.728,2.5312 c -18.0368,6.7848 -30.3584,20.515 -35.0232,39.02652 -2.2624,8.9802 -3.4592,21.5604 -2.8208,29.6781 0.5248,6.6788 0.6368,7.0025 2.2656,6.5578 4.2728,-1.1669 18.2544,-8.718 23.4752,-12.6781 l 5.7624,-4.3703 2.552,4.5312 c 15.3856,27.3307 31.6408,35.6032 53.7248,27.3391 2.5296,-0.9467 4.5984,-1.9657 4.5968,-2.2641 0,-0.2983 -2.3592,-1.76 -5.2376,-3.2484 -6.5344,-3.3786 -19.7744,-11.7415 -27.1592,-17.1531 -7.5208,-5.5107 -20.4,-15.8164 -20.4,-16.3235 0,-0.2241 1.1696,0.4837 2.6,1.5735 25.1248,19.1469 47.6008,32.8481 61.4,37.4281 2.86,0.9492 5.2888,1.8121 5.3968,1.9172 0.1088,0.105 -0.86,2.1415 -2.1512,4.5265 -3.7096,6.849 -9.6032,22.1017 -11.4144,29.5375 -4.196,17.2336 -0.6088,35.9043 8.6144,44.8438 1.5016,1.4555 2.8608,2.4914 3.0216,2.3015 0.16,-0.1899 4.1664,-18.3453 8.9032,-40.3453 4.736,-22 8.7504,-40.151 8.92,-40.3344 0.7056,-0.7618 0.1392,2.726 -2.8496,17.5344 -2.64,13.0805 -5.512,26.4486 -15.372,71.536 l -0.8608,3.936 -1.7704,-5.536 c -6.4128,-20.0424 -22.1336,-36.3346 -47.8624,-49.6 l -7.8832,-4.064 4.2576,-3.2141 c 5.0072,-3.7809 17.4504,-15.3539 17.4504,-16.2313 0,-0.9344 -12.3368,-3.1718 -22.7312,-4.1218 -20.5176,-1.8752 -31.5632,2.4802 -32.9576,12.9952 l -0.536,4.0328 -4.5224,-8.6952 c -2.4872,-4.7826 -6.4808,-11.563 -8.8776,-15.0672 -5.62,-8.2162 -17.4408,-20.0054 -23.596,-23.5344 -2.6512,-1.5197 -5.5312,-3.8292 -6.4,-5.1328 -2.8808,-4.3192 -5.5792,-5.7032 -11.1184,-5.7032 -2.8816,0 -5.9544,0.5 -7.2128,1.1735 -1.952,1.045 -2.2688,1.0337 -2.9,-0.094 -3.5376,-6.3215 -11.5088,-14.2831 -14.292,-14.2765 -0.724,0 -0.224,0.6325 1.1752,1.4859 2.7736,1.691 8.7992,8.2886 10.4112,11.3985 l 1.0824,2.0875 -6.164,0.5218 c -3.3896,0.2863 -7.192,0.7996 -8.4528,1.1407 -2.2856,0.6181 -2.2744,0.6348 4.0432,5.5218 6.4248,4.9706 8.7496,7.2036 8.136,7.8172 -0.1864,0.1864 -4.1056,-2.6495 -8.712,-6.3031 -8.7712,-6.957 -17.8528,-17.1478 -23.3752,-26.2297 -3.6368,-5.9814 -3.9912,-5.3335 -0.4864,0.8906 2.8776,5.1114 8.1608,12.1686 13.68,18.2735 2.8136,3.1122 3.8064,4.8533 3.8064,6.6843 0,4.1613 2.3704,11.9761 5.6768,18.7078 9.0984,18.5278 27.8168,32.3964 56.7232,42.0282 6.952,2.3166 20.4296,5.8824 25.7872,6.8218 l 2.988,0.5235 -1.0928,-3.4875 c -0.6008,-1.9177 -1.376,-4.206 -1.7232,-5.086 -0.6032,-1.5273 -0.5608,-1.5386 0.9328,-0.2312 2.3152,2.0262 7.0952,3.8341 10.0816,3.8125 1.444,-0.01 4.7672,-0.8992 7.384,-1.975 2.6168,-1.0759 4.8264,-1.8775 4.908,-1.7812 0.082,0.096 1.8032,5.1469 3.8264,11.2249 10.7728,32.3668 25.4616,50.3417 46.636,57.0656 3.3952,1.0784 6.9888,1.8532 7.9832,1.722 1.7024,-0.2246 1.4552,-0.8436 -4.2176,-10.5954 -7.5032,-12.8968 -12.8608,-22.957 -11.1,-20.8422 0.7328,0.88 5.2496,8.1381 10.0376,16.1297 4.7872,7.9917 12.4376,19.5117 17.0016,25.6 4.7736,6.368 8.2952,10.7095 9.5752,12.0079 l -30.46,0 c -1.68,-4.9464 -1.6112,-4.2804 -1.2312,-2.1376 0.082,0.4618 0.2656,1.2401 0.4864,2.1376 l -89.1816,0 c 0.064,-0.2391 0.1472,-0.4728 0.208,-0.7141 0.7464,-2.9667 1.4144,-3.8326 3.8392,-4.9828 3.76,-1.7838 14.9264,-8.5384 18.4408,-11.1547 l 2.7056,-2.014 -3.3056,-1.3235 c -1.8184,-0.7277 -3.3064,-1.6097 -3.3064,-1.9594 0,-0.8085 6.2896,-1.2685 12.5936,-0.9219 4.5456,0.2499 4.9328,0.4256 5.8576,2.6579 1.4352,3.465 7.4696,9.1855 10.9504,10.3812 4.484,1.5404 11.8704,1.2073 18.1184,-0.8172 6.4304,-2.0839 14.88,-6.1915 14.88,-7.2343 0,-1.0792 -9.3464,-9.378 -14.6328,-12.9923 -14.0816,-9.6285 -23.368,-9.4974 -28.4624,0.4016 -2.2288,4.3317 -1.7696,5.2485 2.6952,5.3844 1.32,0.04 7.26,0.9044 13.2,1.9219 13.5272,2.317 8.6184,2.6354 -6.824,0.4421 -12.4384,-1.7666 -22.7392,-2.0482 -27.8512,-0.7609 -3.4144,0.8598 -3.7864,0.7806 -17.0872,-3.6516 -0.6552,-0.2184 -0.188,-1.8232 1.4656,-5.0296 1.5304,-2.9664 2.3248,-5.5703 2.1496,-7.0391 -0.2528,-2.1213 -0.3296,-2.0376 -0.8528,0.9312 -0.3168,1.7945 -1.6856,4.7945 -3.0424,6.6672 l -2.4672,3.4047 -4.1456,-0.6672 c -2.28,-0.3672 -7.3848,-0.6672 -11.3448,-0.6672 -5.8216,0 -7.736,0.3134 -9.9984,1.6422 -3.5504,2.086 -6.0392,5.7681 -6.7016,9.9141 -0.2856,1.7841 -0.6296,3.2437 -0.764,3.2437 -1.3696,0 -9.9528,-3.0766 -13.736,-4.9234 -2.64,-1.2886 -4.08,-1.7585 -3.2,-1.0453 2.4064,1.9505 8.2616,4.7735 13.2,6.3656 2.42,0.7803 4.4888,1.4879 4.5968,1.5735 0.1088,0.086 -0.852,2.1071 -2.1344,4.4921 -1.2408,2.3088 -2.7784,6.0419 -3.5032,8.4751 l -26.0248,0 c -0.2416,-3.08 -0.7712,-4.9217 -1.9344,-7.8954 -6.576,-16.8022 -23.8744,-32.6208 -50.044,-45.764 -6.8648,-3.4479 -8.956,-4.2178 -8.956,-3.2954 0,0.8083 6.448,16.4993 11.1856,27.2172 4.8664,11.0085 9.852,21.1312 14.5848,29.7376 l -45.7456,0 c 0.9856,-6.5063 1.604,-12.6084 1.4184,-15.3797 l -0.2432,-3.6485 -5.8328,4.0234 c -7.2104,4.9743 -13.5792,9.9715 -19.1176,15.0048 l -58.6152,0 c -0.1304,-1.3724 -0.2768,-2.7509 -0.444,-4.1376 -0.6376,-5.28 -1.1664,-9.87 -1.1752,-10.2 -0.048,-1.7684 -1.9384,0.054 -5.8088,5.6 -1.7464,2.5019 -3.7648,5.5355 -5.8584,8.7376 l -47.3376,0 c -4.2224,-6.3816 -7.9584,-11.5108 -8.3352,-11.1328 -0.5352,0.534 -2.2048,5.2962 -4.0272,11.1328 l -124.9,0 c 0.3728,-3.6804 0.6192,-7.9477 0.7672,-12.9376 0.2872,-9.6965 0.016,-19.3491 -0.8296,-29.55 -0.6912,-8.332 -1.1296,-15.2725 -0.9776,-15.4249 0.7656,-0.7649 3.1784,22.7356 3.6328,35.3749 l 0.5168,14.4 4.852,-5.0015 c 14.6848,-15.1387 15.0216,-33.017 1.0592,-56.2485 -4.5384,-7.5521 -10.3592,-15.0583 -11.7192,-15.1124 -0.5224,-0.021 -3.0152,2.3924 -5.5392,5.3624 -13.3048,15.6557 -20.0584,31.8024 -18.0984,43.2704 1.7544,10.2619 8.2648,19.0263 19.4456,26.1796 3.268,2.0908 6.0752,3.9082 6.2392,4.0391 0.228,0.1828 -0.024,2.6219 -0.4688,5.6485 l -41.2768,0 z m 384.5832,0 c -2.4984,-4.4313 -5.3048,-8.916 -8.3688,-13.3375 -4.2816,-6.1779 -5.3056,-8.0174 -3.1176,-5.6 3.332,3.6807 8.928,11.8366 13.1944,18.9375 l -1.708,0 z m 308.9088,0 c 1.6688,-1.2162 3.1264,-2.1375 3.4344,-2.1375 0.2328,0 0.6216,0.8821 1.0144,2.1375 l -4.4488,0 z m 21.0768,0 c -1.836,-2.922 -3.7216,-5.5884 -5.5408,-7.7609 -1.8608,-2.2229 -3.184,-4.2401 -2.9416,-4.4828 0.5952,-0.5957 5.708,5.947 9.936,12.2437 l -1.4536,0 z m 99.68,-3.675 7.7968,-5.1828 c 34.932,-23.2187 59.2744,-50.0942 67.72,-74.7687 4.2856,-12.5214 5.5176,-29.5492 2.988,-41.3297 -1.2632,-5.8829 -2.7488,-10.4212 -3.2376,-9.8923 -1.0816,1.1712 -11.7344,21.4851 -27.4688,52.3766 -16.1584,31.7253 -27.704,53.1344 -28.6536,53.1344 -0.1696,0 1.68,-3.69 4.1096,-8.2 2.4288,-4.51 11.9488,-23.2032 21.1536,-41.5406 23.5208,-46.8558 35.8984,-69.2906 44.6168,-80.8594 4.0728,-5.4035 4.02,-6.1292 -0.082,-1.1234 -2.8752,3.5092 -11.0256,15.5202 -13.7912,20.3234 -0.8232,1.43 -1.9472,2.6 -2.4968,2.6 -1.8784,0 -8.6496,2.5468 -14.2544,5.3625 -25.1672,12.6425 -41.9712,37.2034 -51.5832,75.3953 -4.112,16.34 -7.6656,41.3704 -7.0808,49.8735 l 0.264,3.8312 z m -603.0376,-0.8625 c 0.696,0 -3.9552,-7.1498 -9.7296,-14.9594 l -6.0328,-8.1593 0,-8.7891 c 0,-33.5052 -20.512,-62.4198 -62.8,-88.5266 -8.4592,-5.2222 -29.9824,-16.3752 -33.8816,-17.5562 -1.776,-0.538 -1.8504,-0.4192 -1.3448,2.1109 5.784,28.9263 16.2632,56.1514 29.0168,75.3797 4.2928,6.4727 14.332,17.2578 20.4736,21.9953 5.916,4.5627 16.6376,10.0174 24.536,12.4844 6.576,2.054 20.2408,3.9092 19.8104,2.689 -0.3456,-0.9809 -19.8368,-22.8493 -39.812,-44.6687 -22.1032,-24.1436 -38.6056,-43.2 -37.4112,-43.2 0.1776,0 3.5696,3.69 7.5376,8.2 3.968,4.51 16.8568,18.64 28.6408,31.4 30.6704,33.2095 49.9216,55.548 57.0528,66.2 1.9888,2.97 3.764,5.4 3.944,5.4 z m -82.9032,-2.5344 c 0.3376,-0.019 0.76,-3.8387 1.0032,-11.1 0.216,-6.4254 0.6128,-8.3595 2.5048,-12.2266 1.9656,-4.0178 2.1952,-5.2384 1.8344,-9.7343 -0.4536,-5.6423 -2.26,-9.3942 -7.6768,-15.95 -2.9856,-3.6131 -11.1208,-10.8547 -12.1952,-10.8547 -0.2648,0 -1.2944,2.61 -2.2848,5.8 -1.088,3.5004 -1.972,8.8933 -2.2312,13.6031 -0.5272,9.5771 0.74,13.6344 5.5408,17.7438 2.7416,2.3463 8.932,5.2531 11.188,5.2531 1.1256,0 0.6488,-4.1243 -1.2928,-11.2 -1.0256,-3.74 -2.1072,-7.7 -2.4032,-8.8 l -0.5384,-2 1.1544,2 c 0.6352,1.1 2.0016,5.24 3.0376,9.2 1.5864,6.0622 1.8768,9.0962 1.848,19.2 -0.016,6.1422 0.2136,9.0827 0.5112,9.0656 z m 323.292,-3.0781 c -1.1656,-0.01 -1.1856,-0.1192 -0.1512,-0.7875 1.5664,-1.0125 2.6256,-1.0125 2,0 -0.272,0.44 -1.1048,0.7942 -1.8488,0.7875 z m 18.2488,-1.6562 c -1.0664,0.039 -1.0664,-0.042 0,-0.7313 0.66,-0.4266 1.92,-0.7554 2.8,-0.7313 1.6,0.044 1.6,0.044 0,0.7313 -0.88,0.3782 -2.14,0.7071 -2.8,0.7313 z m 200.5136,-21.9579 c 0.5624,-0.077 1.3176,-1.0074 2.9424,-3.2344 14.0504,-19.255 23.744,-43.6111 23.744,-59.6624 0,-7.0288 0.024,-7.1268 2.2,-7.95 11.4392,-4.3345 23.888,-13.6721 34.5656,-25.9266 2.7968,-3.2094 3.184,-3.4684 1.9592,-1.3078 -3.6672,6.4723 -15.8904,17.9169 -24.1184,22.5828 -1.8672,1.0585 -3.3968,2.1868 -3.4,2.5078 -0.016,1.3368 6.5416,3.8172 10.0904,3.8172 7.4344,0 13.8624,-6.2927 19.848,-19.4281 2.4368,-5.3471 7.48,-20.061 8.7864,-25.636 0.6208,-2.6492 1.1384,-2.729 -10.7312,1.6423 -16.4168,6.0458 -29.9032,14.6446 -33.3144,21.2405 -1.792,3.4646 -1.6312,8.6466 0.388,12.5203 0.9488,1.8208 1.7264,3.492 1.7264,3.7141 0,0.2221 -1.6808,1.1243 -3.7344,2.0047 -4.0432,1.733 -5.0304,1.301 -5.0552,-2.2109 -0.024,-3.7571 -7.404,-21.1207 -8.5056,-20.0187 -0.1656,0.1656 -2.8416,7.8316 -5.9456,17.0359 -3.104,9.2042 -5.9944,17.0872 -6.4232,17.5172 -0.5072,0.5077 -0.5072,-0.053 0,-1.6 5.9864,-18.3176 11.48,-37.0731 13.1168,-44.7813 2.1568,-10.1601 3.32,-17.207 2.8376,-17.1906 -0.16,0.01 -1.6664,5.7447 -3.3496,12.7531 l -3.0616,12.7422 -3.4688,2.8422 c -7.4112,6.0731 -15.2664,19.1511 -18.5328,30.8531 -2.1784,7.806 -2.028,31.8955 0.2648,42.4 2.4448,11.2034 5.0656,20.5054 6.2216,22.0859 0.3448,0.4721 0.6128,0.7339 0.9496,0.6875 z M 2453.18,1136.7263 c 2.1368,-0.011 4.24,-0.1282 6.2608,-0.3579 13.3528,-1.5172 27.796,-7.6969 42.7736,-18.3031 7.1384,-5.0552 19.1048,-15.5887 19.1048,-16.8172 0,-0.3413 -3.8704,-1.2502 -8.6,-2.0203 -11.1808,-1.8202 -33.6344,-2.2942 -42.2,-0.8906 -14.6408,2.3992 -25.4504,7.3352 -34.2576,15.6437 -6.0216,5.6807 -10.8744,12.0462 -9.1816,12.0454 0.5712,-3e-4 7.3392,-0.6901 15.0392,-1.5344 20.248,-2.2203 22.244,-2.3778 20.4,-1.5954 -0.88,0.3735 -9.7,1.7471 -19.6,3.0516 -9.9,1.3046 -21.42,3.1243 -25.6,4.0438 -9.48,2.0853 -20.1608,4.9425 -19.8048,5.2984 0.1472,0.1474 6.3008,-0.9757 13.6736,-2.4953 l 13.4048,-2.7625 2.9872,1.5235 c 6.4544,3.2928 16.3384,5.2202 25.6,5.1703 z m 813.3688,-3.6844 c -0.1248,0.097 -0.2128,-0.7291 -0.2128,-2.2141 0,-1.98 0.156,-2.79 0.3472,-1.8 0.1904,0.99 0.1904,2.61 0,3.6 -0.048,0.2475 -0.093,0.3818 -0.1344,0.4141 z m -51.6264,-15.8141 c 0.9192,0 5.7696,-8.102 8.3344,-13.9218 5.9632,-13.5281 5.9232,-25.2799 -0.1096,-32.1407 -1.8104,-2.0593 -8.2064,-6.7375 -9.2096,-6.7375 -1.4688,0 1.364,26.2742 3.4192,31.7156 0.4744,1.2562 0.5272,1.9244 0.1184,1.4844 -2.7992,-3.0096 -4.6408,-15.7214 -5.68,-39.2 l -0.6368,-14.4 -0.1208,10.4782 -0.1184,10.478 -3.2392,1.461 c -5.6808,2.5614 -9.5424,8.5486 -9.556,14.8141 -0.01,3.6926 2.3888,11.4696 5.6416,18.3015 3.4352,7.2124 10.0376,17.6672 11.1568,17.6672 z m 61.7688,-0.8344 c -0.116,-0.014 -0.172,-0.1146 -0.172,-0.2984 0,-0.3794 16.3744,-20.7565 20.7264,-25.7922 3.6976,-4.2779 4.2704,-3.7926 0.8128,0.6875 -13.644,17.6774 -20.2488,25.5428 -21.3672,25.4031 z m -993.0032,-5.5218 c 4.0568,0.086 8.7392,-0.6036 13.1704,-2.05 6.4992,-2.1216 12.0464,-4.6813 12.804,-5.9079 1.0688,-1.7285 -11.276,-11.1688 -18.4776,-14.1297 -6.028,-2.4784 -10.9272,-2.4982 -15.7328,-0.066 l -3.736,1.8907 0,-5.6375 c 0,-4.21 0.4528,-6.5651 1.7856,-9.2922 3.6456,-7.4563 2.0288,-15.5115 -4.8032,-23.9344 -2.816,-3.4724 -12.74,-12.1172 -13.9088,-12.1172 -0.3392,0 -0.9656,0.649 -1.3896,1.4422 l 0,0 c -1.7472,3.2644 -3.4704,14.9051 -3.1152,21.0437 0.2976,5.1395 0.7784,6.9198 2.6968,9.9985 2.548,4.0892 8.1992,7.8123 13.2512,8.7312 l 2.9176,0.5313 -1.0768,-5.0735 c -0.5928,-2.7904 -1.7784,-7.0534 -2.636,-9.4734 -2.688,-7.5911 -2.7288,-7.7549 -1.392,-5.6 2.2552,3.6356 5.2472,14.338 6.1512,22.0031 l 0.8912,7.5485 -2.4656,3.1125 c -2.5328,3.1986 -2.5264,4.1359 0.024,4.1359 0.8064,0 1.4656,0.3208 1.4656,0.7141 0,1.3161 -6.5416,-0.9225 -14.2192,-4.8672 -4.1768,-2.1455 -7.7168,-3.7783 -7.8672,-3.6282 -0.4352,0.4355 10.056,6.4381 14.0504,8.0391 2.2472,0.9007 4.9672,2.9735 7.1216,5.4266 1.9176,2.1836 4.8736,4.6774 6.5688,5.5422 1.9864,1.0132 4.7624,1.5504 7.9176,1.6172 z m 842.956,-4.5985 4.8392,-6.2047 c 5.0624,-6.4916 11.3776,-17.7781 13.0048,-23.2406 0.524,-1.76 1.1088,-3.6886 1.3,-4.2859 0.2416,-0.7571 1.3024,-0.2239 3.5032,1.7641 5.3696,4.851 9.2872,6.4739 15.628,6.4718 3.908,0 6.6824,-0.4921 9.1856,-1.6234 l 3.5896,-1.6204 -8.7752,-5.7952 c -7.6616,-5.0601 -12.4536,-7.6879 -20.4,-11.1876 -1.9336,-0.8513 -1.92,-0.8652 0.4,-0.4203 6.5016,1.2471 18.1592,8.0782 34.9344,20.4735 13.8056,10.2002 14.472,10.1648 1.7904,-0.095 l -6.3248,-5.1188 0,-6.6078 c 0,-6.0676 -0.2,-6.8912 -2.4344,-10.0813 -4.3128,-6.1564 -16.1952,-10.7833 -32.3128,-12.5828 -5.3032,-0.5921 -7.8872,-1.2734 -9.4264,-2.4844 l -2.12,-1.6687 -4.9288,14.2312 c -5.7896,16.7223 -6.1016,17.5119 -5.504,13.8313 0.2504,-1.54 2.4856,-8.92 4.9688,-16.4 4.3128,-12.993 4.52,-13.9951 4.6384,-22.4359 l 0.124,-8.8344 5.5968,-8.3656 c 7.528,-11.2537 9.7984,-15.74662 9.7984,-19.39062 0,-6.3648 -5.18,-12.5072 -14.7128,-17.45 l -4.9,-2.539 -1.7464,-6.1938 c -0.9608,-3.406 -2.8528,-8.4876 -4.2032,-11.2921 -1.3512,-2.8046 -2.2344,-4.3785 -1.9624,-3.4985 0.272,0.88 1.5312,4.62 2.7968,8.311 4.4016,12.8349 5.9064,21.714 5.9168,34.889 0.01,10.32452 -0.2488,12.82132 -1.8392,17.88432 -2.1176,6.7417 -3.1216,7.4494 -1.2448,0.8781 2.708,-9.4857 1.9336,-38.76702 -1.0504,-39.74832 -1.4848,-0.4883 -10.976,9.3911 -12.9096,13.4375 -2.7128,5.6766 -3.5936,11.94122 -2.5904,18.41082 1.2536,8.0792 5.5256,18.7092 11.0064,27.3922 l 1.9424,3.0781 2.5824,-4.2672 c 4.1368,-6.8318 5.4504,-8.6656 6.2048,-8.6656 0.9976,0 0.88,6.8775 -0.2112,12.311 -0.824,4.1036 -1.2248,4.7348 -3.8792,6.089 -4.3688,2.2289 -9.9872,8.0415 -12.4816,12.9156 -2.8544,5.5758 -3.4944,14.6714 -1.5688,22.2844 1.432,5.6641 8.8824,21.3985 11.8952,25.1234 l 1.88,2.3219 z m -840.372,-4.3468 c -3.8176,0.1458 -14.012,-1.5106 -14.9528,-2.4298 -0.5232,-0.511 -0.056,-0.5998 1.3392,-0.2546 1.1768,0.2904 5.3168,0.9912 9.2,1.5562 3.8832,0.5651 5.8688,1.0725 4.4136,1.1282 z m 396.7864,-13.5344 c -1.8024,0.019 -3.0624,-0.1685 -3.5096,-0.6156 -0.7328,-0.7327 0.064,-0.9485 3.5048,-0.9485 6.3048,0 17.0336,-2.0077 25.2448,-4.7234 7.96,-2.6328 9.4952,-2.9256 6.6208,-1.2641 -6.0696,3.5078 -24.052,7.4685 -31.8608,7.5516 z m -156.2,-0.9359 c 3.78,0.022 7.5792,-0.1643 10.9416,-0.5797 8.2584,-1.0204 23.52,-4.3222 25.7536,-5.5719 1.072,-0.6003 0.2096,-1.8407 -5.0704,-7.2797 -18.3288,-18.8807 -37.5592,-27.2921 -54.7048,-23.9282 -7.4168,1.4551 -19.2592,6.3468 -19.2592,7.9547 0,0.3134 1.7136,0.7971 3.8088,1.0751 7.188,0.9533 42.4592,12.0989 41.4584,13.1 -0.1656,0.1654 -5.4688,-1.3368 -11.7848,-3.3375 -22.7736,-7.214 -28.9024,-8.5694 -40.8448,-9.036 -8.4088,-0.3284 -12.7528,-0.1056 -18.6504,0.9563 -4.2288,0.7613 -7.5472,1.5261 -7.3736,1.7 0.1744,0.1739 4.0688,-0.2158 8.652,-0.8672 8.8992,-1.2647 15.8128,-1.5186 19.7808,-0.7251 1.9632,0.3928 3.0472,1.515 5.4864,5.686 5.4272,9.2801 14.5568,16.2025 25.172,19.086 4.0848,1.1096 10.3328,1.7292 16.6344,1.7672 z m -307.0832,-5.1438 c -0.1208,0 -0.5432,-0.2845 -1.256,-0.8422 -7.6864,-6.0093 -14.924,-15.7097 -21.1656,-28.3688 l -0.2832,-0.5734 0,-3.6484 c 4.6312,10.5938 11.316,20.8932 19.0128,29.0906 2.764,2.9436 3.9576,4.3383 3.692,4.3422 z m 175.9704,-14.7828 c 5.9496,0.067 12.4872,-1.6436 19.8248,-5.1094 5.8464,-2.7609 16.1784,-9.1487 16.1144,-9.9625 -0.04,-0.5283 -27.1704,-16.2399 -34.2392,-19.8297 -6.0232,-3.0589 -11.152,-3.433 -14.9904,-1.0922 -3.5928,2.1912 -7.2456,6.9158 -10.3192,13.3484 -2.5088,5.25 -2.952,5.7276 -6.1608,6.6516 -3.8008,1.0943 -17.6208,7.393 -17.1824,7.8312 0.1504,0.1508 2.5808,-0.7676 5.4,-2.0405 18.9632,-8.5616 44.4416,-12.0651 56.7264,-7.8016 l 3.6,1.2484 -3.6,-0.5734 c -7.3512,-1.1705 -27.268,-0.6497 -33.8,0.8828 -3.4104,0.8 -6.2,1.8207 -6.2,2.2687 0,0.4482 1.956,2.7263 4.3496,5.0625 6.1512,6.0055 12.828,9.0295 20.4768,9.1157 z m 185.8296,-10.3078 c 1.7184,-0.018 1.48,-0.5804 -0.2232,-7.6844 -3.9168,-16.3361 -11.4312,-25.0503 -21.6328,-25.0876 -4.1808,-0.015 -9.6,1.326 -9.6,2.3767 0,0.3985 3.3296,4.1645 7.4,8.3687 4.0696,4.2042 7.0896,7.6424 6.7096,7.639 -1.1648,-0.01 -12.0496,-11.3651 -14.96,-15.6062 -1.5096,-2.2 -4.2656,-6.88 -6.1248,-10.4 -1.8584,-3.52 -3.3904,-6.1932 -3.4032,-5.939 -0.056,1.1672 4.2312,10.724 6.3832,14.2218 1.8904,3.0721 2.3952,4.8122 2.3952,8.2485 0,5.4222 2.9096,11.6478 6.8496,14.6531 5.4232,4.1359 19.2752,9.1636 25.3504,9.2015 0.3264,0 0.6104,0.01 0.856,0.01 z m -246.2472,-1.472 c 0.04,-0.025 0.091,-0.1293 0.1408,-0.3218 0.2016,-0.77 0.2016,-2.03 0,-2.8 -0.2008,-0.77 -0.3656,-0.14 -0.3656,1.4 0,1.155 0.094,1.7974 0.2248,1.7218 z m 0.4144,-4.5218 1.0872,-6.4 c 1.2888,-7.5778 3.2,-15.0327 4.8912,-19.0813 0.9784,-2.3415 1.652,-2.9224 3.4072,-2.9359 3.312,-0.026 12.3152,-3.4418 16.2752,-6.175 12.9816,-8.9614 20.6904,-25.20682 23.036,-48.54672 1.2304,-12.2402 1.16,-18.861 -0.2,-18.861 -0.5936,0 -3.564,1.3098 -6.6,2.911 -21.2952,11.2292 -34.2136,24.816 -38.3408,40.3249 -1.3768,5.1751 -1.4344,18.61062 -0.1032,24.34062 l 0.9256,3.9781 4.9168,-8.7781 c 4.8976,-8.7419 17.42,-27.33162 20.4608,-30.37652 1.9464,-1.9486 0.288,0.8177 -7.9168,13.2 -15.2792,23.06062 -20.5656,35.46632 -21.4752,50.39992 l -0.364,6 z m 476.4528,-11.6515 c -0.1664,-0.078 -0.064,-0.897 0.4584,-2.3891 0.468,-1.3425 0.9976,-2.2924 1.1792,-2.1109 0.1808,0.1814 -0.032,1.2795 -0.4712,2.4405 -0.5608,1.4736 -0.9992,2.1372 -1.1664,2.0595 z m -521.8984,-1.7719 c 0.064,0 0.1192,-0.01 0.1656,-0.02 1.5136,-0.4974 2.9512,-13.269 2.5392,-22.5563 -0.5488,-12.3943 -2.908,-19.50472 -9.3248,-28.10142 -3.04,-4.0726 -12.3088,-11.0717 -13.6032,-10.2719 -0.9544,0.5903 -1.532,-3.2716 -2.2768,-15.2266 l -0.6464,-10.4 -0.089,9.2 c -0.236,24.3032 4.0952,42.29232 14.2496,59.18742 4.444,7.3938 3.9336,7.7699 -0.8952,0.6594 -6.1768,-9.0961 -11.3056,-22.52372 -13.572,-35.53892 l -0.9144,-5.2485 -3.12,3.0453 c -4.4248,4.3211 -6.2904,8.6062 -6.2904,14.4406 0,7.66712 3.872,14.52932 13.92,24.66562 8.1056,8.1773 17.896,16.123 19.8576,16.1656 z m 162.8312,-5.525 c 0.1592,-0.01 0.284,-0.023 0.3664,-0.054 0.8848,-0.3394 1.3352,-2.4017 1.7328,-7.9282 0.9168,-12.7388 -1.564,-28.87622 -5.6976,-37.06862 -3.7808,-7.4947 -10.6232,-12.974 -19.6248,-15.7156 -4.5208,-1.3767 -7.0464,-1.6025 -15.3216,-1.3672 l -9.9112,0.2828 -2.0184,-3.2 c -2.4272,-3.8453 -6.9336,-13.251 -6.9344,-14.4749 0,-0.481 2.504,-2.8557 5.5656,-5.2782 5.5128,-4.3615 5.632,-4.4093 12.2,-4.8828 18.4232,-1.328 38.7096,-13.3422 55.992,-33.15937 3.6528,-4.18904 8.1896,-8.80248 10.08,-10.2516 4.6168,-3.53856 9.7624,-8.22449 9.7624,-8.88905 0,-0.29648 -0.5184,-1.10976 -1.1504,-1.80784 -1.0144,-1.12104 -0.5464,-2.20112 4.0048,-9.25 l 5.152,-7.97968 -0.4848,8.38592 c -0.5824,10.06032 0.812,17.83521 4.5704,25.48601 2.7816,5.66232 10.6648,14.1584 13.8872,14.96712 1.9984,0.50168 2.0208,0.5964 2.0208,8.84849 l 0,8.3406 -4.2,-0.6281 c -11.8664,-1.7731 -19.724,0.3123 -25.3784,6.7359 -2.9192,3.3169 -5.4872,8.6396 -4.5968,9.5297 0.636,0.6359 20.5656,-3.6372 26.372,-5.6547 6.2872,-2.1843 6.5888,-1.4193 0.4152,1.05 -6.3152,2.5259 -15.6384,4.5274 -32.5576,6.9876 -8.3776,1.2181 -15.096,2.351 -14.9296,2.5171 0.1656,0.1661 4.8984,-0.1313 10.516,-0.6594 l 10.212,-0.9593 1.6688,2.3124 c 6.6768,9.2624 14.7976,10.5684 27.2784,4.3876 5.908,-2.926 15.2152,-9.3446 22,-15.1735 l 2.8,-2.4047 -6,-2.7719 c -3.3,-1.5238 -7.4704,-3.1627 -9.2672,-3.6421 l -3.2656,-0.8719 0.032,-15.8047 c 0.024,-12.28445 -0.288,-17.23037 -1.392,-22.20469 -2.0608,-9.28777 -5.7872,-20.03433 -9.0144,-26.00001 -1.6704,-3.08664 -2.1304,-4.3872 -1.1312,-3.2 5.5768,6.62912 11.2432,23.44121 13.0312,38.67193 l 1.0168,8.67336 3.7304,-3.2812 c 7.8464,-6.90672 9.3368,-15.68344 4.4136,-25.96409 -4.3944,-9.17432 -13.0568,-19.92824 -22.9824,-28.52656 l -4.7552,-4.11872 -0.772,2.0328 0,0 c -0.5456,1.43496 -1.7136,2.28488 -3.9752,2.89376 -6.18,1.66416 -23.7432,7.83312 -31.2672,10.9828 -5.5736,2.33328 -9.2,3.31304 -13.6,3.67344 -7.7712,0.63648 -11.0272,1.62848 -15.7112,4.78432 -4.5072,3.03632 -10.8288,10.51456 -10.5112,12.43441 0.164,0.99312 -0.4696,1.4104 -2.428,1.59848 l -2.648,0.25312 1.1608,-2.25313 c 1.3648,-2.65232 4.6848,-13.17408 4.284,-13.57504 -0.152,-0.15192 -7.9296,3.53064 -17.284,8.1828 -9.3544,4.65216 -17.1616,8.30609 -17.3472,8.12033 -0.3448,-0.34504 15.5392,-8.96057 27.5784,-14.95937 3.6816,-1.83448 7.1016,-3.68376 7.6,-4.10784 0.4984,-0.424 5.8264,-3.98448 11.8408,-7.914 6.0144,-3.92944 11.2208,-7.60784 11.5688,-8.17344 0.3488,-0.56552 -0.4312,-0.32904 -1.7344,0.52656 -1.3024,0.8556 -6.5216,4.13488 -11.5968,7.28744 l -9.2272,5.73288 -10.3728,0.4156 c -8.1952,0.32896 -11.7152,0.85304 -16.772,2.49688 -17.5816,5.71568 -34.0904,20.25361 -47.4344,41.76873 -4.2792,6.89925 -8.9656,15.82185 -8.9656,17.07035 0,0.9803 3.6872,0.454 14.8,-2.111 26.9248,-6.2147 46.5136,-16.97311 57.2856,-31.45935 2.8056,-3.77256 4.668,-5.55624 5.7984,-5.55624 1.3584,0 0.8368,0.8472 -2.8312,4.6 -6.576,6.7276 -11.292,14.81256 -13.4152,22.99999 -1,3.8567 -1.1176,16.4 -0.1536,16.4 0.376,0 8.6656,-6.8678 18.4192,-15.261 9.7544,-8.39315 18.0664,-15.14315 18.4728,-14.99995 0.6416,0.22584 -44.7896,39.84285 -46.456,40.51095 -0.3432,0.1379 -0.7624,-1.3022 -0.9328,-3.2 -0.3064,-3.4258 -0.3096,-3.421 -0.448,0.6718 -0.1256,3.6966 -0.4488,4.3887 -3.1392,6.6923 l -3,2.5687 2.9448,-2.0921 c 1.6208,-1.1503 3.104,-2.0907 3.2944,-2.0907 0.1904,0 1.1112,2.1022 2.048,4.6719 3.504,9.6087 13.488,23.5356 31.6312,44.12492 l 9.5208,10.8031 -7.372,-7.2 c -7.968,-7.78132 -15.8936,-16.81842 -22.3,-25.42802 -2.5672,-3.4508 -4.2512,-5.0861 -4.6208,-4.4875 -1.0576,1.711 -1.3656,15.5112 -0.4432,19.8141 3.4352,16.01572 18.0568,27.93672 43.3856,35.37012 2.9312,0.8602 5.8064,1.424 6.92,1.3829 z m 368.68,-10.5266 c -0.2864,0.048 -0.4888,-0.1286 -0.4888,-0.4781 0,-0.4659 0.36,-0.8469 0.8,-0.8469 0.44,0 0.8,0.159 0.8,0.3531 0,0.194 -0.36,0.575 -0.8,0.8469 -0.1104,0.068 -0.2152,0.109 -0.3112,0.125 z m 375.1392,-4.9516 c 8.5544,-0.031 11.7736,-1.455 14.5248,-6.4234 2.2096,-3.9895 3.6536,-12.80272 2.9576,-18.05142 -0.5232,-3.9439 -0.468,-4.0883 3.0472,-7.7595 3.86,-4.0319 8.3688,-9.6079 10.6216,-13.139 2.2096,-3.4633 0.9544,-2.5678 -1.8248,1.3016 -3.7624,5.239 -15.8024,17.1446 -22.1544,21.9062 -7.1408,5.35324 -17.808,10.89192 -24.116,12.52182 -7.9616,2.057 -7.652,1.4501 0.7376,-1.4422 4.3024,-1.4833 10.6024,-4.3766 14,-6.43122 6.6448,-4.0186 16.2648,-11.4711 16.7592,-12.9828 0.168,-0.514 -1.764,-1.7378 -4.3384,-2.7468 -3.5496,-1.3911 -6.3416,-1.8322 -11.86,-1.8735 -6.5648,-0.049 -7.6888,0.1786 -12.4328,2.5141 -4.912,2.418 -12.1056,8.7941 -16.848,14.9328 -2.1568,2.79282 -9.5016,14.93552 -9.5016,15.70932 0,0.6052 28.8312,2.0058 40.428,1.964 z m -695.9608,-3.2218 c 5.2432,0.063 10.56,-0.5866 14.692,-1.925 17.756,-5.7509 34.1136,-25.18022 45.4832,-54.02652 4.264,-10.8175 4.4824,-11.6071 3.2104,-11.5687 -0.5792,0.018 -6.0928,2.7565 -12.2528,6.0874 -34.7,18.7633 -57.0896,34.0842 -65.6248,44.9063 -3.3848,4.29182 -5.9832,10.03442 -4.9896,11.02802 0.7648,0.7649 14.3584,-4.7616 20.3112,-8.25768 6.932,-4.07114 16.5896,-11.17404 24.9048,-18.31564 l 6.1984,-5.3235 -4.4,4.5954 c -17.232,17.9984 -38.2432,29.14442 -58,30.76702 l -8,0.6563 6.4512,0.1125 c 3.5496,0.062 8.4816,-0.2622 10.9592,-0.7203 3.668,-0.6781 5.4416,-0.5789 9.5472,0.5344 3.3968,0.9211 7.4312,1.401 11.5096,1.45 z m 528.2968,-4.7719 c 0.048,10e-5 0.085,-0.012 0.1216,-0.034 1.556,-0.9614 10.1016,-19.57482 13.0536,-28.43272 9.3928,-28.1859 7.8032,-49.8845 -4.9328,-67.35003 -1.5392,-2.11072 -2.948,-3.68888 -3.1312,-3.50624 -0.1824,0.18272 -1.9464,8.36704 -3.9208,18.18747 -1.9736,9.8204 -3.808,18.0588 -4.0752,18.3063 -0.668,0.6185 0.1872,-5.0411 3.3144,-21.95 2.7416,-14.82745 4.8472,-35.15362 4.2264,-40.80002 l -0.3512,-3.2 -0.1344,2.80472 c -0.072,1.54272 -0.6776,7.4452 -1.3408,13.11713 -1.1864,10.14328 -1.2568,10.36664 -4.2264,13.59536 -10.2856,11.18312 -16.1368,29.26971 -15.0392,46.48281 0.6264,9.8311 2.7824,20.3407 6.372,31.061 3.6528,10.9108 8.6824,21.71582 10.064,21.71862 z m 54.5016,-5.9797 c 0.8528,0 12.9712,-18.14592 15.6528,-23.43742 7.7672,-15.3274 8.1768,-25.9091 1.1968,-30.8797 -1.2696,-0.9037 -3.2816,-2.0139 -4.4744,-2.4672 l -2.1688,-0.825 2.3984,-4.1516 c 1.3184,-2.2837 3.8864,-5.8829 5.7072,-7.9969 4.672,-5.424 3.46,-4.7784 -1.9016,1.0126 -8.1096,8.7599 -14.3264,24.6371 -16.5024,42.15 -1.1712,9.4278 -1.9096,9.5521 -1.2,0.2015 0.6592,-8.6771 3.3104,-19.8924 6.2872,-26.5906 1.1208,-2.5214 1.784,-4.7402 1.4752,-4.9312 -1.0896,-0.6733 -8.5608,1.1437 -10.536,2.5625 -1.1,0.79 -2.9,3.2166 -4,5.3937 -2.8704,5.6804 -2.616,15.6022 0.7392,28.7594 2.7568,10.8139 6.3464,21.19992 7.3264,21.19992 z m 181.5328,-1.7047 c 0.3624,0 0.7264,-0.054 1.0016,-0.1656 0.5496,-0.2219 0.1,-0.4031 -1,-0.4031 -1.1,0 -1.5504,0.1812 -1,0.4031 0.2744,0.1109 0.636,0.1656 0.9984,0.1656 z m -359.008,-3.04832 c 4.3256,0.2823 29.2616,-7.6613 40.7408,-13.1375 21.8768,-10.4371 35.9872,-24.7439 41.8984,-42.4797 2.4696,-7.4086 4.052,-19.248 3.2688,-24.46099 l -0.5472,-3.6312 -12.976,13.09689 c -17.5312,17.6935 -25.8216,24.8342 -13.6472,11.7562 21.4408,-23.03213 31.4528,-31.63773 46.0904,-39.61717 7.5608,-4.1216 5.6736,-4.10912 -2.2968,0.016 -3.3888,1.75392 -9.2584,5.294 -13.0424,7.8672 -6.6104,4.4948 -7.1304,4.698 -13.2792,5.18752 -27.2992,2.17312 -48.8504,20.25805 -65.5016,54.96565 -5.1344,10.7024 -12.1224,29.4344 -11.2896,30.2672 0.095,0.095 0.2936,0.1515 0.5816,0.1703 z m -568.8392,-8.4469 1.5176,-4.3234 c 5.66,-16.1306 5.4656,-33.964 -0.4968,-45.7313 -2.4096,-4.7544 -9.5688,-12.614 -12.06,-13.2391 -1.7952,-0.4507 -1.912,-0.8335 -1.912,-6.21405 0,-3.15392 0.376,-8.73792 0.836,-12.40936 1.0408,-8.29728 0.5136,-9.3876 -0.7256,-1.50312 -4.0856,25.98083 -1.6312,47.66643 7.5192,66.43753 1.1624,2.3855 1.4664,3.4953 0.708,2.5828 -4.9712,-5.9802 -10.1088,-22.6472 -11.4672,-37.1969 -0.4648,-4.9742 -1.0152,-9.2134 -1.2224,-9.4203 -0.6608,-0.661 -6.6976,4.5837 -8.3416,7.2469 -0.872,1.4132 -2.0104,4.2516 -2.5272,6.3078 -2.4384,9.6983 4.9904,23.8759 21.096,40.2625 l 7.076,7.2 z m 960.9672,-4.5438 c 0.064,0 0.1064,-0.015 0.1328,-0.042 0.2088,-0.2092 0,-3.9442 -0.4672,-8.2984 -2.72,-25.4025 -9.7952,-51.8829 -18.572,-69.51565 -10.1128,-20.31617 -26.188,-35.95585 -44.0328,-42.83753 -5.948,-2.29392 -17.2208,-5.18784 -17.8312,-4.57808 -0.3208,0.32144 16.536,24.18264 36.0408,51.01561 16.164,22.23645 28.344,39.82245 29.9216,43.20005 l 0.9344,2 -1.4232,-1.9953 c -10.3744,-14.5392 -23.6856,-32.93235 -32.7168,-45.20475 -23.5144,-31.95233 -38.7288,-54.17033 -45.56,-66.53441 -2.3904,-4.32648 -4.3448,-7.58616 -4.3448,-7.24376 0,1.06312 4.7904,10.23288 9.3704,17.936 2.4064,4.04672 4.1856,7.66472 3.9528,8.04064 -0.232,0.37592 -0.8408,3.83184 -1.3528,7.67968 -1.3144,9.8724 0.6576,25.21281 4.5376,35.31561 0.496,1.29128 0.016,1.11984 -2.5488,-0.89848 -10.052,-7.9252 -26.7,-16.97273 -36.7592,-19.97809 -2.64,-0.78872 -4.9144,-1.50672 -5.052,-1.59376 -0.1376,-0.087 1.9296,-4.60496 4.5928,-10.04064 6.352,-12.96472 8.8824,-20.5012 9.3608,-27.8828 0.5256,-8.09944 -0.3272,-9.25688 -4.1192,-5.59064 -6.972,6.74136 -15.08,19.47872 -20.5448,32.27656 -1.856,4.34736 -3.5152,7.48528 -3.6864,6.97344 -0.7408,-2.22392 7.5256,-19.65792 13.6816,-28.85312 4.3664,-6.52248 15.7912,-18.40624 17.6952,-18.40624 0.6496,0 1.74,0.80024 2.4248,1.77816 1.584,2.26144 1.6424,1.16968 0.064,-1.236 -1.1424,-1.74416 -1.0048,-1.90672 4.4,-5.24216 3.0688,-1.89368 5.5816,-3.6184 5.5816,-3.83128 0,-0.41944 -8.4904,4.23208 -10.3192,5.65312 -0.8656,0.67296 -1.496,0.33528 -2.8,-1.5 -0.9256,-1.3024 -3.3912,-4.21432 -5.4808,-6.47184 -2.5712,-2.77704 -3.8,-4.79952 -3.8,-6.25312 0,-5.25744 -4.7864,-11.98672 -10.6864,-15.02656 -4.5608,-2.34992 -12.744,-3.84056 -21.1688,-3.85624 -7.3624,-0.0136 -7.4456,0.008 -6.9024,1.78592 l 0,0 c 1.3056,4.26888 6.248,13.36728 9.5384,17.55936 4.944,6.29976 9.8264,9.04296 16.0192,9.00312 4.6728,-0.0296 12.4496,-2.61984 12.3624,-4.1172 -0.056,-0.93256 -7.572,-6.78368 -13.1624,-10.24528 -5.708,-3.53424 -3.5064,-3.0316 2.8,0.63904 4.2248,2.4592 20.852,18.06608 20.7496,19.47656 -0.1296,1.78672 -7.756,6.10496 -13.2776,7.5172 -16.1744,4.13672 -28.512,15.36744 -33.944,30.89848 -1.2336,3.52776 -3.928,14.92584 -3.928,16.6172 0,0.11448 -1.44,0.85784 -3.2,1.65152 -1.76,0.79368 -3.2,1.72408 -3.2,2.06872 0,0.34472 1.26,1.08224 2.8,1.63912 1.54,0.55688 2.8,1.47624 2.8,2.04216 0,0.75768 -0.896,0.6216 -3.4,-0.5156 -4.1672,-1.89272 -27.1416,-9.27264 -31,-9.95784 -1.54,-0.27352 3.32,1.6944 10.8,4.37344 l 13.6,4.87184 3.576,4.93913 c 3.4768,4.80088 3.5808,5.11824 3.7144,11.33904 0.098,4.61632 0.7192,8.01168 2.2232,12.1844 1.1472,3.18176 2.1104,6.78175 2.1408,7.99995 0.032,1.2183 0.32,2.8796 0.6392,3.6922 0.5312,1.3498 0.6728,1.3667 1.6528,0.1859 0.9608,-1.1579 1.36,-0.9581 3.8256,1.9219 1.5136,1.7684 3.1784,3.2156 3.7,3.2156 1.8864,0 9.8416,-5.9732 15.0104,-11.2703 l 5.2848,-5.41405 3.1152,0.77656 c 6.2648,1.5612 26.5216,1.76344 36.7176,0.3672 5.28,-0.72304 10.5056,-1.50832 11.6136,-1.74528 1.8184,-0.3888 2.5592,0.37824 7.5616,7.82807 6.7224,10.0102 25.572,29.2275 37.6248,38.3595 12.6296,9.5694 30.8112,21.4075 32.7184,21.3546 z m -546.0248,-11.9156 c 0.094,0.1354 1.7952,-1.4124 5.1344,-4.6875 7.3312,-7.1898 7.792,-7.5013 9.7704,-6.6 3.3096,1.5081 10.4328,1.1665 14.0392,-0.6734 3.7672,-1.9221 7.9128,-7.317 10.8088,-14.0672 l 2.096,-4.886 5.7296,2.2235 c 6.6952,2.5983 17.68,4.9733 21.3016,4.6062 l 2.5296,-0.2562 -5.016,-6 c -6.5144,-7.793 -11.076,-13.0135 -36.7136,-42.02185 -21.1736,-23.95785 -24.2448,-27.57529 -23.7984,-28.02193 0.6032,-0.60344 43.8416,47.90177 60.7368,68.13588 11.4664,13.7315 16.7904,20.592 20.5704,26.5079 2.728,4.2687 4.1488,5.6737 2.4272,2.4 -1.3136,-2.4974 -5.0208,-7.987 -9.836,-14.5672 l -4.0736,-5.5687 -0.1144,-10.4313 c -0.09,-8.343 -0.5176,-11.9891 -2.1432,-18.19841 -6.3616,-24.30336 -23.7184,-45.74977 -52.9424,-65.41569 -12.2912,-8.27128 -33.5872,-20.1616 -39.264,-21.92344 -1.4568,-0.45208 -1.6216,-0.23648 -1.3312,1.74064 l 0.3312,2.25784 -7.1048,0.94528 c -7.0576,0.93968 -14.6368,3.03136 -14.6264,4.036 0.024,2.62728 3.7464,15.04856 5.6808,18.97808 4.8104,9.77176 11.6728,14.6564 21.5848,15.3656 l 5.2952,0.37976 2.612,6.5 c 6.1552,15.31553 15.3048,30.71081 23.3832,39.34684 l 4.672,4.9937 -3.892,2.8563 c -6.7656,4.9664 -9.7408,10.6428 -9.7408,18.5797 0,4.2937 1.2864,9.125 2.4296,9.125 0.996,0 11.7568,-13.225 15.4528,-18.9922 3.5304,-5.507 4.7416,-6.1535 2.2016,-1.175 -2.1152,4.1474 -9.7912,13.8522 -18.4136,23.2797 -6.6216,7.2394 -9.9144,11.0303 -9.7768,11.2281 z m 162.1064,-20.7453 -3.0688,-1.1797 c -3.3824,-1.3004 -9.5816,-5.6288 -12.2376,-8.5437 -1.3336,-1.464 -1.7864,-3.2007 -2.0736,-7.961 -0.6688,-11.1142 -6.2528,-19.88187 -15.7016,-24.65155 -7.532,-3.80216 -13.0424,-4.9372 -26.3184,-5.42496 -11.92,-0.43792 -12.2,-0.4108 -12.2,1.19528 0,2.362 4.9808,13.83768 8.7904,20.25003 9.9904,16.8169 23.6056,23.665 38.8424,19.5406 2.8416,-0.7693 5.1672,-1.6559 5.1672,-1.9703 0,-0.3145 -0.9392,-1.4443 -2.0848,-2.511 -1.1456,-1.0667 -4.448,-4.819 -7.3392,-8.339 -2.8904,-3.52 -6.8896,-8.11 -8.8872,-10.2 -1.9968,-2.09001 -3.2472,-3.80001 -2.7808,-3.80001 1,0 7.0592,6.33811 15.7328,16.45621 9.1472,10.6694 15.5712,15.6816 21.3592,16.6641 l 2.8,0.475 z m 433.4184,-1.6656 c -4.5928,-3.3986 -8.7432,-6.3297 -9.192,-6.3297 -0.492,0 -0.688,-0.207 -0.436,-0.4594 0.6,-0.5999 3.5368,0.9486 9.628,5.1187 l 0,1.6704 z m -1137.848,-16.3297 -0.3312,-3.5625 c -0.3128,-3.3645 0.752,-15.78111 1.5856,-18.48591 0.212,-0.68648 2.9768,-2.48648 6.1424,-4 20.3664,-9.73776 31.9376,-22.85193 33.1344,-37.55161 0.592,-7.28136 -0.916,-15.94224 -4.4552,-25.6 -2.7296,-7.44952 -6.3712,-14.53936 -7.684,-14.95784 -0.4608,-0.14672 -4.6008,2.75112 -9.2,6.44064 -15.4104,12.36096 -26.8288,25.86992 -30.3592,35.91568 -3.5136,9.99776 -1.4352,22.24737 5.512,32.47809 3.2208,4.74336 4.8848,5.64216 4.8848,2.64216 0,-5.11808 9.644,-33.06729 17.0184,-49.31873 6.1464,-13.54584 5.9088,-11.7604 -0.6248,4.68128 -13.3288,33.54105 -19.2048,57.83777 -16.4736,68.11874 l 0.8504,3.2 z m 56.2872,-0.084 3.1064,-3.5578 c 4.8496,-5.5567 10.272,-17.08405 10.8064,-22.97501 0.388,-4.2768 0.1568,-5.51288 -1.7488,-9.40776 -1.4872,-3.04 -3.3896,-5.36129 -5.908,-7.20945 -2.0424,-1.49928 -3.9472,-2.736 -4.2312,-2.74688 -0.6584,-0.0256 -2.2696,11.56289 -2.556,18.38129 -0.1664,3.95568 -0.2568,3.42056 -0.3736,-2.2344 -0.1912,-9.21768 1.4088,-17.30241 5.4848,-27.72497 1.712,-4.3772 3.0032,-8.06696 2.8704,-8.2 -0.1336,-0.13304 -1.7224,2.9076 -3.5288,6.75784 -1.8064,3.85024 -3.6688,8.49032 -4.1384,10.31088 -0.5832,2.2568 -1.7472,3.99136 -3.66,5.45 -9.1896,7.00961 -9,21.47897 0.4912,37.45476 l 3.3856,5.7015 z m 825.9608,-7.0687 c 0.5304,-0.5309 -2.3072,-13.41987 -3.8576,-17.52187 -1.0704,-2.83096 -1.2632,-4.40888 -0.7144,-5.85312 1.2296,-3.23392 0.832,-10.01776 -0.7968,-13.60633 -2.7496,-6.05472 -10.74,-12.36728 -21.3984,-16.90152 -5.3224,-2.26408 -5.5576,-2.23824 -6.1416,0.6812 -0.7472,3.73552 0.8688,16.90272 2.6624,21.69537 1.6424,4.3904 4.6,8.22424 8.128,10.53592 2.5432,1.6664 9.02,2.90016 12.372,2.35624 l 2.5688,-0.4172 -1.1896,-2.90776 c -0.6544,-1.59944 -3.3248,-6.14784 -5.9344,-10.10784 -4.2264,-6.41417 -4.3912,-6.80705 -1.5152,-3.60001 4.72,5.26281 11.4888,19.30529 13.6736,28.36721 1.0064,4.17611 1.9704,7.45211 2.1432,7.27971 z m 56.5504,-2.1953 c -0.096,-0.095 -0.1616,-0.7516 -0.1672,-1.8516 -0.01,-1.76 0.1464,-2.57425 0.3464,-1.8094 0.2,0.7649 0.2088,2.2049 0.016,3.2 -0.072,0.3732 -0.14,0.518 -0.1968,0.461 z m -793.7608,-19.62657 -0.4192,-11.51256 c -0.78,-21.43953 -5.1672,-29.60881 -16.0248,-29.83281 l -3.8504,-0.08 -4.0968,-10.4 c -6.6976,-17.0072 -15.8152,-30.70016 -26.4216,-39.67816 -6.8008,-5.75632 -6.992,-5.96744 -3.844,-4.23592 7.4272,4.08464 21.9528,21.36432 27.3328,32.51408 1.008,2.09 2.1432,3.8 2.5208,3.8 0.3768,0 1.492,-1.8304 2.4792,-4.0672 1.56,-3.53576 2.7216,-4.68512 8.8832,-8.8 l 7.0856,-4.7328 6.5704,0 c 12.7544,0 26.644,-4.82752 40.5952,-14.10936 15.6144,-10.38896 39.5,-36.22801 52.9592,-57.29065 1.3912,-2.17752 1.3856,-2.1992 -0.4872,-2.1484 -1.0408,0.028 -7.1104,1.28704 -13.4904,2.79688 l 0,0 c -52.356,12.39032 -80.8952,30.71929 -86.7952,55.74377 -1.2136,5.14432 -1.5768,11.17024 -0.7256,12.02184 0.264,0.264 3.7744,-1.90016 7.8,-4.80936 17.3696,-12.5516 57.0176,-41.30585 58.0736,-42.11721 0.8784,-0.67504 1.0096,-0.64696 0.552,0.11568 -0.8016,1.33328 -19.024,14.93409 -51.7048,38.59057 l -26.8,19.4 -0.4768,-4.31248 c -0.9656,-8.77088 -5.9792,-14.93088 -17.9656,-22.07656 -6.396,-3.81264 -19.8472,-9.65992 -25.4,-11.04064 l -2.2392,-0.55624 0.544,4.29688 c 0.992,7.83264 4.2528,19.20688 7.28,25.39376 5.5904,11.4264 18.0408,21.37488 27.6328,22.0828 l 3.4248,0.25312 2.5808,6.2828 c 3.032,7.3768 3.0896,7.814 1.1192,8.76256 -1.3536,0.65176 -0.7224,1.8928 6.476,12.72184 4.3864,6.6 7.0208,11.10712 5.852,10.0156 -1.168,-1.0916 -4.6896,-5.7716 -7.8232,-10.4 -11.4272,-16.87664 -17.5944,-23.08776 -24.2048,-24.37344 -1.844,-0.35856 -1.66,-0.17928 0.7952,0.77192 3.2608,1.26312 8.252,5.6324 12.5128,10.95464 2.3744,2.96584 2.3752,2.97224 1.1344,6.62816 -3.3608,9.8996 0.2648,18.9504 10.1696,25.38441 4.4648,2.9004 12.2984,6.53904 16.0912,7.47496 l 2.3048,0.5688 z m 568.7024,-11.92976 c 3.2336,0.01 6.1096,-0.0728 8.0632,-0.27656 10.5688,-1.10313 15.3096,-2.70321 19.0248,-6.41873 3.3528,-3.35232 4.5096,-6.94984 3.748,-11.64528 l -0.4464,-2.75472 5.7496,0.0184 c 3.1624,0.0104 7.1784,0.35112 8.9264,0.75632 4.1416,0.96032 4.6728,0.39816 0.6992,-0.74064 -5.2448,-1.50288 -15.5672,-1.90128 -22.7048,-0.87656 -6.3296,0.90872 -20.556,5.2272 -27.3704,8.30776 -5.0936,2.3024 -3.308,0.70792 2.4,-2.14376 8.356,-4.17432 18.6944,-7.12496 27.7376,-7.91712 3.136,-0.27472 3.3528,-1.49952 0.8,-4.5328 -3.676,-4.36848 -8.756,-6.09472 -14.152,-4.80944 -4.5624,1.0868 -8.6072,3.39536 -15.0968,8.61568 -9.2824,7.46624 -22.172,21.35824 -20.9512,22.57968 0.9472,0.94728 13.8728,1.80953 23.5728,1.83745 z m -53.8496,-0.10152 3.5872,-4.87345 c 14.3296,-19.46544 17.956,-39.22296 10.0456,-54.72968 -0.8584,-1.68152 -2.3192,-3.81552 -3.2456,-4.74216 -2.0528,-2.05248 -1.7592,-3.104 4.5816,-16.44848 4.4512,-9.36928 5.052,-11.41368 1.6456,-5.6 -1.096,1.87 -3.4664,6.64 -5.2664,10.6 -1.8,3.96 -3.78,8.28 -4.4,9.6 -4.3256,9.224 -7.14,24.552 -7.1216,38.8 0.01,8.66136 -0.1672,10.78936 -0.7032,8.4 -0.3944,-1.76 -0.5352,-8.6 -0.3136,-15.2 0.3896,-11.60328 0.8832,-14.458 5.0048,-28.99688 0.5032,-1.77432 0.4688,-1.784 -2.6928,-0.66872 -7.644,2.69704 -12.9928,7.48616 -14.5264,13.00776 -1.3936,5.0196 -0.988,13.13832 1.0608,21.21408 1.9168,7.55688 7.592,21.84984 10.6968,26.94064 l 1.6472,2.69689 z m -185.016,-9.79377 c -3.1704,0 -0.1376,-1.08344 11.3112,-4.04064 10.8112,-2.79264 15.4576,-3.69536 14.5768,-2.8328 -0.5856,0.57328 -24.3144,6.87344 -25.888,6.87344 z m 437.4456,-0.27656 c 0.072,-0.0112 0.1592,-0.13416 0.2544,-0.37344 0.2312,-0.57752 0.2024,-1.26856 -0.064,-1.5344 -0.2656,-0.26584 -0.4536,0.20672 -0.4184,1.05 0.024,0.58256 0.1072,0.87624 0.228,0.85784 z m 0.7312,-3.61408 c 0.093,-0.10296 0.3824,-1.17512 0.9504,-3.30936 0.6432,-2.42 1.3976,-7.46 1.676,-11.2 0.412,-5.54424 1.0064,-7.7792 3.2192,-12.1 3.6784,-7.18424 5.3632,-14.17232 5.3736,-22.3 0.01,-8.19448 -1.5904,-14.2116 -5.944,-22.34064 -3.0992,-5.78656 -9.2112,-14.11456 -12.6112,-17.18432 -1.9888,-1.79608 -2.164,-2.87504 -0.4688,-2.87504 2.2104,0 11.6504,-4.7084 16.78,-8.36873 20.6168,-14.71168 31.816,-41.94504 35.1312,-85.43128 0.2992,-3.92696 0.1464,-5.3972 -0.5592,-5.38904 -0.5328,0.008 -3.6688,1.47744 -6.9688,3.27032 -24.2928,13.19824 -43.5648,31.35136 -51.2296,48.25464 -4.6112,10.17024 -6.2464,22.92144 -4.5048,35.12504 l 0.664,4.66089 -5.8816,-4.66089 c -7.4536,-5.90696 -16.548,-11.82848 -17.1856,-11.19064 -0.6456,0.6456 1.3272,8.71944 6.7624,27.67033 l 4.4576,15.54216 -3.14,2.77968 c -3.1608,2.79576 -2.6224,2.77616 1.4608,-0.0512 1.7032,-1.1796 2.2872,-1.28584 2.5776,-0.4688 11.6288,32.71104 19.8344,47.17488 28.2552,49.81256 1.7976,0.56304 1.8248,0.486 1.3168,-3.68912 -1.7096,-14.0536 -5.4424,-25.3416 -13.8464,-41.8656 -6.2488,-12.28592 -6.5136,-12.92088 -3.7832,-9.03752 2.8152,4.00336 10.372,18.41664 12.4688,23.7828 3.192,8.16776 5.6792,18.04984 6.3704,25.3188 0.6192,6.50992 0.4264,10.45152 -1.1112,22.73592 -0.2184,1.74616 -0.3224,2.6124 -0.2296,2.50936 z m -500.3424,-7.30936 c 0.98,0 1.0856,-1.42584 0.6656,-9 -1.3112,-23.61848 -10.048,-35.75112 -25.0952,-34.8484 l -4.1448,0.2484 5.6792,7.92816 c 3.124,4.3608 7.9064,10.19976 10.628,12.97496 3.4928,3.56288 4.2448,4.64088 2.552,3.67032 -3.8152,-2.18872 -12.032,-12.342 -21.1784,-26.17344 -8.5576,-12.94168 -10.8032,-16.04248 -8.9824,-12.4 0.5504,1.1 2.784,4.97664 4.9624,8.6156 l 3.9608,6.61568 -2.064,4.14216 c -2.4696,4.956 -2.6632,10.04024 -0.5592,14.62656 1.7392,3.79072 8.4616,10.31896 14.8072,14.37816 5.4272,3.47144 17.1304,9.22184 18.7688,9.22184 z m -323.5136,-0.0784 c 0.2776,-0.0536 -1.3904,-2.00744 -4.8296,-5.63592 -3.996,-4.21496 -8.9864,-10.2516 -11.0896,-13.4156 l -3.8248,-5.75312 2.3784,-5.35936 c 3.496,-7.88048 4.4696,-12.94608 4.008,-20.86256 -0.7016,-12.03408 -7.312,-25.11024 -19.288,-38.15624 -5.6088,-6.10985 -18.1912,-17.13905 -19.5528,-17.13905 -0.4592,0 -1.1968,1.71 -1.6392,3.8 -2.324,10.97313 -2.776,15.15401 -2.7392,25.40001 0.064,18.67296 3.7904,28.80064 14.5832,39.6672 5.3304,5.3664 14.9168,11.9328 17.4216,11.9328 0.4616,0 -0.9256,-4.34808 -3.0832,-9.66096 -3.5512,-8.74776 -11.9904,-35.6932 -11.856,-37.85464 0.032,-0.48672 2.9048,7.5096 6.388,17.77032 6.8704,20.24264 10.7824,29.33624 15.7624,36.64056 3.9384,5.776 11.9072,14.52592 16.428,18.03912 0.5312,0.4128 0.84,0.60536 0.9328,0.58744 z m 797.3856,-2.42656 c 0.1352,0.008 0.2256,-0.008 0.2688,-0.0496 0.6304,-0.6304 -2.488,-15.86488 -4.8496,-23.68744 -4.52,-14.97216 -10.5456,-23.97416 -17.2568,-25.78128 -3.2424,-0.87328 -4.404,-0.74032 -10.8296,1.23752 -1.4544,0.4476 -1.8672,0.0624 -2.7232,-2.53128 -0.5552,-1.682 -1.4576,-5.94328 -2.0064,-9.47032 -0.9112,-5.85976 -1.0024,-6.06752 -1.064,-2.41248 -0.2024,12.02552 7.4624,29.61792 18.9096,43.40312 2.7496,3.31168 4.9872,6.24104 4.972,6.50936 -0.016,0.26832 -2.1032,-1.69528 -4.6392,-4.36248 -5.8616,-6.16576 -11.6616,-14.87896 -14.9752,-22.50152 l -2.5904,-5.96256 -2.0296,2.66096 c -6.0376,7.91624 -4.7136,15.01624 4.3728,23.42816 2.6424,2.44632 8.3456,6.54088 12.6736,9.1 7.8472,4.63928 19.7448,10.2972 21.7672,10.42024 z m -113.5512,-1.46248 c 9.4312,-0.0368 19.8032,-2.92336 32.3096,-8.89064 8.268,-3.94592 24.516,-14.34272 30.2904,-19.3828 l 3.2,-2.79216 -3.6,-0.48904 c -14.7016,-1.9936 -62.4672,-2.74072 -74.7144,-1.1688 -8.2992,1.06512 -15.2664,2.85008 -19.4936,4.99376 -4.0496,2.05352 -7.1224,4.8756 -6.0392,5.54536 0.3624,0.22392 3.5376,1.0204 7.0536,1.77024 10.8712,2.31808 37.2072,1.39696 50.7936,-1.77656 1.1,-0.25696 1.7936,-0.24256 1.5432,0.0328 -0.8928,0.98272 -15.708,3.62112 -25.2824,4.50152 -17.9312,1.64896 -31.1736,-0.69664 -45.7888,-8.10936 -5.0384,-2.5552 -9.2536,-4.5524 -9.3688,-4.43752 -0.3816,0.38168 13.2072,7.9112 17.4856,9.68904 2.7456,1.14064 6.0784,3.6028 9.5784,7.07656 5.9168,5.87224 15.1864,10.95176 22.872,12.53288 2.9784,0.61272 6.0168,0.91688 9.1608,0.90464 z M 2799.2,864.91242 c 1.4208,0.10704 13.9912,-8.56376 21.8896,-15.14376 23.2448,-19.3668 34.232,-39.76424 32.74,-60.7844 -0.2768,-3.90352 -0.7016,-7.41808 -0.9448,-7.81096 -0.2424,-0.39288 -5.248,4.94872 -11.1224,11.87032 -10.8288,12.75968 -18.3656,20.62752 -12.0544,12.5844 1.7264,-2.2 7.2952,-9.05648 12.3752,-15.23592 5.0792,-6.17944 9.596,-11.82017 10.036,-12.53593 0.44,-0.71584 3.5368,-5.38096 6.884,-10.36568 6.3368,-9.43808 9.8376,-15.06248 9.3736,-15.06248 -0.1496,0 -4.0472,5.36576 -8.664,11.92344 -7.5424,10.71416 -8.7184,12.02016 -11.5936,12.88904 -8.3664,2.52832 -18.6632,9.36593 -25.7032,17.06881 -11.9792,13.10736 -19.4112,32.52008 -22.472,58.7 -0.732,6.2596 -1.112,11.59888 -0.8456,11.8656 0.024,0.0224 0.056,0.0344 0.1016,0.0376 z m -62.8248,-9.91568 c -0.6552,0.0352 -3.488,-1.1956 -6.856,-3.01088 -11.3912,-6.13816 -10.4336,-6.7176 1.32,-0.79848 3.124,1.57296 5.68,3.24552 5.68,3.71568 0,0.0584 -0.048,0.0886 -0.144,0.0937 z m -201.7904,-8.9656 c 0.8096,0 -6.408,-10.13504 -9.6848,-13.6 -2.636,-2.7868 -3.5216,-4.4356 -3.9264,-7.29688 -1.1104,-7.85832 -7.132,-13.76784 -16.4752,-16.17032 l -4.3792,-1.12656 4.8,-0.94528 c 23.788,-4.68472 34.0176,-12.75736 33.9872,-26.81881 0,-3.1036 -0.3104,-6.11056 -0.6736,-6.6828 -0.8512,-1.34248 -16.1552,13.55705 -20.3672,19.82969 -3.4368,5.11728 -4.0208,4.41448 -0.692,-0.8328 3.2192,-5.07488 9.8968,-12.0752 19.836,-20.79377 17.016,-14.92688 19.668,-17.85144 6.7504,-7.4484 l 0,0 -7.56,6.08752 -3.64,-1.30472 c -7.872,-2.8212 -14.0976,-1.05944 -20.0224,5.66872 -4.1464,4.70832 -9.5552,15.75425 -12.564,25.66097 l -2.2544,7.42656 -4.9864,-0.51872 c -2.7424,-0.28504 -6.2416,-0.28296 -7.776,0.008 l -2.7912,0.52344 1.6256,4.1688 c 4.0448,10.37496 11.6896,20.01408 17.9496,22.62968 3.5704,1.4916 8.7952,1.44408 13.3864,-0.12032 5.7312,-1.95272 5.9944,-2.8544 1.8352,-6.26248 -1.9672,-1.61208 -6.1848,-4.53904 -9.3728,-6.50472 -6.836,-4.21488 -6.5408,-4.76272 0.4512,-0.8344 7.2144,4.05336 15.804,11.67072 21.2952,18.8844 2.6704,3.50696 5.032,6.37656 5.2488,6.37656 z m 413.084,-15.16248 c 4.568,-0.008 8.752,-0.55688 12.372,-1.67504 4.2464,-1.31152 6.2952,-2.57224 10.3656,-6.37968 6.0712,-5.67968 9.524,-12.14504 11.9832,-22.43904 l 1.6968,-7.10312 5.5688,-1.2656 c 8.9344,-2.032 14.7816,-2.31008 18.8328,-0.89536 4.7496,1.6588 5.1256,1.06768 0.456,-0.7156 -9.9112,-3.78536 -30.1288,1.47656 -62.6248,16.29688 -5.8304,2.65888 -10.6,4.66008 -10.6,4.44688 0,-0.86784 26.6472,-13.33896 35.3904,-16.56248 l 9.392,-3.46256 -2.992,-1.67496 c -9.24,-5.16888 -21.692,-6.504 -30.9512,-3.32032 -2.6184,0.9004 -6.704,2.92544 -9.0784,4.50152 -8.1568,5.41408 -19.3464,17.97112 -24.5784,27.58128 l -2.0544,3.77504 3.036,1.2828 c 11.8336,5.00456 23.7368,7.624 33.7856,7.60936 z m -328.0136,-4.84064 c 1.1376,0 1.1536,0.1504 -1.1472,-10 -5.3032,-23.39616 -11.8008,-35.52176 -20.4216,-38.10473 -3.228,-0.96696 -4.7032,-0.78376 -11.2456,1.4 -0.992,0.33112 -1.5768,-0.64136 -2.6184,-4.35312 -0.7376,-2.62912 -1.68,-6.88624 -2.0928,-9.46088 l -0.7496,-4.68128 0.3472,6 c 0.7624,13.16336 7.98,28.22745 20.2936,42.36249 3.3512,3.84624 3.8456,4.68416 1.9416,3.2828 -5.3024,-3.90272 -15.3512,-17.9308 -18.6296,-26.00776 -2.0464,-5.04176 -2.8936,-4.97112 -5.6728,0.47656 -3.6304,7.11608 -0.9704,14.90496 7.3296,21.4656 7.084,5.5996 29.368,17.62032 32.6656,17.62032 z M 2226.636,823.0905 c 1.296,-0.262 8.2096,-13.2788 10.6832,-20.1156 3.6224,-10.01088 4.516,-17.55184 2.9752,-25.10937 -1.4192,-6.95944 -4.4936,-13.71656 -7.9768,-17.52968 l -2.4192,-2.64688 2.2048,-6.83128 c 1.2128,-3.7568 3.0384,-8.89968 4.0552,-11.42968 2.3928,-5.95584 1.744,-5.96664 -0.888,-0.016 -3.4352,7.7676 -8.4016,22.4728 -9.6216,28.49064 -1.9048,9.39064 -2.324,26.14905 -0.864,34.49689 0.6904,3.94488 1.1248,7.30352 0.964,7.464 -0.1608,0.16056 -0.9528,-2.5264 -1.7608,-5.97184 -1.956,-8.34056 -1.9488,-25.81505 0.016,-35.75473 0.7704,-3.89984 1.2016,-7.29112 0.9568,-7.53592 -0.2448,-0.2448 -2.224,0.38792 -4.3984,1.40624 -13.2768,6.21848 -15.008,19.67225 -5.3424,41.53441 3.736,8.44928 10.344,19.76528 11.4168,19.5484 z m 1121.3016,-0.19376 c -11.5288,-0.46576 -21.6896,-0.8592 -23.2184,-0.864 -0.9904,0 -1.8,-0.36472 -1.8,-0.80472 0,-0.9316 2.0336,-0.9476 25.0184,0.1 l 0,1.56872 z m -37.7248,-1.66872 c -0.44,0 -1.0216,-0.36 -1.2936,-0.8 -0.272,-0.44 -0.1352,-0.8 0.3048,-0.8 0.44,0 1.0232,0.36 1.2952,0.8 0.272,0.44 0.1336,0.8 -0.3064,0.8 z m -842.3952,-1.21408 c 1.8416,-0.39704 8.056,-21.3044 9.5152,-32.29216 1.8704,-14.08057 -2.1936,-22.21665 -11.8712,-23.76409 -2.6024,-0.41616 -3.2984,-0.84024 -3.0112,-1.83592 0.2048,-0.71192 0.7928,-2.91376 1.3048,-4.89376 0.5128,-1.98 1.46,-4.62408 2.1064,-5.87496 0.6456,-1.25088 0.9944,-2.45344 0.7744,-2.67344 -0.22,-0.22 -0.9272,0.62256 -1.5704,1.87344 -0.644,1.25088 -1.976,4.79496 -2.9608,7.87496 -2.448,7.65176 -3.1032,25.65081 -1.3104,35.97193 0.6856,3.94488 1.1256,7.29152 0.9792,7.43744 -0.1456,0.14584 -0.9368,-2.36096 -1.7592,-5.57184 -1.1592,-4.52736 -1.4952,-8.7556 -1.4952,-18.83753 0,-7.15008 -0.2848,-13.00008 -0.6328,-13 -0.3472,8e-5 -2.0272,0.7112 -3.7328,1.58128 -8.9376,4.55976 -9.4832,14.80905 -1.6208,30.44689 2.9968,5.95968 13.7392,22.67728 15.1208,23.5312 0.048,0.0312 0.1048,0.0392 0.164,0.0264 z m 788.6344,-3.68432 c 0.2776,-0.0112 0.5168,-0.0858 0.6496,-0.2188 0.2656,-0.26584 -0.2064,-0.45504 -1.0496,-0.42032 -0.932,0.0384 -1.1224,0.22744 -0.4848,0.4828 0.2888,0.1156 0.6064,0.16776 0.8848,0.15632 z m -524.7344,-0.6016 3.7592,-2.65 c 2.0688,-1.4576 6.8168,-5.59552 10.5504,-9.19528 l 6.7888,-6.54536 10.2016,-3.22032 c 17.6928,-5.58592 31.72,-13.75088 43.2872,-25.19377 3.6112,-3.57264 5.6816,-5.23528 4.6,-3.69528 -5.7384,8.17232 -17.9632,17.73769 -30.7968,24.09689 -3.7064,1.83672 -6.5256,3.6828 -6.2656,4.10312 1.2224,1.97792 8.8416,4.58464 13.4232,4.59216 10.676,0.0176 19.5104,-8.38832 29.152,-27.73745 4.2504,-8.5296 7.1024,-15.91872 6.412,-16.60944 -0.6816,-0.68176 -12.748,1.0248 -19.5544,2.76568 -14.628,3.74112 -25.8784,11.95008 -31.2376,22.79216 -1.58,3.19785 -2.9072,7.07793 -2.9512,8.62193 -0.08,2.80024 -0.098,2.8136 -7.2488,5.3 -3.9424,1.37104 -7.3312,2.32928 -7.5312,2.12968 -0.1992,-0.19952 0.4568,-1.51544 1.4592,-2.92344 7.1952,-10.10424 7.46,-23.87753 0.664,-34.46881 -2.3184,-3.61328 -2.736,-3.93456 -3.4728,-2.67184 -1.3232,2.26632 -16.5336,25.56457 -16.98,26.00937 -1.4384,1.43264 2.6656,-5.97985 8.2176,-14.84529 3.5976,-5.74512 7.4912,-12.32088 8.6528,-14.61256 2.9264,-5.77448 4.6088,-12.76024 3.7936,-15.74216 -0.5688,-2.08168 -0.7128,-1.71032 -1.0888,2.8 -0.2832,3.38816 -1.2216,6.79872 -2.6952,9.78904 -2.0664,4.19312 -2.6096,4.70416 -6.3,5.9188 -9.9144,3.2636 -17.1,10.154 -19.7768,18.9656 -2.9496,9.71065 -1.3,25.87249 4.0784,39.97657 l 0.8592,2.25 z m -89.4832,-4.92032 c 1.912,0.0672 8.1032,-1.64488 14.1736,-3.98592 11.2392,-4.3344 16.9112,-10.98744 16.9112,-19.84216 0,-4.71864 -1.2208,-9.75161 -2.3656,-9.75161 -0.8408,0 -10.4008,9.28969 -13.5848,13.20001 -2.2008,2.70376 -2.4184,2.82784 -1.4032,0.8 3.04,-6.06824 17.12,-17.88185 27.5536,-23.11873 2.3096,-1.15952 4.2,-2.2828 4.2,-2.49536 0,-0.5364 0.232,-0.62648 -6.1504,2.3688 -3.1624,1.48376 -7.3024,3.76352 -9.2,5.0656 -2.6496,1.81736 -4.5976,2.44968 -8.3888,2.72032 -9.4056,0.67152 -15.7336,6.82073 -19.4832,18.93129 -1.78,5.7492 -3.4608,15.31104 -2.8056,15.9656 0.086,0.0856 0.2704,0.13256 0.5432,0.14216 z m 586.2408,-2.4 c 5.1752,-0.01 10.0816,-0.4292 12.8968,-1.25624 2.3904,-0.702 6.4032,-2.36512 8.916,-3.69528 4.956,-2.62352 13.4312,-10.87168 13.4312,-13.07192 0,-1.21536 0.7136,-1.30768 6.6,-0.84528 15.668,1.23088 17.1608,1.28376 14.2,0.49376 -5.8248,-1.55392 -28.5152,-2.61584 -36.2936,-1.69848 -10.1544,1.1976 -21.4632,4.1772 -28.916,7.62032 -7.2952,3.37048 -8.408,3.6184 -3.9904,0.88592 8.616,-5.3292 24.1104,-9.64376 37.8,-10.52656 4.5096,-0.2908 8.1968,-0.74464 8.1936,-1.00776 -0.016,-1.46336 -6.9024,-8.18145 -9.8488,-9.60785 -4.7976,-2.32232 -12.2824,-2.23376 -18.2368,0.2156 -2.4712,1.01632 -7.0136,3.52168 -10.0928,5.56881 -8.8784,5.90264 -23.4152,19.10272 -23.4152,21.26088 0,0.7668 6.82,2.9 14.2512,4.45784 3.888,0.81488 9.3304,1.2156 14.5048,1.20624 z m -320.48,-0.2344 c 0.284,0.0584 0.1672,-0.51752 -0.312,-1.41248 -1.74,-3.25128 -3.1536,-9.72048 -3.656,-16.7328 l -0.488,-6.8 6.944,-5.48905 c 8.5696,-6.77296 15.5592,-15.02168 19.4168,-22.91096 2.5168,-5.14632 2.9808,-6.97288 3.2656,-12.83128 0.6504,-13.40392 -4.4608,-25.38304 -17.9016,-41.95624 l -2.4544,-3.02656 -4.5656,5.10624 c -13.6944,15.31792 -23.96,34.1484 -25.6824,47.10784 -1.2128,9.1232 3.1752,19.72216 11.6824,28.21248 l 5.7984,5.78753 0.6112,-10.30473 c 0.336,-5.66728 1.1768,-14.66728 1.8688,-20 1.3712,-10.5696 6.06,-35.09928 6.6048,-34.55464 0.1864,0.186 -0.5912,5.85536 -1.7256,12.5984 -6.1768,36.72016 -6.8032,59.46289 -1.992,72.32193 0.8864,2.36928 1.9856,4.5388 2.4408,4.82032 0.056,0.0352 0.1048,0.056 0.1448,0.064 z m -606.4368,-7.24056 c 0.1672,0.16752 3.152,-2.11888 6.6328,-5.08128 20.2408,-17.22785 38.8296,-38.64585 47.4088,-54.62345 7.0528,-13.13568 9.5872,-26.8932 6.9864,-37.92344 -1.204,-5.1068 -4.8976,-13.28392 -5.9952,-13.27184 -0.26,0 -8.3624,16.92352 -18.0048,37.60152 -17.1024,36.67648 -22.4224,47.1692 -13.7552,27.1328 4.7376,-10.9524 31.616,-68.65304 36.5768,-78.51872 1.72,-3.42136 2.9632,-6.22032 2.7624,-6.22032 -0.2016,0 -2.3432,3.69 -4.7608,8.2 -2.4168,4.51 -4.6224,8.79784 -4.9016,9.52816 -0.2784,0.73024 -1.3048,1.528 -2.2824,1.77344 -3.364,0.8444 -11.836,6.94912 -17.2272,12.4156 -16.9776,17.21568 -27.6184,46.02272 -32.5,87.98281 -0.6848,5.88536 -1.1072,10.83728 -0.94,11.00472 z m 987.6936,-9.40312 c 0.2776,-0.0112 0.5168,-0.0858 0.6496,-0.2188 0.2656,-0.26584 -0.2064,-0.45504 -1.0496,-0.42032 -0.932,0.0384 -1.1224,0.22736 -0.4848,0.4828 0.2888,0.1156 0.6064,0.16776 0.8848,0.15632 z m -178.5896,-5.5016 c -1.1064,0 -0.3936,-1.3868 9.152,-17.83129 11.676,-20.1148 11.4296,-19.7096 11.756,-19.3828 0.1552,0.15528 -3.0352,6.34208 -7.0904,13.74848 -10.6464,19.44417 -13.0152,23.46561 -13.8176,23.46561 z m 201.8552,-1.70472 c 0.3624,0 0.7264,-0.0544 1.0016,-0.1656 0.5496,-0.22192 0.1,-0.40312 -1,-0.40312 -1.1,0 -1.5504,0.1812 -1,0.40312 0.2744,0.11096 0.636,0.1656 0.9984,0.1656 z m -1018.2224,-17.89529 -0.528,-12.8 c -2.1368,-51.75224 -7.0336,-79.14088 -16.0744,-89.88593 -4.2992,-5.1092 -5.3056,-2.58048 -5.26,13.24529 0.04,12.60456 2.5672,27.39896 7.6376,44.64064 0.2592,0.88 -0.08,0.42472 -0.7464,-1.01096 -0.6704,-1.4356 -2.1352,-5.7556 -3.2552,-9.6 -7.8152,-26.8284 -7.3144,-46.64369 1.6952,-67.01561 1.112,-2.5148 1.8728,-4.72168 1.6896,-4.90472 -0.1832,-0.18296 -1.788,3.0108 -3.5672,7.09848 -1.7784,4.08768 -3.7712,9.28072 -4.4296,11.54064 -0.7384,2.53464 -2.7736,6.05944 -5.3096,9.2 -12.9376,16.01969 -14.736,34.74825 -5.3184,55.36409 5.9544,13.03672 19.188,30.92496 30.8712,41.72808 l 2.5952,2.4 z m 1018.2224,-1.30472 c 0.3624,0 0.7264,-0.0544 1.0016,-0.1656 0.5496,-0.22192 0.1,-0.40312 -1,-0.40312 -1.1,0 -1.5504,0.1812 -1,0.40312 0.2744,0.11096 0.636,0.1656 0.9984,0.1656 z m -314.644,-9.1656 c 4.236,0.0536 8.3504,-0.41384 11.8456,-1.45 14.9616,-4.4356 28.18,-15.80656 41.9408,-36.07968 5.0528,-7.44272 12.0592,-19.45232 12.0592,-20.66872 0,-0.88648 -0.6784,-0.67504 -16,4.9672 -45.3872,16.71384 -70.3448,30.51584 -74.9016,41.42184 -0.656,1.56888 -1.0776,2.96808 -0.936,3.10936 0.1408,0.1412 2.772,-0.2348 5.8464,-0.83592 12.7848,-2.4996 26.7144,-8.82608 43.8944,-19.9344 7.1736,-4.63856 4.652,-2.08784 -3.2928,3.33128 -21.0136,14.33272 -38.2656,20.05664 -57.8104,19.17808 -6.04,-0.2716 -7.9632,-0.18512 -5.6,0.25 1.98,0.36456 7.3032,0.68928 11.8312,0.72192 6.436,0.0464 8.884,0.3924 11.2232,1.58592 5.4384,2.77464 12.84,4.31352 19.9,4.40312 z m -305.5392,-4.65776 c 0.032,0.008 0.072,0 0.1176,-0.0312 1.0648,-0.65808 2.4672,-7.18792 2.4672,-11.49064 0,-10.14056 -4.4304,-27.73824 -12.4904,-49.62032 -2.8104,-7.62872 -5.0904,-14.10872 -5.0648,-14.4 0.1968,-2.26552 10.4688,24.04352 13.536,34.67032 1.3968,4.84 2.7152,9.33824 2.9296,9.99688 0.5592,1.71576 5.3008,-6.07232 7.1704,-11.77656 2.0264,-6.18048 2.0584,-17.44312 0.064,-23.17032 -3.2384,-9.31016 -13.6688,-21.83737 -25.6168,-30.76561 -3.448,-2.57656 -6.5464,-4.6844 -6.8848,-4.6844 -0.3376,0 -2.088,3.17408 -3.8904,7.05312 l 0,0 c -5.8408,12.57073 -7.6392,19.89105 -7.7016,31.36097 -0.056,9.75088 0.016,10.15344 2.5704,15.34688 1.7016,3.45824 4.092,6.65992 6.8,9.10312 4.7464,4.28352 14.672,9.39504 20.9848,10.80784 3.1664,0.70848 4.396,1.38776 4.7792,2.64056 1.0296,3.3668 1.4384,20.2864 0.5504,22.8328 -0.4208,1.20712 -0.5448,2.07984 -0.3224,2.12664 z m -58.276,-1.42664 c 1.3384,0.009 2.6928,-0.0232 4.0608,-0.0968 10.8632,-0.58224 30.2672,-4.7936 31.5344,-6.84376 0.7016,-1.13544 -9.9616,-13.68264 -15.964,-18.78288 -6.7472,-5.73352 -12.7192,-9.4672 -19.7488,-12.34992 -6.9232,-2.83936 -21.4208,-3.34488 -29.8216,-1.04064 -7.3256,2.00944 -14.7848,5.37488 -13.2,5.95624 0.66,0.24208 8.22,2.1328 16.8,4.20152 8.58,2.06872 15.2024,3.89816 14.7168,4.06408 -0.4848,0.166 -8.3744,-1.35832 -17.5312,-3.38592 -9.1568,-2.02752 -17.3376,-3.5048 -18.1808,-3.2844 -0.8424,0.2204 -8.0264,-1.03224 -15.9616,-2.7828 -7.936,-1.75048 -14.596,-3.01528 -14.8,-2.81096 -0.2048,0.2044 6.1608,1.93288 14.1456,3.84064 l 14.5192,3.4688 2.2152,3.60312 c 10.3656,16.84696 27.1296,26.1172 47.216,26.24368 z m 179.3608,-6.24528 c 1.8504,0 13.4144,-8.76168 19.0776,-14.45312 7.2272,-7.26352 10.736,-12.92112 12.536,-20.2172 1.1456,-4.64104 1.2,-6.2072 0.3752,-10.6828 -0.9648,-5.23744 -5.0864,-14.64688 -6.4152,-14.64688 -0.3872,0 -0.8848,0.47256 -1.1064,1.05 -0.6616,1.7256 -18.1672,24.69736 -18.1672,23.84064 0,-0.92712 4.8136,-8.04888 12.1248,-17.9344 5.8368,-7.89192 9.8136,-15.3412 10.9936,-20.59528 0.8064,-3.58617 0.7632,-4.37729 -0.1856,-3.42817 -0.2936,0.29328 -0.5328,1.33577 -0.5328,2.31721 0,0.98152 -1.3104,4.33056 -2.9112,7.44216 -2.8432,5.528 -3.012,5.68744 -7.3656,6.95312 -14.3608,4.17488 -21.4664,12.23904 -23.392,26.55 -0.884,6.56656 -0.1184,17.3176 1.7528,24.60472 0.452,1.76 1.1728,4.55 1.6,6.2 0.4272,1.65 1.1552,3 1.616,3 z m -411.3504,-0.50624 c 5.7552,0.0696 12.2176,-1.39464 19.528,-4.40936 l 5.48,-2.25936 6.0488,2.79368 c 3.3256,1.53664 6.1792,2.66128 6.3416,2.49848 0.1632,-0.16288 -12.6744,-6.8468 -28.5264,-14.8516 -15.8528,-8.0048 -28.8216,-14.694 -28.8216,-14.8656 0,-0.62712 8.0216,3.07936 26.6,12.28904 10.4504,5.18024 19,9.13696 19,8.79376 0,-0.3432 -0.7472,-2.52008 -1.6608,-4.83752 -2.456,-6.23064 -8.3944,-14.70696 -12.4944,-17.83744 -6.6632,-5.08776 -16.1824,-7.3108 -25.8448,-6.0328 -2.42,0.32008 -6.4696,1.18768 -9,1.92656 -5.2912,1.5452 -5.3496,1.7172 -3.324,10.04688 3.1312,12.8804 10.9752,23.35296 19.252,25.70312 2.336,0.66336 4.8056,1.01072 7.4216,1.04216 z m 940.56,-2.97656 c -0.2272,-0.0256 -0.684,-0.30816 -1.36,-0.78128 -0.9072,-0.63528 -4.8648,-7.89784 -8.7952,-16.13904 -3.9296,-8.2412 -6.6,-14.53224 -5.9344,-13.97968 0.6664,0.55264 3.6096,5.9048 6.5408,11.89376 2.9312,5.98888 6.3424,12.61408 7.5824,14.72344 1.8512,3.14776 2.4656,4.33856 1.9664,4.2828 z m -631.06,-5.7172 3.0552,-3.6 c 5.7872,-6.8228 13.504,-14.55872 17.3296,-17.37032 l 3.836,-2.81872 6.3376,2.09376 c 8.4488,2.7924 18.72,2.89632 26.4368,0.2656 9.8536,-3.3592 19.8416,-10.76704 29.9976,-22.25 6.2168,-7.02856 14.4664,-18.87912 13.6856,-19.65936 -1.8984,-1.89904 -26.16,-2.364 -35.4408,-0.67968 -7.62,1.38304 -10.8288,2.46696 -17.4872,5.90464 -8.3072,4.2892 -15.4736,11.8804 -20.0032,21.19224 -1.9784,4.06744 -3.5968,7.82448 -3.5968,8.3484 0,0.52392 3.3296,-0.82312 7.4,-2.99216 10.452,-5.57032 37.044,-16.65584 37.9,-15.8 0.1672,0.16696 -4.6472,2.39688 -10.6984,4.95624 -16.7272,7.07488 -28.0184,12.64104 -34.6736,17.09216 -6.5904,4.40824 -17.2552,15.0172 -21.428,21.3172 l -2.6504,4 z m -186.8,-4.15624 -0.5216,-3.81248 c -0.8352,-6.09184 -5.932,-20.37496 -9.3,-26.06096 -3.6976,-6.24272 -9.8624,-12.2304 -15.0544,-14.62184 -3.0856,-1.42104 -5.2568,-1.73944 -11.9048,-1.74376 -4.4728,0 -8.348,0.20984 -8.6112,0.47184 -0.3912,0.39 8.164,14.8428 14.872,25.12344 1.3528,2.07368 1.2056,2.004 -1.0872,-0.50936 -1.46,-1.59984 -5.2816,-7.0716 -8.4912,-12.15936 -9.4752,-15.018 -15.4136,-21.28656 -21.3512,-22.536 -2.0232,-0.42576 -1.8888,-0.2608 0.864,1.05 3.2336,1.54008 8.2008,6.0548 10.544,9.5844 0.8808,1.32576 1.2384,4.19152 1.3024,10.4 0.08,7.638 0.3288,9.05848 2.2984,13.0688 5.5192,11.236 21.1656,19.45344 40.352,21.19216 l 6.0888,0.55312 z m -63.9496,-7.04688 c 0.056,0.0192 0.056,-0.10816 0,-0.39688 -0.4664,-2.52104 -3.6712,-12.25376 -7.0616,-21.4484 -5.0256,-13.6292 -17.0592,-30.29432 -29.2448,-40.50001 -3.5104,-2.94008 -3.4744,-2.9296 1.492,0.44688 8.896,6.04905 17.988,17.07273 25.5016,30.92025 l 3.1424,5.78912 2.04,-4.20312 c 2.8976,-5.966 3.4072,-10.07544 1.8928,-15.2844 -2.8448,-9.78536 -15.508,-19.26761 -36.6176,-27.42033 -9.7488,-3.7648 -9.7784,-3.758 -9.1152,2.1016 1.8816,16.63585 9.5832,33.07569 19.0528,40.67497 4.7696,3.8272 12.6216,7.376 16.7376,7.56408 4.0504,0.18512 3.8008,-0.20944 9.192,14.55936 1.5664,4.29 2.7456,7.11456 2.9816,7.19688 z m 125.7,-25.20624 c 0.44,0 -0.3552,-0.7008 -1.7656,-1.56096 -2.7896,-1.70064 -6.5096,-7.57328 -9.0424,-14.27496 l -1.6048,-4.24688 2.1,-2.7516 c 7.36,-9.64945 5.312,-20.73513 -5.8672,-31.77185 -5.4976,-5.42744 -10.3872,-9.3844 -11.5968,-9.3844 -0.3656,0 -1.0488,0.99 -1.52,2.2 -4.7032,12.066 -6.5264,30.51008 -3.6,36.41561 2.3144,4.672 5.508,6.49872 12.0016,6.86568 4.9752,0.28112 5.4864,0.17272 5.0136,-1.05944 -0.2896,-0.75456 -1.9912,-6.468 -3.7824,-12.69681 -1.7904,-6.2288 -3.8072,-12.17928 -4.48,-13.22344 -0.672,-1.04416 -0.8232,-1.65208 -0.3344,-1.35 1.524,0.94152 2.9624,4.412 7.5064,18.10465 4.3792,13.1948 7.3832,20.14872 10.3376,23.92656 1.68,2.1476 5.3472,4.80416 6.6344,4.80784 z m 110.3232,-25.96408 c 1.752,0.14584 12.2344,-2.53024 19.6768,-5.07033 23.092,-7.88096 31.6696,-17.19488 26.4408,-28.71096 l -1.5224,-3.35464 5.1472,-1.71248 c 2.8304,-0.94192 6.8528,-2.00032 8.9392,-2.3516 3.4072,-0.57352 3.5088,-0.64648 0.9952,-0.72032 -11.2144,-0.32952 -29.6152,9.22296 -44.364,23.0328 -4.3552,4.07808 -4.5448,4.17992 -2.2224,1.17504 4.8232,-6.24072 13.9176,-13.50064 23.1928,-18.51408 5.48,-2.96216 5.7256,-3.21232 4.3696,-4.43904 -3.7552,-3.3988 -10.76,-4.69944 -14.576,-2.70624 -4.5136,2.35768 -6.5848,4.16928 -10.0936,8.83744 -5.4912,7.30424 -17.6112,33.06993 -16.2144,34.46721 0.032,0.036 0.1144,0.0576 0.2312,0.0672 z m 321.6768,-1.65464 c 9.6552,-0.0144 12.4136,-0.33072 20,-2.28288 4.84,-1.24553 12.4024,-3.67937 16.8064,-5.40937 8.9128,-3.50144 23.7376,-11.11032 24.1688,-12.40624 0.8072,-2.4216 -29.3272,-12.35304 -44.3304,-14.60936 -7.6248,-1.14672 -21.0744,-0.96448 -27.0448,0.3656 -10.0952,2.24888 -19.0736,6.66152 -25.6248,12.59216 l -3.8032,3.44224 17.1136,2.17968 c 9.412,1.19856 18.1944,2.51592 19.5144,2.92656 2.88,0.89608 1.3696,0.77784 -20.2176,-1.57656 -10.5464,-1.15024 -19.3448,-1.56024 -31.6,-1.47344 l -16.9824,0.12032 14.5432,0.66248 14.5456,0.66408 6.336,4.31408 c 11.3768,7.74689 21.024,10.51401 36.5752,10.49065 z m 120.384,-5.18601 c -0.2488,0.06 0.9224,-1.9684 3.0264,-5.18592 2.588,-3.96 10.056,-15.84 16.596,-26.4 3.688,-5.95528 6.3064,-10.13832 8.2744,-13.19216 l 1.6584,0 c -1.1864,1.96296 -2.4992,4.1108 -3.9968,6.51088 -10.1472,16.258 -22.3936,34.7012 -25.1536,37.88128 -0.2144,0.24752 -0.3472,0.37208 -0.4048,0.38592 z m -296.4936,-0.26248 c 0.072,-0.0112 0.1592,-0.13416 0.2544,-0.37344 0.2312,-0.57752 0.2024,-1.26856 -0.064,-1.5344 -0.2656,-0.26584 -0.4536,0.20672 -0.4184,1.05 0.024,0.58256 0.1072,0.87624 0.228,0.85784 z m -322.4,-7.77656 c -0.5904,0.012 -0.26,-9.65864 0.5624,-15.68904 0.4696,-3.44184 2.0176,-9.76784 3.4408,-14.05784 1.2832,-3.86808 1.9808,-5.97696 1.8456,-6.99216 l 2.3808,0 c -3.4216,7.85224 -5.8936,17.59944 -6.9624,28.0156 -0.4704,4.5868 -1.0136,8.4972 -1.2064,8.69064 -0.024,0.0208 -0.04,0.0328 -0.064,0.0328 z m -296.5888,-17.00784 c -0.3456,-0.18904 -0.556,-8.68728 -0.472,-19.34216 0,-0.12416 0,-0.26416 0,-0.38904 l 1.5768,0 0,0.12496 c -0.2216,10.41368 -0.7024,19.2336 -1.0672,19.59848 -0.016,0.0112 -0.024,0.0136 -0.032,0.008 z"
       id="rect6703-9" /></g></svg>