<?xml version="1.0" encoding="UTF-8" standalone="no"?>
<!-- Created with Inkscape (http://www.inkscape.org/) -->

<svg
   xmlns:dc="http://purl.org/dc/elements/1.1/"
   xmlns:cc="http://creativecommons.org/ns#"
   xmlns:rdf="http://www.w3.org/1999/02/22-rdf-syntax-ns#"
   xmlns:svg="http://www.w3.org/2000/svg"
   xmlns="http://www.w3.org/2000/svg"
   xmlns:sodipodi="http://sodipodi.sourceforge.net/DTD/sodipodi-0.dtd"
   xmlns:inkscape="http://www.inkscape.org/namespaces/inkscape"
   version="1.1"
   id="svg2"
   xml:space="preserve"
   width="350.92688mm"
   height="234.13666mm"
   viewBox="0 0 1326.3377 884.92595"
   sodipodi:docname="beidezijkantBuiten.svg"
   inkscape:version="0.91 r13725"><metadata
     id="metadata8"><rdf:RDF><cc:Work
         rdf:about=""><dc:format>image/svg+xml</dc:format><dc:type
           rdf:resource="http://purl.org/dc/dcmitype/StillImage" /><dc:title /></cc:Work></rdf:RDF></metadata><defs
     id="defs6" /><sodipodi:namedview
     pagecolor="#ffffff"
     bordercolor="#666666"
     borderopacity="1"
     objecttolerance="10"
     gridtolerance="10"
     guidetolerance="10"
     inkscape:pageopacity="0"
     inkscape:pageshadow="2"
     inkscape:window-width="2560"
     inkscape:window-height="1381"
     id="namedview4"
     showgrid="false"
     units="mm"
     inkscape:zoom="0.95149208"
     inkscape:cx="1030.3219"
     inkscape:cy="303.11273"
     inkscape:window-x="0"
     inkscape:window-y="0"
     inkscape:window-maximized="1"
     inkscape:current-layer="g10"
     inkscape:object-nodes="true" /><g
     id="g10"
     inkscape:groupmode="layer"
     inkscape:label="box-20170423_015345_480414"
     transform="matrix(1.3333333,0,0,-1.3333333,-2803.3072,1656.7216)"><path
       style="display:inline;fill:none;fill-opacity:1;fill-rule:nonzero;stroke:#ff0000;stroke-width:0.07086614;stroke-linecap:butt;stroke-linejoin:round;stroke-miterlimit:4;stroke-dasharray:none;stroke-dashoffset:0;stroke-opacity:1"
       d="m 2181.304,1177.9058 0,-566.92978 850.3933,0 0,566.92978 -850.3933,0 z m 30.4718,-15.4672 53.7625,-58.2296 a 105.30532,105.30449 0 0 1 -2.8719,-2.7391 l -58.1624,53.6969 7.2718,7.2718 z m 71.2219,0 31.5656,-31.564 a 105.30532,105.30449 0 0 1 -16.3453,-5.1797 l -15.2203,36.7437 z m 111.0094,0 -15.2407,-36.7906 a 105.30532,105.30449 0 0 1 -16.339,5.2125 l 31.5797,31.5781 z m 71.2218,0 7.2734,-7.2718 7.272,7.2718 53.7609,-58.2296 a 105.30532,105.30449 0 0 1 -2.8703,-2.7391 l -58.1626,53.6969 -58.2312,-53.7609 a 105.30532,105.30449 0 0 1 -2.739,2.8718 l 53.6968,58.1609 z m 85.7672,0 31.5641,-31.564 a 105.30532,105.30449 0 0 1 -16.3453,-5.1797 l -15.2188,36.7437 z m 111.0094,0 -15.2406,-36.7906 a 105.30532,105.30449 0 0 1 -16.3391,5.2125 l 31.5797,31.5781 z m 71.2219,0 7.2718,-7.2718 7.2719,7.2718 53.7625,-58.2296 a 105.30532,105.30449 0 0 1 -2.8718,-2.7391 l -58.1626,53.6969 -58.2312,-53.7609 a 105.30532,105.30449 0 0 1 -2.7391,2.8718 l 53.6985,58.1609 z m 85.7675,0 31.5632,-31.564 a 105.30532,105.30449 0 0 1 -16.3448,-5.1797 l -15.2184,36.7437 z m 111.0072,0 -15.2408,-36.7906 a 105.30532,105.30449 0 0 1 -16.3376,5.2125 l 31.5784,31.5781 z m 71.2232,0 7.272,-7.2718 -58.2312,-53.7609 a 105.30532,105.30449 0 0 1 -2.7392,2.8718 l 53.6984,58.1609 z m -680.6323,-37.5921 17.9093,-17.911 17.9016,17.9 a 98.108492,98.107722 0 0 0 19.6313,-5.7828 l -14.5422,-35.1078 -5.7031,-13.7672 c -5.4802,2.2751 -11.3541,3.4531 -17.2876,3.4531 -5.9318,-0.014 -11.8026,-1.1945 -17.278,-3.4765 l -5.7125,13.7906 -14.5219,35.0578 a 98.108492,98.107722 0 0 0 19.6031,5.8438 z m 267.9969,0 17.9109,-17.911 17.9,17.9 a 98.108492,98.107722 0 0 0 19.6313,-5.7828 l -14.5406,-35.1078 -5.7032,-13.7672 c -5.4801,2.2751 -11.354,3.4531 -17.2875,3.4531 -5.9319,-0.014 -11.8027,-1.1945 -17.2781,-3.4765 l -5.7125,13.7906 -14.5235,35.0578 a 98.108492,98.107722 0 0 0 19.6032,5.8438 z m 267.9978,0 17.9112,-17.911 17.9,17.9 a 98.108492,98.107722 0 0 0 19.6312,-5.7828 l -14.5424,-35.1078 -5.7016,-13.7672 c -5.48,2.2751 -11.3536,3.4531 -17.2872,3.4531 -5.932,-0.014 -11.804,-1.1945 -17.28,-3.4765 l -5.7104,13.7906 -14.5232,35.0578 a 98.108492,98.107722 0 0 0 19.6024,5.8438 z m -586.2369,-25.85 28.9063,-31.3063 -31.2391,28.8391 a 98.108492,98.107722 0 0 0 2.3328,2.4672 z m 267.9969,0 28.9062,-31.3063 -31.2375,28.8391 a 98.108492,98.107722 0 0 0 2.3313,2.4672 z m 267.9984,0 28.9064,-31.3063 -31.2376,28.8391 a 98.108492,98.107722 0 0 0 2.3312,2.4672 z m -399.7546,-0.07 a 98.108492,98.107722 0 0 0 2.4656,-2.3329 l -31.3063,-28.9046 28.8407,31.2375 z m 267.9968,0 a 98.108492,98.107722 0 0 0 2.4672,-2.3329 l -31.3063,-28.9046 28.8391,31.2375 z m 267.9978,0 a 98.108492,98.107722 0 0 0 2.4672,-2.3329 l -31.3064,-28.9046 28.8392,31.2375 z m -202.0869,-14.9766 36.7938,-15.2406 a 105.30532,105.30449 0 0 1 -5.2125,-16.3406 l -31.5813,31.578 0,0 z m -535.9952,0 36.7937,-15.2391 a 105.30532,105.30449 0 0 1 -5.2125,-16.3406 l -31.5812,31.5797 z m 267.9983,0 -31.5656,-31.564 a 105.30532,105.30449 0 0 1 -5.1765,16.3452 l 36.7421,15.2188 z m 535.995,0 -31.564,-31.564 a 105.30532,105.30449 0 0 1 -5.1768,16.3452 l 36.7408,15.2188 z m -499.4715,-15.6391 0.014,0 c 25.4584,-0.104 65.3814,-9.1244 94.45,-9.4703 1.0582,-0.014 2.0942,-0.014 3.1109,0 0.9532,-0.013 1.9204,-0.013 2.9094,0 30.5262,0.363 73.2424,10.1455 98.0906,9.3813 10.7037,-2.1989 21.3788,-7.3055 29.9438,-13.3313 8.2719,-5.8192 14.4242,-12.6267 16.9094,-16.8781 0.1706,-0.7857 0.3455,-1.5585 0.4875,-2.386 0.1573,-0.9229 0.2613,-1.8568 0.3781,-2.7874 -1.6956,-6.3107 -9.9316,-23.2917 -22.2438,-38.39549 -12.7695,-15.6653 -29.7582,-29.7822 -46.5374,-34.0874 -5.3411,-0.7616 -10.9783,-1.2538 -16.9344,-1.4141 -26.968,0.3756 -41.8799,0.1426 -63.1016,-0.031 -21.2227,0.1757 -36.1357,0.4089 -63.1047,0.031 -5.9553,0.1604 -11.5911,0.6525 -16.9313,1.4141 -16.7797,4.305 -33.7689,18.4217 -46.539,34.0874 -12.3122,15.10379 -20.5495,32.08479 -22.2453,38.39549 0.1167,0.9309 0.2193,1.8648 0.3766,2.7874 0.1437,0.8279 0.3243,1.601 0.4905,2.3875 2.4857,4.2516 8.639,11.0582 16.9095,16.8766 8.5897,6.043 19.2997,11.1681 30.0343,13.3562 1.1638,0.035 2.3314,0.07 3.5328,0.064 z m -261.1328,-2.3297 35.1047,-14.5421 13.7687,-5.7016 c -2.275,-5.4799 -3.4546,-11.354 -3.4546,-17.2875 0.014,-5.9318 1.196,-11.8028 3.4781,-17.2781 l -13.7922,-5.7125 -35.0578,-14.52349 a 98.108492,98.107722 0 0 0 -5.8407,19.60629 l 17.9095,17.9078 -17.8985,17.8984 a 98.108492,98.107722 0 0 0 5.7828,19.6328 z m 535.9953,0 35.1066,-14.5421 13.7672,-5.7016 c -2.2752,-5.48 -3.4536,-11.354 -3.4536,-17.2875 0.016,-5.9318 1.1944,-11.8043 3.4768,-17.2797 l -13.7904,-5.7109 -35.0597,-14.52349 a 98.108492,98.107722 0 0 0 -5.8391,19.60629 l 17.9078,17.9078 -17.8985,17.8984 a 98.108492,98.107722 0 0 0 5.7829,19.6328 z m -354.8203,-0.018 a 98.108492,98.107722 0 0 0 5.8391,-19.6031 l -17.9094,-17.9093 17.9,-17.9016 a 98.108492,98.107722 0 0 0 -5.7828,-19.63129 l -35.1078,14.54219 -13.7672,5.7031 c 2.2749,5.48 3.4531,11.354 3.4531,17.2876 -0.013,5.9314 -1.1939,11.8026 -3.475,17.278 l 13.7891,5.7126 35.0609,14.5218 z m 535.9949,0 a 98.108492,98.107722 0 0 0 5.8392,-19.6031 l -17.9096,-17.9093 17.9016,-17.9016 a 98.108492,98.107722 0 0 0 -5.784,-19.63129 l -35.108,14.54219 -13.7672,5.7031 c 2.2752,5.4801 3.4528,11.354 3.4528,17.2876 -0.016,5.9316 -1.1936,11.8026 -3.4752,17.278 l 13.7896,5.7126 35.0608,14.5218 z m -626.5606,-0.2281 c 20.5954,8e-4 37.2912,-16.6954 37.2907,-37.2906 5e-4,-20.5953 -16.6953,-37.29139 -37.2907,-37.29069 -20.5944,7e-4 -37.2879,16.69629 -37.2874,37.29069 -5e-4,20.5943 16.693,37.29 37.2874,37.2906 z m 535.9966,0 c 20.5952,8e-4 37.2912,-16.6954 37.2904,-37.2906 0,-20.5953 -16.6952,-37.29139 -37.2904,-37.29069 -20.5944,7e-4 -37.2888,16.69629 -37.2888,37.29069 0,20.5943 16.6944,37.2901 37.2888,37.2906 z m -433.5762,-61.2156 31.5796,-31.57979 -36.7921,15.2406 a 105.30532,105.30449 0 0 1 5.2125,16.33919 z m 535.9946,0 31.58,-31.57979 -36.7904,15.2406 a 105.30532,105.30449 0 0 1 5.2104,16.33919 z m -204.8524,-0.016 a 105.30532,105.30449 0 0 1 5.1781,-16.34539 l -36.7438,-15.2188 31.5657,31.56419 z m -535.9969,0 a 105.30532,105.30449 0 0 1 5.1797,-16.34539 l -36.7437,-15.2188 31.564,31.56419 z m 63.1891,-15.30639 -28.8422,-31.2375 a 98.108492,98.107722 0 0 0 -2.4672,2.3344 l 31.3094,28.9031 z m 78.4937,0 31.2375,-28.839 a 98.108492,98.107722 0 0 0 -2.3328,-2.4672 l -28.9047,31.3062 z m 457.5017,0 -28.8423,-31.2375 a 98.108492,98.107722 0 0 0 -2.4672,2.3344 l 31.3095,28.9031 z m 78.4944,0 31.2376,-28.839 a 98.108492,98.107722 0 0 0 -2.3344,-2.4672 l -28.9032,31.3062 z m -557.9664,-2.4609 0,-0.01 5.7125,-13.7906 14.5234,-35.061 a 98.108492,98.107722 0 0 0 -19.6031,-5.8406 l -17.911,17.911 -17.9,-17.8969 a 98.108492,98.107722 0 0 0 -19.6328,5.7859 l 14.5423,35.1047 5.7031,13.7688 c 5.48,-2.2752 11.354,-3.4547 17.2874,-3.4547 5.9319,0.014 11.8028,1.1961 17.2782,3.4781 z m 535.9968,0 5.7104,-13.7922 14.524,-35.0594 a 98.108492,98.107722 0 0 0 -19.6032,-5.8406 l -17.9096,17.9109 -17.9016,-17.9015 a 98.108492,98.107722 0 0 0 -19.6312,5.7859 l 14.5424,35.1047 5.7016,13.7687 c 5.48,-2.275 11.3552,-3.4546 17.2888,-3.4546 5.932,0.014 11.8024,1.1961 17.2784,3.4781 z m -93.0421,-31.2469 a 105.30532,105.30449 0 0 1 2.739,-2.8719 l -53.6999,-58.16248 53.7624,-58.22968 a 105.30532,105.30449 0 0 1 -2.8718,-2.73904 l -58.1626,53.69688 -58.2312,-53.76096 a 105.30532,105.30449 0 0 1 -2.739,2.87192 l 53.6984,58.16088 -53.7625,58.22808 a 105.30532,105.30449 0 0 1 2.8719,2.7391 l 58.1593,-53.69686 58.2344,53.76096 0,0 z m -535.9985,0 a 105.30532,105.30449 0 0 1 2.7391,-2.8703 l -53.7,-58.16248 53.7625,-58.23128 a 105.30532,105.30449 0 0 1 -2.8719,-2.73904 l -58.1624,53.6984 7.2718,7.27192 -7.2718,7.27184 58.2327,53.76094 z m 267.9985,0 a 105.30532,105.30449 0 0 1 2.7391,-2.8703 l -53.7,-58.16248 53.7609,-58.23128 a 105.30532,105.30449 0 0 1 -2.8703,-2.73904 l -58.1626,53.6984 -58.2312,-53.76248 a 105.30532,105.30449 0 0 1 -2.739,2.87192 l 53.6968,58.16248 -53.7609,58.22968 a 105.30532,105.30449 0 0 1 2.8703,2.739 l 58.164,-53.69684 58.2329,53.76094 z m 419.5997,-0.064 58.1624,-53.69686 -7.272,-7.27032 -53.7624,58.22808 a 105.30532,105.30449 0 0 1 2.872,2.7391 z m -652.0966,-24.1781 a 105.30532,105.30449 0 0 1 16.3391,-5.2125 l -31.5797,-31.5781 31.5656,-31.56408 a 105.30532,105.30449 0 0 1 -16.3453,-5.17968 l -15.2203,36.74376 15.2406,36.7906 z m 267.9984,0 a 105.30532,105.30449 0 0 1 16.3391,-5.2125 l -31.5797,-31.5781 31.5641,-31.56408 a 105.30532,105.30449 0 0 1 -16.3453,-5.17968 l -15.2188,36.74376 15.2406,36.7906 z m 267.9982,0 a 105.30532,105.30449 0 0 1 16.3376,-5.2125 l -31.5776,-31.57658 15.24,36.78908 z m -455.4466,-0.05 15.2188,-36.7406 -15.2407,-36.79216 a 105.30532,105.30449 0 0 1 -16.339,5.21248 l 31.5797,31.57968 -31.5641,31.5641 a 105.30532,105.30449 0 0 1 16.3453,5.1765 z m 267.9969,0 15.2203,-36.7406 -15.2406,-36.79216 a 105.30532,105.30449 0 0 1 -16.3391,5.21248 l 31.5797,31.57968 -31.5656,31.5641 a 105.30532,105.30449 0 0 1 16.3453,5.1765 z m 267.9977,0 15.2192,-36.73908 -31.564,31.56258 a 105.30532,105.30449 0 0 1 16.3448,5.1765 z m -95.7872,-36.7406 31.5624,-31.56248 a 105.30532,105.30449 0 0 1 -16.3448,-5.17968 l -15.2176,36.74216 z m 111.0048,0 -15.2392,-36.78904 a 105.30532,105.30449 0 0 1 -16.3376,5.21248 l 31.5768,31.57656 z m 71.2248,0 7.272,-7.27032 -58.2312,-53.76096 a 105.30532,105.30449 0 0 1 -2.7392,2.87032 l 53.6984,58.16096 z m -680.6323,-37.59216 17.9093,-17.90944 17.9016,17.9 a 98.108492,98.107722 0 0 0 19.6313,-5.7828 l -14.5422,-35.10776 -5.7031,-13.7672 c -5.4802,2.27512 -11.3541,3.45312 -17.2876,3.45312 -5.9318,-0.0136 -11.8026,-1.19464 -17.278,-3.47656 l -5.7125,13.79064 -14.5219,35.05776 a 98.108492,98.107722 0 0 0 19.6031,5.84224 z m 267.9969,0 17.9109,-17.90944 17.9,17.9 a 98.108492,98.107722 0 0 0 19.6313,-5.7828 l -14.5406,-35.10776 -5.7032,-13.7672 c -5.4796,2.27512 -11.3535,3.45312 -17.2875,3.45312 -5.9317,-0.0136 -11.8023,-1.19464 -17.2781,-3.47656 l -5.7125,13.79064 -14.5235,35.05776 a 98.108492,98.107722 0 0 0 19.6032,5.84224 z m 267.9978,0 17.9112,-17.90944 17.9,17.9 a 98.108492,98.107722 0 0 0 19.6312,-5.7828 l -14.5424,-35.10776 -5.7016,-13.7672 c -5.4792,2.27504 -11.3536,3.45312 -17.2872,3.45312 -5.932,-0.0136 -11.804,-1.19464 -17.28,-3.47656 l -5.7104,13.79064 -14.5232,35.05776 a 98.108492,98.107722 0 0 0 19.6024,5.84224 z m -586.2369,-25.84688 28.9063,-31.30632 -31.2391,28.83912 a 98.108492,98.107722 0 0 0 2.3328,2.4672 z m 267.9969,0 28.9062,-31.30632 -31.2375,28.83912 a 98.108492,98.107722 0 0 0 2.3313,2.4672 z m 267.9984,0 28.9064,-31.30632 -31.2376,28.83912 a 98.108492,98.107722 0 0 0 2.3312,2.4672 z m -399.7546,-0.0656 a 98.108492,98.107722 0 0 0 2.4656,-2.33432 l -31.3063,-28.90472 28.8407,31.23904 z m 267.9968,0 a 98.108492,98.107722 0 0 0 2.4672,-2.33432 l -31.3063,-28.90472 28.8391,31.23904 z m 267.9978,0 a 98.108492,98.107722 0 0 0 2.4672,-2.33432 l -31.3064,-28.90472 28.8392,31.23904 z m -202.0869,-14.97808 36.7938,-15.24064 a 105.30532,105.30449 0 0 1 -5.2125,-16.34064 l -31.5813,31.57816 -31.564,-31.56408 a 105.30532,105.30449 0 0 1 -5.1765,16.34528 l 36.7405,15.2188 0,0 z m -535.9952,0 36.7937,-15.23912 a 105.30532,105.30449 0 0 1 -5.2125,-16.34056 l -31.5812,31.57968 z m 267.9983,0 36.7923,-15.23912 a 105.30532,105.30449 0 0 1 -5.2125,-16.34056 l -31.5798,31.57968 z m 0,0 -31.5656,-31.56408 a 105.30532,105.30449 0 0 1 -5.1765,16.34528 l 36.7421,15.2188 z m 535.995,0 -31.564,-31.56408 a 105.30532,105.30449 0 0 1 -5.1768,16.34688 l 36.7408,15.2172 z m -760.6043,-17.9688 35.1047,-14.54216 13.7687,-5.7016 c -2.275,-5.48001 -3.4546,-11.35401 -3.4546,-17.28745 0.014,-5.93184 1.196,-11.8028 3.4781,-17.27816 l -13.7922,-5.71248 -35.0578,-14.52344 a 98.108492,98.107722 0 0 0 -5.8407,19.60472 l 17.9095,17.90936 -17.8985,17.89841 a 98.108492,98.107722 0 0 0 5.7828,19.6328 z m 267.9969,0 35.1062,-14.54216 13.7672,-5.7016 c -2.275,-5.48001 -3.4531,-11.35401 -3.4531,-17.28745 0.014,-5.93184 1.1958,-11.8028 3.4781,-17.27816 l -13.7922,-5.71248 -35.0578,-14.52344 a 98.108492,98.107722 0 0 0 -5.8406,19.60472 l 17.9078,17.90936 -17.8984,17.89841 a 98.108492,98.107722 0 0 0 5.7828,19.6328 z m 267.9984,0 35.1066,-14.54216 13.7672,-5.7016 c -2.2752,-5.48001 -3.4536,-11.35401 -3.4536,-17.28745 0.016,-5.93184 1.196,-11.80432 3.4768,-17.27968 l -13.7904,-5.71096 -35.0597,-14.52344 a 98.108492,98.107722 0 0 0 -5.8391,19.60472 l 17.9078,17.90936 -17.8985,17.89841 a 98.108492,98.107722 0 0 0 5.7829,19.6328 z m -354.8203,-0.02 a 98.108492,98.107722 0 0 0 5.8391,-19.60312 l -17.9094,-17.90937 17.9,-17.90152 a 98.108492,98.107722 0 0 0 -5.7828,-19.63128 l -35.1078,14.54216 -13.7672,5.70312 c 2.2749,5.47992 3.4531,11.35408 3.4531,17.28752 -0.013,5.9316 -1.1939,11.80264 -3.475,17.27817 l 13.7891,5.71248 35.0609,14.52184 z m 267.9969,0 a 98.108492,98.107722 0 0 0 5.8406,-19.60312 l -17.9109,-17.90937 17.9015,-17.90152 a 98.108492,98.107722 0 0 0 -5.7828,-19.63128 l -35.1078,14.54216 -13.7688,5.70312 c 2.275,5.47992 3.4548,11.35408 3.4548,17.28752 -0.012,5.9316 -1.1941,11.80264 -3.4751,17.27817 l 13.7891,5.71248 35.0594,14.52184 z m 267.998,0 a 98.108492,98.107722 0 0 0 5.8392,-19.60312 l -17.9096,-17.90937 17.9016,-17.90152 a 98.108492,98.107722 0 0 0 -5.784,-19.63128 l -35.108,14.54216 -13.7672,5.70312 c 2.2752,5.47992 3.4528,11.35408 3.4528,17.28752 -0.01,5.9316 -1.1936,11.80264 -3.4752,17.27817 l 13.7896,5.71248 35.0608,14.52184 z m -626.5606,-0.23904 c 20.5954,6.4e-4 37.2912,-16.69544 37.2907,-37.29065 5e-4,-20.59536 -16.6953,-37.29128 -37.2907,-37.29056 -20.5944,5.6e-4 -37.2879,16.69624 -37.2874,37.29056 -5e-4,20.59425 16.693,37.29001 37.2874,37.29065 z m 267.9985,0 c 20.5959,6.4e-4 37.2907,-16.69544 37.2907,-37.29065 0,-20.59536 -16.6948,-37.29128 -37.2907,-37.29056 -20.5946,5.6e-4 -37.289,16.69624 -37.289,37.29056 0,20.59425 16.6944,37.29001 37.289,37.29065 z m 267.9981,0 c 20.596,6.4e-4 37.2904,-16.69544 37.2904,-37.29065 0,-20.59536 -16.6944,-37.29128 -37.2904,-37.29056 -20.5944,5.6e-4 -37.2888,16.69624 -37.2888,37.29056 0,20.59425 16.6944,37.29001 37.2888,37.29065 z m -433.5762,-61.21721 31.5796,-31.57808 31.5641,31.564 a 105.30532,105.30449 0 0 1 5.1797,-16.34528 l -36.7438,-15.21872 -36.7921,15.24064 a 105.30532,105.30449 0 0 1 5.2125,16.33744 z m 267.9984,0 31.5781,-31.57808 31.5657,31.564 a 105.30532,105.30449 0 0 1 5.1781,-16.34528 l -36.7438,-15.21872 -36.7905,15.24064 a 105.30532,105.30449 0 0 1 5.2124,16.33744 z m 267.9962,0 31.58,-31.57808 -36.7904,15.24064 a 105.30532,105.30449 0 0 1 5.2104,16.33744 z m -740.8493,-0.0144 a 105.30532,105.30449 0 0 1 5.1797,-16.34528 l -36.7437,-15.21872 31.564,31.564 z m 63.1891,-15.30776 -28.8422,-31.23752 a 98.108492,98.107722 0 0 0 -2.4672,2.3328 l 31.3094,28.90472 z m 78.4937,0 31.2375,-28.84064 a 98.108492,98.107722 0 0 0 -2.3328,-2.4656 l -28.9047,31.30624 z m 189.5031,0 -28.8421,-31.23752 a 98.108492,98.107722 0 0 0 -2.4657,2.3328 l 31.3078,28.90472 z m 78.4953,0 31.2375,-28.84064 a 98.108492,98.107722 0 0 0 -2.3344,-2.4656 l -28.9031,31.30624 z m 189.5033,0 -28.8423,-31.23752 a 98.108492,98.107722 0 0 0 -2.4672,2.3328 l 31.3095,28.90472 z m 78.4944,0 31.2376,-28.84064 a 98.108492,98.107722 0 0 0 -2.3344,-2.4656 l -28.9032,31.30624 z m -557.9664,-2.46408 5.7125,-13.79216 14.5234,-35.06096 a 98.108492,98.107722 0 0 0 -19.6031,-5.83904 l -17.911,17.90936 -17.9,-17.9 a 98.108492,98.107722 0 0 0 -19.6328,5.78592 l 14.5423,35.10472 5.7031,13.7672 c 5.48,-2.27504 11.354,-3.45312 17.2874,-3.45312 5.9319,0.0136 11.8028,1.19624 17.2782,3.47808 z m 267.9984,0 5.7126,-13.79216 14.5218,-35.06096 a 98.108492,98.107722 0 0 0 -19.6031,-5.83904 l -17.9094,17.90936 -17.9016,-17.9 a 98.108492,98.107722 0 0 0 -19.6312,5.78592 l 14.5422,35.10472 5.7031,13.7672 c 5.4796,-2.27504 11.3546,-3.45312 17.2875,-3.45312 5.9316,0.0136 11.8022,1.19624 17.2781,3.47808 z m 267.9984,0 5.7104,-13.79216 14.524,-35.06096 a 98.108492,98.107722 0 0 0 -19.6032,-5.83904 l -17.9096,17.90936 -17.9016,-17.9 a 98.108492,98.107722 0 0 0 -19.6312,5.78592 l 14.5424,35.10472 5.7016,13.7672 c 5.4792,-2.27504 11.356,-3.45312 17.2888,-3.45312 5.9328,0.0136 11.8032,1.19624 17.2784,3.47808 z m -629.0406,-31.25312 a 105.30532,105.30449 0 0 1 2.7391,-2.87032 l -53.7,-58.16248 -7.2718,7.27184 58.2327,53.76096 z m 267.9985,0 a 105.30532,105.30449 0 0 1 2.7391,-2.87032 l -53.7,-58.16248 -7.272,7.27184 -7.2734,-7.27184 -53.7609,58.2312 a 105.30532,105.30449 0 0 1 2.8703,2.73912 l 58.164,-53.69848 58.2329,53.76096 z m 267.9984,0 a 105.30532,105.30449 0 0 1 2.739,-2.87032 l -53.7015,-58.16248 -7.2719,7.27184 -7.2718,-7.27184 -53.7625,58.2312 a 105.30532,105.30449 0 0 1 2.8718,2.73912 l 58.1625,-53.69848 58.2344,53.76096 z m 151.6013,-0.0624 58.1624,-53.69848 -7.272,-7.27184 -53.7624,58.2312 a 105.30532,105.30449 0 0 1 2.872,2.73912 z M 2298.2383,663.2473 a 105.30532,105.30449 0 0 1 16.3391,-5.21256 l -31.5797,-31.57808 15.2406,36.79064 z m 267.9984,0 a 105.30532,105.30449 0 0 1 16.3391,-5.21256 l -31.5797,-31.57808 15.2406,36.79064 z m 267.9982,0 a 105.30532,105.30449 0 0 1 16.3376,-5.21256 l -31.5776,-31.57808 15.24,36.79064 z m -455.4466,-0.0496 15.2188,-36.74064 -31.5641,31.56408 a 105.30532,105.30449 0 0 1 16.3453,5.17656 z m 267.9969,0 15.2203,-36.74064 -31.5656,31.56408 a 105.30532,105.30449 0 0 1 16.3453,5.17656 z m 267.9977,0 15.2192,-36.74064 -31.564,31.56408 a 105.30532,105.30449 0 0 1 16.3448,5.17656 z"
       id="rect6290-1"
       inkscape:connector-curvature="0" /></g></svg>