<?xml version="1.0" encoding="UTF-8" standalone="no"?>
<!-- Created with Inkscape (http://www.inkscape.org/) -->

<svg
   xmlns:dc="http://purl.org/dc/elements/1.1/"
   xmlns:cc="http://creativecommons.org/ns#"
   xmlns:rdf="http://www.w3.org/1999/02/22-rdf-syntax-ns#"
   xmlns:svg="http://www.w3.org/2000/svg"
   xmlns="http://www.w3.org/2000/svg"
   xmlns:sodipodi="http://sodipodi.sourceforge.net/DTD/sodipodi-0.dtd"
   xmlns:inkscape="http://www.inkscape.org/namespaces/inkscape"
   version="1.1"
   id="svg2"
   xml:space="preserve"
   width="426.02536mm"
   height="220.02519mm"
   viewBox="0 0 1610.1745 831.59127"
   sodipodi:docname="voorkantBuiten.svg"
   inkscape:version="0.91 r13725"><metadata
     id="metadata8"><rdf:RDF><cc:Work
         rdf:about=""><dc:format>image/svg+xml</dc:format><dc:type
           rdf:resource="http://purl.org/dc/dcmitype/StillImage" /><dc:title></dc:title></cc:Work></rdf:RDF></metadata><defs
     id="defs6" /><sodipodi:namedview
     pagecolor="#ffffff"
     bordercolor="#666666"
     borderopacity="1"
     objecttolerance="10"
     gridtolerance="10"
     guidetolerance="10"
     inkscape:pageopacity="0"
     inkscape:pageshadow="2"
     inkscape:window-width="2560"
     inkscape:window-height="1381"
     id="namedview4"
     showgrid="false"
     units="mm"
     inkscape:zoom="0.6728065"
     inkscape:cx="1103.9249"
     inkscape:cy="281.91594"
     inkscape:window-x="0"
     inkscape:window-y="0"
     inkscape:window-maximized="1"
     inkscape:current-layer="g10"
     inkscape:object-nodes="true"
     fit-margin-top="10"
     fit-margin-left="10"
     fit-margin-right="10"
     fit-margin-bottom="10" /><g
     id="g10"
     inkscape:groupmode="layer"
     inkscape:label="box-20170423_015345_480414"
     transform="matrix(1.3333333,0,0,-1.3333333,-2891.5822,1620.9952)"><path
       inkscape:connector-curvature="0"
       style="display:inline;fill:none;fill-opacity:0.6;fill-rule:evenodd;stroke:#ff0000;stroke-width:0.07086616;stroke-linecap:butt;stroke-linejoin:round;stroke-miterlimit:4;stroke-dasharray:none;stroke-dashoffset:0;stroke-opacity:1"
       d="m 2197.0686,1187.3646 0,-566.92975 1150.8672,0 0,566.92975 -1150.8672,0 z m 328.0424,-23.6343 117.2784,-124.1782 c -1.7376,-1.5957 -3.4464,-3.2244 -5.1216,-4.8844 l -125.124,116.0938 12.9672,12.9688 z m 494.7832,0 12.9672,-12.9688 -125.2472,-116.2078 c -1.5952,1.7374 -3.224,3.4458 -4.884,5.1219 l 117.164,124.0547 z m -346.3688,-20.3376 56.2872,-56.2859 c -9.9512,-2.2812 -19.7,-5.37 -29.148,-9.2359 l -27.1392,65.5218 z m 197.9544,0 -27.1768,-65.6078 c -9.4424,3.8855 -19.1872,6.9942 -29.1352,9.2953 l 56.312,56.3125 z m -180.0408,-69.5531 0.064,0 c 6.2232,-5.5756 14.584,-8.1664 33.1792,-7.2922 11.4536,0.5385 23,-3.1921 32.7176,-10.1281 -1.7944,-0.7529 -3.7992,-1.4787 -6.0656,-2.1812 -13.3528,-4.1389 -27.116,-20.2826 -30.4536,-40.0985 -5.7376,3.1094 -11.8432,5.1516 -18.1392,5.9844 0,0.01 0,0.01 -0.016,0.01 -12.3656,2.1224 -23.9184,0.2684 -31.6832,-4.8609 -2.5952,-1.7139 -4.9488,-3.0662 -7.128,-4.1204 0.776,15.4571 7.4304,29.8978 16.008,37.8782 0.5328,0.4953 1.0384,0.9875 1.5296,1.4797 7.5416,8.2349 10.0904,15.4858 9.7048,22.9171 l 0.1456,0.1813 c 0.048,-0.042 0.098,-0.081 0.1464,-0.1234 0,0.1192 0,0.2383 -0.01,0.3578 z m 163.0096,0 0.064,0 c 0,-0.1201 0,-0.2394 0,-0.3594 0.048,0.042 0.098,0.081 0.1464,0.1235 l 0.1472,-0.1828 c -0.3864,-7.4314 2.1616,-14.6823 9.7032,-22.9172 0.4912,-0.4922 0.9984,-0.9844 1.5312,-1.4797 8.5648,-7.9687 15.212,-22.378 16.0032,-37.8094 -2.1408,1.045 -4.452,2.3726 -6.9944,4.0516 -7.7696,5.1325 -19.3296,6.9865 -31.7056,4.8578 -6.292,-0.8335 -12.396,-2.8751 -18.132,-5.9828 -3.3376,19.8154 -17.0976,35.9581 -30.4512,40.0969 -2.3,0.7131 -4.3344,1.4505 -6.1488,2.2156 9.708,6.914 21.232,10.6313 32.6672,10.0937 18.596,-0.8742 26.9568,1.7166 33.18,7.2922 z m -69.1464,-19.9078 c 2.412,-1.162 5.1688,-2.2401 8.3512,-3.2266 11.28,-3.4961 24.5648,-18.4984 27.8472,-36.7734 -14.816,6.6459 -31.2264,10.3469 -48.4944,10.3469 -17.24,0 -33.6256,-3.6885 -48.4232,-10.3141 3.292,18.2603 16.5696,33.2466 27.8424,36.7406 3.1464,0.9752 5.8776,2.0393 8.2704,3.186 4.7064,-3.8922 8.8824,-8.5799 12.2776,-13.9281 3.4072,5.367 7.6008,10.0685 12.3288,13.9687 z m -12.3016,-36.0766 0,0 c 15.6976,-0.035 31.2064,-3.3551 45.5576,-9.6984 0.093,-0.495 0.1688,-0.992 0.248,-1.4891 -14.1744,-9.38561 -22.8792,-25.33291 -22.8792,-42.58591 0,-1.556 0.072,-3.0949 0.2104,-4.6156 -1.2128,-0.704 -2.4616,-1.3523 -3.7416,-1.9469 -2.4456,1.4701 -4.7864,3.1193 -7.0032,4.9328 0.056,-0.011 0.1032,-0.022 0.1544,-0.033 -4.944,4.0075 -9.212,8.7868 -12.6344,14.1531 -3.4512,-5.4021 -7.7568,-10.2083 -12.7496,-14.2297 0.1096,0.019 0.22,0.039 0.3296,0.058 -2.2616,-1.8462 -4.6536,-3.521 -7.1536,-5.0094 -1.3768,0.629 -2.716,1.3216 -4.0168,2.0766 0.1368,1.5204 0.2096,3.0584 0.2096,4.614 l 0,0 c -0.016,17.246 -8.7344,33.1822 -22.916,42.55471 0.064,0.3984 0.1176,0.7968 0.1872,1.1938 14.5248,6.5419 30.2592,9.9742 46.1976,10.0219 z m -79.3784,-0.5781 0.016,0 c 2.7488,-0.036 5.604,-0.2961 8.5144,-0.7984 0.024,-0.01 0.056,-0.01 0.08,-0.013 l 0,0 c 5.712,-0.7549 11.2704,-2.5205 16.5016,-5.2969 -29.5216,-15.20641 -51.9,-42.43321 -60.7376,-75.23591 -4.64,5.7671 -8.284,13.2591 -10.364,20.7375 -2.3968,8.6151 -2.668,17.2056 -0.476,22.9297 0.408,1.0658 0.7664,2.0811 1.0984,3.0687 0.01,0.026 0.016,0.053 0.024,0.08 0.232,0.8084 0.488,1.619 0.7624,2.4312 0,0.025 0.016,0.051 0.016,0.077 0.3208,1.1048 0.596,2.1708 0.828,3.2062 5.344,0.998 11.0896,1.2589 17.2152,0.5454 -2.0296,5.831 -3.1208,11.94311 -3.2608,18.11091 2.8496,1.2154 5.8992,2.8756 9.2176,5.0672 5.016,3.3133 12.312,5.2022 20.5576,5.0922 z m 158.8136,-0.01 0,0 0,0 c 8.2472,0.11 15.5448,-1.7805 20.56,-5.0937 3.2672,-2.1579 6.2736,-3.8005 9.0856,-5.011 -0.136,-6.1866 -1.2256,-12.31701 -3.2608,-18.16561 6.1784,0.7196 11.9696,0.4505 17.3512,-0.5688 0.2312,-1.0259 0.5016,-2.0826 0.8192,-3.1765 0,-0.026 0.016,-0.05 0.024,-0.075 0.2776,-0.819 0.536,-1.6376 0.7688,-2.4515 0,-0.026 0.016,-0.053 0.024,-0.08 0.3312,-0.9841 0.6872,-1.9951 1.0936,-3.0563 2.1928,-5.7242 1.9208,-14.3144 -0.476,-22.9297 -2.088,-7.5042 -5.7512,-15.0233 -10.4144,-20.7984 -8.824,32.8175 -31.1952,60.0602 -60.7184,75.27971 5.2424,2.7876 10.8136,4.5579 16.5392,5.3141 0.01,0 0.016,0.01 0.024,0.01 l 0.016,0.01 c 0.016,0 0.032,0.01 0.048,0.01 2.9112,0.5022 5.7656,0.7615 8.5152,0.7984 z m -27.5264,-12.1687 c 0,0 0,0 0,0 28.348,-14.63031 49.2104,-40.52081 57.476,-71.33441 -0.4368,-0.5093 -0.8832,-1.0042 -1.3392,-1.4922 -5.0512,1.645 -10.3384,2.5006 -15.676,2.5156 -13.6936,0 -26.1384,-5.4051 -35.316,-14.19374 -1.212,0.47229 -2.3936,0.99914 -3.5528,1.56714 -0.364,2.6436 -0.5568,5.3221 -0.5568,8.0204 0,0.2389 0.01,0.4767 0.016,0.7156 l 0.016,-0.031 c 0.048,3.921 0.4928,7.8271 1.316,11.661 0.016,0.086 0.048,0.1706 0.064,0.2562 0.3752,1.6917 0.8264,3.365 1.3488,5.0172 0.1696,0.5383 0.3368,1.0772 0.5216,1.6109 l -0.016,0 c 0.01,0.036 0.016,0.072 0.04,0.1078 -2.112,-0.2518 -4.2368,-0.3894 -6.364,-0.4125 -4.2328,0.014 -8.4512,0.4814 -12.5856,1.3954 0.04,-0.035 0.081,-0.071 0.1184,-0.1063 -2.9792,0.6448 -5.8952,1.5137 -8.72,2.5984 -0.3376,1.3862 -0.6176,2.7948 -0.828,4.2266 13.8296,9.1464 22.964,24.8353 22.964,42.636 l 0,0.011 c 0,1.50351 -0.09,3.00501 -0.228,4.50001 0.4296,0.2499 0.8632,0.4941 1.3032,0.7313 0,8e-4 0,0 0,0 l 0.01,0 z m -104.256,-0.1032 0.01,0 c 0,-5e-4 0,-8e-4 0,0 0.4024,-0.2181 0.7976,-0.4431 1.192,-0.6718 -0.132,-1.485 -0.2032,-2.9747 -0.2032,-4.46721 l 0,0 c 0,-17.801 9.1344,-33.4881 22.964,-42.6344 -0.2208,-1.5012 -0.516,-2.9789 -0.876,-4.4297 -2.6912,-1.0039 -5.4632,-1.8118 -8.2944,-2.4188 0.056,0.043 0.104,0.086 0.1552,0.1297 -4.1296,-0.913 -8.3448,-1.3808 -12.5736,-1.3953 -2.1304,0.01 -4.2592,0.129 -6.3768,0.3656 2.0936,-6.0011 3.208,-12.2992 3.2984,-18.6546 0.016,0.032 0.04,0.062 0.056,0.094 0,-0.243 0.016,-0.4866 0.016,-0.7297 0,-2.6115 -0.1792,-5.2033 -0.52,-7.764 -1.3248,-0.6693 -2.6856,-1.27882 -4.0784,-1.82192 -9.1776,8.78862 -21.6216,14.19372 -35.3144,14.19372 -5.3304,-0.016 -10.6104,-0.8711 -15.6576,-2.514 -0.2992,0.3213 -0.596,0.6474 -0.8872,0.9781 8.076,30.8974 28.8048,56.9417 57.1,71.74531 0,8e-4 0,0 0,0 z m -187.1032,-1.5828 65.6128,-27.17651 c -3.8848,-9.4444 -6.9936,-19.1908 -9.2952,-29.1407 l -56.3176,56.31721 z m 477.9032,0 -56.2856,-56.28591 c -2.2808,9.9508 -5.368,19.6995 -9.2328,29.1484 l 65.5184,27.13751 z m -192.1112,-1.839 0,0 c 0,-7e-4 0,-8e-4 0,0 0.024,-0.5764 0.048,-1.1536 0.056,-1.73131 0,-15.4374 -7.4768,-29.1057 -19.008,-37.5953 -0.016,0.6074 -0.04,1.215 -0.04,1.8281 0,14.9646 7.1848,28.8036 18.992,37.49851 0,0 0,0 0,0 z m -93.2328,-0.05 0.016,0 c 0,0 0,-0.01 0,-0.01 11.7928,-8.68511 18.9728,-22.49921 18.9904,-37.44221 0,-0.6121 -0.016,-1.2203 -0.032,-1.8266 -11.532,8.4909 -19.0064,22.1621 -19.0064,37.6016 0,0.55671 0.016,1.11171 0.048,1.66721 0,0 -0.01,0.01 -0.016,0.01 z m -80.2392,-13.98131 0,0 c -0.1104,-0.4156 -0.2192,-0.8324 -0.3448,-1.2625 -0.2728,-0.8115 -0.5296,-1.6248 -0.7656,-2.4406 -0.3216,-0.9552 -0.6624,-1.9208 -1.0472,-2.9266 -2.6512,-6.9236 -2.1712,-16.1063 0.3704,-25.2422 2.3184,-8.3342 6.412,-16.61 11.836,-22.989 -18.208,-7.4915 -30.788,-24.00007 -31.9904,-37.98127 -0.3288,-3.81121 -0.86,-6.98177 -1.5704,-9.68121 -11.548,9.40777 -18.9608,22.02349 -19.8816,32.7265 -1.3496,15.69558 -5.8056,23.16358 -12.556,28.02028 l -0.064,0.2594 c 8.2312,1.447 15.36,6.4624 19.592,13.6688 -0.048,-0.1356 -0.09,-0.2721 -0.1344,-0.4078 0.072,0.1243 0.152,0.2504 0.228,0.375 1.568,2.721 3.356,5.3282 5.3592,7.7906 5.4096,6.6711 12.1304,11.9909 19.636,15.7203 3.5088,1.8072 7.2928,3.2979 11.328,4.3703 z m 254.3376,-0.034 0,0 c 3.9824,-1.0696 7.7192,-2.5481 11.188,-4.3344 7.5048,-3.7294 14.2264,-9.0507 19.636,-15.7218 2.0024,-2.4624 3.7912,-5.0696 5.3592,-7.7907 0.072,-0.1245 0.156,-0.2506 0.2296,-0.375 -0.048,0.1357 -0.09,0.2723 -0.1344,0.4078 4.232,-7.2064 11.3592,-12.2218 19.5904,-13.6687 l -0.064,-0.2594 c -6.7488,-4.8567 -11.2056,-12.3247 -12.556,-28.0203 -0.9168,-10.66898 -8.2856,-23.23631 -19.772,-32.6344 -0.6984,2.68008 -1.224,5.82032 -1.5488,9.58905 -1.2024,13.98138 -13.7816,30.48985 -31.9904,37.98125 5.4248,6.3788 9.5184,14.6535 11.8376,22.9875 2.5432,9.1362 3.0232,18.3198 0.372,25.2438 -0.3848,1.0019 -0.7256,1.9629 -1.0456,2.9141 -0.2376,0.8227 -0.4944,1.6436 -0.7704,2.4609 -0.1208,0.4156 -0.228,0.8183 -0.3344,1.2203 z m -127.2016,-41.6375 c 22.7864,0 41.26,-18.4717 41.26,-41.25781 0,-22.78687 -18.4728,-41.25943 -41.26,-41.25943 -22.7864,0 -41.2576,18.47256 -41.2576,41.25943 0,22.78611 18.472,41.25781 41.2576,41.25781 z m -92.9056,-15.5078 0,0 0,0 c 11.6752,-7e-4 22.34,-4.2779 30.5176,-11.34845 -3.88,-1.04321 -7.9608,-1.60286 -12.172,-1.60313 -11.2216,0.0155 -21.9416,4.09688 -30.3184,11.31248 3.892,1.0623 7.9112,1.6261 11.9704,1.6391 z m 185.2496,0 c 4.0704,-0.011 8.1016,-0.5731 12.0032,-1.6391 -8.3776,-7.2163 -19.1072,-11.30284 -30.344,-11.31248 -4.2128,1.1e-4 -8.292,0.56267 -12.172,1.60626 8.1768,7.07012 18.8392,11.34532 30.5128,11.34532 z m 24.3248,-1.4703 0.01,0 c 0,-8e-4 0,0 0,0 16.4472,-7.2079 27.7648,-22.76428 28.7752,-34.50473 0.3928,-4.56801 1.116,-8.40137 2.1264,-11.65937 -4.6768,-3.37912 -9.9256,-6.22976 -15.6264,-8.25624 0.072,-0.0844 0.1352,-0.17008 0.2064,-0.25472 3.4408,-3.6304 6.4808,-8.00808 9.0184,-12.75936 -0.3192,-0.43552 -0.6296,-0.87768 -0.9216,-1.33432 -0.1848,-0.14184 -0.3416,-0.31712 -0.4616,-0.5172 -0.048,-0.0688 -0.1064,-0.17488 -0.1904,-0.31256 0,-0.01 0,-0.0216 -0.016,-0.0312 -1.3064,-2.26632 -2.7968,-4.4368 -4.4624,-6.48592 -4.5032,-5.55296 -10.0976,-9.97912 -16.3456,-13.0844 0,-0.009 -0.016,-0.0104 -0.016,-0.0128 -6.3856,-3.28904 -13.8152,-5.32344 -22.228,-5.16408 14.2104,19.7052 22.5968,43.92368 22.5968,70.10312 0,8.31673 -0.8472,16.43389 -2.456,24.27348 0,0 0,0 -0.01,0 z m -233.3376,-0.027 0,-0.01 c 0,0 0,0 -0.01,0 -1.6048,-7.82936 -2.4472,-15.93872 -2.4472,-24.24373 0,-26.18001 8.3856,-50.39625 22.5968,-70.10161 -8.3832,-0.14776 -15.7888,1.8836 -22.1576,5.16256 0,0.009 -0.016,0.009 -0.016,0.0128 -6.2504,3.1052 -11.8464,7.53448 -16.3496,13.08904 -1.664,2.04504 -3.1496,4.21024 -4.4544,6.47192 0,0.0112 -0.01,0.0216 -0.016,0.0312 -0.081,0.14032 -0.1528,0.24864 -0.1984,0.32344 -0.12,0.20072 -0.2752,0.378 -0.4608,0.52032 -0.3152,0.492 -0.6512,0.96696 -0.9952,1.4344 2.5264,4.71136 5.5464,9.05224 8.9624,12.65624 0.072,0.0844 0.1352,0.17016 0.2048,0.25472 -5.6568,2.01104 -10.8704,4.83432 -15.5208,8.17968 1.024,3.2748 1.7552,7.13264 2.152,11.73745 1.0072,11.72272 12.2928,27.24987 28.7,34.47187 0,0 0,0 0,0 l 0,0 0.01,0 z m 6.9224,-1.7609 c 9.4312,-8.99331 22.0096,-14.09643 35.1824,-14.11408 5.5208,0 10.8352,0.88216 15.8176,2.50625 1.0192,-1.09496 1.9832,-2.24349 2.8952,-3.43281 -0.9152,-2.84119 -2.048,-5.60731 -3.38,-8.27819 0,0.13272 0,0.26576 0,0.3985 -2.8176,-5.75666 -6.5504,-11.01682 -11.0552,-15.57659 0.048,-0.0208 0.1008,-0.0408 0.1504,-0.0624 l 0,-0.01 c 0.072,-0.024 0.1368,-0.0512 0.2048,-0.0752 5.944,-2.16696 11.5024,-5.27336 16.4624,-9.2 -0.016,0.0432 -0.032,0.0862 -0.056,0.12968 2.2088,-1.73 4.2888,-3.60816 6.2224,-5.62184 -0.2888,-1.32864 -0.628,-2.63968 -1.0272,-3.92344 -18.54,-2.52056 -34.2976,-15.0588 -40.9,-32.60472 -0.5704,-0.0448 -1.1424,-0.0823 -1.7184,-0.10624 -14.4688,19.48504 -22.3424,43.08952 -22.3768,67.37972 0.01,7.39986 0.768,14.77495 2.2176,22.02966 0.4528,0.1942 0.9096,0.3795 1.3688,0.5594 l 0,0 z m 218.9576,0 c 0.6224,-0.2448 1.2392,-0.4993 1.8528,-0.7703 1.4528,-7.18225 2.2288,-14.48639 2.2704,-21.81565 l 0,-0.008 c -0.056,-24.30385 -7.9488,-47.91529 -22.4464,-67.39689 -0.7368,0.0232 -1.468,0.064 -2.1952,0.12032 -6.5936,17.53592 -22.3528,30.09448 -40.9128,32.61568 -0.3568,1.14688 -0.6672,2.31536 -0.9344,3.4984 2.076,2.20608 4.3264,4.25224 6.7296,6.12504 1.3664,1.06608 2.78,2.07048 4.236,3.01248 0.2664,0.1724 0.5344,0.34272 0.8048,0.51096 1.3216,0.82384 2.6736,1.59536 4.056,2.31248 0.472,0.24496 0.948,0.4844 1.428,0.7172 1.1848,0.57448 2.3872,1.10888 3.608,1.60312 0.7824,0.31712 1.572,0.62432 2.3736,0.90936 -0.01,0.01 -0.016,0.0232 -0.04,0.0328 0.04,0.0144 0.082,0.0296 0.1176,0.044 -4.5048,4.55121 -8.2408,9.80337 -11.0624,15.55153 0,-0.0792 -0.01,-0.1572 -0.01,-0.23592 -1.3696,2.7652 -2.5264,5.631 -3.4504,8.57656 0.8096,1.03011 1.656,2.0299 2.5472,2.98749 4.9824,-1.62409 10.2976,-2.50469 15.8184,-2.50469 13.1888,0.0106 25.7728,5.12117 35.2032,14.11093 l 0,0 z m -68.328,-61.20156 0,0 0.056,0 c 1.2032,0 2.3976,-0.0568 3.5816,-0.1484 6.492,-17.24944 22.052,-30.08448 40.876,-32.6516 0.2336,-0.75344 0.456,-1.51344 0.6536,-2.2844 -20.7192,-24.16216 -50.6328,-38.48952 -82.4456,-39.49216 -0.4392,0.58576 -0.8576,1.18264 -1.2672,1.78592 4.7024,7.8624 7.2256,16.88184 7.2424,26.12192 l 0,0.01 c 0,9.58472 -2.6496,18.55576 -7.2536,26.22496 0.7128,1.04752 1.4696,2.06272 2.2632,3.04688 3.0304,-0.23976 6.028,-0.7156 8.9728,-1.41248 -0.024,-0.009 -0.056,-0.012 -0.08,-0.0184 6.2472,-1.4656 12.2128,-3.93808 17.6656,-7.3188 0.7664,6.34688 2.5584,12.52864 5.3016,18.30312 -0.016,-0.012 -0.04,-0.0232 -0.048,-0.0344 1.2944,2.74064 2.7912,5.372 4.4784,7.87032 z m -82.3816,0 c 0.1848,0 0.3688,-0.01 0.5536,-0.01 1.68,-2.4884 3.1696,-5.1088 4.4608,-7.83752 -0.048,0.0376 -0.099,0.0752 -0.1488,0.11248 2.772,-5.8232 4.5728,-12.0612 5.3328,-18.4656 5.4576,3.40016 11.4336,5.88856 17.6896,7.3672 -0.016,0.009 -0.048,0.012 -0.064,0.0184 2.8096,0.66672 5.6728,1.12848 8.5624,1.37968 0.7808,-0.97128 1.5272,-1.97008 2.2296,-3.00312 -4.6032,-7.66928 -7.2552,-16.64152 -7.2552,-26.22656 0,-9.23632 2.5144,-18.25552 7.2,-26.12184 -0.3952,-0.58104 -0.8,-1.15728 -1.2216,-1.72192 -31.8416,1.17904 -61.7024,15.70296 -82.2904,40.02192 0.1552,0.57032 0.3232,1.1348 0.4984,1.69528 18.8376,2.56944 34.3832,15.40728 40.872,32.64376 1.184,0.0922 2.3768,0.14688 3.5808,0.14688 z m 91.0504,-0.81872 c 15.1328,-2.85448 27.9064,-13.04912 34.0624,-27.17192 -15.3368,2.8972 -27.9968,13.25832 -34.0624,27.17192 z m -99.6752,-0.008 c -6.0632,-13.89624 -18.6968,-24.2632 -34.0344,-27.16408 6.1608,14.1248 18.9248,24.30704 34.0344,27.16408 z m 232.2608,-3.30936 56.3112,-56.31096 -65.608,27.17656 c 3.8864,9.44296 6.9952,19.18608 9.2968,29.1344 z m -365.3048,-0.0232 c 2.2808,-9.95104 5.3688,-19.69944 9.236,-29.14848 l -65.5232,-27.13904 56.2872,56.28752 z m 40.1016,-3.95 c 0.09,-0.1424 0.18,-0.28184 0.2656,-0.42656 0.104,-0.17656 0.2384,-0.33456 0.3952,-0.4672 1.3296,-2.24728 2.8096,-4.41496 4.4752,-6.46248 4.8408,-5.96864 10.8552,-10.7288 17.5688,-14.0656 l 0,-0.01 c 7.4792,-3.84568 16.3792,-6.07648 26.408,-5.42808 -1.3728,-4.73056 -2.1216,-9.6232 -2.1392,-14.55784 l 0,-0.0112 c 0.024,-14.798 6.1176,-28.79456 14.4832,-36.57809 0.4312,-0.4012 0.8416,-0.80064 1.2416,-1.2016 1.0688,-1.16872 2.0032,-2.29912 2.8288,-3.40464 -1.3832,-0.28592 -2.7744,-0.52584 -4.1736,-0.71096 -0.01,0 -0.016,-0.008 -0.04,-0.008 -13.9104,-2.40072 -26.8296,-0.23568 -35.2032,5.29536 -12.924,8.53713 -21.652,9.91233 -29.7624,7.57497 l -0.1,0.0496 c 0.064,0.1056 0.1088,0.21408 0.1656,0.32032 -0.1168,-0.0312 -0.2336,-0.0544 -0.3504,-0.0875 l -0.04,0.1688 c 1.8672,3.4028 2.9888,7.1084 3.3808,10.82032 0.1728,3.8632 -0.4304,8.28704 -1.9544,13.52344 -0.3288,0.97184 -0.6368,1.94328 -0.916,2.9156 -0.3776,1.12112 -0.78,2.26424 -1.2376,3.45936 -3.8544,10.06608 -1.5848,25.74088 4.6864,39.27968 l 0,0.008 0.016,0 z m 286.1032,-0.12184 0.016,0 c 6.2296,-13.51072 8.4728,-29.11912 4.6296,-39.15464 -0.4576,-1.19512 -0.86,-2.33832 -1.2376,-3.45936 -0.2792,-0.9724 -0.5848,-1.94536 -0.9144,-2.9172 -1.524,-5.23648 -2.1288,-9.65864 -1.9544,-13.52192 0.392,-3.71168 1.5128,-7.41752 3.38,-10.82032 l -0.04,-0.17024 c -0.1168,0.0336 -0.236,0.0576 -0.352,0.089 0.056,-0.10624 0.1088,-0.21456 0.1672,-0.32032 l -0.1016,-0.0496 c -8.1096,2.33752 -16.8384,0.96208 -29.764,-7.57505 -8.3736,-5.53104 -21.292,-7.69608 -35.2016,-5.29528 -0.01,0 -0.016,0.008 -0.04,0.008 -1.3608,0.17984 -2.7144,0.41216 -4.06,0.68744 0.8304,1.11312 1.7712,2.25264 2.8488,3.42976 0.4,0.40136 0.8096,0.79992 1.2392,1.2 8.3664,7.78353 14.4568,21.78017 14.4824,36.57809 l 0,0.01 c -0.016,4.93464 -0.7664,9.82728 -2.1392,14.55784 10.0304,-0.64848 18.9368,1.58256 26.416,5.42968 6.7128,3.33688 12.7256,8.09904 17.5656,14.0672 1.6624,2.04448 3.14,4.20952 4.4672,6.45312 0.16,0.13464 0.2952,0.29648 0.4016,0.47656 0.064,0.10264 0.1256,0.20008 0.1872,0.3016 z m -143.312,-16.54224 0,0 c 3.4704,-6.52808 5.4392,-13.98 5.44,-21.8984 -0.016,-7.62904 -1.9192,-15.08112 -5.4608,-21.74376 -3.5288,6.66552 -5.416,14.11736 -5.4216,21.74376 0,7.92008 1.9696,15.37224 5.4424,21.90152 z m 91.3888,-13.57808 0,0 c 0.868,-3.65848 1.324,-7.40728 1.3376,-11.17816 -0.016,-13.7652 -5.9272,-27.01016 -13.3032,-33.87344 -0.4824,-0.44816 -0.9392,-0.89168 -1.3784,-1.3328 -0.016,-0.0176 -0.032,-0.0376 -0.056,-0.0576 -1.5544,-1.69761 -2.872,-3.36753 -3.9872,-5.02033 -5.2048,1.43976 -10.2496,3.60936 -15.0256,6.51721 -0.62,-5.22753 -1.9232,-10.25993 -3.7344,-14.97809 -3.7104,0.39384 -8.0768,0.4756 -13.3088,0.22968 -13.468,-0.63328 -27.2376,5.93448 -36.5096,17.20625 34.4616,1.4748 65.1408,17.67152 85.964,42.48752 z m -182.18,-0.0608 0,0 c 20.836,-24.79688 51.5184,-40.972 85.9784,-42.42816 -9.2728,-11.27025 -23.0416,-17.83785 -36.5096,-17.20465 -5.2928,0.24888 -9.6968,0.16216 -13.436,-0.24376 -1.8144,4.72272 -3.12,9.76032 -3.7408,14.99377 -4.7416,-2.88713 -9.7464,-5.04609 -14.9104,-6.48601 -1.112,1.64224 -2.4232,3.3024 -3.9672,4.98913 -0.016,0.0192 -0.04,0.0384 -0.056,0.056 -0.4408,0.44232 -0.8984,0.88672 -1.38,1.3344 -7.3768,6.86328 -13.2808,20.1068 -13.3048,33.87184 l 0,0.01 c 0.016,3.74752 0.4656,7.47424 1.3232,11.11096 z m 90.4624,-42.53592 c 0,0 0,0 0,0 0.2024,-2.4e-4 0.4024,-0.01 0.6032,-0.01 0.2264,0 0.4512,0.01 0.6768,0.01 9.9264,-13.44705 25.5208,-21.52577 41.1576,-20.79065 4.624,0.21736 8.4328,0.18424 11.66,-0.072 -6.6728,-14.73928 -18.256,-25.84416 -29.0272,-29.1828 -14.9416,-4.63136 -21.2776,-10.53544 -24.4384,-18.19376 l -0.04,-0.0152 -0.016,0.0128 -0.016,-0.0128 -0.04,0.0152 c -3.16,7.65832 -9.496,13.5624 -24.4392,18.19376 -10.7696,3.33792 -22.3488,14.4388 -29.0232,29.17344 3.2536,0.26544 7.1048,0.30112 11.7888,0.0812 15.6368,-0.73504 31.228,7.34504 41.1544,20.79065 0,0 0,0 -0.01,0 l 0.01,0 z m -135.0072,-10.63601 c 1.5968,-1.73744 3.2232,-3.44432 4.884,-5.12024 l -117.1688,-125.12505 -12.9672,12.96872 125.252,117.27657 z m 270.3416,-0.1156 125.124,-117.16249 -12.9672,-12.9672 -117.2768,125.24689 c 1.7368,1.5956 3.4448,3.2228 5.12,4.8828 z M 2700.703,731.08918 c 9.4424,-3.88544 19.1864,-6.99576 29.1344,-9.29688 l -56.312,-56.31249 27.1776,65.60937 z m 143.6376,-0.089 27.1392,-65.52033 -56.2856,56.28753 c 9.9504,2.27992 19.6976,5.36824 29.1464,9.2328 z"
       id="rect20333" /></g></svg>