<?xml version="1.0" encoding="UTF-8" standalone="no"?>
<!-- Created with Inkscape (http://www.inkscape.org/) -->

<svg
   width="345.61945mm"
   height="257.11194mm"
   viewBox="0 0 345.61945 257.11194"
   version="1.1"
   id="svg20428"
   inkscape:version="1.2.2 (b0a8486541, 2022-12-01)"
   sodipodi:docname="kist-binnen-zij-2keer.svg"
   xmlns:inkscape="http://www.inkscape.org/namespaces/inkscape"
   xmlns:sodipodi="http://sodipodi.sourceforge.net/DTD/sodipodi-0.dtd"
   xmlns="http://www.w3.org/2000/svg"
   xmlns:svg="http://www.w3.org/2000/svg">
  <sodipodi:namedview
     id="namedview20430"
     pagecolor="#ffffff"
     bordercolor="#000000"
     borderopacity="0.25"
     inkscape:showpageshadow="2"
     inkscape:pageopacity="0.0"
     inkscape:pagecheckerboard="0"
     inkscape:deskcolor="#d1d1d1"
     inkscape:document-units="mm"
     showgrid="false"
     inkscape:zoom="0.33165719"
     inkscape:cx="903.04089"
     inkscape:cy="502.0244"
     inkscape:window-width="1493"
     inkscape:window-height="1236"
     inkscape:window-x="0"
     inkscape:window-y="0"
     inkscape:window-maximized="0"
     inkscape:current-layer="layer1" />
  <defs
     id="defs20425" />
  <g
     inkscape:label="Laag 1"
     inkscape:groupmode="layer"
     id="layer1">
    <path
       id="back_outsideCutPath-3"
       style="display:inline;fill:#ffccaa;fill-opacity:1;stroke:#ff0000;stroke-width:0.1;stroke-dasharray:none"
       d="m 17.500098,22.48244 v 22.499913 h 5.999649 V 56.48243 h -5.999649 v 12.500017 h 5.999649 v 11.500076 h -5.999649 v 12.500018 h 5.999649 v 11.499539 h -5.999649 v 12.50002 h 5.999649 v 11.50008 h -5.999649 v 12.50002 h 5.999649 v 11.50007 h -5.999649 v 12.50002 h 5.999649 v 11.50008 h -5.999649 v 12.49998 h 5.999649 v 11.50008 h -5.999649 v 22.49994 h 24.499796 v -6.00016 H 53.49997 v 6.00016 h 12.500018 v -6.00016 h 11.500076 v 6.00016 h 12.500018 v -6.00016 h 11.499538 v 6.00016 h 12.50002 v -6.00016 h 11.50008 v 6.00016 h 12.50001 v -6.00016 h 11.50008 v 6.00016 h 12.50002 v -6.00016 h 11.50007 v 6.00016 h 12.50002 v -6.00016 h 11.50007 v 6.00016 H 210 v -6.00016 h 11.50008 v 6.00016 h 12.50001 v -6.00016 h 11.49956 v 6.00016 h 12.50001 v -6.00016 h 11.50007 v 6.00016 h 12.50001 v -6.00016 h 11.50008 v 6.00016 h 24.50031 v -22.49994 h -6.00015 v -11.50008 h 6.00015 v -12.49998 h -6.00015 v -11.50008 h 6.00015 v -12.50002 h -6.00015 V 140.9822 h 6.00015 v -12.50002 h -6.00015 V 116.9821 h 6.00015 v -12.50002 h -6.00015 V 92.982541 h 6.00015 V 80.482523 h -6.00015 V 68.982447 h 6.00015 V 56.48243 h -6.00015 V 44.982353 h 6.00015 V 22.48244 Z M 135.20249,55.196202 c 13.47501,0.393615 26.78198,4.524191 40.32261,2.752824 8.71082,-0.783844 17.32789,-2.746587 26.10073,-2.72336 6.1369,1.419747 12.06338,4.853432 15.67243,10.105334 0.82754,3.355086 -1.95426,6.283706 -3.32589,9.156022 -4.60149,7.258869 -10.91899,14.277341 -19.39158,16.820163 -7.41031,0.933761 -14.90458,0.154093 -22.35161,0.444923 -9.24128,-0.0045 -18.48995,0.0028 -27.72699,-0.07854 -7.47646,-0.123952 -13.50416,-5.521198 -18.21649,-10.793138 -3.45372,-4.12019 -6.46887,-8.726057 -8.25838,-13.818785 0.38464,-3.657516 4.03922,-5.83122 6.71587,-7.896155 3.15019,-1.949563 6.69815,-3.817902 10.4593,-3.969286 z m 133.73965,19.006594 c 0.46928,0.01355 0.59066,0.130613 0.59066,0.358112 0,0.206982 0.12,0.377247 0.26614,0.377247 0.14608,0 0.20034,0.104619 0.12092,0.233059 -0.0794,0.128467 -0.0433,0.296136 0.0796,0.372082 0.25011,0.154601 0.31069,6.151513 0.0661,6.54431 -0.0859,0.138006 -0.15685,0.420906 -0.1571,0.62786 0,0.206981 -0.33408,1.278918 -0.74156,2.382802 -0.60248,1.632176 -1.00874,2.276376 -2.17454,3.449405 -1.39531,1.403886 -1.47019,1.442804 -2.79931,1.442804 -1.14108,0 -1.47465,-0.108796 -2.02727,-0.661472 -0.69472,-0.694634 -0.7325,-0.837946 -0.66714,-2.511976 0.037,-0.946347 0.50355,-2.049384 -0.10749,-2.163713 -0.6026,-0.145598 -1.91586,0.515338 -2.54558,0.560183 -1.04696,0.04242 -1.41123,-0.06203 -2.00711,-0.574632 -0.67894,-0.583975 -0.72812,-0.748764 -0.72812,-2.445851 0,-1.232747 0.10121,-1.8531 0.31367,-1.923909 0.17244,-0.05749 0.31368,-0.230406 0.31368,-0.383964 0,-0.622158 1.39915,-2.235115 2.67115,-3.079411 1.71447,-1.138005 4.17895,-1.97866 6.8554,-2.33886 1.39138,-0.187255 2.20859,-0.27765 2.67787,-0.264076 z M 67.417477,75.479739 c 0.46928,-0.01355 1.286454,0.07676 2.677866,0.264047 2.676455,0.360201 4.280521,-0.06675 5.994993,1.071259 1.272032,0.844296 2.671149,2.457253 2.671149,3.079412 0,0.153557 0.140687,0.326446 0.313153,0.383935 0.212457,0.07081 0.31369,0.69119 0.31369,1.923937 0,1.697087 -0.04866,1.861848 -0.727625,2.445823 -0.595884,0.512572 -0.960176,0.617079 -2.007108,0.574661 -0.629722,-0.04485 -1.943495,-0.705782 -2.546096,-0.560183 -0.611011,0.114328 -0.143933,1.217365 -0.106962,2.163685 0.06533,1.674029 0.02709,1.81737 -0.667653,2.512003 -0.552591,0.552676 -0.88567,0.661444 -2.026751,0.661444 -1.329126,0 -1.404507,-0.03892 -2.799842,-1.442804 -1.165804,-1.173029 -1.572063,-1.817229 -2.174551,-3.449405 -0.407444,-1.103884 -0.74072,-2.175821 -0.741031,-2.382802 -2.25e-4,-0.206954 -0.07118,-0.489853 -0.157084,-0.62786 -0.244574,-0.392797 0.676458,-5.122588 0.926563,-5.277189 0.122908,-0.07595 0.158948,-0.243106 0.07956,-0.371545 -0.07939,-0.12844 -0.02512,-0.233596 0.120932,-0.233596 0.146163,0 0.265628,-0.16922 0.265628,-0.376202 0,-0.227499 0.121891,-0.345045 0.591169,-0.35862 z" />
  </g>
</svg>
